<?xml version="1.0" encoding="UTF-8"?><svg id="Livello_2" xmlns="http://www.w3.org/2000/svg" viewBox="0 0 308 1466"><defs><style>.cls-1{fill:#fff;}.cls-2{opacity:.1;}.cls-3{fill:#f5ead9;}.cls-4{fill:#9b2321;}</style></defs><g id="Livello_1-2"><rect class="cls-4" width="308" height="1466"/><g class="cls-2"><path class="cls-3" d="m128.28,166.21c3.28,0,6.55-.21,9.78.06,3.59.3,7.21.77,10.7,1.65,5.27,1.32,9.08,6.48,9.15,11.71.07,5.64-3.44,10.77-8.97,12.1-2.49.6-5.35.34-7.91-.19-6.27-1.28-12.4-1.15-18.48.79-1.1.35-2.27.82-3.11,1.57-.56.5-.94,1.67-.79,2.42,1.06,5.42,3.07,10.47,6.16,15.09,4,5.99,2.57,11.97-.92,15.76-5.22,5.67-14.4,5.2-19.02-1.02-6.07-8.19-9.63-17.4-10.98-27.52-1.6-12.03.37-23.48,5.47-34.41,3.71-7.95,9.54-14.23,15.97-20.03,8.07-7.28,17.61-11.37,28.24-13.15,8.53-1.43,16.99-1.17,25.37,1,8.78,2.28,12.61,11.73,7.78,19.12-2.43,3.72-7.73,6.08-12.09,5.19-6.23-1.28-12.42-1.94-18.73-.5-6.87,1.57-12.44,5.3-17.5,10-.1.09-.11.28-.14.36Zm-12.62,30.2c-1.1,1.14-2.38,2.28-3.44,3.59-3.95,4.86-5.77,10.6-6.79,16.68-.5,2.98-.46,5.6,1.77,8.08,3.7,4.12,9.64,4.89,13.95,1.47,3.91-3.09,4.52-9.12,1.49-13.46-1.23-1.78-2.45-3.63-3.25-5.62-1.37-3.37-2.41-6.89-3.72-10.74h0Z"/><path class="cls-3" d="m179.84,215.32c-3.08,0-5.82.21-8.5-.05-4.03-.4-8.09-.89-12.04-1.77-5.05-1.13-8.85-6.06-8.99-11.03-.17-6.07,3.05-11.08,8.37-12.73,2.9-.9,5.84-.56,8.76.15,6.46,1.57,12.81,1.4,18.96-1.4,3.37-1.53,3.32-1.52,2.47-5.15-1.13-4.78-3.1-9.15-5.78-13.27-4.6-7.06-2.18-15.56,5.56-18.85,4.67-1.99,9.75-1.05,13.44,3.07,4.96,5.56,8.13,12.15,10.07,19.28,4.62,16.99,2.9,33.28-6.25,48.43-9.56,15.81-23.82,24.98-41.82,28.49-8.36,1.63-16.65.99-24.85-1.04-7.07-1.75-11.17-7.82-9.89-14.45,1.27-6.63,7.73-11.06,14.42-9.92,2.47.42,4.93.98,7.41,1.18,9.83.81,18.43-2.28,25.96-8.55.88-.73,1.71-1.51,2.7-2.39h0Zm12.36-30.07c6.78-6.64,10.01-13.54,10.67-22.52.31-4.19-2.85-8.47-7.03-9.5-4-.99-8.23.49-10.57,3.69-2.39,3.25-2.54,7.33-.11,10.96,2.63,3.94,4.47,8.2,5.83,12.71.44,1.47.78,2.98,1.21,4.66h0Z"/><path class="cls-1" d="m115.65,196.41c1.31,3.86,2.35,7.37,3.72,10.74.81,1.99,2.02,3.85,3.25,5.62,3.03,4.35,2.41,10.37-1.49,13.46-4.31,3.41-10.24,2.65-13.95-1.47-2.23-2.48-2.27-5.11-1.77-8.08,1.03-6.08,2.84-11.82,6.79-16.68,1.06-1.31,2.33-2.45,3.44-3.59h0Z"/><path class="cls-1" d="m192.21,185.25c-.43-1.69-.77-3.19-1.21-4.66-1.35-4.5-3.19-8.77-5.83-12.71-2.43-3.62-2.27-7.7.11-10.96,2.35-3.2,6.57-4.67,10.57-3.69,4.18,1.03,7.34,5.3,7.03,9.5-.67,8.97-3.9,15.88-10.67,22.52h0Z"/></g><g class="cls-2"><path class="cls-3" d="m128.28,475.52c3.28,0,6.55-.21,9.78.06,3.59.3,7.21.77,10.7,1.65,5.27,1.32,9.08,6.48,9.15,11.71.07,5.64-3.44,10.77-8.97,12.1-2.49.6-5.35.34-7.91-.19-6.27-1.28-12.4-1.15-18.48.79-1.1.35-2.27.82-3.11,1.57-.56.5-.94,1.67-.79,2.42,1.06,5.42,3.07,10.47,6.16,15.09,4,5.99,2.57,11.97-.92,15.76-5.22,5.67-14.4,5.2-19.02-1.02-6.07-8.19-9.63-17.4-10.98-27.52-1.6-12.03.37-23.48,5.47-34.41,3.71-7.95,9.54-14.23,15.97-20.03,8.07-7.28,17.61-11.37,28.24-13.15,8.53-1.43,16.99-1.17,25.37,1,8.78,2.28,12.61,11.73,7.78,19.12-2.43,3.72-7.73,6.08-12.09,5.19-6.23-1.28-12.42-1.94-18.73-.5-6.87,1.57-12.44,5.3-17.5,10-.1.09-.11.28-.14.36Zm-12.62,30.2c-1.1,1.14-2.38,2.28-3.44,3.59-3.95,4.86-5.77,10.6-6.79,16.68-.5,2.98-.46,5.6,1.77,8.08,3.7,4.12,9.64,4.89,13.95,1.47,3.91-3.09,4.52-9.12,1.49-13.46-1.23-1.78-2.45-3.63-3.25-5.62-1.37-3.37-2.41-6.89-3.72-10.74h0Z"/><path class="cls-3" d="m179.84,524.63c-3.08,0-5.82.21-8.5-.05-4.03-.4-8.09-.89-12.04-1.77-5.05-1.13-8.85-6.06-8.99-11.03-.17-6.07,3.05-11.08,8.37-12.73,2.9-.9,5.84-.56,8.76.15,6.46,1.57,12.81,1.4,18.96-1.4,3.37-1.53,3.32-1.52,2.47-5.15-1.13-4.78-3.1-9.15-5.78-13.27-4.6-7.06-2.18-15.56,5.56-18.85,4.67-1.99,9.75-1.05,13.44,3.07,4.96,5.56,8.13,12.15,10.07,19.28,4.62,16.99,2.9,33.28-6.25,48.43-9.56,15.81-23.82,24.98-41.82,28.49-8.36,1.63-16.65.99-24.85-1.04-7.07-1.75-11.17-7.82-9.89-14.45,1.27-6.63,7.73-11.06,14.42-9.92,2.47.42,4.93.98,7.41,1.18,9.83.81,18.43-2.28,25.96-8.55.88-.73,1.71-1.51,2.7-2.39h0Zm12.36-30.07c6.78-6.64,10.01-13.54,10.67-22.52.31-4.19-2.85-8.47-7.03-9.5-4-.99-8.23.49-10.57,3.69-2.39,3.25-2.54,7.33-.11,10.96,2.63,3.94,4.47,8.2,5.83,12.71.44,1.47.78,2.98,1.21,4.66h0Z"/><path class="cls-1" d="m115.65,505.72c1.31,3.86,2.35,7.37,3.72,10.74.81,1.99,2.02,3.85,3.25,5.62,3.03,4.35,2.41,10.37-1.49,13.46-4.31,3.41-10.24,2.65-13.95-1.47-2.23-2.48-2.27-5.11-1.77-8.08,1.03-6.08,2.84-11.82,6.79-16.68,1.06-1.31,2.33-2.45,3.44-3.59h0Z"/><path class="cls-1" d="m192.21,494.57c-.43-1.69-.77-3.19-1.21-4.66-1.35-4.5-3.19-8.77-5.83-12.71-2.43-3.62-2.27-7.7.11-10.96,2.35-3.2,6.57-4.67,10.57-3.69,4.18,1.03,7.34,5.3,7.03,9.5-.67,8.97-3.9,15.88-10.67,22.52h0Z"/></g><g class="cls-2"><path class="cls-3" d="m128.28,784.83c3.28,0,6.55-.21,9.78.06,3.59.3,7.21.77,10.7,1.65,5.27,1.32,9.08,6.48,9.15,11.71.07,5.64-3.44,10.77-8.97,12.1-2.49.6-5.35.34-7.91-.19-6.27-1.28-12.4-1.15-18.48.79-1.1.35-2.27.82-3.11,1.57-.56.5-.94,1.67-.79,2.42,1.06,5.42,3.07,10.47,6.16,15.09,4,5.99,2.57,11.97-.92,15.76-5.22,5.67-14.4,5.2-19.02-1.02-6.07-8.19-9.63-17.4-10.98-27.52-1.6-12.03.37-23.48,5.47-34.41,3.71-7.95,9.54-14.23,15.97-20.03,8.07-7.28,17.61-11.37,28.24-13.15,8.53-1.43,16.99-1.17,25.37,1,8.78,2.28,12.61,11.73,7.78,19.12-2.43,3.72-7.73,6.08-12.09,5.19-6.23-1.28-12.42-1.94-18.73-.5-6.87,1.57-12.44,5.3-17.5,10-.1.09-.11.28-.14.36Zm-12.62,30.2c-1.1,1.14-2.38,2.28-3.44,3.59-3.95,4.86-5.77,10.6-6.79,16.68-.5,2.98-.46,5.6,1.77,8.08,3.7,4.12,9.64,4.89,13.95,1.47,3.91-3.09,4.52-9.12,1.49-13.46-1.23-1.78-2.45-3.63-3.25-5.62-1.37-3.37-2.41-6.89-3.72-10.74h0Z"/><path class="cls-3" d="m179.84,833.95c-3.08,0-5.82.21-8.5-.05-4.03-.4-8.09-.89-12.04-1.77-5.05-1.13-8.85-6.06-8.99-11.03-.17-6.07,3.05-11.08,8.37-12.73,2.9-.9,5.84-.56,8.76.15,6.46,1.57,12.81,1.4,18.96-1.4,3.37-1.53,3.32-1.52,2.47-5.15-1.13-4.78-3.1-9.15-5.78-13.27-4.6-7.06-2.18-15.56,5.56-18.85,4.67-1.99,9.75-1.05,13.44,3.07,4.96,5.56,8.13,12.15,10.07,19.28,4.62,16.99,2.9,33.28-6.25,48.43-9.56,15.81-23.82,24.98-41.82,28.49-8.36,1.63-16.65.99-24.85-1.04-7.07-1.75-11.17-7.82-9.89-14.45,1.27-6.63,7.73-11.06,14.42-9.92,2.47.42,4.93.98,7.41,1.18,9.83.81,18.43-2.28,25.96-8.55.88-.73,1.71-1.51,2.7-2.39h0Zm12.36-30.07c6.78-6.64,10.01-13.54,10.67-22.52.31-4.19-2.85-8.47-7.03-9.5-4-.99-8.23.49-10.57,3.69-2.39,3.25-2.54,7.33-.11,10.96,2.63,3.94,4.47,8.2,5.83,12.71.44,1.47.78,2.98,1.21,4.66h0Z"/><path class="cls-1" d="m115.65,815.04c1.31,3.86,2.35,7.37,3.72,10.74.81,1.99,2.02,3.85,3.25,5.62,3.03,4.35,2.41,10.37-1.49,13.46-4.31,3.41-10.24,2.65-13.95-1.47-2.23-2.48-2.27-5.11-1.77-8.08,1.03-6.08,2.84-11.82,6.79-16.68,1.06-1.31,2.33-2.45,3.44-3.59h0Z"/><path class="cls-1" d="m192.21,803.88c-.43-1.69-.77-3.19-1.21-4.66-1.35-4.5-3.19-8.77-5.83-12.71-2.43-3.62-2.27-7.7.11-10.96,2.35-3.2,6.57-4.67,10.57-3.69,4.18,1.03,7.34,5.3,7.03,9.5-.67,8.97-3.9,15.88-10.67,22.52h0Z"/></g><g class="cls-2"><path class="cls-3" d="m128.28,1094.15c3.28,0,6.55-.21,9.78.06,3.59.3,7.21.77,10.7,1.65,5.27,1.32,9.08,6.48,9.15,11.71.07,5.64-3.44,10.77-8.97,12.1-2.49.6-5.35.34-7.91-.19-6.27-1.28-12.4-1.15-18.48.79-1.1.35-2.27.82-3.11,1.57-.56.5-.94,1.67-.79,2.42,1.06,5.42,3.07,10.47,6.16,15.09,4,5.99,2.57,11.97-.92,15.76-5.22,5.67-14.4,5.2-19.02-1.02-6.07-8.19-9.63-17.4-10.98-27.52-1.6-12.03.37-23.48,5.47-34.41,3.71-7.95,9.54-14.23,15.97-20.03,8.07-7.28,17.61-11.37,28.24-13.15,8.53-1.43,16.99-1.17,25.37,1,8.78,2.28,12.61,11.73,7.78,19.12-2.43,3.72-7.73,6.08-12.09,5.19-6.23-1.28-12.42-1.94-18.73-.5-6.87,1.57-12.44,5.3-17.5,10-.1.09-.11.28-.14.36Zm-12.62,30.2c-1.1,1.14-2.38,2.28-3.44,3.59-3.95,4.86-5.77,10.6-6.79,16.68-.5,2.98-.46,5.6,1.77,8.08,3.7,4.12,9.64,4.89,13.95,1.47,3.91-3.09,4.52-9.12,1.49-13.46-1.23-1.78-2.45-3.63-3.25-5.62-1.37-3.37-2.41-6.89-3.72-10.74h0Z"/><path class="cls-3" d="m179.84,1143.26c-3.08,0-5.82.21-8.5-.05-4.03-.4-8.09-.89-12.04-1.77-5.05-1.13-8.85-6.06-8.99-11.03-.17-6.07,3.05-11.08,8.37-12.73,2.9-.9,5.84-.56,8.76.15,6.46,1.57,12.81,1.4,18.96-1.4,3.37-1.53,3.32-1.52,2.47-5.15-1.13-4.78-3.1-9.15-5.78-13.27-4.6-7.06-2.18-15.56,5.56-18.85,4.67-1.99,9.75-1.05,13.44,3.07,4.96,5.56,8.13,12.15,10.07,19.28,4.62,16.99,2.9,33.28-6.25,48.43-9.56,15.81-23.82,24.98-41.82,28.49-8.36,1.63-16.65.99-24.85-1.04-7.07-1.75-11.17-7.82-9.89-14.45,1.27-6.63,7.73-11.06,14.42-9.92,2.47.42,4.93.98,7.41,1.18,9.83.81,18.43-2.28,25.96-8.55.88-.73,1.71-1.51,2.7-2.39h0Zm12.36-30.07c6.78-6.64,10.01-13.54,10.67-22.52.31-4.19-2.85-8.47-7.03-9.5-4-.99-8.23.49-10.57,3.69-2.39,3.25-2.54,7.33-.11,10.96,2.63,3.94,4.47,8.2,5.83,12.71.44,1.47.78,2.98,1.21,4.66h0Z"/><path class="cls-1" d="m115.65,1124.35c1.31,3.86,2.35,7.37,3.72,10.74.81,1.99,2.02,3.85,3.25,5.62,3.03,4.35,2.41,10.37-1.49,13.46-4.31,3.41-10.24,2.65-13.95-1.47-2.23-2.48-2.27-5.11-1.77-8.08,1.03-6.08,2.84-11.82,6.79-16.68,1.06-1.31,2.33-2.45,3.44-3.59h0Z"/><path class="cls-1" d="m192.21,1113.2c-.43-1.69-.77-3.19-1.21-4.66-1.35-4.5-3.19-8.77-5.83-12.71-2.43-3.62-2.27-7.7.11-10.96,2.35-3.2,6.57-4.67,10.57-3.69,4.18,1.03,7.34,5.3,7.03,9.5-.67,8.97-3.9,15.88-10.67,22.52h0Z"/></g></g></svg>