<?xml version="1.0" encoding="UTF-8"?>
<svg id="Livello_1" data-name="Livello 1" xmlns="http://www.w3.org/2000/svg" viewBox="0 0 928.28 589">
  <path d="m57.62,294.93c12.09-10.03,23.19-21.72,36.54-29.64,15.4-9.14,32.78-14.96,50.33-22.66-.38-3.44-.95-8.6-1.66-14.97-10.86-.61-21.94-1.32-33.02-1.8-5.91-.26-10.24-1.37-10.19-8.91.05-7.94,5.76-7.59,10.37-7.33,16.48.92,32.91,2.78,49.39,3.75,38.92,2.3,77.87,4.14,116.79,6.49,11,.66,12.88,4.68,13.73,15.31.5,6.33,3.8,13.28,7.93,18.21,3.47,4.14,9.82,3.75,13.5-1.87,5.46-8.33,10.63-16.85,15.97-25.26,1.78-2.8,3.72-5.5,5.99-8.84-3.52-14.4-7-29.96-11.17-45.33-4.07-14.98-9.02-19.33-23.89-18.04-12.29,1.07-21.45-5.76-31.76-9.57-2.67-.99-4.52-6.14-5.37-9.71-1.67-7.02-2.36-14.28-3.49-21.44-.68-4.28-2.11-8.57-1.99-12.82.25-8.82,4.35-15.14,14.02-15.35,8.4-.19,16.85.17,25.24.77,19.88,1.43,39.74,3.09,59.6,4.77,8.39.71,16.86,1.15,25.11,2.7,7.83,1.47,11.52,8.76,7.68,15.57-3.4,6.03-8.85,10.85-12.73,16.65-8.3,12.37-20.47,19.54-33.13,26.36-1.51.81-2.55,5.22-1.78,7.13,4.91,12.07,6.77,25.11,15.8,35.94,5.84,7,7.79,17.56,10.44,26.82,4.94,17.25,8.11,35.06,13.81,52.04,10.84,32.22,22.8,64.07,34.6,95.96,4.08,11.04,25.77,15.07,32.33,7.9-2.59-3.47-4.98-6.67-7.37-9.86,4.62-2.79,8.93-6.67,13.93-8.07,5.16-1.44,11.09-1.09,16.51-.3,3.25.47,6.15,3.29,9.21,5.06-2.53,3.04-4.61,6.72-7.73,8.9-2.13,1.49-5.72.88-8.81,3,1.47.25,3.15,1.11,4.38.67,18.69-6.66,35.16-15.72,48.45-31.75,21.35-25.73,34.59-55.54,47.68-85.49,17.11-39.12,33-78.78,49.42-118.2.48-1.15,1.45-2.37,1.33-3.46-1.82-17.03,3.83-35.25-7.84-50.68-1.08-1.43-3.32-2.38-5.18-2.74-10.83-2.08-14.41-7.22-11.11-17.92,2.55-8.26,6.13-16.21,10.19-26.74-20.63,7.9-39.47,15.12-58.21,22.3-8.65-9.47-7.91-13.03,2.86-17.21,3.41-1.32,6.47-3.55,9.68-5.37,16.68-4.99,33.37-9.97,50.02-14.95-5.78-6.39-31.39,1.39-49.81,15.2-9.71,2.97-19.68,5.31-29.02,9.18-4.65,1.93-7.24,1.82-8.75-2.57-1.5-4.36-3.66-9.5-2.52-13.42.78-2.68,6.64-4.08,10.41-5.64,19.73-8.19,39.5-16.26,59.28-24.31,2.59-1.05,5.29-1.98,8.03-2.53,14.32-2.88,30.95.63,28.41,23.25-1.14,10.15-3.88,20.11-5.97,30.55,9.48,1.76,9.82,9.25,8.6,16.87-2.37,14.74,6.43,26.21,11.13,38.77,1.54,4.13,10.05,7.34,9.67,10.22-2.23,17.1,7.31,30.65,12.07,45.55,3.31,10.36,7.69,20.38,12,31.6,3.43-2.92,6.13-5.22,9.64-8.22,8.27,8.55,9.47,19.45,10.62,29.99.19,1.74-5.28,4.09-8.31,6.28,4.46,8.79,9.67,19.06,14.79,29.16,15.85-2.7,30.41-4.55,44.65-7.78,17.27-3.92,34.19-2.26,51.08,1.31,2.14.45,3.63,3.96,5.42,6.05-2.1,1.06-4.38,3.29-6.27,3-26.26-4.04-51.7,1.31-77.13,6.44-4.44.9-8.55,3.39-12.81,5.15l.99,3.41c2.69-.58,5.41-1.02,8.05-1.77,35.41-10.2,71.02-11.49,106.09.37,60.55,20.48,99.07,61.76,111.12,125,7.66,40.19-.76,78.67-21.95,113.37-31.24,51.17-77.13,80.35-137.81,79.55-95.45-1.26-163.68-75.32-164.69-159.57-.01-1.25.39-2.67-.08-3.72-.97-2.2-2.39-4.2-3.63-6.28-1.14,2.05-3.38,4.17-3.25,6.14,1.05,15.52,2.71,31,3.76,46.53.19,2.74-1.54,5.62-2.39,8.43-2.02-2.15-5.31-4.02-5.87-6.5-16.85-74.39-3.54-140.04,56.4-191.95.94-.82,1.71-1.87,2.73-2.56,8.44-5.75,16.29-11.73,9.55-25.08-1.22-.9-4.15-3.06-7.78-5.72-15.8,10.33-27.99,24.51-37.03,40.94-17.89,32.51-33.92,66.06-52.38,98.23-14.25,24.84-34.36,44.26-62.7,53.31-4.45,1.42-8.79,4.95-13.08,4.8-14.53-.51-18.24,9.22-21.14,20.2-3.67,13.88-25.44,25.62-37.71,22.7-10.42-2.48-15.53-.2-18.68,9.37-1.23,3.73-3.2,7.22-5.13,11.45,3.98.77,6.9,1.33,12.24,2.37-2.98,5.77-5.44,10.53-7.91,15.3-.78-.2-1.55-.4-2.33-.6-.47-2.91-.95-5.81-1.42-8.72-.66.1-1.33.21-1.99.31.34,2.89.69,5.78,1.28,10.76h-32.83c-2.89-11.81.38-18.23,10.32-18.73,7.62-.38,10.14-4.17,12.59-9.95,2.05-4.84,4.85-9.36,8.09-15.46-6.34-1-11.79-1.79-17.21-2.73-11.19-1.94-22.41-3.74-33.54-6.02-6.02-1.23-8.17,1.87-10.41,6.6-16.47,34.7-40.34,62.43-73.57,82.77-36.46,22.32-75.18,23.75-114.96,15.5-43.85-9.1-77.13-35.1-101.5-71.71-17.43-26.18-22.94-56.57-22.69-87.67.12-15.15,2.48-30.28,3.93-46.57-4.82-2.74-9.11-2.73-10.37,5.58-.65,4.32-2.2,8.58-2.3,12.89-.23,9.7-5.18,11.72-15.65,8.71,2.31-12.97,4.67-26.2,7.21-40.41-3,1.46-5.28,2.57-7.56,3.68-4.91-11.7-1.04-25.33,11.02-35.85,1.15,4.22,2.13,7.8,2.65,9.69,12.26-13.24,25.19-27.2,38.12-41.16-3.73,4.55-7.23,9.31-11.23,13.6-16.09,17.25-27.66,36.83-31.71,60.34-1.54,8.91-2.67,17.9-3.98,26.85.76.2,1.52.4,2.27.59,14.09-78.95,63.21-125.93,137.24-150.9-13.6,2.91-27.14,5.81-38.62,12.34-17.49,9.94-33.56,22.39-50.23,33.78Zm817.68,44.13c3,4.12,6.01,8.25,9.01,12.37.78,1.68,1.4,3.45,2.36,5.01,19.4,31.35,21.32,65.73,13.27,100.02-6.29,26.81-20.58,50.76-40.79,70.22-7.51,7.23-15.68,14.32-24.77,19.25-10.84,5.88-23.1,9.09-34.52,13.97-24.2,10.32-48.77,8.49-72.82.94-18.66-5.86-35.52-16.06-50.66-28.65-2.95-2.45-5.21-5.74-7.79-8.64,4.23,1.98,7.76,2.68,9.8-3.15.82-2.34,3.35-4.09,5.11-6.11-1.84,4.8-3.68,9.6-5.69,14.82,8.06,5.66,15.83,11.12,24.32,17.08,11.35-30.42,22.21-59.53,33.06-88.63-1.09-.78-2.19-1.56-3.28-2.33-5.94,5.95-12.63,11.34-17.65,17.99-8.46,11.2-15.74,23.27-23.8,34.78-1.84,2.62-4.84,4.43-7.31,6.62,15.46-22.6,30.91-45.19,46.37-67.79-.86,2.83-1.72,5.65-2.58,8.48.68.56,1.36,1.12,2.03,1.68,3.86-4.1,7.72-8.2,11.58-12.3-.9-.98-1.79-1.97-2.69-2.95-2.88,1.88-5.76,3.77-8.64,5.65-2.12-.76-4.42-2.49-6.33-2.14-15.86,2.88-31.66,6.15-47.47,9.29,16.2-5.61,32.98-8.54,49.39-12.88,6-1.58,11.69-5.88,16.38-10.19,1.95-1.79,1.67-7.02.87-10.3-.33-1.35-4.77-2.55-7.26-2.4-21.76,1.38-43.51,2.96-65.25,4.72-12.26.99-24.48,2.43-36.72,3.66-.08-.79-.16-1.58-.24-2.38,10.01-1.09,20.02-2.18,30.03-3.27,0-.12-.01-.23-.02-.35h-34.34c1.7,12.69,3.29,24.49,4.84,36.05,12.39-.83,23.21-1.55,34.04-2.27.04.51.08,1.02.12,1.53-10.72,1.25-21.43,2.51-35.32,4.13,6.49,12.27,11.79,23.16,17.89,33.58,5.94,10.15,12.7,19.82,19.09,29.7-6.85-7.53-13.69-15.06-20.55-22.57-2.53-2.77-5.13-5.49-7.7-8.23-3.86-7.01-6.98-13.33-7.06-22.49-.15-15.87-4.8-31.7-7.59-47.54-.26-1.47-.68-2.92-1.03-4.38-2.9,2.87-3.54,3.61-3.59,4.39-1.6,24.17,4.49,46.83,13.81,68.79.75,1.77,3.35,2.75,5.09,4.1,1.03,3.42,1.36,7.28,3.21,10.18,18.48,28.96,44.95,47.87,76.85,59.51,56.48,20.61,108.28,3.87,146.94-34.1,19-18.66,32.4-41.45,38.43-68.97,6.03-27.53,7.86-54.46.44-81.24-3.35-12.1-11.76-22.8-17.87-34.14-7.48-18.69-21.66-30.73-39.15-39.51-1.09-1.42-1.89-3.47-3.33-4.15-14.9-7.05-29.47-15.14-44.97-20.49-27.25-9.41-54.9-5.2-82.13,1.44-3.5.85-6.39,4.21-9.56,6.41,6.7.02,12.14-2.2,17.8-3.28,26.91-5.11,40.89-4.44,71.42,2.74,1.19.28,2.5.86,3.61.63,13.74-2.89,24.13,5.04,35.26,10.69,3.99,2.03,8.1,3.83,12.13,5.76,2.31,2.82,4.61,5.63,6.92,8.45,2.28,2.82,4.53,5.65,6.83,8.45,4.05,4.91,8.13,9.8,12.19,14.7ZM324.73,137.23c-12.18,3.22-25.82-.03-37.1,6.68,1.94.86,4.13.07,5.07.82,8.28,6.66,17.51,5.71,26.92,3.89,1.48-.29,2.98-.53,2.99-.53.73-4.3,1.31-7.68,1.92-11.04,2.68.17,5.37.34,8.05.5.18,3.33.32,5.77.45,8.25,21-3.23,27.22-6.96,28.66-19.01-6.54,2.46-12.06,4.97-17.82,6.57-6.26,1.73-12.75,2.61-19.14,3.85Zm-6.15,323.68c3.24,2.6,6.49,5.2,10.33,8.28,1.31-6.85,2.21-11.51,3.1-16.18-.55-.77-1.09-1.55-1.64-2.32-2.46,1.62-5.11,3.04-7.34,4.94-1.81,1.54-3.13,3.66-4.66,5.52.83-3.22,1.66-6.44,2.99-11.58-21.84-2.52-42.93-4.96-64.02-7.4-.08.65-.15,1.31-.23,1.96,3.15,2.42,6.3,4.84,9.44,7.26-9.02-3.88-19.06-6.37-26.74-12.05-6.81-5.04-12.53-3.22-18.8-3.94-.17.91-.34,1.83-.51,2.74,5.24,1.02,10.48,2.03,16.17,3.14-1.65,1.73-2.92,3.05-4.14,4.33,6.37,1.71,12.06,3.68,17.91,4.69,5.27.91,10.72.78,16.09,1.1,4.28,1.53,8.48,3.31,12.84,4.53,10.68,3.01,21.38,6.02,32.21,8.39,1.97.43,4.59-2.17,6.98-3.43Zm-162.46-172.59c-3.81,1.81-7.5,3.98-11.47,5.34-5.51,1.88-7.53,4.67-4,9.94-5.89-8.33-11.67-3.91-17.6.04q-13.37,8.9-5.85,21.5c-3.54-3.2-7.09-6.4-10.95-9.89-6.05,6.44-11.91,12.67-17.37,18.49,2.16,4.03,3.87,7.24,5.59,10.45-2.67-2.45-5.34-4.9-8.83-8.1-5.31,7.63-10.98,14.55-15.14,22.29-2.08,3.87-1.87,8.69,5.21,10.16,10.35,2.16,20.4,5.71,30.57,8.71,6.87,2.02,13.72,4.1,20.59,6.16.82-1.14,1.65-2.28,2.47-3.42-3.11-2.09-6.73-3.71-9.24-6.38-5.9-6.27-11.27-13.03-16.85-19.59,2.21,2.16,4.63,4.14,6.59,6.51,14.61,17.67,31.48,31.49,55.56,33.4,3.22.26,6.44.51,10.57.83-1.46-3.9-2.41-6.45-3.37-9,2.25,1.96,4.5,3.92,6.75,5.89,1.02-.47,2.04-.93,3.06-1.4-4.46-12.17-8.92-24.35-13.37-36.52.81-.76,2.45-1.71,2.33-2.24-4.96-21.09-10.08-42.15-15.18-63.21-1.05-2.39-2.09-4.78-3.3-7.55-24.89,8.78-49.35,17.05-66.41,37.67-10.85,13.11-20.46,27.26-30.34,41.15-1.46,2.06-1.34,5.25-1.95,7.91,2.25-1.74,5.39-3.01,6.62-5.3,20.85-38.82,51.2-65.25,95.33-73.82Zm681.01,65.59c5.33-7.55,10.97-14.92,15.8-22.78,1.29-2.11,1.35-7.12-.12-8.4-6.63-5.79-14-10.71-22.65-17.08-1.73,6.38-2.7,10.51-3.97,14.55-3.93,12.49-7.98,24.94-11.98,37.41,3.33-13.59,6.92-27.12,9.9-40.79,2.78-12.77.21-16.47-12.63-19.99-2.4-.66-4.96-.83-7.27-1.7-4.89-1.84-7.25-.23-8.95,4.67-5.5,15.9-10.57,32.03-17.43,47.35-7.81,17.43-1.68,31.68,6.68,46.09,12.38-2.77,21.71-7.9,24.25-21.29.96-5.03,3.74-9.72,5.73-14.61-1.86,8.45-3.72,16.89-6.2,28.16,5.41-4.79,9.12-8.08,12.84-11.38,2,.66,4.13,2.12,5.98,1.83,4.57-.73,9-2.26,13.49-3.47-4.68,2.26-9.28,4.72-14.06,6.74-7.53,3.18-14.55,6.75-17.46,16.78,28.64-1.61,56.66-3.19,85.81-4.84-3.37-9.77-5.54-18.57-9.48-26.49-2.06-4.14-6.06-7.86-12.92-4.52-10.28,5-21.33,8.41-32.02,12.47,12.22-6.09,24.44-12.19,37.74-18.81-6.38-8.49-12.39-16.49-18.45-24.56-8.07,8.79-15.35,16.73-22.64,24.67Zm-60.02,138.78c-1.71,2.48-4.53,4.8-4.94,7.48-1.93,12.56-3.33,25.22-4.67,37.87-.77,7.23-1.06,14.52-1.67,23.33,10.66-1.64,19.54-3.01,28.12-4.34-2.74-12.97-5.09-24.12-7.45-35.27,3.03,9.4,5.86,18.88,9.24,28.15.8,2.18,4.15,5.55,5.19,5.18,9.59-3.4,18.94-7.51,29.41-11.84-4.05-5.6-6.47-8.79-8.74-12.1-6.08-8.89-12.09-17.82-18.12-26.74,9.54,11.99,19.08,23.97,28.95,36.36,2.96-1.67,5.81-3.27,6.54-3.68.72-5.63,1.2-9.36,1.89-14.78,3.93,3.68,5.83,5.46,7.45,6.98,5.56-2.59,7.03-5.47,3.72-10.48-2.86-4.33-4.76-9.29-7.08-13.97,4.17,5.55,8.33,11.1,13.41,17.85,7.95-11.31,15.36-21.86,21.02-29.93-6.51-7.78-11.86-14.18-17.21-20.58,6.76,4.59,13.53,9.18,20.37,13.82,10.89-21.3,12.23-27.3,8.69-29.94,8.41-8.55,4.62-19.6,7.57-30.77-26.77,3.07-51.78,5.93-76.78,8.8-.34,1.03-.67,2.06-1.01,3.08,6.77,3.36,13.54,6.72,18.74,9.29.56-.09-1.36.23-4.07.68,2.12,2.4,3.68,4.16,5.25,5.93-1.7-.59-3.96-.67-5.02-1.84-7.64-8.44-17.63-8.23-28.35-8.69,3.46,6.41,6.48,12,9.5,17.6-2.73-3.2-6.57-5.99-7.97-9.69-3.9-10.3-12.47-10.95-21.17-11.37-1.77-.09-5.12,1.95-5.24,3.23-.87,9.6-1.11,19.26-1.54,28.9-1.69.82-4.82,1.62-4.83,2.45-.07,6.34.47,12.69.82,19.04Zm-516.12-130.87c-13.51,8.42-25.01,18.71-33.43,35.86,30.86-6.45,59.52-12.45,90.41-18.91-6.73-12.32-12.44-22.78-18.27-33.46-7.06,2.73-12.74,4.93-18.42,7.12,4.51-3.48,9.02-6.96,14.52-11.21-5.27-5.88-10.48-11.7-16.48-18.4-5.84,7.98-10.84,14.65-15.65,21.45-4.71,6.65-9.22,13.44-14.42,21.06,4.81-1.44,8.27-2.47,11.73-3.51Zm485.83-44.94c5.33,9.57,10.66,19.13,15.99,28.7.63-.12,1.26-.24,1.88-.36v-55.69h-31.34c1.86,4.45,3.02,7.23,4.19,10.02-1.24-.85-2.96-1.42-3.66-2.6-5.82-9.83-12.84.12-19.12-1.28-.71,4.25-3.24,9.28-1.82,12.63,8.11,19.16,13.64,39.73,28.6,55.43,2.01,2.11,2.76,5.42,4.1,8.17-1.79-2.39-3.58-4.77-5.37-7.16l-2.88,2.3c6.26,9.81,12.51,19.63,18.77,29.44l3.53-1.54c-.54-2.52-.63-5.26-1.72-7.52-1.44-2.99-3.65-5.61-5.53-8.39,2.81,2.16,5.63,4.32,9.74,7.48.5-16.27,4.76-30.97-4.62-45.21-4.83-7.33-7.24-16.25-10.74-24.45Zm-548.85,5.54c1.84-10.14,3.67-20.29,5.73-31.65-9.71-.46-18.81-.89-29.23-1.39,4.4,21.27,8.54,41.26,13.01,62.86,4.05-11.34,7.4-20.74,10.75-30.14-1.87,7.56-3.4,15.22-5.67,22.65-5.11,16.69-.34,32.06,4.55,48.67,27.91-26.84,33.23-61.14,40.16-95.96-10.09-1.89-19.72-3.7-29.83-5.6-3.27,10.59-6.35,20.55-9.47,30.56Zm604.25,99.33c10.9,10.76,23.97,9.6,37.38,6.91,2.74-.55,5.6-.44,8.4-.71,16.42-1.54,32.84-3.1,49.42-4.67,0-7.63.1-14.45-.03-21.26-.12-6.39-2.57-9.21-9.89-8.6-24.58,2.02-49.22,3.23-73.83,4.78-11.86.75-16.67,6.85-15.31,19.25-1.3.31-2.61.61-3.91.92,1.91,4.02,3.19,8.6,6.02,11.81,1.29,1.47,5.64.25,8.6.25.29-.73.59-1.46.88-2.19-2.58-2.17-5.15-4.34-7.73-6.51Zm-56.6,99.88c-3.98,11.94-7.97,23.87-12.19,36.51,6.17.92,11.97,1.48,17.64,2.7,7.55,1.62,11.49-.19,12.3-8.74,1.92-20.12,4.89-40.14,6.81-60.26.58-6.04-.92-12.28-1.46-18.43-.88-.06-1.77-.12-2.65-.18-1.35,1.93-2.7,3.86-4.05,5.78,3.14-11.35,1.43-21.93-5.17-32.12-10.67,2.66-18.53,7.33-22.32,19.28-6.67,21.06-15.2,41.54-22.91,62.28-7.72,20.77-6.5,23,15.32,28.19.56.13,1.21-.14,2.71-.35,1.32-2.92,2.81-6.28,4.35-9.62,3.86-8.35,7.75-16.69,11.63-25.04ZM90.7,424.29c-10.84,3.09-21.69,6.19-33.19,9.47,1.69,4.74-.49,11.39,8.11,11.07.4-.02,1.63,5.4,1.33,5.52-9.89,4.12-2.83,9.02-1.44,14.04,10.2-1.35,19.71-2.62,29.21-3.88-9.16,2.31-18.33,4.61-28.41,7.15,13.55,30.57,29.16,58.4,61.26,73.27,2.42-5.35,4.55-10.05,6.67-14.74-.7,3.28-1.59,6.54-2.02,9.86-.3,2.31-.78,5.15.23,6.98,2.21,4.04,22.5,10.11,27.58,8.82.77,1.21,1.36,3.31,2.33,3.5,9.4,1.84,18.86,3.36,28.74,5.05.88-3.08,1.72-4.79,1.81-6.53,1.32-24.29,2.73-48.57,3.56-72.88.13-3.86-2.47-7.81-3.81-11.72l-2.32.25c-4.69,13.39-9.38,26.78-14.07,40.17,2.17-9.03,2.69-18.91,6.85-26.9,7.84-15.03,5.32-27.77-3.21-38.83-4.49-1.25-7.81-3.15-10.82-2.74-3.26.44-7.44,2.28-9.05,4.86-2.85,4.59-4.06,10.2-5.95,15.38.58-4.89-1.71-5.72-5.25-3.2-5.13,3.64-9.94,7.73-14.89,11.63-.5-.14-1-.27-1.5-.41,4.83-7.28,9.67-14.56,15.24-22.95-5.09.23-8.69.39-12.29.56,14.34-3.07,22.42-12.32,26.01-26.14-7.23-8.07-15.65-8.83-25-4.52,1.88-1.74,3.75-3.48,6.74-6.24-9.63-4.51-18.5-11.5-27.98-12.48-16.75-1.74-33.88-.03-50.83.8-2.57.13-6.96,3.12-7.15,5.11-.8,8.53-.34,17.17-.34,26.91,12.22-2.25,23.04-4.24,33.85-6.23Zm229.75,59.28c-2.8.49-7,0-8.17,1.64-5.94,8.32-9.92,18.29-16.77,25.65-11.59,12.44-23.25,26.23-37.78,34.14-16.01,8.72-34.96,13.75-53.2,16.32-37.4,5.25-70.21-8.73-101.07-28.87-10.4-6.79-20.3-14.47-26.4-24.51-8.79-14.46-16.5-30.23-21.05-46.45-7.41-26.4-10.76-53.65-1.76-80.81-7.6-4.57-7.77,2.12-8.62,6.02-8.09,37.03-3.78,72.78,13.66,106.33,15.91,30.61,42.24,49.54,73.14,64.1,23.61,11.12,48.61,13.34,73.01,12.54,26.39-.86,52.1-9.63,72.27-29.1,17.34-16.74,33.41-34.39,42.55-57.26,1.57-1.79,3.48-3.39,4.6-5.43.72-1.31.26-3.26.33-4.92-2.27-.09-4.69-.69-6.75-.07-1.18.35-2.8,3.08-2.42,4.05.94,2.42,2.91,4.44,4.46,6.63Zm359.65-156.28c-2.88-1.79-5.76-3.58-9.52-5.93-19.16,24.96-37.36,50.22-37.91,83.01h85.55c-23.2-19.8-51.88-10.34-77.38-17.91,17.82.95,35.64,1.9,53.53,2.85-.27-1.57-.48-2.79-.46-2.64,8.69,1.93,17.27,3.83,25.84,5.73.25-.91.5-1.82.75-2.73-16.8-18.82-19.26-46.87-40.71-62.72,2.91,1.34,5.82,2.68,9.07,4.18-6.01-16.53-6.4-16.83-13.8-10.96,1.68,2.38,3.36,4.75,5.04,7.13Zm-376.09,146.94c2.6.59,5.2,1.19,9.21,2.11-.81-3.28-.93-7.1-1.94-7.35-5.53-1.37-11.29-1.87-18.36-2.86,2.46,2.62,3.9,4.16,5.34,5.69-29.85-18.31-65.15-17.5-96.96-29.02q-2.44,9.06,4.33,28.01c-1.76-1.63-3.51-3.27-5.27-4.9-.76.39-1.52.77-2.28,1.16,2.83,23.8,20.96,41.8,25.95,64.88-7.65-15.36-15.3-30.71-24.14-48.47-1.58,27.08-2.99,51.11-4.51,77.14,16.09-4.14,30.81-6.96,44.78-11.91,7.7-2.73,14.12-9.04,21.12-13.73,2.97-.95,6.79-1.05,8.75-3.01,9.43-9.4,18.78-18.95,27.33-29.14,6.32-7.53,14.92-15.21,7.13-26.82-.32-.48-.34-1.18-.5-1.77Zm97.93-69.14c-17.87-57.61-39.1-111.71-61.81-166.36-10.82,14.21-19.63,28.62-28.02,43.28-.66,1.16,1.24,4.35,2.63,6.03,7.36,8.86,16.26,16.72,22.19,26.42,15.61,25.55,28.49,52.45,34.2,82.25.56,2.95,2.48,7.85,4.13,8,8.64.81,17.4.38,26.68.38Zm226.62-244.39c-1.66,3.37-2.58,5-3.29,6.71-10.86,26.22-21.63,52.48-32.58,78.67-4.69,11.21-10.01,22.16-14.43,33.47-.98,2.52.64,6.06,1.06,9.13,3.38-.7,6.85-1.13,10.1-2.23,1.22-.41,1.97-2.33,2.85-3.62,15.34-22.51,31.28-44.46,54.04-60.4,1.42-1,2.35-4.53,1.76-6.29-6.09-17.98-12.54-35.84-19.51-55.46Zm-462.87,81.95c30.36,1.46,59.55.03,87.51,9.53,10.01,3.4,19.65,7.89,29.63,11.39,2.05.72,4.87-.77,7.34-1.23-.5-2.14-.69-4.42-1.55-6.4-2.33-5.37-6.06-10.4-7.16-15.97-1.18-5.98-3.8-7.49-9.28-7.68-24.29-.81-48.57-2.08-72.86-2.86-11.98-.38-23.98-.07-36.76-.07,1.21,5.14,2.18,9.3,3.12,13.29Zm277.94,149.46c12.6,3.69,25.93-.85,39.53-7.14,12.71-5.88,24.31-11.11,32.16-24.52,9.95-17,24.84-31.1,34.87-48.06,10.58-17.88,18.37-37.48,26.62-56.65,14.92-34.69,29.36-69.59,43.68-104.53,1.26-3.08.17-7.13.17-10.73-1.05-.04-2.1-.08-3.15-.12-1.65,4.91-3.04,9.92-4.98,14.7-8.91,21.93-17.46,44.02-27.11,65.62-14.97,33.51-29.09,67.57-46.59,99.75-20.51,37.71-50.67,63.89-96.98,64.15-1.4,0-2.8.51-4.2.78,13.58,5.83,26.56-.71,39.78-1.78.11.75.22,1.49.33,2.24-12.09,2.23-24.17,4.46-34.11,6.29Zm127.43-96.86c-2.35,4.54-4.6,8.6-6.59,12.79-12.25,25.79-26.45,49.99-50.18,67.38-7.64,5.6-7.32,14.51-.49,20.93,7.2,6.77,11.46-.32,15.44-4.23,24.2-23.78,35.42-55.23,49.35-85.02,2.64-5.65.64-10.44-7.53-11.85Zm-89.42,139.73c18.65-1.05,33.53-10.71,48.42-20.98,11.89-8.2,13.58-22.63,22.17-32.79,4.73-5.59,8.1-12.5,11.3-19.18,14.42-30.07,27.26-61.18,48.16-87.43,10.7-13.44,24.94-24.04,37.46-36.05,2.54-2.43,4.55-5.4,6.81-8.12-.61-1.01-1.23-2.01-1.84-3.02-3.45,1.27-7.44,1.82-10.27,3.92-29.99,22.2-48.42,53.47-64.57,85.87-12.06,24.2-20.9,49.84-38.62,71.15-18.14,21.82-39.85,36.2-68.41,39.44-1.52.17-2.9,1.55-4.34,2.36.33,1.05.65,2.11.98,3.16,14.52-3.9,29.05-7.8,43.57-11.7l.53,1.21c-10.45,4.05-20.89,8.1-31.34,12.15Zm278.28-17.68c1.49-.87,2.97-1.74,4.46-2.61-1.31-2.93-2.24-6.1-3.98-8.74-8.68-13.14-19.16-25.35-26.08-39.33-17.53-35.45-33.81-71.52-44.42-109.87-.89-3.22-6.89-7.68-9.74-7.17-7.21,1.27-3.97,7.07-2.1,11.11,19.81,42.93,39.27,86.03,60,128.51,5.09,10.43,14.46,18.79,21.86,28.1ZM150.08,265.21c-.53-7.92-5.64-5.57-9.95-4.36-32.67,9.19-62.46,23.78-84.38,50.37-11.5,13.95-20.47,29.99-30.87,45.51,10.42,4.09,14.11.47,17.6-6.47,16.25-32.28,40.56-56.73,73.53-71.95,10.94-5.05,22.53-8.71,34.07-13.1Zm298.82,144.4c1.91,1.66,3.73,3.23,5.53,4.81,3.75,3.29,7.21,8.96,11.29,9.45,13.75,1.66,26.7-2,36.7-12.19,6.3-6.41,1.21-13.22-1.95-18.69-2.59-4.48-7.52-6.46-13.78-3.74-7.35,3.19-15.33,5.03-23.13,7.04-7.38,1.9-13.49,4.81-14.66,13.31Zm-27.7-6.62c-4-10.66-7.99-20.74-11.59-30.95-15.25-43.22-30.4-86.48-45.56-129.73-2.06-5.87-5.48-7.34-9.47-5.25,9.82,28.05,19.14,55.05,28.73,81.94,9.91,27.8,20.08,55.5,30.4,83.99h7.5Zm373.43-110.81c-9.25-1.18-17.53-2.24-26.71-3.42-.38,25.11-3.78,48.22.04,71.15,1.1.11,2.19.21,3.29.32,7.53-21.91,15.06-43.83,23.38-68.05Zm-598.02,118.05c.79.19,1.58.39,2.37.58,4.54-5.91,9.36-11.62,13.57-17.76,23.28-34,46.12-68.3,69.76-102.05,7.42-10.59,13.06-23.57,27.51-28.29-4.06-.59-8.57-.76-10.64,1.41-9.81,10.27-19.97,20.47-28.15,32-25.02,35.28-49.23,71.14-73.56,106.9-1.21,1.77-.61,4.77-.85,7.2Zm121.4-28.48c-29.44,6.37-56.76,12.28-84.07,18.19-.01.67-.03,1.34-.04,2.01h88.9c-1.56-6.6-3.22-13.59-4.79-20.2Zm-41.18-279.48c12.16,2.66,23.31,5.31,34.55,7.48,5.37,1.04,11.47,4.81,15.79-2.54.26-.45,3.57.51,5.18,1.36,1.43.75,2.55,3.35,3.65,3.25,12.08-1.07,24.15-2.39,36.17-4.03,1.41-.19,3.55-2.81,3.46-4.18-.1-1.39-2.47-3.67-3.95-3.76-12.45-.74-24.93-.98-37.4-1.53-10.76-.47-21.54-.77-32.24-1.88-8.19-.85-16.27-2.85-25.21-4.48v10.29Zm122.51,377.52c-4.2-4.84-9.01-7.91-9.86-11.83-2.98-13.75-12.7-16.27-24.33-17.05-12.72-.86-18.44,3.08-18.87,14.71-.09,2.43,3.17,6.75,5.47,7.19,9.69,1.84,19.61,2.42,29.42,3.7,5.3.69,10.53,1.88,18.19,3.28Zm277.05-197.82c-.2-.7-.41-1.39-.61-2.09-2.09.17-4.73-.41-6.18.64-8.03,5.87-16.31,11.56-23.52,18.36-29.37,27.7-42.37,63.72-50.48,102-.38,1.82,1.31,4.07,2.04,6.12,1.7-1.68,4.33-3.09,4.94-5.1,1.78-5.94,2.64-12.14,4.07-18.2,9.51-40.33,29.49-73.72,64.53-97.14,1.91-1.28,3.49-3.05,5.22-4.6Zm-374.04,13.51c-6.83,3.46-5.67,6.39-1.57,10.26,21.88,20.71,35.86,46.11,43.57,75.05,1.84,6.9,2.76,14.04,4.53,20.96.4,1.59,2.56,2.73,3.9,4.07,1.52-1.57,3.87-2.92,4.34-4.75.58-2.24-.35-4.9-.74-7.36-4.47-28.21-19.45-51.71-34.39-75.06-5.45-8.51-13.12-15.59-19.64-23.17Zm-24.47-18.98c-33.15-14.66-67.7-21.94-104.04-20.01-2.02.11-3.9,2.61-5.85,4,2.27.98,4.57,2.86,6.82,2.8,31.99-.79,62.51,5.67,91.66,18.53,6.14,2.71,9.24,1.53,11.41-5.32Zm-50.84,144.48c-.16.98-.31,1.95-.47,2.93,2.88.84,5.71,1.9,8.64,2.49,21.97,4.4,43.92,8.92,65.95,12.98,12.87,2.37,25.84,4.34,38.85,5.83,9.42,1.07,11.95-.65,14.31-5.73-42.05-6.11-84.66-12.3-127.28-18.49Zm99.22-15.28c14.61-14.1-18.86-84.02-45.03-95.19,4.64,5.96,8.36,10.73,12.07,15.5-.33.25-.66.49-.99.74-2.16-1.68-4.32-3.35-6.48-5.03,21.47,24.04,38.11,50.06,40.43,83.98Zm338.02-87.43c-1.22-.29-2.44-.58-3.66-.87-5.74,7.61-12.08,14.84-17.09,22.9-12.1,19.48-19.32,40.88-22.61,63.54-.32,2.18,1.42,4.65,2.21,6.99,1.45-2.21,3.58-4.24,4.22-6.66,2.14-8.09,2.31-17.01,5.84-24.36,8.56-17.8,18.65-34.86,27.95-52.32,1.51-2.83,2.11-6.13,3.14-9.21Zm-22.74-25.72c-29.26,24.11-46.74,54.65-51.23,92.23,13.04-32.97,29.99-63.77,51.23-92.23Zm-268.09,117.79c-.25,2.13-.85,4.28-.69,6.37.34,4.3,2.01,9.92-4.45,9.77-2.65-.06-6.5-4.81-7.46-8.11-1.7-5.81-4.48-8.32-10.34-7.89-1.22,17.39,15.28,27.37,33.1,22.48,4.07-7.84,7.34-14.12,11.01-21.19-7.36-.5-13.71-.93-21.17-1.43Zm-208.88-131.85l-1.4,2.69c2.14,1.23,4.21,3.31,6.44,3.5,3.97.35,8.14-1.14,12.06-.63,16.46,2.12,33.25,2.19,49.17,7.79,1.44.51,3.06.49,4.58.75,6.2,1.06,12.45,1.94,18.59,3.27,2.84.61,5.49,2.1,8.23,3.19.24-.94.48-1.88.72-2.82-31.06-15.19-64.19-19.33-98.39-17.75Zm155.2,134.05c.1-1.35.19-2.7.29-4.05h-94.58c32.94,7.46,63.46,9.11,94.29,4.05Zm347.05-179.32c.96.41,1.92.82,2.88,1.22.59-1.42,2.04-3.17,1.64-4.22-12.51-32.96-25.21-65.84-37.88-98.74-1.51.58-3.02,1.15-4.52,1.73,12.62,33.34,25.25,66.67,37.87,100.01Zm-390.92-7.33l.15-2.99c-54.64-2.13-109.28-4.26-163.92-6.4-.05.94-.09,1.89-.14,2.83,54.63,2.19,109.27,4.37,163.9,6.56Zm-47.22,119.73c.7.32,1.4.65,2.09.97,8.46-12.61,16.91-25.21,25.76-38.41-6.14-3.01-11.04-5.42-16.82-8.26-3.85,15.93-7.44,30.81-11.03,45.7Zm-170.5,35.12v15.63h51.83c.03-.69.07-1.38.1-2.07-17.01-4.44-34.01-8.88-51.94-13.56Zm369.62,59.23c-8.44,4.62-21.91,37.9-22.21,52.31,6.6-17.79,21.15-32.22,22.21-52.31Zm-86.65-240.46c.74,3.31,1.24,5.54,1.74,7.77.54,2.41.94,4.87,1.64,7.24q3.86,13.03,14.43,5.37c-2.66-7.52-5.32-15.03-8.16-23.03-3.72,1.02-6.67,1.83-9.66,2.65Zm-240.91,184.81c-.14.87-.29,1.74-.43,2.6,23.15,6.8,46.3,13.6,69.45,20.4.36-1.31.73-2.63,1.09-3.94-23.37-6.35-46.74-12.71-70.11-19.06ZM614.49,13.78c-8.4-13.07-19.51-12.99-41.99.83,14.88,1.77,28.31-9.91,41.99-.83ZM157.83,248c.12.97.24,1.94.36,2.92h62.48c-20.93-3.33-41.84-7.34-62.84-2.92Zm-18.99,317.37c28.85,11.44,58.52,10.33,88.4,6.31-29.74,2.01-59.39,2.7-88.4-6.31Zm43.99-195.62c.8-.08,1.6-.16,2.41-.23-5.65-26.2-11.31-52.4-16.96-78.61-.79.16-1.58.32-2.36.48,5.64,26.12,11.28,52.24,16.92,78.36Zm254.21,84.09c3.59-6.66,5.73-14.13-.88-19.06-3.69-2.75-10.32-3.23-15.14-2.29-4.99.97-9.42,4.88-7.95,10.84,4.83-3.16,9.59-6.28,14.36-9.4,2.4,5.11,4.8,10.23,7,14.91.39-.9,1.42-3.27,2.44-5.65.43.14.86.28,1.29.42-.37,3.41-.74,6.82-1.11,10.23Zm-100.17-289.26c-1.04.05-2.07.1-3.11.15-5.23,9.34,3.19,16.94,5.17,25.29.4,1.7,3.91,2.66,5.99,3.95.63-.63,1.27-1.27,1.9-1.9-3.32-9.17-6.63-18.33-9.95-27.5Zm442.47,231.8c-2.93-9.79-4.99-16.67-7.05-23.56-1.05.03-2.11.07-3.16.1-.91,6.5-2.38,13.02-2.23,19.5.03,1.17,6.66,2.2,12.44,3.96Zm-318.42,62.57c-4.16-4.21-6.7-6.78-9.23-9.34-2.89,3.49-5.78,6.98-8.67,10.47,2.6,2.02,5.26,5.73,7.78,5.63,2.91-.12,5.68-3.59,10.13-6.76Zm264.32-48.19c0-.33,0-.66,0-1h-92.23c0,.33,0,.66,0,1h92.23Zm-289.65,55.3c-6.93.83-15.37-.81-14.28,9.68.13,1.21,6.81,2.85,10.19,2.39,7.41-1.03,7.74-5.8,4.09-12.07Zm-39.8-30.18c4.9-3.18,13.85,1.2,13.57-8.64-.05-1.64-5.38-4.65-8.03-4.4-7.96.74-7.55,6.33-5.54,13.04Zm221.11-356.01c-2.32,3.1-4.65,5-4.31,5.94,3.35,9.17,7.14,18.17,10.8,27.22,1.26-.5,2.52-.99,3.79-1.49-3.21-9.88-6.41-19.76-10.28-31.68Zm-221.51,375.9c-.95.9-1.91,1.8-2.86,2.7,2.99,3.89,5.99,7.78,8.98,11.67,3.12-3.83,6.24-7.67,10.68-13.13-7.77-.58-12.29-.91-16.8-1.25Zm190.82-208.77c-.7-.36-1.4-.72-2.1-1.08-7.16,16.18-14.33,32.37-21.49,48.55.73.31,1.45.63,2.18.94,7.14-16.14,14.27-32.27,21.41-48.41Zm157.25,3.65c-16.37-.88-39.74,5.26-42.36,11.13,14.07-3.7,28.05-7.37,42.36-11.13Zm22.16,152.3c-.34.75-.68,1.5-1.02,2.26,5.34,2.8,12.75,4.38,15.34,8.79,1.98,3.37-2.12,10.33-3.35,15.02,7.54-1.59,7.43-9.13,5.89-16-2-8.91-9.51-9.89-16.87-10.07ZM315.19,129.01c-10.87-9.06-14.03,4.4-21.13,5.72,15.01,2.14,16.8,1.64,21.13-5.72Zm-74.15,235.38c.61.38,1.21.75,1.82,1.13,8.65-13.45,17.3-26.89,25.95-40.34-.68-.43-1.36-.86-2.03-1.28-8.58,13.5-17.15,27-25.73,40.49Zm92.71,62.86c1.35-13.95.66-15.81-6.14-16.59-2.1,14.95-1.5,16.56,6.14,16.59Zm25.52-61.84c-.72.3-1.43.61-2.15.91,2.89,12.39,5.79,24.78,8.68,37.17,1.04-.27,2.08-.53,3.13-.8-3.22-12.43-6.44-24.86-9.66-37.29Zm288.65,49.7c.02-.29.04-.58.07-.87h-52.14c-.02.29-.04.58-.07.87h52.15Zm63.27-20.02c7.8,4.29,13.72,7.56,21.77,11.99-4.24-11.44-10.75-13.63-21.77-11.99Zm-333.51,126.01c.24,1.34.48,2.69.72,4.03,3.12.53,6.52,2.01,9.23,1.2,1.51-.45,1.87-4.73,3.69-10.06-6.36,2.25-10,3.53-13.64,4.82ZM47.03,369.66l-1.3,1.97c12.41,3.34,24.83,6.68,37.24,10.01.19-.7.38-1.41.57-2.11-12.17-3.29-24.34-6.58-36.52-9.87Zm757.65,64.31c-.21,1.56-.42,3.11-.64,4.67,5.83.98,11.66,1.96,17.49,2.94.25-1.28.5-2.57.76-3.85-5.87-1.25-11.74-2.5-17.61-3.75Z"/>
</svg>