<?xml version="1.0" encoding="UTF-8"?><svg id="Livello_2" xmlns="http://www.w3.org/2000/svg" viewBox="0 0 235.62 143.25"><defs><style>.cls-1{fill:#523333;}</style></defs><g id="Livello_1-2"><path class="cls-1" d="m193.49,52.89h-26.6l-4.16-24.89h35.71l-4.95,24.89Zm-26.01-.66h25.44l4.69-23.57h-34.07l3.94,23.57Z"/><path class="cls-1" d="m232.71,85.72c-10.2-28.25-49.81-36.89-71.63-16.71-29.62,25.61-10.26,73.08,27.92,74.1,29.7,2.42,55.45-29.17,43.7-57.4Zm-4.26,31.94c-11.91,25.3-49.41,30.31-68.03,9.68-25.33-26.36-2.92-68.75,32.51-66.57,27.84.15,48.93,31.74,35.53,56.89Z"/><path class="cls-1" d="m192.91,61.21c-53.75-1.46-57.62,75.26-3.74,78.62,53.75,1.46,57.62-75.26,3.74-78.62Zm-3.67,76.96c-51.62-3.23-47.9-76.71,3.58-75.31,51.62,3.23,47.89,76.71-3.58,75.31Z"/><path class="cls-1" d="m187.97,100.61c-.24.15-25.94-28.01-26.17-26.95.24-.15,25.94,28.01,26.17,26.95Z"/><path class="cls-1" d="m163.89,75.4l-1.74-2.01-.44.35,1.74,2.01.44-.35Z"/><path class="cls-1" d="m192.39,96.96c-.24.15-26.37-28.14-26.59-27.08.24-.15,26.37,28.14,26.59,27.08Z"/><path class="cls-1" d="m167.96,71.53l-1.81-1.95-.43.37,1.81,1.95.43-.37Z"/><path class="cls-1" d="m189.55,100.08c-.27,0-9.93-36.4-10.59-35.56.27,0,9.93,36.4,10.59,35.56Z"/><path class="cls-1" d="m180.13,66.93l-.73-2.52-.55.15.73,2.52.55-.15Z"/><path class="cls-1" d="m194.61,98.27c-.27,0-9.71-36.47-10.38-35.64.27,0,9.71,36.47,10.38,35.64Z"/><path class="cls-1" d="m185.48,65.01l-.82-2.5-.55.17.82,2.5.55-.17Z"/><path class="cls-1" d="m199.79,63.46c-.6-.94-12.08,35.38-12.31,35.28.6.94,12.08-35.38,12.31-35.28Z"/><path class="cls-1" d="m199.89,63.51l-.54-.18-.91,2.47.54.18.92-2.47Z"/><path class="cls-1" d="m205.2,64.83c-.61-.94-11.68,35.27-11.91,35.17.61.94,11.68-35.27,11.91-35.17Z"/><path class="cls-1" d="m205.35,64.87l-.55-.17-.82,2.5.55.17.82-2.5Z"/><path class="cls-1" d="m218.2,73.07c-.09-1.1-28.73,24.66-28.91,24.45.09,1.1,28.73-24.66,28.91-24.45Z"/><path class="cls-1" d="m218.28,73.16l-.38-.41-2.03,1.74.38.41,2.03-1.74Z"/><path class="cls-1" d="m222.33,76.79c-.12-1.1-27.87,25.56-28.05,25.35.12,1.1,27.87-25.56,28.05-25.35Z"/><path class="cls-1" d="m222.37,76.85l-.4-.4-1.97,1.81.4.4,1.97-1.81Z"/><path class="cls-1" d="m189.24,102.07c-.15.21-37.28-11.48-36.94-10.5.15-.21,37.28,11.48,36.94,10.5Z"/><path class="cls-1" d="m155.03,91.91l-2.61-.77-.17.53,2.61.77.17-.53Z"/><path class="cls-1" d="m191.68,95.9c-.14.22-37.67-10.21-37.3-9.24.14-.22,37.67,10.2,37.3,9.24Z"/><path class="cls-1" d="m157.14,86.91l-2.63-.68-.15.53,2.63.68.15-.53Z"/><path class="cls-1" d="m191.01,104c.54-.95-38,6.22-38.02,5.96-.54.95,38-6.21,38.02-5.96Z"/><path class="cls-1" d="m155.75,109.94l-.1-.54-2.69.44.1.54,2.69-.44Z"/><path class="cls-1" d="m189.34,97.5c.51-.96-37.76,7.46-37.79,7.21-.51.96,37.76-7.46,37.79-7.21Z"/><path class="cls-1" d="m154.32,104.63l-.12-.54-2.67.54.12.54,2.67-.54Z"/><path class="cls-1" d="m192.65,103.34c-.07-1.11-29.03,24.33-29.21,24.12.07,1.11,29.03-24.33,29.21-24.12Z"/><path class="cls-1" d="m165.81,126.08l-.38-.41-2.05,1.72.38.42,2.05-1.73Z"/><path class="cls-1" d="m187.67,98.6c-.11-1.1-28.08,25.33-28.27,25.13.11,1.1,28.09-25.33,28.27-25.13Z"/><path class="cls-1" d="m161.7,122.25l-.39-.4-1.99,1.8.39.4,1.99-1.8Z"/><path class="cls-1" d="m193.47,102.12c-.59-.95-12.26,35.09-12.49,34.99.59.95,12.26-35.09,12.49-34.99Z"/><path class="cls-1" d="m182.31,134.78l-.54-.17-.85,2.49.54.17.85-2.49Z"/><path class="cls-1" d="m186.63,100.47c-.63-.92-10.86,35.51-11.09,35.42.63.93,10.86-35.51,11.09-35.42Z"/><path class="cls-1" d="m176.73,133.49l-.55-.15-.76,2.51.55.15.76-2.51Z"/><path class="cls-1" d="m202.13,137.11c-.27-.02-7.11-37-7.85-36.21.27.02,7.11,37,7.85,36.21Z"/><path class="cls-1" d="m202.25,137.11l-.53-2.57-.56.11.53,2.57.56-.11Z"/><path class="cls-1" d="m196.74,138.62c-.27-.02-8.48-36.74-9.18-35.92.27.02,8.48,36.74,9.18,35.92Z"/><path class="cls-1" d="m196.84,138.58l-.63-2.55-.56.13.63,2.55.56-.13Z"/><path class="cls-1" d="m220.43,126.8c-.24.14-25.87-28.42-26.1-27.37.24-.14,25.86,28.42,26.1,27.37Z"/><path class="cls-1" d="m220.53,126.71l-1.75-2-.44.35,1.75,2,.44-.35Z"/><path class="cls-1" d="m216.46,130.6c-.24.15-25.85-28.28-26.08-27.22.24-.15,25.85,28.28,26.08,27.22Z"/><path class="cls-1" d="m216.53,130.52l-1.83-1.94-.43.37,1.83,1.94.43-.37Z"/><path class="cls-1" d="m229.33,90.19c.54-.95-37.79,6.24-37.81,5.99-.54.95,37.79-6.24,37.81-5.99Z"/><path class="cls-1" d="m229.34,90.3l-.07-.55-2.71.33.07.55,2.71-.33Z"/><path class="cls-1" d="m230.52,95.51c.55-.94-38.07,5.85-38.08,5.6-.55.94,38.07-5.85,38.08-5.6Z"/><path class="cls-1" d="m230.54,95.58l-.09-.54-2.69.43.09.54,2.69-.43Z"/><path class="cls-1" d="m229.77,108.43c-.14.24-37.24-12.38-36.93-11.35.15-.21,37.24,12.34,36.93,11.35Z"/><path class="cls-1" d="m229.84,108.33l-2.57-.88-.19.52,2.57.88.19-.52Z"/><path class="cls-1" d="m228.33,113.65c-.13.25-37.13-11.95-36.81-10.93.13-.25,37.13,11.95,36.81,10.93Z"/><path class="cls-1" d="m228.38,113.55l-2.6-.8-.17.52,2.6.8.18-.52Z"/><path class="cls-1" d="m187.77,99.16c-11.36-11.47-16.87-23.41-22.89-39.33-3.08-7.64-6.27-15.46-9.47-23.26,0,0,3.74-1.41,3.74-1.41,6.51,14.74,12.38,33.29,19.89,46.36,3.29,5.38,7.21,10.44,11.67,15.02,0,0-2.94,2.63-2.94,2.63Z"/><path class="cls-1" d="m105.63,98.43l-17.21-42.63-3.74,1.39,17.21,42.63,3.74-1.39Z"/><path class="cls-1" d="m163.97,50.24l-2.56-2.21-49.99,53.31,2.56,2.21,49.99-53.31Z"/><path class="cls-1" d="m89.7,63.11l-1.5-1.66-42.17,35.11,1.5,1.66,42.17-35.11Z"/><path class="cls-1" d="m94.11,105.8l-44.96-6.32-.33,2.18,44.96,6.32.33-2.18Z"/><path class="cls-1" d="m150.32,21.51l-1.14-2.52c4-1.8,3.95-4.22,1.93-9.42-1.23-3.52-1.72-4.77-2.98-5.56-2.28-1.43-5.31-.55-6.18-.25,0,0-.97-2.59-.97-2.59,1.53-.53,5.43-1.53,8.72.54,2.16,1.36,2.86,3.36,4.13,6.99,2.3,5.13,2.34,10.58-3.5,12.82Z"/><path class="cls-1" d="m87.47,83.69c-11.49-27.72-51.44-34.72-72.35-13.55-28.42,26.96-6.7,73.46,31.41,72.81,29.79,1.13,54.01-31.62,40.93-59.25Zm-2.74,32.1c-10.72,25.86-48,32.39-67.5,12.65-26.52-25.16-6.25-68.54,29.31-67.93,27.8-1.06,50.39,29.51,38.19,55.28Z"/><path class="cls-1" d="m46.54,60.95c-53.88.95-53.87,77.76,0,78.7,53.88-.95,53.87-77.76,0-78.7Zm0,77.04c-51.61-.91-51.6-74.48,0-75.39,51.61.91,51.6,74.48,0,75.39Z"/><path class="cls-1" d="m43.48,100.54c-.23.16-27.25-26.85-27.43-25.78.23-.16,27.25,26.85,27.43,25.78Z"/><path class="cls-1" d="m18.23,76.39l-1.84-1.94-.42.37,1.84,1.94.42-.37Z"/><path class="cls-1" d="m47.73,96.68c-.23.16-27.67-26.94-27.85-25.88.23-.16,27.67,26.95,27.85,25.88Z"/><path class="cls-1" d="m22.11,72.35l-1.91-1.87-.41.39,1.91,1.87.41-.39Z"/><path class="cls-1" d="m44.6,98.95c-.27,0-11.2-34.96-11.83-34.09.27,0,11.2,34.96,11.83,34.09Z"/><path class="cls-1" d="m34.05,67.21l-.85-2.49-.55.17.85,2.49.55-.17Z"/><path class="cls-1" d="m50.01,97.9c-.27,0-11.43-36.01-12.06-35.14.27,0,11.43,36.01,12.06,35.14Z"/><path class="cls-1" d="m39.32,65.06l-.94-2.46-.54.19.94,2.46.54-.19Z"/><path class="cls-1" d="m53.53,62.9c-.64-.92-10.4,35.87-10.64,35.78.64.92,10.4-35.87,10.64-35.78Z"/><path class="cls-1" d="m53.64,62.93l-.55-.16-.8,2.5.55.16.8-2.5Z"/><path class="cls-1" d="m59.02,64.02c-.65-.91-9.99,35.75-10.23,35.66.65.91,9.99-35.75,10.23-35.66Z"/><path class="cls-1" d="m59.14,64.06l-.55-.14-.7,2.53.55.14.7-2.53Z"/><path class="cls-1" d="m72.38,71.69c-.14-1.1-27.55,25.87-27.74,25.67.14,1.1,27.55-25.87,27.74-25.67Z"/><path class="cls-1" d="m72.38,71.68l-.24-.24-1.94,1.84.24.24,1.94-1.84Z"/><path class="cls-1" d="m76.61,75.17c-.18-1.09-26.5,26.87-26.69,26.67.18,1.09,26.5-26.87,26.69-26.67Z"/><path class="cls-1" d="m76.73,75.29l-.42-.38-1.88,1.9.42.38,1.88-1.9Z"/><path class="cls-1" d="m44.82,101.92c-.14.22-37.78-9.83-37.4-8.87.14-.22,37.78,9.84,37.4,8.87Z"/><path class="cls-1" d="m10.17,93.28l-2.64-.65-.14.53,2.64.65.14-.53Z"/><path class="cls-1" d="m46.97,95.66c-.13.23-38.11-8.55-37.7-7.6.13-.22,38.11,8.55,37.7,7.6Z"/><path class="cls-1" d="m12.03,88.19l-2.66-.56-.12.54,2.66.56.12-.54Z"/><path class="cls-1" d="m46.69,103.82c.5-.97-37.69,7.79-37.72,7.54-.5.97,37.69-7.79,37.72-7.54Z"/><path class="cls-1" d="m11.74,111.26l-.12-.54-2.66.56.12.54,2.66-.56Z"/><path class="cls-1" d="m44.7,97.32c.46-.98-37.34,9.19-37.38,8.94-.46.99,37.34-9.18,37.38-8.94Z"/><path class="cls-1" d="m10.06,106.01l-.14-.53-2.64.65.14.53,2.64-.65Z"/><path class="cls-1" d="m48.28,103.03c-.12-1.1-27.82,25.6-28,25.4.12,1.1,27.82-25.6,28-25.4Z"/><path class="cls-1" d="m22.55,126.93l-.4-.4-1.97,1.81.4.4,1.97-1.81Z"/><path class="cls-1" d="m43.05,98.5c-.17-1.1-26.8,26.59-26.99,26.4.17,1.1,26.8-26.59,26.99-26.4Z"/><path class="cls-1" d="m18.26,123.29l-.41-.38-1.9,1.88.41.38,1.9-1.88Z"/><path class="cls-1" d="m48.99,101.79c-.64-.92-10.48,35.62-10.72,35.53.64.93,10.48-35.62,10.72-35.53Z"/><path class="cls-1" d="m39.44,134.9l-.55-.15-.74,2.52.55.15.74-2.52Z"/><path class="cls-1" d="m42.21,100.45c-.67-.9-9.28,35.92-9.53,35.84.67.9,9.28-35.92,9.53-35.84Z"/><path class="cls-1" d="m33.83,133.87l-.56-.13-.64,2.54.56.13.64-2.54Z"/><path class="cls-1" d="m59.38,136.38c-.27-.01-8.87-36.65-9.56-35.83.27.01,8.87,36.65,9.56,35.83Z"/><path class="cls-1" d="m59.48,136.35l-.65-2.54-.56.13.65,2.54.56-.13Z"/><path class="cls-1" d="m54.04,138.1c-.27,0-10.22-36.33-10.88-35.48.27,0,10.22,36.33,10.88,35.48Z"/><path class="cls-1" d="m54.15,138.07l-.75-2.52-.55.15.75,2.52.55-.15Z"/><path class="cls-1" d="m77.16,125.25c-.23.15-27.19-27.26-27.38-26.2.23-.15,27.19,27.26,27.38,26.2Z"/><path class="cls-1" d="m77.24,125.19l-1.85-1.92-.42.37,1.85,1.92.42-.37Z"/><path class="cls-1" d="m73.36,129.23c-.23.15-27.16-27.11-27.35-26.05.23-.15,27.16,27.11,27.35,26.05Z"/><path class="cls-1" d="m73.45,129.16l-1.92-1.86-.41.39,1.92,1.86.41-.39Z"/><path class="cls-1" d="m84.33,88.36c.5-.97-37.48,7.74-37.51,7.5-.5.97,37.48-7.74,37.51-7.5Z"/><path class="cls-1" d="m84.24,88.38l-.13-.53-2.29.52.13.53,2.29-.52Z"/><path class="cls-1" d="m85.75,93.52c.51-.97-37.73,7.6-37.76,7.35-.5.97,37.73-7.6,37.76-7.35Z"/><path class="cls-1" d="m85.78,93.63l-.12-.54-2.67.54.12.54,2.67-.54Z"/><path class="cls-1" d="m85.62,106.5c-.14.22-37.78-10.69-37.43-9.72.14-.22,37.78,10.69,37.43,9.72Z"/><path class="cls-1" d="m85.65,106.4l-2.61-.77-.17.53,2.61.77.17-.53Z"/><path class="cls-1" d="m84.43,111.79c-.14.22-37.66-10.27-37.29-9.3.14-.22,37.65,10.27,37.29,9.3Z"/><path class="cls-1" d="m84.45,111.68l-2.63-.68-.15.53,2.63.68.15-.53Z"/><path class="cls-1" d="m109.31,117.76c-.61-1.16,1.2-1.76,1.59-.62.29.92-1.16,1.48-1.59.62Zm.39-.19c.29.49,1.08,0,.71-.46-.32-.42-1,0-.71.46Z"/><path class="cls-1" d="m107.58,117.75c.59-.15,1.26-.41,1.79-.72,0,0,.66,1.07.66,1.07-.62.36-1.41.67-2.11.85,0,0-.35-1.2-.35-1.2Z"/><path class="cls-1" d="m112.8,114.18c-1.03-.43-.43-1.89.61-1.54,1.16.33.45,2.04-.61,1.54Zm.19-.39c.53.22.86-.6.3-.77-.53-.18-.84.56-.3.77Z"/><path class="cls-1" d="m111.07,116.56c-.78-.76.23-1.85,1.09-1.27,1.04.66-.27,2.12-1.09,1.27Zm.32-.29c.42.39,1.03-.3.54-.64-.43-.32-.97.27-.54.64Z"/><path class="cls-1" d="m111.45,115.21c.13-.1.84-1.32.95-1.66,0,0,1.2.48,1.2.48-.24.58-.69,1.4-1.09,1.91,0,0-1.06-.73-1.06-.73Z"/><path class="cls-1" d="m110.99,117.46c1.39-1-.18-.24-.24-1.46-.14.14-.38.35-.53.47.46.06.89.51.78.99Z"/><path class="cls-1" d="m106.49,118.64c-.19-1.06,1.36-1.39,1.67-.38.37,1.11-1.51,1.51-1.67.38Zm.44-.06c.1.55,1,.36.84-.19-.14-.52-.95-.35-.84.19Z"/><path class="cls-1" d="m105.92,119.35c1.7-.11-.06-.31.64-1.34-.19.03-.57.09-.75.11.37.27.45.9.12,1.23Z"/><path class="cls-1" d="m99.16,118.42c.24-1.05,1.86-.77,1.68.31-.14,1.12-1.97.81-1.68-.31Zm.43.11c-.13.55.76.7.84.15.1-.55-.73-.68-.84-.15Z"/><path class="cls-1" d="m97.75,117.4c.14.07,1.6.47,1.97.52,0,0-.27,1.22-.27,1.22-.39-.06-1.97-.49-2.12-.56,0,0,.42-1.18.42-1.18Z"/><path class="cls-1" d="m104.34,118.86c-.1-1.1,1.57-1.26,1.71-.18.17,1.12-1.63,1.3-1.71.18Zm.44-.03c.05.55.93.46.85-.09-.06-.54-.92-.46-.85.09Z"/><path class="cls-1" d="m101.29,118.8c.11-1.07,1.74-.98,1.71.1,0,1.14-1.86,1.03-1.71-.1Zm.44.06c-.06.56.85.61.86.05.02-.55-.81-.59-.86-.05Z"/><path class="cls-1" d="m102.68,118.28c.54.02,1.5,0,2.04-.07,0,0,.13,1.24.13,1.24-.58.06-1.62.1-2.21.07,0,0,.04-1.25.04-1.25Z"/><path class="cls-1" d="m100.55,119.33c.15.03.83.11.89.11-.36-.33-.26-.95.1-1.24-.19-.02-.57-.06-.75-.09.28.37.18.99-.24,1.22Z"/><path class="cls-1" d="m96.3,117.63c.18-1.12,2.04-.55,1.63.51-.39,1.05-1.85.55-1.63-.51Zm.42.11c-.22.53.64.81.81.28.19-.53-.61-.79-.81-.28Z"/><path class="cls-1" d="m113.99,113.03c.62-1.48-.36-.1-.98-1.14-.01.05-.19.59-.23.71.41-.2,1.04,0,1.21.43Z"/><path class="cls-1" d="m88.82,116.41c.17-1.08,1.9-.82,1.69.28-.17,1.09-1.9.82-1.69-.28Zm.43.09c-.1.55.76.68.85.14.1-.55-.76-.68-.85-.14Z"/><path class="cls-1" d="m87.27,115.53l2.09.35-.22,1.23-2.09-.35.23-1.23Z"/><path class="cls-1" d="m93.96,117.25c.16-1.09,1.88-.84,1.7.26-.15,1.09-1.89.85-1.7-.26Zm.44.08c-.1.55.77.67.85.13.1-.55-.77-.67-.85-.13Z"/><path class="cls-1" d="m90.95,116.78c.17-1.09,1.89-.83,1.69.27-.17,1.09-1.9.83-1.69-.27Zm.43.08c-.1.55.76.68.85.13.1-.55-.76-.68-.85-.13Z"/><path class="cls-1" d="m92.41,116.39s2.09.33,2.09.33c0,0-.2,1.23-.2,1.23,0,0-2.1-.33-2.1-.33,0,0,.21-1.23.21-1.23Z"/><path class="cls-1" d="m90.2,117.28c1.61.39.03-.36,1.04-1.09,0,0-.78-.13-.78-.13.28.37.14.99-.27,1.21Z"/><path class="cls-1" d="m85.87,115.96c.18-1.09,1.91-.81,1.69.29-.18,1.08-1.91.81-1.69-.29Zm.43.09c-.11.55.76.69.85.14.11-.55-.76-.69-.85-.14Z"/><path class="cls-1" d="m85.11,116.45c1.61.41.03-.36,1.05-1.08,0,0-.78-.13-.78-.13.28.37.13.99-.28,1.21Z"/><path class="cls-1" d="m78.62,114.62c.2-1.08,1.91-.79,1.69.31-.19,1.08-1.92.79-1.69-.31Zm.43.09c-.11.55.75.7.84.15.11-.55-.75-.69-.84-.15Z"/><path class="cls-1" d="m76.85,114.94l2.09.38.24-1.23-2.09-.38-.24,1.23Z"/><path class="cls-1" d="m83.75,115.56c.18-1.09,1.91-.8,1.69.29-.18,1.09-1.91.8-1.69-.29Zm.43.09c-.11.55.75.69.84.15.11-.55-.75-.69-.84-.15Z"/><path class="cls-1" d="m80.75,115.02c.19-1.08,1.91-.79,1.69.3-.19,1.08-1.91.79-1.69-.3Zm.43.09c-.11.55.75.69.85.15.11-.55-.75-.69-.85-.15Z"/><path class="cls-1" d="m82.21,114.67l2.09.37-.23,1.23-2.09-.37.24-1.23Z"/><path class="cls-1" d="m79.99,115.52c1.6.42.03-.36,1.06-1.07,0,0-.78-.14-.78-.14.28.38.12.99-.29,1.21Z"/><path class="cls-1" d="m75.69,114.12c.2-1.08,1.92-.78,1.69.32-.19,1.08-1.92.78-1.69-.32Zm.43.1c-.12.55.75.7.84.16.12-.55-.74-.7-.84-.16Z"/><path class="cls-1" d="m95.35,118.12c1.62.37.02-.36,1.03-1.1,0,0-.78-.11-.78-.11.29.37.16.99-.25,1.22Z"/><path class="cls-1" d="m68.26,112.58c.23-1.07,1.93-.73,1.68.36-.22,1.08-1.94.73-1.68-.36Zm.43.11c-.13.54.73.72.84.18.13-.54-.73-.72-.84-.18Z"/><path class="cls-1" d="m66.77,111.63s2.07.45,2.07.45c0,0-.28,1.22-.28,1.22,0,0-2.08-.45-2.08-.45,0,0,.29-1.22.29-1.22Z"/><path class="cls-1" d="m73.36,113.65c.21-1.08,1.92-.77,1.68.32-.2,1.09-1.93.77-1.68-.32Zm.43.1c-.12.55.74.7.84.16.12-.55-.74-.7-.84-.16Z"/><path class="cls-1" d="m70.38,113.04c.22-1.08,1.93-.75,1.68.34-.21,1.08-1.94.75-1.68-.34Zm.43.1c-.13.55.73.71.84.17.13-.54-.73-.71-.84-.17Z"/><path class="cls-1" d="m71.85,112.72s2.07.41,2.07.41c0,0-.26,1.22-.26,1.22,0,0-2.09-.41-2.09-.42,0,0,.27-1.22.27-1.22Z"/><path class="cls-1" d="m69.6,113.52c1.59.46.04-.34,1.09-1.04,0,0-.77-.16-.77-.16.26.38.09,1-.32,1.2Z"/><path class="cls-1" d="m65.35,111.98c.24-1.07,1.94-.71,1.67.37-.23,1.08-1.95.71-1.67-.37Zm.43.11c-.14.55.72.72.84.19.14-.54-.72-.72-.84-.19Z"/><path class="cls-1" d="m64.56,112.44c1.58.49.05-.36,1.11-1.02,0,0-.77-.17-.77-.17.26.39.07,1-.35,1.19Z"/><path class="cls-1" d="m58.21,110.16c.31-1.04,1.96-.61,1.65.46-.28,1.07-2.01.62-1.65-.46Zm.42.14c-.17.54.68.76.82.23.16-.54-.67-.75-.82-.23Z"/><path class="cls-1" d="m56.84,109.07c.55.2,1.44.48,1.98.63,0,0-.37,1.2-.37,1.2-.56-.16-1.49-.45-2.05-.65,0,0,.44-1.17.44-1.17Z"/><path class="cls-1" d="m63.25,111.47c.25-1.07,1.95-.7,1.67.39-.24,1.07-1.96.7-1.67-.39Zm.43.11c-.14.54.71.73.83.19.14-.54-.71-.73-.83-.19Z"/><path class="cls-1" d="m60.3,110.75c.27-1.06,1.95-.67,1.66.41-.25,1.07-1.98.68-1.66-.41Zm.42.12c-.15.54.7.74.83.2.15-.54-.7-.73-.83-.2Z"/><path class="cls-1" d="m61.77,110.49c.35.09,1.91.45,2.06.49,0,0-.31,1.21-.31,1.21-.16-.04-1.72-.4-2.07-.49,0,0,.32-1.21.32-1.21Z"/><path class="cls-1" d="m59.49,111.18c1.55.54.08-.35,1.15-.99,0,0-.76-.19-.76-.19.24.4.03,1-.39,1.18Z"/><path class="cls-1" d="m55.39,109.24c.39-1.02,2-.46,1.61.58-.36,1.05-2.04.47-1.61-.58Zm.41.17c-.21.52.62.81.8.29.2-.52-.61-.8-.8-.29Z"/><path class="cls-1" d="m74.71,114.57c1.6.43.04-.36,1.07-1.06,0,0-.77-.15-.77-.15.27.38.11.99-.3,1.21Z"/><path class="cls-1" d="m48.18,106.97c.4-1.01,1.97-.48,1.61.56-.33,1.07-2.07.49-1.61-.56Zm.41.17c-.21.53.63.81.81.28.19-.53-.61-.79-.81-.28Z"/><path class="cls-1" d="m46.91,105.77c.5.22,1.4.59,1.92.78,0,0-.46,1.17-.46,1.17-.54-.19-1.48-.58-2-.81,0,0,.55-1.13.55-1.13Z"/><path class="cls-1" d="m53.16,108.46c.32-1.07,2.04-.53,1.63.53-.37,1.02-1.98.52-1.63-.53Zm.42.14c-.18.53.63.78.81.27.2-.53-.65-.79-.81-.27Z"/><path class="cls-1" d="m50.23,107.67c.18-.94,1.92-.83,1.66.43-.45,1.2-1.97.49-1.66-.43Zm.42.13c-.15.54.69.74.83.21.16-.54-.7-.74-.83-.21Z"/><path class="cls-1" d="m51.71,107.42c.35.08,1.92.53,2.07.59,0,0-.4,1.19-.4,1.19-.15-.06-1.66-.48-2-.57,0,0,.34-1.21.34-1.21Z"/><path class="cls-1" d="m49.4,108.07c.16.04.94.32.84.22-.27-.39-.05-.95.33-1.17-.08-.02-.25-.07-.36-.1-.11-.03-.29-.09-.36-.11.21.41,0,1-.45,1.16Z"/><path class="cls-1" d="m45.45,105.82c.48-.96,2.03-.31,1.55.71-.44,1.02-2.1.3-1.55-.71Zm.39.2c-.27.51.55.86.78.36.25-.51-.54-.85-.78-.36Z"/><path class="cls-1" d="m44.57,106.07c1.42.86.15-.31,1.34-.73,0,0-.69-.34-.69-.34.14.44-.19.99-.65,1.07Z"/><path class="cls-1" d="m40.52,100.96c1.28-.27,1.47,1.52.23,1.64-.98.09-1.26-1.48-.23-1.64Zm.09.42c-.59.15-.24,1.02.29.77.52-.21.23-.93-.29-.77Z"/><path class="cls-1" d="m41.28,99.51c-.12.47-.26,1.23-.05,1.7,0,0-1.25.33-1.25.33-.28-.66-.15-1.64.03-2.31,0,0,1.27.28,1.27.28Z"/><path class="cls-1" d="m43.57,104.79c.54-.93,2.04-.18,1.5.81-.51.99-2.11.17-1.5-.81Zm.37.23c-.3.49.49.89.75.4.28-.49-.48-.88-.75-.4Z"/><path class="cls-1" d="m41.31,102.88c.84-.57,1.84.4,1.15,1.21-.75.95-2.22-.54-1.15-1.21Zm.25.36c-.48.36.19,1.03.58.61.39-.39-.17-.94-.58-.61Z"/><path class="cls-1" d="m42.62,103.42c.44.39,1.15.77,1.65,1.05,0,0-.65,1.08-.65,1.08-.61-.34-1.37-.76-1.87-1.21,0,0,.87-.92.87-.92Z"/><path class="cls-1" d="m40.41,102.61c.06.15.45.75.5.8,0-.5.6-.79,1.04-.74-.09-.1-.33-.52-.36-.57-.17.42-.74.73-1.18.51Z"/><path class="cls-1" d="m41.01,98.17c1.03.38.57,1.8-.47,1.59-1.22-.19-.63-2.06.47-1.59Zm-.17.4c-.55-.2-.82.68-.24.8.53.13.77-.63.24-.8Z"/><path class="cls-1" d="m54.36,109.53c.13.05.75.27.8.29-.24-.39,0-1,.44-1.17-.06-.02-.62-.23-.75-.27.21.42-.06.99-.49,1.15Z"/><path class="cls-1" d="m47.2,94.71c.15,1.08-1.48,1.32-1.69.27-.25-1.12,1.57-1.39,1.69-.27Zm-.44.04c-.07-.55-.96-.42-.85.13.09.53.93.41.85-.13Z"/><path class="cls-1" d="m48.92,95.16c-.56.04-1.49.13-2.07.21,0,0-.19-1.24-.19-1.24.6-.09,1.57-.18,2.16-.22,0,0,.1,1.24.1,1.24Z"/><path class="cls-1" d="m42.34,96.3c1.09,1.1-1.02,2.13-1.44.8-.2-.76.89-1.41,1.44-.8Zm-.32.3c-.43-.38-1.03.36-.51.66.45.29.94-.32.51-.66Z"/><path class="cls-1" d="m45.07,95.06c.31,1.27-1.64,1.42-1.71.2-.02-.95,1.5-1.13,1.71-.2Zm-.43.1c-.14-.54-1.04-.27-.81.26.19.49.97.27.81-.26Z"/><path class="cls-1" d="m44.01,96.03c-.51.19-1.14.55-1.49.98,0,0-.99-.81-.99-.81.47-.56,1.3-1.07,1.98-1.32,0,0,.49,1.15.49,1.15Z"/><path class="cls-1" d="m45.58,94.32c-.23.04-.66.14-.88.2.44.17.6.8.36,1.19.13-.04.68-.15.73-.17-.39-.25-.52-.86-.21-1.22Z"/><path class="cls-1" d="m50.17,94.44c.06,1.1-1.64,1.2-1.72.1-.11-1.12,1.69-1.21,1.72-.1Zm-.44,0c-.02-.55-.91-.51-.86.05.03.55.9.5.86-.05Z"/><path class="cls-1" d="m50.81,93.8c-.06,0-.73.02-.88.03.39.26.42.9.09,1.24.13,0,.72-.03.78-.03-.35-.31-.35-.94,0-1.24Z"/><path class="cls-1" d="m57.55,94.53c-.03,1.1-1.77,1.05-1.72-.06.01-1.11,1.78-1.05,1.72.06Zm-.44-.03c.03-.55-.85-.58-.86-.03-.03.55.84.58.86.03Z"/><path class="cls-1" d="m59.2,95.21c-.57-.03-1.52-.07-2.11-.09,0,0,.05-1.25.05-1.25.53.02,1.6.07,2.13.1,0,0-.07,1.25-.07,1.25Z"/><path class="cls-1" d="m52.33,94.42c.02,1.1-1.69,1.13-1.72.04-.06-1.12,1.72-1.15,1.72-.04Zm-.44,0c0-.55-.88-.54-.86.02,0,.55.87.54.86-.02Z"/><path class="cls-1" d="m55.38,94.44c-.01,1.1-1.74,1.08-1.72-.03,0-1.11,1.76-1.09,1.72.03Zm-.44-.02c.02-.56-.86-.57-.86-.01-.01.55.86.56.86.01Z"/><path class="cls-1" d="m54.01,95.03c-.55-.01-1.57,0-2.11,0,0,0-.02-1.25-.02-1.25.54-.01,1.58-.01,2.14,0,0,0-.01,1.25-.01,1.25Z"/><path class="cls-1" d="m56.06,93.84c-1.64-.17.01.35-.87,1.22,0,0,.78.02.78.02-.33-.33-.29-.96.09-1.24Z"/><path class="cls-1" d="m60.53,94.63c-.05,1.1-1.79,1.02-1.72-.09.04-1.11,1.8-1.01,1.72.09Zm-.44-.04c.04-.55-.84-.6-.86-.05-.04.55.83.6.86.05Z"/><path class="cls-1" d="m40.84,97.11c-.13.2-.33.6-.43.82.41-.25,1.02.04,1.2.45.07-.16.22-.47.31-.61-.44.09-1.03-.17-1.09-.66Z"/><path class="cls-1" d="m68.1,95.25c-.09,1.1-1.82.96-1.71-.15.08-1.1,1.83-.96,1.71.15Zm-.44-.05c.06-.55-.82-.62-.85-.07-.06.55.81.62.85.07Z"/><path class="cls-1" d="m69.71,96.01s-2.11-.2-2.11-.19c0,0,.12-1.24.12-1.24,0,0,2.12.19,2.12.19,0,0-.13,1.24-.13,1.24Z"/><path class="cls-1" d="m62.9,94.82c-.07,1.1-1.8.99-1.71-.11.05-1.11,1.81-1,1.71.11Zm-.44-.05c.05-.55-.83-.61-.86-.06-.05.55.83.61.86.06Z"/><path class="cls-1" d="m65.94,95.05c-.08,1.1-1.82.97-1.71-.14.07-1.1,1.83-.97,1.71.14Zm-.44-.05c.06-.55-.82-.62-.86-.07-.05.55.82.62.86.07Z"/><path class="cls-1" d="m64.52,95.55s-2.11-.16-2.11-.15c0,0,.09-1.24.09-1.24,0,0,2.12.15,2.12.15,0,0-.1,1.24-.1,1.24Z"/><path class="cls-1" d="m66.65,94.48c-1.65-.27,0,.36-.95,1.16,0,0,.78.06.78.07-.31-.35-.23-.97.16-1.23Z"/><path class="cls-1" d="m71.07,95.5c-.12,1.09-1.83.92-1.71-.17.09-1.11,1.86-.95,1.71.17Zm-.44-.06c.08-.56-.81-.64-.85-.09-.06.55.8.63.85.09Z"/><path class="cls-1" d="m71.8,94.96c-1.63-.32,0,.36-.99,1.13,0,0,.78.09.78.09-.3-.36-.19-.98.21-1.22Z"/><path class="cls-1" d="m78.38,96.48c-.13,1.09-1.87.88-1.7-.22.14-1.09,1.87-.88,1.7.22Zm-.44-.07c.08-.55-.78-.66-.85-.11-.09.55.79.66.85.11Z"/><path class="cls-1" d="m79.97,97.29s-2.11-.26-2.11-.26c0,0,.17-1.24.17-1.24,0,0,2.1.26,2.1.26,0,0-.16,1.24-.16,1.24Z"/><path class="cls-1" d="m73.21,95.79c-.13,1.09-1.86.89-1.7-.21.12-1.1,1.87-.89,1.7.21Zm-.44-.07c.08-.55-.79-.65-.85-.11-.08.55.79.65.85.11Z"/><path class="cls-1" d="m76.23,96.19c-.14,1.09-1.87.88-1.7-.23.14-1.09,1.87-.87,1.7.23Zm-.44-.07c.09-.55-.78-.66-.85-.11-.09.55.78.66.85.11Z"/><path class="cls-1" d="m74.79,96.61s-2.1-.27-2.1-.27c0,0,.17-1.24.17-1.24,0,0,2.11.27,2.11.27,0,0-.18,1.24-.18,1.24Z"/><path class="cls-1" d="m76.97,95.66c-1.62-.35-.01.36-1.01,1.12,0,0,.78.1.78.1-.29-.36-.17-.98.22-1.22Z"/><path class="cls-1" d="m81.35,96.8c-.12,1.1-1.87.9-1.71-.2.12-1.09,1.85-.9,1.71.2Zm-.44-.06c.08-.55-.79-.65-.85-.1-.08.55.79.65.85.1Z"/><path class="cls-1" d="m61.44,94.07c-1.66-.23.02.35-.92,1.18,0,0,.79.05.79.05-.32-.34-.25-.97.13-1.23Z"/><path class="cls-1" d="m88.89,97.64c-.09,1.1-1.84.92-1.71-.18.1-1.1,1.84-.92,1.71.18Zm-.44-.06c.06-.55-.8-.64-.85-.09-.07.55.81.64.85.09Z"/><path class="cls-1" d="m90.5,98.42l-2.12-.22.13-1.24,2.11.22-.12,1.24Z"/><path class="cls-1" d="m83.7,97.09c-.11,1.1-1.86.92-1.71-.19.11-1.1,1.85-.92,1.71.19Zm-.44-.06c.07-.55-.8-.64-.85-.09-.07.55.8.64.85.09Z"/><path class="cls-1" d="m86.73,97.4c-.1,1.1-1.85.93-1.71-.18.11-1.1,1.84-.93,1.71.18Zm-.44-.06c.07-.55-.8-.64-.85-.09-.07.55.8.64.85.09Z"/><path class="cls-1" d="m85.31,97.87l-2.12-.22.15-1.24,2.11.22-.14,1.24Z"/><path class="cls-1" d="m87.45,96.85c-1.64-.3,0,.36-.97,1.15,0,0,.79.08.79.08-.31-.35-.21-.98.18-1.23Z"/><path class="cls-1" d="m91.86,97.9c-.09,1.11-1.83.92-1.71-.18.09-1.11,1.83-.92,1.71.18Zm-.44-.06c.06-.55-.81-.64-.85-.09-.06.55.81.64.85.09Z"/><path class="cls-1" d="m92.57,97.35c-1.66-.3.02.35-.95,1.15,0,0,.79.08.79.08-.31-.35-.23-.98.16-1.23Z"/><path class="cls-1" d="m99.2,98.62c-.1,1.09-1.81.95-1.71-.15.07-1.11,1.85-.96,1.71.15Zm-.44-.06c.07-.55-.82-.63-.85-.08-.06.55.81.62.85.08Z"/><path class="cls-1" d="m100.78,99.43s-2.08-.25-2.08-.24c0,0,.13-1.24.13-1.24,0-.01,2.14.23,2.14.24,0,0-.18,1.24-.18,1.24Z"/><path class="cls-1" d="m94.01,98.15c-.08,1.11-1.83.92-1.71-.18.09-1.11,1.82-.92,1.71.18Zm-.44-.06c.06-.55-.81-.65-.85-.09-.06.55.81.65.85.09Z"/><path class="cls-1" d="m97.04,98.43c-.07,1.11-1.82.98-1.71-.14.07-1.1,1.82-.96,1.71.14Zm-.44-.05c.05-.55-.82-.61-.86-.06-.05.55.82.61.86.06Z"/><path class="cls-1" d="m95.63,98.93l-2.12-.22.11-1.24,2.11.22-.1,1.25Z"/><path class="cls-1" d="m97.75,97.86c-1.65-.25,0,.35-.94,1.17,0,0,.78.06.78.06-.31-.35-.23-.97.15-1.23Z"/><path class="cls-1" d="m102.16,98.98c-.17,1.07-1.86.85-1.7-.25.13-1.1,1.91-.86,1.7.25Zm-.44-.08c.1-.55-.78-.67-.85-.12-.09.55.77.67.85.12Z"/><path class="cls-1" d="m82.28,96.28c-1.63-.32,0,.37-.98,1.14,0,0,.79.09.79.09-.3-.36-.2-.98.2-1.23Z"/><path class="cls-1" d="m109.4,101.07c-.5.92-1.96.34-1.56-.68.39-1.08,2.16-.34,1.56.68Zm-.39-.21c.27-.51-.58-.86-.78-.34-.22.51.55.82.78.34Z"/><path class="cls-1" d="m110.38,102.47c-.4-.32-1.18-.85-1.65-1.05,0,0,.58-1.12.58-1.12.61.27,1.38.8,1.88,1.19,0,0-.81.97-.81.97Z"/><path class="cls-1" d="m104.49,99.45c-.23,1.06-1.9.76-1.68-.33.19-1.1,1.95-.77,1.68.33Zm-.43-.1c.13-.55-.74-.71-.84-.17-.11.55.73.7.84.17Z"/><path class="cls-1" d="m107.42,100.23c-.34,1.02-1.95.58-1.64-.48.28-1.09,2.04-.6,1.64.48Zm-.42-.15c.19-.54-.68-.77-.82-.24-.16.53.66.76.82.24Z"/><path class="cls-1" d="m105.95,100.43c-.59-.16-1.45-.36-2.03-.47,0,0,.27-1.22.27-1.22.6.12,1.49.33,2.1.49,0,0-.35,1.2-.35,1.2Z"/><path class="cls-1" d="m108.27,99.87c-.14-.06-.79-.28-.85-.3.27.39.04,1-.38,1.18.05.01.59.2.71.25-.19-.42.06-1,.52-1.14Z"/><path class="cls-1" d="m111.77,102.8c-.74.75-1.99-.22-1.3-1.08.68-.92,2.17.26,1.3,1.08Zm-.31-.31c.41-.42-.31-.98-.65-.54-.36.44.29.93.65.54Z"/><path class="cls-1" d="m112.7,102.86c-.16-.18-.47-.49-.64-.65.07.49-.42.9-.88.91.13.12.39.38.51.52.05-.46.54-.87,1.01-.77Z"/><path class="cls-1" d="m114.22,109.24c-1.08-.06-1.11-1.55-.02-1.64,1.2-.16,1.23,1.77.02,1.64Zm.04-.42c.59.04.57-.87-.01-.82-.57.03-.55.8.01.82Z"/><path class="cls-1" d="m113.32,110.68c.14-.55.28-1.34.29-1.89,0,0,1.3.05,1.3.05-.02.62-.16,1.52-.33,2.14,0,0-1.26-.29-1.26-.29Z"/><path class="cls-1" d="m113.08,104.44c-.89.56-1.87-.61-1.02-1.32.87-.79,2.08.71,1.02,1.32Zm-.23-.37c.5-.32-.08-1.03-.52-.66-.45.36.06.97.52.66Z"/><path class="cls-1" d="m114.15,107.17c-1.05.21-1.5-1.2-.47-1.58,1.1-.47,1.69,1.39.47,1.58Zm-.07-.42c.58-.12.3-.99-.24-.79-.54.18-.3.92.24.79Z"/><path class="cls-1" d="m113.2,106.1c-.21-.57-.54-1.18-.89-1.68,0,0,1.08-.7,1.08-.7.41.58.79,1.29,1.03,1.96,0,0-1.22.42-1.22.42Z"/><path class="cls-1" d="m114.87,107.73c-.01-.22-.09-.67-.14-.89-.21.43-.87.51-1.26.27.04.17.09.51.11.69.31-.33.95-.42,1.29-.07Z"/><path class="cls-1" d="m113.63,112.04c-1.11-.32-.62-1.85.44-1.59,1.16.22.67,1.95-.44,1.59Zm.14-.4c.55.17.8-.67.22-.8-.55-.14-.78.64-.22.8Z"/><path class="cls-1" d="m103.14,98.52c-.06,0-.72-.13-.87-.15.32.34.2.97-.19,1.23.13.02.71.12.77.13-.27-.38-.12-.99.29-1.21Z"/><path class="cls-1" d="m99.23,113.96c.91.83,2.1,1.42,3.36,1.64l.02-2.25c-2.06-.99-1.6-.54-3.38.62Z"/><path class="cls-1" d="m99.48,109.39c0-.45.09-.88.23-1.28l-1.93-1.29c-.37.78-.58,1.64-.59,2.55-.01,1.05.25,2.05.72,2.92l1.89-1.32c-.21-.49-.32-1.02-.32-1.58Z"/><path class="cls-1" d="m99.02,105.09c2.18,1.49,1.36,1.34,3.67.39,0,0,.02-2.25.02-2.25-1.44.22-2.73.89-3.69,1.86Z"/><path class="cls-1" d="m107.96,109.46c0,.5-.1.98-.28,1.42l1.92,1.28c.41-.81.65-1.72.66-2.68.01-1-.23-1.95-.66-2.8l-1.9,1.33c.17.45.27.94.26,1.44Z"/><path class="cls-1" d="m108.34,104.98c-.92-.89-2.08-1.51-3.45-1.74l-.02,2.25c2.23,1,1.49.81,3.47-.52Z"/><path class="cls-1" d="m113.66,102.63c-8.83-8.1-26.84-6.33-33.02-7.78-8.2-.79-22.7-2.72-28.54-.08-1.45.48-4.8,2.68-2.24,4.21,1.43.88,2.98-.48,6-.57,10.21.14,15.32,7.27,19.4,15.89,3.01,3.88,18.46,3.79,20.96,4.78,4.66.61,9.92,1.98,14.21-.63,5.44-3.31,7.52-10.66,3.23-15.82Zm-10.02,14.61c-10.66-.15-10.49-15.69.15-15.64,10.66.15,10.5,15.69-.15,15.64Z"/><path class="cls-1" d="m104.79,113.37l-.02,2.25c1.38-.21,2.62-.84,3.58-1.75-2.02-1.3-1.32-1.46-3.56-.5Z"/><path class="cls-1" d="m46.05,99.25l-.69.6.2.87.88.27.69-.6-.2-.87-.88-.27Z"/><path class="cls-1" d="m46.33,95.35c-6.7-.09-6.7,10.01,0,9.91,6.7.09,6.7-10.01,0-9.91Zm.27,6.28c-1.7-.51-1.52-.2-1.87-1.98,0,0,1.19-1.04,1.19-1.04,1.7.51,1.52.21,1.87,1.98,0,0-1.19,1.04-1.19,1.04Z"/><path class="cls-1" d="m46.44,100.99l-.88-.27-.2-.87.69-.6.88.27.2.87-.69.6Z"/><path class="cls-1" d="m190.82,95.57c-6.7-.09-6.7,10.01,0,9.91,6.7.09,6.7-10,0-9.91Zm.5,6.28c-1.7-.51-1.52-.2-1.87-1.98,0,0,1.19-1.04,1.19-1.04,1.7.51,1.52.2,1.87,1.98,0,0-1.19,1.04-1.19,1.04Z"/><path class="cls-1" d="m190.78,99.47l-.68.6.2.87.88.27.68-.6-.2-.87-.88-.27Z"/><path class="cls-1" d="m101.68,123.38l-11.82-.33c-1.36-.27-.64,2.42-.86,3.01,0,.24.33.45.76.47.36-.21,12.93.88,12.6-.09-.21-.61.72-3.24-.68-3.05Zm-7.65,2.54c.03.46-3.54.02-3.77.11-.49,0-.36-.4-.36-.69-.03-.46,3.54-.03,3.77-.11.49,0,.36.4.36.69Zm7.42.21c.03.46-3.54.02-3.77.11-.49,0-.36-.4-.36-.69-.03-.46,3.54-.02,3.77-.11.49,0,.36.4.36.69Zm.2-1.47c0,.12-.18.21-.39.21l-10.96-.31c-.49,0-.36-.4-.36-.69,0-.12.18-.21.39-.21l10.96.31c.49,0,.36.4.36.69Z"/><path class="cls-1" d="m105.17,95.45s10.73.11,10.73.11c1.24.22.54-2.19.73-2.73.39-.86-11.16-.32-11.43-.51-1.24-.22-.54,2.18-.73,2.73,0,.22.31.4.69.41Zm6.9-2.41c-.01-.41,3.2-.08,3.42-.16.44-.02.33.35.34.62.01.41-3.2.08-3.42.16-.44.02-.33-.35-.34-.62Zm-6.74-.07c-.01-.41,3.2-.08,3.42-.16.19,0,.34.09.34.2-.02.27.09.64-.35.61,0,0-3.08-.03-3.08-.03-.44.02-.33-.35-.34-.62Zm-.15,1.33c0-.11.16-.2.35-.19l9.95.1c.44-.02.33.35.34.62,0,.11-.16.2-.35.2l-9.95-.1c-.44.02-.33-.35-.34-.62Z"/><path class="cls-1" d="m111.17,92.54c-1.99-.92-3.79,5.91-4.62,6.87,0,0,2.67,0,2.67,0,.21-1.21,3.9-5.98,1.95-6.87Z"/><path class="cls-1" d="m94.72,123.9c-.99,2.09,1.51,3.11,2.44,1.06,0,0,3.03-6.38,3.03-6.38h-2.94l-2.52,5.32Z"/><path class="cls-1" d="m192.89,55.93c-27.7.24-50.25,24.22-47.68,51.99.08,1.59.34,3.62.55,5.06-.39-1.35-.91-3.24-1.18-4.75-6.19-29.28,18.86-55.6,48.31-52.31Z"/><path class="cls-1" d="m91.97,92.46c-9.63-43.86-72.54-48.7-89.26-7.28-1.27,3.11-2.18,6.44-2.71,9.68.21-3.37.88-6.88,1.95-10.16,15.13-44.9,83.34-39.53,90.02,7.76Z"/><path class="cls-1" d="m88.48,57.1l-3.79-9.54-2.95,1.08,3.79,9.54,2.95-1.08Z"/><path class="cls-1" d="m74.01,46.61c8.12-.07,13.37-9.29,21.98-6.64,1.41.16,3.91,1.4,3.02-.89-3.43-3.49-9.5-1.84-13.98-2.28-9.78-.17-10.48-2.86-17.72-2.4-3.78.28-4.31,4.22-2.65,6.98,2.27,4.49,8.25,5.25,9.34,5.23Z"/><path class="cls-1" d="m95.91,40.57c-5.85-1.05-10.5,2.6-15.17,5.54-2.77,1.74-9.89,1.07-3.14,2,4.87.89,8.14-2.4,11.68-4.97,1.74-1.08,14.4-1.64,6.63-2.57Z"/><path class="cls-1" d="m146.49,8.92c-.48-.36-1.21-.11-2.3.26-5.81,1.94-4.28,1.19-7.44,3,1.13-.2,2.3.98,2,2.1.07-1.07-2.49-2.86-2.81-.96.69,3.01,2.62,2.37,5.51.35,3.77-2.09,6.6-1.72,5.04-4.73Z"/><path class="cls-1" d="m143.98.37c-.55-.57-1.58-.38-3.1-.11-7.96,1.4-5.51.69-9.84,2.22,1.56-.04,2.91,1.59,2.46,3.11,0-.11,0-.26-.02-.39-1.41-5.09-7.57-.85-2.58,2.01,1.33.55,2.26-.4,5.39-1.54,5.43-2.04,9.11-.97,7.69-5.29Z"/><path class="cls-1" d="m192.39,135.05h-1.26v3.74h1.26v-3.74Z"/><path class="cls-1" d="m192.16,134.61h-.8v1.05h.8v-1.05Z"/><path class="cls-1" d="m46.25,65.84l1.25.03.1-3.76-1.25-.03-.1,3.76Z"/><path class="cls-1" d="m46.45,66.28l.82.02.03-1.05-.82-.02-.03,1.05Z"/><path class="cls-1" d="m182.63,52.83h-4.67s0,.65,0,.65h4.67s0-.65,0-.65Z"/><path class="cls-1" d="m179.28,53.22h-.87s0,.47,0,.47h.87s0-.47,0-.47Z"/><path class="cls-1" d="m182.1,53.23h-.87s0,.47,0,.47h.87s0-.47,0-.47Z"/><path class="cls-1" d="m190.31,97.08l-9.54-43.9-1.01.2c.67.07,8.57,46.11,10.55,43.69Z"/><path class="cls-1" d="m158.46,37.23l-.28-.64,5.68-3.16.28.64-5.68,3.16Z"/><path class="cls-1" d="m97.76,84.46l-.25-.96c10.29-2.42,19.12-6.53,26.24-12.23,9.3-8.04,21.39-23.4,32.21-34.48,0,0,.77.66.77.66-19.33,19.78-31.84,41.92-58.97,47.01Z"/><path class="cls-1" d="m102.73,81.43l-1.27.41.92,2.62,1.27-.41-.92-2.62Z"/><path class="cls-1" d="m138.17,55.28l-.91.94,2.11,1.89.91-.94-2.11-1.89Z"/><path class="cls-1" d="m156.24,38.63c-19.31,19.87-29.9,40.62-56.37,45.72,0,0,1.58,6.43,1.58,6.43,5.83-1.33,11.27-3.21,16.16-5.59,12.11-6.42,13.6-8.56,25.29-21.58,4.09-4.62,12.45-13.97,18.52-20.62,0,0-5.18-4.35-5.18-4.35Zm-4.52,13.11c-11.53,13.33-24.24,30-41.9,35.31-1.99.62-4.41,1.15-6.39,1.42,3.54-.69,5.91-1.28,10.25-3.15,17.33-7.27,33.1-29.42,44.88-41.61,0,0-2.6,3.08-6.84,8.03Z"/><path class="cls-1" d="m152.2,19.57c4.37-3.46,3.37-11.54-2.88-11.62-1.53-.09-3.09.26-4.53,1.01l1.36,2.42c6.72-3.17,7.71,4.81,2.61,7.26,0,0,7.18,18.17,7.18,18.17l2.68-.98-6.42-16.26Zm1.88,8.23c-3.5-9.45-3.22-9.52.59-.21,3.5,9.45,3.22,9.52-.59.21Z"/><path class="cls-1" d="m155.95,33.81l.42.25c.29.13.46.36.5.21-.29-.51-.44-1.56-.92-.46Z"/><path class="cls-1" d="m162.03,17.12c-.96-10.11-5.15-16.06-17.7-15.78,0,0,.07.99.07.99,11.92-.06,15.47,4.7,16.61,14.83.17,5.09-1.41,10.63-4.46,15.71.17.51.3.94.41,1.28,3.27-5.13,5.28-11.13,5.08-17.02Z"/><path class="cls-1" d="m179.03,28.43c-.95-.85-.15,24.04-.4,24.01.95.85.15-24.04.4-24.01Z"/><path class="cls-1" d="m181.84,28.43c-.95-.85-.15,24.04-.4,24.01.95.85.15-24.04.4-24.01Z"/><path class="cls-1" d="m184.7,28.43c-.95-.86-.44,24.04-.69,24,.95.86.44-24.04.69-24Z"/><path class="cls-1" d="m187.51,28.45c-.92-.88-.87,24.03-1.12,23.99.92.87.87-24.03,1.12-23.99Z"/><path class="cls-1" d="m190.62,28.47c-.9-.91-1.71,23.99-1.95,23.94.9.91,1.71-23.99,1.95-23.94Z"/><path class="cls-1" d="m193.73,28.53c-.85-.94-2.88,23.88-3.12,23.83.85.94,2.88-23.88,3.12-23.83Z"/><path class="cls-1" d="m174.4,52.43c-.25-.07-.15-24.78-1.08-23.99.25.07.15,24.78,1.08,23.99Z"/><path class="cls-1" d="m172.14,52.4c-.25-.06-1.07-24.75-1.97-23.94.25.06,1.07,24.75,1.97,23.94Z"/><path class="cls-1" d="m170.2,52.36c-.26-.05-2.27-24.68-3.12-23.83.26.05,2.26,24.68,3.12,23.83Z"/><path class="cls-1" d="m176.59,52.33c-.25-.07.22-24.78-.72-24,.25.07-.22,24.78.72,24Z"/><path class="cls-1" d="m197.21,31.02h-33.44c-.79.71,34.22.71,33.44,0Z"/><path class="cls-1" d="m197.21,33.94h-33.44c-.79.71,34.23.71,33.44,0Z"/><path class="cls-1" d="m196.47,37.03h-31.55c-.78.71,32.33.71,31.55,0Z"/><path class="cls-1" d="m195.95,39.94h-31.03s0,.39,0,.39c.06-.29,31.76.61,31.03-.39Z"/><path class="cls-1" d="m195.32,43.03h-29.94c-1.09.69,31,.7,29.94,0Z"/><path class="cls-1" d="m194.75,45.95c-.06.29-29.36-.6-28.62.38.06-.29,29.36.61,28.62-.38Z"/><path class="cls-1" d="m194.23,48.43c-.06.29-28.44-.6-27.7.38.06-.29,28.44.6,27.7-.38Z"/><path class="cls-1" d="m193.6,50.52c-.06.29-27.69-.6-26.96.38.06-.29,27.69.6,26.96-.38Z"/><path class="cls-1" d="m44.35,97.74l-20.25-38.06,3.7-9.85,1.08.37-3.53,9.4c-.57.43,22.5,38.97,19,38.13Z"/><path class="cls-1" d="m87.06,63.61l-18.78-11.91-52.96-1.12v4.78s-1.15,0-1.15,0v-5.91c.66,0,53.78,1.15,54.46,1.15,0,0,19.06,12.09,19.06,12.09l-.63.92Z"/></g></svg>