<?xml version="1.0" encoding="UTF-8"?><svg id="Livello_2" xmlns="http://www.w3.org/2000/svg" viewBox="0 0 257.04 186.95"><defs><style>.cls-1{letter-spacing:-.03em;}.cls-2{letter-spacing:-.09em;}.cls-2,.cls-3{font-family:TheGoldsmithVintage, 'The Goldsmith Vintage';}.cls-4{font-size:40px;}.cls-4,.cls-5{fill:#523333;}.cls-6{letter-spacing:0em;}.cls-7{letter-spacing:-.02em;}.cls-8{font-family:MyriadPro-Regular, 'Myriad Pro';}.cls-9{fill:none;stroke:#523333;stroke-linecap:round;stroke-linejoin:round;stroke-width:.79px;}</style></defs><g id="Livello_1-2"><path class="cls-9" d="m49.83,99.27c.04-.45-.21-.74-.65-.8"/><path class="cls-9" d="m46.85,97.62l-5.82-2.1"/><path class="cls-9" d="m39.87,95.1c-.53-.11-.62-.3-.36-.78"/><path class="cls-9" d="m40.04,92.83l.53-1.49"/><path class="cls-9" d="m40.85,90.59c.26-.48.17-.67-.36-.78"/><path class="cls-9" d="m38.23,88.99C-3.94,80.02,19.8,18.44,57.25,39.62"/><path class="cls-9" d="m58.38,40.03c.48.26.67.17.78-.37"/><path class="cls-9" d="m59.69,38.18l.53-1.49"/><path class="cls-9" d="m60.5,35.94c.11-.53.3-.62.78-.37"/><path class="cls-9" d="m63.6,36.41l5.82,2.1"/><path class="cls-9" d="m70.58,38.93c.38.24.76.17,1.01-.2"/><path class="cls-9" d="m73.39,37.07c44.95-46.93,130.23-15.17,134.01,49.59"/><path class="cls-9" d="m207.57,87.87c-.04.45.21.74.65.8"/><path class="cls-9" d="m210.55,89.51l5.82,2.1"/><path class="cls-9" d="m217.52,92.03c.53.11.62.3.36.78"/><path class="cls-9" d="m217.35,94.31l-.53,1.49"/><path class="cls-9" d="m216.55,96.54c-.26.48-.17.67.37.78"/><path class="cls-9" d="m219.17,98.13c42.17,8.97,18.43,70.55-19.02,49.37"/><path class="cls-9" d="m199.02,147.09c-.48-.26-.67-.17-.78.37"/><path class="cls-9" d="m197.7,148.96l-.53,1.49"/><path class="cls-9" d="m196.9,151.2c-.11.53-.3.62-.78.37"/><path class="cls-9" d="m193.8,150.72l-5.82-2.1"/><path class="cls-9" d="m186.82,148.2c-.38-.24-.76-.17-1.01.2"/><path class="cls-9" d="m184.01,150.07c-44.95,46.93-130.23,15.17-134.01-49.59"/><path class="cls-5" d="m234.54,88.57c6.42-7.77-10.27-8.27-13.95-10.93C211.09,7.88,119.62-25.31,67.78,22.42c0,0-15.83-5.72-15.83-5.72-10.73,11.27-37.97-1.42-48.86,31.31-12.37,31.96,16.3,39.55,17.71,55.36,0,0,15.82,5.72,15.82,5.72,5.67,33.27,28.54,60.79,60.34,72.29,31.81,11.49,66.93,4.93,92.47-17.07,43.64,19.56,99.51-41.05,45.11-75.74Zm-30.78,69.67c-.17,9.24-11.22.28-15.53-.11-47.8,48.74-141.04,14.95-146.76-53.04,0,0-13.78-4.97-13.78-4.97-1.36-13.83-31.18-18.45-19.53-50.27,11.49-32.14,37.23-16.33,47.03-26.21,0,0,13.77,4.97,13.77,4.97C92.3,7.05,126.5-1.1,158.42,10.44c52.44,14.24,42.84,65.33,71.09,76.18,0,0-1.74,4.86-1.74,4.86,43.35,14.95,19.03,82.97-24,66.76Z"/><path class="cls-5" d="m234.54,88.57c6.42-7.77-10.27-8.27-13.95-10.93C211.09,7.88,119.62-25.31,67.78,22.42c0,0-15.83-5.72-15.83-5.72-10.73,11.27-37.97-1.42-48.86,31.31-12.37,31.96,16.3,39.55,17.71,55.36,0,0,15.82,5.72,15.82,5.72,5.67,33.27,28.54,60.79,60.34,72.29,31.81,11.49,66.93,4.93,92.47-17.07,43.64,19.56,99.51-41.05,45.11-75.74Zm-30.78,69.67c-.17,9.24-11.22.28-15.53-.11-47.8,48.74-141.04,14.95-146.76-53.04,0,0-13.78-4.97-13.78-4.97-1.36-13.83-31.18-18.45-19.53-50.27,11.49-32.14,37.23-16.33,47.03-26.21,0,0,13.77,4.97,13.77,4.97C92.3,7.05,126.5-1.1,158.42,10.44c52.44,14.24,42.84,65.33,71.09,76.18,0,0-1.74,4.86-1.74,4.86,43.35,14.95,19.03,82.97-24,66.76Z"/><text class="cls-4" transform="translate(83.96 69.49) rotate(20.71)"><tspan class="cls-3"><tspan class="cls-7" x="0" y="0">D</tspan><tspan x="15.2" y="0">ELIVE</tspan><tspan class="cls-1" x="82" y="0">R</tspan><tspan class="cls-6" x="94.2" y="0">Y </tspan></tspan><tspan class="cls-2" x="0" y="48">7</tspan><tspan class="cls-3" x="12.08" y="48">5 dkk</tspan><tspan class="cls-8" x="85.24" y="48">*</tspan><tspan class="cls-3" x="101.84" y="48"></tspan></text></g></svg>