<?xml version="1.0" encoding="UTF-8"?><svg id="Livello_2" xmlns="http://www.w3.org/2000/svg" viewBox="0 0 229.36 127.83"><defs><style>.cls-1{fill:#523333;}</style></defs><g id="Livello_1-2"><path class="cls-1" d="m85.2,32.16l-3.02-1.99-36.48,51.07,3.02,1.99,36.48-51.06Z"/><path class="cls-1" d="m91.48,88.99l-42.94-6.77-.59,3.48,42.94,6.77.59-3.48Z"/><path class="cls-1" d="m82.39,23.91l-4.52-14.43-3.51,1.01,4.52,14.43,3.51-1.01Z"/><path class="cls-1" d="m106.01,92.68c-.52,4.97-8.87,4.11-8.18-.91.52-4.97,8.87-4.11,8.18.91Z"/><path class="cls-1" d="m110.98,93.68c-.27-.25-.32-.34-.4-.37.01-.08.02-.15.03-.23,1.04-.48.93-.54.04-1.06,0-.08,0-.15-.01-.23,1-.64.75-.7-.13-1.06-.01-.08-.03-.15-.05-.22.85-.78.69-.79-.31-1.02-.03-.07-.06-.14-.08-.21.73-.94.56-.86-.47-.97-.04-.07-.08-.13-.12-.2.64-1.11.26-.91-.63-.88-.05-.06-.1-.12-.15-.18.44-1.17.13-.94-.77-.78-.06-.05-.12-.1-.18-.16.24-1.23-.04-.94-.89-.66-.07-.04-.13-.09-.2-.13,0-1.08-.06-1.05-.99-.52-.07-.03-.15-.06-.22-.1-.17-1.22-.34-.9-1.06-.37-.08-.02-.16-.04-.24-.06-.36-1.08-.42-.94-1.11-.21-.08-.01-.16-.02-.24-.03-.54-1.01-.56-.88-1.13-.04-.08,0-.16,0-.24,0-.69-.93-.71-.77-1.12.12-.08.01-.16.03-.24.05-.81-.76-.81-.74-1.09.29-.08.03-.15.05-.23.08-.91-.61-.93-.63-1.03.45-.07.04-.14.07-.21.11-1.05-.52-1.01-.39-.94.59-.07.05-.13.09-.19.14-1.08-.33-1.08-.3-.83.72-.06.06-.11.11-.17.17-1.17-.18-1.09-.1-.7.84-.05.06-.09.13-.14.19-1.01.02-1.2-.04-.55.93-.03.07-.07.14-.1.21-1.2.17-1.04.24-.39,1-.02.07-.04.15-.07.22-1.08.34-1.07.35-.22,1.04-.01.08-.02.15-.03.23-1.04.48-.93.54-.04,1.06,0,.08,0,.15,0,.23-1,.65-.75.7.13,1.06.01.08.03.15.05.22-.85.78-.69.79.31,1.02.03.07.06.14.08.21-.73.94-.55.86.47.97.04.07.08.13.12.2-.63,1.11-.27.91.63.88.05.06.1.12.15.18-.44,1.17-.13.94.77.78.06.05.12.1.18.16-.24,1.23.04.94.89.66.07.04.13.09.2.13,0,1.08.06,1.05.98.52.07.03.15.07.22.1.17,1.22.34.9,1.06.37.08.02.16.04.24.06.36,1.08.42.94,1.11.21.08.01.16.02.24.03.54,1.01.56.88,1.13.04.08,0,.16,0,.24,0,.69.92.71.77,1.12-.12.08-.01.16-.03.24-.05.81.75.81.74,1.09-.29.08-.03.15-.05.23-.08.91.61.92.63,1.03-.45.07-.04.14-.07.21-.11,1.05.52,1.01.4.94-.59.06-.05.13-.09.19-.14,1.08.33,1.08.3.83-.72.06-.06.11-.11.17-.17,1.17.18,1.09.1.7-.84.04-.06.09-.13.13-.19,1.01-.01,1.2.04.55-.93.04-.07.07-.14.1-.21,1.2-.17,1.04-.24.39-1,.02-.07.04-.15.07-.22.23-.16,1.38-.22.62-.68Zm-9.89,5.16c-9.19-.94-7.36-14.38,1.66-13.22,9.18.94,7.36,14.38-1.66,13.22Z"/><path class="cls-1" d="m104.69,90.39l-1.18-.94,2.69-2.98,1.18.94-2.68,2.98Z"/><path class="cls-1" d="m99.28,89.79l1.38-.66-1.87-3.48-1.38.66,1.87,3.48Z"/><path class="cls-1" d="m104.19,94.34l-1.38.66,1.87,3.49,1.38-.66-1.87-3.48Z"/><path class="cls-1" d="m98.79,93.73l1.18.94-2.68,2.98-1.18-.94,2.68-2.98Z"/><path class="cls-1" d="m94.63,91.79l.1-.76,4.12.47-.1.76-4.12-.47Z"/><path class="cls-1" d="m105.14,92.98l.1-.76,4.12.47-.1.76-4.12-.47Z"/><path class="cls-1" d="m107.31,99.96c-.39-.59.48-1.16.91-.64.49.58-.53,1.25-.91.64Zm.25-.15c.2.3.69-.03.46-.32-.21-.28-.66.02-.46.32Z"/><path class="cls-1" d="m106.17,100.08c.36-.14.82-.38,1.15-.6l.47.66c-.37.25-.89.52-1.3.68l-.32-.74Z"/><path class="cls-1" d="m109.8,97.72c-.59-.41.01-1.26.61-.91.68.36-.01,1.35-.61.91Zm.18-.22c.3.21.63-.27.3-.46-.3-.18-.61.25-.3.46Z"/><path class="cls-1" d="m108.45,99.14c-.49-.52.29-1.22.8-.77.58.49-.31,1.32-.8.77Zm.22-.18c.24.26.68-.14.4-.38-.25-.24-.66.12-.4.38Z"/><path class="cls-1" d="m108.8,98.27c.24-.24.64-.73.83-1l.69.45c-.2.3-.64.83-.91,1.1l-.61-.54Z"/><path class="cls-1" d="m108.38,99.72c.08-.06.42-.35.46-.37-.3.03-.59-.27-.57-.57-.03.02-.31.26-.38.31.3.03.57.34.49.64Z"/><path class="cls-1" d="m105.54,100.75c-.22-.66.77-1,1.06-.39.33.68-.84,1.09-1.06.39Zm.28-.08c.11.34.68.14.53-.2-.13-.32-.65-.14-.53.2Z"/><path class="cls-1" d="m105.23,101.25s.57-.16.57-.17c-.29-.09-.43-.48-.28-.75,0,0-.48.14-.48.14.26.14.38.52.19.77Z"/><path class="cls-1" d="m100.79,101.72c-.11-.7,1-.86,1.12-.17.15.7-1.03.88-1.12.17Zm.29-.03c.05.35.62.26.56-.09-.06-.35-.62-.26-.56.09Z"/><path class="cls-1" d="m99.65,101.46s1.37-.16,1.37-.17l.12.79s-1.4.18-1.4.17l-.09-.79Z"/><path class="cls-1" d="m104.16,101.09c-.17-.69.91-.94,1.1-.27.21.7-.94.96-1.1.27Zm.29-.06c.08.34.65.21.55-.14-.09-.34-.64-.21-.55.14Z"/><path class="cls-1" d="m102.2,101.5c-.15-.69.96-.91,1.11-.23.17.7-.98.92-1.11.23Zm.29-.05c.07.35.64.23.55-.11-.07-.34-.63-.23-.55.11Z"/><path class="cls-1" d="m102.99,100.94s1.36-.29,1.35-.3l.2.77s-1.37.31-1.37.3l-.18-.78Z"/><path class="cls-1" d="m101.85,101.96s.57-.1.57-.11c-.28-.12-.36-.53-.18-.77,0,0-.5.09-.5.09.26.16.32.56.11.79Z"/><path class="cls-1" d="m98.84,101.95c-.07-.7,1.05-.81,1.12-.11.1.71-1.07.82-1.12.11Zm.29-.02c.03.35.61.3.56-.05-.03-.35-.6-.3-.56.05Z"/><path class="cls-1" d="m110.71,97.13s.29-.5.28-.5c-.27.13-.66-.06-.74-.35,0,0-.24.43-.24.42.29-.08.65.12.7.42Z"/><path class="cls-1" d="m93.86,102.22c-.03-.71,1.11-.74,1.13-.04.04.71-1.12.75-1.13.04Zm.29,0c0,.36.58.34.56-.02,0-.35-.58-.33-.56.02Z"/><path class="cls-1" d="m92.73,101.86l1.4-.05.03.8-1.4.05-.03-.8Z"/><path class="cls-1" d="m97.28,102.05c-.06-.71,1.08-.78,1.13-.08.07.71-1.09.79-1.13.08Zm.29-.01c.02.35.6.31.56-.04-.02-.35-.59-.31-.56.04Z"/><path class="cls-1" d="m95.28,102.17c-.04-.71,1.09-.76,1.13-.06.06.71-1.11.77-1.13.06Zm.29,0c.01.35.59.32.56-.03-.02-.35-.59-.32-.56.03Z"/><path class="cls-1" d="m96.15,101.74s1.39-.09,1.39-.09l.06.8s-1.4.09-1.4.09l-.05-.8Z"/><path class="cls-1" d="m94.87,102.59l.58-.02c-.25-.17-.28-.58-.06-.79l-.51.02c.23.2.23.6,0,.79Z"/><path class="cls-1" d="m91.9,102.32c-.04-.71,1.11-.75,1.13-.04.04.71-1.11.75-1.13.04Zm.29,0c0,.35.58.33.56-.02,0-.35-.59-.33-.56.02Z"/><path class="cls-1" d="m91.48,102.73l.57-.03c-.25-.17-.28-.58-.06-.79l-.52.02c.23.19.24.6,0,.79Z"/><path class="cls-1" d="m87.05,102.56c-.06-.71,1.09-.78,1.13-.07.06.71-1.09.78-1.13.07Zm.29-.01c.02.35.59.31.56-.04-.02-.35-.6-.32-.56.04Z"/><path class="cls-1" d="m85.97,103.04l1.39-.09-.06-.8-1.39.09.06.8Z"/><path class="cls-1" d="m90.47,102.36c-.05-.71,1.11-.76,1.13-.05.04.71-1.1.76-1.13.05Zm.29,0c.01.35.59.33.56-.03-.01-.35-.59-.33-.56.03Z"/><path class="cls-1" d="m88.47,102.48c-.06-.71,1.1-.77,1.13-.07.05.7-1.09.77-1.13.07Zm.29,0c.02.35.59.32.56-.03-.02-.35-.59-.32-.56.03Z"/><path class="cls-1" d="m89.35,102.03s1.4-.07,1.4-.07l.04.8s-1.39.07-1.39.07l-.05-.8Z"/><path class="cls-1" d="m88.07,102.9l.57-.04c-.25-.16-.29-.57-.07-.79l-.52.03c.24.19.25.59.02.79Z"/><path class="cls-1" d="m85.09,102.71c-.06-.71,1.09-.77,1.13-.07.06.71-1.09.78-1.13.07Zm.29-.01c.02.35.59.32.56-.04-.02-.35-.59-.32-.56.04Z"/><path class="cls-1" d="m98.31,102.39l.57-.05c-.26-.15-.3-.57-.09-.79l-.51.04c.24.19.26.59.03.79Z"/><path class="cls-1" d="m80.1,102.95c-.04-.71,1.1-.76,1.13-.05.05.71-1.11.76-1.13.05Zm.29,0c.01.35.59.33.56-.03-.01-.35-.59-.33-.56.03Z"/><path class="cls-1" d="m78.98,102.61l1.4-.06.04.8-1.4.06-.03-.8Z"/><path class="cls-1" d="m83.53,102.79c-.05-.71,1.09-.77,1.13-.06.06.71-1.1.77-1.13.06Zm.29,0c.02.35.59.32.56-.03-.02-.35-.59-.32-.56.03Z"/><path class="cls-1" d="m81.53,102.89c-.05-.71,1.1-.76,1.13-.06.05.71-1.11.76-1.13.06Zm.29,0c.01.35.59.33.56-.03-.01-.35-.59-.32-.56.03Z"/><path class="cls-1" d="m82.4,102.46l1.39-.08.05.8-1.4.08-.04-.8Z"/><path class="cls-1" d="m81.12,103.31l.57-.03c-.25-.17-.28-.58-.06-.79l-.52.03c.23.19.24.6,0,.79Z"/><path class="cls-1" d="m78.14,103.05c-.04-.71,1.11-.75,1.13-.04.04.71-1.11.75-1.13.04Zm.29,0c0,.36.59.33.56-.02,0-.35-.58-.33-.56.02Z"/><path class="cls-1" d="m77.73,103.47l.57-.02c-.25-.17-.27-.58-.05-.79l-.52.02c.23.19.23.6,0,.79Z"/><path class="cls-1" d="m73.29,103.2c-.03-.71,1.12-.74,1.13-.03.04.71-1.12.74-1.13.03Zm.29,0c0,.35.58.34.56-.02,0-.35-.58-.34-.56.02Z"/><path class="cls-1" d="m72.2,103.63l1.4-.04-.03-.8-1.4.04.03.8Z"/><path class="cls-1" d="m76.72,103.09c-.04-.71,1.11-.75,1.13-.04.04.71-1.11.75-1.13.04Zm.29,0c0,.35.58.33.57-.02,0-.35-.58-.33-.57.02Z"/><path class="cls-1" d="m74.72,103.16c-.04-.71,1.11-.75,1.13-.04.04.71-1.12.74-1.13.04Zm.29,0c0,.35.58.33.56-.02,0-.35-.58-.34-.56.02Z"/><path class="cls-1" d="m75.63,103.54l1.4-.05-.03-.8-1.4.05.03.79Z"/><path class="cls-1" d="m74.3,103.57l.57-.02c-.25-.17-.27-.58-.05-.79l-.52.02c.23.2.23.6,0,.79Z"/><path class="cls-1" d="m71.33,103.28c-.03-.71,1.12-.74,1.13-.03.03.71-1.12.74-1.13.03Zm.29,0c0,.35.58.34.57-.01,0-.35-.58-.34-.57.01Z"/><path class="cls-1" d="m84.55,103.14l.57-.04c-.25-.16-.29-.57-.07-.79l-.52.03c.24.19.25.59.02.79Z"/><path class="cls-1" d="m66.33,103.35c-.02-.71,1.13-.72,1.13-.02.02.71-1.13.72-1.13.02Zm.29,0c0,.35.58.35.56,0,0-.35-.57-.35-.56,0Z"/><path class="cls-1" d="m65.24,103.77l1.4-.02v-.8s-1.41.02-1.41.02v.8Z"/><path class="cls-1" d="m69.76,103.3c-.03-.71,1.12-.73,1.13-.03.03.71-1.12.73-1.13.03Zm.29,0c0,.35.58.34.57-.01,0-.35-.58-.34-.57.01Z"/><path class="cls-1" d="m67.76,103.33c-.02-.71,1.12-.73,1.13-.02.03.71-1.13.73-1.13.02Zm.29,0c0,.35.58.34.56-.01,0-.35-.58-.34-.56.01Z"/><path class="cls-1" d="m68.65,102.93l1.4-.03.02.8-1.4.03-.02-.8Z"/><path class="cls-1" d="m67.33,103.74h.57c-.24-.18-.26-.6-.03-.8h-.52c.23.21.22.61-.02.8Z"/><path class="cls-1" d="m64.37,103.39c-.02-.71,1.13-.72,1.13-.01.02.71-1.14.72-1.13.01Zm.29,0c0,.35.57.35.57,0,0-.36-.57-.35-.57,0Z"/><path class="cls-1" d="m63.94,103.79h.57c-.24-.18-.25-.59-.03-.79h-.52c.23.2.21.61-.03.79Z"/><path class="cls-1" d="m59.51,103.37c0-.71,1.14-.7,1.13,0,0,.71-1.15.7-1.13,0Zm.29.01c0,.35.57.36.56,0,0-.35-.57-.36-.56,0Z"/><path class="cls-1" d="m58.4,103.76h1.4s0-.79,0-.79h-1.4s0,.79,0,.79Z"/><path class="cls-1" d="m62.95,103.38c-.01-.71,1.14-.71,1.13,0,.02.71-1.14.71-1.13,0Zm.29,0c0,.36.57.35.56,0,0-.35-.57-.35-.56,0Z"/><path class="cls-1" d="m60.94,103.38c0-.71,1.14-.71,1.13,0,.01.71-1.14.71-1.13,0Zm.29,0c0,.36.57.35.56,0,0-.35-.57-.35-.56,0Z"/><path class="cls-1" d="m61.82,102.99h1.41s0,.79,0,.79h-1.41s0-.79,0-.79Z"/><path class="cls-1" d="m60.51,103.78h.57c-.24-.17-.25-.59-.02-.79h-.52c.22.2.2.61-.04.79Z"/><path class="cls-1" d="m57.55,103.37c0-.71,1.15-.69,1.13.01,0,.71-1.15.7-1.13-.01Zm.29.01c-.01.36.57.36.56,0,0-.35-.57-.36-.56,0Z"/><path class="cls-1" d="m70.76,103.69h.57c-.25-.19-.27-.6-.04-.81h-.52c.23.21.22.61-.01.81Z"/><path class="cls-1" d="m52.56,103.25c0-.71,1.16-.68,1.13.03,0,.71-1.16.68-1.13-.03Zm.29.02c-.01.35.56.37.57.01.01-.36-.56-.37-.57-.01Z"/><path class="cls-1" d="m51.44,103.63l1.4.04.02-.8-1.4-.04-.02.8Z"/><path class="cls-1" d="m55.99,103.33c0-.71,1.15-.69,1.13.02,0,.71-1.15.69-1.13-.02Zm.29.01c-.01.36.57.36.57,0,.01-.35-.56-.36-.57,0Z"/><path class="cls-1" d="m53.98,103.29c0-.7,1.16-.68,1.13.02,0,.71-1.16.69-1.13-.02Zm.29.02c-.01.35.56.36.56,0,.01-.35-.56-.36-.56,0Z"/><path class="cls-1" d="m54.89,102.92l1.4.03v.8s-1.41-.03-1.41-.03l.02-.8Z"/><path class="cls-1" d="m53.54,103.68h.57c-.24-.17-.23-.58,0-.78h-.52c.22.2.19.6-.05.78Z"/><path class="cls-1" d="m50.59,103.22c.01-.71,1.16-.67,1.13.04-.01.71-1.16.67-1.13-.04Zm.29.02c-.02.35.56.37.57.02.02-.35-.56-.37-.57-.02Z"/><path class="cls-1" d="m50.15,103.6l.57.02c-.24-.18-.23-.6,0-.79l-.52-.02c.22.21.18.61-.06.79Z"/><path class="cls-1" d="m45.74,103.01c.02-.71,1.17-.66,1.13.05-.02.71-1.17.66-1.13-.05Zm.29.02c-.02.35.55.38.56.02.02-.35-.55-.38-.56-.02Z"/><path class="cls-1" d="m44.66,102.57l1.4.06-.04.8-1.4-.07.04-.8Z"/><path class="cls-1" d="m49.17,103.15c.01-.71,1.16-.67,1.13.04-.01.71-1.17.67-1.13-.04Zm.29.02c-.02.35.56.37.57.02.02-.35-.56-.37-.57-.02Z"/><path class="cls-1" d="m47.17,103.08c.02-.71,1.17-.66,1.13.05-.02.71-1.17.66-1.13-.05Zm.29.02c-.02.35.56.37.56.02.02-.35-.55-.38-.56-.02Z"/><path class="cls-1" d="m48.05,103.52l1.4.05.03-.8-1.4-.05-.03.8Z"/><path class="cls-1" d="m46.72,103.46l.57.02c-.23-.19-.22-.6.02-.79l-.52-.02c.22.22.18.61-.07.79Z"/><path class="cls-1" d="m43.78,102.94c.03-.71,1.17-.65,1.13.06-.02.71-1.18.65-1.13-.06Zm.29.02c-.02.35.55.38.56.03.02-.35-.55-.38-.56-.03Z"/><path class="cls-1" d="m56.97,103.76h.57c-.24-.17-.24-.59,0-.79h-.52c.22.2.2.6-.04.79Z"/><path class="cls-1" d="m40.84,99.8c.94.18.34,1.43-.4.99-.45-.3-.17-1.14.4-.99Zm-.05.27c-.4-.04-.37.61.02.54.34-.05.32-.52-.02-.54Z"/><path class="cls-1" d="m41.63,99.07c-.21.29-.41.68-.43,1.04l-.83-.08c.04-.49.29-1.03.58-1.42l.68.46Z"/><path class="cls-1" d="m42.31,102.52c.46-.7,1.33,0,.96.64-.39.43-1.31-.08-.96-.64Zm.25.14c-.18.33.4.56.52.21.12-.33-.37-.52-.52-.21Z"/><path class="cls-1" d="m40.96,101.13c.87-.4,1.17,1.02.24,1.03-.51-.02-.78-.82-.24-1.03Zm.12.25c-.34.19.05.69.33.44.27-.22-.03-.61-.33-.44Z"/><path class="cls-1" d="m41.75,101.59c.24.27.66.56.99.71l-.37.71c-.43-.21-.91-.53-1.24-.89l.62-.53Z"/><path class="cls-1" d="m40.43,100.83c.04.17.14.44.23.6.04-.32.46-.45.73-.37-.05-.1-.12-.28-.15-.39-.17.23-.56.37-.81.15Z"/><path class="cls-1" d="m41.83,98.21c.49.49-.15,1.19-.71.85-.69-.4.18-1.4.71-.85Zm-.21.2c-.27-.25-.68.21-.36.42.28.2.63-.19.36-.42Z"/><path class="cls-1" d="m41.89,97.63c-.12.09-.35.29-.45.4.31-.06.6.24.6.54.05-.06.33-.3.36-.32-.29-.02-.58-.32-.51-.63Z"/><path class="cls-1" d="m46.3,96.65c.34.72-1.03,1.04-1.1.26-.06-.67.83-.83,1.1-.26Zm-.27.1c-.1-.32-.6-.22-.55.12.04.36.67.24.55-.12Z"/><path class="cls-1" d="m47.45,96.16c-.29.43-.81.83-1.29.97l-.26-.76c.33-.09.68-.37.87-.66l.69.44Z"/><path class="cls-1" d="m42.98,97.4c.34.6-.48,1.13-.92.63-.53-.58.56-1.29.92-.63Zm-.26.13c-.19-.31-.71.03-.46.32.22.26.65-.02.46-.32Z"/><path class="cls-1" d="m44.9,96.93c.06.69-.95.82-1.11.17-.2-.74,1.07-.89,1.11-.17Zm-.29.02c-.03-.36-.64-.27-.56.08.07.34.6.26.56-.08Z"/><path class="cls-1" d="m44.1,97.43c-.37.07-.83.24-1.15.45l-.45-.67c.4-.25.97-.47,1.42-.55l.17.78Z"/><path class="cls-1" d="m45.28,96.49s-.56.05-.56.05c.26.15.31.56.1.79,0,0,.53-.05.52-.05-.25-.18-.27-.58-.06-.79Z"/><path class="cls-1" d="m47.46,95.19c.79.26.09,1.45-.53.95-.53-.41-.09-1.16.53-.95Zm-.11.26c-.31-.14-.56.29-.26.47.31.21.63-.33.26-.47Z"/><path class="cls-1" d="m43.15,103.3l.61.03c-.23-.19-.22-.6.02-.79l-.51-.03c.19.23.18.66-.13.79Z"/><path class="cls-1" d="m47.19,90.49c.7-.27,1.08.88.32,1.04-.68.17-1-.81-.32-1.04Zm.09.27c-.35.11-.18.61.16.52.37-.09.19-.64-.16-.52Z"/><path class="cls-1" d="m47.11,89.33c.19.35.43.9.56,1.3l-.79.25c-.12-.36-.34-.86-.51-1.18l.74-.37Z"/><path class="cls-1" d="m47.74,93.72c.78.02.61,1.25-.14,1.08-.69-.14-.55-1.12.14-1.08Zm-.03.28c-.36-.03-.43.48-.07.54.37.07.45-.52.07-.54Z"/><path class="cls-1" d="m47.57,91.81c.74-.16.92,1.03.16,1.07-.7.07-.86-.95-.16-1.07Zm.04.28c-.36.06-.28.58.08.54.37-.03.29-.6-.08-.54Z"/><path class="cls-1" d="m48.11,92.62c.04.37.06,1.04.02,1.41l-.83-.07c.04-.33.02-.93-.02-1.27l.83-.08Z"/><path class="cls-1" d="m47.07,91.5c.02.08.11.48.12.51.14-.25.56-.35.81-.16,0-.04-.09-.42-.12-.51-.15.27-.57.33-.81.16Z"/><path class="cls-1" d="m46.29,88.82c.62-.41,1.26.63.55.94-.62.31-1.16-.56-.55-.94Zm.15.24c-.31.18-.04.63.28.47.34-.17.03-.67-.28-.47Z"/><path class="cls-1" d="m45.71,88.72c.06.07.29.39.31.42.05-.3.38-.52.68-.44-.02-.04-.25-.35-.31-.43-.03.31-.39.51-.68.46Z"/><path class="cls-1" d="m42.7,85.78c.54-.35,1.17.23.78.77-.46.65-1.47-.33-.78-.77Zm.16.23c-.31.24.15.68.39.39.23-.26-.13-.6-.39-.39Z"/><path class="cls-1" d="m42.63,84.7c.11.36.32.77.56,1.06l-.65.49c-.3-.36-.56-.87-.7-1.32l.8-.23Z"/><path class="cls-1" d="m45.39,87.76c.51-.55,1.39.37.75.81-.54.4-1.24-.31-.75-.81Zm.2.2c-.26.24.1.63.37.41.3-.23-.11-.66-.37-.41Z"/><path class="cls-1" d="m43.72,86.71c.34-.62,1.39-.09.98.54-.36.59-1.35.09-.98-.54Zm.25.15c-.18.31.32.56.49.26.19-.31-.33-.58-.49-.26Z"/><path class="cls-1" d="m44.71,86.79c.37.2.89.59,1.18.9l-.6.55c-.25-.26-.68-.6-1-.76l.42-.69Z"/><path class="cls-1" d="m43.11,86.8c.08.07.48.31.53.33-.13-.28.1-.63.39-.7-.03-.01-.33-.19-.39-.24.03.29-.2.62-.52.61Z"/><path class="cls-1" d="m42.05,84.02c.67-.08.91.83.26,1.06-.73.28-1.06-.98-.26-1.06Zm.03.28c-.38.05-.23.65.13.53.35-.09.21-.6-.13-.53Z"/><path class="cls-1" d="m47.2,94.58c-.02.12-.09.36-.13.48.24-.14.67-.06.79.24.05-.13.12-.39.15-.52-.25.18-.65.06-.8-.19Z"/><path class="cls-1" d="m44.47,80.23c.31.62-.58,1.09-.97.55-.47-.62.65-1.22.97-.55Zm-.26.12c-.17-.32-.7-.03-.49.28.19.29.66.04.49-.28Z"/><path class="cls-1" d="m45.63,80.21c-.25.06-1.12.42-1.22.49l-.39-.7c.11-.08,1.07-.48,1.35-.55l.26.76Z"/><path class="cls-1" d="m42.19,82.53c.67.17.53,1.09-.15,1.07-.8,0-.61-1.29.15-1.07Zm-.08.27c-.37-.08-.45.52-.07.54.36.02.43-.47.07-.54Z"/><path class="cls-1" d="m43.27,80.95c.45.52-.19,1.15-.74.81-.71-.41.24-1.41.74-.81Zm-.22.18c-.26-.27-.69.19-.37.41.28.2.62-.16.37-.41Z"/><path class="cls-1" d="m42.99,81.8c-.21.28-.4.75-.47,1.08l-.81-.16c.09-.43.33-1.03.6-1.38l.68.46Z"/><path class="cls-1" d="m43.37,80.37c-.14.09-.36.26-.49.37.31-.04.58.28.56.58.09-.08.28-.22.37-.28-.29-.05-.55-.37-.45-.66Z"/><path class="cls-1" d="m46.32,79.59c.17.68-.85.95-1.08.31-.27-.69.93-1.02,1.08-.31Zm-.29.06c-.09-.35-.66-.19-.54.15.11.33.64.19.54-.15Z"/><path class="cls-1" d="m46.67,79.12c-.15.03-.44.08-.58.12.29.11.38.51.21.76.08-.02.45-.09.49-.1-.25-.16-.33-.56-.12-.78Z"/><path class="cls-1" d="m51.14,79.62c-.1.69-1.21.56-1.12-.14.08-.71,1.24-.56,1.12.14Zm-.29-.05c.06-.35-.52-.42-.56-.07-.05.35.51.42.56.07Z"/><path class="cls-1" d="m52.19,80.16c-.23-.03-1.29-.17-1.39-.19l.12-.79c.1.01,1.14.16,1.38.19l-.11.79Z"/><path class="cls-1" d="m47.73,79.41c.06.69-.99.82-1.12.14-.15-.72,1.07-.87,1.12-.14Zm-.29.02c-.03-.36-.63-.28-.56.07.05.34.6.28.56-.07Z"/><path class="cls-1" d="m49.73,79.44c-.06.69-1.14.63-1.13-.06,0-.73,1.2-.66,1.13.06Zm-.29-.03c.04-.35-.56-.39-.56-.03-.02.35.54.38.56.03Z"/><path class="cls-1" d="m48.82,79.77c-.38-.01-.95,0-1.34.04l-.09-.79c.42-.05,1.04-.06,1.45-.05l-.02.8Z"/><path class="cls-1" d="m50.2,79.09c-.14-.02-.44-.05-.58-.06.23.2.19.61-.05.79,0,0,.5.05.5.05-.2-.23-.13-.63.13-.78Z"/><path class="cls-1" d="m53.09,79.84c-.06.7-1.23.59-1.12-.13.09-.69,1.2-.57,1.12.13Zm-.29-.04c.04-.35-.52-.41-.56-.06-.05.35.53.41.56.06Z"/><path class="cls-1" d="m41.61,83.46c0,.15,0,.45.02.6.16-.27.59-.28.82-.1-.01-.11-.02-.34-.02-.45-.22.19-.64.21-.82-.05Z"/><path class="cls-1" d="m58.08,80.16c-.03.71-1.17.66-1.13-.05.02-.71,1.18-.66,1.13.05Zm-.29-.02c.02-.35-.55-.38-.56-.03-.02.35.55.38.56.03Z"/><path class="cls-1" d="m59.15,80.61c-.23-.02-1.29-.07-1.39-.08l.04-.8c.1,0,1.16.06,1.4.08l-.05.8Z"/><path class="cls-1" d="m54.65,79.98c-.03.71-1.2.63-1.13-.08.05-.7,1.18-.62,1.13.08Zm-.29-.03c.03-.35-.54-.39-.56-.04-.04.36.54.39.56.04Z"/><path class="cls-1" d="m56.65,80.08c-.02.71-1.18.65-1.13-.06.03-.7,1.17-.65,1.13.06Zm-.29-.02c.02-.35-.55-.38-.57-.03-.02.35.55.38.57.03Z"/><path class="cls-1" d="m55.73,80.43s-1.4-.08-1.4-.08l.06-.8s1.39.08,1.39.08l-.04.8Z"/><path class="cls-1" d="m57.1,79.71l-.57-.03c.23.19.22.6-.02.79l.52.02c-.21-.21-.18-.62.07-.79Z"/><path class="cls-1" d="m60.04,80.25c-.05.7-1.18.63-1.13-.07.03-.71,1.2-.64,1.13.07Zm-.29-.03c.03-.35-.55-.39-.56-.04-.03.35.54.39.56.04Z"/><path class="cls-1" d="m60.5,79.89c-.1,0-.53-.04-.57-.04.23.2.2.61-.04.79l.51.04c-.21-.22-.15-.62.1-.79Z"/><path class="cls-1" d="m64.88,80.61c-.04.7-1.2.63-1.13-.08.04-.7,1.2-.64,1.13.08Zm-.29-.03c.03-.36-.54-.39-.56-.04-.03.36.54.39.56.04Z"/><path class="cls-1" d="m65.95,81.08l-1.4-.1.07-.79,1.39.09-.07.8Z"/><path class="cls-1" d="m61.45,80.37c-.05.7-1.2.64-1.13-.08.05-.7,1.2-.64,1.13.08Zm-.29-.03c.03-.35-.54-.39-.56-.04-.04.36.54.39.56.04Z"/><path class="cls-1" d="m63.45,80.5c-.04.7-1.2.64-1.13-.08.05-.7,1.19-.63,1.13.08Zm-.29-.03c.04-.36-.54-.39-.56-.04-.04.36.54.39.56.04Z"/><path class="cls-1" d="m62.52,80.83l-1.4-.1.07-.79,1.39.1-.07.79Z"/><path class="cls-1" d="m63.92,80.14l-.57-.04c.23.2.19.61-.05.79l.52.03c-.21-.22-.15-.62.1-.79Z"/><path class="cls-1" d="m66.84,80.72c-.04.7-1.19.63-1.13-.08.04-.7,1.19-.63,1.13.08Zm-.29-.03c.03-.36-.54-.39-.56-.04-.03.36.54.39.56.04Z"/><path class="cls-1" d="m53.7,79.49s-.56-.05-.56-.05c.22.2.19.61-.06.79,0,0,.52.05.52.05-.21-.22-.15-.62.1-.79Z"/><path class="cls-1" d="m71.82,81.08c-.04.7-1.19.63-1.13-.08.04-.7,1.19-.63,1.13.08Zm-.29-.03c.03-.35-.54-.39-.56-.04-.03.35.54.39.56.04Z"/><path class="cls-1" d="m72.96,80.75l-1.39-.09-.06.8,1.39.09.06-.8Z"/><path class="cls-1" d="m68.39,80.84c-.04.7-1.19.63-1.13-.08.04-.7,1.19-.63,1.13.08Zm-.29-.03c.03-.35-.54-.39-.56-.04-.03.36.54.39.56.04Z"/><path class="cls-1" d="m70.39,80.98c-.04.7-1.19.63-1.13-.08.04-.7,1.19-.63,1.13.08Zm-.29-.03c.03-.35-.54-.39-.56-.04-.03.35.54.39.56.04Z"/><path class="cls-1" d="m69.47,81.31l-1.39-.09.06-.8,1.39.1-.06.79Z"/><path class="cls-1" d="m70.85,80.61l-.57-.04c.23.2.2.61-.04.79l.52.04c-.21-.22-.16-.62.09-.79Z"/><path class="cls-1" d="m73.78,81.18c-.04.7-1.19.64-1.13-.07.04-.7,1.19-.64,1.13.07Zm-.29-.03c.03-.36-.55-.38-.56-.03-.03.36.55.39.56.03Z"/><path class="cls-1" d="m74.24,80.81l-.57-.04c.23.19.2.61-.04.79l.52.03c-.21-.22-.16-.62.09-.79Z"/><path class="cls-1" d="m78.62,81.5c-.03.71-1.18.64-1.13-.07.03-.7,1.18-.64,1.13.07Zm-.29-.02c.03-.35-.55-.39-.56-.04-.03.35.55.39.56.04Z"/><path class="cls-1" d="m79.7,81.96l-1.4-.08.05-.8,1.39.08-.05.8Z"/><path class="cls-1" d="m75.2,81.29c-.04.7-1.19.64-1.13-.07.04-.7,1.19-.64,1.13.07Zm-.29-.03c.03-.35-.54-.39-.56-.03-.03.36.55.39.56.03Z"/><path class="cls-1" d="m77.2,81.41c-.03.7-1.19.64-1.13-.07.04-.71,1.18-.64,1.13.07Zm-.29-.03c.03-.35-.55-.39-.56-.03-.03.35.55.39.56.03Z"/><path class="cls-1" d="m76.27,81.74l-1.4-.08.06-.8,1.39.08-.05.8Z"/><path class="cls-1" d="m77.65,81.04l-.57-.04c.23.19.21.61-.03.79l.52.03c-.21-.22-.17-.62.08-.79Z"/><path class="cls-1" d="m80.58,81.59c-.03.71-1.18.64-1.13-.07.03-.71,1.18-.64,1.13.07Zm-.29-.03c.03-.35-.55-.39-.56-.03-.03.35.55.39.56.03Z"/><path class="cls-1" d="m67.44,80.36l-.57-.04c.23.2.2.61-.05.79l.52.03c-.21-.22-.16-.62.1-.79Z"/><path class="cls-1" d="m85.57,81.86c-.02.71-1.17.66-1.13-.05.02-.71,1.17-.66,1.13.05Zm-.29-.02c.02-.35-.55-.38-.56-.03-.02.35.55.38.56.03Z"/><path class="cls-1" d="m86.65,82.3s-1.39-.07-1.39-.07l.04-.8s1.4.07,1.4.07l-.05.8Z"/><path class="cls-1" d="m82.14,81.7c-.03.71-1.18.65-1.13-.06.03-.7,1.18-.64,1.13.06Zm-.29-.02c.02-.35-.55-.38-.56-.03-.03.35.55.39.56.03Z"/><path class="cls-1" d="m84.15,81.79c-.02.71-1.18.66-1.13-.05.03-.71,1.17-.66,1.13.05Zm-.29-.02c.02-.35-.55-.38-.56-.02-.02.35.55.38.56.02Z"/><path class="cls-1" d="m83.23,82.14l-1.4-.06.05-.8,1.39.06-.04.8Z"/><path class="cls-1" d="m84.59,81.41l-.57-.03c.23.19.22.6-.02.79l.52.02c-.22-.21-.18-.62.07-.79Z"/><path class="cls-1" d="m87.53,81.94c-.04.7-1.18.64-1.13-.06.03-.71,1.18-.64,1.13.06Zm-.29-.03c.03-.35-.55-.38-.56-.03-.03.35.55.39.56.03Z"/><path class="cls-1" d="m87.99,81.57l-.57-.04c.23.19.21.61-.03.79l.52.03c-.21-.22-.16-.62.09-.79Z"/><path class="cls-1" d="m92.37,82.3c-.04.7-1.19.63-1.13-.08.04-.7,1.19-.63,1.13.08Zm-.29-.03c.03-.35-.54-.39-.56-.04-.03.36.54.39.56.04Z"/><path class="cls-1" d="m93.45,82.76l-1.4-.09.06-.8,1.39.09-.06.8Z"/><path class="cls-1" d="m88.95,82.05c-.04.7-1.19.63-1.13-.07.04-.71,1.19-.63,1.13.07Zm-.29-.03c.03-.35-.55-.39-.56-.04-.03.35.54.39.56.04Z"/><path class="cls-1" d="m90.95,82.19c-.04.7-1.19.63-1.13-.08.04-.7,1.19-.63,1.13.08Zm-.29-.03c.03-.35-.54-.39-.56-.04-.03.35.54.39.56.04Z"/><path class="cls-1" d="m90.08,81.72l-1.39-.1-.06.8,1.39.1.06-.8Z"/><path class="cls-1" d="m91.41,81.83l-.57-.04c.23.19.2.61-.04.79l.52.04c-.21-.22-.16-.62.09-.79Z"/><path class="cls-1" d="m94.33,82.4c-.03.71-1.19.64-1.13-.07.04-.7,1.18-.64,1.13.07Zm-.29-.03c.03-.35-.55-.39-.56-.03-.03.35.55.39.56.03Z"/><path class="cls-1" d="m81.18,81.23l-.57-.03c.23.19.21.6-.03.79l.52.03c-.21-.22-.17-.62.08-.79Z"/><path class="cls-1" d="m99.32,82.63c-.03.7-1.16.66-1.13-.04,0-.71,1.18-.67,1.13.04Zm-.29-.02c.02-.36-.56-.38-.57-.02-.02.35.55.37.57.02Z"/><path class="cls-1" d="m100.38,83.1s-1.37-.11-1.37-.1l.04-.8s1.42.09,1.42.1l-.09.79Z"/><path class="cls-1" d="m95.89,82.5c-.02.71-1.18.65-1.13-.06.03-.7,1.17-.65,1.13.06Zm-.29-.02c.02-.35-.55-.38-.57-.03-.03.35.55.38.57.03Z"/><path class="cls-1" d="m97.9,82.57c0,.71-1.17.68-1.13-.04.02-.7,1.16-.67,1.13.04Zm-.29-.02c.01-.35-.56-.37-.57-.02-.02.36.56.37.57.02Z"/><path class="cls-1" d="m96.98,82.93s-1.4-.06-1.4-.06l.04-.8s1.39.06,1.39.06l-.03.8Z"/><path class="cls-1" d="m98.34,82.18h-.57c.24.17.23.58,0,.78h.52c-.22-.2-.19-.6.06-.78Z"/><path class="cls-1" d="m101.28,82.79c-.09.69-1.19.57-1.12-.13.06-.72,1.24-.59,1.12.13Zm-.29-.05c.05-.35-.53-.42-.56-.06-.04.35.52.41.56.06Z"/><path class="cls-1" d="m101.77,82.46s-.48-.07-.58-.08c.22.21.16.62-.09.79.09,0,.47.07.5.07-.18-.24-.1-.63.17-.78Z"/><path class="cls-1" d="m105.96,83.98c-.23.65-1.29.34-1.07-.34.2-.67,1.33-.35,1.07.34Zm-.27-.1c.12-.34-.44-.51-.54-.17-.11.34.43.5.54.17Z"/><path class="cls-1" d="m106.82,84.74c-.2-.1-1.17-.46-1.26-.48l.27-.75c.1.02,1.12.4,1.34.51l-.35.72Z"/><path class="cls-1" d="m102.68,83.05c-.15.68-1.23.49-1.11-.2.11-.71,1.28-.5,1.11.2Zm-.28-.07c.08-.35-.5-.45-.55-.1-.07.35.49.44.55.1Z"/><path class="cls-1" d="m104.61,83.55c-.2.67-1.28.39-1.08-.3.17-.68,1.31-.39,1.08.3Zm-.28-.09c.11-.35-.45-.49-.54-.15-.1.34.45.49.54.15Z"/><path class="cls-1" d="m103.64,83.68c-.37-.1-.97-.24-1.33-.31l.17-.78c.38.07,1,.22,1.39.32l-.22.77Z"/><path class="cls-1" d="m105.15,83.29l-.55-.16c.18.24.06.64-.22.76l.49.14c-.15-.26,0-.64.28-.75Z"/><path class="cls-1" d="m107.76,84.74c-.34.59-1.3.16-1.01-.49.29-.67,1.39-.16,1.01.49Zm-.25-.14c.18-.32-.36-.57-.51-.24-.16.32.35.54.51.24Z"/><path class="cls-1" d="m94.93,82.04l-.57-.03c.23.19.21.61-.03.79l.52.03c-.21-.22-.17-.62.08-.79Z"/><path class="cls-1" d="m110.99,88.29c-.63.28-1.14-.61-.52-.96.63-.39,1.23.67.52.96Zm-.11-.26c.35-.15.06-.66-.26-.48-.32.17-.06.63.26.48Z"/><path class="cls-1" d="m110.97,89.4s-.44-1.2-.47-1.19l.75-.34s.54,1.3.51,1.31l-.8.22Z"/><path class="cls-1" d="m109.02,85.63c-.45.51-1.29-.07-.9-.66.4-.61,1.42.09.9.66Zm-.22-.19c.25-.28-.25-.62-.45-.33-.21.29.23.6.45.33Z"/><path class="cls-1" d="m110.32,87.08c-.57.38-1.23-.4-.69-.86.55-.49,1.34.45.69.86Zm-.16-.24c.32-.21-.07-.66-.34-.43-.29.23.07.64.34.43Z"/><path class="cls-1" d="m109.47,86.64c-.21-.25-.66-.69-.94-.89l.53-.62c.3.23.81.71,1.04,1l-.64.51Z"/><path class="cls-1" d="m110.9,87.23s-.32-.49-.32-.49c-.01.31-.38.52-.67.46,0,0,.27.4.26.4.08-.29.44-.49.73-.37Z"/><path class="cls-1" d="m111.58,90.08c-.69.15-.97-.85-.28-1.05.71-.24,1.04.92.28,1.05Zm-.05-.28c.37-.08.22-.63-.14-.53-.35.1-.21.61.14.53Z"/><path class="cls-1" d="m112.06,90.43c-.01-.09-.09-.52-.1-.56-.13.27-.56.35-.81.18.01.03.08.39.09.47.18-.24.6-.29.82-.09Z"/><path class="cls-1" d="m111.34,94.69c-.69-.18-.43-1.19.26-1.05.76.12.46,1.28-.26,1.05Zm.09-.27c.35.1.5-.46.13-.53-.36-.07-.48.44-.13.53Z"/><path class="cls-1" d="m110.59,95.54c.14-.29.35-.9.43-1.22l.8.2c-.09.34-.32,1-.47,1.32l-.77-.31Z"/><path class="cls-1" d="m111.74,91.44c-.71.05-.83-.98-.12-1.08.74-.13.88,1.05.12,1.08Zm-.01-.28c.38-.02.31-.6-.06-.54-.36.04-.3.57.06.54Z"/><path class="cls-1" d="m111.65,93.36c-.71-.08-.61-1.12.1-1.08.76.01.65,1.2-.1,1.08Zm.05-.28c.37.05.42-.53.05-.54-.36-.02-.41.5-.05.54Z"/><path class="cls-1" d="m111.33,92.48c.03-.22,0-1.2-.02-1.29l.83-.06c.02.1.05,1.16.02,1.39l-.83-.04Z"/><path class="cls-1" d="m111.98,93.84c.03-.14.08-.42.09-.57-.21.21-.64.15-.82-.08,0,.08-.07.44-.08.47.25-.17.66-.09.81.18Z"/><path class="cls-1" d="m110.63,96.45c-.65-.32-.18-1.25.47-.99.72.26.19,1.34-.47.99Zm.14-.25c.32.16.59-.36.23-.5-.33-.14-.56.34-.23.5Z"/><path class="cls-1" d="m108.48,84.7c-.09-.06-.47-.29-.51-.31.12.28-.11.63-.4.69.03.02.35.2.42.25-.06-.29.18-.62.49-.64Z"/><path class="cls-1" d="m45.97,100.84c-.08-.1-.23-.33-.31-.39.01-.04.02-.09.02-.14.58-.28.52-.43-.03-.65-.01-.05-.02-.09-.04-.14.42-.47.29-.59-.29-.59-.03-.04-.06-.08-.09-.11.22-.59-.01-.64-.51-.44-.04-.03-.08-.05-.13-.07-.05-.61-.23-.61-.65-.22-.05,0-.1-.02-.15-.02-.3-.54-.46-.5-.69.03-.05,0-.1.02-.15.03-.45-.35-.63-.34-.62.28-.04.03-.08.05-.12.08-.58-.17-.71-.08-.47.48-.03.04-.05.08-.08.12-.6.05-.69.18-.23.61,0,.05-.02.09-.02.14-.58.28-.52.43.03.65.01.05.02.09.04.14-.43.47-.29.58.29.59.03.04.06.08.09.11-.21.62,0,.63.51.44.04.03.08.05.13.07.05.61.23.61.65.22.05.01.1.02.15.02.3.54.45.5.69-.03.05,0,.1-.02.14-.03.45.36.63.34.62-.28.04-.03.08-.05.12-.08.58.17.71.08.47-.48.03-.04.05-.08.08-.12.08-.03.65-.04.55-.23Zm-2.59.29c-1.48-.2-1.1-2.36.35-2.13,1.48.2,1.1,2.37-.35,2.13Z"/><path class="cls-1" d="m99.27,108.95l3.77-15.14c.6-1.9-2.04-2.96-2.59-.59,0,0-3.76,15.14-3.76,15.14-.56,2.2,2.08,2.77,2.59.59Zm-1.84.69c-.99-.57-.04-2.01.9-1.43.99.57.04,2.01-.9,1.43Z"/><path class="cls-1" d="m103.79,105.79l-11.76-.12c-1.43-.21-.56,3.58-.81,4.21-.65,1.28,12.2.47,12.52.74,1.43.21.56-3.58.81-4.21,0-.34-.34-.62-.76-.63Zm-7.57,3.75c.07.63-3.47.14-3.75.27-.21,0-.38-.14-.38-.31.04-.3-.14-.97.39-.94,0,0,3.37.03,3.37.03.53-.02.34.65.37.95Zm1.66.14c-1.13,0-1.12-1.43.02-1.41,1.13,0,1.11,1.43-.02,1.41Zm5.72-.06c.07.63-3.47.14-3.75.27-.21,0-.38-.14-.38-.31.04-.31-.14-.97.39-.94,0,0,3.37.03,3.37.03.53-.02.34.65.37.95Zm.17-2.05c0,.17-.17.3-.38.3l-10.91-.11c-.53.02-.34-.65-.37-.95,0-.17.17-.3.38-.3l10.91.11c.53-.02.35.65.37.95Z"/><path class="cls-1" d="m105.3,74.18c.06.87-4.87,16.62-3.42,16.81.85.81,1.94.07,2.25-1.07,0,0,3.76-15.14,3.76-15.14.56-2.2-2.08-2.77-2.59-.59Zm1.84-.69c.99.57.04,2.01-.9,1.43-.99-.57-.04-2.01.9-1.43Z"/><path class="cls-1" d="m100.79,77.26l11.76.13c1.43.21.57-3.58.82-4.21,0-.34-.34-.62-.76-.63-.37.26-13.11-.82-12.53.48.26.64-.74,4.39.71,4.22Zm7.57-3.74c-.07-.63,3.47-.14,3.75-.26.21,0,.38.14.38.31-.04.31.14.97-.39.95,0,0-3.37-.04-3.37-.04-.53.02-.34-.65-.37-.95Zm-1.67-.14c1.13,0,1.11,1.43-.02,1.41-1.13,0-1.11-1.43.02-1.41Zm-5.72.06c-.07-.63,3.47-.14,3.75-.26.21,0,.38.14.37.31-.04.31.14.97-.39.95,0,0-3.37-.04-3.37-.04-.53.02-.34-.65-.37-.95Zm-.18,2.05c-.62-.52,12.24-.39,11.66.13-.05.31.15.97-.39.95,0,0-10.91-.12-10.91-.12-.53.02-.34-.65-.37-.95Z"/><path class="cls-1" d="m154.33,7.71l-4.02,1.32,3.53,9.9,4.01-1.32-3.53-9.9Z"/><path class="cls-1" d="m187.92,15.43c-.83.22-2.69-1.8-2.91-3.94-.15-1.47.61-2.02.1-3.09-1.51-2.46-2.76-1.28-4.42.1-2.12.75-5.72-2.72-5.27-3.56.28-.31,5.89.44,7.03-1.88,1.42-1.79-.03-3.16,1.98-3.04.62-.27,1.25,3.95,1.35,4.79.36,1.4.74,2.14,1.25,3.39.34.85-.74,2.05-.76,3.25-.1,1.97,2.98,3.22,1.65,3.98Z"/><path class="cls-1" d="m90.33,3.92c-6.12-2.89-10.74-.85-22.19-.35-9.23.4-12.44-.65-12.83.53-.55,1.67,5.09,6.25,11.68,7.1,7.47-3.85,14.15-7.84,22.84-4.75-7.49-2.15-15.11,1.04-21.53,4.87,4.85.34,5.3-1.65,11.21-3,11-2.02,21.39,2.26,10.82-4.4Z"/><path class="cls-1" d="m98,81.8c1.28.04,2.37.1,3.37.19-6.17-19.56-12.35-39.13-18.52-58.69l-4.68,1.36c6.01,19.03,12.02,38.05,18.03,57.08.73.02,1.34.04,1.8.06Z"/><path class="cls-1" d="m157.9,24.31c-7.5-15.36,13.01-32.65,24.72-19.03l-.47.37c-12.61-13.22-30.57,4.13-23.68,18.45l-.57.21Z"/><path class="cls-1" d="m155.89,26.07l-.04-.58-74.07,5.26.05.58,74.07-5.26Z"/><path class="cls-1" d="m145.84,25.33l-1.16.09.15,1.78,1.16-.09-.15-1.78Z"/><path class="cls-1" d="m100.68,28.41l-1.16.09.14,1.78,1.16-.09-.14-1.78Z"/><path class="cls-1" d="m67.8,45.13l-.61-.06c.4-6.96,6.77-14.22,14.27-14.37l.05.58c-7.68-.51-14.34,10.03-13.72,13.85Z"/><path class="cls-1" d="m64.54,49.87c-.57-.21-.88-.85-.58-1.39.34-.4,2.56-5.36,3.19-5.29.94-.22,1.78.62,1.36,1.45-.73.66-2.35,6.23-3.97,5.22Z"/><path class="cls-1" d="m182.85,82.43l-.63.55.18.8.81.25.63-.55-.18-.8-.81-.25Z"/><path class="cls-1" d="m183.06,79.74c-4.52-.06-4.52,6.75,0,6.69,4.52.06,4.52-6.75,0-6.69Zm.28,4.89c-1.47-.4-1.47-.3-1.73-1.83,0,0,1.1-.96,1.1-.96l1.42.44c.41,1.5.4,1.39-.79,2.35Z"/><path class="cls-1" d="m181.62,82.8l1.1-.96c1.35.4,1.48.21,1.7,1.71l1.25-.52-21.27-46.7-4.48,1.88,21.27,46.7,1.29-.54c-.78.01-.69-1.06-.87-1.56Z"/><path class="cls-1" d="m183.84,83.48l-.18-.8-.81-.25-.63.55.18.8.81.25.63-.55Z"/><path class="cls-1" d="m183.21,84.03l.63-.55-.18-.8-.81-.25-.63.55.18.8.81.25Z"/><path class="cls-1" d="m181.77,83.81l-.14.03.05.08c.13-.09.17-.24.1-.38h-.08s.06.27.06.27Z"/><path class="cls-1" d="m182.21,81.96l-.3.07.21.34.38-.34-.3-.02v-.04Z"/><path class="cls-1" d="m183.09,41.81c-56.55,1-56.54,81.62,0,82.61,56.55-1,56.54-81.62,0-82.61Zm38.55,57.43l-.39.86-.66-.28c-1.68,3.47-3.88,6.67-6.49,9.51l.28.23-.65.7-.29-.24c-2.74,2.85-5.92,5.31-9.42,7.29l.07.11-.84.48-.07-.12c-3.53,1.89-7.38,3.3-11.44,4.13l.06.28-.95.2-.07-.3c-3.47.63-7.21.84-10.79.58l-.02.25-.97-.07.02-.27c-4.28-.4-8.36-1.44-12.16-3l-.12.26-.9-.37.12-.27c-3.62-1.59-6.96-3.67-9.93-6.14l-.24.27-.74-.62.25-.28c-2.9-2.53-5.42-5.46-7.48-8.68l-.64.37-.5-.81.65-.37c-2.07-3.43-3.62-7.17-4.55-11.15l-.53.11-.21-.92.53-.11c-.7-3.34-.96-6.95-.71-10.42l-.23-.02.08-.94.23.02c.36-3.91,1.32-7.66,2.78-11.16l-.15-.06.37-.87.15.06c1.57-3.53,3.67-6.79,6.19-9.71l-.26-.21.64-.71.25.21c2.55-2.82,5.52-5.29,8.79-7.33l-.11-.17.83-.49.1.16c3.35-1.98,7.02-3.51,10.91-4.51l-.12-.45.95-.22.11.44c3.91-.92,8.19-1.29,12.31-1.03l.02-.18.97.08v.16c4.09.34,8.02,1.25,11.69,2.66l.23-.54.9.36-.23.54c3.78,1.55,7.27,3.62,10.38,6.13l.27-.31.74.61-.27.31c3.1,2.62,5.79,5.68,7.96,9.07l.13-.08.51.8-.14.08c2,3.3,3.52,6.9,4.47,10.71l.61-.14.23.91-.62.14c.83,3.69,1.1,7.72.77,11.56l.84.06-.07.93-.85-.06c-.45,4.1-1.56,8.01-3.21,11.65l.65.27Z"/><path class="cls-1" d="m225.69,65.84c-24.75-52.61-107.09-21.32-85.2,34.55,24.76,52.61,107.09,21.32,85.2-34.55Zm-1.55,33.92c-23.85,50.7-103.2,20.54-82.1-33.3,23.85-50.7,103.2-20.54,82.1,33.3Z"/><path class="cls-1" d="m182.21,81.96v.04s.29.02.29.02c.07-.06.22-.24.33-.15l3.41-35.96-.61-.05c.11.64-3.7,35.46-3.25,36.05l-.18.04Z"/><path class="cls-1" d="m185.64,45.86c.14.01.67.06.8.06.02-.2.21-2.32.22-2.52l-.97-.08-.02.18-.21,2.35.17.02Z"/><path class="cls-1" d="m183.05,81.53l.56.23,14.69-33.44-.57-.22-14.69,33.44Z"/><path class="cls-1" d="m197.74,48.09c.13.05.62.25.74.3.17-.4.85-1.97,1.01-2.34l-.9-.36c-.16.36-.84,1.95-1.01,2.34l.16.06Z"/><path class="cls-1" d="m208.8,54.82l-.46-.38-24.73,27.44c.36,1.85,24.87-27.34,25.2-27.06Z"/><path class="cls-1" d="m208.33,54.44c.11.09.51.42.61.5.2-.23,1.55-1.74,1.71-1.92l-.74-.61c-.16.17-1.52,1.71-1.71,1.92l.13.11Z"/><path class="cls-1" d="m216.63,64.27l-.32-.5-32.18,18.53.14.61,32.36-18.63Z"/><path class="cls-1" d="m216.31,63.77c.07.12.35.55.42.66l2.11-1.23.14-.08-.51-.8-.13.08-2.12,1.24.09.14Z"/><path class="cls-1" d="m184.61,82.87l.14.57,36.79-8.35-.15-.57-36.79,8.34Z"/><path class="cls-1" d="m221.4,74.53c.03.13.16.63.19.75.46-.11,2.14-.5,2.56-.6l-.23-.91c-.4.09-2.13.5-2.56.6l.04.16Z"/><path class="cls-1" d="m184.82,83.44l-.03.37c.48.65,37.03,2.94,37.66,3.19l.05-.59-37.67-2.98Z"/><path class="cls-1" d="m222.49,86.42c-.01.14-.05.65-.06.77.57.04,2.08.15,2.63.19l.07-.93c-.54-.04-2.07-.15-2.63-.19v.16Z"/><path class="cls-1" d="m184.42,84.07l-.22-.19-.46.4,28.14,24.18.4-.44c-.59-.26-27.2-23.86-27.96-23.76l.09-.19Z"/><path class="cls-1" d="m212.29,108.02c-.09.1-.44.49-.53.58.2.17,1.82,1.55,1.98,1.68l.65-.7c-.14-.12-1.79-1.52-1.98-1.68l-.11.12Z"/><path class="cls-1" d="m183.27,84.61c-.12.24,18.77,30.83,18.8,31.04l.53-.3-18.89-31.04c-.05.02-.37.39-.44.3Z"/><path class="cls-1" d="m202.6,115.35c-.12.07-.58.33-.69.4.07.11,1.28,2.07,1.34,2.18l.84-.48c-.06-.1-1.28-2.07-1.34-2.18l-.15.08Z"/><path class="cls-1" d="m182.81,84.46c-.4.72,7.69,34.72,7.66,35.44l.6-.12c-.49-.38-7.1-35.61-8.26-35.31Z"/><path class="cls-1" d="m191.07,119.78c-.14.03-.66.14-.79.17.04.17.54,2.38.57,2.47l.96-.2c-.01-.05-.53-2.33-.56-2.47l-.17.03Z"/><path class="cls-1" d="m182.48,84.36s-.33.74-.33.74c0,0-2.78,35.27-2.78,35.27l.61.04c.05-.65,2.79-35.35,2.84-35.95l-.33-.1Z"/><path class="cls-1" d="m179.98,120.41c-.14,0-.67-.05-.8-.05-.01.17-.18,2.41-.18,2.53l.97.07c0-.08.17-2.38.18-2.52h-.17Z"/><path class="cls-1" d="m182.18,84.27l-.62.68-14.51,32.3.56.23,14.54-32.37.33-.74-.3-.09Z"/><path class="cls-1" d="m167.61,117.48c-.13-.05-.62-.25-.74-.3-.07.15-1,2.26-1.03,2.33l.9.37s.98-2.21,1.03-2.33l-.16-.07Z"/><path class="cls-1" d="m181.93,84.19l-.1-.44-.15.17.16.26-.82.47-24.1,26.31.46.39,24.18-26.39.62-.68-.24-.08Z"/><path class="cls-1" d="m157.38,111.34c-.11-.09-.51-.42-.61-.51-.18.2-1.59,1.76-1.73,1.91l.74.62c.12-.14,1.57-1.73,1.73-1.91l-.13-.11Z"/><path class="cls-1" d="m184.58,83.72c-.06.12-.19.42-.25.54.75.32,33.84,14.35,34.58,14.66l.24-.54-33.74-14.31c-.13-.05-.72-.3-.84-.36Z"/><path class="cls-1" d="m219.16,98.38c-.06.12-.27.59-.32.71.47.2,1.97.82,2.42,1.01l.39-.86c-.43-.18-1.96-.82-2.42-1.01l-.07.15Z"/><path class="cls-1" d="m181.68,83.92l-.05-.08c-.8-.19-31.93,18.19-32.61,18.36l.32.5,31.68-18.06.82-.47-.16-.26Z"/><path class="cls-1" d="m149.34,102.7c-.07-.12-.35-.55-.42-.66-.45.26-1.83,1.06-2.26,1.31l.5.8c.42-.25,1.81-1.05,2.26-1.31l-.09-.14Z"/><path class="cls-1" d="m181.77,83.81l-.06-.27-1.11-.09-35.95,7.22.13.57,36.26-7.28c.07-.01.68-.14.74-.15Z"/><path class="cls-1" d="m144.77,91.24c-.03-.13-.14-.63-.17-.75-.4.08-2.22.46-2.58.53l.21.92c.34-.07,2.2-.45,2.58-.53l-.04-.16Z"/><path class="cls-1" d="m181.78,83.54c-.04-.12-.05-.51-.24-.49l-.07.08c-.12-.58-36.88-2.99-37.17-3.2l-.05.58,36.35,2.94c.07,0,1.12.09,1.19.1Z"/><path class="cls-1" d="m144.25,80.51c.01-.14.05-.64.06-.77-.06,0-2.7-.2-2.63-.2l-.08.94.23.02,2.39.18v-.17Z"/><path class="cls-1" d="m181.54,83.05l.15.06-.04-.18-.11.12Z"/><path class="cls-1" d="m179.8,81.71l-32.51-13.11-.23.54c.06.03,34.13,13.76,34.18,13.78l-1.44-1.22Z"/><path class="cls-1" d="m147.05,69.15c.05-.13.26-.6.31-.71l-2.29-.91-.15-.06-.37.87.15.06,2.29.91.07-.15Z"/><path class="cls-1" d="m181.24,82.93l.23.2s.13-.15.18-.19c-.08-.12.06-.21.14-.28l-.15.08c-.13-.82-27.73-23.45-28.13-24.04l-.4.44,26.7,22.57,1.44,1.22Z"/><path class="cls-1" d="m153.11,59.14c.09-.1.44-.49.53-.58-.15-.13-1.9-1.59-1.99-1.66l-.64.71c.1.08,1.83,1.53,1.99,1.66l.11-.13Z"/><path class="cls-1" d="m181.64,82.74c.11-.04.39-.3.48-.37l-.21-.34-.11.03c.1-.46-19.07-30.31-19.17-30.69l-.52.31c.41.64,19.15,30.44,19.54,31.06Z"/><path class="cls-1" d="m162.1,51.67c.12-.07.57-.34.69-.4-.06-.09-1.36-2.14-1.38-2.16l-.83.49s1.32,2.07,1.38,2.16l.15-.09Z"/><path class="cls-1" d="m181.91,82.03c.11-.02.37-.08.48-.11-.16-.67-8.54-34.67-8.7-35.32l-.59.14c.12.49,8.59,34.84,8.7,35.31l.11-.03Z"/><path class="cls-1" d="m173.1,46.74c.14-.03.65-.15.78-.18-.08-.33-.55-2.18-.62-2.46l-.95.22c.07.28.54,2.14.62,2.46l.17-.04Z"/><path class="cls-1" d="m45.96,82.86l-.63.55.18.8.81.25.63-.55-.18-.8-.81-.25Z"/><path class="cls-1" d="m46.17,80.09c-4.6-.06-4.6,6.87,0,6.8,4.6.06,4.6-6.87,0-6.8Zm.29,4.97c-1.47-.4-1.47-.3-1.73-1.83,0,0,1.1-.96,1.1-.96,1.47.4,1.47.3,1.73,1.83,0,0-1.1.96-1.1.96Z"/><path class="cls-1" d="m44.94,84.28l-.14.03.05.08c.14-.08.1-.26.06-.38h-.03s.06.27.06.27Z"/><path class="cls-1" d="m45.96,82.86l-.63.55.18.8.81.25.63-.55-.18-.8-.81-.25Z"/><path class="cls-1" d="m45.38,82.43l-.3.07.18.28.33-.29-.21-.02v-.04Z"/><path class="cls-1" d="m46.26,42.28c-56.55,1-56.54,81.62,0,82.61,56.55-1,56.54-81.61,0-82.61Zm38.55,57.43l-.39.86-.66-.28c-1.68,3.47-3.88,6.68-6.49,9.51l.28.24-.65.7-.29-.24c-2.74,2.85-5.92,5.31-9.42,7.29l.07.11-.84.48-.07-.12c-3.53,1.89-7.38,3.3-11.44,4.14l.06.28-.96.2-.07-.3c-3.47.63-7.21.84-10.79.58l-.02.25-.98-.07.02-.27c-4.28-.41-8.36-1.44-12.16-3l-.11.26-.9-.37.12-.27c-3.62-1.59-6.96-3.67-9.93-6.14l-.24.27-.74-.61.25-.28c-2.9-2.53-5.42-5.46-7.48-8.68l-.64.37-.5-.81.65-.37c-2.07-3.43-3.62-7.17-4.55-11.14l-.53.11-.21-.92.53-.11c-.7-3.34-.95-6.95-.71-10.42l-.23-.02.08-.94.23.02c.36-3.91,1.32-7.66,2.78-11.16l-.15-.06.37-.87.15.06c1.58-3.53,3.67-6.79,6.19-9.71l-.26-.21.64-.71.25.21c2.55-2.82,5.52-5.29,8.79-7.33l-.11-.17.83-.49.1.16c3.35-1.98,7.02-3.51,10.91-4.51l-.11-.45.95-.22.11.44c3.91-.92,8.19-1.29,12.31-1.03l.02-.18.97.08v.16c4.09.34,8.02,1.25,11.69,2.66l.23-.54.9.36-.23.54c3.78,1.55,7.27,3.62,10.38,6.13l.27-.31.74.61-.28.31c3.1,2.62,5.79,5.68,7.96,9.07l.14-.08.51.8-.14.08c2,3.3,3.52,6.9,4.47,10.71l.61-.14.23.91-.62.14c.83,3.69,1.1,7.72.77,11.56l.84.06-.07.93-.85-.06c-.45,4.1-1.56,8.01-3.21,11.65l.65.27Z"/><path class="cls-1" d="m88.86,66.31C64.11,13.7-18.23,44.99,3.67,100.86c24.75,52.61,107.09,21.31,85.19-34.55Zm-1.55,33.93C63.46,150.93-15.89,120.77,5.21,66.94c23.85-50.7,103.2-20.54,82.1,33.3Z"/><path class="cls-1" d="m45.38,82.43v.04c.28.12.36-.3.62-.14l3.41-35.95-.61-.05c.11.64-3.7,35.46-3.25,36.05l-.18.04Z"/><path class="cls-1" d="m48.81,46.33c.14.01.67.05.8.07l.21-2.36v-.17s-.96-.08-.96-.08l-.02.18-.21,2.35.17.02Z"/><path class="cls-1" d="m46.22,82l.56.23,14.69-33.44-.56-.22-14.69,33.44Z"/><path class="cls-1" d="m60.91,48.56c.13.05.62.25.74.3.17-.4.85-1.97,1.01-2.34l-.9-.36c-.16.36-.84,1.95-1.01,2.34l.16.06Z"/><path class="cls-1" d="m47.25,82.71l24.72-27.43-.46-.38-24.73,27.44s.44.37.48.36Z"/><path class="cls-1" d="m71.5,54.91c.11.09.51.42.61.5.2-.23,1.55-1.74,1.71-1.92l-.74-.61c-.16.17-1.52,1.71-1.71,1.92l.13.11Z"/><path class="cls-1" d="m79.8,64.74l-.32-.5-32.22,18.55.14.61,32.4-18.65Z"/><path class="cls-1" d="m79.48,64.24c.07.12.35.55.42.66l2.11-1.23.14-.08-.51-.8-.14.08-2.12,1.24.09.14Z"/><path class="cls-1" d="m47.78,83.34l.14.57,36.79-8.35-.14-.57-36.79,8.34Z"/><path class="cls-1" d="m84.57,75c.03.13.16.63.19.75.46-.11,2.14-.5,2.56-.6l-.23-.91c-.4.09-2.13.49-2.56.6l.04.16Z"/><path class="cls-1" d="m47.99,83.91l-.03.37c.48.65,37.03,2.94,37.66,3.19l.05-.59-37.67-2.98Z"/><path class="cls-1" d="m85.66,86.89c-.01.14-.05.65-.06.77.57.04,2.08.15,2.63.19l.07-.93c-.54-.04-2.07-.15-2.63-.19v.17Z"/><path class="cls-1" d="m47.59,84.54l-.27-.23c-.11.09-.35.3-.44.41l28.17,24.21.4-.44c-.59-.26-27.2-23.86-27.96-23.76l.09-.19Z"/><path class="cls-1" d="m75.46,108.49c-.09.1-.45.49-.53.58.2.17,1.82,1.55,1.98,1.68l.65-.7c-.14-.12-1.79-1.52-1.97-1.68l-.11.12Z"/><path class="cls-1" d="m46.44,85.05c-.1.29,18.75,30.81,18.81,31.06l.53-.3-18.92-31.09s-.4.38-.41.33Z"/><path class="cls-1" d="m65.77,115.81c-.12.07-.58.33-.69.39.07.12,1.28,2.07,1.34,2.18l.84-.48c-.06-.1-1.28-2.07-1.34-2.18l-.15.08Z"/><path class="cls-1" d="m45.98,84.91c-.43.64,7.7,34.79,7.66,35.46l.6-.12-7.75-34.94c.05-.27-.32-.34-.51-.39Z"/><path class="cls-1" d="m54.24,120.25c-.14.03-.66.14-.79.17.04.17.54,2.38.56,2.47l.96-.2c-.01-.05-.53-2.33-.56-2.47l-.17.04Z"/><path class="cls-1" d="m45.66,84.81l-.34.76-2.78,35.27.61.04c.05-.67,2.79-35.35,2.84-35.97l-.32-.1Z"/><path class="cls-1" d="m43.15,120.88c-.14,0-.67-.05-.8-.05-.01.17-.17,2.41-.18,2.52l.98.07c0-.08.17-2.38.18-2.53h-.17Z"/><path class="cls-1" d="m45.36,84.72l-.64.7-14.51,32.3.56.23,14.54-32.37.34-.76-.3-.09Z"/><path class="cls-1" d="m30.78,117.94c-.13-.05-.62-.25-.74-.3-.07.15-1,2.26-1.03,2.33l.9.37s.97-2.21,1.03-2.33l-.16-.07Z"/><path class="cls-1" d="m45.05,84.63l-.08-.36-.12.13.16.26-.82.47-24.1,26.31.46.38,24.18-26.39.64-.7-.31-.1Z"/><path class="cls-1" d="m20.55,111.81c-.11-.09-.51-.42-.61-.51-.18.2-1.59,1.76-1.73,1.91l.74.61c.12-.13,1.57-1.73,1.73-1.91l-.13-.11Z"/><path class="cls-1" d="m47.75,84.19c-.06.12-.19.42-.25.54.75.32,33.84,14.35,34.58,14.66l.24-.54-33.74-14.31c-.13-.05-.72-.3-.84-.36Z"/><path class="cls-1" d="m82.33,98.85c-.06.12-.27.59-.32.71.47.2,1.97.82,2.42,1.01l.39-.86c-.43-.18-1.96-.82-2.42-1.01l-.07.15Z"/><path class="cls-1" d="m44.85,84.39l-.05-.08c-.8-.19-31.93,18.19-32.61,18.36l.32.5,31.68-18.06.82-.47-.16-.26Z"/><path class="cls-1" d="m12.51,103.17c-.07-.12-.35-.55-.42-.66-.45.26-1.83,1.05-2.26,1.31l.5.8c.42-.24,1.81-1.05,2.26-1.3l-.09-.14Z"/><path class="cls-1" d="m44.94,84.28l-.06-.27-1.11-.09-35.95,7.22.13.57,36.26-7.28c.07-.01.68-.14.74-.15Z"/><path class="cls-1" d="m7.94,91.71c-.03-.13-.14-.63-.17-.75-.4.08-2.22.46-2.58.53l.21.92c.34-.07,2.2-.45,2.58-.53l-.04-.16Z"/><path class="cls-1" d="m44.91,84.01c-.03-.07-.06-.51-.2-.49l-.07.08c-.12-.58-36.88-2.99-37.17-3.2l-.05.58s36.35,2.94,36.35,2.94c.02,0,1.12.09,1.14.09Z"/><path class="cls-1" d="m7.42,80.98c.01-.14.05-.64.06-.77l-2.4-.18-.23-.02-.08.94c.11,0,2.44.18,2.63.2v-.17Z"/><path class="cls-1" d="m44.81,83.56l-.03-.12-.07.08.1.04Z"/><path class="cls-1" d="m42.97,82.18l-32.51-13.11-.23.54c.06.03,34.13,13.75,34.18,13.78l-1.44-1.22Z"/><path class="cls-1" d="m10.22,69.62c.05-.13.26-.6.31-.71l-2.29-.91-.15-.06-.37.87.15.06,2.29.91.07-.15Z"/><path class="cls-1" d="m44.41,83.4l.23.2s.1-.11.14-.15c0-.06-.09-.24.01-.26-.11-.77-27.74-23.46-28.12-24.01l-.4.44,26.69,22.57,1.44,1.22Z"/><path class="cls-1" d="m16.28,59.61c.09-.1.44-.49.53-.58-.15-.13-1.9-1.59-1.99-1.66l-.64.71c.1.08,1.83,1.53,1.99,1.66l.11-.13Z"/><path class="cls-1" d="m44.79,83.18l.46-.4-.18-.28-.11.03c.09-.46-19.06-30.31-19.17-30.69l-.52.31c.43.68,19.1,30.36,19.52,31.04Z"/><path class="cls-1" d="m25.27,52.14c.12-.07.57-.34.69-.4-.06-.09-1.37-2.14-1.38-2.16l-.83.49.11.17,1.27,1.99.15-.09Z"/><path class="cls-1" d="m45.08,82.5c.11-.03.37-.08.48-.11-.16-.67-8.54-34.67-8.7-35.32l-.59.14c.12.5,8.58,34.84,8.7,35.32l.11-.03Z"/><path class="cls-1" d="m36.27,47.21c.14-.03.65-.15.78-.18-.08-.33-.55-2.18-.62-2.46l-.95.22c.07.28.54,2.14.62,2.46l.17-.04Z"/><path class="cls-1" d="m158.17,26.93c-17.15,18.8-34.31,37.6-51.46,56.39,1.42.28,4.48,2.8,5.01,4.25,16.99-18.6,33.98-37.21,50.97-55.81.09-1.47-3.63-3.99-4.52-4.84Zm-23.24,33.81c-12.5,13.69-22.97,24.51-22.97,24.51-1.66,1.15,46.3-51.38,45.27-49.59,0,0-9.8,11.38-22.3,25.08Z"/><path class="cls-1" d="m163.22,31.18l-.2-.16c.03.09.06.19.09.28.03-.04.07-.08.1-.11Z"/><path class="cls-1" d="m159.05,16.23l-6.97,2.18,7.33,21.59,6.97-2.18-7.33-21.59Zm3.07,14.02c-1.46-3.72-4.23-12.95-4.01-12.39,1.76,4.19,6.21,16.4,6.88,19.65.16.44-2.05-4.95-2.88-7.27Z"/><path class="cls-1" d="m158.8,20.06l-77.98,5.48.36,4.68,77.98-5.48s-.35-4.67-.36-4.68h0Zm-39.65,6.13c-18.79,1.37-34.07,2.05-34.07,2.05-1.97-.3,69.98-5.54,68.07-4.96,0,0-15.2,1.54-34,2.91Z"/><path class="cls-1" d="m182.42,9.87c-6.16-11.14-20.69-1.84-29.85.22l1.05,2.76c7.17-1.88,15.68-6.51,22.84-4.93,9.35,5.63.15,16.76-8.39,16.9-1.63,7.66,20.37-2.94,14.35-14.95Zm-.1,5.8c-.76,6.26-7.08,10.16-12.93,10.75,8.07-1.11,16.23-10.27,10.87-18.03,1.73,2,2.4,4.42,2.06,7.28Z"/><path class="cls-1" d="m49.34,121.5l-1.04.09.19,2.13,1.04-.09-.19-2.13Z"/><path class="cls-1" d="m49.01,120.9l-.52.04.1,1.06.52-.04-.1-1.06Z"/><path class="cls-1" d="m179.33,45.41l1.04-.07-.15-2.13-1.05.07.15,2.13Z"/><path class="cls-1" d="m179.66,46.03l.52-.03-.07-1.07-.52.03.07,1.07Z"/></g></svg>