<?xml version="1.0" encoding="UTF-8"?><svg id="Livello_2" xmlns="http://www.w3.org/2000/svg" viewBox="0 0 231.76 132.73"><defs><style>.cls-1{fill:#523333;}</style></defs><g id="Livello_1-2"><path class="cls-1" d="m190.72,89.05l.66-.22-.62-.62c.02.28-.04.56-.04.84Z"/><path class="cls-1" d="m183.16,84.15l.46-1.84-3.32-2.81,1.67,4.45,1.19.2Z"/><path class="cls-1" d="m184.15,82.76l-.29,1.17c.42-.17.85-.28,1.29-.33l-.99-.84Z"/><path class="cls-1" d="m182.21,84.6l.05.13.23-.08-.28-.05Z"/><path class="cls-1" d="m217.96,67.31c-26.81-40.08-93.71,1.13-64.59,42.1,26.8,40.08,93.71-1.13,64.59-42.1Zm-39.52,57.18c-49.25-8.14-33.63-82.45,14.4-72.28,49.25,8.14,33.63,82.45-14.4,72.28Z"/><path class="cls-1" d="m217.04,67.89c-26.06-38.97-91.11,1.1-62.8,40.93,26.06,38.96,91.1-1.1,62.8-40.93Zm5.26,29.04c-.02.15-.08.45-.1.59l-.8-.13c-1.3,4.71-3.6,9.18-6.86,13.08l.45.44c-.25.24-.65.6-.9.84l-.35-.35c-.86.96-1.77,1.88-2.75,2.75l.56.52c-.25.24-.62.62-.87.86l-.62-.57c-2.66,2.24-5.78,4.18-8.95,5.57l.04.12c-1.66.47-3.25,1.22-4.92,1.65l.07.2c-.33.11-.85.28-1.18.39l-.1-.27c-4.42,1.1-8.97,1.4-13.42.92l-.07.31c-.34-.08-.88-.2-1.22-.27l.05-.19c-1.04-.15-2.08-.34-3.11-.57l-.07.35c-.35-.07-.88-.17-1.23-.23l.08-.41c-4.33-1.13-8.47-3.02-12.16-5.62l-.44.47c-.26-.23-.67-.58-.93-.8l.37-.4c-.94-.71-1.85-1.47-2.73-2.28l-.06.07c-.26-.22-.69-.56-.96-.77l.13-.15c-3.16-3.1-5.88-7.04-7.62-11.08l-.35.11c-.11-.32-.29-.82-.4-1.14l.28-.09c-.46-1.17-.85-2.35-1.18-3.54l-.1.03c-.12-.31-.32-.81-.44-1.12l.23-.08c-.96-4.1-1.14-8.3-.58-12.4l-.66-.13c.07-.33.19-.85.26-1.18l.58.12c.18-1.03.4-2.05.67-3.06l-.11-.02c.06-.33.16-.85.22-1.18l.23.04c1.28-4.19,3.37-8.16,6.21-11.69l-.36-.33c.24-.24.62-.63.86-.87l.29.26c.87-1.01,1.81-1.97,2.81-2.89l-.27-.23c.23-.25.6-.65.83-.9l.36.31c2.78-2.41,6.11-4.49,9.48-5.94l-.25-.67c.33-.12.85-.29,1.18-.41l.22.6c1.1-.43,2.21-.82,3.32-1.14l-.08-.18c.32-.12.83-.32,1.16-.45l.13.3c4.74-1.21,9.63-1.49,14.39-.88l.13-.53c.34.08.88.2,1.22.28l-.11.43c1.19.19,2.37.44,3.54.74l.09-.41c.35.07.88.17,1.23.24l-.11.5c3.03.89,5.94,2.16,8.67,3.79l.14-.17c.27.21.71.53.99.74l-.07.09c1.09.7,2.15,1.46,3.17,2.28l.28-.37c.28.19.73.51,1.02.7l-.35.46c3.7,3.17,6.93,7.4,8.99,11.84l.37-.11c.1.32.26.83.37,1.15l-.25.07c.51,1.18.94,2.38,1.3,3.59l.51-.17c.12.32.3.82.41,1.14l-.6.2c1,3.82,1.31,7.74.98,11.59l.5.11c-.09.32-.17.84-.24,1.17l-.38-.08c-.16,1.26-.38,2.51-.68,3.75l.7.11-.1.59Z"/><path class="cls-1" d="m219.91,95.94l-.05.3-23.93-3.77-3.41-3.38c3.3-3.5,23.88,2.25,27.84,2.69l-.06.29c.28.05,2.25.43,2.48.48.07-.33.15-.85.24-1.17-.33-.07-2.1-.41-2.47-.48l-.06.29-21.73-4.19,20.88-7,.1.28c.43-.14,1.98-.66,2.38-.8-.11-.32-.3-.82-.41-1.14-.33.11-2.02.68-2.39.8l.1.28c-4.03,1.01-23.32,9.34-27.21,6.31l2.79-3.72,22.63-6.73.09.29c.15-.04,2.32-.69,2.41-.72-.1-.32-.27-.83-.37-1.15-.21.06-2.16.64-2.42.72l.09.29-21.84,6.49,13.41-17.9.25.18c.25-.34,1.24-1.66,1.48-1.97-.28-.19-.73-.51-1.02-.7-.18.23-1.28,1.7-1.48,1.97l.26.18-13.9,18.54-4.37,1.3c-1.05-5.23,11.56-18.53,14.32-22.25l.25.18c.07-.09,1.49-1.84,1.55-1.92-.28-.2-.71-.53-.99-.74,0,0-1.49,1.85-1.55,1.92l.25.18-12.25,15.18,4.04-19.08.31.06c.08-.37.43-2.04.5-2.38-.34-.07-.88-.17-1.23-.24-.05.24-.44,2.09-.5,2.38l.31.06c-1.16,4.46-3.48,22.53-8.11,25l-1.62-3.89,5.52-22.03.3.07c.08-.32.52-2.08.59-2.36-.34-.08-.88-.2-1.22-.28-.09.35-.49,1.98-.59,2.36l.3.07-5.31,21.2-8.4-20.16.29-.11c-.09-.21-.88-2.1-.94-2.25-.33.13-.84.32-1.16.45,0,0,.91,2.17.94,2.25l.29-.11,8.73,20.94-1.09,4.33c-4.5-.97-10.17-20.85-11.79-24.31l.3-.1c-.16-.43-.7-1.88-.85-2.28-.33.11-.85.29-1.18.41.17.44.68,1.82.85,2.28l.3-.1,7.48,19.96-16.53-14,.21-.23c-.27-.23-1.66-1.4-1.89-1.6-.23.25-.6.65-.83.9.13.11,1.71,1.45,1.89,1.6l.21-.22c3.01,2.96,19.83,14.92,19.32,19.88l-5.48-.92-17.15-15.6.21-.22c-.21-.19-1.66-1.51-1.83-1.67-.24.24-.62.63-.86.87.23.21,1.57,1.43,1.83,1.67l.21-.22,16.46,14.97-22.15-3.72.05-.3c-.11-.02-2.46-.41-2.49-.42-.06.33-.16.85-.22,1.18.1.02,2.38.4,2.49.42l.06-.3,23.08,3.88,2.91,2.65-4.7,1.69-22.58-4.59.06-.29c-.43-.09-2.08-.42-2.47-.5-.07.33-.19.84-.26,1.18.44.09,2.01.41,2.47.5l.07-.29,21.62,4.4-20.67,7.44-.11-.28c-.14.05-2.29.83-2.36.85.12.32.32.81.44,1.12.09-.03,2.27-.82,2.37-.85l-.11-.28,21.59-7.78,6.27,1.28-2.64,3.02-23.99,7.72-.1-.29c-.18.06-2.29.74-2.4.77.11.32.29.82.4,1.14.18-.06,2.16-.7,2.4-.77l-.1-.29,23.03-7.41-15.62,17.91-.24-.19c-.07.08-1.59,1.82-1.62,1.86.27.21.69.56.96.77.07-.09,1.55-1.78,1.62-1.86l-.24-.19,16.28-18.66,4.59-1.48c.09.08.18.15.27.23l-.93,4.56-17.24,18.41-.23-.2c-.27.29-1.44,1.54-1.69,1.8.26.22.67.58.93.8.29-.31,1.38-1.47,1.69-1.8l-.23-.2,16.54-17.66-4.69,22.9-.31-.06c-.06.31-.43,2.12-.49,2.38.34.06.88.17,1.23.23.04-.18.44-2.14.49-2.38l-.31-.06,4.89-23.89,2.75-2.93,1.7,4.73-5.51,22.65-.3-.07c-.02.08-.58,2.37-.58,2.36.34.08.88.2,1.22.27.03-.13.53-2.17.57-2.36l-.3-.07,5.29-21.72,7.5,20.81-.29.1c.06.17.79,2.19.83,2.29.33-.11.85-.28,1.18-.39-.02-.05-.79-2.18-.83-2.29l-.3.1-7.83-21.71.99-4.08c5.53,1.92,9.48,19.42,11.16,24.08l-.3.09.74,2.32c.37-.11.83-.25,1.2-.35-.04-.1-.7-2.21-.74-2.32l-.3.09-5.92-18.53,14.89,13.74-.22.22c.41.38,1.43,1.32,1.82,1.68.24-.24.62-.62.86-.86-.36-.33-1.44-1.33-1.82-1.68l-.22.22c-3.53-3.56-18.32-14.93-17.72-20.79l3.82.6,16.94,16.78-.23.21c.26.26,1.52,1.51,1.76,1.74.25-.23.65-.6.9-.84-.3-.29-1.44-1.43-1.76-1.74l-.23.21-16.35-16.19,23.1,3.64-.05.3c.54.09,1.98.31,2.49.4.06-.33.14-.85.2-1.18-.46-.07-2.01-.32-2.49-.39Zm-25.89-13.63l-2.47,3.3-1.81-.35.38-1.79,3.9-1.16Zm-3.33-4.55l-1.11,5.24-1.47.44-.68-1.63,3.26-4.05Zm-8.95,7.81c-.44.6-.73,1.28-.85,1.98l-1.32-1.2,2.17-.78Zm.48-.96l.28.05-.23.08-.05-.13Zm1.93-1.84l.99.84c-.44.05-.87.16-1.29.33l.29-1.17Zm1.9.81l-.03-.03.96-1.18.53,1.26-.38.12c-.35-.09-.71-.15-1.07-.17Zm-.77-5.29l1.43,3.43-1.15,1.43-1.23-1.04.96-3.82Zm-4.97,1.22l3.32,2.81-.46,1.84-1.19-.2-1.67-4.45Zm-3.7,4.16l4.9.82.17.46-2.62.94-2.45-2.23Zm-1.76,4.39l4.07-1.47,1.9,1.73c0,.16,0,.32.02.47l-.36.41-5.64-1.15Zm13.49-4.05l1.1-.33-.25,1.17c-.22-.2-.47-.38-.72-.54l-.13-.31Zm-9.81,8.37l2.19-2.52.38.08c.17.48.45.95.78,1.36l-3.36,1.08Zm6.64-3.17l-.31-1.02.76-.77,1.08.25.31,1.02-.76.77-1.08-.25Zm4.93-3.26l1.05.2-.59.79c-.11-.34-.26-.68-.45-1Zm6.29,1.21l-4.35,1.46-1.13-1.12.91-1.22,4.57.88Zm-5,1.67l-.66.22c0-.28.06-.56.04-.84l.62.62Zm-8.89,6.87l.68-3.3c.47.28.98.48,1.51.6l.1.28-2.28,2.43Zm4.49,1.85l-1.49-4.14.27-.29c.32,0,.65-.03.97-.08l1.1,1.02-.85,3.5Zm3.43-7.43l.5,1.56-1.36-.21c.37-.41.66-.86.86-1.35Zm-2.97,2.72c.26-.09.52-.2.77-.33l-.21.85-.56-.52Zm5.45,5.03l-4.36-4.03.45-1.84s.02-.01.03-.02l2.11.33,1.78,5.55Zm-1.29-6.08l-.69-2.16.96-.32,3.03,3-3.3-.52Z"/><path class="cls-1" d="m186.37,87.98l-.62-.14-.44.44.18.59.62.14.44-.44-.18-.59Z"/><path class="cls-1" d="m209.58,126.11c.13-.19.4-.6.45-.72,1.47-1.48,4.09-1.33,4.82-3.35,1.27-1.67,3.9-1.83,4.33-3.93,1.04-1.83,3.62-2.3,3.77-4.46.78-1.93,3.27-2.75,3.12-4.89.5-1.98,2.89-3.19,2.43-5.23.23-2.04,2.43-3.5,1.7-5.5-.04-2.06,1.93-3.78.94-5.67-.32-2.03,1.4-3.98.16-5.72-.59-1.93.84-4.17-.61-5.67-.85-1.87.27-4.24-1.39-5.59-1.1-1.74-.32-4.22-2.13-5.34-1.31-1.55-.93-4.21-2.85-5.04-1.53-1.42-1.45-4.01-3.51-4.65-1.72-1.21-1.96-3.79-4.09-4.16-1.88-.99-2.45-3.51-4.64-3.62-1.98-.74-2.92-3.16-5.09-3-2.03-.47-3.33-2.77-5.42-2.32-2.1-.21-3.67-2.33-5.73-1.63-2.12.04-3.94-1.85-5.91-.9-2.09.31-4.13-1.34-5.96-.16-2.01.57-4.32-.81-5.94.59-1.94.83-4.36-.27-5.82,1.33-1.81,1.07-4.33.27-5.57,2.05-1.62,1.27-4.31.85-5.24,2.74-1.47,1.48-4.1,1.33-4.82,3.35-1.27,1.67-3.9,1.83-4.33,3.93-1.04,1.82-3.62,2.3-3.77,4.46-.78,1.93-3.27,2.75-3.12,4.89-.5,1.99-2.89,3.19-2.42,5.23-.23,2.04-2.42,3.5-1.7,5.5.04,2.06-1.93,3.78-.94,5.67.32,2.03-1.4,3.98-.16,5.72.59,1.94-.85,4.17.61,5.67.85,1.87-.27,4.24,1.39,5.58,1.1,1.75.31,4.22,2.13,5.35,1.31,1.55.93,4.2,2.85,5.04,1.53,1.42,1.45,4.01,3.51,4.65,1.72,1.21,1.96,3.79,4.09,4.16,1.88.99,2.45,3.5,4.64,3.62,1.98.74,2.92,3.16,5.09,3,2.03.47,3.33,2.77,5.42,2.31,2.1.22,3.67,2.33,5.73,1.63,2.12-.04,3.93,1.85,5.91.91,2.09-.31,4.13,1.35,5.96.16,2.01-.57,4.32.82,5.94-.59,1.94-.83,4.36.27,5.82-1.34,1.81-1.06,4.34-.27,5.57-2.05,1.49-1.04,3.44-1.05,4.79-2.01Zm-32.49-77.21c20.13-5.49,43.42,6.85,48.67,27.36-6.43-19.98-29.09-31.79-49.29-27.2,0,0,.21-.05.62-.15Zm11.12,79.88c-20.13,2.05-40.75-12.28-44.25-32.5,4.71,19.81,24.79,33.58,44.87,32.45,0,0-.21.02-.62.05Zm-9.96-3.14c-50.81-8.4-34.69-85.05,14.85-74.56,50.8,8.39,34.69,85.05-14.85,74.56Z"/><path class="cls-1" d="m87.96,46.43l-3.31-2.92-37.56,39.25,3.31,2.92,37.56-39.25Z"/><path class="cls-1" d="m156.61,21.67l-1.62-4.02-69.84,25.94,1.62,4.02,69.84-25.94Z"/><path class="cls-1" d="m187.13,85.46L151.69,6l-4.41,1.81,35.44,79.46,4.41-1.81Z"/><path class="cls-1" d="m92.25,93.55c-29.39-3.27-42.25.61-40.84-4.38,1.03-4.16,10.15-.01,40.39.36-.07,1.12.12,2.86.45,4.02Z"/><path class="cls-1" d="m185.9,92.14c-4.94.07-4.94-7.37,0-7.31,4.94-.07,4.93,7.37,0,7.31Zm0-5.01c-1.83-.02-1.83,2.73,0,2.7,1.83.02,1.83-2.73,0-2.7Z"/><path class="cls-1" d="m86.19,37.35l-5.27-14.98-3.41,1.1,5.27,14.98,3.41-1.1Z"/><path class="cls-1" d="m86.7,36.7c-1.82.19-4.62,2.71-5.96.86-.82-2.35,9.63-4.44,5.96-.86Z"/><path class="cls-1" d="m61.53,18.47c4.9,3.16,11.21,1.49,15.61-1.88-9.7-.54-15.56-6.55-17.22.74.5.41.97.75,1.61,1.13Z"/><path class="cls-1" d="m92.98,17.19c-4.02-2.6-8.71-.18-14.9-.55-4.98,4.51-13.13,6.33-18.17,1.01,3.86,12.11,13.95,6.37,24.62,3.07,8.19-.43,15.67,2.28,8.45-3.54Z"/><path class="cls-1" d="m157.17,5.65c3.11.04,3.11-4.65,0-4.61-3.11-.04-3.11,4.65,0,4.61Z"/><path class="cls-1" d="m161.65,2.58c.38-2.31-2.97-3.52-4.29-1.68,1.95-.13,3.24,2.21,2,3.7,1.15-.04,2.14-.88,2.29-2.01Z"/><path class="cls-1" d="m161.59,3.87c-.79,1.95-4.05,2.75-5.98,1.63-1.48,6.78,11.21,3.59,5.98-1.63Z"/><path class="cls-1" d="m156.73,6.07l-10.87,4.06,1.3,3.22,10.87-4.05-1.3-3.22Zm-9.85,4.39c0-.46.75-.46.74,0,0,.46-.75.46-.74,0Zm.97,1.85c-.48,0-.48-.72,0-.71.48,0,.48.72,0,.71Z"/><path class="cls-1" d="m114.48,98.2c-.8-.85.43-1.99,1.28-1.27.99.78-.47,2.17-1.28,1.27Zm.36-.3c.41.43,1.11-.23.64-.64-.42-.38-1.06.22-.64.64Z"/><path class="cls-1" d="m112.69,98.74c.51-.33,1.23-.88,1.68-1.31l.94.94c-.5.48-1.29,1.09-1.86,1.45l-.77-1.08Z"/><path class="cls-1" d="m117.66,93.83c-1.1-.4-.55-1.97.55-1.69,1.23.27.59,2.15-.55,1.69Zm.18-.42c.56.21.87-.7.28-.85-.56-.16-.84.65-.28.85Z"/><path class="cls-1" d="m116.07,96.57c-.95-.67.01-2.03.99-1.49,1.13.58-.02,2.22-.99,1.49Zm.29-.36c.49.34,1.04-.45.49-.75-.49-.29-.99.43-.49.75Z"/><path class="cls-1" d="m116.3,95.07c.11-.12.8-1.51.9-1.88l1.28.44c-.11.41-.89,1.96-1.01,2.1l-1.18-.65Z"/><path class="cls-1" d="m116.14,97.52c.05-.05.51-.61.61-.75-.48.15-1.04-.25-1.11-.73,0,0-.48.61-.49.6.48-.04,1.02.37.99.88Z"/><path class="cls-1" d="m111.89,100c-.57-1,.91-1.85,1.56-.95.75.99-.99,2-1.56.95Zm.42-.21c.3.51,1.13.02.78-.48-.32-.47-1.09-.02-.78.48Z"/><path class="cls-1" d="m111.56,100.9c.25-.11.63-.31.87-.43-.5-.05-.84-.64-.69-1.11-.05.03-.58.3-.72.36.46.15.78.73.54,1.19Z"/><path class="cls-1" d="m104.25,101.68c0-1.13,1.75-1.19,1.84-.06.11,1.19-1.87,1.25-1.84.06Zm.48.01c0,.59.96.56.92-.03-.03-.57-.93-.54-.92.03Z"/><path class="cls-1" d="m102.52,100.94c.64.07,1.57.12,2.2.11v1.3c-.63.01-1.66-.04-2.34-.11l.14-1.3Z"/><path class="cls-1" d="m109.76,100.88c-.39-1.08,1.21-1.68,1.7-.69.56,1.1-1.31,1.81-1.7.69Zm.45-.14c.2.54,1.12.19.85-.35-.24-.52-1.07-.2-.85.35Z"/><path class="cls-1" d="m106.57,101.58c-.15-1.12,1.56-1.4,1.81-.31.3,1.17-1.68,1.5-1.81.31Zm.47-.05c.09.59,1.04.42.91-.16-.11-.56-1-.41-.91.16Z"/><path class="cls-1" d="m107.88,100.73c.63-.12,1.51-.38,2.09-.6l.49,1.22c-.64.23-1.6.52-2.29.65l-.29-1.27Z"/><path class="cls-1" d="m105.93,102.29c.24-.01.73-.07.97-.1-.44-.23-.53-.91-.21-1.28-.22.02-.59.07-.81.08.38.31.44.96.05,1.29Z"/><path class="cls-1" d="m101.05,101.46c.12-1.13,1.96-.96,1.84.2-.1,1.16-1.99.96-1.84-.2Zm.47.07c-.08.58.86.68.92.1.07-.58-.86-.67-.92-.1Z"/><path class="cls-1" d="m118.84,92.52c.06-.22.17-.69.21-.91-.39.32-1.05.19-1.33-.22-.04.19-.12.58-.17.76.42-.24,1.09-.09,1.29.37Z"/><path class="cls-1" d="m92.93,100.68c.08-1.15,1.96-1.01,1.84.15-.08,1.15-1.95,1.01-1.84-.15Zm.47.05c-.06.58.88.65.92.07.06-.58-.88-.65-.92-.07Z"/><path class="cls-1" d="m91.19,99.9l2.28.18-.11,1.3-2.27-.18.11-1.3Z"/><path class="cls-1" d="m98.52,101.17c.1-1.15,1.98-.97,1.84.19-.11,1.14-1.97.97-1.84-.19Zm.47.06c-.07.58.86.66.92.09.07-.58-.87-.67-.92-.09Z"/><path class="cls-1" d="m95.26,100.88c.08-1.15,1.97-1,1.84.16-.09,1.15-1.96,1-1.84-.16Zm.47.05c-.06.58.87.65.92.08.06-.58-.88-.65-.92-.08Z"/><path class="cls-1" d="m96.78,100.37c.57.05,1.71.15,2.28.21l-.14,1.3c-.57-.06-1.7-.16-2.27-.21l.12-1.3Z"/><path class="cls-1" d="m94.5,101.46l.93.08c-.37-.32-.32-1,.09-1.29l-.85-.07c.34.37.25,1.02-.17,1.29Z"/><path class="cls-1" d="m89.74,100.47c.08-1.15,1.95-1.02,1.84.14-.07,1.15-1.95,1.01-1.84-.14Zm.47.05c-.06.58.88.64.92.07.06-.58-.88-.65-.92-.07Z"/><path class="cls-1" d="m88.98,101.06l.93.07c-.37-.32-.33-.99.08-1.29l-.85-.06c.34.36.25,1.02-.16,1.28Z"/><path class="cls-1" d="m81.84,99.74c.11-1.15,1.97-.96,1.83.19-.1,1.15-1.98.96-1.83-.19Zm.47.06c-.07.57.87.67.92.1.07-.58-.87-.67-.92-.1Z"/><path class="cls-1" d="m80.12,98.92l2.27.24-.14,1.3-2.27-.24.14-1.3Z"/><path class="cls-1" d="m87.42,100.26c.08-1.15,1.95-1.01,1.84.14-.07,1.15-1.96,1.01-1.84-.14Zm.47.05c-.06.58.88.65.92.07.06-.58-.88-.64-.92-.07Z"/><path class="cls-1" d="m84.16,99.99c.1-1.15,1.95-1,1.84.16-.08,1.15-1.97,1-1.84-.16Zm.47.06c-.06.58.88.65.92.08.06-.58-.87-.65-.92-.08Z"/><path class="cls-1" d="m85.68,99.48l2.27.18-.11,1.3-2.28-.18.12-1.3Z"/><path class="cls-1" d="m83.39,100.57s.93.1.93.09c-.37-.33-.3-1,.1-1.29,0,0-.84-.08-.84-.08.33.37.23,1.02-.19,1.28Z"/><path class="cls-1" d="m78.65,99.45c.11-1.15,1.98-.96,1.83.19-.11,1.15-1.98.96-1.83-.19Zm.47.06c-.07.58.86.67.92.1.07-.58-.86-.67-.92-.1Z"/><path class="cls-1" d="m100.05,102l.92.1c-.36-.33-.29-1.01.12-1.29l-.85-.09c.33.37.22,1.02-.2,1.28Z"/><path class="cls-1" d="m70.56,98.47c.14-1.14,2-.92,1.83.23-.13,1.15-2.01.92-1.83-.23Zm.47.07c-.09.58.85.69.92.11.08-.57-.85-.69-.92-.11Z"/><path class="cls-1" d="m68.86,97.61s2.26.29,2.26.29l-.18,1.29s-2.27-.29-2.27-.29l.19-1.29Z"/><path class="cls-1" d="m76.12,99.15c.12-1.14,1.97-.97,1.83.19-.11,1.16-1.99.95-1.83-.19Zm.47.07c-.08.58.87.67.92.1.07-.58-.86-.67-.92-.1Z"/><path class="cls-1" d="m72.87,98.77c.13-1.14,1.99-.93,1.83.22-.12,1.15-2,.94-1.83-.22Zm.47.07c-.08.58.86.68.92.11.08-.58-.85-.68-.92-.11Z"/><path class="cls-1" d="m74.4,98.32s2.26.26,2.26.25l-.15,1.29s-2.27-.25-2.27-.25l.16-1.29Z"/><path class="cls-1" d="m72.08,99.33l.93.11c-.36-.34-.28-1.01.14-1.29l-.84-.1c.32.38.2,1.03-.22,1.28Z"/><path class="cls-1" d="m67.37,98.1c.15-1.14,2.01-.9,1.83.24-.14,1.15-2.01.91-1.83-.24Zm.47.08c-.09.58.84.69.91.12.09-.57-.84-.69-.91-.12Z"/><path class="cls-1" d="m66.58,98.64l.93.13c-.35-.34-.26-1.01.16-1.29l-.84-.12c.31.38.18,1.03-.25,1.27Z"/><path class="cls-1" d="m59.55,96.87c.18-1.13,2.03-.85,1.82.3-.17,1.14-2.04.85-1.82-.3Zm.47.09c-.11.57.82.72.91.15.11-.57-.82-.72-.91-.15Z"/><path class="cls-1" d="m57.89,95.93c.37.07,2.08.36,2.24.38l-.23,1.29c-.17-.03-1.87-.32-2.25-.39l.25-1.28Z"/><path class="cls-1" d="m65.08,97.74c.16-1.14,2.01-.89,1.83.26-.15,1.14-2.02.89-1.83-.26Zm.47.08c-.1.58.84.7.91.13.09-.58-.84-.7-.91-.13Z"/><path class="cls-1" d="m61.85,97.25c.17-1.13,2.02-.87,1.82.28-.16,1.14-2.03.87-1.82-.28Zm.47.09c-.1.57.83.71.91.14.1-.57-.83-.71-.91-.14Z"/><path class="cls-1" d="m63.4,96.85s2.25.33,2.25.33l-.2,1.29s-2.26-.33-2.26-.33l.21-1.29Z"/><path class="cls-1" d="m61.04,97.78l.92.15c-.35-.35-.24-1.02.19-1.28l-.83-.13c.31.39.16,1.03-.27,1.27Z"/><path class="cls-1" d="m56.39,96.35c.2-1.13,2.04-.82,1.81.33-.19,1.14-2.06.82-1.81-.33Zm.47.1c-.12.57.81.73.91.16.12-.57-.81-.73-.91-.16Z"/><path class="cls-1" d="m77.65,99.99l.93.1c-.36-.33-.3-1,.11-1.29l-.84-.09c.33.37.23,1.02-.19,1.28Z"/><path class="cls-1" d="m48.44,94.58c.3-1.1,2.09-.68,1.79.45-.26,1.12-2.12.69-1.79-.45Zm.45.13c-.16.57.76.78.89.22.15-.57-.75-.77-.89-.22Z"/><path class="cls-1" d="m46.91,93.48c.54.16,1.6.45,2.17.6l-.35,1.26c-.58-.15-1.66-.44-2.22-.61l.4-1.24Z"/><path class="cls-1" d="m53.89,95.84c.22-1.12,2.05-.79,1.81.36-.21,1.13-2.07.79-1.81-.36Zm.46.11c-.13.57.8.74.9.18.12-.57-.8-.74-.9-.18Z"/><path class="cls-1" d="m50.7,95.15c.26-1.11,2.07-.73,1.8.4-.24,1.13-2.1.73-1.8-.4Zm.46.12c-.15.57.78.76.9.2.14-.57-.77-.76-.9-.2Z"/><path class="cls-1" d="m52.27,94.85c.37.09,2.06.43,2.22.46l-.27,1.28c-.17-.03-1.86-.38-2.24-.47l.3-1.27Z"/><path class="cls-1" d="m49.85,95.62s.91.22.91.22c-.32-.37-.15-1.03.28-1.26,0,0-.82-.19-.82-.19.27.42.07,1.05-.38,1.24Z"/><path class="cls-1" d="m45.37,93.71c.37-1.07,2.1-.56,1.76.55-.33,1.12-2.18.56-1.76-.55Zm.44.17c-.2.55.72.82.88.27.18-.56-.7-.81-.88-.27Z"/><path class="cls-1" d="m44.47,94.09c.17.06.82.28.9.31-.29-.41-.05-1.04.41-1.23-.06-.02-.65-.22-.78-.27.22.44-.05,1.05-.52,1.19Z"/><path class="cls-1" d="m40.11,88.73c1.09-.04,1.24.96.73,1.66l-.03-.15c-.16.15-.39.27-.61.27l-.03-.13s-.04.08-.04.12c-1.02-.06-1.1-1.74-.02-1.78Zm.04.45c-.63.09-.38,1.06.21.86.56-.16.35-.96-.21-.86Z"/><path class="cls-1" d="m40.89,87.16c-.15.57-.17,1.33-.07,1.93l-1.34.2c-.13-.75-.1-1.7.09-2.42l1.33.29Z"/><path class="cls-1" d="m43.22,92.85c.48-1,2.12-.41,1.7.68-.39,1.11-2.25.41-1.7-.68Zm.43.21c-.25.55.66.87.86.33.22-.55-.63-.85-.86-.33Z"/><path class="cls-1" d="m40.76,90.85c.88-.57,1.93.42,1.25,1.29-.78,1.02-2.39-.58-1.25-1.29Zm.26.38c-.5.39.23,1.1.63.64.39-.42-.2-.99-.63-.64Z"/><path class="cls-1" d="m42.15,91.43c.46.4,1.25.82,1.77,1.03l-.55,1.19c-.63-.25-1.57-.76-2.12-1.24l.89-.99Z"/><path class="cls-1" d="m39.81,90.49s.04.1.06.14c-.03-.07-.05-.16-.04-.23.06.37.3.71.51,1.01,0-.54.61-.82,1.09-.76-.12-.16-.22-.35-.32-.53l.06.27c0-.11-.04-.23-.09-.33-.02.03-.04.06-.06.08.02.08.03.17.02.25l-.05-.23c-.19.29-.59.51-.95.42l-.05-.2s0,.14,0,.18c-.06-.02-.13-.05-.19-.09Z"/><path class="cls-1" d="m40.71,85.75c.94.53.48,1.85-.59,1.67-1.34-.19-.56-2.35.59-1.67Zm-.24.4c-.57-.25-.91.72-.28.85.55.13.82-.63.28-.85Z"/><path class="cls-1" d="m55.34,96.82s.92.17.92.17c-.34-.36-.2-1.03.22-1.28,0,0-.83-.15-.83-.16.29.4.13,1.04-.31,1.26Z"/><path class="cls-1" d="m48,82.67c.23,1.13-1.55,1.48-1.8.37-.29-1.16,1.61-1.51,1.8-.37Zm-.47.07c-.11-.57-1.04-.38-.9.19.12.56,1.03.38.9-.19Z"/><path class="cls-1" d="m49.89,83s-2.22.38-2.22.39l-.27-1.28s2.27-.41,2.27-.4l.22,1.29Z"/><path class="cls-1" d="m42.65,84.2c.62,1.18-1.19,1.86-1.69.74-.37-.97,1.22-1.68,1.69-.74Zm-.42.21c-.21-.36-.81-.21-.85.19-.05.78,1.26.52.85-.19Z"/><path class="cls-1" d="m45.73,83.14c.3,1.11-1.39,1.57-1.76.51-.42-1.13,1.48-1.66,1.76-.51Zm-.46.1c-.15-.56-1.08-.31-.88.26.18.54,1.05.3.88-.26Z"/><path class="cls-1" d="m44.53,84.14c-.51.15-1.5.55-1.95.82l-.7-1.11c.52-.32,1.64-.78,2.22-.95l.43,1.24Z"/><path class="cls-1" d="m46.25,82.35c-.15.03-.86.21-.93.22.46.17.65.83.38,1.24.06-.02.67-.17.8-.19-.43-.24-.57-.89-.26-1.27Z"/><path class="cls-1" d="m51.16,82.12c.19,1.14-1.64,1.41-1.82.28-.22-1.15,1.67-1.42,1.82-.28Zm-.47.05c-.08-.57-1.02-.43-.91.14.09.57,1.01.43.91-.14Z"/><path class="cls-1" d="m51.76,81.38l-.93.13c.44.23.55.89.23,1.28l.83-.12c-.41-.28-.49-.93-.14-1.29Z"/><path class="cls-1" d="m59.03,81.19c.16,1.15-1.71,1.35-1.83.21-.16-1.15,1.71-1.36,1.83-.21Zm-.47.04c-.06-.57-1-.47-.92.1.06.57.99.47.92-.1Z"/><path class="cls-1" d="m60.9,81.62l-2.27.26-.16-1.29,2.27-.26.16,1.3Z"/><path class="cls-1" d="m53.46,81.83c.17,1.15-1.68,1.38-1.83.24-.19-1.15,1.69-1.39,1.83-.24Zm-.47.05c-.07-.57-1.01-.45-.91.12.07.57,1,.45.91-.12Z"/><path class="cls-1" d="m56.71,81.44c.16,1.15-1.7,1.36-1.83.22-.17-1.15,1.71-1.36,1.83-.22Zm-.47.04c-.06-.57-1-.47-.92.11.06.57,1,.47.92-.11Z"/><path class="cls-1" d="m55.34,82.24s-2.26.28-2.26.28l-.18-1.29s2.27-.29,2.27-.29l.17,1.29Z"/><path class="cls-1" d="m57.33,80.71l-.93.11c.43.24.53.91.2,1.28l.84-.1c-.4-.29-.46-.94-.11-1.29Z"/><path class="cls-1" d="m62.21,80.79c.15,1.15-1.72,1.35-1.83.2-.15-1.15,1.72-1.35,1.83-.2Zm-.47.04c-.06-.57-.99-.47-.92.1.06.57,1,.47.92-.1Z"/><path class="cls-1" d="m40.84,84.59c-.25.22-.52.54-.7.82.5-.22,1.02.2,1.16.67.11-.16.3-.38.44-.52-.46-.03-1.01-.44-.9-.96Z"/><path class="cls-1" d="m70.32,79.91c.16,1.15-1.71,1.36-1.83.21-.16-1.15,1.71-1.35,1.83-.21Zm-.47.04c-.06-.57-1-.47-.92.11.06.57,1,.47.92-.11Z"/><path class="cls-1" d="m72.03,79.04l-2.27.27.16,1.29,2.27-.27-.16-1.29Z"/><path class="cls-1" d="m64.75,80.53c.15,1.15-1.72,1.35-1.83.21-.15-1.15,1.72-1.35,1.83-.21Zm-.47.04c-.06-.57-.99-.47-.92.1.06.57,1,.47.92-.1Z"/><path class="cls-1" d="m68,80.16c.16,1.15-1.71,1.35-1.83.21-.16-1.15,1.71-1.35,1.83-.21Zm-.48.04c-.06-.57-.99-.47-.92.1.06.57,1,.47.92-.1Z"/><path class="cls-1" d="m66.46,79.67l-2.27.25.16,1.29,2.27-.25-.16-1.29Z"/><path class="cls-1" d="m68.62,79.44l-.93.11c.43.24.53.91.19,1.28l.84-.09c-.4-.29-.46-.94-.11-1.29Z"/><path class="cls-1" d="m73.49,79.5c.16,1.15-1.71,1.36-1.83.21-.16-1.15,1.71-1.36,1.83-.21Zm-.47.04c-.06-.57-1-.47-.92.11.06.57,1,.47.92-.11Z"/><path class="cls-1" d="m74.11,78.77l-.93.11c.43.24.53.91.2,1.28l.84-.1c-.4-.28-.46-.94-.11-1.29Z"/><path class="cls-1" d="m81.37,78.59c.17,1.15-1.7,1.37-1.83.23-.17-1.15,1.7-1.37,1.83-.23Zm-.47.05c-.07-.57-1-.46-.92.11.07.57,1,.46.92-.11Z"/><path class="cls-1" d="m83.24,78.99l-2.27.29-.18-1.29,2.26-.29.18,1.29Z"/><path class="cls-1" d="m75.8,79.25c.16,1.15-1.71,1.36-1.83.22-.16-1.15,1.71-1.36,1.83-.22Zm-.47.04c-.06-.57-1-.47-.92.11.06.57,1,.47.92-.11Z"/><path class="cls-1" d="m79.05,78.86c.17,1.15-1.7,1.37-1.83.22-.16-1.15,1.7-1.36,1.83-.22Zm-.47.04c-.06-.57-1-.47-.92.11.06.57,1,.47.92-.11Z"/><path class="cls-1" d="m77.68,79.67l-2.27.27-.17-1.29,2.26-.27.17,1.29Z"/><path class="cls-1" d="m79.66,78.14l-.93.11c.43.24.53.91.2,1.28l.84-.1c-.41-.28-.47-.94-.12-1.29Z"/><path class="cls-1" d="m84.54,78.14c.18,1.15-1.69,1.38-1.83.24-.17-1.15,1.69-1.38,1.83-.24Zm-.47.05c-.07-.57-1-.46-.91.12.07.57,1,.46.91-.12Z"/><path class="cls-1" d="m63.06,80.04l-.93.1c.43.24.52.91.19,1.28l.84-.09c-.4-.29-.46-.95-.1-1.29Z"/><path class="cls-1" d="m92.65,77.29c.16,1.15-1.73,1.35-1.84.2-.14-1.15,1.72-1.34,1.84-.2Zm-.48.04c-.06-.57-.99-.48-.92.1.05.57.99.48.92-.1Z"/><path class="cls-1" d="m94.53,77.71c-.38.05-2.12.25-2.28.27l-.15-1.29c.17-.02,1.87-.21,2.25-.26l.18,1.29Z"/><path class="cls-1" d="m87.07,77.87c.15,1.15-1.69,1.36-1.83.21-.16-1.16,1.72-1.36,1.83-.21Zm-.47.04c-.06-.57-1-.47-.92.11.06.57.99.47.92-.11Z"/><path class="cls-1" d="m90.33,77.53c.14,1.15-1.73,1.34-1.84.19-.15-1.15,1.73-1.34,1.84-.19Zm-.48.03c-.05-.57-.99-.48-.92.1.05.57.99.48.92-.1Z"/><path class="cls-1" d="m88.94,78.31s-2.26.24-2.26.24l-.16-1.29s2.28-.25,2.28-.24l.15,1.3Z"/><path class="cls-1" d="m90.96,76.81l-.93.1c.42.25.51.92.17,1.28l.84-.09c-.4-.29-.45-.95-.09-1.29Z"/><path class="cls-1" d="m95.82,76.85c.2,1.16-1.7,1.39-1.83.24-.16-1.15,1.67-1.38,1.83-.24Zm-.47.05c-.07-.57-1-.46-.91.12.07.57,1.01.45.91-.12Z"/><path class="cls-1" d="m96.41,76.11s-.91.14-.91.13c.43.23.55.9.23,1.28,0,0,.85-.12.85-.12-.42-.27-.49-.93-.16-1.29Z"/><path class="cls-1" d="m103.65,75.73c.03,1.13-1.7,1.25-1.84.13-.16-1.19,1.82-1.33,1.84-.13Zm-.48,0c-.02-.58-.99-.52-.92.07.06.57.95.5.92-.07Z"/><path class="cls-1" d="m105.41,76.41c-.58-.04-1.62-.07-2.21-.04l-.07-1.3c.62-.04,1.73,0,2.35.04l-.08,1.3Z"/><path class="cls-1" d="m98.12,76.51c.24,1.15-1.66,1.45-1.82.3-.2-1.14,1.62-1.43,1.82-.3Zm-.47.07c-.09-.56-1.01-.42-.91.15.08.57,1.03.42.91-.15Z"/><path class="cls-1" d="m101.33,75.91c.2,1.14-1.59,1.44-1.81.33-.27-1.14,1.64-1.49,1.81-.33Zm-.47.06c-.09-.57-1.04-.41-.91.17.11.56,1.02.4.91-.17Z"/><path class="cls-1" d="m100.02,76.79c-.17.03-1.87.37-2.25.43l-.24-1.28c.38-.06,2.07-.39,2.22-.42l.27,1.28Z"/><path class="cls-1" d="m101.95,75.18s-.96.13-.96.13c.45.22.56.89.25,1.27.2-.03.61-.09.81-.11-.39-.29-.47-.94-.11-1.29Z"/><path class="cls-1" d="m106.85,75.86c-.13,1.12-1.9.99-1.84-.15.05-1.18,2-1.03,1.84.15Zm-.47-.07c.07-.58-.9-.65-.92-.07-.04.57.87.64.92.07Z"/><path class="cls-1" d="m85.38,77.38l-.93.12c.43.23.54.9.21,1.28l.84-.11c-.4-.28-.47-.94-.12-1.29Z"/><path class="cls-1" d="m114.18,79.02c-.73.82-2.12-.14-1.46-1.08.67-1,2.31.17,1.46,1.08Zm-.35-.31c.4-.46-.39-1.02-.73-.54-.35.47.36.98.73.54Z"/><path class="cls-1" d="m114.93,80.67c-.38-.43-1.08-1.1-1.54-1.46l.87-1c.55.44,1.24,1.09,1.7,1.61l-1.03.85Z"/><path class="cls-1" d="m109.34,76.39c-.32,1.06-2,.71-1.79-.41.2-1.18,2.17-.75,1.79.41Zm-.45-.14c.17-.57-.79-.77-.9-.2-.12.57.75.75.9.2Z"/><path class="cls-1" d="m112.32,77.68c-.57.95-2.11.22-1.64-.82.47-1.1,2.3-.23,1.64.82Zm-.4-.25c.3-.51-.57-.94-.82-.4-.25.52.55.9.82.4Z"/><path class="cls-1" d="m110.75,77.59c-.61-.28-1.38-.54-2.04-.71l.35-1.26c.72.18,1.57.47,2.25.78l-.57,1.18Z"/><path class="cls-1" d="m113.29,77.51c-.13-.1-.77-.48-.83-.51.21.46-.19,1.02-.66,1.13.05.03.57.33.68.41-.09-.48.3-1.02.81-1.04Z"/><path class="cls-1" d="m116.33,81.29c-.91.65-2.04-.61-1.16-1.38.88-.82,2.2.67,1.16,1.38Zm-.27-.38c.5-.36-.14-1.08-.58-.69-.46.38.13,1.04.58.69Z"/><path class="cls-1" d="m117.3,81.5c-.13-.2-.41-.59-.55-.78,0,.5-.59.87-1.07.79.12.15.35.48.46.64.11-.48.69-.82,1.17-.65Z"/><path class="cls-1" d="m118.69,88.43c-1.15.03-1.29-1.62-.14-1.76,1.23-.2,1.39,1.78.14,1.76Zm0-.46c.61-.02.53-.96-.07-.88-.59.05-.51.92.07.88Z"/><path class="cls-1" d="m117.92,90.07c.09-.61.13-1.48.1-2.08l1.36-.05c.04.66,0,1.62-.11,2.3l-1.35-.17Z"/><path class="cls-1" d="m117.48,83.22c-1.01.5-1.9-.93-.9-1.54,1.01-.67,2.05,1.02.9,1.54Zm-.2-.42c.56-.27.05-1.09-.45-.77-.51.3-.06,1.04.45.77Z"/><path class="cls-1" d="m118.49,86.2c-1.12.23-1.58-1.36-.47-1.71,1.17-.41,1.71,1.5.47,1.71Zm-.08-.45c.61-.12.34-1.04-.24-.86-.57.16-.33,1,.24.86Z"/><path class="cls-1" d="m117.5,85.03c-.02-.17-.61-1.6-.82-1.92l1.21-.6c.23.35.89,1.95.91,2.13l-1.3.39Z"/><path class="cls-1" d="m119.27,86.79c-.03-.26-.11-.69-.17-.93-.21.45-.91.56-1.31.29.05.2.11.55.14.76.3-.38.98-.47,1.34-.12Z"/><path class="cls-1" d="m118.38,91.48c-1.14-.21-.86-1.89.29-1.75,1.25.1.9,2.03-.29,1.75Zm.11-.44c.59.12.76-.81.15-.88-.57-.08-.74.77-.15.88Z"/><path class="cls-1" d="m107.9,75.36c-.24-.05-.72-.12-.96-.15.37.34.26,1.01-.14,1.29.2.02.61.09.81.12-.29-.39-.16-1.04.3-1.26Z"/><path class="cls-1" d="m104.24,109.99c-.15-1.1,2.78-18.46,1.27-18.71-3.5-3.36-6.2,27.7-1.27,18.71Zm-1.89.99c-1.15-.48-.34-2.17.77-1.68,1.15.48.34,2.17-.77,1.68Z"/><path class="cls-1" d="m109.17,106.57h-12.87c-5.89,8.03,9.46,4.56,12.88,5.29,1.35.13,1.31-5.43,0-5.29Zm-8.24,4.19c-.09.56-4.43.56-4.52,0-.8-1.61,5.32-1.62,4.52,0Zm1.82.13c-1.24.01-1.24-1.55,0-1.54,1.23-.01,1.24,1.56,0,1.54Zm6.26-.14c-.09.56-4.42.56-4.52,0-.8-1.61,5.32-1.62,4.52,0Zm.16-2.25c-.37.15-13.67,1.64-12.77-.69.45-.18,13.62-1.63,12.77.69Z"/><path class="cls-1" d="m106.18,67.04c.15,1.1-2.78,18.46-1.27,18.71,3.5,3.36,6.2-27.71,1.27-18.71Zm1.89-.99c1.15.48.34,2.17-.77,1.68-1.15-.48-.34-2.17.77-1.68Z"/><path class="cls-1" d="m101.25,70.44h12.87c5.91-8.01-9.45-4.55-12.87-5.29-1.35-.13-1.32,5.42,0,5.29Zm8.24-4.18c.09-.56,4.43-.56,4.52,0,.8,1.61-5.32,1.61-4.52,0Zm-1.82-.13c1.24-.01,1.24,1.56,0,1.54-1.24.01-1.24-1.56,0-1.54Zm-6.26.13c.09-.56,4.43-.56,4.52,0,.8,1.61-5.32,1.61-4.52,0Zm-.17,2.24c.38-.15,13.67-1.62,12.77.71-.36.15-13.68,1.63-12.77-.71Z"/><path class="cls-1" d="m158.1,17.04c-1.07,0-2.13-.27-3.07-.78l.36-.6c5.69,3.31,11.08-4.89,5.45-8.47l.4-.57c4.89,2.92,2.58,10.71-3.13,10.42Z"/><path class="cls-1" d="m157.27,16.38c-1.19,0-2.33-.38-3.26-1.11l.45-.54c4.53,3.68,10.28-3.49,5.17-6.77l.4-.57c4.22,2.51,2.14,9.24-2.75,8.99Z"/><path class="cls-1" d="m153.11,17.88l-.26-.64-67.08,24.72.26.64,67.08-24.72Z"/><path class="cls-1" d="m72.83,53.42l-.69-.18c2.04-10.88,7.74-4.77,12.45-11.18l.6.38c-4.57,6.76-10.36.32-12.35,10.98Z"/><path class="cls-1" d="m169.12,47.5l-.71-.13c2.9-14.37.26-29.44-7.29-42.05l.62-.34c7.63,12.75,10.3,27.99,7.37,42.52Z"/><path class="cls-1" d="m46.22,82.31c-8.32-.11-8.32,12.42,0,12.31,8.32.11,8.32-12.42,0-12.31Zm3.81,6.18s0,.08,0,.12c.87.52.74,1-.24,1.16-.03.08-.06.16-.1.24.58.8.31,1.2-.68.98-.06.06-.12.12-.19.18.23.98-.23,1.2-1.02.66-.08.04-.16.07-.25.1-.17.94-.65,1.08-1.21.23-.09,0-.18,0-.27,0-.52.81-1.04.74-1.21-.23-.08-.03-.17-.06-.25-.1-.78.52-1.26.36-1.03-.66-.07-.06-.13-.12-.19-.18-.94.21-1.29-.17-.69-.98-.04-.08-.07-.16-.1-.24-.95-.17-1.14-.61-.24-1.16,0-.09,0-.17,0-.26-.87-.52-.74-1,.24-1.16.03-.08.06-.16.1-.24-.58-.8-.31-1.19.68-.98.06-.06.12-.12.19-.18-.23-.98.23-1.2,1.02-.66.08-.04.16-.07.25-.1.18-.94.65-1.07,1.21-.23.09,0,.18,0,.27,0,.53-.81,1.04-.74,1.21.23.08.03.17.06.25.1.77-.52,1.26-.36,1.03.66.07.06.13.12.19.18.94-.21,1.29.16.69.98.04.08.07.16.1.24.95.16,1.14.61.24,1.16,0,.04,0,.09,0,.13Z"/><path class="cls-1" d="m73.41,63.72l-.23-.2.23.2Z"/><path class="cls-1" d="m81.81,78.13l-.06-.28.06.28Z"/><path class="cls-1" d="m57.43,54.25c-.19-.04-.71-.16-.91-.2.2.05.72.16.91.2Z"/><path class="cls-1" d="m49.64,83.6l1.05-4.31-3.22,3.23.58,1.39,1.59-.31Z"/><path class="cls-1" d="m40.85,89.4l.14.03.05-.23-.19.2Z"/><path class="cls-1" d="m44.8,51.16c-50.7.87-48.13,77.11,2.4,74.91,50.7-.87,48.13-77.11-2.4-74.91Zm29.1,62.68c-32.31,34.91-90.77-14.99-55.84-50.42,32.3-34.91,90.77,14.99,55.84,50.42Z"/><path class="cls-1" d="m44.82,52.22c-49.29.84-46.79,74.97,2.33,72.83,49.29-.84,46.79-74.97-2.33-72.83Zm38.09,35.26c.06,2-.04,3.96-.31,5.88l.14.03c-.52,1.59-.68,3.29-1.21,4.86l.22.05c-.08.33-.21.84-.29,1.17l-.29-.07c-1.4,4.17-3.58,8.02-6.38,11.36l.23.23c-.25.23-.64.61-.89.84l-.14-.14c-.69.77-1.41,1.5-2.17,2.21l.27.25c-.24.25-.62.63-.86.87l-.32-.29c-3.32,2.91-7.19,5.24-11.46,6.84l.18.61c-.34.09-.87.23-1.21.32l-.15-.51c-1.13.38-2.29.71-3.47.99l.03.09c-.33.1-.86.26-1.19.36l-.06-.18c-4.45.9-9.36.98-13.82.24l-.09.34c-.34-.08-.88-.21-1.21-.29l.07-.28c-1.27-.25-2.52-.57-3.75-.94l-.02.1c-.34-.07-.88-.18-1.22-.25l.05-.24c-4.12-1.42-7.91-3.52-11.22-6.18l-.47.46c-.25-.24-.64-.6-.89-.84l.42-.41c-.81-.69-1.58-1.42-2.33-2.19l-.08.08c-.26-.23-.67-.58-.93-.81l.15-.16c-3-3.28-5.37-7.11-6.95-11.3l-.49.12c-.08-.32-.22-.84-.31-1.17l.38-.09c-.42-1.25-.77-2.52-1.04-3.83l-.35.1c-.1-.33-.25-.83-.35-1.15l.47-.13c-.62-3.53-.67-7.34-.15-10.87l-.73-.16c.08-.33.2-.84.27-1.17l.65.14c.21-1.12.47-2.22.78-3.31l-.2-.04c.07-.33.17-.85.23-1.18l.33.06c1.47-4.49,3.85-8.6,6.94-12.14l-.4-.39c.25-.23.65-.6.9-.84l.32.32c.81-.86,1.66-1.69,2.55-2.47l-.31-.29c.25-.24.63-.62.87-.87l.39.36c2.41-1.97,5.08-3.66,7.97-4.99l-.08-.2c.33-.11.85-.29,1.18-.41l.04.11c1.2-.51,2.44-.96,3.7-1.34l-.18-.42c.32-.12.84-.32,1.16-.45l.22.53c4.8-1.31,10.26-1.65,15.23-.94l.1-.36c.34.09.87.23,1.21.32l-.07.24c1.31.22,2.6.52,3.86.87l.12-.51c.34.08.88.2,1.22.27l-.14.59c3.9,1.24,7.51,3.08,10.72,5.42l.36-.36.23.2h0c.14.13.53.49.68.62h0s0,0,0,0l-.27.27c1.03.8,2.01,1.66,2.94,2.56h0l.47-.51c.26.23.67.58.93.8l-.54.58c3.45,3.58,6.14,7.84,7.83,12.57l.63-.12c.04.19.15.69.19.88h0l.08.31v-.02s-.5.1-.51.1c.38,1.21.7,2.45.95,3.71l.75-.18c.08.33.21.84.3,1.17l-.84.2c.23,1.42.37,2.88.42,4.36Z"/><path class="cls-1" d="m46.19,86.5c-2.66-.04-2.65,3.96,0,3.93,2.65.04,2.65-3.96,0-3.93Zm.28,2.98l-1.07-.29-.27-1.03.8-.74,1.07.29.27,1.03-.8.74Z"/><path class="cls-1" d="m80.27,92.71l-.08.3-19.47-5.12,20.07-4.7.07.29c.55-.13,1.92-.45,2.45-.57-.08-.32-.21-.84-.3-1.17-.49.11-1.95.46-2.45.58l.07.29c-5.07.98-23.06,6.83-27.78,3.22l2.58-2.78,23.83-4.73.06.29c.39-.07,2.15-.45,2.49-.5v.02c-.07-.33-.2-.85-.27-1.19-.42.08-2.03.4-2.48.49l.06.29-23.01,4.57,15.58-16.77.23.2c.36-.39,1.33-1.43,1.68-1.81-.26-.22-.67-.57-.93-.8-.31.33-1.35,1.46-1.68,1.81l.23.2-16.15,17.37-4.8.95,1.22-5.02,16.06-16.1.23.21c.2-.2,1.58-1.59,1.75-1.75-.15-.14-.53-.49-.68-.63h0l-.23-.2c-.23.23-1.49,1.49-1.75,1.75l.23.21-15.33,15.36,5.04-20.68.3.07c.1-.43.48-1.96.58-2.36-.34-.08-.88-.2-1.22-.27-.08.33-.49,2-.58,2.36l.3.07-5.28,21.67-3.76,3.77-1.78-4.26,6.21-21.95.3.08c.04-.15.64-2.25.66-2.34-.34-.09-.87-.23-1.21-.32-.06.2-.59,2.09-.66,2.34l.3.08-5.99,21.18-8.55-20.47.29-.11c-.16-.39-.79-1.89-.94-2.25-.32.12-.84.32-1.16.45.11.27.81,1.95.94,2.25l.29-.11,8.86,21.2-1.2,4.23c-5.07-1.84-10.07-19.18-11.89-23.53l.29-.1c-.04-.1-.82-2.19-.86-2.28-.33.11-.85.29-1.18.41,0,0,.83,2.2.86,2.28l.29-.1,6.78,18.06-14.61-13.5.22-.22c-.29-.26-1.56-1.44-1.82-1.68-.24.24-.62.62-.87.87.19.17,1.6,1.48,1.82,1.68l.22-.22c3.2,3.26,17.88,14.79,17.64,19.98l-4.29-.77-16.41-16.28.22-.21c-.24-.24-1.55-1.54-1.76-1.74-.25.23-.65.6-.9.84.26.26,1.47,1.46,1.76,1.74l.22-.21,15.8,15.67-22.23-4,.06-.29c-.23-.04-2.32-.42-2.48-.45-.07.33-.16.85-.23,1.18,0,0,2.4.43,2.48.45l.06-.29,23.1,4.15,3.23,3.2c-3.31,3.12-23.86-2.95-27.7-3.48l.07-.29c-.47-.1-2.03-.43-2.46-.53-.08.33-.2.84-.27,1.17.47.1,1.97.42,2.46.53l.07-.29,21.56,4.64-21.17,5.89-.09-.29c-.35.1-2.12.59-2.43.68.1.32.25.83.35,1.15.17-.05,2.2-.61,2.43-.68l-.09-.29c4.27-.89,23.85-8.07,27.84-5l-3.75,3.95-22.91,5.54-.08-.29c-.28.07-2.22.54-2.45.59.08.32.22.84.31,1.17.31-.07,2.1-.51,2.45-.59l-.08-.29,21.99-5.32-15.15,15.96-.23-.2c-.08.08-1.68,1.77-1.7,1.79.26.23.67.58.93.81.07-.07,1.63-1.72,1.7-1.79l-.23-.2,15.79-16.63,3.89-.94-1.03,4.72-16.14,15.84-.22-.21c-.3.3-1.49,1.46-1.77,1.73.25.23.64.6.89.84.31-.3,1.44-1.41,1.77-1.73l-.22-.21,15.45-15.16-4.53,20.74-.31-.06c-.03.14-.5,2.3-.52,2.37.35.07.88.18,1.22.25.02-.09.5-2.28.52-2.38l-.31-.06,4.73-21.67,4.48-4.4,1.25,3.76-6.07,23.58-.3-.07c-.04.17-.58,2.25-.61,2.35.34.08.88.21,1.21.29.04-.18.55-2.12.61-2.35l-.3-.07,5.83-22.63,7.38,22.26-.3.09c.03.1.75,2.26.77,2.31.33-.1.86-.26,1.19-.36-.04-.1-.73-2.21-.77-2.31l-.3.09-7.69-23.19,1.16-4.51c.12-.03.23-.06.34-.09l3.51,3.2,6.94,23.84-.3.08c.11.38.58,1.99.68,2.33.34-.09.87-.23,1.21-.32-.12-.4-.56-1.91-.68-2.34l-.3.08-6.66-22.87,17.63,16.08-.22.22c.24.21,1.63,1.49,1.83,1.67.24-.24.62-.63.86-.87-.14-.13-1.65-1.5-1.83-1.67l-.22.22-18.39-16.77-1.11-3.8,5.07,1.15,16.96,16.61-.22.21c.08.08,1.73,1.7,1.77,1.73.25-.23.65-.61.89-.84-.1-.1-1.62-1.59-1.77-1.73l-.22.21-16.27-15.93,22.32,5.07-.07.29c.18.04,2.35.53,2.46.56.08-.33.21-.84.29-1.17,0,0-2.37-.54-2.46-.56l-.07.29-23.28-5.29-3.06-2.99c4.7-3.45,22.25,2.76,27.16,3.87l-.08.29,2.44.64c.1-.36.24-.81.36-1.16l-.14-.09s-2.32-.58-2.32-.58Zm-25.85-9.46l-2.22,2.4-2.27-.6.23-.95,4.26-.85Zm-2.69,2.89l-.92.99c-.16-.51-.41-.99-.73-1.42l1.64.43Zm-1.04-6.86l-1.05,4.31-1.59.31-.58-1.39,3.22-3.23Zm-1.21,4.95l-.16.66c-.24-.16-.46-.35-.72-.48l.88-.17Zm-2.11-.34c-.36-.09-.73-.15-1.12-.17l.74-.74.38.91Zm-2.21-5.29l1.58,3.77-1.28,1.28-1.37-1.27,1.07-3.78Zm-1.26,4.44l.9.83c-.3.07-.59.17-.86.3l-.34-.06.3-1.07Zm-.51-.47l-.4,1.43-1.8-.32-1.81-4.82,4.02,3.71Zm-1.95,7.73c.29.68.73,1.27,1.29,1.75l-1.76.43.48-2.18Zm-.59-.91l.19-.2-.05.23-.14-.03Zm.29-1.69l-.87-.87,1.27-.35c-.19.38-.32.79-.4,1.22Zm.28-3.37l1.39.25-.11.37c-.27.23-.51.49-.72.78h-.04s-.53-1.4-.53-1.4Zm-4.5-.81l3.78.68.64,1.71-1.58.44-2.85-2.82Zm-1.59,4.68l4.25-1.18,1.37,1.36-.81.86-4.81-1.03Zm1.68,5.23l3.35-3.53.5.11-.57,2.63-3.27.79Zm2.91,3.78l.89-4.08,2.54-.61c.14.08.28.16.43.23l.17.51-4.03,3.95Zm5.78-.66l-1.04-3.13.27-.27c.51.11,1.08.15,1.61.09l-.85,3.31Zm4.22-9.34c.96.25.87.61.1,1.14,0,.08,0,.17,0,.26.87.52.74,1-.24,1.16-.03.08-.06.16-.1.24.58.8.31,1.2-.68.98-.06.06-.12.12-.19.18.23.98-.23,1.2-1.02.66-.08.03-.16.07-.25.1-.17.94-.65,1.08-1.21.23-.09,0-.18,0-.27,0-.52.81-1.04.74-1.21-.23-.08-.03-.17-.06-.25-.1-.78.52-1.26.36-1.03-.66-.07-.06-.13-.12-.19-.18-.94.21-1.29-.17-.69-.98-.04-.08-.07-.16-.1-.24-.95-.17-1.14-.61-.24-1.16,0-.09,0-.17,0-.26-.87-.52-.74-1,.24-1.16.03-.08.06-.16.1-.24-.58-.8-.31-1.19.68-.98.06-.06.12-.12.19-.18-.23-.98.23-1.2,1.02-.66.08-.04.16-.07.25-.1.18-.94.65-1.07,1.21-.23.09,0,.18,0,.27,0,.53-.81,1.04-.74,1.21.23.08.03.17.06.25.1.77-.52,1.26-.36,1.03.66.07.06.13.12.19.18,1.8-.38.34.71.93,1.24Zm.83,7.91l-2.54-2.32c.5-.23.94-.53,1.33-.9l.3.07.92,3.15Zm-.42-3.66l-.11-.38c.18-.26.33-.54.45-.83l1.48-.35,2.62,2.57-4.44-1.01Zm.55-1.88c.06-.26.1-.53.12-.8l.64.62-.76.18Zm1.46-.34l-1.38-1.35s0-.02,0-.03l1.43-1.53,5.83,1.54-5.88,1.38Z"/><path class="cls-1" d="m46.05,87.85l-.46.43.15.59.61.17.46-.43-.15-.6-.61-.17Z"/><path class="cls-1" d="m91.77,91.03c.64-.7.31-1.66-.15-2.31-.51-1.99,1.02-4.09-.36-5.7-.77-1.92.46-4.2-1.13-5.62-1.03-1.81-.11-4.22-1.9-5.45-1.26-1.65-.7-4.18-2.62-5.15-1.46-1.46-1.29-4.09-3.3-4.77-1.65-1.27-1.82-3.88-3.92-4.32-1.81-1.06-2.32-3.61-4.48-3.8-1.94-.82-2.77-3.28-4.94-3.2-2-.55-3.22-2.92-5.31-2.55-2.09-.3-3.57-2.48-5.66-1.87-2.11-.04-3.84-2-5.84-1.13-2.06.23-4.14-1.5-5.95-.39-2.07.49-4.24-.98-5.97.35-1.99.75-4.32-.46-5.85,1.09-1.89,1-4.33.08-5.67,1.82-1.72,1.22-4.28.64-5.36,2.52-1.52,1.41-4.18,1.18-4.94,3.15-1.33,1.61-3.98,1.68-4.51,3.77-1.11,1.76-3.71,2.17-3.96,4.3-.86,1.89-3.39,2.6-3.33,4.74-.59,1.95-3.03,3.07-2.66,5.13-.32,2.03-2.58,3.4-1.94,5.43-.04,2.06-2.09,3.69-1.18,5.61.24,2-1.57,4-.4,5.72.5,1.99-1.02,4.09.36,5.7.77,1.92-.46,4.2,1.13,5.62,1.03,1.82.11,4.22,1.9,5.45,1.26,1.66.7,4.18,2.62,5.15,1.46,1.45,1.29,4.09,3.3,4.77,1.65,1.27,1.82,3.88,3.92,4.33,1.81,1.06,2.32,3.61,4.48,3.8,1.94.82,2.77,3.27,4.94,3.2,2,.55,3.22,2.92,5.31,2.54,2.08.3,3.57,2.48,5.66,1.87,2.11.04,3.84,2,5.84,1.14,2.06-.23,4.14,1.5,5.95.39,2.07-.49,4.25.98,5.97-.35,1.99-.75,4.32.46,5.85-1.09,1.89-1,4.34-.08,5.67-1.82,1.72-1.22,4.28-.64,5.36-2.52,1.52-1.41,4.18-1.18,4.94-3.15,1.33-1.61,3.98-1.69,4.51-3.77,1.11-1.77,3.71-2.17,3.96-4.31.86-1.88,3.38-2.6,3.33-4.74.59-1.95,3.03-3.07,2.66-5.13.32-2.03,2.58-3.4,1.94-5.43.05-2.05,2.09-3.69,1.18-5.61.29-1.11-.01-2.42.55-3.4ZM6.7,74.42c6.39-20.2,30.31-31.3,50.15-24.79-20.04-5.33-43.13,5.65-50.34,25.37,0,0,.07-.2.2-.58Zm76.2,33.81c-9.56,18.22-33.45,26.15-52.3,18.44,19.17,6.55,42.27-1.35,52.59-18.97,0,0-.1.18-.29.53Zm-8.1,6.39c-33.32,36.02-93.63-15.47-57.6-52,33.32-36.01,93.63,15.47,57.6,52Z"/><path class="cls-1" d="m105.21,90.6c2.81.04,2.81-4.19,0-4.15-2.81-.04-2.81,4.19,0,4.15Z"/><path class="cls-1" d="m115.56,90.72h0s0,0,0,0Z"/><path class="cls-1" d="m118.5,89.64c-.18-.11-.96-.78-.95-.72,0-.11,0-.22,0-.33,1.29-.71,1.16-1-.1-1.52-.01-.11-.03-.22-.05-.33,1.18-.91.96-1.16-.35-1.49-.03-.1-.07-.21-.1-.31,1.11-1.12.58-1.3-.59-1.42-.05-.1-.1-.2-.15-.3.88-1.13.32-1.44-.81-1.31-.06-.09-.13-.18-.2-.27.71-1.4.12-1.41-1.01-1.18-.08-.08-.16-.16-.24-.24.4-1.28.06-1.53-1.19-1.01-.09-.07-.18-.13-.27-.2.22-1.53-.35-1.38-1.34-.82-.1-.05-.2-.1-.3-.15.01-1.35-.56-1.41-1.46-.61-.11-.04-.21-.08-.32-.11-.22-1.36-.77-1.29-1.54-.38-.11-.02-.23-.04-.34-.06-.42-1.31-1.02-1.13-1.58-.15-.11,0-.23,0-.34,0-.72-1.23-1.05-1.12-1.59.1-.11.01-.23.03-.34.05-.91-1.09-1.21-.97-1.55.33-.11.03-.22.06-.33.1-1.1-1.01-1.37-.63-1.48.56-.1.05-.21.1-.31.14-1.09-.79-1.52-.4-1.37.77-.09.06-.19.13-.28.19-1.35-.62-1.52-.22-1.22.97-.08.08-.17.15-.25.23-1.23-.34-1.65-.15-1.05,1.14-.07.09-.14.18-.21.26-1.5-.19-1.51.24-.85,1.29-.06.1-.11.19-.16.29-1.32,0-1.53.47-.63,1.4-.04.1-.08.21-.11.31-1.36.21-1.4.7-.4,1.48-.02.11-.04.22-.06.33-1.35.4-1.2.96-.15,1.52,0,.11,0,.22,0,.33-1.3.71-1.15,1,.1,1.52.01.11.03.22.05.32-1.18.91-.96,1.16.35,1.49.03.11.07.21.1.32-1.11,1.12-.58,1.3.59,1.42.05.1.1.2.15.3-.88,1.13-.32,1.44.81,1.31.06.09.13.18.2.27-.71,1.39-.12,1.42,1.01,1.18.08.08.16.16.24.24-.4,1.27-.06,1.53,1.19,1.01.09.07.18.13.27.2-.22,1.53.34,1.38,1.34.82.1.05.2.1.3.15,0,1.35.56,1.4,1.46.6.11.04.22.07.33.11.22,1.36.77,1.3,1.54.38.11.02.22.04.34.06.41,1.31,1.02,1.13,1.58.15.11,0,.23,0,.34,0,.72,1.23,1.05,1.12,1.59-.1.11-.01.23-.03.34-.05.91,1.09,1.21.97,1.55-.33.11-.03.22-.06.33-.1,1.1,1.01,1.37.64,1.48-.56.1-.05.21-.1.31-.15,1.09.79,1.52.4,1.37-.77.09-.06.19-.12.28-.19,1.35.62,1.52.22,1.22-.97.08-.08.17-.15.25-.23,1.22.34,1.65.15,1.05-1.14.07-.09.14-.17.2-.26,1.5.19,1.5-.25.85-1.29.06-.1.11-.19.16-.29,1.33,0,1.53-.47.63-1.4.04-.1.08-.21.11-.31,1.37-.22,1.4-.7.4-1.48.02-.11.04-.22.06-.32.15-.14,1.47-.47,1.1-.8Zm-9.46-9.1c.88.29.39,1.58-.46,1.28-.88-.29-.39-1.58.46-1.28Zm-.39-1.57s0,0,.01,0c-1.3,4.21-7.56,5.66-10.6,2.11,2.77-2.43,6.79-3.37,10.59-2.12Zm-8.77,5.34c0-.63,1.02-.63,1.01,0,.01.63-1.02.63-1.01,0Zm.38,7.44c.01.63-1.01.63-1,0,0-.63,1.02-.63,1,0Zm-2.74-9.57c.27-.83,1.64-.4,1.34.44-.27.83-1.64.4-1.34-.44Zm-1.95,10.59c-1.59-3.16-1.13-7.47,1.19-10.31h.01s-.02,0-.02,0c3.6,2.04,3.26,8.77-1.18,10.3Zm.88.01c.27-.83,1.64-.4,1.34.44-.27.83-1.64.4-1.34-.44Zm5.32,5.41c-2.19-.72-3.97-2.06-5.21-3.75,3.18-2.62,9.47-.38,9.73,4.25-1.48.15-3.02,0-4.52-.5Zm4.17-3.44c-.01-.63,1.02-.63,1.01,0,0,.63-1.02.62-1.01,0Zm1.73,2.74c-.27.82-1.64.4-1.33-.44.27-.83,1.64-.4,1.33.44Zm-.05-8.17c-.97,2.94-5.85,1.42-4.75-1.57.98-2.94,5.85-1.42,4.75,1.57Zm.13-5.07c-.65,0-.65-.97,0-.96.65,0,.65.97,0,.96Zm7.47,7.62c-1.14,3.19-3.76,5.48-6.88,6.41-1.77-4.26,3.29-8.78,7.21-7.56-.09.38-.2.77-.33,1.15Zm-4.16-2.29c-.01-.63,1.02-.63,1.01,0,0,.63-1.02.63-1.01,0Zm2.64-.14c.27-.83,1.64-.4,1.33.44-.27.82-1.64.4-1.33-.44Zm2.09-.7c-4.26.51-7.75-3.82-5.32-8.99,3.37,1.85,5.38,5.33,5.32,8.99Z"/><path class="cls-1" d="m136.97,22.49l-1.64.54,1.25,3.49,1.64-.54-1.25-3.49Z"/><path class="cls-1" d="m105.13,34.39l-1.64.54,1.25,3.49,1.64-.54-1.25-3.49Z"/><path class="cls-1" d="m152.84,18.75c-13.65,19.07-27.3,38.14-40.95,57.21,1.66.76,4.36,2.93,5.45,4.46,7.79-10.56,9.87-13.79,41.42-57.76l-5.93-3.91Zm-35.59,58.51c-1.42,1.2,38.34-53.81,37.63-52.07,1.42-1.2-38.34,53.81-37.63,52.07Z"/><path class="cls-1" d="m86.61,36.66l-4.53,1.49c4.46,12.47,8.92,24.95,13.38,37.42,1.58-.3,3.16-.59,4.73-.89-4.52-12.67-9.05-25.35-13.57-38.02Zm6.77,24.45c-2.61-7.22-4.31-13.21-4.31-13.21.18-.82,10.12,26.64,9.46,26.13,0,0-2.53-5.71-5.14-12.93Z"/><path class="cls-1" d="m188.91,121.41l-1.19.08.18,2.4,1.19-.08-.18-2.4Z"/><path class="cls-1" d="m188.6,120.75l-.64.04.1,1.3.64-.04-.1-1.3Z"/><path class="cls-1" d="m42.95,55.06l1.18-.1-.23-2.4-1.18.1.23,2.4Z"/><path class="cls-1" d="m43.29,55.73l.64-.06-.12-1.3-.64.06.12,1.3Z"/></g></svg>