<?xml version="1.0" encoding="UTF-8"?><svg id="Livello_2" xmlns="http://www.w3.org/2000/svg" viewBox="0 0 1128 412.33"><defs><style>.cls-1,.cls-2,.cls-3{font-family:TheGoldsmithVintage, 'The Goldsmith Vintage';}.cls-2{letter-spacing:0em;}.cls-4,.cls-5{fill:#523333;}.cls-6{fill:#fff;opacity:.5;}.cls-7{letter-spacing:-.02em;}.cls-8{letter-spacing:-.03em;}.cls-9{font-family:MyriadPro-Regular, 'Myriad Pro';}.cls-3{letter-spacing:-.09em;}.cls-10{fill:none;stroke:#523333;stroke-linecap:round;stroke-linejoin:round;stroke-width:.79px;}.cls-5{font-size:25.1px;}</style></defs><g id="Livello_1-2"><rect class="cls-6" y="15.48" width="1128" height="396.85"/><path class="cls-10" d="m857.79,62.3c.02-.28-.13-.47-.41-.5"/><path class="cls-10" d="m855.93,61.27l-3.65-1.32"/><path class="cls-10" d="m851.55,59.69c-.34-.07-.39-.19-.23-.49"/><path class="cls-10" d="m851.66,58.26l.34-.93"/><path class="cls-10" d="m852.16,56.85c.16-.3.11-.42-.23-.49"/><path class="cls-10" d="m850.51,55.85c-26.47-5.63-11.56-44.28,11.94-30.98"/><path class="cls-10" d="m863.16,25.12c.3.16.42.1.49-.23"/><path class="cls-10" d="m863.99,23.96l.34-.93"/><path class="cls-10" d="m864.49,22.55c.07-.34.19-.39.49-.23"/><path class="cls-10" d="m866.44,22.85l3.65,1.32"/><path class="cls-10" d="m870.82,24.43c.24.15.47.1.64-.13"/><path class="cls-10" d="m872.58,23.26c28.21-29.45,81.73-9.52,84.1,31.12"/><path class="cls-10" d="m956.79,55.14c-.02.28.13.47.41.5"/><path class="cls-10" d="m958.66,56.18l3.65,1.32"/><path class="cls-10" d="m963.04,57.76c.34.07.39.19.23.49"/><path class="cls-10" d="m962.93,59.19l-.34.93"/><path class="cls-10" d="m962.43,60.59c-.16.3-.11.42.23.49"/><path class="cls-10" d="m964.07,61.59c26.47,5.63,11.56,44.28-11.94,30.99"/><path class="cls-10" d="m951.43,92.32c-.3-.16-.42-.1-.49.23"/><path class="cls-10" d="m950.6,93.48l-.34.93"/><path class="cls-10" d="m950.1,94.89c-.07.33-.19.39-.49.23"/><path class="cls-10" d="m948.15,94.59l-3.65-1.32"/><path class="cls-10" d="m943.77,93.01c-.24-.15-.47-.1-.64.13"/><path class="cls-10" d="m942.01,94.18c-28.21,29.45-81.73,9.52-84.1-31.12"/><path class="cls-4" d="m973.72,55.59c4.03-4.88-6.44-5.19-8.76-6.86-5.96-43.78-63.36-64.61-95.9-34.65,0,0-9.93-3.59-9.93-3.59-6.74,7.07-23.83-.89-30.67,19.65-7.76,20.06,10.23,24.82,11.11,34.75,0,0,9.93,3.59,9.93,3.59,3.56,20.88,17.91,38.15,37.87,45.37,19.96,7.21,42.01,3.09,58.03-10.71,27.39,12.28,62.45-25.76,28.31-47.53Zm-19.32,43.72c-.1,5.8-7.04.17-9.74-.07-30,30.59-88.52,9.38-92.11-33.29,0,0-8.65-3.12-8.65-3.12-.85-8.68-19.57-11.58-12.26-31.55,7.21-20.17,23.36-10.25,29.52-16.45,0,0,8.64,3.12,8.64,3.12,14.64-13.53,36.11-18.64,56.14-11.41,32.91,8.94,26.88,41,44.61,47.81,0,0-1.09,3.05-1.09,3.05,27.21,9.38,11.94,52.07-15.06,41.9Z"/><path class="cls-4" d="m973.72,55.59c4.03-4.88-6.44-5.19-8.76-6.86-5.96-43.78-63.36-64.61-95.9-34.65,0,0-9.93-3.59-9.93-3.59-6.74,7.07-23.83-.89-30.67,19.65-7.76,20.06,10.23,24.82,11.11,34.75,0,0,9.93,3.59,9.93,3.59,3.56,20.88,17.91,38.15,37.87,45.37,19.96,7.21,42.01,3.09,58.03-10.71,27.39,12.28,62.45-25.76,28.31-47.53Zm-19.32,43.72c-.1,5.8-7.04.17-9.74-.07-30,30.59-88.52,9.38-92.11-33.29,0,0-8.65-3.12-8.65-3.12-.85-8.68-19.57-11.58-12.26-31.55,7.21-20.17,23.36-10.25,29.52-16.45,0,0,8.64,3.12,8.64,3.12,14.64-13.53,36.11-18.64,56.14-11.41,32.91,8.94,26.88,41,44.61,47.81,0,0-1.09,3.05-1.09,3.05,27.21,9.38,11.94,52.07-15.06,41.9Z"/><text class="cls-5" transform="translate(879.21 43.61) rotate(20.71)"><tspan class="cls-1"><tspan class="cls-7" x="0" y="0">D</tspan><tspan x="9.54" y="0">ELIVE</tspan><tspan class="cls-8" x="51.46" y="0">R</tspan><tspan x="59.12" y="0">Y </tspan></tspan><tspan class="cls-3" x="0" y="30.12">7</tspan><tspan class="cls-2" x="7.58" y="30.12">5 dkk</tspan><tspan class="cls-9" x="53.5" y="30.12">*</tspan><tspan class="cls-1" x="63.91" y="30.12"></tspan></text></g></svg>