<?xml version="1.0" encoding="UTF-8"?>
<svg id="Layer_2" data-name="Layer 2" xmlns="http://www.w3.org/2000/svg" viewBox="0 0 764.32 43.71">
  <defs>
    <style>
      .cls-1 {
        fill: #523333;
      }
    </style>
  </defs>
  <g id="Layer_1-2" data-name="Layer 1">
    <g>
      <path class="cls-1" d="m40.4,15.67c-.95.15-1.61.07-2.27-.17-1.1-.4-2.23-.56-3.39-.53-1.42.04-2.7.55-3.9,1.27-.37.22-.7.5-1.06.74-1.21.8-2.48.9-3.8.27-1.04-.5-1.75-1.34-2.08-2.49-.38-1.34-.16-2.58.68-3.68.52-.68,1.2-1.14,2.01-1.36.75-.2,1.5-.17,2.24.1.7.26,1.42.44,2.16.52.67.08,1.35.09,2.01,0,1.13-.16,2.18-.55,3.15-1.16.46-.29.89-.62,1.35-.92.74-.48,1.56-.64,2.42-.53.57.07,1.12.25,1.58.63.16.13.34.24.5.37.83.69,1.25,1.61,1.34,2.68.13,1.58-.48,2.81-1.71,3.7-.45.32-.95.5-1.22.55h0Zm-.66-2.3c.87-.14,1.45-.97,1.31-1.87-.14-.89-.95-1.51-1.82-1.37-.87.14-1.46.97-1.31,1.87.14.91.95,1.51,1.82,1.38Zm-11.89,1.9c.87-.13,1.45-.94,1.32-1.84-.13-.9-.93-1.53-1.8-1.4-.86.12-1.46.96-1.33,1.84.13.91.94,1.53,1.82,1.4h0Z"/>
      <path class="cls-1" d="m19.56,14.94c.14.85.02,1.65-.35,2.41-.42.88-1.06,1.52-1.93,1.89-.9.39-1.81.42-2.75.09-.99-.35-2-.55-3.04-.57-.83-.01-1.64.07-2.42.37-.49.19-.99.38-1.46.62-.5.25-.96.58-1.41.93-1.41,1.11-3.48,1.03-4.83-.2C.51,19.69.04,18.69,0,17.5c-.03-.88.19-1.7.69-2.4.55-.76,1.25-1.33,2.15-1.57.82-.22,1.62-.13,2.42.17,1.01.38,2.06.53,3.14.51,1.56-.02,2.97-.54,4.27-1.38.41-.26.78-.58,1.19-.83.79-.48,1.65-.6,2.55-.42,1.14.23,2.01.9,2.64,1.9.28.44.44.93.51,1.46h0Zm-15.95.87c-.86.14-1.45.97-1.31,1.85.15.93.95,1.54,1.83,1.39.88-.14,1.45-.97,1.3-1.89-.15-.89-.96-1.5-1.82-1.36h0Zm13.7-.52c-.14-.89-.95-1.51-1.81-1.38-.87.13-1.46.96-1.32,1.86.14.91.95,1.52,1.83,1.39.85-.13,1.44-.98,1.3-1.87Z"/>
      <path class="cls-1" d="m19.35,17.92c.56-.97.76-1.97.58-3.05-.18-1.07-.64-1.99-1.47-2.7,1.95.37,3.79.09,5.53-.89-.52.94-.73,1.95-.55,3.03.18,1.08.66,1.98,1.47,2.72-.96-.17-1.91-.23-2.85-.07-.95.15-1.83.51-2.7.98Z"/>
      <path class="cls-1" d="m43.12,14.12c.56-.97.76-1.97.58-3.05-.18-1.07-.64-1.99-1.47-2.7,1.95.37,3.79.09,5.53-.89-.53.94-.73,1.95-.55,3.03.18,1.08.66,1.98,1.47,2.72-.96-.17-1.91-.23-2.85-.07-.95.15-1.83.51-2.7.98Z"/>
      <path class="cls-1" d="m86.41,21.55c-.93-.29-1.49-.67-1.99-1.18-.83-.86-1.79-1.51-2.85-2.01-1.31-.61-2.67-.74-4.07-.63-.43.03-.85.13-1.27.18-1.43.16-2.63-.32-3.56-1.48-.74-.92-1.03-2-.85-3.17.21-1.37.93-2.38,2.14-2.98.76-.37,1.56-.48,2.39-.31.76.16,1.43.52,1.99,1.11.52.55,1.11,1.03,1.74,1.44.58.37,1.18.69,1.83.91,1.09.37,2.21.5,3.34.39.54-.05,1.07-.15,1.6-.21.87-.1,1.68.13,2.41.62.48.32.91.73,1.18,1.28.09.19.21.37.3.56.46.99.47,2,.1,3-.54,1.47-1.6,2.3-3.09,2.53-.54.08-1.07.02-1.33-.07h0Zm.36-2.36c.85.27,1.72-.21,1.96-1.08.24-.86-.24-1.78-1.08-2.05-.85-.27-1.72.2-1.97,1.07-.24.87.24,1.79,1.08,2.06h0Zm-11.57-3.7c.84.28,1.71-.18,1.97-1.05.26-.87-.21-1.79-1.05-2.07-.83-.28-1.73.2-1.97,1.04-.26.87.22,1.8,1.07,2.08h0Z"/>
      <path class="cls-1" d="m67.16,12.07c-.12.85-.47,1.57-1.05,2.19-.67.71-1.47,1.12-2.41,1.21-.97.09-1.86-.16-2.65-.76-.84-.64-1.75-1.14-2.74-1.48-.79-.27-1.59-.44-2.42-.39-.53.03-1.05.06-1.58.14-.62.09-1.22.29-1.81.52-1.38.53-2.94.11-3.89-1.07-.97-1.2-1.28-2.53-.89-3.94.24-.85.69-1.56,1.38-2.08.74-.56,1.58-.88,2.52-.83.85.04,1.59.37,2.26.9.86.67,1.81,1.14,2.84,1.45,1.49.46,2.99.4,4.48,0,.46-.12.91-.31,1.38-.42.9-.21,1.75-.06,2.56.39,1.02.57,1.65,1.47,1.95,2.62.13.51.14,1.02.05,1.54h0Zm-15.47-4.08c-.86-.13-1.67.48-1.8,1.36-.13.93.45,1.76,1.33,1.89.88.13,1.67-.48,1.8-1.39.13-.9-.47-1.72-1.33-1.85Zm13.22,3.72c.13-.89-.46-1.73-1.32-1.87-.87-.14-1.68.46-1.81,1.37-.14.9.45,1.74,1.33,1.88.85.14,1.67-.49,1.8-1.37Z"/>
      <path class="cls-1" d="m66.33,14.75c.82-.73,1.31-1.61,1.47-2.69.15-1.07-.01-2.09-.59-3.04,1.75.99,3.59,1.34,5.54.99-.78.72-1.28,1.6-1.43,2.68-.16,1.08.03,2.09.59,3.05-.87-.47-1.75-.84-2.7-1.01s-1.9-.12-2.87.03h0Z"/>
      <path class="cls-1" d="m90.37,20.89c.77-.76,1.19-1.66,1.26-2.73.06-1.06-.2-2.05-.86-2.94,1.86.87,3.76,1.1,5.71.64-.73.75-1.16,1.64-1.22,2.71-.06,1.06.21,2.04.86,2.95-.92-.41-1.85-.72-2.83-.83-.98-.11-1.94,0-2.92.2Z"/>
      <path class="cls-1" d="m146.43,21.03c.95-.15,1.61-.07,2.27.17,1.1.4,2.23.56,3.39.53,1.42-.04,2.7-.55,3.9-1.27.37-.22.7-.5,1.06-.74,1.21-.8,2.48-.9,3.8-.27,1.04.5,1.75,1.34,2.08,2.49.38,1.34.16,2.58-.68,3.68-.52.68-1.2,1.14-2.01,1.36-.75.2-1.49.17-2.24-.1-.7-.26-1.42-.44-2.16-.52-.67-.08-1.35-.09-2.01,0-1.13.16-2.18.55-3.15,1.16-.46.29-.89.62-1.35.92-.74.48-1.56.64-2.42.53-.57-.07-1.12-.25-1.58-.63-.16-.13-.34-.24-.5-.37-.83-.69-1.25-1.61-1.34-2.68-.13-1.58.48-2.81,1.71-3.7.45-.32.95-.5,1.22-.55h0Zm.66,2.3c-.87.14-1.45.97-1.31,1.87.14.89.95,1.51,1.82,1.37.87-.14,1.46-.97,1.31-1.87-.14-.91-.95-1.51-1.82-1.38Zm11.89-1.9c-.87.13-1.45.94-1.32,1.84.13.9.93,1.53,1.8,1.4.86-.12,1.46-.96,1.34-1.84-.13-.91-.94-1.53-1.82-1.4h0Z"/>
      <path class="cls-1" d="m167.27,21.75c-.14-.85-.02-1.65.35-2.41.42-.88,1.06-1.52,1.93-1.89.89-.39,1.81-.42,2.75-.09.99.35,2,.55,3.04.57.83.01,1.64-.07,2.42-.37.49-.19.99-.38,1.46-.62.5-.25.96-.58,1.41-.93,1.41-1.11,3.48-1.03,4.83.2.86.78,1.32,1.78,1.36,2.98.03.88-.19,1.7-.69,2.4-.55.76-1.25,1.33-2.15,1.57-.82.22-1.62.13-2.42-.17-1.01-.38-2.06-.53-3.14-.51-1.56.02-2.97.54-4.27,1.38-.41.26-.78.58-1.19.83-.79.48-1.65.6-2.55.42-1.15-.23-2.01-.9-2.64-1.9-.28-.44-.44-.93-.51-1.46h0Zm15.95-.87c.86-.14,1.45-.97,1.31-1.85-.15-.93-.95-1.54-1.83-1.39-.88.14-1.45.97-1.3,1.89.15.89.96,1.5,1.82,1.36h0Zm-13.7.52c.14.89.95,1.51,1.81,1.38.87-.13,1.46-.96,1.32-1.86-.14-.91-.95-1.52-1.83-1.39-.85.13-1.44.98-1.3,1.87Z"/>
      <path class="cls-1" d="m167.48,18.78c-.56.97-.76,1.97-.58,3.05.18,1.07.64,1.99,1.47,2.7-1.95-.37-3.79-.09-5.53.89.52-.94.73-1.95.55-3.03-.18-1.08-.66-1.98-1.47-2.72.96.17,1.91.23,2.85.07.95-.15,1.83-.51,2.7-.98Z"/>
      <path class="cls-1" d="m143.72,22.58c-.56.97-.76,1.97-.58,3.05.18,1.07.64,1.99,1.47,2.7-1.95-.37-3.79-.09-5.53.89.53-.94.73-1.95.55-3.03-.18-1.08-.66-1.98-1.47-2.72.96.17,1.91.23,2.86.07.95-.15,1.83-.51,2.7-.98Z"/>
      <path class="cls-1" d="m100.42,15.14c.92.29,1.49.67,1.99,1.18.83.86,1.79,1.51,2.85,2.01,1.31.61,2.67.74,4.07.63.43-.03.85-.13,1.27-.18,1.43-.16,2.63.32,3.56,1.48.74.92,1.03,2,.85,3.17-.21,1.37-.93,2.38-2.14,2.98-.76.37-1.56.48-2.39.31-.76-.16-1.43-.52-1.99-1.11-.52-.55-1.11-1.03-1.74-1.44-.58-.37-1.18-.69-1.83-.91-1.09-.37-2.21-.5-3.34-.39-.54.05-1.07.15-1.6.21-.87.1-1.68-.13-2.41-.62-.48-.32-.91-.73-1.18-1.28-.09-.19-.21-.37-.3-.56-.46-.99-.47-2-.1-3,.54-1.47,1.6-2.3,3.09-2.53.54-.08,1.07-.02,1.33.07h0Zm-.36,2.36c-.85-.27-1.72.21-1.96,1.08-.24.86.24,1.78,1.08,2.05.85.27,1.72-.2,1.97-1.07.25-.87-.24-1.79-1.08-2.06h0Zm11.57,3.7c-.84-.28-1.71.18-1.97,1.05-.26.87.21,1.79,1.05,2.07.83.28,1.73-.2,1.97-1.04.25-.87-.22-1.8-1.07-2.08h0Z"/>
      <path class="cls-1" d="m119.67,24.63c.12-.85.47-1.57,1.05-2.19.67-.71,1.47-1.12,2.41-1.21.97-.09,1.85.16,2.65.76.84.64,1.74,1.14,2.74,1.48.78.27,1.59.44,2.42.39.53-.03,1.05-.06,1.58-.14.62-.09,1.22-.29,1.81-.52,1.38-.53,2.94-.11,3.89,1.07.97,1.2,1.28,2.53.89,3.94-.24.85-.69,1.56-1.38,2.08-.74.56-1.58.88-2.52.83-.85-.04-1.59-.37-2.26-.9-.86-.67-1.81-1.14-2.84-1.45-1.49-.46-2.99-.4-4.48,0-.46.12-.91.31-1.38.42-.89.21-1.75.06-2.56-.39-1.02-.57-1.65-1.47-1.95-2.62-.14-.51-.14-1.02-.05-1.54h0Zm15.48,4.08c.86.13,1.67-.48,1.8-1.36.13-.93-.45-1.76-1.33-1.89-.88-.13-1.67.48-1.8,1.39-.13.9.47,1.72,1.34,1.85Zm-13.22-3.72c-.13.89.46,1.73,1.32,1.87.87.14,1.68-.46,1.81-1.37.14-.9-.45-1.74-1.33-1.88-.85-.14-1.67.49-1.8,1.37Z"/>
      <path class="cls-1" d="m191.52,15.13c-.6.92-.83,1.91-.69,2.99.14,1.07.58,2.01,1.39,2.77-1.95-.48-3.82-.32-5.6.55.56-.9.8-1.88.66-2.96-.14-1.08-.59-2-1.39-2.78.96.22,1.92.34,2.87.24.96-.09,1.86-.39,2.76-.81h0Z"/>
      <path class="cls-1" d="m120.7,21.47c-.83.72-1.33,1.6-1.5,2.68-.17,1.07,0,2.09.56,3.05-1.74-1.01-3.58-1.37-5.53-1.05.79-.71,1.29-1.58,1.46-2.66.17-1.07,0-2.09-.56-3.06.86.48,1.75.86,2.69,1.04s1.89.14,2.87,0h0Z"/>
      <path class="cls-1" d="m231.89,19.28c-.96.06-1.61-.08-2.24-.38-1.06-.5-2.17-.77-3.32-.84-1.42-.09-2.74.29-4,.9-.39.19-.75.44-1.13.64-1.28.68-2.56.66-3.81-.09-.99-.6-1.62-1.5-1.83-2.67-.25-1.37.09-2.59,1.02-3.6.58-.63,1.3-1.02,2.13-1.17.77-.13,1.51-.03,2.22.32.67.33,1.37.57,2.1.72.66.14,1.33.21,2.01.18,1.14-.05,2.22-.34,3.24-.85.48-.24.95-.54,1.43-.79.78-.41,1.61-.49,2.46-.3.56.13,1.09.35,1.52.77.15.15.32.27.46.42.76.76,1.09,1.72,1.08,2.8-.02,1.59-.74,2.75-2.06,3.52-.47.28-.99.41-1.27.43h0Zm-.43-2.36c.88-.05,1.54-.83,1.48-1.74-.05-.9-.8-1.59-1.68-1.54-.88.05-1.54.83-1.49,1.74.05.91.8,1.6,1.68,1.54Zm-12.01.76c.88-.04,1.54-.8,1.49-1.71-.04-.91-.78-1.61-1.66-1.57-.87.04-1.55.82-1.5,1.71.05.92.79,1.61,1.67,1.57h0Z"/>
      <path class="cls-1" d="m211.21,16.58c.06.86-.14,1.64-.57,2.37-.51.84-1.2,1.41-2.1,1.7-.93.3-1.85.24-2.74-.17-.95-.44-1.94-.74-2.98-.86-.82-.09-1.64-.08-2.44.14-.51.14-1.02.28-1.51.48-.52.2-1.01.48-1.49.79-1.51.97-3.56.7-4.79-.66-.78-.86-1.15-1.9-1.08-3.09.06-.88.36-1.68.92-2.33.62-.7,1.37-1.2,2.29-1.35.84-.14,1.63.02,2.4.39.97.47,2,.73,3.07.81,1.56.12,3-.26,4.38-.97.43-.22.83-.5,1.26-.71.83-.4,1.7-.44,2.58-.17,1.12.34,1.91,1.09,2.44,2.14.24.47.35.97.37,1.5h0Zm-15.96-.65c-.87.05-1.54.83-1.48,1.72.06.94.8,1.62,1.69,1.56.89-.06,1.54-.83,1.47-1.75-.06-.9-.81-1.58-1.68-1.53h0Zm13.69.78c-.05-.9-.81-1.6-1.67-1.55-.88.05-1.54.82-1.49,1.73.05.92.8,1.6,1.69,1.55.86-.05,1.53-.84,1.48-1.73Z"/>
      <path class="cls-1" d="m210.71,19.52c.65-.91.94-1.89.86-2.98-.08-1.09-.45-2.04-1.21-2.83,1.9.56,3.76.45,5.59-.36-.61.89-.91,1.87-.83,2.96.07,1.09.47,2.03,1.21,2.84-.94-.26-1.88-.41-2.83-.34-.96.06-1.87.33-2.79.71Z"/>
      <path class="cls-1" d="m234.73,18c.65-.91.94-1.89.86-2.98-.08-1.09-.45-2.04-1.21-2.83,1.9.56,3.76.45,5.59-.36-.61.89-.91,1.87-.83,2.96.07,1.09.47,2.03,1.21,2.84-.94-.26-1.88-.41-2.83-.34-.96.06-1.87.33-2.78.71Z"/>
      <path class="cls-1" d="m277.13,29.51c-.89-.38-1.42-.81-1.87-1.36-.74-.93-1.64-1.67-2.65-2.27-1.24-.73-2.59-.99-3.99-1.01-.43,0-.85.05-1.28.06-1.44.03-2.59-.57-3.4-1.81-.65-.99-.84-2.09-.55-3.24.34-1.35,1.15-2.28,2.41-2.77.79-.3,1.6-.33,2.4-.08.74.23,1.37.66,1.87,1.29.47.6,1,1.13,1.59,1.6.54.43,1.11.8,1.74,1.08,1.05.48,2.15.7,3.29.71.54,0,1.08-.05,1.62-.06.88-.02,1.66.29,2.34.85.45.37.84.81,1.05,1.39.07.2.17.39.25.59.37,1.03.28,2.04-.18,3-.68,1.42-1.81,2.14-3.32,2.23-.54.03-1.07-.09-1.32-.19h0Zm.58-2.31c.82.35,1.73-.04,2.06-.89.32-.84-.07-1.8-.88-2.15-.82-.35-1.74.04-2.06.88-.33.85.07,1.8.88,2.15h0Zm-11.17-4.79c.81.36,1.71-.02,2.06-.86.34-.84-.04-1.8-.85-2.16-.8-.36-1.74.03-2.07.85-.34.85.05,1.81.86,2.17h0Z"/>
      <path class="cls-1" d="m258.86,18.24c-.2.83-.61,1.52-1.25,2.08-.73.64-1.57.97-2.51.97-.97,0-1.83-.34-2.56-1.01-.77-.71-1.63-1.3-2.58-1.73-.76-.34-1.54-.58-2.37-.62-.53-.02-1.05-.04-1.58-.01-.63.04-1.24.18-1.85.34-1.43.4-2.94-.17-3.77-1.43-.85-1.28-1.03-2.64-.51-4,.32-.82.84-1.49,1.57-1.94.79-.48,1.66-.72,2.59-.59.84.12,1.54.52,2.16,1.11.79.75,1.7,1.31,2.69,1.72,1.44.6,2.94.68,4.46.42.47-.08.94-.22,1.42-.29.91-.12,1.75.11,2.51.63.96.67,1.5,1.62,1.69,2.8.09.52.04,1.03-.1,1.54h0Zm-15.02-5.53c-.84-.21-1.71.32-1.92,1.18-.22.92.28,1.79,1.15,2.01.86.22,1.71-.32,1.92-1.22.21-.88-.3-1.76-1.15-1.97Zm12.81,4.96c.21-.87-.29-1.77-1.13-1.99-.85-.22-1.71.3-1.93,1.19-.22.89.29,1.78,1.15,2,.83.22,1.71-.33,1.92-1.2Z"/>
      <path class="cls-1" d="m257.78,20.83c.89-.65,1.46-1.48,1.72-2.54.26-1.05.19-2.08-.3-3.08,1.65,1.15,3.45,1.67,5.42,1.51-.85.64-1.42,1.47-1.68,2.53-.26,1.06-.17,2.08.3,3.09-.82-.55-1.67-1-2.59-1.26-.93-.26-1.88-.3-2.86-.24h0Z"/>
      <path class="cls-1" d="m281.13,29.23c.84-.69,1.35-1.54,1.51-2.6.16-1.05,0-2.06-.58-3.01,1.77,1.04,3.64,1.45,5.63,1.18-.8.68-1.31,1.52-1.47,2.58-.16,1.05.02,2.06.58,3.02-.88-.5-1.78-.89-2.74-1.1-.96-.2-1.93-.19-2.92-.08Z"/>
      <path class="cls-1" d="m336.92,34.69c.96-.06,1.61.08,2.24.38,1.05.5,2.17.77,3.32.84,1.42.09,2.74-.29,4-.9.39-.19.74-.44,1.13-.64,1.28-.68,2.56-.66,3.81.09.99.6,1.62,1.5,1.83,2.67.25,1.37-.09,2.59-1.02,3.6-.58.63-1.3,1.02-2.13,1.17-.77.13-1.51.03-2.21-.32-.67-.33-1.37-.57-2.1-.72-.66-.14-1.33-.21-2.01-.18-1.14.05-2.22.34-3.24.85-.49.24-.95.54-1.43.79-.78.41-1.61.49-2.46.3-.56-.13-1.09-.35-1.52-.77-.15-.15-.32-.27-.46-.42-.76-.76-1.09-1.72-1.08-2.8.02-1.59.74-2.75,2.06-3.52.47-.28.99-.41,1.26-.43h0Zm.43,2.36c-.88.05-1.54.83-1.48,1.74.05.9.8,1.59,1.68,1.54.88-.05,1.54-.83,1.49-1.74-.05-.91-.8-1.6-1.68-1.54Zm12.01-.76c-.88.04-1.53.8-1.49,1.71.04.91.78,1.61,1.66,1.57.87-.04,1.55-.82,1.5-1.71-.05-.92-.79-1.61-1.67-1.57h0Z"/>
      <path class="cls-1" d="m357.6,37.39c-.06-.86.14-1.64.58-2.37.51-.84,1.2-1.41,2.1-1.7.93-.3,1.85-.24,2.74.17.95.44,1.94.74,2.98.86.82.09,1.64.08,2.45-.14.51-.14,1.02-.28,1.51-.48.52-.2,1.01-.48,1.49-.79,1.51-.97,3.56-.7,4.79.66.78.86,1.15,1.9,1.07,3.09-.06.88-.35,1.68-.92,2.33-.62.7-1.37,1.2-2.29,1.35-.84.14-1.63-.02-2.4-.39-.97-.47-2-.73-3.07-.81-1.55-.12-3,.26-4.38.97-.43.22-.83.5-1.27.71-.83.4-1.7.44-2.58.17-1.12-.34-1.91-1.09-2.44-2.14-.23-.47-.35-.97-.36-1.5h0Zm15.96.65c.87-.05,1.54-.83,1.48-1.72-.06-.94-.8-1.62-1.69-1.56-.89.06-1.54.83-1.47,1.75.06.9.81,1.58,1.68,1.53h0Zm-13.69-.78c.05.9.81,1.6,1.67,1.55.88-.05,1.54-.82,1.49-1.73-.05-.92-.8-1.6-1.69-1.55-.86.05-1.53.84-1.48,1.73Z"/>
      <path class="cls-1" d="m358.1,34.45c-.65.91-.94,1.89-.86,2.98.07,1.09.45,2.04,1.21,2.83-1.9-.56-3.77-.45-5.59.36.61-.89.91-1.87.83-2.96-.07-1.09-.47-2.03-1.21-2.84.94.26,1.88.41,2.83.34.96-.06,1.87-.33,2.79-.71Z"/>
      <path class="cls-1" d="m334.07,35.97c-.65.91-.94,1.89-.86,2.98.08,1.09.45,2.04,1.21,2.83-1.9-.56-3.77-.45-5.59.36.61-.89.91-1.87.83-2.96-.07-1.09-.47-2.03-1.21-2.84.94.26,1.88.41,2.83.34.96-.06,1.87-.33,2.78-.71Z"/>
      <path class="cls-1" d="m291.68,24.46c.89.38,1.42.81,1.87,1.36.74.93,1.64,1.67,2.65,2.27,1.24.73,2.59.99,3.99,1.01.43,0,.85-.05,1.28-.06,1.44-.03,2.59.57,3.4,1.81.65.99.84,2.09.55,3.24-.34,1.35-1.15,2.28-2.41,2.77-.79.3-1.6.33-2.4.08-.74-.23-1.37-.66-1.87-1.29-.47-.6-1-1.13-1.6-1.6-.54-.43-1.11-.8-1.73-1.08-1.05-.48-2.15-.7-3.29-.71-.54,0-1.08.05-1.62.06-.88.02-1.66-.29-2.34-.85-.45-.37-.84-.81-1.05-1.39-.07-.2-.17-.39-.24-.59-.37-1.03-.28-2.04.18-3,.68-1.42,1.81-2.14,3.32-2.23.54-.03,1.07.09,1.32.19h0Zm-.58,2.31c-.82-.35-1.73.04-2.06.89-.32.84.07,1.8.88,2.15.82.35,1.74-.04,2.06-.88.33-.85-.07-1.8-.88-2.15h0Zm11.17,4.79c-.81-.36-1.72.02-2.06.86-.34.84.04,1.8.85,2.16.8.36,1.74-.03,2.06-.85.34-.85-.05-1.81-.86-2.17h0Z"/>
      <path class="cls-1" d="m309.95,35.73c.2-.83.61-1.52,1.25-2.08.73-.64,1.57-.97,2.51-.97.97,0,1.83.34,2.56,1.01.77.71,1.63,1.3,2.58,1.73.76.34,1.54.58,2.37.62.53.02,1.06.04,1.58.01.63-.04,1.24-.18,1.85-.34,1.42-.4,2.94.17,3.77,1.43.85,1.28,1.04,2.64.51,4-.32.82-.84,1.49-1.57,1.94-.79.48-1.66.72-2.58.59-.84-.12-1.54-.52-2.17-1.11-.79-.75-1.7-1.31-2.69-1.72-1.44-.6-2.94-.68-4.46-.42-.47.08-.94.22-1.42.29-.91.12-1.75-.11-2.51-.63-.96-.67-1.5-1.62-1.69-2.8-.09-.52-.04-1.03.1-1.54h0Zm15.02,5.53c.84.21,1.71-.32,1.92-1.18.22-.92-.28-1.79-1.14-2.01-.86-.22-1.71.32-1.93,1.22-.21.88.3,1.76,1.15,1.97Zm-12.81-4.96c-.21.87.29,1.77,1.13,1.99.85.22,1.71-.3,1.93-1.19.22-.89-.29-1.78-1.15-2-.83-.22-1.71.33-1.92,1.2Z"/>
      <path class="cls-1" d="m381.74,31.8c-.52.97-.68,1.97-.46,3.03.22,1.06.73,1.96,1.59,2.65-1.98-.33-3.83-.03-5.54.97.49-.94.65-1.94.43-3.01-.22-1.06-.74-1.95-1.6-2.67.98.15,1.94.19,2.88.02.95-.17,1.82-.53,2.69-1.01h0Z"/>
      <path class="cls-1" d="m311.26,32.69c-.9.64-1.48,1.47-1.75,2.52-.27,1.05-.21,2.08.27,3.09-1.63-1.17-3.43-1.71-5.4-1.57.86-.63,1.44-1.45,1.71-2.51.27-1.05.19-2.08-.26-3.1.81.56,1.66,1.02,2.58,1.29.92.27,1.87.32,2.86.27h0Z"/>
      <path class="cls-1" d="m421.73,27.85c-.93.26-1.59.25-2.27.08-1.14-.28-2.28-.31-3.42-.15-1.41.2-2.62.84-3.74,1.7-.34.26-.64.58-.97.85-1.11.93-2.37,1.17-3.75.69-1.09-.38-1.89-1.14-2.34-2.24-.53-1.29-.44-2.55.27-3.73.44-.74,1.06-1.27,1.84-1.58.72-.29,1.47-.34,2.23-.14.72.18,1.46.28,2.2.28.68,0,1.35-.06,2-.23,1.11-.28,2.11-.79,3-1.5.42-.33.82-.72,1.24-1.06.68-.56,1.48-.81,2.34-.79.57.01,1.14.12,1.64.45.18.11.36.2.54.32.9.59,1.42,1.46,1.63,2.52.3,1.56-.17,2.85-1.3,3.87-.41.37-.89.6-1.15.68h0Zm-.91-2.22c.85-.23,1.33-1.12,1.09-2.01-.24-.87-1.11-1.39-1.96-1.16-.85.23-1.34,1.12-1.1,2,.24.88,1.11,1.4,1.96,1.17Zm-11.6,3.2c.85-.22,1.34-1.09,1.11-1.98-.23-.89-1.09-1.41-1.94-1.19-.84.22-1.35,1.12-1.12,1.98.23.89,1.1,1.42,1.96,1.2h0Z"/>
      <path class="cls-1" d="m400.94,29.43c.23.83.2,1.63-.08,2.44-.32.92-.89,1.63-1.71,2.09-.85.48-1.76.62-2.72.39-1.02-.24-2.05-.33-3.09-.23-.82.08-1.62.25-2.36.64-.47.24-.94.49-1.38.77-.47.31-.89.68-1.3,1.08-1.28,1.26-3.34,1.41-4.83.33-.94-.68-1.51-1.63-1.68-2.81-.12-.88,0-1.72.43-2.47.46-.81,1.09-1.46,1.97-1.79.79-.31,1.6-.31,2.43-.1,1.05.26,2.11.3,3.17.16,1.55-.2,2.89-.86,4.09-1.85.37-.3.71-.66,1.09-.95.73-.56,1.57-.77,2.49-.69,1.16.1,2.09.67,2.83,1.6.33.41.54.88.66,1.39h0Zm-15.76,2.63c-.84.23-1.33,1.13-1.1,1.98.25.91,1.11,1.42,1.97,1.18.86-.24,1.33-1.12,1.08-2.02-.24-.87-1.11-1.38-1.96-1.15h0Zm13.56-2.03c-.24-.87-1.12-1.4-1.95-1.17-.85.23-1.34,1.12-1.11,2,.24.89,1.11,1.41,1.97,1.18.83-.23,1.32-1.13,1.09-2Z"/>
      <path class="cls-1" d="m401.06,32.41c.45-1.02.53-2.04.24-3.1-.3-1.05-.86-1.91-1.76-2.53,1.98.15,3.78-.33,5.4-1.49-.42,1-.51,2.01-.21,3.07.29,1.05.87,1.9,1.76,2.54-.97-.06-1.92-.01-2.85.24-.92.25-1.76.71-2.58,1.27Z"/>
      <path class="cls-1" d="m424.26,26.01c.45-1.02.53-2.04.24-3.1-.3-1.05-.86-1.91-1.76-2.53,1.98.15,3.78-.33,5.4-1.49-.42,1-.51,2.01-.21,3.07.3,1.05.87,1.9,1.76,2.54-.97-.06-1.92-.01-2.85.24-.92.25-1.76.71-2.58,1.27Z"/>
      <path class="cls-1" d="m468.11,28.61c-.95-.19-1.56-.5-2.11-.95-.92-.76-1.94-1.3-3.06-1.68-1.37-.46-2.74-.44-4.11-.18-.42.08-.83.22-1.24.32-1.4.32-2.65-.03-3.7-1.08-.84-.83-1.25-1.87-1.2-3.06.06-1.39.66-2.47,1.79-3.2.71-.46,1.5-.65,2.34-.57.78.07,1.48.36,2.1.88.58.49,1.21.9,1.89,1.24.62.31,1.25.55,1.92.7,1.12.25,2.25.25,3.36.02.53-.11,1.04-.27,1.57-.39.85-.19,1.68-.05,2.47.35.52.27.99.62,1.31,1.14.11.18.25.34.36.53.57.94.69,1.94.43,2.97-.37,1.52-1.33,2.46-2.79,2.86-.52.14-1.06.13-1.33.08h0Zm.1-2.38c.87.18,1.69-.4,1.83-1.29.15-.89-.43-1.74-1.3-1.92-.87-.18-1.69.39-1.84,1.29-.15.89.43,1.75,1.3,1.93h0Zm-11.91-2.4c.87.19,1.68-.37,1.84-1.26.16-.89-.4-1.75-1.28-1.94-.85-.19-1.7.39-1.85,1.25-.16.9.42,1.76,1.29,1.95h0Z"/>
      <path class="cls-1" d="m447.92,21.31c-.02.86-.29,1.62-.8,2.29-.58.78-1.33,1.27-2.26,1.47-.95.2-1.86.05-2.71-.47-.9-.54-1.86-.94-2.88-1.17-.81-.18-1.63-.26-2.45-.12-.52.09-1.04.17-1.55.31-.61.16-1.18.43-1.74.72-1.32.68-2.91.43-3.99-.63-1.1-1.08-1.55-2.37-1.32-3.82.14-.87.51-1.63,1.14-2.22.68-.63,1.48-1.05,2.41-1.1.85-.05,1.62.2,2.35.65.92.57,1.93.93,2.98,1.13,1.53.29,3.01.06,4.45-.5.45-.18.88-.41,1.33-.57.87-.31,1.73-.25,2.58.1,1.08.45,1.8,1.28,2.23,2.39.19.49.25,1,.22,1.53h0Zm-15.83-2.34c-.87-.04-1.61.66-1.64,1.55-.03.94.64,1.7,1.53,1.73.89.04,1.61-.66,1.64-1.58.03-.9-.65-1.66-1.53-1.7Zm13.55,2.24c.03-.9-.65-1.67-1.52-1.72-.88-.05-1.61.65-1.65,1.56-.04.91.64,1.68,1.53,1.72.86.04,1.6-.67,1.64-1.56Z"/>
      <path class="cls-1" d="m447.4,24.07c.74-.82,1.13-1.75,1.16-2.84.04-1.08-.24-2.08-.92-2.96,1.85.79,3.72.93,5.61.37-.7.8-1.09,1.73-1.13,2.82-.04,1.09.26,2.07.92,2.97-.91-.37-1.84-.64-2.8-.71-.96-.06-1.9.09-2.85.35h0Z"/>
      <path class="cls-1" d="m471.97,27.51c.68-.85,1-1.78.95-2.85-.05-1.06-.42-2.01-1.18-2.83,1.95.66,3.86.67,5.75,0-.65.83-.97,1.76-.91,2.82.05,1.06.44,2.01,1.18,2.84-.96-.31-1.92-.51-2.91-.51-.98,0-1.93.21-2.88.52Z"/>
      <path class="cls-1" d="m527.7,21.45c.93-.26,1.59-.25,2.27-.08,1.14.28,2.28.31,3.42.15,1.41-.2,2.62-.84,3.73-1.7.34-.26.64-.58.97-.85,1.11-.93,2.37-1.17,3.75-.69,1.09.38,1.89,1.14,2.34,2.24.53,1.29.44,2.55-.27,3.73-.44.74-1.06,1.27-1.84,1.58-.72.29-1.47.34-2.23.14-.72-.18-1.46-.28-2.2-.28-.68,0-1.35.06-2,.23-1.11.28-2.11.79-3,1.5-.42.33-.82.72-1.24,1.06-.68.56-1.47.81-2.34.79-.57-.01-1.14-.12-1.65-.45-.18-.11-.36-.2-.54-.32-.9-.59-1.42-1.46-1.63-2.52-.3-1.56.17-2.85,1.3-3.87.41-.37.89-.6,1.15-.68h0Zm.91,2.22c-.85.23-1.33,1.12-1.09,2.01.24.87,1.11,1.39,1.96,1.16.85-.23,1.34-1.12,1.1-2-.24-.88-1.11-1.4-1.96-1.17Zm11.61-3.2c-.85.22-1.34,1.09-1.11,1.98.23.88,1.09,1.41,1.94,1.19.84-.22,1.35-1.12,1.12-1.98-.23-.89-1.1-1.42-1.96-1.2h0Z"/>
      <path class="cls-1" d="m548.49,19.87c-.23-.83-.2-1.63.08-2.44.32-.92.89-1.63,1.71-2.09.85-.48,1.76-.62,2.72-.39,1.02.24,2.05.33,3.09.23.82-.08,1.62-.25,2.36-.64.47-.24.94-.49,1.38-.77.47-.31.89-.68,1.3-1.08,1.28-1.26,3.34-1.41,4.83-.34.94.68,1.51,1.63,1.68,2.81.12.88,0,1.72-.42,2.47-.46.81-1.09,1.46-1.97,1.79-.79.31-1.6.31-2.42.1-1.05-.26-2.11-.3-3.17-.16-1.55.2-2.89.86-4.09,1.85-.37.3-.71.66-1.09.95-.73.56-1.57.77-2.49.69-1.16-.1-2.09-.67-2.83-1.6-.33-.41-.54-.88-.66-1.39h0Zm15.76-2.63c.84-.23,1.33-1.13,1.1-1.98-.25-.91-1.11-1.42-1.97-1.18-.86.24-1.33,1.12-1.08,2.02.24.87,1.11,1.38,1.96,1.15h0Zm-13.56,2.03c.24.87,1.12,1.4,1.95,1.17.85-.23,1.34-1.12,1.11-2-.24-.89-1.11-1.41-1.97-1.18-.83.23-1.33,1.13-1.09,2Z"/>
      <path class="cls-1" d="m548.38,16.89c-.45,1.02-.53,2.04-.24,3.1.3,1.05.86,1.91,1.76,2.53-1.98-.15-3.78.33-5.4,1.49.42-1,.51-2.01.21-3.07-.29-1.05-.87-1.9-1.76-2.54.97.06,1.92.01,2.84-.24.92-.25,1.76-.71,2.58-1.27Z"/>
      <path class="cls-1" d="m525.18,23.29c-.45,1.02-.53,2.04-.24,3.1.3,1.05.86,1.91,1.76,2.53-1.98-.15-3.78.33-5.4,1.49.42-1,.51-2.01.21-3.07-.3-1.05-.87-1.9-1.76-2.54.97.06,1.92.01,2.85-.24.92-.25,1.76-.71,2.58-1.27Z"/>
      <path class="cls-1" d="m481.33,20.69c.95.19,1.55.5,2.11.95.92.76,1.94,1.3,3.06,1.68,1.37.46,2.74.44,4.11.18.42-.08.83-.22,1.24-.32,1.4-.32,2.65.03,3.7,1.08.84.83,1.25,1.87,1.2,3.06-.06,1.39-.66,2.47-1.79,3.2-.71.46-1.5.65-2.34.57-.78-.07-1.48-.36-2.1-.88-.58-.49-1.21-.91-1.89-1.24-.62-.31-1.25-.55-1.92-.7-1.13-.25-2.25-.25-3.36-.02-.53.11-1.05.27-1.57.39-.85.19-1.68.05-2.47-.35-.52-.27-.99-.62-1.31-1.14-.11-.18-.25-.34-.36-.53-.57-.94-.69-1.94-.43-2.97.37-1.52,1.33-2.46,2.79-2.86.52-.14,1.06-.13,1.33-.08h0Zm-.1,2.38c-.87-.18-1.68.4-1.83,1.29-.15.89.43,1.74,1.3,1.92.87.18,1.69-.39,1.84-1.29.15-.89-.43-1.75-1.3-1.93h0Zm11.91,2.4c-.86-.19-1.68.37-1.84,1.26-.16.89.4,1.75,1.28,1.94.85.19,1.7-.39,1.85-1.25.16-.9-.42-1.76-1.29-1.95h0Z"/>
      <path class="cls-1" d="m501.51,27.99c.02-.86.29-1.62.8-2.29.58-.78,1.33-1.27,2.26-1.47.95-.2,1.86-.05,2.71.47.9.54,1.86.94,2.88,1.17.81.18,1.63.26,2.45.12.52-.09,1.04-.17,1.55-.31.6-.16,1.18-.43,1.74-.72,1.32-.68,2.91-.43,3.98.63,1.1,1.08,1.55,2.37,1.32,3.82-.14.87-.51,1.63-1.14,2.22-.68.63-1.47,1.05-2.41,1.1-.85.05-1.62-.2-2.35-.65-.92-.57-1.93-.93-2.98-1.13-1.53-.29-3.02-.06-4.46.5-.45.18-.87.41-1.33.57-.87.31-1.73.25-2.58-.1-1.08-.45-1.8-1.28-2.23-2.39-.19-.49-.25-1-.22-1.53h0Zm15.83,2.34c.87.04,1.61-.66,1.64-1.55.03-.94-.64-1.7-1.53-1.73-.89-.04-1.61.66-1.64,1.58-.03.9.65,1.66,1.53,1.7Zm-13.55-2.24c-.03.9.65,1.67,1.52,1.72.88.05,1.61-.65,1.65-1.56.04-.91-.64-1.68-1.53-1.72-.86-.04-1.6.67-1.64,1.57Z"/>
      <path class="cls-1" d="m571.86,10.61c-.49.98-.61,1.99-.35,3.05.26,1.05.79,1.93,1.68,2.6-1.99-.27-3.83.11-5.51,1.16.46-.96.59-1.96.33-3.02-.26-1.06-.81-1.92-1.69-2.61.98.11,1.94.12,2.88-.08.94-.2,1.8-.6,2.65-1.11h0Z"/>
      <path class="cls-1" d="m502.18,24.74c-.75.81-1.15,1.74-1.19,2.83-.05,1.08.22,2.08.89,2.97-1.84-.81-3.71-.97-5.61-.43.71-.79,1.11-1.72,1.16-2.81.05-1.09-.24-2.07-.89-2.98.91.38,1.83.66,2.79.74.96.07,1.9-.07,2.86-.32h0Z"/>
      <path class="cls-1" d="m612.44,10.27c-.95.17-1.61.1-2.27-.13-1.1-.38-2.24-.52-3.39-.47-1.42.06-2.69.59-3.88,1.34-.36.23-.69.51-1.05.76-1.2.82-2.47.94-3.79.33-1.05-.49-1.78-1.32-2.12-2.46-.4-1.34-.2-2.58.62-3.69.51-.69,1.18-1.16,1.98-1.39.75-.22,1.49-.2,2.24.07.7.25,1.42.41,2.16.48.67.06,1.35.06,2.01-.04,1.13-.17,2.17-.59,3.13-1.21.45-.29.88-.64,1.33-.94.73-.5,1.54-.66,2.41-.57.57.07,1.12.23,1.6.6.16.13.34.23.51.37.84.68,1.27,1.59,1.38,2.66.15,1.58-.43,2.82-1.66,3.73-.44.33-.94.52-1.21.56h0Zm-.69-2.29c.87-.15,1.43-.99,1.28-1.89-.15-.89-.97-1.49-1.84-1.34-.87.15-1.44.99-1.29,1.89.16.9.98,1.5,1.84,1.35Zm-11.86,2.08c.87-.14,1.44-.96,1.3-1.87-.14-.9-.95-1.51-1.82-1.37-.86.14-1.45.99-1.31,1.86.15.91.96,1.52,1.84,1.38h0Z"/>
      <path class="cls-1" d="m591.59,9.87c.15.84.05,1.65-.31,2.42-.41.89-1.04,1.53-1.9,1.92-.89.4-1.81.45-2.75.13-.99-.33-2.01-.52-3.05-.53-.83,0-1.64.1-2.41.41-.49.19-.98.4-1.45.64-.5.26-.95.59-1.4.95-1.4,1.13-3.46,1.09-4.84-.12-.87-.77-1.35-1.76-1.41-2.96-.04-.88.17-1.71.66-2.41.53-.77,1.23-1.34,2.13-1.6.82-.23,1.62-.16,2.42.13,1.02.36,2.07.5,3.14.46,1.56-.05,2.96-.59,4.25-1.45.4-.27.77-.59,1.18-.84.78-.49,1.64-.62,2.54-.46,1.15.21,2.02.87,2.67,1.86.29.44.45.93.53,1.45h0Zm-15.93,1.12c-.86.15-1.43,1-1.28,1.87.17.93.97,1.52,1.85,1.37.88-.16,1.43-.99,1.27-1.91-.16-.89-.98-1.48-1.84-1.33h0Zm13.69-.73c-.15-.88-.98-1.5-1.83-1.35-.87.14-1.44.98-1.29,1.88.15.9.97,1.51,1.85,1.36.85-.15,1.43-1,1.28-1.89Z"/>
      <path class="cls-1" d="m591.42,12.85c.54-.98.73-1.98.53-3.06-.2-1.07-.67-1.98-1.51-2.68,1.95.34,3.79.03,5.51-.97-.51.95-.7,1.96-.5,3.03.19,1.07.69,1.97,1.52,2.69-.96-.15-1.91-.2-2.85-.03-.94.17-1.82.54-2.69,1.02Z"/>
      <path class="cls-1" d="m615.13,8.68c.54-.98.73-1.98.53-3.06-.2-1.07-.67-1.98-1.51-2.68,1.95.34,3.79.03,5.51-.97-.51.95-.69,1.96-.5,3.03.19,1.07.69,1.97,1.52,2.69-.96-.15-1.91-.2-2.85-.03-.94.17-1.82.54-2.69,1.02Z"/>
      <path class="cls-1" d="m658.53,15.43c-.93-.28-1.5-.65-2.01-1.15-.84-.84-1.81-1.48-2.89-1.96-1.32-.59-2.68-.7-4.08-.57-.42.04-.84.15-1.27.2-1.43.19-2.63-.28-3.58-1.43-.75-.91-1.07-1.98-.91-3.16.19-1.38.89-2.39,2.09-3.02.75-.39,1.55-.5,2.38-.35.77.15,1.44.5,2,1.08.53.54,1.12,1.02,1.76,1.41.58.36,1.19.67,1.84.88,1.1.36,2.21.46,3.34.34.54-.06,1.07-.17,1.6-.24.87-.11,1.68.11,2.42.59.49.32.92.71,1.2,1.26.1.19.22.37.31.56.48.99.5,2,.15,3-.52,1.48-1.56,2.32-3.05,2.58-.53.09-1.07.03-1.33-.04h0Zm.32-2.36c.85.26,1.71-.23,1.95-1.11.23-.87-.27-1.78-1.11-2.04-.85-.26-1.72.23-1.95,1.11-.23.88.26,1.79,1.11,2.04h0Zm-11.63-3.52c.84.27,1.7-.21,1.95-1.08.24-.87-.24-1.78-1.09-2.05-.83-.27-1.72.22-1.96,1.07-.24.88.25,1.79,1.1,2.06h0Z"/>
      <path class="cls-1" d="m639.13,6.25c-.1.85-.44,1.58-1.01,2.21-.66.72-1.45,1.14-2.39,1.24-.97.11-1.86-.13-2.66-.72-.85-.62-1.76-1.12-2.76-1.44-.79-.26-1.6-.41-2.42-.35-.53.04-1.05.07-1.57.16-.62.1-1.21.31-1.8.55-1.37.55-2.94.15-3.91-1.01-.99-1.18-1.32-2.51-.95-3.92.22-.85.67-1.57,1.34-2.1.74-.57,1.57-.9,2.5-.87.85.03,1.59.35,2.27.87.87.66,1.83,1.11,2.86,1.41,1.5.43,2.99.35,4.48-.07.46-.13.91-.32,1.38-.44.89-.22,1.75-.09,2.56.35,1.03.55,1.67,1.45,1.99,2.59.14.5.16,1.02.07,1.54h0Zm-15.54-3.84c-.86-.12-1.66.51-1.78,1.39-.12.93.48,1.75,1.36,1.87.88.12,1.66-.5,1.78-1.42.11-.9-.49-1.71-1.36-1.83Zm13.28,3.51c.12-.89-.49-1.72-1.35-1.85-.87-.13-1.67.49-1.79,1.39-.12.91.48,1.74,1.36,1.86.85.12,1.66-.52,1.78-1.4Z"/>
      <path class="cls-1" d="m638.35,8.95c.81-.74,1.29-1.64,1.43-2.72.14-1.08-.05-2.09-.64-3.03,1.76.97,3.61,1.28,5.55.9-.77.73-1.25,1.62-1.39,2.7-.14,1.08.06,2.09.64,3.04-.87-.46-1.77-.81-2.72-.97s-1.9-.09-2.87.08h0Z"/>
      <path class="cls-1" d="m662.48,14.71c.76-.78,1.17-1.68,1.21-2.75.05-1.06-.23-2.04-.91-2.93,1.88.84,3.78,1.04,5.72.55-.72.76-1.13,1.66-1.18,2.72-.05,1.07.25,2.04.91,2.94-.93-.4-1.86-.69-2.85-.79-.98-.09-1.94.02-2.91.25Z"/>
      <path class="cls-1" d="m718.54,13.97c.95-.17,1.61-.1,2.27.13,1.1.38,2.24.52,3.39.47,1.42-.06,2.69-.59,3.88-1.34.36-.23.69-.51,1.05-.76,1.2-.82,2.47-.94,3.79-.33,1.05.49,1.77,1.32,2.12,2.46.4,1.34.2,2.58-.62,3.69-.51.69-1.18,1.16-1.98,1.39-.75.22-1.49.2-2.24-.07-.7-.25-1.42-.41-2.16-.48-.67-.06-1.35-.06-2.01.04-1.13.17-2.17.59-3.13,1.21-.46.29-.88.64-1.33.94-.73.5-1.54.66-2.41.57-.57-.07-1.12-.23-1.6-.6-.16-.13-.34-.23-.51-.37-.84-.68-1.27-1.59-1.38-2.66-.15-1.58.43-2.82,1.66-3.73.44-.33.94-.52,1.21-.56h0Zm.69,2.29c-.87.15-1.43.99-1.28,1.89.15.89.97,1.49,1.84,1.34.87-.15,1.44-.99,1.28-1.89-.16-.9-.98-1.5-1.84-1.35Zm11.86-2.08c-.87.14-1.44.96-1.29,1.87.14.9.95,1.51,1.82,1.37.86-.14,1.45-.99,1.31-1.86-.15-.91-.96-1.52-1.84-1.38h0Z"/>
      <path class="cls-1" d="m739.39,14.37c-.15-.84-.05-1.65.31-2.42.41-.89,1.04-1.53,1.9-1.92.89-.4,1.81-.45,2.75-.13.99.33,2.01.52,3.05.53.83,0,1.64-.1,2.42-.41.49-.19.98-.4,1.45-.64.5-.26.95-.59,1.4-.95,1.4-1.13,3.46-1.09,4.84.12.87.77,1.35,1.76,1.41,2.96.04.88-.17,1.71-.66,2.41-.53.77-1.23,1.34-2.13,1.6-.82.23-1.62.16-2.42-.13-1.02-.36-2.07-.5-3.14-.46-1.56.05-2.96.59-4.25,1.45-.4.27-.77.59-1.18.84-.78.49-1.64.62-2.54.46-1.15-.21-2.02-.87-2.67-1.86-.29-.44-.45-.93-.53-1.45h0Zm15.93-1.12c.86-.15,1.43-1,1.28-1.87-.17-.93-.97-1.52-1.85-1.37-.88.16-1.43.99-1.27,1.91.16.89.98,1.48,1.84,1.33h0Zm-13.69.73c.15.88.98,1.5,1.83,1.35.87-.14,1.44-.98,1.29-1.88-.15-.9-.97-1.51-1.85-1.36-.85.15-1.43,1-1.27,1.89Z"/>
      <path class="cls-1" d="m739.55,11.39c-.54.98-.73,1.98-.53,3.06.2,1.07.67,1.98,1.51,2.68-1.95-.34-3.79-.03-5.51.97.51-.95.7-1.96.5-3.03-.19-1.07-.69-1.97-1.51-2.69.96.15,1.91.2,2.85.03.94-.17,1.82-.54,2.69-1.02Z"/>
      <path class="cls-1" d="m715.85,15.56c-.54.98-.72,1.98-.53,3.06.2,1.07.67,1.98,1.51,2.68-1.95-.34-3.79-.03-5.51.97.51-.95.69-1.96.5-3.03-.19-1.07-.69-1.97-1.51-2.69.96.15,1.91.2,2.85.03.94-.17,1.82-.54,2.69-1.02Z"/>
      <path class="cls-1" d="m672.44,8.81c.93.28,1.5.65,2.01,1.15.84.84,1.81,1.48,2.89,1.96,1.32.59,2.68.7,4.08.57.42-.04.84-.15,1.27-.2,1.43-.19,2.63.28,3.58,1.43.75.91,1.07,1.98.91,3.16-.19,1.38-.89,2.39-2.09,3.02-.75.39-1.55.5-2.38.35-.76-.15-1.44-.5-2-1.08-.53-.54-1.12-1.02-1.76-1.41-.58-.36-1.19-.67-1.85-.88-1.1-.36-2.21-.46-3.34-.34-.54.06-1.07.17-1.6.24-.87.11-1.68-.11-2.42-.59-.49-.32-.92-.71-1.2-1.26-.1-.19-.22-.37-.31-.56-.48-.99-.5-2-.15-3,.52-1.48,1.56-2.32,3.05-2.58.54-.09,1.07-.03,1.33.04h0Zm-.32,2.36c-.85-.26-1.71.23-1.95,1.11-.23.87.27,1.78,1.11,2.04.85.26,1.72-.23,1.95-1.11.23-.88-.26-1.79-1.11-2.04h0Zm11.63,3.52c-.84-.27-1.7.21-1.95,1.08-.25.87.24,1.78,1.08,2.05.83.27,1.73-.22,1.96-1.07.24-.88-.25-1.79-1.1-2.06h0Z"/>
      <path class="cls-1" d="m691.84,17.99c.1-.85.44-1.58,1.01-2.21.66-.72,1.45-1.14,2.39-1.24.97-.11,1.86.13,2.66.72.85.62,1.76,1.12,2.76,1.44.79.26,1.59.41,2.42.35.53-.04,1.05-.07,1.57-.16.62-.1,1.21-.31,1.8-.55,1.37-.55,2.94-.15,3.91,1.01.99,1.18,1.32,2.51.95,3.92-.22.85-.67,1.57-1.34,2.1-.74.57-1.57.9-2.5.87-.85-.03-1.59-.35-2.28-.87-.87-.66-1.83-1.11-2.86-1.41-1.5-.43-2.99-.35-4.48.07-.46.13-.91.32-1.37.44-.89.22-1.75.09-2.56-.35-1.03-.55-1.67-1.45-1.99-2.59-.14-.5-.16-1.02-.07-1.54h0Zm15.54,3.84c.86.12,1.66-.51,1.78-1.39.12-.93-.47-1.75-1.36-1.87-.88-.12-1.66.5-1.78,1.42-.11.9.49,1.71,1.36,1.83Zm-13.28-3.51c-.12.89.49,1.72,1.35,1.85.87.13,1.67-.49,1.79-1.39.12-.91-.48-1.73-1.36-1.86-.85-.12-1.66.52-1.78,1.4Z"/>
      <path class="cls-1" d="m763.53,7.37c-.58.93-.8,1.92-.64,3,.16,1.07.61,2,1.43,2.75-1.96-.45-3.82-.26-5.59.63.55-.91.77-1.9.61-2.97-.16-1.08-.62-1.99-1.43-2.76.97.21,1.92.31,2.88.2.96-.11,1.85-.42,2.74-.85h0Z"/>
      <path class="cls-1" d="m692.81,14.82c-.82.73-1.3,1.62-1.45,2.7-.15,1.07.02,2.09.6,3.04-1.75-.98-3.6-1.32-5.55-.96.78-.72,1.27-1.6,1.42-2.68.15-1.08-.04-2.09-.6-3.05.87.47,1.76.83,2.71,1,.95.16,1.9.11,2.87-.05h0Z"/>
    </g>
  </g>
</svg>