<?xml version="1.0" encoding="UTF-8"?><svg id="Livello_2" xmlns="http://www.w3.org/2000/svg" viewBox="0 0 1600 301.43"><defs><style>.cls-1{fill:#523333;}.cls-2{fill:none;}</style></defs><g id="Layer_2"><g id="Layer_1-2"><path class="cls-1" d="m84.58,32.27c-1.99.31-3.37.14-4.75-.35-2.3-.82-4.67-1.15-7.1-1.09-2.97.08-5.65,1.13-8.16,2.62-.77.45-1.47,1.03-2.22,1.52-2.53,1.65-5.19,1.85-7.95.56-2.18-1.03-3.66-2.76-4.35-5.13-.8-2.76-.33-5.31,1.42-7.58,1.09-1.4,2.51-2.35,4.21-2.8,1.57-.41,3.14-.35,4.69.21,1.47.54,2.97.91,4.52,1.07,1.4.16,2.83.19,4.21,0,2.37-.33,4.56-1.13,6.59-2.39.96-.6,1.86-1.28,2.83-1.89,1.55-.99,3.27-1.32,5.07-1.09,1.19.14,2.34.51,3.31,1.3.33.27.71.49,1.05.76,1.74,1.42,2.62,3.32,2.81,5.52.27,3.25-1,5.79-3.58,7.62-.94.66-1.99,1.03-2.55,1.13h0l-.02.02Zm-1.38-4.74c1.82-.29,3.04-2,2.74-3.85-.29-1.83-1.99-3.11-3.81-2.82s-3.06,2-2.74,3.85c.29,1.87,1.99,3.11,3.81,2.84v-.02Zm-24.89,3.91c1.82-.27,3.04-1.94,2.76-3.79-.27-1.85-1.95-3.15-3.77-2.88-1.8.25-3.06,1.98-2.78,3.79.27,1.87,1.97,3.15,3.81,2.88h-.02Z"/><path class="cls-1" d="m40.95,30.77c.29,1.75.04,3.4-.73,4.96-.88,1.81-2.22,3.13-4.04,3.89-1.88.8-3.79.86-5.76.19-2.07-.72-4.19-1.13-6.36-1.17-1.74-.02-3.43.14-5.07.76-1.03.39-2.07.78-3.06,1.28-1.05.51-2.01,1.19-2.95,1.92-2.95,2.29-7.28,2.12-10.11-.41C1.07,40.55.09,38.49,0,36.04c-.06-1.81.4-3.5,1.44-4.94,1.15-1.56,2.62-2.74,4.5-3.23,1.72-.45,3.39-.27,5.07.35,2.11.78,4.31,1.09,6.57,1.05,3.27-.04,6.22-1.11,8.94-2.84.86-.54,1.63-1.19,2.49-1.71,1.65-.99,3.45-1.24,5.34-.86,2.39.47,4.21,1.85,5.53,3.91.59.91.92,1.92,1.07,3.01h0Zm-33.39,1.79c-1.8.29-3.04,2-2.74,3.81.31,1.92,1.99,3.17,3.83,2.86,1.84-.29,3.04-2,2.72-3.89-.31-1.83-2.01-3.09-3.81-2.8h0v.02Zm28.68-1.07c-.29-1.83-1.99-3.11-3.79-2.84-1.82.27-3.06,1.98-2.76,3.83.29,1.87,1.99,3.13,3.83,2.86,1.78-.27,3.01-2.02,2.72-3.85Z"/><path class="cls-1" d="m40.51,36.9c1.17-2,1.59-4.06,1.21-6.28-.38-2.2-1.34-4.1-3.08-5.56,4.08.76,7.93.19,11.58-1.83-1.09,1.94-1.53,4.02-1.15,6.24s1.38,4.08,3.08,5.6c-2.01-.35-4-.47-5.97-.14-1.99.31-3.83,1.05-5.65,2.02l-.02-.04Z"/><path class="cls-1" d="m90.27,29.08c1.17-2,1.59-4.06,1.21-6.28-.38-2.2-1.34-4.1-3.08-5.56,4.08.76,7.93.19,11.58-1.83-1.11,1.94-1.53,4.02-1.15,6.24s1.38,4.08,3.08,5.6c-2.01-.35-4-.47-5.97-.14-1.99.31-3.83,1.05-5.65,2.02l-.02-.04Z"/><path class="cls-1" d="m180.89,44.38c-1.95-.6-3.12-1.38-4.17-2.43-1.74-1.77-3.75-3.11-5.97-4.14-2.74-1.26-5.59-1.52-8.52-1.3-.9.06-1.78.27-2.66.37-2.99.33-5.51-.66-7.45-3.05-1.55-1.89-2.16-4.12-1.78-6.53.44-2.82,1.95-4.9,4.48-6.14,1.59-.76,3.27-.99,5-.64,1.59.33,2.99,1.07,4.17,2.29,1.09,1.13,2.32,2.12,3.64,2.97,1.21.76,2.47,1.42,3.83,1.87,2.28.76,4.63,1.03,6.99.8,1.13-.1,2.24-.31,3.35-.43,1.82-.21,3.52.27,5.04,1.28,1,.66,1.9,1.5,2.47,2.64.19.39.44.76.63,1.15.96,2.04.98,4.12.21,6.18-1.13,3.03-3.35,4.74-6.47,5.21-1.13.16-2.24.04-2.78-.14h0l-.02.04Zm.75-4.86c1.78.56,3.6-.43,4.1-2.22.5-1.77-.5-3.67-2.26-4.22-1.78-.56-3.6.41-4.12,2.2-.5,1.79.5,3.69,2.26,4.24h.02Zm-24.22-7.62c1.76.58,3.58-.37,4.12-2.16s-.44-3.69-2.2-4.26c-1.74-.58-3.62.41-4.12,2.14-.54,1.79.46,3.71,2.24,4.28h-.04Z"/><path class="cls-1" d="m140.6,24.86c-.25,1.75-.98,3.23-2.2,4.51-1.4,1.46-3.08,2.31-5.04,2.49-2.03.19-3.89-.33-5.55-1.56-1.76-1.32-3.66-2.35-5.74-3.05-1.65-.56-3.33-.91-5.07-.8-1.11.06-2.2.12-3.31.29-1.3.19-2.55.6-3.79,1.07-2.89,1.09-6.15.23-8.14-2.2-2.03-2.47-2.68-5.21-1.86-8.11.5-1.75,1.44-3.21,2.89-4.28,1.55-1.15,3.31-1.81,5.28-1.71,1.78.08,3.33.76,4.73,1.85,1.8,1.38,3.79,2.35,5.95,2.99,3.12.95,6.26.82,9.38,0,.96-.25,1.9-.64,2.89-.86,1.88-.43,3.66-.12,5.36.8,2.14,1.17,3.45,3.03,4.08,5.4.27,1.05.29,2.1.1,3.17h0l.04.02Zm-32.38-8.4c-1.8-.27-3.5.99-3.77,2.8-.27,1.92.94,3.62,2.78,3.89s3.5-.99,3.77-2.86c.27-1.85-.98-3.54-2.78-3.81v-.02Zm27.67,7.66c.27-1.83-.96-3.56-2.76-3.85-1.82-.29-3.52.95-3.79,2.82-.29,1.85.94,3.58,2.78,3.87,1.78.29,3.5-1.01,3.77-2.82v-.02Z"/><path class="cls-1" d="m138.86,30.38c1.72-1.5,2.74-3.32,3.08-5.54.31-2.2-.02-4.3-1.24-6.26,3.66,2.04,7.52,2.76,11.6,2.04-1.63,1.48-2.68,3.29-2.99,5.52-.33,2.22.06,4.3,1.24,6.28-1.82-.97-3.66-1.73-5.65-2.08s-3.98-.25-6.01.06h0l-.02-.02Z"/><path class="cls-1" d="m189.18,43.02c1.61-1.56,2.49-3.42,2.64-5.62.13-2.18-.42-4.22-1.8-6.05,3.89,1.79,7.87,2.27,11.95,1.32-1.53,1.54-2.43,3.38-2.55,5.58-.13,2.18.44,4.2,1.8,6.07-1.93-.84-3.87-1.48-5.92-1.71s-4.06,0-6.11.41Z"/><path class="cls-1" d="m306.54,43.31c1.99-.31,3.37-.14,4.75.35,2.3.82,4.67,1.15,7.1,1.09,2.97-.08,5.65-1.13,8.16-2.62.77-.45,1.47-1.03,2.22-1.52,2.53-1.65,5.19-1.85,7.95-.56,2.18,1.03,3.66,2.76,4.35,5.13.8,2.76.33,5.31-1.42,7.58-1.09,1.4-2.51,2.35-4.21,2.8-1.57.41-3.12.35-4.69-.21-1.47-.54-2.97-.91-4.52-1.07-1.4-.16-2.83-.19-4.21,0-2.37.33-4.56,1.13-6.59,2.39-.96.6-1.86,1.28-2.83,1.89-1.55.99-3.27,1.32-5.07,1.09-1.19-.14-2.34-.51-3.31-1.3-.33-.27-.71-.49-1.05-.76-1.74-1.42-2.62-3.32-2.81-5.52-.27-3.25,1-5.79,3.58-7.62.94-.66,1.99-1.03,2.55-1.13h0l.02-.02Zm1.38,4.74c-1.82.29-3.04,2-2.74,3.85.29,1.83,1.99,3.11,3.81,2.82,1.82-.29,3.06-2,2.74-3.85-.29-1.87-1.99-3.11-3.81-2.84v.02Zm24.89-3.91c-1.82.27-3.04,1.94-2.76,3.79.27,1.85,1.95,3.15,3.77,2.88,1.8-.25,3.06-1.98,2.81-3.79-.27-1.87-1.97-3.15-3.81-2.88h0Z"/><path class="cls-1" d="m350.16,44.79c-.29-1.75-.04-3.4.73-4.96.88-1.81,2.22-3.13,4.04-3.89,1.86-.8,3.79-.86,5.76-.19,2.07.72,4.19,1.13,6.36,1.17,1.74.02,3.43-.14,5.07-.76,1.03-.39,2.07-.78,3.06-1.28,1.05-.51,2.01-1.19,2.95-1.92,2.95-2.29,7.28-2.12,10.11.41,1.8,1.61,2.76,3.67,2.85,6.14.06,1.81-.4,3.5-1.44,4.94-1.15,1.56-2.62,2.74-4.5,3.23-1.72.45-3.39.27-5.07-.35-2.11-.78-4.31-1.09-6.57-1.05-3.27.04-6.22,1.11-8.94,2.84-.86.54-1.63,1.19-2.49,1.71-1.65.99-3.45,1.24-5.34.86-2.41-.47-4.21-1.85-5.53-3.91-.59-.91-.92-1.92-1.07-3.01h.02Zm33.39-1.79c1.8-.29,3.04-2,2.74-3.81-.31-1.92-1.99-3.17-3.83-2.86-1.84.29-3.04,2-2.72,3.89.31,1.83,2.01,3.09,3.81,2.8h0v-.02Zm-28.68,1.07c.29,1.83,1.99,3.11,3.79,2.84,1.82-.27,3.06-1.98,2.76-3.83-.29-1.87-1.99-3.13-3.83-2.86-1.78.27-3.01,2.02-2.72,3.85Z"/><path class="cls-1" d="m350.6,38.68c-1.17,2-1.59,4.06-1.21,6.28.38,2.2,1.34,4.1,3.08,5.56-4.08-.76-7.93-.19-11.58,1.83,1.09-1.94,1.53-4.02,1.15-6.24s-1.38-4.08-3.08-5.6c2.01.35,4,.47,5.97.14,1.99-.31,3.83-1.05,5.65-2.02l.02.04Z"/><path class="cls-1" d="m300.86,46.5c-1.17,2-1.59,4.06-1.21,6.28.38,2.2,1.34,4.1,3.08,5.56-4.08-.76-7.93-.19-11.58,1.83,1.11-1.94,1.53-4.02,1.15-6.24s-1.38-4.08-3.08-5.6c2.01.35,4,.47,5.99.14,1.99-.31,3.83-1.05,5.65-2.02v.04Z"/><path class="cls-1" d="m210.22,31.18c1.93.6,3.12,1.38,4.17,2.43,1.74,1.77,3.75,3.11,5.97,4.14,2.74,1.26,5.59,1.52,8.52,1.3.9-.06,1.78-.27,2.66-.37,2.99-.33,5.51.66,7.45,3.05,1.55,1.89,2.16,4.12,1.78,6.53-.44,2.82-1.95,4.9-4.48,6.14-1.59.76-3.27.99-5,.64-1.59-.33-2.99-1.07-4.17-2.29-1.09-1.13-2.32-2.12-3.64-2.97-1.21-.76-2.47-1.42-3.83-1.87-2.28-.76-4.63-1.03-6.99-.8-1.13.1-2.24.31-3.35.43-1.82.21-3.52-.27-5.04-1.28-1-.66-1.9-1.5-2.47-2.64-.19-.39-.44-.76-.63-1.15-.96-2.04-.98-4.12-.21-6.18,1.13-3.03,3.35-4.74,6.47-5.21,1.13-.16,2.24-.04,2.78.14h0l.02-.04Zm-.75,4.86c-1.78-.56-3.6.43-4.1,2.22-.5,1.77.5,3.67,2.26,4.22,1.78.56,3.6-.41,4.12-2.2.52-1.79-.5-3.69-2.26-4.24h-.02Zm24.22,7.62c-1.76-.58-3.58.37-4.12,2.16-.54,1.79.44,3.69,2.2,4.26,1.74.58,3.62-.41,4.12-2.14.52-1.79-.46-3.71-2.24-4.28h.04Z"/><path class="cls-1" d="m250.52,50.72c.25-1.75.98-3.23,2.2-4.51,1.4-1.46,3.08-2.31,5.04-2.49,2.03-.19,3.87.33,5.55,1.56,1.76,1.32,3.64,2.35,5.74,3.05,1.63.56,3.33.91,5.07.8,1.11-.06,2.2-.12,3.31-.29,1.3-.19,2.55-.6,3.79-1.07,2.89-1.09,6.15-.23,8.14,2.2,2.03,2.47,2.68,5.21,1.86,8.11-.5,1.75-1.44,3.21-2.89,4.28-1.55,1.15-3.31,1.81-5.28,1.71-1.78-.08-3.33-.76-4.73-1.85-1.8-1.38-3.79-2.35-5.95-2.99-3.12-.95-6.26-.82-9.38,0-.96.25-1.9.64-2.89.86-1.86.43-3.66.12-5.36-.8-2.14-1.17-3.45-3.03-4.08-5.4-.29-1.05-.29-2.1-.1-3.17h0l-.04-.02Zm32.41,8.4c1.8.27,3.5-.99,3.77-2.8.27-1.92-.94-3.62-2.78-3.89s-3.5.99-3.77,2.86c-.27,1.85.98,3.54,2.81,3.81l-.02.02Zm-27.67-7.66c-.27,1.83.96,3.56,2.76,3.85,1.82.29,3.52-.95,3.79-2.82.29-1.85-.94-3.58-2.78-3.87-1.78-.29-3.5,1.01-3.77,2.82v.02Z"/><path class="cls-1" d="m400.93,31.16c-1.26,1.89-1.74,3.93-1.44,6.16.29,2.2,1.21,4.14,2.91,5.7-4.08-.99-8-.66-11.72,1.13,1.17-1.85,1.67-3.87,1.38-6.1-.29-2.22-1.24-4.12-2.91-5.72,2.01.45,4.02.7,6.01.49,2.01-.19,3.89-.8,5.78-1.67h0Z"/><path class="cls-1" d="m252.67,44.21c-1.74,1.48-2.78,3.29-3.14,5.52-.36,2.2,0,4.3,1.17,6.28-3.64-2.08-7.49-2.82-11.58-2.16,1.65-1.46,2.7-3.25,3.06-5.48.36-2.2,0-4.3-1.17-6.3,1.8.99,3.66,1.77,5.63,2.14s3.96.29,6.01,0h.02Z"/><path class="cls-1" d="m485.43,39.7c-2.01.12-3.37-.16-4.69-.78-2.22-1.03-4.54-1.59-6.95-1.73-2.97-.19-5.74.6-8.37,1.85-.82.39-1.57.91-2.37,1.32-2.68,1.4-5.36,1.36-7.98-.19-2.07-1.24-3.39-3.09-3.83-5.5-.52-2.82.19-5.33,2.14-7.41,1.21-1.3,2.72-2.1,4.46-2.41,1.61-.27,3.16-.06,4.65.66,1.4.68,2.87,1.17,4.4,1.48,1.38.29,2.78.43,4.21.37,2.39-.1,4.65-.7,6.78-1.75,1-.49,1.99-1.11,2.99-1.63,1.63-.84,3.37-1.01,5.15-.62,1.17.27,2.28.72,3.18,1.59.31.31.67.56.96.86,1.59,1.56,2.28,3.54,2.26,5.77-.04,3.27-1.55,5.66-4.31,7.25-.98.58-2.07.84-2.66.89h0l-.02-.02Zm-.9-4.86c1.84-.1,3.22-1.71,3.1-3.58-.1-1.85-1.67-3.27-3.52-3.17-1.84.1-3.22,1.71-3.12,3.58.1,1.87,1.67,3.29,3.52,3.17h.02Zm-25.14,1.56c1.84-.08,3.22-1.65,3.12-3.52-.08-1.87-1.63-3.32-3.47-3.23-1.82.08-3.24,1.69-3.14,3.52.1,1.89,1.65,3.32,3.5,3.23h0Z"/><path class="cls-1" d="m442.14,34.14c.13,1.77-.29,3.38-1.19,4.88-1.07,1.73-2.51,2.9-4.4,3.5-1.95.62-3.87.49-5.74-.35-1.99-.91-4.06-1.52-6.24-1.77-1.72-.19-3.43-.16-5.11.29-1.07.29-2.14.58-3.16.99-1.09.41-2.11.99-3.12,1.63-3.16,2-7.45,1.44-10.03-1.36-1.63-1.77-2.41-3.91-2.26-6.36.13-1.81.75-3.46,1.93-4.8,1.3-1.44,2.87-2.47,4.79-2.78,1.76-.29,3.41.04,5.02.8,2.03.97,4.19,1.5,6.43,1.67,3.27.25,6.28-.54,9.17-2,.9-.45,1.74-1.03,2.64-1.46,1.74-.82,3.56-.91,5.4-.35,2.34.7,4,2.24,5.11,4.41.5.97.73,2,.77,3.09h0l-.02-.02Zm-33.41-1.34c-1.82.1-3.22,1.71-3.1,3.54.13,1.94,1.67,3.34,3.54,3.21,1.86-.12,3.22-1.71,3.08-3.6-.13-1.85-1.7-3.25-3.52-3.15h0Zm28.66,1.61c-.1-1.85-1.7-3.29-3.5-3.19-1.84.1-3.22,1.69-3.12,3.56.1,1.89,1.67,3.29,3.54,3.19,1.8-.1,3.2-1.73,3.1-3.56h-.02Z"/><path class="cls-1" d="m441.1,40.2c1.36-1.87,1.97-3.89,1.8-6.14s-.94-4.2-2.53-5.83c3.98,1.15,7.87.93,11.7-.74-1.28,1.83-1.9,3.85-1.74,6.1.15,2.24.98,4.18,2.53,5.85-1.97-.54-3.94-.84-5.92-.7-2.01.12-3.91.68-5.84,1.46Z"/><path class="cls-1" d="m491.38,37.07c1.36-1.87,1.97-3.89,1.8-6.14s-.94-4.2-2.53-5.83c3.98,1.15,7.87.93,11.7-.74-1.28,1.83-1.9,3.85-1.74,6.1.15,2.24.98,4.18,2.53,5.85-1.97-.54-3.94-.84-5.92-.7-2.01.12-3.91.68-5.82,1.46h-.02Z"/><path class="cls-1" d="m580.14,60.77c-1.86-.78-2.97-1.67-3.91-2.8-1.55-1.92-3.43-3.44-5.55-4.67-2.6-1.5-5.42-2.04-8.35-2.08-.9,0-1.78.1-2.68.12-3.01.06-5.42-1.17-7.12-3.73-1.36-2.04-1.76-4.3-1.15-6.67.71-2.78,2.41-4.69,5.04-5.7,1.65-.62,3.35-.68,5.02-.16,1.55.47,2.87,1.36,3.91,2.66.98,1.24,2.09,2.33,3.33,3.29,1.13.89,2.32,1.65,3.64,2.22,2.2.99,4.5,1.44,6.89,1.46,1.13,0,2.26-.1,3.39-.12,1.84-.04,3.47.6,4.9,1.75.94.76,1.76,1.67,2.2,2.86.15.41.36.8.52,1.21.77,2.12.59,4.2-.38,6.18-1.42,2.92-3.79,4.41-6.95,4.59-1.13.06-2.24-.19-2.76-.39h0v-.02Zm1.21-4.76c1.72.72,3.62-.08,4.31-1.83.67-1.73-.15-3.71-1.84-4.43-1.72-.72-3.64.08-4.31,1.81-.69,1.75.15,3.71,1.84,4.43h0v.02Zm-23.38-9.86c1.7.74,3.58-.04,4.31-1.77.71-1.73-.08-3.71-1.78-4.45-1.67-.74-3.64.06-4.33,1.75-.71,1.75.1,3.73,1.8,4.47h0Z"/><path class="cls-1" d="m541.89,37.56c-.42,1.71-1.28,3.13-2.62,4.28-1.53,1.32-3.29,2-5.25,2s-3.83-.7-5.36-2.08c-1.61-1.46-3.41-2.68-5.4-3.56-1.59-.7-3.22-1.19-4.96-1.28-1.11-.04-2.2-.08-3.31-.02-1.32.08-2.6.37-3.87.7-2.99.82-6.15-.35-7.89-2.94-1.78-2.64-2.16-5.44-1.07-8.24.67-1.69,1.76-3.07,3.29-3.99,1.65-.99,3.47-1.48,5.42-1.21,1.76.25,3.22,1.07,4.52,2.29,1.65,1.54,3.56,2.7,5.63,3.54,3.01,1.24,6.15,1.4,9.34.86.98-.16,1.97-.45,2.97-.6,1.9-.25,3.66.23,5.25,1.3,2.01,1.38,3.14,3.34,3.54,5.77.19,1.07.08,2.12-.21,3.17h0l-.02.02Zm-31.44-11.39c-1.76-.43-3.58.66-4.02,2.43-.46,1.89.59,3.69,2.41,4.14,1.8.45,3.58-.66,4.02-2.51.44-1.81-.63-3.62-2.41-4.06Zm26.82,10.21c.44-1.79-.61-3.64-2.37-4.1-1.78-.45-3.58.62-4.04,2.45-.46,1.83.61,3.67,2.41,4.12,1.74.45,3.58-.68,4.02-2.47h-.02Z"/><path class="cls-1" d="m539.63,42.9c1.86-1.34,3.06-3.05,3.6-5.23.54-2.16.4-4.28-.63-6.34,3.45,2.37,7.22,3.44,11.35,3.11-1.78,1.32-2.97,3.03-3.52,5.21-.54,2.18-.36,4.28.63,6.36-1.72-1.13-3.5-2.06-5.42-2.59-1.95-.54-3.94-.62-5.99-.49h0l-.02-.02Z"/><path class="cls-1" d="m588.51,60.19c1.76-1.42,2.83-3.17,3.16-5.35.33-2.16,0-4.24-1.21-6.2,3.71,2.14,7.62,2.99,11.79,2.43-1.67,1.4-2.74,3.13-3.08,5.31-.33,2.16.04,4.24,1.21,6.22-1.84-1.03-3.73-1.83-5.74-2.27-2.01-.41-4.04-.39-6.11-.16l-.02.02Z"/><path class="cls-1" d="m705.3,71.44c2.01-.12,3.37.16,4.69.78,2.2,1.03,4.54,1.59,6.95,1.73,2.97.19,5.74-.6,8.37-1.85.82-.39,1.55-.91,2.37-1.32,2.68-1.4,5.36-1.36,7.98.19,2.07,1.24,3.39,3.09,3.83,5.5.52,2.82-.19,5.33-2.14,7.41-1.21,1.3-2.72,2.1-4.46,2.41-1.61.27-3.16.06-4.63-.66-1.4-.68-2.87-1.17-4.4-1.48-1.38-.29-2.78-.43-4.21-.37-2.39.1-4.65.7-6.78,1.75-1.03.49-1.99,1.11-2.99,1.63-1.63.84-3.37,1.01-5.15.62-1.17-.27-2.28-.72-3.18-1.59-.31-.31-.67-.56-.96-.86-1.59-1.56-2.28-3.54-2.26-5.77.04-3.27,1.55-5.66,4.31-7.25.98-.58,2.07-.84,2.64-.89h0l.02.02Zm.9,4.86c-1.84.1-3.22,1.71-3.1,3.58.1,1.85,1.67,3.27,3.52,3.17s3.22-1.71,3.12-3.58c-.1-1.87-1.67-3.29-3.52-3.17h-.02Zm25.14-1.56c-1.84.08-3.2,1.65-3.12,3.52s1.63,3.32,3.47,3.23c1.82-.08,3.24-1.69,3.14-3.52-.1-1.89-1.65-3.32-3.5-3.23h0Z"/><path class="cls-1" d="m748.59,77c-.13-1.77.29-3.38,1.21-4.88,1.07-1.73,2.51-2.9,4.4-3.5,1.95-.62,3.87-.49,5.74.35,1.99.91,4.06,1.52,6.24,1.77,1.72.19,3.43.16,5.13-.29,1.07-.29,2.14-.58,3.16-.99,1.09-.41,2.11-.99,3.12-1.63,3.16-2,7.45-1.44,10.03,1.36,1.63,1.77,2.41,3.91,2.24,6.36-.13,1.81-.73,3.46-1.93,4.8-1.3,1.44-2.87,2.47-4.79,2.78-1.76.29-3.41-.04-5.02-.8-2.03-.97-4.19-1.5-6.43-1.67-3.24-.25-6.28.54-9.17,2-.9.45-1.74,1.03-2.66,1.46-1.74.82-3.56.91-5.4.35-2.34-.7-4-2.24-5.11-4.41-.48-.97-.73-2-.75-3.09h0v.02Zm33.41,1.34c1.82-.1,3.22-1.71,3.1-3.54-.13-1.94-1.67-3.34-3.54-3.21-1.86.12-3.22,1.71-3.08,3.6.13,1.85,1.7,3.25,3.52,3.15h0Zm-28.66-1.61c.1,1.85,1.7,3.29,3.5,3.19,1.84-.1,3.22-1.69,3.12-3.56-.1-1.89-1.67-3.29-3.54-3.19-1.8.1-3.2,1.73-3.1,3.56h.02Z"/><path class="cls-1" d="m749.64,70.94c-1.36,1.87-1.97,3.89-1.8,6.14.15,2.24.94,4.2,2.53,5.83-3.98-1.15-7.89-.93-11.7.74,1.28-1.83,1.9-3.85,1.74-6.1-.15-2.24-.98-4.18-2.53-5.85,1.97.54,3.94.84,5.92.7,2.01-.12,3.91-.68,5.84-1.46Z"/><path class="cls-1" d="m699.33,74.07c-1.36,1.87-1.97,3.89-1.8,6.14.17,2.24.94,4.2,2.53,5.83-3.98-1.15-7.89-.93-11.7.74,1.28-1.83,1.9-3.85,1.74-6.1-.15-2.24-.98-4.18-2.53-5.85,1.97.54,3.94.84,5.92.7,2.01-.12,3.91-.68,5.82-1.46h.02Z"/><path class="cls-1" d="m610.6,50.37c1.86.78,2.97,1.67,3.91,2.8,1.55,1.92,3.43,3.44,5.55,4.67,2.6,1.5,5.42,2.04,8.35,2.08.9,0,1.78-.1,2.68-.12,3.01-.06,5.42,1.17,7.12,3.73,1.36,2.04,1.76,4.3,1.15,6.67-.71,2.78-2.41,4.69-5.04,5.7-1.65.62-3.35.68-5.02.16-1.55-.47-2.87-1.36-3.91-2.66-.98-1.24-2.09-2.33-3.35-3.29-1.13-.89-2.32-1.65-3.62-2.22-2.2-.99-4.5-1.44-6.89-1.46-1.13,0-2.26.1-3.39.12-1.84.04-3.47-.6-4.9-1.75-.94-.76-1.76-1.67-2.2-2.86-.15-.41-.36-.8-.5-1.21-.77-2.12-.59-4.2.38-6.18,1.42-2.92,3.79-4.41,6.95-4.59,1.13-.06,2.24.19,2.76.39h0l-.02.02Zm-1.21,4.76c-1.72-.72-3.62.08-4.31,1.83-.67,1.73.15,3.71,1.84,4.43,1.72.72,3.64-.08,4.31-1.81.69-1.75-.15-3.71-1.84-4.43h0v-.02Zm23.38,9.86c-1.7-.74-3.6.04-4.31,1.77s.08,3.71,1.78,4.45c1.67.74,3.64-.06,4.31-1.75.71-1.75-.1-3.73-1.8-4.47h.02Z"/><path class="cls-1" d="m648.84,73.58c.42-1.71,1.28-3.13,2.62-4.28,1.53-1.32,3.29-2,5.25-2s3.83.7,5.36,2.08c1.61,1.46,3.41,2.68,5.4,3.56,1.59.7,3.22,1.19,4.96,1.28,1.11.04,2.22.08,3.31.02,1.32-.08,2.6-.37,3.87-.7,2.97-.82,6.15.35,7.89,2.94,1.78,2.64,2.18,5.44,1.07,8.24-.67,1.69-1.76,3.07-3.29,3.99-1.65.99-3.47,1.48-5.4,1.21-1.76-.25-3.22-1.07-4.54-2.29-1.65-1.54-3.56-2.7-5.63-3.54-3.01-1.24-6.15-1.4-9.34-.86-.98.16-1.97.45-2.97.6-1.9.25-3.66-.23-5.25-1.3-2.01-1.38-3.14-3.34-3.54-5.77-.19-1.07-.08-2.12.21-3.17h0l.02-.02Zm31.44,11.39c1.76.43,3.58-.66,4.02-2.43.46-1.89-.59-3.69-2.39-4.14-1.8-.45-3.58.66-4.04,2.51-.44,1.81.63,3.62,2.41,4.06Zm-26.82-10.21c-.44,1.79.61,3.64,2.37,4.1,1.78.45,3.58-.62,4.04-2.45s-.61-3.67-2.41-4.12c-1.74-.45-3.58.68-4.02,2.47h.02Z"/><path class="cls-1" d="m799.12,65.49c-1.09,2-1.42,4.06-.96,6.24.46,2.18,1.53,4.04,3.33,5.46-4.14-.68-8.02-.06-11.6,2,1.03-1.94,1.36-3.99.9-6.2-.46-2.18-1.55-4.02-3.35-5.5,2.05.31,4.06.39,6.03.04,1.99-.35,3.81-1.09,5.63-2.08h0l.02.04Z"/><path class="cls-1" d="m651.58,67.32c-1.88,1.32-3.1,3.03-3.66,5.19s-.44,4.28.57,6.36c-3.41-2.41-7.18-3.52-11.3-3.23,1.8-1.3,3.01-2.99,3.58-5.17.57-2.16.4-4.28-.54-6.38,1.7,1.15,3.47,2.1,5.4,2.66,1.93.56,3.91.66,5.99.56h0l-.02.02Z"/><path class="cls-1" d="m882.84,57.35c-1.95.54-3.33.51-4.75.16-2.39-.58-4.77-.64-7.16-.31-2.95.41-5.48,1.73-7.83,3.5-.71.54-1.34,1.19-2.03,1.75-2.32,1.92-4.96,2.41-7.85,1.42-2.28-.78-3.96-2.35-4.9-4.61-1.11-2.66-.92-5.25.57-7.68.92-1.52,2.22-2.62,3.85-3.25,1.51-.6,3.08-.7,4.67-.29,1.51.37,3.06.58,4.61.58,1.42,0,2.83-.12,4.19-.47,2.32-.58,4.42-1.63,6.28-3.09.88-.68,1.72-1.48,2.6-2.18,1.42-1.15,3.1-1.67,4.9-1.63,1.19.02,2.39.25,3.43.93.38.23.75.41,1.13.66,1.88,1.21,2.97,3.01,3.41,5.19.63,3.21-.36,5.87-2.72,7.97-.86.76-1.86,1.24-2.41,1.4h0l.02-.04Zm-1.9-4.57c1.78-.47,2.78-2.31,2.28-4.14-.5-1.79-2.32-2.86-4.1-2.39s-2.81,2.31-2.3,4.12,2.32,2.88,4.1,2.41h.02Zm-24.28,6.59c1.78-.45,2.81-2.24,2.32-4.08s-2.28-2.9-4.06-2.45c-1.76.45-2.83,2.31-2.34,4.08.48,1.83,2.3,2.92,4.1,2.47h0l-.02-.02Z"/><path class="cls-1" d="m839.32,60.61c.48,1.71.42,3.36-.17,5.02-.67,1.89-1.86,3.36-3.58,4.3-1.78.99-3.68,1.28-5.69.8-2.14-.49-4.29-.68-6.47-.47-1.72.16-3.39.51-4.94,1.32-.98.49-1.97,1.01-2.89,1.59-.98.64-1.86,1.4-2.72,2.22-2.68,2.59-6.99,2.9-10.11.68-1.97-1.4-3.16-3.36-3.52-5.79-.25-1.81,0-3.54.9-5.09.96-1.67,2.28-3.01,4.12-3.69,1.65-.64,3.35-.64,5.09-.21,2.2.54,4.42.62,6.64.33,3.24-.41,6.05-1.77,8.56-3.81.77-.62,1.49-1.36,2.28-1.96,1.53-1.15,3.29-1.59,5.21-1.42,2.43.21,4.38,1.38,5.92,3.29.69.84,1.13,1.81,1.38,2.86h-.02Zm-32.99,5.42c-1.76.47-2.78,2.33-2.3,4.08.52,1.87,2.32,2.92,4.12,2.43,1.8-.49,2.78-2.31,2.26-4.16-.5-1.79-2.32-2.84-4.1-2.37h0l.02.02Zm28.39-4.18c-.5-1.79-2.34-2.88-4.08-2.41-1.78.47-2.81,2.31-2.32,4.12.5,1.83,2.32,2.9,4.12,2.43,1.74-.47,2.76-2.33,2.28-4.12v-.02Z"/><path class="cls-1" d="m839.57,66.74c.94-2.1,1.11-4.2.5-6.38-.63-2.16-1.8-3.93-3.68-5.21,4.14.31,7.91-.68,11.3-3.07-.88,2.06-1.07,4.14-.44,6.32.61,2.16,1.82,3.91,3.68,5.23-2.03-.12-4.02-.02-5.97.49-1.93.51-3.68,1.46-5.4,2.62Z"/><path class="cls-1" d="m888.13,53.56c.94-2.1,1.11-4.2.5-6.38-.63-2.16-1.8-3.93-3.68-5.21,4.14.31,7.91-.68,11.3-3.07-.88,2.06-1.07,4.14-.44,6.32.63,2.16,1.82,3.91,3.68,5.23-2.03-.12-4.02-.02-5.97.49-1.93.51-3.68,1.46-5.4,2.62Z"/><path class="cls-1" d="m979.93,58.92c-1.99-.39-3.27-1.03-4.42-1.96-1.93-1.56-4.06-2.68-6.41-3.46-2.87-.95-5.74-.91-8.6-.37-.88.16-1.74.45-2.6.66-2.93.66-5.55-.06-7.75-2.22-1.76-1.71-2.62-3.85-2.51-6.3.13-2.86,1.38-5.09,3.75-6.59,1.49-.95,3.14-1.34,4.9-1.17,1.63.14,3.1.74,4.4,1.81,1.21,1.01,2.53,1.85,3.96,2.55,1.3.64,2.62,1.13,4.02,1.44,2.34.51,4.71.51,7.03.04,1.11-.23,2.18-.56,3.29-.8,1.78-.39,3.52-.1,5.17.72,1.09.56,2.07,1.28,2.74,2.35.23.37.52.7.75,1.09,1.19,1.94,1.44,3.99.9,6.12-.77,3.13-2.78,5.07-5.84,5.89-1.09.29-2.22.27-2.78.16h0v.04Zm.21-4.9c1.82.37,3.54-.82,3.83-2.66.31-1.83-.9-3.58-2.72-3.95s-3.54.8-3.85,2.66c-.31,1.83.9,3.6,2.72,3.97h0l.02-.02Zm-24.93-4.94c1.82.39,3.52-.76,3.85-2.59s-.84-3.6-2.68-3.99c-1.78-.39-3.56.8-3.87,2.57-.33,1.85.88,3.62,2.7,4.02h0Z"/><path class="cls-1" d="m937.66,43.88c-.04,1.77-.61,3.34-1.67,4.72-1.21,1.61-2.78,2.62-4.73,3.03-1.99.41-3.89.1-5.67-.97-1.88-1.11-3.89-1.94-6.03-2.41-1.7-.37-3.41-.54-5.13-.25-1.09.19-2.18.35-3.24.64-1.28.33-2.47.89-3.64,1.48-2.76,1.4-6.09.89-8.35-1.3-2.3-2.22-3.24-4.88-2.76-7.87.29-1.79,1.07-3.36,2.39-4.57,1.42-1.3,3.1-2.16,5.04-2.27,1.78-.1,3.39.41,4.92,1.34,1.93,1.17,4.04,1.92,6.24,2.33,3.2.6,6.3.12,9.32-1.03.94-.37,1.84-.84,2.78-1.17,1.82-.64,3.62-.51,5.4.21,2.26.93,3.77,2.64,4.67,4.92.4,1.01.52,2.06.46,3.15h0l.02.02Zm-33.14-4.82c-1.82-.08-3.37,1.36-3.43,3.19-.06,1.94,1.34,3.5,3.2,3.56,1.86.08,3.37-1.36,3.43-3.25.06-1.85-1.36-3.42-3.2-3.5Zm28.36,4.61c.06-1.85-1.36-3.44-3.18-3.54-1.84-.1-3.37,1.34-3.45,3.21s1.34,3.46,3.2,3.54c1.8.08,3.35-1.38,3.43-3.21h0Z"/><path class="cls-1" d="m936.57,49.57c1.55-1.69,2.37-3.6,2.43-5.85.08-2.22-.5-4.28-1.93-6.1,3.87,1.63,7.79,1.92,11.74.76-1.47,1.65-2.28,3.56-2.37,5.81s.54,4.26,1.93,6.12c-1.9-.76-3.85-1.32-5.86-1.46-2.01-.12-3.98.19-5.97.72h.02Z"/><path class="cls-1" d="m988.01,56.65c1.42-1.75,2.09-3.67,1.99-5.87-.1-2.18-.88-4.14-2.47-5.83,4.08,1.36,8.08,1.38,12.04,0-1.36,1.71-2.03,3.62-1.9,5.81.1,2.18.92,4.14,2.47,5.85-2.01-.64-4.02-1.05-6.09-1.05s-4.04.43-6.03,1.07v.02Z"/><path class="cls-1" d="m1104.67,44.17c1.95-.54,3.33-.51,4.75-.16,2.39.58,4.77.64,7.16.31,2.95-.41,5.48-1.73,7.81-3.5.71-.54,1.34-1.19,2.03-1.75,2.32-1.92,4.96-2.41,7.85-1.42,2.28.78,3.96,2.35,4.9,4.61,1.11,2.66.92,5.25-.57,7.68-.92,1.52-2.22,2.62-3.85,3.25-1.51.6-3.08.7-4.67.29-1.51-.37-3.06-.58-4.61-.58-1.42,0-2.83.12-4.19.47-2.32.58-4.42,1.63-6.28,3.09-.88.68-1.72,1.48-2.6,2.18-1.42,1.15-3.08,1.67-4.9,1.63-1.19-.02-2.39-.25-3.45-.93-.38-.23-.75-.41-1.13-.66-1.88-1.21-2.97-3.01-3.41-5.19-.63-3.21.36-5.87,2.72-7.97.86-.76,1.86-1.24,2.41-1.4h0l.02.04Zm1.9,4.57c-1.78.47-2.78,2.31-2.28,4.14.5,1.79,2.32,2.86,4.1,2.39,1.78-.47,2.81-2.31,2.3-4.12-.5-1.81-2.32-2.88-4.1-2.41h-.02Zm24.3-6.59c-1.78.45-2.81,2.24-2.32,4.08.48,1.81,2.28,2.9,4.06,2.45,1.76-.45,2.83-2.31,2.34-4.08-.48-1.83-2.3-2.92-4.1-2.47h0l.02.02Z"/><path class="cls-1" d="m1148.19,40.92c-.48-1.71-.42-3.36.17-5.02.67-1.89,1.86-3.36,3.58-4.3,1.78-.99,3.68-1.28,5.69-.8,2.14.49,4.29.68,6.47.47,1.72-.16,3.39-.51,4.94-1.32.98-.49,1.97-1.01,2.89-1.59.98-.64,1.86-1.4,2.72-2.22,2.68-2.59,6.99-2.9,10.11-.7,1.97,1.4,3.16,3.36,3.52,5.79.25,1.81,0,3.54-.88,5.09-.96,1.67-2.28,3.01-4.12,3.69-1.65.64-3.35.64-5.07.21-2.2-.54-4.42-.62-6.64-.33-3.24.41-6.05,1.77-8.56,3.81-.77.62-1.49,1.36-2.28,1.96-1.53,1.15-3.29,1.59-5.21,1.42-2.43-.21-4.38-1.38-5.92-3.29-.69-.84-1.13-1.81-1.38-2.86h0l-.02.02Zm32.99-5.42c1.76-.47,2.78-2.33,2.3-4.08-.52-1.87-2.32-2.92-4.12-2.43s-2.78,2.31-2.26,4.16c.5,1.79,2.32,2.84,4.1,2.37h0l-.02-.02Zm-28.39,4.18c.5,1.79,2.34,2.88,4.08,2.41,1.78-.47,2.81-2.31,2.32-4.12-.5-1.83-2.32-2.9-4.12-2.43-1.74.47-2.78,2.33-2.28,4.12v.02Z"/><path class="cls-1" d="m1147.96,34.78c-.94,2.1-1.11,4.2-.5,6.38.63,2.16,1.8,3.93,3.68,5.21-4.14-.31-7.91.68-11.3,3.07.88-2.06,1.07-4.14.44-6.32-.61-2.16-1.82-3.91-3.68-5.23,2.03.12,4.02.02,5.95-.49,1.93-.51,3.68-1.46,5.4-2.62h.02Z"/><path class="cls-1" d="m1099.39,47.96c-.94,2.1-1.11,4.2-.5,6.38.63,2.16,1.8,3.93,3.68,5.21-4.14-.31-7.91.68-11.3,3.07.88-2.06,1.07-4.14.44-6.32-.63-2.16-1.82-3.91-3.68-5.23,2.03.12,4.02.02,5.97-.49,1.93-.51,3.68-1.46,5.4-2.62Z"/><path class="cls-1" d="m1007.6,42.61c1.99.39,3.24,1.03,4.42,1.96,1.93,1.56,4.06,2.68,6.41,3.46,2.87.95,5.74.91,8.6.37.88-.16,1.74-.45,2.6-.66,2.93-.66,5.55.06,7.75,2.22,1.76,1.71,2.62,3.85,2.51,6.3-.13,2.86-1.38,5.09-3.75,6.59-1.49.95-3.14,1.34-4.9,1.17-1.63-.14-3.1-.74-4.4-1.81-1.21-1.01-2.53-1.87-3.96-2.55-1.3-.64-2.62-1.13-4.02-1.44-2.37-.51-4.71-.51-7.03-.04-1.11.23-2.2.56-3.29.8-1.78.39-3.52.1-5.17-.72-1.09-.56-2.07-1.28-2.74-2.35-.23-.37-.52-.7-.75-1.09-1.19-1.94-1.44-3.99-.9-6.12.77-3.13,2.78-5.07,5.84-5.89,1.09-.29,2.22-.27,2.78-.16h0v-.04Zm-.21,4.9c-1.82-.37-3.52.82-3.83,2.66-.31,1.83.9,3.58,2.72,3.95s3.54-.8,3.85-2.66c.31-1.83-.9-3.6-2.72-3.97h0l-.02.02Zm24.93,4.94c-1.8-.39-3.52.76-3.85,2.59s.84,3.6,2.68,3.99c1.78.39,3.56-.8,3.87-2.57.33-1.85-.88-3.62-2.7-4.02h0Z"/><path class="cls-1" d="m1049.84,57.64c.04-1.77.61-3.34,1.67-4.72,1.21-1.61,2.78-2.62,4.73-3.03,1.99-.41,3.89-.1,5.67.97,1.88,1.11,3.89,1.94,6.03,2.41,1.7.37,3.41.54,5.13.25,1.09-.19,2.18-.35,3.24-.64,1.26-.33,2.47-.89,3.64-1.48,2.76-1.4,6.09-.89,8.33,1.3,2.3,2.22,3.24,4.88,2.76,7.87-.29,1.79-1.07,3.36-2.39,4.57-1.42,1.3-3.08,2.16-5.04,2.27-1.78.1-3.39-.41-4.92-1.34-1.93-1.17-4.04-1.92-6.24-2.33-3.2-.6-6.32-.12-9.34,1.03-.94.37-1.82.84-2.78,1.17-1.82.64-3.62.51-5.4-.21-2.26-.93-3.77-2.64-4.67-4.92-.4-1.01-.52-2.06-.46-3.15h0l.02-.02Zm33.14,4.82c1.82.08,3.37-1.36,3.43-3.19.06-1.94-1.34-3.5-3.2-3.56-1.86-.08-3.37,1.36-3.43,3.25-.06,1.85,1.36,3.42,3.2,3.5Zm-28.36-4.61c-.06,1.85,1.36,3.44,3.18,3.54,1.84.1,3.37-1.34,3.45-3.21s-1.34-3.46-3.2-3.54c-1.8-.08-3.35,1.38-3.43,3.23v-.02Z"/><path class="cls-1" d="m1197.11,21.85c-1.03,2.02-1.28,4.1-.73,6.28.54,2.16,1.65,3.97,3.52,5.35-4.17-.56-8.02.23-11.53,2.39.96-1.98,1.24-4.04.69-6.22-.54-2.18-1.7-3.95-3.54-5.37,2.05.23,4.06.25,6.03-.16s3.77-1.24,5.55-2.29h0l.02.02Z"/><path class="cls-1" d="m1051.25,50.95c-1.57,1.67-2.41,3.58-2.49,5.83-.1,2.22.46,4.28,1.86,6.12-3.85-1.67-7.77-2-11.74-.89,1.49-1.63,2.32-3.54,2.43-5.79.1-2.24-.5-4.26-1.86-6.14,1.9.78,3.83,1.36,5.84,1.52,2.01.14,3.98-.14,5.99-.66h-.02Z"/><path class="cls-1" d="m1282.06,21.15c-1.99.35-3.37.21-4.75-.27-2.3-.78-4.69-1.07-7.1-.97-2.97.12-5.63,1.21-8.12,2.76-.75.47-1.44,1.05-2.2,1.56-2.51,1.69-5.17,1.94-7.93.68-2.2-1.01-3.73-2.72-4.44-5.07-.84-2.76-.42-5.31,1.3-7.6,1.07-1.42,2.47-2.39,4.14-2.86,1.57-.45,3.12-.41,4.69.14,1.47.51,2.97.84,4.52.99,1.4.12,2.83.12,4.21-.08,2.37-.35,4.54-1.21,6.55-2.49.94-.6,1.84-1.32,2.78-1.94,1.53-1.03,3.22-1.36,5.04-1.17,1.19.14,2.34.47,3.35,1.24.33.27.71.47,1.07.76,1.76,1.4,2.66,3.27,2.89,5.48.31,3.25-.9,5.81-3.47,7.68-.92.68-1.97,1.07-2.53,1.15h0Zm-1.44-4.72c1.82-.31,2.99-2.04,2.68-3.89-.31-1.83-2.03-3.07-3.85-2.76-1.82.31-3.01,2.04-2.7,3.89.33,1.85,2.05,3.09,3.85,2.78l.02-.02Zm-24.83,4.28c1.82-.29,3.01-1.98,2.72-3.85-.29-1.85-1.99-3.11-3.81-2.82-1.8.29-3.04,2.04-2.74,3.83.31,1.87,2.01,3.13,3.85,2.84h-.02Z"/><path class="cls-1" d="m1238.41,20.33c.31,1.73.1,3.4-.65,4.98-.86,1.83-2.18,3.15-3.98,3.95-1.86.82-3.79.93-5.76.27-2.07-.68-4.21-1.07-6.38-1.09-1.74,0-3.43.21-5.04.84-1.03.39-2.05.82-3.04,1.32-1.05.54-1.99,1.21-2.93,1.96-2.93,2.33-7.24,2.24-10.13-.25-1.82-1.59-2.83-3.62-2.95-6.1-.08-1.81.36-3.52,1.38-4.96,1.11-1.59,2.57-2.76,4.46-3.29,1.72-.47,3.39-.33,5.07.27,2.14.74,4.33,1.03,6.57.95,3.27-.1,6.2-1.21,8.9-2.99.84-.56,1.61-1.21,2.47-1.73,1.63-1.01,3.43-1.28,5.32-.95,2.41.43,4.23,1.79,5.59,3.83.61.91.94,1.92,1.11,2.99h0Zm-33.35,2.31c-1.8.31-2.99,2.06-2.68,3.85.36,1.92,2.03,3.13,3.87,2.82,1.84-.33,2.99-2.04,2.66-3.93-.33-1.83-2.05-3.05-3.85-2.74h0Zm28.66-1.5c-.31-1.81-2.05-3.09-3.83-2.78-1.82.29-3.01,2.02-2.7,3.87.31,1.85,2.03,3.11,3.87,2.8,1.78-.31,2.99-2.06,2.68-3.89h-.02Z"/><path class="cls-1" d="m1238.06,26.46c1.13-2.02,1.53-4.08,1.11-6.3-.42-2.2-1.4-4.08-3.16-5.52,4.08.7,7.93.06,11.53-2-1.07,1.96-1.47,4.04-1.05,6.24.4,2.2,1.44,4.06,3.18,5.54-2.01-.31-4-.41-5.97-.06s-3.81,1.11-5.63,2.1h-.02Z"/><path class="cls-1" d="m1287.69,17.88c1.13-2.02,1.53-4.08,1.11-6.3-.42-2.2-1.4-4.08-3.16-5.52,4.08.7,7.93.06,11.53-2-1.07,1.96-1.44,4.04-1.05,6.24.4,2.2,1.44,4.06,3.18,5.54-2.01-.31-4-.41-5.97-.06-1.97.35-3.81,1.11-5.63,2.1h-.02Z"/><path class="cls-1" d="m1378.54,31.78c-1.95-.58-3.14-1.34-4.21-2.37-1.76-1.73-3.79-3.05-6.05-4.04-2.76-1.21-5.61-1.44-8.54-1.17-.88.08-1.76.31-2.66.41-2.99.39-5.51-.58-7.49-2.94-1.57-1.87-2.24-4.08-1.9-6.51.4-2.84,1.86-4.92,4.38-6.22,1.57-.8,3.24-1.03,4.98-.72,1.61.31,3.01,1.03,4.19,2.22,1.11,1.11,2.34,2.1,3.68,2.9,1.21.74,2.49,1.38,3.85,1.81,2.3.74,4.63.95,6.99.7,1.13-.12,2.24-.35,3.35-.49,1.82-.23,3.52.23,5.07,1.21,1.03.66,1.93,1.46,2.51,2.59.21.39.46.76.65,1.15,1,2.04,1.05,4.12.31,6.18-1.09,3.05-3.27,4.78-6.38,5.31-1.11.19-2.24.06-2.78-.08h0l.06.04Zm.67-4.86c1.78.54,3.58-.47,4.08-2.29.48-1.79-.57-3.67-2.32-4.2-1.78-.54-3.6.47-4.08,2.29-.48,1.81.54,3.69,2.32,4.2h0Zm-24.35-7.25c1.76.56,3.56-.43,4.08-2.22.5-1.79-.5-3.67-2.28-4.22-1.74-.56-3.6.45-4.1,2.2-.5,1.81.52,3.69,2.3,4.24h0Z"/><path class="cls-1" d="m1337.93,12.87c-.21,1.75-.92,3.25-2.11,4.55-1.38,1.48-3.04,2.35-5,2.55-2.03.23-3.89-.27-5.57-1.48-1.78-1.28-3.68-2.31-5.78-2.97-1.65-.54-3.35-.84-5.07-.72-1.11.08-2.2.14-3.29.33-1.3.21-2.53.64-3.77,1.13-2.87,1.13-6.15.31-8.18-2.08-2.07-2.43-2.76-5.17-1.99-8.07.46-1.75,1.4-3.23,2.81-4.32,1.55-1.17,3.29-1.85,5.23-1.79,1.78.06,3.33.72,4.75,1.79,1.82,1.36,3.83,2.29,5.99,2.9,3.14.89,6.26.72,9.38-.14.96-.27,1.9-.66,2.89-.91,1.86-.45,3.66-.19,5.36.72,2.16,1.13,3.5,2.99,4.17,5.33.29,1.03.33,2.1.15,3.17h.04Zm-32.53-7.91c-1.8-.25-3.47,1.05-3.73,2.86-.25,1.92,1,3.6,2.85,3.85s3.47-1.03,3.73-2.92c.23-1.85-1.03-3.52-2.85-3.77v-.02Zm27.8,7.23c.25-1.83-1.03-3.54-2.83-3.81-1.82-.27-3.5,1.01-3.75,2.86-.25,1.87,1,3.58,2.85,3.83,1.78.25,3.47-1.07,3.73-2.88h0Z"/><path class="cls-1" d="m1336.3,18.43c1.7-1.52,2.7-3.38,2.99-5.6.29-2.22-.1-4.3-1.34-6.24,3.68,2,7.56,2.64,11.62,1.85-1.61,1.5-2.62,3.34-2.91,5.56s.13,4.3,1.34,6.26c-1.82-.95-3.71-1.67-5.69-2s-3.98-.19-6.01.16h0Z"/><path class="cls-1" d="m1386.81,30.29c1.59-1.61,2.45-3.46,2.53-5.66.1-2.18-.48-4.2-1.9-6.03,3.94,1.73,7.91,2.14,11.97,1.13-1.51,1.56-2.37,3.42-2.47,5.6-.1,2.2.52,4.2,1.9,6.05-1.95-.82-3.89-1.42-5.97-1.63-2.05-.19-4.06.04-6.09.51l.02.02Z"/><path class="cls-1" d="m1504.17,28.77c1.99-.35,3.37-.21,4.75.27,2.3.78,4.69,1.07,7.1.97,2.97-.12,5.63-1.21,8.12-2.76.75-.47,1.44-1.05,2.2-1.56,2.51-1.69,5.17-1.94,7.93-.68,2.2,1.01,3.71,2.72,4.44,5.07.84,2.76.42,5.31-1.3,7.6-1.07,1.42-2.47,2.39-4.14,2.86-1.57.45-3.12.41-4.69-.14-1.47-.51-2.97-.84-4.52-.99-1.4-.12-2.83-.12-4.21.08-2.37.35-4.54,1.21-6.55,2.49-.96.6-1.84,1.32-2.78,1.94-1.53,1.03-3.22,1.36-5.04,1.17-1.19-.14-2.34-.47-3.35-1.24-.33-.27-.71-.47-1.07-.76-1.76-1.4-2.66-3.27-2.89-5.48-.31-3.25.9-5.81,3.47-7.68.92-.68,1.97-1.07,2.53-1.15h0Zm1.44,4.72c-1.82.31-2.99,2.04-2.68,3.89.31,1.83,2.03,3.07,3.85,2.76,1.82-.31,3.01-2.04,2.68-3.89s-2.05-3.09-3.85-2.78v.02Zm24.83-4.28c-1.82.29-3.01,1.98-2.7,3.85.29,1.85,1.99,3.11,3.81,2.82,1.8-.29,3.04-2.04,2.74-3.83-.31-1.87-2.01-3.13-3.85-2.84h0Z"/><path class="cls-1" d="m1547.81,29.59c-.31-1.73-.1-3.4.65-4.98.86-1.83,2.18-3.15,3.98-3.95,1.86-.82,3.79-.93,5.76-.27,2.07.68,4.21,1.07,6.38,1.09,1.74,0,3.43-.21,5.07-.84,1.03-.39,2.05-.82,3.04-1.32,1.05-.54,1.99-1.21,2.93-1.96,2.93-2.33,7.24-2.24,10.13.25,1.82,1.59,2.83,3.62,2.95,6.1.08,1.81-.36,3.52-1.38,4.96-1.11,1.59-2.57,2.76-4.46,3.29-1.72.47-3.39.33-5.07-.27-2.14-.74-4.33-1.03-6.57-.95-3.27.1-6.2,1.21-8.9,2.99-.84.56-1.61,1.21-2.47,1.73-1.63,1.01-3.43,1.28-5.32.95-2.41-.43-4.23-1.79-5.59-3.83-.61-.91-.94-1.92-1.11-2.99h-.02Zm33.35-2.31c1.8-.31,2.99-2.06,2.68-3.85-.36-1.92-2.03-3.13-3.87-2.82-1.84.33-2.99,2.04-2.66,3.93.33,1.83,2.05,3.05,3.85,2.74h0Zm-28.66,1.5c.31,1.81,2.05,3.09,3.83,2.78,1.82-.29,3.01-2.02,2.7-3.87-.31-1.85-2.03-3.11-3.87-2.8-1.78.31-2.99,2.06-2.66,3.89Z"/><path class="cls-1" d="m1548.15,23.46c-1.13,2.02-1.53,4.08-1.11,6.3.42,2.2,1.4,4.08,3.16,5.52-4.08-.7-7.93-.06-11.53,2,1.07-1.96,1.47-4.04,1.05-6.24-.4-2.2-1.44-4.06-3.16-5.54,2.01.31,4,.41,5.97.06s3.81-1.11,5.63-2.1h0Z"/><path class="cls-1" d="m1498.53,32.04c-1.13,2.02-1.51,4.08-1.11,6.3.42,2.2,1.4,4.08,3.16,5.52-4.08-.7-7.93-.06-11.53,2,1.07-1.96,1.44-4.04,1.05-6.24-.4-2.2-1.44-4.06-3.16-5.54,2.01.31,4,.41,5.97.06s3.81-1.11,5.63-2.1h0Z"/><path class="cls-1" d="m1407.66,18.15c1.95.58,3.14,1.34,4.21,2.37,1.76,1.73,3.79,3.05,6.05,4.04,2.76,1.21,5.61,1.44,8.54,1.17.88-.08,1.76-.31,2.66-.41,2.99-.39,5.51.58,7.49,2.94,1.57,1.87,2.24,4.08,1.9,6.51-.4,2.84-1.86,4.92-4.38,6.22-1.57.8-3.24,1.03-4.98.72-1.59-.31-3.01-1.03-4.19-2.22-1.11-1.11-2.34-2.1-3.68-2.9-1.21-.74-2.49-1.38-3.87-1.81-2.3-.74-4.63-.95-6.99-.7-1.13.12-2.24.35-3.35.49-1.82.23-3.52-.23-5.07-1.21-1.03-.66-1.93-1.46-2.51-2.59-.21-.39-.46-.76-.65-1.15-1-2.04-1.05-4.12-.31-6.18,1.09-3.05,3.27-4.78,6.38-5.31,1.13-.19,2.24-.06,2.78.08h0l-.04-.04Zm-.67,4.86c-1.78-.54-3.58.47-4.08,2.29-.48,1.79.57,3.67,2.32,4.2,1.78.54,3.6-.47,4.08-2.29.48-1.81-.54-3.69-2.32-4.2h0Zm24.35,7.25c-1.76-.56-3.56.43-4.08,2.22-.52,1.79.5,3.67,2.26,4.22,1.74.56,3.62-.45,4.1-2.2.5-1.81-.52-3.69-2.3-4.24h.02Z"/><path class="cls-1" d="m1448.27,37.05c.21-1.75.92-3.25,2.11-4.55,1.38-1.48,3.04-2.35,5-2.55,2.03-.23,3.89.27,5.57,1.48,1.78,1.28,3.68,2.31,5.78,2.97,1.65.54,3.33.84,5.07.72,1.11-.08,2.2-.14,3.29-.33,1.3-.21,2.53-.64,3.77-1.13,2.87-1.13,6.15-.31,8.18,2.08,2.07,2.43,2.76,5.17,1.99,8.07-.46,1.75-1.4,3.23-2.81,4.32-1.55,1.17-3.29,1.85-5.23,1.79-1.78-.06-3.33-.72-4.77-1.79-1.82-1.36-3.83-2.29-5.99-2.9-3.14-.89-6.26-.72-9.38.14-.96.27-1.9.66-2.87.91-1.86.45-3.66.19-5.36-.72-2.16-1.13-3.5-2.99-4.17-5.33-.29-1.03-.33-2.1-.15-3.17h-.04Zm32.53,7.91c1.8.25,3.47-1.05,3.73-2.86.25-1.92-.98-3.6-2.85-3.85-1.84-.25-3.47,1.03-3.73,2.92-.23,1.85,1.03,3.52,2.85,3.77v.02Zm-27.8-7.23c-.25,1.83,1.03,3.54,2.83,3.81,1.82.27,3.5-1.01,3.75-2.86.25-1.87-1-3.56-2.85-3.83-1.78-.25-3.47,1.07-3.73,2.88h0Z"/><path class="cls-1" d="m1598.35,15.18c-1.21,1.92-1.67,3.95-1.34,6.18.33,2.2,1.28,4.12,2.99,5.66-4.1-.93-8-.54-11.7,1.3,1.15-1.87,1.61-3.91,1.28-6.12-.33-2.22-1.3-4.1-2.99-5.68,2.03.43,4.02.64,6.03.41,2.01-.23,3.87-.86,5.74-1.75h0Z"/><path class="cls-1" d="m1450.3,30.52c-1.72,1.5-2.72,3.34-3.04,5.56-.31,2.2.04,4.3,1.26,6.26-3.66-2.02-7.54-2.72-11.62-1.98,1.63-1.48,2.66-3.29,2.97-5.52.31-2.22-.08-4.3-1.26-6.28,1.82.97,3.68,1.71,5.67,2.06,1.99.33,3.98.23,6.01-.1h0Z"/></g><rect class="cls-2" y="1.43" width="1600" height="300"/></g></svg>