<?xml version="1.0" encoding="UTF-8"?>
<svg id="Layer_2" data-name="Layer 2" xmlns="http://www.w3.org/2000/svg" xmlns:xlink="http://www.w3.org/1999/xlink" viewBox="0 0 36.02 36.02">
  <defs>
    <style>
      .cls-1 {
        fill: #fff;
      }

      .cls-2 {
        fill: url(#radial-gradient-2);
      }

      .cls-3 {
        fill: url(#radial-gradient);
      }
    </style>
    <radialGradient id="radial-gradient" cx="13.39" cy="19.97" fx="13.39" fy="19.97" r="44.9" gradientTransform="translate(0 56.02) scale(1 -1)" gradientUnits="userSpaceOnUse">
      <stop offset="0" stop-color="#fd5"/>
      <stop offset=".33" stop-color="#ff543f"/>
      <stop offset=".35" stop-color="#fc5245"/>
      <stop offset=".5" stop-color="#e64771"/>
      <stop offset=".64" stop-color="#d53e91"/>
      <stop offset=".76" stop-color="#cc39a4"/>
      <stop offset=".84" stop-color="#c837ab"/>
    </radialGradient>
    <radialGradient id="radial-gradient-2" cx="5.8" cy="-196.95" fx="5.8" fy="-196.95" r="29.81" gradientTransform="translate(0 -131.68) scale(1 -.67)" gradientUnits="userSpaceOnUse">
      <stop offset="0" stop-color="#4168c9"/>
      <stop offset="1" stop-color="#4168c9" stop-opacity="0"/>
    </radialGradient>
  </defs>
  <g id="Layer_1-2" data-name="Layer 1">
    <g>
      <path class="cls-3" d="m28.03,36l-20,.02c-4.4,0-8-3.59-8.01-7.99L0,8.03C0,3.63,3.59.02,7.99.02L27.99,0c4.4,0,8,3.59,8.01,7.99l.02,20c0,4.4-3.59,8-7.99,8.01Z"/>
      <path class="cls-2" d="m28.03,36l-20,.02c-4.4,0-8-3.59-8.01-7.99L0,8.03C0,3.63,3.59.02,7.99.02L27.99,0c4.4,0,8,3.59,8.01,7.99l.02,20c0,4.4-3.59,8-7.99,8.01Z"/>
      <path class="cls-1" d="m18.01,25.01c-3.86,0-7-3.14-7-7s3.14-7,7-7,7,3.14,7,7-3.14,7-7,7Zm0-12c-2.76,0-5,2.24-5,5s2.24,5,5,5,5-2.24,5-5-2.24-5-5-5Z"/>
      <circle class="cls-1" cx="25.51" cy="10.51" r="1.5"/>
      <path class="cls-1" d="m24.01,31.01h-12c-3.86,0-7-3.14-7-7v-12c0-3.86,3.14-7,7-7h12c3.86,0,7,3.14,7,7v12c0,3.86-3.14,7-7,7ZM12.01,7.01c-2.76,0-5,2.24-5,5v12c0,2.76,2.24,5,5,5h12c2.76,0,5-2.24,5-5v-12c0-2.76-2.24-5-5-5h-12Z"/>
    </g>
  </g>
</svg>