<?xml version="1.0" encoding="UTF-8"?>
<svg id="Layer_2" data-name="Layer 2" xmlns="http://www.w3.org/2000/svg" viewBox="0 0 114 311.51">
  <defs>
    <style>
      .cls-1 {
        fill: #fff;
      }

      .cls-2 {
        fill: #9b2e26;
      }
    </style>
  </defs>
  <g id="Layer_1-2" data-name="Layer 1">
    <g>
      <path class="cls-2" d="m114,311.51H0V.01c2.03,0,4.07,0,6.1,0C41.46,0,76.83,0,112.19,0c1.78,0,1.78,0,1.78,1.6,0,102.76,0,205.52,0,308.29,0,.54.02,1.08.03,1.62Zm-74.54-36.68c-2.56-2.74-4.72-5.64-5.57-9.34-.81-3.53-.63-7.01.02-10.53.71-3.85-1.34-7.28-4.95-8.47-3.89-1.28-8.19,1.38-9.21,5.81-2.38,10.32-.54,19.86,5.62,28.47,3.91,5.46,9,9.65,15.33,11.99,7.41,2.75,15.02,3.13,22.7.98,4.17-1.17,8.12-2.82,11.32-5.83,2.54-2.39,2.88-6.44.88-8.98-2.63-3.34-6.2-3.96-9.61-2.13-2.68,1.45-5.62,2.43-8.46,3.58-1.15.46-1.92.08-2.48-1.1-1.72-3.64-1.87-7.39-.92-11.21.59-2.39.45-4.51-.97-6.65-3-4.52-9.15-4.1-11.86.27-1.42,2.3-1.69,4.94-1.84,7.56-.11,1.86-.02,3.72-.02,5.58Zm28.2-28.99c.12-.05.25-.11.37-.16,1.33,1.95,2.87,3.79,3.95,5.86,2.09,4.02,2.33,8.36,1.6,12.78-.35,2.14-.68,4.33.28,6.38,1.18,2.53,4.47,4.23,7.26,3.89,3.08-.37,5.78-2.63,6.36-5.53.97-4.8,1.38-9.65.51-14.51-1.85-10.45-7.5-18.3-16.47-23.86-4.78-2.96-9.99-4.46-15.56-4.82-8.46-.54-16.17,1.55-22.96,6.7-3.34,2.53-3.5,7.41-.5,10.31,2.22,2.14,5.95,3.16,9.37.83,2.34-1.6,4.87-2.87,7.74-3.3,1.84-.28,2.09-.17,2.79,1.59,1.51,3.84,1.34,7.72.44,11.66-.91,3.95,1.57,8.02,5.44,8.78,4.18.82,7.83-1.62,8.61-5.59.71-3.65,1.07-7.3.78-11.01Zm-16.67-44.77c-3.37,0-6.64.02-9.91-.04-.24,0-.66-.59-.66-.9-.01-3.08.09-6.16.06-9.24-.01-1.12.21-1.74,1.47-1.68.7.03,1.41-.17,2.11-.18,1.21-.01,1.42-.82,1.45-1.75.04-.97-.26-1.82-1.39-1.83-2.2-.02-4.4,0-6.59.15-.37.02-1,.71-1,1.09,0,7.49.08,14.98.13,22.48,0,.92.44,1.31,1.29,1.29.84-.01,1.59-.19,1.64-1.27.05-.87.17-1.74.21-2.61.03-.71.29-1.04,1.06-1.04,8.16.01,16.32.01,24.48,0,.71,0,.97.29,1,.95.04.91.08,1.83.17,2.74.11,1.08.88,1.31,1.79,1.29.86-.01,1.27-.44,1.27-1.33-.02-4.33-.02-8.66-.01-12.99,0-1.01-.58-1.32-1.44-1.29-.8.03-1.62.07-1.65,1.22-.04,1.21-.21,2.41-.2,3.61,0,.94-.27,1.34-1.28,1.33-2.91-.03-5.83,0-8.74.06-1.11.02-1.52-.32-1.48-1.51.1-2.95.07-5.91.01-8.87,0-.47-.35-1.19-.73-1.37-1.68-.78-3.05.16-3.05,1.98,0,3.15,0,6.31,0,9.7Zm-10.97-109.33c.21-.09.28-.15.36-.15,8.33-.02,16.66-.03,24.99,0,.29,0,.77.45.82.75.18,1.02.17,2.07.31,3.1.13.95.66,1.44,1.71,1.37,1.05-.07,1.33-.62,1.33-1.55-.01-4.33-.01-8.66,0-13,0-.91-.44-1.31-1.3-1.27-.84.04-1.73-.01-1.79,1.22-.05,1.25-.22,2.5-.2,3.74.02,1-.36,1.3-1.32,1.29-3-.04-6-.05-9,0-.97.02-1.19-.36-1.17-1.25.07-3,.02-6,.1-9,.03-1.09-.39-1.55-1.44-1.52-.42.01-.83,0-1.25,0-.83,0-1.21.42-1.2,1.24.02,1.37.02,2.75.03,4.12,0,2.07,0,4.14,0,6.37-3.39,0-6.63.02-9.86-.04-.26,0-.74-.55-.74-.85,0-3.29.08-6.58.09-9.87,0-.79.4-1,1.05-1.08.95-.11,1.93-.14,2.84-.4.44-.12.97-.64,1.07-1.08.4-1.68-.14-2.38-1.86-2.39-1.7,0-3.41.14-5.11.2-1.95.06-1.97.05-1.98,1.94,0,4.62,0,9.25.01,13.87,0,2.5.04,5,.1,7.49.02.82,0,1.76,1.26,1.73,1.15-.03,1.74-.6,1.83-1.76.08-1.11.22-2.22.33-3.26Zm16.91,39.74c2.63,2.03,5.04,3.95,7.52,5.76,1.11.81,1.94,1.64,1.95,3.11,0,1.21.84,1.48,1.89,1.44,1.07-.04,1.27-.68,1.27-1.6-.01-2.96-.01-5.91.04-8.87.02-.96-.36-1.42-1.29-1.4-.85.02-1.84-.16-1.92,1.18-.05.9-.16,1.79-.27,3.02-2.47-1.87-4.7-3.56-7.03-5.31,2.5-1.92,4.71-3.62,7.07-5.43.12.93.17,1.64.3,2.32.21,1.12,1.06,1.25,2,1.19.95-.06,1.11-.65,1.1-1.46-.02-3.17-.04-6.33.02-9.5.02-.92-.35-1.27-1.18-1.4-1.54-.23-1.96-.04-2.01,1.49-.06,1.64-.84,2.61-2.1,3.55-2.24,1.66-4.34,3.49-6.47,5.29-.5.42-.84.52-1.37.07-1.81-1.53-3.64-3.05-5.49-4.52-1.28-1.02-2.45-1.96-2.37-3.92.05-1.23-1.26-1-2.06-.94-.41.03-1.12.6-1.12.93-.04,3.08.03,6.16.09,9.24.02.96.64,1.14,1.45,1.08.75-.05,1.55.08,1.61-1.06.04-.85.2-1.7.32-2.67,1.96,1.54,3.77,2.97,5.58,4.41.48.39.42.68-.12,1.04-.89.6-1.71,1.32-2.56,1.99-.91.7-1.82,1.39-2.92,2.23-.11-.87-.23-1.47-.25-2.08-.03-1-.5-1.47-1.49-1.38-.87.08-1.77.1-1.74,1.41.07,3.04.1,6.08.09,9.12,0,1.17.71,1.21,1.57,1.22.89.02,1.54-.09,1.6-1.22.03-.63.12-1.48.53-1.84,2.56-2.25,5.21-4.38,7.79-6.52Zm9.23-95.14c.09.88.18,1.49.22,2.11.08,1.17.78,1.55,1.86,1.52,1.12-.03,1.33-.67,1.32-1.65,0-3.12.06-6.24.11-9.36.02-.92-.37-1.38-1.31-1.44-1.51-.1-2.04.21-2.05,1.73-.01,1.38-.65,2.19-1.66,2.99-2.32,1.83-4.57,3.74-6.81,5.66-.58.5-.96.42-1.49-.02-1.88-1.58-3.76-3.16-5.68-4.69-1.2-.96-2.17-1.91-2.11-3.69.05-1.41-1.28-.93-2.12-1.01-.84-.08-1.04.41-1.03,1.17.04,2.95.05,5.91.06,8.86,0,1.01.47,1.4,1.48,1.34.91-.06,1.66-.13,1.64-1.34-.01-.72.14-1.45.25-2.43,2.08,1.63,3.94,3.07,5.76,4.55.09.08-.06.67-.26.85-.75.66-1.56,1.24-2.34,1.86-.99.77-1.98,1.55-3.1,2.42-.13-.95-.27-1.65-.32-2.35-.06-.86-.49-1.24-1.31-1.03-.72.18-1.9-.38-1.87,1.15.06,3.08.08,6.16.08,9.24,0,1.11.6,1.28,1.52,1.28.91,0,1.52-.15,1.57-1.26.03-.67.12-1.57.56-1.94,2.4-2.06,4.9-4,7.41-5.92.27-.2.98-.15,1.28.07,2.06,1.55,3.98,3.29,6.1,4.74,1.57,1.07,2.56,2.28,2.56,4.23,0,1.24.97,1.01,1.73,1.02.78,0,1.39-.17,1.38-1.17-.03-3.25-.04-6.5-.02-9.74,0-1.01-.6-1.19-1.39-1.13-.74.05-1.67-.21-1.71,1.06-.03.97-.19,1.93-.31,3.12-2.47-1.87-4.71-3.56-7.05-5.33,2.42-1.87,4.64-3.58,7.08-5.46Zm-8.55,117.07h.02c0-1.62.04-3.25,0-4.87-.12-3.98-.13-3.93-4.13-3.84-4.07.09-8.61,2.86-8.93,8.44-.35,6.21,2.71,10.82,8.63,12.25,3.16.76,6.38.8,9.51-.15,2.63-.8,5.02-2.14,6.39-4.66.62-1.14,1.08-2.47,1.24-3.76.52-4.12-.42-7.94-2.84-11.34-.79-1.11-1.85-1.29-2.81-.62-.96.67-.86,1.16-.21,2.58.78,1.67,1.56,3.42,1.88,5.22.81,4.65-1.32,7.64-5.9,8.73-.53.13-1.06.21-1.59.3-.9.15-1.28-.18-1.26-1.15.05-2.37.02-4.74.02-7.12Zm-7.63,20.56h0c-4.16,0-8.33,0-12.49,0-1,0-2-.05-2.99.03-.3.02-.83.44-.81.62.25,2.35.5,4.7.93,7.02.2,1.05,1.18,1.29,2.19,1.18,1.07-.11,1.01-.9,1.03-1.67.01-.42.08-.83.1-1.24.1-1.89.1-1.95,2.06-1.95,7.78-.02,15.57,0,23.35,0,2.84,0,2.87.02,3.09,2.91.09,1.12.72,1.4,1.65,1.41,1.02,0,1.47-.46,1.45-1.54-.05-3.16-.02-6.33-.02-9.49,0-1.9-.14-1.99-1.99-1.8-.86.09-1.16.44-1.15,1.26,0,.62-.15,1.25-.12,1.87.07,1.08-.35,1.44-1.44,1.43-4.95-.05-9.91-.02-14.86-.02Zm5.9-69.93s0,.09,0,.14c-3.29,0-6.58,0-9.86,0-.79,0-1.16.34-1.06,1.14.25,2.02.44,4.04.78,6.05.16.98,1.14,1.32,2.42,1.17,1.07-.13.92-.86.88-1.57-.02-.37,0-.75,0-1.12,0-1.8,0-1.85,1.86-1.86,4.16-.02,8.33-.06,12.49.03,3.21.06,2.84-.66,2.97,2.94.05,1.38.84,1.39,1.81,1.43,1.06.04,1.45-.36,1.43-1.47-.07-3.33-.03-6.66-.03-9.99,0-1.71-.55-2.16-2.12-1.48-.45.19-.81.83-.98,1.33-.19.57-.18,1.24-.15,1.86.05,1.04-.33,1.47-1.43,1.45-3-.06-5.99-.02-8.99-.02Zm.11-42.84s0,.02,0,.03c-1.62,0-3.25,0-4.87,0-1.58,0-3.16-.01-4.74.04-.9.03-1.61.3-1.46,1.48.24,1.85.34,3.72.62,5.57.19,1.25,1.01,1.62,2.56,1.52,1.32-.09.86-1.06.94-1.76.05-.45.09-.92.02-1.37-.19-1.18.39-1.54,1.46-1.54,4.95.02,9.9,0,14.85.06.3,0,.76.46.84.78.18.76.17,1.57.25,2.35.12,1.2.94,1.27,1.9,1.25.94-.03,1.18-.49,1.18-1.36-.02-3.54.03-7.07,0-10.61,0-.39-.33-1.01-.64-1.11-1.38-.44-2.4.32-2.52,1.76-.05.58-.15,1.16-.12,1.74.05.95-.39,1.19-1.28,1.18-3-.04-5.99-.02-8.99-.02Zm-17.63,47.75c1.58.03,2.61-.88,2.64-2.33.03-1.55-1.02-2.61-2.64-2.65-1.7-.04-2.7.82-2.7,2.36,0,1.5,1.13,2.59,2.7,2.62Zm2.63-45c.03-1.64-1.04-2.73-2.7-2.74-1.59-.01-2.59.89-2.63,2.35-.04,1.54.99,2.55,2.67,2.61,1.76.06,2.63-.66,2.66-2.21Z"/>
      <g>
        <path class="cls-1" d="m39.46,274.89c0-1.86-.09-3.73.02-5.58.15-2.62.41-5.26,1.84-7.56,2.7-4.37,8.86-4.79,11.86-.27,1.42,2.14,1.56,4.26.97,6.65-.95,3.82-.8,7.57.92,11.21.56,1.18,1.33,1.56,2.48,1.1,2.84-1.15,5.77-2.14,8.46-3.58,3.41-1.84,6.98-1.21,9.61,2.13,2,2.54,1.66,6.59-.88,8.98-3.2,3.01-7.14,4.66-11.32,5.83-7.67,2.15-15.29,1.77-22.7-.98-6.33-2.35-11.42-6.53-15.33-11.99-6.16-8.6-8-18.15-5.62-28.47,1.02-4.43,5.32-7.09,9.21-5.81,3.61,1.19,5.67,4.62,4.95,8.47-.65,3.52-.83,7-.02,10.53.85,3.69,3.01,6.6,5.57,9.34Zm17.63,7.63c-.02-.08-.02.02.02.08.06.1.15.19.24.28,2.99,3.18,6.9,4.49,11.01,5.38,2.24.49,4.09-.04,5.54-1.89,1.57-1.98,1.65-4.69.14-6.71-1.41-1.9-4.36-2.77-6.48-1.78-1.31.61-2.46,1.55-3.78,2.12-2.15.92-4.38,1.66-6.69,2.51Z"/>
        <path class="cls-1" d="m67.67,245.9c.29,3.71-.06,7.36-.78,11.01-.77,3.97-4.43,6.41-8.61,5.59-3.87-.76-6.35-4.83-5.44-8.78.9-3.93,1.08-7.82-.44-11.66-.69-1.76-.95-1.87-2.79-1.59-2.88.44-5.4,1.7-7.74,3.3-3.41,2.33-7.15,1.32-9.37-.83-3-2.9-2.83-7.78.5-10.31,6.79-5.15,14.5-7.25,22.96-6.7,5.57.36,10.78,1.86,15.56,4.82,8.98,5.56,14.62,13.41,16.47,23.86.86,4.86.46,9.71-.51,14.51-.59,2.9-3.28,5.16-6.36,5.53-2.78.33-6.07-1.36-7.26-3.89-.96-2.05-.63-4.24-.28-6.38.73-4.42.49-8.76-1.6-12.78-1.08-2.08-2.62-3.92-3.95-5.86-.12.05-.25.11-.37.16Zm-17.56-7.48c-.17-.2-.35-.46-.58-.68-3.22-3.07-7.14-4.61-11.49-5.21-2.88-.39-5.94,2.2-6.03,5.1-.14,4.37,4.16,7.16,8.12,5.25,1.08-.52,2.07-1.25,3.17-1.72,2.2-.95,4.44-1.79,6.81-2.73Z"/>
        <g>
          <path class="cls-1" d="m51,201.13c0-3.4,0-6.55,0-9.7,0-1.82,1.37-2.76,3.05-1.98.38.18.72.89.73,1.37.06,2.95.08,5.91-.01,8.87-.04,1.19.37,1.53,1.48,1.51,2.91-.06,5.83-.09,8.74-.06,1.01.01,1.28-.39,1.28-1.33,0-1.2.17-2.41.2-3.61.03-1.16.85-1.19,1.65-1.22.86-.03,1.44.28,1.44,1.29-.01,4.33,0,8.66.01,12.99,0,.89-.41,1.32-1.27,1.33-.91.01-1.69-.21-1.79-1.29-.09-.91-.13-1.83-.17-2.74-.03-.66-.29-.95-1-.95-8.16.02-16.32.02-24.48,0-.76,0-1.03.33-1.06,1.04-.04.87-.17,1.74-.21,2.61-.06,1.08-.8,1.26-1.64,1.27-.84.01-1.28-.38-1.29-1.29-.04-7.49-.13-14.98-.13-22.48,0-.38.63-1.07,1-1.09,2.19-.14,4.39-.17,6.59-.15,1.13.01,1.43.86,1.39,1.83-.04.93-.24,1.74-1.45,1.75-.7,0-1.41.21-2.11.18-1.26-.06-1.48.56-1.47,1.68.03,3.08-.08,6.16-.06,9.24,0,.31.43.9.66.9,3.27.06,6.55.04,9.91.04Z"/>
          <path class="cls-1" d="m40.03,91.8c-.11,1.04-.25,2.14-.33,3.26-.08,1.16-.68,1.73-1.83,1.76-1.25.03-1.24-.91-1.26-1.73-.06-2.5-.09-5-.1-7.49-.02-4.62-.02-9.25-.01-13.87,0-1.89.03-1.88,1.98-1.94,1.71-.05,3.41-.21,5.11-.2,1.72,0,2.27.71,1.86,2.39-.1.43-.64.95-1.07,1.08-.91.26-1.89.28-2.84.4-.65.08-1.05.29-1.05,1.08,0,3.29-.1,6.58-.09,9.87,0,.3.48.85.74.85,3.24.06,6.47.04,9.86.04,0-2.23,0-4.3,0-6.37,0-1.37,0-2.75-.03-4.12-.01-.82.37-1.24,1.2-1.24.42,0,.83,0,1.25,0,1.05-.03,1.47.43,1.44,1.52-.08,3-.03,6-.1,9-.02.89.19,1.27,1.17,1.25,3-.05,6-.05,9,0,.96.01,1.34-.28,1.32-1.29-.02-1.25.15-2.49.2-3.74.05-1.23.95-1.18,1.79-1.22.87-.04,1.31.36,1.3,1.27-.01,4.33-.01,8.66,0,13,0,.93-.28,1.48-1.33,1.55-1.06.07-1.58-.42-1.71-1.37-.14-1.03-.13-2.08-.31-3.1-.05-.3-.53-.75-.82-.75-8.33-.03-16.66-.01-24.99,0-.07,0-.15.06-.36.15Z"/>
          <path class="cls-1" d="m56.94,131.54c-2.58,2.14-5.24,4.28-7.79,6.52-.41.36-.5,1.21-.53,1.84-.05,1.13-.71,1.24-1.6,1.22-.86-.02-1.57-.05-1.57-1.22,0-3.04-.01-6.08-.09-9.12-.03-1.32.87-1.33,1.74-1.41.98-.09,1.46.38,1.49,1.38.02.61.14,1.21.25,2.08,1.1-.84,2.02-1.53,2.92-2.23.85-.66,1.67-1.38,2.56-1.99.54-.37.6-.66.12-1.04-1.81-1.44-3.62-2.86-5.58-4.41-.12.97-.28,1.82-.32,2.67-.06,1.14-.86,1.01-1.61,1.06-.81.06-1.43-.12-1.45-1.08-.05-3.08-.13-6.16-.09-9.24,0-.33.71-.9,1.12-.93.79-.06,2.11-.3,2.06.94-.08,1.95,1.09,2.9,2.37,3.92,1.85,1.48,3.68,2.99,5.49,4.52.54.46.87.36,1.37-.07,2.13-1.8,4.23-3.64,6.47-5.29,1.27-.94,2.04-1.91,2.1-3.55.05-1.54.47-1.72,2.01-1.49.83.12,1.2.48,1.18,1.4-.06,3.16-.04,6.33-.02,9.5,0,.81-.15,1.4-1.1,1.46-.95.06-1.79-.07-2-1.19-.13-.69-.18-1.39-.3-2.32-2.36,1.81-4.57,3.51-7.07,5.43,2.32,1.76,4.55,3.44,7.03,5.31.11-1.23.22-2.13.27-3.02.08-1.34,1.07-1.16,1.92-1.18.93-.02,1.31.44,1.29,1.4-.05,2.96-.05,5.91-.04,8.87,0,.91-.2,1.55-1.27,1.6-1.05.04-1.88-.23-1.89-1.44,0-1.47-.84-2.3-1.95-3.11-2.49-1.81-4.89-3.73-7.52-5.76Z"/>
          <path class="cls-1" d="m66.17,36.4c-2.43,1.88-4.66,3.59-7.08,5.46,2.34,1.77,4.58,3.46,7.05,5.33.12-1.19.28-2.15.31-3.12.04-1.27.97-1.01,1.71-1.06.79-.05,1.39.13,1.39,1.13-.01,3.25,0,6.5.02,9.74,0,1-.61,1.17-1.38,1.17-.76,0-1.73.22-1.73-1.02,0-1.95-.99-3.16-2.56-4.23-2.12-1.45-4.05-3.19-6.1-4.74-.29-.22-1.01-.27-1.28-.07-2.51,1.92-5.01,3.86-7.41,5.92-.43.37-.52,1.28-.56,1.94-.06,1.11-.66,1.26-1.57,1.26-.92,0-1.53-.17-1.52-1.28,0-3.08-.02-6.16-.08-9.24-.03-1.52,1.15-.96,1.87-1.15.82-.21,1.25.17,1.31,1.03.05.7.19,1.4.32,2.35,1.12-.87,2.11-1.65,3.1-2.42.79-.61,1.6-1.2,2.34-1.86.2-.18.36-.77.26-.85-1.82-1.48-3.67-2.92-5.76-4.55-.11.99-.27,1.71-.25,2.43.02,1.21-.73,1.28-1.64,1.34-1.01.06-1.47-.32-1.48-1.34,0-2.96-.02-5.91-.06-8.86-.01-.76.2-1.25,1.03-1.17.83.08,2.16-.4,2.12,1.01-.06,1.78.91,2.73,2.11,3.69,1.92,1.53,3.8,3.11,5.68,4.69.53.45.91.52,1.49.02,2.24-1.93,4.5-3.83,6.81-5.66,1.01-.8,1.65-1.61,1.66-2.99.01-1.52.54-1.84,2.05-1.73.94.06,1.33.53,1.31,1.44-.05,3.12-.12,6.24-.11,9.36,0,.99-.21,1.62-1.32,1.65-1.07.03-1.77-.34-1.86-1.52-.04-.62-.13-1.23-.22-2.11Z"/>
          <path class="cls-1" d="m57.63,153.47c0,2.37.04,4.74-.02,7.12-.02.97.35,1.3,1.26,1.15.53-.09,1.07-.17,1.59-.3,4.58-1.09,6.71-4.08,5.9-8.73-.31-1.8-1.1-3.55-1.88-5.22-.66-1.41-.76-1.9.21-2.58.96-.67,2.02-.48,2.81.62,2.42,3.4,3.36,7.23,2.84,11.34-.16,1.29-.62,2.61-1.24,3.76-1.37,2.52-3.76,3.86-6.39,4.66-3.13.95-6.34.91-9.51.15-5.93-1.43-8.99-6.04-8.63-12.25.32-5.58,4.86-8.35,8.93-8.44,4-.09,4.02-.13,4.13,3.84.05,1.62,0,3.25,0,4.87h-.02Zm-3.49,7.79c.09-.13.17-.2.18-.27.05-3.74.11-7.49.08-11.23,0-.3-.58-.81-.92-.84-2.3-.22-4.25,1.1-5.04,3.28-1.35,3.74,1.15,8.63,5.71,9.07Z"/>
          <path class="cls-1" d="m50,174.03c4.95,0,9.91-.03,14.86.02,1.09.01,1.51-.35,1.44-1.43-.04-.62.13-1.24.12-1.87-.01-.82.29-1.17,1.15-1.26,1.85-.18,1.99-.1,1.99,1.8,0,3.16-.04,6.33.02,9.49.02,1.09-.43,1.54-1.45,1.54-.93,0-1.57-.29-1.65-1.41-.22-2.89-.25-2.9-3.09-2.91-7.78-.01-15.57-.03-23.35,0-1.96,0-1.96.06-2.06,1.95-.02.42-.09.83-.1,1.24-.02.76.04,1.56-1.03,1.67-1.01.11-2-.13-2.19-1.18-.43-2.32-.68-4.68-.93-7.02-.02-.19.51-.6.81-.62.99-.08,2-.03,2.99-.03,4.16,0,8.33,0,12.49,0h0Z"/>
          <path class="cls-1" d="m55.9,104.1c3,0,6-.04,8.99.02,1.11.02,1.48-.4,1.43-1.45-.03-.62-.04-1.28.15-1.86.17-.51.53-1.14.98-1.33,1.57-.68,2.12-.23,2.12,1.48,0,3.33-.04,6.66.03,9.99.02,1.11-.37,1.51-1.43,1.47-.97-.04-1.76-.05-1.81-1.43-.13-3.6.24-2.87-2.97-2.94-4.16-.08-8.33-.05-12.49-.03-1.86.01-1.86.05-1.86,1.86,0,.37-.01.75,0,1.12.03.71.19,1.44-.88,1.57-1.28.16-2.26-.19-2.42-1.17-.34-2-.53-4.03-.78-6.05-.1-.8.27-1.14,1.06-1.14,3.29,0,6.58,0,9.86,0,0-.05,0-.09,0-.14Z"/>
          <path class="cls-1" d="m56.01,61.26c3,0,5.99-.03,8.99.02.89.01,1.32-.23,1.28-1.18-.03-.58.07-1.16.12-1.74.13-1.44,1.15-2.21,2.52-1.76.31.1.64.72.64,1.11.04,3.54-.01,7.07,0,10.61,0,.86-.24,1.33-1.18,1.36-.95.03-1.78-.05-1.9-1.25-.08-.79-.07-1.59-.25-2.35-.08-.32-.55-.78-.84-.78-4.95-.06-9.9-.04-14.85-.06-1.07,0-1.65.35-1.46,1.54.07.45.03.92-.02,1.37-.08.7.39,1.67-.94,1.76-1.55.11-2.37-.26-2.56-1.52-.28-1.85-.38-3.72-.62-5.57-.15-1.18.56-1.45,1.46-1.48,1.58-.05,3.16-.03,4.74-.04,1.62,0,3.25,0,4.87,0,0-.01,0-.02,0-.03Z"/>
          <path class="cls-1" d="m38.38,109.01c-1.57-.03-2.7-1.12-2.7-2.62,0-1.53.99-2.4,2.7-2.36,1.62.04,2.68,1.1,2.64,2.65-.03,1.45-1.06,2.36-2.64,2.33Z"/>
          <path class="cls-1" d="m41.01,64.01c-.03,1.55-.89,2.27-2.66,2.21-1.68-.05-2.71-1.06-2.67-2.61.04-1.46,1.04-2.36,2.63-2.35,1.66.01,2.73,1.1,2.7,2.74Z"/>
        </g>
        <path class="cls-2" d="m57.1,282.52c2.31-.85,4.54-1.59,6.69-2.51,1.32-.57,2.48-1.51,3.78-2.12,2.12-.98,5.06-.12,6.48,1.78,1.51,2.02,1.42,4.72-.14,6.71-1.45,1.84-3.3,2.37-5.54,1.89-4.11-.89-8.02-2.2-11.01-5.38-.08-.09-.17-.18-.24-.28-.04-.07-.04-.16-.02-.08Z"/>
        <path class="cls-2" d="m50.1,238.42c-2.37.95-4.62,1.79-6.81,2.73-1.1.48-2.09,1.2-3.17,1.72-3.96,1.91-8.26-.88-8.12-5.25.09-2.9,3.15-5.49,6.03-5.1,4.35.59,8.27,2.13,11.49,5.21.23.22.41.48.58.68Z"/>
      </g>
      <path class="cls-2" d="m54.4,149.76l-.08,11.23-.18.27s-2.84-.12-4.85-2.95-.91-5.94-.91-5.94c0,0,.59-2.46,3.25-3.29,2.66-.68,2.78.68,2.78.68Z"/>
    </g>
  </g>
</svg>