<?xml version="1.0" encoding="UTF-8"?>
<svg id="Layer_2" data-name="Layer 2" xmlns="http://www.w3.org/2000/svg" viewBox="0 0 24 24">
  <defs>
    <style>
      .cls-1 {
        fill: #fff;
      }

      .cls-2 {
        fill: #38a02d;
      }
    </style>
  </defs>
  <g id="Layer_1-2" data-name="Layer 1">
    <g>
      <rect class="cls-1" x="3.08" y="2.69" width="17.99" height="18.65"/>
      <path class="cls-2" d="m12.04,5.34c-3.64,0-6.59,2.96-6.59,6.59,0,1.48.43,2.59,1.16,3.76l-.67,2.43,2.49-.65c1.12.66,2.18,1.06,3.6,1.06,3.63,0,6.59-2.96,6.59-6.59,0-3.64-2.94-6.59-6.59-6.59Zm3.88,9.42c-.16.46-.96.89-1.34.94-.34.05-.77.07-1.25-.08-.29-.09-.66-.21-1.13-.42-1.99-.86-3.28-2.86-3.38-2.99s-.81-1.07-.81-2.05.51-1.45.69-1.65c.18-.2.4-.25.53-.25h.38c.12.01.28-.04.45.35.16.4.56,1.37.61,1.47.05.1.08.22.02.35-.07.13-.1.22-.2.33l-.3.35c-.1.1-.2.21-.09.4.12.2.51.85,1.1,1.37.76.68,1.4.88,1.59.98s.31.08.43-.05c.12-.13.49-.58.63-.78s.26-.16.45-.1,1.16.55,1.35.64c.2.1.33.15.38.23.05.09.05.48-.12.95ZM19,0H5C2.24,0,0,2.24,0,5v14c0,2.76,2.24,5,5,5h14c2.76,0,5-2.24,5-5V5C24,2.24,21.76,0,19,0Zm-6.97,19.86c-1.33,0-2.63-.33-3.79-.97l-4.2,1.1,1.12-4.11c-.69-1.2-1.06-2.57-1.06-3.96,0-4.37,3.56-7.93,7.93-7.93,2.12,0,4.11.83,5.61,2.33s2.32,3.49,2.32,5.61c0,4.37-3.56,7.93-7.93,7.93Z"/>
    </g>
  </g>
</svg>