<?xml version="1.0" encoding="UTF-8"?><svg id="Livello_2" xmlns="http://www.w3.org/2000/svg" viewBox="0 0 803.97 534.37"><defs><style>.cls-1{stroke-width:.33px;}.cls-1,.cls-2,.cls-3,.cls-4,.cls-5,.cls-6,.cls-7,.cls-8,.cls-9,.cls-10,.cls-11,.cls-12,.cls-13,.cls-14,.cls-15{stroke-linecap:round;}.cls-1,.cls-2,.cls-4,.cls-5,.cls-6,.cls-16,.cls-17,.cls-18,.cls-19,.cls-20,.cls-7,.cls-21,.cls-9,.cls-10,.cls-13,.cls-14{stroke-linejoin:bevel;}.cls-1,.cls-2,.cls-4,.cls-5,.cls-16,.cls-17,.cls-7,.cls-14{stroke:gray;}.cls-1,.cls-2,.cls-22{fill:gray;}.cls-2{stroke-width:.81px;}.cls-23{fill:#fff;}.cls-3{stroke-dasharray:0 0 1.58 1.58;stroke-linejoin:round;}.cls-3,.cls-4,.cls-5,.cls-6,.cls-16,.cls-17,.cls-18,.cls-20,.cls-7,.cls-24,.cls-8,.cls-10,.cls-25,.cls-11,.cls-12,.cls-13,.cls-14,.cls-15,.cls-26,.cls-27{fill:none;}.cls-3,.cls-17,.cls-14{stroke-width:1.58px;}.cls-3,.cls-18{stroke:#4d4d4d;}.cls-4{stroke-dasharray:0 0 2 8.02;stroke-width:2px;}.cls-5{stroke-width:1.5px;}.cls-6{stroke-width:4.72px;}.cls-6,.cls-11{stroke:#000;}.cls-28{fill:#4d4d4d;}.cls-29{fill:#523333;}.cls-16{stroke-dasharray:0 0 .64 2.58;stroke-width:.64px;}.cls-16,.cls-17,.cls-18,.cls-19,.cls-20,.cls-21{stroke-linecap:square;}.cls-17{stroke-dasharray:0 0 1.57 6.3;}.cls-18,.cls-24,.cls-12,.cls-26,.cls-27{stroke-width:.79px;}.cls-19{stroke:#999;stroke-dasharray:0 0 5.04 5.04;stroke-width:1.26px;}.cls-19,.cls-30{fill:#999;}.cls-31{fill:#fbf5ec;}.cls-32{fill:#e6e6e6;}.cls-20,.cls-21{stroke-width:5.57px;}.cls-20,.cls-21,.cls-9,.cls-26{stroke:#ccc;}.cls-7{stroke-width:1.91px;}.cls-24{stroke:#3e3748;}.cls-33{fill:#f9f9f9;}.cls-34{fill:#a00;}.cls-8,.cls-11{stroke-width:9.45px;}.cls-8,.cls-15{stroke:#1a1a1a;}.cls-9{stroke-width:5.51px;}.cls-9,.cls-35{fill:#b3b3b3;}.cls-10{stroke:#e6e6e6;stroke-width:6.57px;}.cls-36{fill:#ccc;}.cls-12{stroke:#f9f9f9;}.cls-37{fill:#1a1a1a;}.cls-13{stroke:#fc0;stroke-width:2.36px;}.cls-38{fill:#ceb133;}.cls-14{stroke-dasharray:0 0 1.58 6.3;}.cls-15{stroke-width:6.3px;}.cls-39{fill:#666;}.cls-27{stroke:#9b2321;}</style></defs><g id="Livello_1-2"><line class="cls-27" x1="390.72" y1="254.23" x2="496.32" y2="208.39"/><line class="cls-27" x1="478.32" y1="361.56" x2="553" y2="348.89"/><line class="cls-27" x1="441.17" y1="399.56" x2="515.85" y2="424.9"/><line class="cls-27" x1="238.41" y1="298.98" x2="156.74" y2="250.74"/><line class="cls-27" x1="315.97" y1="387.1" x2="354.48" y2="466.11"/><line class="cls-27" x1="285.07" y1="386.83" x2="251.23" y2="475.49"/><line class="cls-27" x1="253.97" y1="234.13" x2="250.47" y2="192.52"/><line class="cls-27" x1="413.04" y1="274.7" x2="520.39" y2="272.91"/><line class="cls-27" x1="388.17" y1="231.82" x2="377.09" y2="198.65"/><line class="cls-27" x1="332.73" y1="333.64" x2="325.14" y2="218.45"/><path class="cls-29" d="m208.65,189.83c-1.07,0-1.87-.31-2.42-.93-.55-.63-.82-1.54-.82-2.71v-.83h2.08v.99c0,.94.38,1.41,1.14,1.41.37,0,.65-.11.84-.33.2-.23.3-.61.3-1.12,0-.61-.13-1.14-.4-1.59-.27-.47-.76-1.03-1.48-1.68-.91-.83-1.54-1.57-1.9-2.24-.36-.68-.54-1.44-.54-2.28,0-1.15.28-2.03.84-2.65.56-.63,1.37-.95,2.44-.95s1.85.32,2.38.95c.55.62.82,1.52.82,2.69v.6h-2.08v-.75c0-.5-.09-.86-.28-1.08-.19-.23-.46-.35-.82-.35-.73,0-1.1.46-1.1,1.39,0,.52.13,1.01.4,1.47.28.46.78,1.01,1.5,1.66.92.83,1.55,1.58,1.9,2.26s.52,1.47.52,2.38c0,1.19-.29,2.1-.86,2.73-.56.63-1.38.95-2.46.95Zm6.23-14.7h2.98l2.28,14.49h-2.2l-.4-2.88v.04h-2.5l-.4,2.84h-2.04l2.28-14.49Zm2.4,9.69l-.98-7.16h-.04l-.96,7.16h1.98Zm3.93-9.69h3.36c1.09,0,1.92.3,2.46.91s.82,1.5.82,2.67v7.33c0,1.17-.27,2.06-.82,2.67-.55.61-1.37.91-2.46.91h-3.36v-14.49Zm3.32,12.42c.36,0,.63-.11.82-.33.2-.22.3-.58.3-1.08v-7.53c0-.5-.1-.86-.3-1.08-.19-.22-.46-.33-.82-.33h-1.12v10.35h1.12Zm4.81-12.42h3.36c1.09,0,1.92.3,2.46.91s.82,1.5.82,2.67v7.33c0,1.17-.27,2.06-.82,2.67-.55.61-1.37.91-2.46.91h-3.36v-14.49Zm3.32,12.42c.36,0,.63-.11.82-.33.2-.22.3-.58.3-1.08v-7.53c0-.5-.1-.86-.3-1.08-.19-.22-.46-.33-.82-.33h-1.12v10.35h1.12Zm4.81-12.42h2.2v12.42h3.62v2.07h-5.83v-14.49Zm6.88,0h6.01v2.07h-3.8v3.83h3.02v2.07h-3.02v4.45h3.8v2.07h-6.01v-14.49Z"/><path class="cls-29" d="m204.97,191.28h45.84v1.66h-45.84v-1.66Z"/><path class="cls-29" d="m296.59,202.47h-2.3v-2.07h6.81v2.07h-2.3v12.42h-2.2v-12.42Zm8.78,12.63c-1.07,0-1.88-.31-2.44-.93-.56-.63-.84-1.54-.84-2.71v-11.05h2.2v11.22c0,.5.09.86.28,1.08.2.22.48.33.84.33s.63-.11.82-.33c.2-.22.3-.58.3-1.08v-11.22h2.12v11.05c0,1.17-.28,2.08-.84,2.71-.56.62-1.38.93-2.44.93Zm4.85-14.7h3.32c1.13,0,1.96.28,2.48.83.52.54.78,1.37.78,2.5v.58c0,.75-.12,1.35-.36,1.82-.23.47-.58.81-1.06,1.01v.04c1.09.39,1.64,1.39,1.64,3.02v1.24c0,1.12-.29,1.97-.86,2.57-.56.58-1.39.87-2.48.87h-3.46v-14.49Zm3.06,5.9c.44,0,.77-.12.98-.35.23-.23.34-.63.34-1.18v-.81c0-.52-.09-.9-.28-1.14-.17-.23-.45-.35-.84-.35h-1.06v3.83h.86Zm.4,6.52c.39,0,.67-.1.86-.31.19-.22.28-.59.28-1.12v-1.26c0-.66-.11-1.12-.34-1.37-.21-.26-.57-.39-1.08-.39h-.98v4.45h1.26Zm4.63-12.42h6.01v2.07h-3.8v3.83h3.02v2.07h-3.02v4.45h3.8v2.07h-6.01v-14.49Zm10.18,14.7c-1.07,0-1.87-.31-2.42-.93-.55-.63-.82-1.54-.82-2.71v-.83h2.08v.99c0,.94.38,1.41,1.14,1.41.37,0,.65-.11.84-.33.2-.23.3-.61.3-1.12,0-.61-.13-1.14-.4-1.59-.27-.47-.76-1.03-1.48-1.68-.91-.83-1.54-1.57-1.9-2.24-.36-.68-.54-1.44-.54-2.28,0-1.15.28-2.03.84-2.65.56-.63,1.37-.95,2.44-.95s1.85.32,2.38.95c.55.62.82,1.52.82,2.69v.6h-2.08v-.75c0-.5-.09-.86-.28-1.08-.19-.23-.46-.35-.82-.35-.73,0-1.1.46-1.1,1.39,0,.52.13,1.01.4,1.47.28.46.78,1.01,1.5,1.66.92.83,1.55,1.58,1.9,2.26.35.68.52,1.47.52,2.38,0,1.19-.29,2.1-.86,2.73-.56.63-1.38.95-2.46.95Z"/><path class="cls-29" d="m294.05,216.54h38.2v1.66h-38.2v-1.66Z"/><path class="cls-29" d="m380.75,195.54c-1.05,0-1.86-.31-2.42-.93-.55-.62-.82-1.5-.82-2.63v-7.78c0-1.13.27-2.01.82-2.63.56-.62,1.37-.93,2.42-.93s1.85.31,2.4.93c.56.62.84,1.5.84,2.63v1.53h-2.08v-1.68c0-.9-.37-1.35-1.1-1.35s-1.1.45-1.1,1.35v8.09c0,.88.37,1.32,1.1,1.32s1.1-.44,1.1-1.32v-2.21h2.08v2.05c0,1.13-.28,2.01-.84,2.63-.55.62-1.35.93-2.4.93Zm6.26-14.7h2.98l2.28,14.49h-2.2l-.4-2.88v.04h-2.5l-.4,2.84h-2.04l2.28-14.49Zm2.4,9.69l-.98-7.16h-.04l-.96,7.16h1.98Zm3.93-9.69h3.32c1.13,0,1.96.28,2.48.83.52.54.78,1.37.78,2.5v.58c0,.75-.12,1.35-.36,1.82-.23.47-.58.81-1.06,1.01v.04c1.09.39,1.64,1.39,1.64,3.02v1.24c0,1.12-.29,1.97-.86,2.57-.56.58-1.39.87-2.48.87h-3.46v-14.49Zm3.06,5.9c.44,0,.77-.12.98-.35.23-.23.34-.63.34-1.18v-.81c0-.52-.09-.9-.28-1.14-.17-.23-.45-.35-.84-.35h-1.06v3.83h.86Zm.4,6.52c.39,0,.67-.1.86-.31.19-.22.28-.59.28-1.12v-1.26c0-.66-.11-1.12-.34-1.37-.21-.26-.57-.39-1.08-.39h-.98v4.45h1.26Zm4.63-12.42h2.2v12.42h3.62v2.07h-5.83v-14.49Zm6.88,0h6.01v2.07h-3.8v3.83h3.02v2.07h-3.02v4.45h3.8v2.07h-6.01v-14.49Zm10.17,14.7c-1.07,0-1.87-.31-2.42-.93-.55-.63-.82-1.54-.82-2.71v-.83h2.08v.99c0,.94.38,1.41,1.14,1.41.37,0,.65-.11.84-.33.2-.23.3-.61.3-1.12,0-.61-.13-1.14-.4-1.59-.27-.47-.76-1.03-1.48-1.68-.91-.83-1.54-1.57-1.9-2.24-.36-.68-.54-1.44-.54-2.28,0-1.15.28-2.03.84-2.65.56-.63,1.38-.95,2.44-.95s1.85.32,2.38.95c.55.62.82,1.52.82,2.69v.6h-2.08v-.75c0-.5-.09-.86-.28-1.08-.19-.23-.46-.35-.82-.35-.73,0-1.1.46-1.1,1.39,0,.52.13,1.01.4,1.47.28.46.78,1.01,1.5,1.66.92.83,1.56,1.58,1.9,2.26.35.68.52,1.47.52,2.38,0,1.19-.29,2.1-.86,2.73-.56.63-1.38.95-2.46.95Zm9.47-14.7h1.9l-5.53,14.49h-1.9l5.53-14.49Zm2.9,0h3.32c1.13,0,1.96.28,2.48.83.52.54.78,1.37.78,2.5v.58c0,.75-.12,1.35-.36,1.82-.23.47-.58.81-1.06,1.01v.04c1.09.39,1.64,1.39,1.64,3.02v1.24c0,1.12-.29,1.97-.86,2.57-.56.58-1.39.87-2.48.87h-3.46v-14.49Zm3.06,5.9c.44,0,.77-.12.98-.35.23-.23.34-.63.34-1.18v-.81c0-.52-.09-.9-.28-1.14-.17-.23-.45-.35-.84-.35h-1.06v3.83h.86Zm.4,6.52c.39,0,.67-.1.86-.31.19-.22.28-.59.28-1.12v-1.26c0-.66-.11-1.12-.34-1.37-.21-.26-.57-.39-1.08-.39h-.98v4.45h1.26Zm4.63-12.42h3.26c1.13,0,1.96.28,2.48.83.52.54.78,1.37.78,2.5v.89c0,1.5-.48,2.46-1.44,2.86v.04c.53.17.91.5,1.12,1.01.23.51.34,1.19.34,2.05v2.55c0,.41.01.75.04,1.01.03.25.09.5.2.75h-2.24c-.08-.23-.13-.46-.16-.66-.03-.21-.04-.58-.04-1.12v-2.65c0-.66-.11-1.12-.32-1.39-.2-.26-.55-.39-1.06-.39h-.76v6.21h-2.2v-14.49Zm3,6.21c.44,0,.77-.12.98-.35.23-.23.34-.63.34-1.18v-1.12c0-.52-.09-.9-.28-1.14-.17-.23-.45-.35-.84-.35h-1v4.14h.8Zm5.07-6.21h6.01v2.07h-3.8v3.83h3.02v2.07h-3.02v4.45h3.8v2.07h-6.01v-14.49Zm8.98,0h2.98l2.28,14.49h-2.2l-.4-2.88v.04h-2.5l-.4,2.84h-2.04l2.28-14.49Zm2.4,9.69l-.98-7.16h-.04l-.96,7.16h1.98Zm3.93-9.69h2.2v6.11l2.8-6.11h2.2l-2.62,5.32,2.66,9.17h-2.3l-1.86-6.46-.88,1.84v4.62h-2.2v-14.49Zm11.02,14.7c-1.07,0-1.87-.31-2.42-.93-.55-.63-.82-1.54-.82-2.71v-.83h2.08v.99c0,.94.38,1.41,1.14,1.41.37,0,.65-.11.84-.33.2-.23.3-.61.3-1.12,0-.61-.13-1.14-.4-1.59-.27-.47-.76-1.03-1.48-1.68-.91-.83-1.54-1.57-1.9-2.24-.36-.68-.54-1.44-.54-2.28,0-1.15.28-2.03.84-2.65.56-.63,1.37-.95,2.44-.95s1.85.32,2.38.95c.55.62.82,1.52.82,2.69v.6h-2.08v-.75c0-.5-.09-.86-.28-1.08-.19-.23-.46-.35-.82-.35-.73,0-1.1.46-1.1,1.39,0,.52.13,1.01.4,1.47.28.46.78,1.01,1.5,1.66.92.83,1.55,1.58,1.9,2.26.35.68.52,1.47.52,2.38,0,1.19-.29,2.1-.86,2.73-.56.63-1.38.95-2.46.95Z"/><path class="cls-29" d="m376.82,196.99h100.3v1.66h-100.3v-1.66Z"/><path class="cls-29" d="m521.12,254.19h2.2v5.9h2.36v-5.9h2.2v14.49h-2.2v-6.52h-2.36v6.52h-2.2v-14.49Zm10.11,0h2.98l2.28,14.49h-2.2l-.4-2.88v.04h-2.5l-.4,2.84h-2.04l2.28-14.49Zm2.4,9.69l-.98-7.16h-.04l-.96,7.16h1.98Zm3.93-9.69h2.76l2.14,8.67h.04v-8.67h1.96v14.49h-2.26l-2.64-10.58h-.04v10.58h-1.96v-14.49Zm8.54,0h3.36c1.09,0,1.92.3,2.46.91s.82,1.5.82,2.67v7.33c0,1.17-.27,2.06-.82,2.67s-1.37.91-2.46.91h-3.36v-14.49Zm3.32,12.42c.36,0,.63-.11.82-.33.2-.22.3-.58.3-1.08v-7.53c0-.5-.1-.86-.3-1.08-.19-.22-.46-.33-.82-.33h-1.12v10.35h1.12Zm4.81-12.42h6.01v2.07h-3.8v3.83h3.02v2.07h-3.02v4.45h3.8v2.07h-6.01v-14.49Zm7.27,0h2.2v12.42h3.62v2.07h-5.83v-14.49Zm9.75,14.7c-1.07,0-1.88-.31-2.42-.93-.55-.63-.82-1.54-.82-2.71v-.83h2.08v.99c0,.94.38,1.41,1.14,1.41.37,0,.65-.11.84-.33.2-.23.3-.61.3-1.12,0-.61-.13-1.14-.4-1.59-.27-.47-.76-1.03-1.48-1.68-.91-.83-1.54-1.57-1.9-2.24-.36-.68-.54-1.44-.54-2.28,0-1.15.28-2.03.84-2.65.56-.63,1.37-.95,2.44-.95s1.85.32,2.38.95c.55.62.82,1.52.82,2.69v.6h-2.08v-.75c0-.5-.09-.86-.28-1.08-.19-.23-.46-.35-.82-.35-.73,0-1.1.46-1.1,1.39,0,.52.13,1.01.4,1.47.28.46.78,1.01,1.5,1.66.92.83,1.55,1.58,1.9,2.26.35.68.52,1.47.52,2.38,0,1.19-.29,2.1-.86,2.73-.56.63-1.38.95-2.46.95Zm9.47-14.7h1.9l-5.53,14.49h-1.9l5.53-14.49Zm2.9,0h2.2v5.9h2.36v-5.9h2.2v14.49h-2.2v-6.52h-2.36v6.52h-2.2v-14.49Zm10.11,0h2.98l2.28,14.49h-2.2l-.4-2.88v.04h-2.5l-.4,2.84h-2.04l2.28-14.49Zm2.4,9.69l-.98-7.16h-.04l-.96,7.16h1.98Zm3.93-9.69h2.76l2.14,8.67h.04v-8.67h1.96v14.49h-2.26l-2.64-10.58h-.04v10.58h-1.96v-14.49Zm8.54,0h3.36c1.1,0,1.92.3,2.46.91.55.61.82,1.5.82,2.67v7.33c0,1.17-.27,2.06-.82,2.67-.55.61-1.37.91-2.46.91h-3.36v-14.49Zm3.32,12.42c.36,0,.63-.11.82-.33.2-.22.3-.58.3-1.08v-7.53c0-.5-.1-.86-.3-1.08-.19-.22-.46-.33-.82-.33h-1.12v10.35h1.12Zm4.81-12.42h2.2v12.42h3.62v2.07h-5.83v-14.49Zm6.88,0h6.01v2.07h-3.8v3.83h3.02v2.07h-3.02v4.45h3.8v2.07h-6.01v-14.49Zm10.48,0h3.32c1.13,0,1.96.28,2.48.83.52.54.78,1.37.78,2.5v.58c0,.75-.12,1.35-.36,1.82-.23.47-.58.81-1.06,1.01v.04c1.09.39,1.64,1.39,1.64,3.02v1.24c0,1.12-.29,1.97-.86,2.57-.56.58-1.39.87-2.48.87h-3.46v-14.49Zm3.06,5.9c.44,0,.77-.12.98-.35.23-.23.34-.63.34-1.18v-.81c0-.52-.09-.9-.28-1.14-.17-.23-.45-.35-.84-.35h-1.06v3.83h.86Zm.4,6.52c.39,0,.67-.1.86-.31.19-.22.28-.59.28-1.12v-1.26c0-.66-.11-1.12-.34-1.37-.21-.26-.57-.39-1.08-.39h-.98v4.45h1.26Zm6.33-12.42h2.98l2.28,14.49h-2.2l-.4-2.88v.04h-2.5l-.4,2.84h-2.04l2.28-14.49Zm2.4,9.69l-.98-7.16h-.04l-.96,7.16h1.98Zm3.93-9.69h3.26c1.14,0,1.96.28,2.48.83.52.54.78,1.37.78,2.5v.89c0,1.5-.48,2.46-1.44,2.86v.04c.53.17.91.5,1.12,1.01.23.51.34,1.19.34,2.05v2.55c0,.41.01.75.04,1.01.03.25.09.5.2.75h-2.24c-.08-.23-.13-.46-.16-.66-.03-.21-.04-.58-.04-1.12v-2.65c0-.66-.11-1.12-.32-1.39-.2-.26-.55-.39-1.06-.39h-.76v6.21h-2.2v-14.49Zm3,6.21c.44,0,.77-.12.98-.35.23-.23.34-.63.34-1.18v-1.12c0-.52-.09-.9-.28-1.14-.17-.23-.45-.35-.84-.35h-1v4.14h.8Z"/><path class="cls-29" d="m520.3,270.33h137.19v1.66h-137.19v-1.66Z"/><path class="cls-29" d="m499.54,204.5c-1.07,0-1.88-.31-2.42-.93-.55-.63-.82-1.54-.82-2.71v-.83h2.08v.99c0,.94.38,1.41,1.14,1.41.37,0,.65-.11.84-.33.2-.23.3-.61.3-1.12,0-.61-.13-1.14-.4-1.59-.27-.47-.76-1.03-1.48-1.68-.91-.83-1.54-1.57-1.9-2.24-.36-.68-.54-1.43-.54-2.28,0-1.15.28-2.03.84-2.65.56-.63,1.37-.95,2.44-.95s1.85.32,2.38.95c.55.62.82,1.52.82,2.69v.6h-2.08v-.75c0-.5-.09-.86-.28-1.08-.19-.23-.46-.35-.82-.35-.73,0-1.1.46-1.1,1.39,0,.52.13,1.01.4,1.47.28.46.78,1.01,1.5,1.66.92.83,1.55,1.58,1.9,2.26.35.68.52,1.47.52,2.38,0,1.19-.29,2.1-.86,2.73-.56.63-1.38.95-2.46.95Zm4.59-14.7h2.2v5.9h2.36v-5.9h2.2v14.49h-2.2v-6.52h-2.36v6.52h-2.2v-14.49Zm8.41,0h2.2v14.49h-2.2v-14.49Zm3.85,0h5.83v2.07h-3.62v4.04h2.84v2.07h-2.84v6.31h-2.2v-14.49Zm8.8,2.07h-2.3v-2.07h6.81v2.07h-2.3v12.42h-2.2v-12.42Zm5.57-2.07h6.01v2.07h-3.8v3.83h3.02v2.07h-3.02v4.45h3.8v2.07h-6.01v-14.49Zm7.27,0h3.26c1.13,0,1.96.28,2.48.83.52.54.78,1.37.78,2.5v.89c0,1.5-.48,2.46-1.44,2.86v.04c.53.17.91.5,1.12,1.01.23.51.34,1.19.34,2.05v2.55c0,.41.01.75.04,1.01.03.25.09.5.2.75h-2.24c-.08-.23-.13-.46-.16-.66-.03-.21-.04-.58-.04-1.12v-2.65c0-.66-.11-1.12-.32-1.39-.2-.26-.55-.39-1.06-.39h-.76v6.21h-2.2v-14.49Zm3,6.21c.44,0,.77-.12.98-.35.23-.23.34-.63.34-1.18v-1.12c0-.52-.09-.9-.28-1.14-.17-.23-.45-.35-.84-.35h-1v4.14h.8Zm10.15-6.21h1.9l-5.53,14.49h-1.9l5.53-14.49Zm6.02,14.7c-1.07,0-1.88-.31-2.44-.93-.56-.63-.84-1.54-.84-2.71v-7.62c0-1.17.28-2.07.84-2.69.56-.63,1.38-.95,2.44-.95s1.88.32,2.44.95c.56.62.84,1.52.84,2.69v1.24h-2.08v-1.39c0-.95-.38-1.43-1.14-1.43s-1.14.48-1.14,1.43v7.93c0,.94.38,1.41,1.14,1.41s1.14-.47,1.14-1.41v-2.84h-1.1v-2.07h3.18v4.74c0,1.17-.28,2.08-.84,2.71-.56.62-1.37.93-2.44.93Zm4.7-14.7h3.26c1.13,0,1.96.28,2.48.83.52.54.78,1.37.78,2.5v.89c0,1.5-.48,2.46-1.44,2.86v.04c.53.17.91.5,1.12,1.01.23.51.34,1.19.34,2.05v2.55c0,.41.01.75.04,1.01.03.25.09.5.2.75h-2.24c-.08-.23-.13-.46-.16-.66-.03-.21-.04-.58-.04-1.12v-2.65c0-.66-.11-1.12-.32-1.39-.2-.26-.55-.39-1.06-.39h-.76v6.21h-2.2v-14.49Zm3,6.21c.44,0,.77-.12.98-.35.23-.23.34-.63.34-1.18v-1.12c0-.52-.09-.9-.28-1.14-.17-.23-.45-.35-.84-.35h-1v4.14h.8Zm5.07-6.21h2.2v14.49h-2.2v-14.49Zm3.85,0h3.24c1.09,0,1.91.3,2.46.91.55.61.82,1.5.82,2.67v1.43c0,1.17-.27,2.06-.82,2.67-.55.61-1.37.91-2.46.91h-1.04v5.9h-2.2v-14.49Zm3.24,6.52c.36,0,.63-.1.8-.31.19-.21.28-.56.28-1.06v-1.72c0-.5-.09-.85-.28-1.06-.17-.21-.44-.31-.8-.31h-1.04v4.45h1.04Zm7.42,8.18c-1.07,0-1.88-.31-2.42-.93-.55-.63-.82-1.54-.82-2.71v-.83h2.08v.99c0,.94.38,1.41,1.14,1.41.37,0,.65-.11.84-.33.2-.23.3-.61.3-1.12,0-.61-.13-1.14-.4-1.59-.27-.47-.76-1.03-1.48-1.68-.91-.83-1.54-1.57-1.9-2.24-.36-.68-.54-1.43-.54-2.28,0-1.15.28-2.03.84-2.65.56-.63,1.37-.95,2.44-.95s1.85.32,2.38.95c.55.62.82,1.52.82,2.69v.6h-2.08v-.75c0-.5-.09-.86-.28-1.08-.19-.23-.46-.35-.82-.35-.73,0-1.1.46-1.1,1.39,0,.52.13,1.01.4,1.47.28.46.78,1.01,1.5,1.66.92.83,1.55,1.58,1.9,2.26.35.68.52,1.47.52,2.38,0,1.19-.29,2.1-.86,2.73-.56.63-1.38.95-2.46.95Zm9.47-14.7h1.9l-5.53,14.49h-1.9l5.53-14.49Zm4.81,2.07h-2.3v-2.07h6.81v2.07h-2.3v12.42h-2.2v-12.42Zm6.35-2.07h2.98l2.28,14.49h-2.2l-.4-2.88v.04h-2.5l-.4,2.84h-2.04l2.28-14.49Zm2.4,9.69l-.98-7.16h-.04l-.96,7.16h1.98Zm3.93-9.69h3.24c1.1,0,1.92.3,2.46.91.55.61.82,1.5.82,2.67v1.43c0,1.17-.27,2.06-.82,2.67-.55.61-1.37.91-2.46.91h-1.04v5.9h-2.2v-14.49Zm3.24,6.52c.36,0,.63-.1.8-.31.19-.21.28-.56.28-1.06v-1.72c0-.5-.09-.85-.28-1.06-.17-.21-.44-.31-.8-.31h-1.04v4.45h1.04Zm4.48-6.52h6.01v2.07h-3.8v3.83h3.02v2.07h-3.02v4.45h3.8v2.07h-6.01v-14.49Z"/><path class="cls-29" d="m495.86,205.95h129.78v1.66h-129.78v-1.66Z"/><path class="cls-29" d="m555.95,332.86h-2.3v-2.07h6.81v2.07h-2.3v12.42h-2.2v-12.42Zm5.57-2.07h2.2v14.49h-2.2v-14.49Zm3.85,0h3.26c1.13,0,1.96.28,2.48.83.52.54.78,1.37.78,2.5v.89c0,1.5-.48,2.46-1.44,2.86v.04c.53.17.91.5,1.12,1.01.23.51.34,1.19.34,2.05v2.55c0,.41.01.75.04,1.01.03.25.09.5.2.75h-2.24c-.08-.23-.13-.46-.16-.66-.03-.21-.04-.58-.04-1.12v-2.65c0-.66-.11-1.12-.32-1.39-.2-.26-.55-.39-1.06-.39h-.76v6.21h-2.2v-14.49Zm3,6.21c.44,0,.77-.12.98-.35.23-.23.34-.63.34-1.18v-1.12c0-.52-.09-.9-.28-1.14-.17-.23-.45-.35-.84-.35h-1v4.14h.8Zm5.07-6.21h6.01v2.07h-3.8v3.83h3.02v2.07h-3.02v4.45h3.8v2.07h-6.01v-14.49Zm12.16,0h1.9l-5.53,14.49h-1.9l5.53-14.49Zm2.9,0h3.26c1.14,0,1.96.28,2.48.83.52.54.78,1.37.78,2.5v.89c0,1.5-.48,2.46-1.44,2.86v.04c.53.17.91.5,1.12,1.01.23.51.34,1.19.34,2.05v2.55c0,.41.01.75.04,1.01.03.25.09.5.2.75h-2.24c-.08-.23-.13-.46-.16-.66-.03-.21-.04-.58-.04-1.12v-2.65c0-.66-.11-1.12-.32-1.39-.2-.26-.55-.39-1.06-.39h-.76v6.21h-2.2v-14.49Zm3,6.21c.44,0,.77-.12.98-.35.23-.23.34-.63.34-1.18v-1.12c0-.52-.09-.9-.28-1.14-.17-.23-.45-.35-.84-.35h-1v4.14h.8Zm5.07-6.21h2.2v14.49h-2.2v-14.49Zm3.85,0h3.14l1.4,10.37h.04l1.4-10.37h3.14v14.49h-2.08v-10.97h-.04l-1.6,10.97h-1.84l-1.6-10.97h-.04v10.97h-1.92v-14.49Z"/><path class="cls-29" d="m553.41,346.94h56.97v1.66h-56.97v-1.66Z"/><path class="cls-29" d="m519.25,422.91c-1.07,0-1.88-.31-2.42-.93-.55-.63-.82-1.54-.82-2.71v-.83h2.08v.99c0,.94.38,1.41,1.14,1.41.37,0,.65-.11.84-.33.2-.23.3-.61.3-1.12,0-.61-.13-1.14-.4-1.59-.27-.47-.76-1.03-1.48-1.68-.91-.83-1.54-1.57-1.9-2.24-.36-.68-.54-1.44-.54-2.28,0-1.15.28-2.03.84-2.65.56-.63,1.37-.95,2.44-.95s1.85.32,2.38.95c.55.62.82,1.52.82,2.69v.6h-2.08v-.75c0-.5-.09-.86-.28-1.08-.19-.23-.46-.35-.82-.35-.73,0-1.1.46-1.1,1.39,0,.52.13,1.01.4,1.47.28.46.78,1.01,1.5,1.66.92.83,1.55,1.58,1.9,2.26s.52,1.47.52,2.38c0,1.19-.29,2.1-.86,2.73-.56.63-1.38.95-2.46.95Zm4.59-14.7h3.24c1.1,0,1.92.3,2.46.91.55.61.82,1.5.82,2.67v1.43c0,1.17-.27,2.06-.82,2.67-.55.61-1.37.91-2.46.91h-1.04v5.9h-2.2v-14.49Zm3.24,6.52c.36,0,.63-.1.8-.31.19-.21.28-.56.28-1.06v-1.72c0-.5-.09-.85-.28-1.06-.17-.21-.44-.31-.8-.31h-1.04v4.45h1.04Zm7.66,8.18c-1.08,0-1.91-.32-2.48-.95-.57-.63-.86-1.53-.86-2.69v-7.62c0-1.16.29-2.06.86-2.69.57-.63,1.4-.95,2.48-.95s1.91.32,2.48.95c.57.63.86,1.53.86,2.69v7.62c0,1.16-.29,2.06-.86,2.69-.57.63-1.4.95-2.48.95Zm0-2.07c.76,0,1.14-.48,1.14-1.43v-7.91c0-.95-.38-1.43-1.14-1.43s-1.14.48-1.14,1.43v7.91c0,.95.38,1.43,1.14,1.43Zm4.83-12.63h2.2v6.11l2.8-6.11h2.2l-2.62,5.32,2.66,9.17h-2.3l-1.86-6.46-.88,1.84v4.62h-2.2v-14.49Zm8.29,0h6.01v2.07h-3.8v3.83h3.02v2.07h-3.02v4.45h3.8v2.07h-6.01v-14.49Z"/><path class="cls-29" d="m515.57,424.36h38.75v1.66h-38.75v-1.66Z"/><path class="cls-29" d="m726.21,398.44h2.98l2.28,14.49h-2.2l-.4-2.88v.04h-2.5l-.4,2.84h-2.04l2.28-14.49Zm2.4,9.69l-.98-7.16h-.04l-.96,7.16h1.98Zm7,5.01c-1.05,0-1.86-.31-2.42-.93-.55-.62-.82-1.5-.82-2.63v-7.78c0-1.13.27-2.01.82-2.63.56-.62,1.37-.93,2.42-.93s1.86.31,2.4.93c.56.62.84,1.5.84,2.63v1.53h-2.08v-1.68c0-.9-.37-1.35-1.1-1.35s-1.1.45-1.1,1.35v8.09c0,.88.37,1.32,1.1,1.32s1.1-.44,1.1-1.32v-2.21h2.08v2.05c0,1.13-.28,2.01-.84,2.63-.55.62-1.35.93-2.4.93Zm7.7,0c-1.06,0-1.86-.31-2.42-.93-.55-.62-.82-1.5-.82-2.63v-7.78c0-1.13.27-2.01.82-2.63.56-.62,1.37-.93,2.42-.93s1.85.31,2.4.93c.56.62.84,1.5.84,2.63v1.53h-2.08v-1.68c0-.9-.37-1.35-1.1-1.35s-1.1.45-1.1,1.35v8.09c0,.88.37,1.32,1.1,1.32s1.1-.44,1.1-1.32v-2.21h2.08v2.05c0,1.13-.28,2.01-.84,2.63-.55.62-1.35.93-2.4.93Zm4.56-14.7h6.01v2.07h-3.8v3.83h3.02v2.07h-3.02v4.45h3.8v2.07h-6.01v-14.49Zm10.18,14.7c-1.07,0-1.88-.31-2.42-.93-.55-.63-.82-1.54-.82-2.71v-.83h2.08v.99c0,.94.38,1.41,1.14,1.41.37,0,.65-.11.84-.33.2-.23.3-.61.3-1.12,0-.61-.13-1.14-.4-1.59-.27-.47-.76-1.03-1.48-1.68-.91-.83-1.54-1.57-1.9-2.24-.36-.68-.54-1.44-.54-2.28,0-1.15.28-2.03.84-2.65.56-.63,1.37-.95,2.44-.95s1.85.32,2.38.95c.55.62.82,1.52.82,2.69v.6h-2.08v-.75c0-.5-.09-.86-.28-1.08-.19-.23-.46-.35-.82-.35-.73,0-1.1.46-1.1,1.39,0,.52.13,1.01.4,1.47.28.46.78,1.01,1.5,1.66.92.83,1.55,1.58,1.9,2.26.35.68.52,1.47.52,2.38,0,1.19-.29,2.1-.86,2.73-.56.63-1.38.95-2.46.95Zm7.45,0c-1.07,0-1.87-.31-2.42-.93-.55-.63-.82-1.54-.82-2.71v-.83h2.08v.99c0,.94.38,1.41,1.14,1.41.37,0,.65-.11.84-.33.2-.23.3-.61.3-1.12,0-.61-.13-1.14-.4-1.59-.27-.47-.76-1.03-1.48-1.68-.91-.83-1.54-1.57-1.9-2.24-.36-.68-.54-1.44-.54-2.28,0-1.15.28-2.03.84-2.65.56-.63,1.37-.95,2.44-.95s1.85.32,2.38.95c.55.62.82,1.52.82,2.69v.6h-2.08v-.75c0-.5-.09-.86-.28-1.08-.19-.23-.46-.35-.82-.35-.73,0-1.1.46-1.1,1.39,0,.52.13,1.01.4,1.47.28.46.78,1.01,1.5,1.66.92.83,1.55,1.58,1.9,2.26.35.68.52,1.47.52,2.38,0,1.19-.29,2.1-.86,2.73-.56.63-1.38.95-2.46.95Zm7.77,0c-1.08,0-1.91-.32-2.48-.95-.57-.63-.86-1.53-.86-2.69v-7.62c0-1.16.29-2.06.86-2.69.57-.63,1.4-.95,2.48-.95s1.91.32,2.48.95c.57.63.86,1.53.86,2.69v7.62c0,1.16-.29,2.06-.86,2.69-.57.63-1.4.95-2.48.95Zm0-2.07c.76,0,1.14-.48,1.14-1.43v-7.91c0-.95-.38-1.43-1.14-1.43s-1.14.48-1.14,1.43v7.91c0,.95.38,1.43,1.14,1.43Zm4.83-12.63h3.26c1.14,0,1.96.28,2.48.83.52.54.78,1.37.78,2.5v.89c0,1.5-.48,2.46-1.44,2.86v.04c.53.17.91.5,1.12,1.01.23.51.34,1.19.34,2.05v2.55c0,.41.01.75.04,1.01.03.25.09.5.2.75h-2.24c-.08-.23-.13-.46-.16-.66-.03-.21-.04-.58-.04-1.12v-2.65c0-.66-.11-1.12-.32-1.39-.2-.26-.55-.39-1.06-.39h-.76v6.21h-2.2v-14.49Zm3,6.21c.44,0,.77-.12.98-.35.23-.23.34-.63.34-1.18v-1.12c0-.52-.09-.9-.28-1.14-.17-.23-.45-.35-.84-.35h-1v4.14h.8Zm5.07-6.21h2.2v14.49h-2.2v-14.49Zm3.85,0h6.01v2.07h-3.8v3.83h3.02v2.07h-3.02v4.45h3.8v2.07h-6.01v-14.49Zm10.18,14.7c-1.07,0-1.87-.31-2.42-.93-.55-.63-.82-1.54-.82-2.71v-.83h2.08v.99c0,.94.38,1.41,1.14,1.41.37,0,.65-.11.84-.33.2-.23.3-.61.3-1.12,0-.61-.13-1.14-.4-1.59-.27-.47-.76-1.03-1.48-1.68-.91-.83-1.54-1.57-1.9-2.24-.36-.68-.54-1.44-.54-2.28,0-1.15.28-2.03.84-2.65.56-.63,1.37-.95,2.44-.95s1.85.32,2.38.95c.55.62.82,1.52.82,2.69v.6h-2.08v-.75c0-.5-.09-.86-.28-1.08-.19-.23-.46-.35-.82-.35-.73,0-1.1.46-1.1,1.39,0,.52.13,1.01.4,1.47.28.46.78,1.01,1.5,1.66.92.83,1.55,1.58,1.9,2.26s.52,1.47.52,2.38c0,1.19-.29,2.1-.86,2.73-.56.63-1.38.95-2.46.95Z"/><path class="cls-29" d="m723.69,414.58h80.28v1.66h-80.28v-1.66Z"/><path class="cls-29" d="m354.78,448.15h3.24c1.1,0,1.92.3,2.46.91.55.61.82,1.5.82,2.67v1.43c0,1.17-.27,2.06-.82,2.67-.55.61-1.37.91-2.46.91h-1.04v5.9h-2.2v-14.49Zm3.24,6.52c.36,0,.63-.1.8-.31.19-.21.28-.56.28-1.06v-1.72c0-.5-.09-.85-.28-1.06-.17-.21-.44-.31-.8-.31h-1.04v4.45h1.04Zm4.48-6.52h6.01v2.07h-3.8v3.83h3.02v2.07h-3.02v4.45h3.8v2.07h-6.01v-14.49Zm7.27,0h3.36c1.09,0,1.92.3,2.46.91.55.61.82,1.5.82,2.67v7.33c0,1.17-.27,2.06-.82,2.67-.55.61-1.37.91-2.46.91h-3.36v-14.49Zm3.32,12.42c.36,0,.63-.11.82-.33.2-.22.3-.58.3-1.08v-7.53c0-.5-.1-.85-.3-1.08-.19-.22-.46-.33-.82-.33h-1.12v10.35h1.12Zm6.47-12.42h2.98l2.28,14.49h-2.2l-.4-2.88v.04h-2.5l-.4,2.84h-2.04l2.28-14.49Zm2.4,9.69l-.98-7.16h-.04l-.96,7.16h1.98Zm3.93-9.69h2.2v12.42h3.62v2.07h-5.83v-14.49Zm11.96,0h1.9l-5.53,14.49h-1.9l5.53-14.49Zm6,14.7c-1.05,0-1.86-.31-2.42-.93-.55-.62-.82-1.5-.82-2.63v-7.78c0-1.13.27-2.01.82-2.63.56-.62,1.37-.93,2.42-.93s1.85.31,2.4.93c.56.62.84,1.5.84,2.63v1.53h-2.08v-1.68c0-.9-.37-1.35-1.1-1.35s-1.1.45-1.1,1.35v8.09c0,.88.37,1.32,1.1,1.32s1.1-.44,1.1-1.32v-2.21h2.08v2.05c0,1.13-.28,2.01-.84,2.63-.55.62-1.35.93-2.4.93Zm4.56-14.7h3.26c1.14,0,1.96.28,2.48.83.52.54.78,1.37.78,2.5v.89c0,1.5-.48,2.46-1.44,2.86v.04c.53.17.91.5,1.12,1.01.23.51.34,1.19.34,2.05v2.55c0,.41.01.75.04,1.01.03.25.09.5.2.75h-2.24c-.08-.23-.13-.46-.16-.66-.03-.21-.04-.58-.04-1.12v-2.65c0-.66-.11-1.12-.32-1.39-.2-.26-.55-.39-1.06-.39h-.76v6.21h-2.2v-14.49Zm3,6.21c.44,0,.77-.12.98-.35.23-.23.34-.63.34-1.18v-1.12c0-.52-.09-.9-.28-1.14-.17-.23-.45-.35-.84-.35h-1v4.14h.8Zm6.77-6.21h2.98l2.28,14.49h-2.2l-.4-2.88v.04h-2.5l-.4,2.84h-2.04l2.28-14.49Zm2.4,9.69l-.98-7.16h-.04l-.96,7.16h1.98Zm3.93-9.69h2.76l2.14,8.67h.04v-8.67h1.96v14.49h-2.26l-2.64-10.58h-.04v10.58h-1.96v-14.49Zm8.54,0h2.2v6.11l2.8-6.11h2.2l-2.62,5.32,2.66,9.17h-2.3l-1.86-6.46-.88,1.84v4.62h-2.2v-14.49Zm13.2,0h2.98l2.28,14.49h-2.2l-.4-2.88v.04h-2.5l-.4,2.84h-2.04l2.28-14.49Zm2.4,9.69l-.98-7.16h-.04l-.96,7.16h1.98Zm3.93-9.69h3.26c1.13,0,1.96.28,2.48.83.52.54.78,1.37.78,2.5v.89c0,1.5-.48,2.46-1.44,2.86v.04c.53.17.91.5,1.12,1.01.23.51.34,1.19.34,2.05v2.55c0,.41.01.75.04,1.01.03.25.09.5.2.75h-2.24c-.08-.23-.13-.46-.16-.66s-.04-.58-.04-1.12v-2.65c0-.66-.11-1.12-.32-1.39-.2-.26-.55-.39-1.06-.39h-.76v6.21h-2.2v-14.49Zm3,6.21c.44,0,.77-.12.98-.35.23-.23.34-.63.34-1.18v-1.12c0-.52-.09-.9-.28-1.14-.17-.23-.45-.35-.84-.35h-1v4.14h.8Zm5.07-6.21h3.14l1.4,10.37h.04l1.4-10.37h3.14v14.49h-2.08v-10.97h-.04l-1.6,10.97h-1.84l-1.6-10.97h-.04v10.97h-1.92v-14.49Z"/><path class="cls-29" d="m353.96,464.29h116.68v1.66h-116.68v-1.66Z"/><path class="cls-29" d="m130.06,472.62c-1.05,0-1.86-.31-2.42-.93-.55-.62-.82-1.5-.82-2.63v-7.78c0-1.13.27-2.01.82-2.63.56-.62,1.37-.93,2.42-.93s1.85.31,2.4.93c.56.62.84,1.5.84,2.63v1.53h-2.08v-1.68c0-.9-.37-1.35-1.1-1.35s-1.1.45-1.1,1.35v8.09c0,.88.37,1.32,1.1,1.32s1.1-.44,1.1-1.32v-2.21h2.08v2.05c0,1.13-.28,2.01-.84,2.63-.55.62-1.35.93-2.4.93Zm4.56-14.7h2.2v5.9h2.36v-5.9h2.2v14.49h-2.2v-6.52h-2.36v6.52h-2.2v-14.49Zm10.11,0h2.98l2.28,14.49h-2.2l-.4-2.88v.04h-2.5l-.4,2.84h-2.04l2.28-14.49Zm2.4,9.69l-.98-7.16h-.04l-.96,7.16h1.98Zm3.93-9.69h2.2v14.49h-2.2v-14.49Zm3.85,0h2.76l2.14,8.67h.04v-8.67h1.96v14.49h-2.26l-2.64-10.58h-.04v10.58h-1.96v-14.49Zm11.41,14.7c-1.07,0-1.87-.31-2.42-.93-.55-.64-.82-1.54-.82-2.71v-.83h2.08v.99c0,.94.38,1.41,1.14,1.41.37,0,.65-.11.84-.33.2-.23.3-.61.3-1.12,0-.61-.13-1.14-.4-1.59-.27-.47-.76-1.03-1.48-1.68-.91-.83-1.54-1.57-1.9-2.24-.36-.68-.54-1.44-.54-2.28,0-1.15.28-2.03.84-2.65.56-.64,1.37-.95,2.44-.95s1.85.32,2.38.95c.55.62.82,1.52.82,2.69v.6h-2.08v-.75c0-.5-.09-.86-.28-1.08-.19-.23-.46-.35-.82-.35-.73,0-1.1.46-1.1,1.39,0,.52.13,1.01.4,1.47.28.46.78,1.01,1.5,1.66.92.83,1.55,1.58,1.9,2.26.35.68.52,1.47.52,2.38,0,1.19-.29,2.1-.86,2.73-.56.63-1.38.95-2.46.95Zm9.47-14.7h1.9l-5.53,14.49h-1.9l5.53-14.49Zm6,14.7c-1.06,0-1.86-.31-2.42-.93-.55-.62-.82-1.5-.82-2.63v-7.78c0-1.13.27-2.01.82-2.63.56-.62,1.37-.93,2.42-.93s1.85.31,2.4.93c.56.62.84,1.5.84,2.63v1.53h-2.08v-1.68c0-.9-.37-1.35-1.1-1.35s-1.1.45-1.1,1.35v8.09c0,.88.37,1.32,1.1,1.32s1.1-.44,1.1-1.32v-2.21h2.08v2.05c0,1.13-.28,2.01-.84,2.63-.55.62-1.35.93-2.4.93Zm4.56-14.7h2.2v5.9h2.36v-5.9h2.2v14.49h-2.2v-6.52h-2.36v6.52h-2.2v-14.49Zm10.11,0h2.98l2.28,14.49h-2.2l-.4-2.88v.04h-2.5l-.4,2.84h-2.04l2.28-14.49Zm2.4,9.69l-.98-7.16h-.04l-.96,7.16h1.98Zm3.93-9.69h2.2v14.49h-2.2v-14.49Zm3.85,0h2.76l2.14,8.67h.04v-8.67h1.96v14.49h-2.26l-2.64-10.58h-.04v10.58h-1.96v-14.49Zm11.75,0h3.26c1.13,0,1.96.28,2.48.83.52.54.78,1.37.78,2.5v.89c0,1.5-.48,2.46-1.44,2.86v.04c.53.17.91.5,1.12,1.01.23.51.34,1.19.34,2.05v2.55c0,.41.01.75.04,1.01.03.25.09.5.2.75h-2.24c-.08-.23-.13-.46-.16-.66-.03-.21-.04-.58-.04-1.12v-2.65c0-.66-.11-1.12-.32-1.39-.2-.26-.55-.39-1.06-.39h-.76v6.21h-2.2v-14.49Zm3,6.21c.44,0,.77-.12.98-.35.23-.23.34-.63.34-1.18v-1.12c0-.52-.09-.9-.28-1.14-.17-.23-.45-.35-.84-.35h-1v4.14h.8Zm5.07-6.21h2.2v14.49h-2.2v-14.49Zm3.85,0h2.76l2.14,8.67h.04v-8.67h1.96v14.49h-2.26l-2.64-10.58h-.04v10.58h-1.96v-14.49Zm11.67,14.7c-1.07,0-1.88-.31-2.44-.93-.56-.64-.84-1.54-.84-2.71v-7.62c0-1.17.28-2.07.84-2.69.56-.64,1.37-.95,2.44-.95s1.88.32,2.44.95c.56.62.84,1.52.84,2.69v1.24h-2.08v-1.39c0-.95-.38-1.43-1.14-1.43s-1.14.48-1.14,1.43v7.93c0,.94.38,1.41,1.14,1.41s1.14-.47,1.14-1.41v-2.84h-1.1v-2.07h3.18v4.74c0,1.17-.28,2.08-.84,2.71-.56.62-1.37.93-2.44.93Zm7.56,0c-1.07,0-1.87-.31-2.42-.93-.55-.64-.82-1.54-.82-2.71v-.83h2.08v.99c0,.94.38,1.41,1.14,1.41.37,0,.65-.11.84-.33.2-.23.3-.61.3-1.12,0-.61-.13-1.14-.4-1.59-.27-.47-.76-1.03-1.48-1.68-.91-.83-1.54-1.57-1.9-2.24-.36-.68-.54-1.44-.54-2.28,0-1.15.28-2.03.84-2.65.56-.64,1.38-.95,2.44-.95s1.85.32,2.38.95c.55.62.82,1.52.82,2.69v.6h-2.08v-.75c0-.5-.09-.86-.28-1.08-.19-.23-.46-.35-.82-.35-.73,0-1.1.46-1.1,1.39,0,.52.13,1.01.4,1.47.28.46.78,1.01,1.5,1.66.92.83,1.56,1.58,1.9,2.26.35.68.52,1.47.52,2.38,0,1.19-.29,2.1-.86,2.73-.56.63-1.38.95-2.46.95Z"/><path class="cls-29" d="m126.13,474.07h127.18v1.66h-127.18v-1.66Z"/><path class="cls-29" d="m84.38,233.81h3.26c1.13,0,1.96.28,2.48.83.52.54.78,1.37.78,2.5v.89c0,1.5-.48,2.46-1.44,2.86v.04c.53.17.91.5,1.12,1.01.23.51.34,1.19.34,2.05v2.55c0,.41.01.75.04,1.01.03.25.09.5.2.75h-2.24c-.08-.23-.13-.46-.16-.66-.03-.21-.04-.58-.04-1.12v-2.65c0-.66-.11-1.12-.32-1.39-.2-.26-.55-.39-1.06-.39h-.76v6.21h-2.2v-14.49Zm3,6.21c.44,0,.77-.12.98-.35.23-.23.34-.63.34-1.18v-1.12c0-.52-.09-.9-.28-1.14-.17-.23-.45-.35-.84-.35h-1v4.14h.8Zm8.26,8.49c-1.08,0-1.91-.32-2.48-.95-.57-.63-.86-1.53-.86-2.69v-7.62c0-1.16.29-2.06.86-2.69.57-.63,1.4-.95,2.48-.95s1.91.32,2.48.95c.57.63.86,1.53.86,2.69v7.62c0,1.16-.29,2.06-.86,2.69-.57.63-1.4.95-2.48.95Zm0-2.07c.76,0,1.14-.48,1.14-1.43v-7.91c0-.95-.38-1.43-1.14-1.43s-1.14.48-1.14,1.43v7.91c0,.95.38,1.43,1.14,1.43Zm6.5-12.63h2.98l2.28,14.49h-2.2l-.4-2.88v.04h-2.5l-.4,2.84h-2.04l2.28-14.49Zm2.4,9.69l-.98-7.16h-.04l-.96,7.16h1.98Zm3.93-9.69h3.26c1.14,0,1.96.28,2.48.83.52.54.78,1.37.78,2.5v.89c0,1.5-.48,2.46-1.44,2.86v.04c.53.17.91.5,1.12,1.01.23.51.34,1.19.34,2.05v2.55c0,.41.01.75.04,1.01.03.25.09.5.2.75h-2.24c-.08-.23-.13-.46-.16-.66-.03-.21-.04-.58-.04-1.12v-2.65c0-.66-.11-1.12-.32-1.39-.2-.26-.55-.39-1.06-.39h-.76v6.21h-2.2v-14.49Zm3,6.21c.44,0,.77-.12.98-.35.23-.23.34-.63.34-1.18v-1.12c0-.52-.09-.9-.28-1.14-.17-.23-.45-.35-.84-.35h-1v4.14h.8Zm8.28-6.21h3.32c1.13,0,1.96.28,2.48.83.52.54.78,1.37.78,2.5v.58c0,.75-.12,1.35-.36,1.82-.23.47-.58.81-1.06,1.01v.04c1.09.39,1.64,1.39,1.64,3.02v1.24c0,1.12-.29,1.97-.86,2.57-.56.58-1.39.87-2.48.87h-3.46v-14.49Zm3.06,5.9c.44,0,.77-.12.98-.35.23-.23.34-.63.34-1.18v-.81c0-.52-.09-.9-.28-1.14-.17-.23-.45-.35-.84-.35h-1.06v3.83h.86Zm.4,6.52c.39,0,.67-.1.86-.31.19-.22.28-.59.28-1.12v-1.26c0-.66-.11-1.12-.34-1.37-.21-.26-.57-.39-1.08-.39h-.98v4.45h1.26Zm4.63-12.42h3.26c1.13,0,1.96.28,2.48.83.52.54.78,1.37.78,2.5v.89c0,1.5-.48,2.46-1.44,2.86v.04c.53.17.91.5,1.12,1.01.23.51.34,1.19.34,2.05v2.55c0,.41.01.75.04,1.01.03.25.09.5.2.75h-2.24c-.08-.23-.13-.46-.16-.66-.03-.21-.04-.58-.04-1.12v-2.65c0-.66-.11-1.12-.32-1.39-.2-.26-.55-.39-1.06-.39h-.76v6.21h-2.2v-14.49Zm3,6.21c.44,0,.77-.12.98-.35.23-.23.34-.63.34-1.18v-1.12c0-.52-.09-.9-.28-1.14-.17-.23-.45-.35-.84-.35h-1v4.14h.8Zm5.07-6.21h6.01v2.07h-3.8v3.83h3.02v2.07h-3.02v4.45h3.8v2.07h-6.01v-14.49Zm8.98,0h2.98l2.28,14.49h-2.2l-.4-2.88v.04h-2.5l-.4,2.84h-2.04l2.28-14.49Zm2.4,9.69l-.98-7.16h-.04l-.96,7.16h1.98Zm3.93-9.69h2.2v6.11l2.8-6.11h2.2l-2.62,5.32,2.66,9.17h-2.3l-1.86-6.46-.88,1.84v4.62h-2.2v-14.49Z"/><path class="cls-29" d="m83.56,249.96h75.14v1.66h-75.14v-1.66Z"/><path class="cls-29" d="m59.11,317.78c-1.05,0-1.86-.31-2.42-.93-.55-.62-.82-1.5-.82-2.63v-7.78c0-1.13.27-2.01.82-2.63.56-.62,1.37-.93,2.42-.93s1.86.31,2.4.93c.56.62.84,1.5.84,2.63v1.53h-2.08v-1.68c0-.9-.37-1.35-1.1-1.35s-1.1.45-1.1,1.35v8.09c0,.88.37,1.32,1.1,1.32s1.1-.44,1.1-1.32v-2.21h2.08v2.05c0,1.13-.28,2.01-.84,2.63-.55.62-1.35.93-2.4.93Zm6.26-14.7h2.98l2.28,14.49h-2.2l-.4-2.88v.04h-2.5l-.4,2.84h-2.04l2.28-14.49Zm2.4,9.69l-.98-7.16h-.04l-.96,7.16h1.98Zm6.74,5.01c-1.07,0-1.88-.31-2.42-.93-.55-.64-.82-1.54-.82-2.71v-.83h2.08v.99c0,.94.38,1.41,1.14,1.41.37,0,.65-.11.84-.33.2-.23.3-.61.3-1.12,0-.61-.13-1.14-.4-1.59-.27-.47-.76-1.03-1.48-1.68-.91-.83-1.54-1.57-1.9-2.24-.36-.68-.54-1.44-.54-2.28,0-1.15.28-2.03.84-2.65.56-.64,1.37-.95,2.44-.95s1.85.32,2.38.95c.55.62.82,1.52.82,2.69v.6h-2.08v-.75c0-.5-.09-.86-.28-1.08-.19-.23-.46-.35-.82-.35-.73,0-1.1.46-1.1,1.39,0,.52.13,1.01.4,1.47.28.46.78,1.01,1.5,1.66.92.83,1.55,1.58,1.9,2.26.35.68.52,1.47.52,2.38,0,1.19-.29,2.1-.86,2.73-.56.63-1.38.95-2.46.95Zm7.45,0c-1.07,0-1.88-.31-2.42-.93-.55-.64-.82-1.54-.82-2.71v-.83h2.08v.99c0,.94.38,1.41,1.14,1.41.37,0,.65-.11.84-.33.2-.23.3-.61.3-1.12,0-.61-.13-1.14-.4-1.59-.27-.47-.76-1.03-1.48-1.68-.91-.83-1.54-1.57-1.9-2.24-.36-.68-.54-1.44-.54-2.28,0-1.15.28-2.03.84-2.65.56-.64,1.37-.95,2.44-.95s1.85.32,2.38.95c.55.62.82,1.52.82,2.69v.6h-2.08v-.75c0-.5-.09-.86-.28-1.08-.19-.23-.46-.35-.82-.35-.73,0-1.1.46-1.1,1.39,0,.52.13,1.01.4,1.47.28.46.78,1.01,1.5,1.66.92.83,1.55,1.58,1.9,2.26.35.68.52,1.47.52,2.38,0,1.19-.29,2.1-.86,2.73-.56.63-1.38.95-2.46.95Zm4.59-14.7h6.01v2.07h-3.8v3.83h3.02v2.07h-3.02v4.45h3.8v2.07h-6.01v-14.49Zm9,2.07h-2.3v-2.07h6.81v2.07h-2.3v12.42h-2.2v-12.42Zm7.49,0h-2.3v-2.07h6.81v2.07h-2.3v12.42h-2.2v-12.42Zm5.57-2.07h6.01v2.07h-3.8v3.83h3.02v2.07h-3.02v4.45h3.8v2.07h-6.01v-14.49Z"/><path class="cls-29" d="m55.18,319.23h59.86v1.66h-59.86v-1.66Z"/><path class="cls-29" d="m.82,330.79h3.26c1.13,0,1.96.28,2.48.83.52.54.78,1.37.78,2.5v.89c0,1.5-.48,2.46-1.44,2.86v.04c.53.17.91.5,1.12,1.01.23.51.34,1.19.34,2.05v2.55c0,.41.01.75.04,1.01.03.25.09.5.2.75h-2.24c-.08-.23-.13-.46-.16-.66-.03-.21-.04-.58-.04-1.12v-2.65c0-.66-.11-1.12-.32-1.39-.2-.26-.55-.39-1.06-.39h-.76v6.21H.82v-14.49Zm3,6.21c.44,0,.77-.12.98-.35.23-.23.34-.63.34-1.18v-1.12c0-.52-.09-.9-.28-1.14-.17-.23-.45-.35-.84-.35h-1v4.14h.8Zm5.07-6.21h6.01v2.07h-3.8v3.83h3.02v2.07h-3.02v4.45h3.8v2.07h-6.01v-14.49Zm8.98,0h2.98l2.28,14.49h-2.2l-.4-2.88v.04h-2.5l-.4,2.84h-2.04l2.28-14.49Zm2.4,9.69l-.98-7.16h-.04l-.96,7.16h1.98Zm3.93-9.69h3.26c1.13,0,1.96.28,2.48.83.52.54.78,1.37.78,2.5v.89c0,1.5-.48,2.46-1.44,2.86v.04c.53.17.91.5,1.12,1.01.23.51.34,1.19.34,2.05v2.55c0,.41.01.75.04,1.01.03.25.09.5.2.75h-2.24c-.08-.23-.13-.46-.16-.66-.03-.21-.04-.58-.04-1.12v-2.65c0-.66-.11-1.12-.32-1.39-.2-.26-.55-.39-1.06-.39h-.76v6.21h-2.2v-14.49Zm3,6.21c.44,0,.77-.12.98-.35.23-.23.34-.63.34-1.18v-1.12c0-.52-.09-.9-.28-1.14-.17-.23-.45-.35-.84-.35h-1v4.14h.8Zm8.28-6.21h3.36c1.09,0,1.92.3,2.46.91.55.61.82,1.5.82,2.67v7.33c0,1.17-.27,2.06-.82,2.67-.55.61-1.37.91-2.46.91h-3.36v-14.49Zm3.32,12.42c.36,0,.63-.11.82-.33.2-.22.3-.58.3-1.08v-7.53c0-.5-.1-.86-.3-1.08-.19-.22-.46-.33-.82-.33h-1.12v10.35h1.12Zm4.81-12.42h6.01v2.07h-3.8v3.83h3.02v2.07h-3.02v4.45h3.8v2.07h-6.01v-14.49Zm7.27,0h3.26c1.13,0,1.96.28,2.48.83.52.54.78,1.37.78,2.5v.89c0,1.5-.48,2.46-1.44,2.86v.04c.53.17.91.5,1.12,1.01.23.51.34,1.19.34,2.05v2.55c0,.41.01.75.04,1.01.03.25.09.5.2.75h-2.24c-.08-.23-.13-.46-.16-.66-.03-.21-.04-.58-.04-1.12v-2.65c0-.66-.11-1.12-.32-1.39-.2-.26-.55-.39-1.06-.39h-.76v6.21h-2.2v-14.49Zm3,6.21c.44,0,.77-.12.98-.35.23-.23.34-.63.34-1.18v-1.12c0-.52-.09-.9-.28-1.14-.17-.23-.45-.35-.84-.35h-1v4.14h.8Zm6.77-6.21h2.98l2.28,14.49h-2.2l-.4-2.88v.04h-2.5l-.4,2.84h-2.04l2.28-14.49Zm2.4,9.69l-.98-7.16h-.04l-.96,7.16h1.98Zm3.93-9.69h2.2v14.49h-2.2v-14.49Zm3.85,0h2.2v12.42h3.62v2.07h-5.83v-14.49Zm6.88,0h2.2v12.42h3.62v2.07h-5.83v-14.49Zm6.88,0h6.01v2.07h-3.8v3.83h3.02v2.07h-3.02v4.45h3.8v2.07h-6.01v-14.49Zm10.48,14.7c-1.07,0-1.88-.31-2.44-.93-.56-.64-.84-1.54-.84-2.71v-11.05h2.2v11.22c0,.5.09.85.28,1.08.2.22.48.33.84.33s.63-.11.82-.33c.2-.22.3-.58.3-1.08v-11.22h2.12v11.05c0,1.17-.28,2.08-.84,2.71-.56.62-1.37.93-2.44.93Zm4.85-14.7h3.26c1.14,0,1.96.28,2.48.83.52.54.78,1.37.78,2.5v.89c0,1.5-.48,2.46-1.44,2.86v.04c.53.17.91.5,1.12,1.01.23.51.34,1.19.34,2.05v2.55c0,.41.01.75.04,1.01.03.25.09.5.2.75h-2.24c-.08-.23-.13-.46-.16-.66-.03-.21-.04-.58-.04-1.12v-2.65c0-.66-.11-1.12-.32-1.39-.2-.26-.55-.39-1.06-.39h-.76v6.21h-2.2v-14.49Zm3,6.21c.44,0,.77-.12.98-.35.23-.23.34-.63.34-1.18v-1.12c0-.52-.09-.9-.28-1.14-.17-.23-.45-.35-.84-.35h-1v4.14h.8Z"/><path class="cls-29" d="m0,346.94h107.2v1.66H0v-1.66Z"/><path class="cls-23" d="m705.9,521.51c-1.18,0-2.27-.66-2.84-1.73l-.09-.18c-.11-.21-.04-.48.16-.6l4.89-2.9c.1-.06.22-.08.33-.04.11.03.21.11.26.22l.12.24c.87,1.62.3,3.67-1.26,4.57-.48.28-1.03.42-1.57.42Zm-1.97-1.96c.44.66,1.18,1.07,1.97,1.07.4,0,.8-.11,1.16-.31,1.1-.63,1.53-2.04,1-3.2l-4.12,2.44Z"/><path class="cls-29" d="m705.9,521.87c-1.31,0-2.51-.74-3.15-1.92l-.1-.18c-.2-.38-.07-.88.3-1.1l4.89-2.9c.18-.11.4-.14.6-.08.2.06.37.2.47.39l.13.24c.46.87.58,1.87.31,2.83-.27.96-.87,1.75-1.71,2.24-.53.31-1.14.47-1.75.47Zm2.33-5.46s-.03,0-.04,0l-4.89,2.9s-.05.07-.03.1l.09.18c.51.95,1.48,1.54,2.53,1.54.49,0,.97-.13,1.4-.38.67-.39,1.16-1.03,1.37-1.8.21-.77.12-1.58-.25-2.27l-.13-.24s-.03-.03-.05-.04c0,0-.02,0-.02,0Zm-2.33,4.57c-.9,0-1.75-.46-2.26-1.23-.06-.08-.08-.19-.05-.29.02-.1.08-.19.17-.24l4.12-2.44c.09-.05.19-.06.28-.03.09.03.17.1.21.19.6,1.34.1,2.96-1.15,3.68-.41.23-.87.36-1.33.36Zm-1.42-1.33c.38.38.88.6,1.42.6.34,0,.68-.09.98-.26.81-.47,1.2-1.44.98-2.34l-3.39,2.01Z"/><path class="cls-29" d="m703.26,500.91c0,.17-.13.3-.29.3h-3.32c-.16,0-.29-.14-.29-.3s.13-.3.29-.3h3.32c.16,0,.29.14.29.3Z"/><path class="cls-29" d="m702.96,501.34h-3.32c-.36,0-.65-.3-.65-.67s.29-.67.65-.67h3.32c.36,0,.65.3.65.67s-.29.67-.65.67Z"/><path class="cls-23" d="m684.83,534.01c-1.26,0-2.42-.71-3.03-1.85l-.1-.19c-.12-.23-.04-.51.17-.64l5.22-3.09c.11-.06.23-.08.35-.04.12.04.22.12.28.23l.13.26c.93,1.73.32,3.92-1.35,4.88-.52.3-1.1.45-1.68.45Zm-2.1-2.09c.47.71,1.26,1.14,2.1,1.14.43,0,.85-.11,1.23-.33,1.17-.67,1.63-2.18,1.07-3.42l-4.4,2.61Z"/><path class="cls-29" d="m684.83,534.37c-1.39,0-2.67-.78-3.34-2.04l-.1-.19c-.21-.4-.07-.91.31-1.14l5.22-3.09c.19-.11.42-.14.63-.08.21.06.39.21.49.41l.13.26c.49.92.61,1.99.33,3.01-.28,1.02-.92,1.86-1.82,2.37-.57.33-1.21.5-1.85.5Zm2.49-5.84s-.04,0-.05.01l-5.22,3.09c-.05.03-.07.09-.04.15l.1.19c.55,1.02,1.59,1.65,2.72,1.65.52,0,1.05-.14,1.51-.41.72-.42,1.25-1.1,1.48-1.93.23-.83.13-1.7-.27-2.45l-.14-.26s-.04-.04-.06-.05c-.01,0-.02,0-.03,0Zm-2.49,4.88c-.95,0-1.85-.49-2.39-1.3-.06-.08-.08-.19-.05-.29.02-.1.08-.19.17-.24l4.4-2.61c.09-.05.19-.06.28-.03.09.03.17.1.21.19.64,1.42.1,3.13-1.22,3.9-.43.25-.92.38-1.41.38Zm-1.56-1.41c.41.42.97.67,1.56.67.37,0,.74-.1,1.06-.29.88-.51,1.3-1.58,1.06-2.56l-3.67,2.18Z"/><path class="cls-31" d="m678.62,506.11l-1.85,6.51c-.07.24.11.48.35.48h5.89c.24,0,.42-.25.34-.49l-1.99-6.51c-.05-.16-.19-.26-.34-.26h-2.05c-.16,0-.3.11-.35.27Z"/><path class="cls-29" d="m683,513.47h-5.89c-.23,0-.44-.11-.57-.3-.14-.19-.18-.43-.11-.65l1.85-6.51c.09-.31.37-.53.69-.53h2.05c.31,0,.59.21.68.52l1.99,6.51c.07.22.03.47-.11.66-.14.19-.35.3-.58.3Zm-4.03-7.26l-1.86,6.52h5.89s0,0,0,0l-1.98-6.52h-2.05Z"/><path class="cls-23" d="m682.01,512.01c0,.18-.14.32-.31.32h-3.54c-.17,0-.31-.15-.31-.32s.14-.32.31-.32h3.54c.17,0,.31.15.31.32Z"/><path class="cls-29" d="m681.7,512.46h-3.54c-.37,0-.67-.31-.67-.69s.3-.69.67-.69h3.54c.37,0,.67.31.67.69s-.3.69-.67.69Z"/><path class="cls-29" d="m703.18,518.32c-.13,0-.25-.07-.31-.19-.09-.18-.03-.4.14-.5l4.13-2.32c.17-.1.39-.03.48.15.09.18.03.4-.14.5l-4.13,2.32c-.05.03-.11.04-.17.04Z"/><path class="cls-29" d="m681.93,530.59c-.12,0-.24-.07-.31-.18-.1-.18-.04-.4.13-.5l4.35-2.63c.17-.1.39-.04.49.13.1.17.04.4-.13.5l-4.35,2.63c-.06.03-.12.05-.18.05Z"/><path class="cls-29" d="m644,456.82s-.53,5.83-.41,6.38c.12.55,2.7,5.3,4.38,5.21,0,0,3.91-2.74,8.71-2.97,4.8-.22,7.79-.62,12.78,1.82,4.99,2.44,9.13,4.88,9.13,4.88,0,0-3.9-5.96-9.12-8.33-5.23-2.37-9.3-2.76-12.97-2.09-3.67.67-8.29,2.61-8.29,2.61,0,0-3.26-3.53-4.21-7.52Z"/><path class="cls-36" d="m292.28,389.47c19.72-14.61-29.7-6.42-30.13-6.45-.13.44.44,4.63-.54,4.09.38-.3,30.65,3.35,30.67,2.35Z"/><path class="cls-19" d="m248.67,384.78l18.77-4.51c6.79,7.84-15.29,7.52-17.91,9.6-.51.21-1.28-5.1-.86-5.09Z"/><path class="cls-26" d="m409.6,432.96l5.49-62.09"/><path class="cls-26" d="m350.26,367.41l59.9,6.03"/><path class="cls-26" d="m414.17,305.88l-6.33,62.55"/><path class="cls-26" d="m472.59,371.63l-57.59-4.69"/><path class="cls-26" d="m386.81,427.76l20.6-58.6"/><path class="cls-26" d="m467.5,394.55l-56.69-20.9"/><path class="cls-26" d="m435,310.74l-20.03,59.38"/><path class="cls-26" d="m355.06,344.54l54.04,21.1"/><path class="cls-26" d="m396.95,431.25l10.5-61.4"/><path class="cls-26" d="m470.88,384.13l-59.33-10.47"/><path class="cls-26" d="m424.87,307.39l-9.81,62.07"/><path class="cls-26" d="m351.78,354.95l56.76,11.13"/><path class="cls-26" d="m420.02,432.37l-4.75-62.16"/><path class="cls-26" d="m350.81,378.13l60.03-4.53"/><path class="cls-26" d="m403.74,306.31l4,62.76"/><path class="cls-26" d="m472.07,360.9l-57.53,5.45"/><path class="cls-26" d="m424.47,431.62l-16.45-59.99"/><path class="cls-26" d="m471.12,355.89l-57.81,17.32"/><path class="cls-26" d="m397.34,307.57l17.35,60.28"/><path class="cls-26" d="m351.63,383.32l55.77-15.57"/><path class="cls-26" d="m434.67,428.32l-26.23-56.15"/><path class="cls-26" d="m467.97,345.4l-54.04,27.38"/><path class="cls-26" d="m387.23,310.98l27.16,56.28"/><path class="cls-26" d="m354.86,393.74l52.33-25.29"/><path class="cls-26" d="m445.9,422.06l-30.68-53.68"/><path class="cls-26" d="m360.67,404.77l52-31.33"/><path class="cls-26" d="m377.7,316.22l30.26,54.56"/><path class="cls-26" d="m462.28,334.23l-49.36,31.02"/><path class="cls-26" d="m454.01,415.27l-39.02-47.54"/><path class="cls-26" d="m367.19,413.14l46.12-39.97"/><path class="cls-26" d="m369.48,322.88l38.75,48.48"/><path class="cls-26" d="m455.79,325.84l-43.58,39.2"/><path class="cls-6" d="m410.91,439.76c87.38,1.32,87.38-140.57,0-139.23-87.37-1.32-87.37,140.56,0,139.23Z"/><path class="cls-10" d="m410.91,435.25c81.71,1.23,81.71-131.45,0-130.21-81.71-1.23-81.71,131.45,0,130.21Z"/><path class="cls-13" d="m410.91,437.96c85.11,1.28,85.12-136.93,0-135.63-85.11-1.28-85.11,136.93,0,135.63Z"/><path class="cls-35" d="m410.91,375.04c6.15.09,6.15-9.89,0-9.8-6.15-.09-6.15,9.89,0,9.8Z"/><path class="cls-26" d="m376.4,421.81l31.1-53.43"/><path class="cls-26" d="m461.75,405.24l-51.75-31.77"/><path class="cls-26" d="m445.42,316.54l-30.69,54.3"/><path class="cls-26" d="m360.7,333.84l49.12,31.43"/><path class="cls-26" d="m206.5,432.96l5.49-62.09"/><path class="cls-26" d="m147.16,367.41l59.9,6.03"/><path class="cls-26" d="m211.08,305.88l-6.33,62.55"/><path class="cls-26" d="m269.49,371.63l-57.59-4.69"/><path class="cls-26" d="m183.71,427.76l20.6-58.6"/><path class="cls-26" d="m264.4,394.55l-56.69-20.9"/><path class="cls-26" d="m231.9,310.74l-20.03,59.38"/><path class="cls-26" d="m151.97,344.54l54.04,21.1"/><path class="cls-26" d="m193.85,431.25l10.5-61.4"/><path class="cls-26" d="m267.78,384.13l-59.33-10.47"/><path class="cls-26" d="m221.77,307.39l-9.81,62.07"/><path class="cls-26" d="m148.68,354.95l56.76,11.13"/><path class="cls-26" d="m216.92,432.36l-4.75-62.16"/><path class="cls-26" d="m147.71,378.13l60.03-4.53"/><path class="cls-26" d="m200.64,306.31l4,62.76"/><path class="cls-26" d="m268.97,360.9l-57.53,5.45"/><path class="cls-26" d="m221.37,431.62l-16.45-59.99"/><path class="cls-26" d="m268.02,355.89l-57.81,17.32"/><path class="cls-26" d="m194.25,307.57l17.35,60.28"/><path class="cls-26" d="m148.54,383.32l55.77-15.57"/><path class="cls-26" d="m231.57,428.32l-26.23-56.15"/><path class="cls-26" d="m264.87,345.4l-54.04,27.38"/><path class="cls-26" d="m184.13,310.98l27.16,56.28"/><path class="cls-26" d="m151.76,393.74l52.33-25.29"/><path class="cls-26" d="m242.8,422.06l-30.68-53.68"/><path class="cls-26" d="m157.58,404.77l52-31.33"/><path class="cls-26" d="m174.6,316.22l30.26,54.56"/><path class="cls-26" d="m259.19,334.23l-49.36,31.02"/><path class="cls-26" d="m250.92,415.27l-39.02-47.54"/><path class="cls-26" d="m164.09,413.13l46.12-39.97"/><path class="cls-26" d="m166.38,322.88l38.75,48.48"/><path class="cls-26" d="m252.69,325.84l-43.58,39.2"/><path class="cls-6" d="m207.81,439.76c87.38,1.32,87.38-140.57,0-139.23-87.37-1.32-87.37,140.56,0,139.23Z"/><path class="cls-10" d="m207.81,435.25c81.71,1.23,81.71-131.45,0-130.21-81.71-1.23-81.71,131.45,0,130.21Z"/><path class="cls-13" d="m207.81,437.96c85.12,1.28,85.12-136.93,0-135.63-85.11-1.28-85.11,136.93,0,135.63Z"/><path class="cls-35" d="m207.81,375.04c6.15.09,6.15-9.89,0-9.8-6.15-.09-6.15,9.89,0,9.8Z"/><path class="cls-26" d="m173.3,421.81l31.1-53.43"/><path class="cls-26" d="m258.65,405.24l-51.75-31.77"/><path class="cls-26" d="m242.32,316.54l-30.69,54.3"/><path class="cls-26" d="m157.6,333.84l49.12,31.43"/><path class="cls-39" d="m254.03,249.59c-1.82-5.45,3.07-4.08,4.31-.55,0,0-4.31.55-4.31.55Z"/><path class="cls-3" d="m313.52,384.37c-7.64,42.12-66.27,16.92-110.47,17.35-4.32-6.25,10.42-9.88,6.37-15.95-45.29-41.86,76.5-20.19,82.05-24.2,12.18,0,22.05,10.21,22.05,22.79Z"/><path class="cls-18" d="m313.52,384.37c-7.64,41.83-65.06,17.37-109.05,17.26-6.35-6.15,9.13-9.86,4.95-15.85-43.86-41.98,76.65-20.34,82.05-24.2,12.18,0,22.05,10.21,22.05,22.79Z"/><path class="cls-24" d="m418.81,251.35c-17.8-58.37-40.97,9.91-68.27,19.48-28.05,6.85-94.4-21.27-106.1,26.38"/><path class="cls-32" d="m409.99,258.88c6.31,1.01,6.88-4.83,8.62-8.29,2.53-.87,3.62,3.98,2.74,5.18,3.78,3.04,7.22,19.36,4.54,24.86.4,1.8.6,4.63-.26,2.83-2.06-3.97,2.12-18.07-5.41-19.48-7.16,1.75-6.05,9.06-10.22-5.11Z"/><path d="m381.89,295.13c-5.53,9.31,17.95,63.96,28.23,76.05,7.31.61-9.62-17.37-8.14-20.57-3.72-7.49-15.48-55.05-20.09-55.48Z"/><path class="cls-32" d="m373.82,262.98c-4.94-10.28,4.04-7.88,9.5-8.01,3.3,3.78,5.85-2.03,4.35-4.74-2.78.32-15.86.33-18.99.05-4.6-.57-.14,18,5.15,12.7Z"/><path class="cls-32" d="m257.8,265.18c-.47-2.76-4.37-14.02-3.73-16.26,2.46-.56,4.25-1.37,5.15,1.61-.25,4.16,8.78,17.02-1.42,14.65Z"/><path class="cls-12" d="m256.73,249l4.61,14.99"/><path class="cls-17" d="m207.79,379.99c12.08.18,12.08-19.44,0-19.25-12.08-.18-12.08,19.44,0,19.25Z"/><path class="cls-2" d="m207.79,379.42c11.37.17,11.37-18.29,0-18.11-11.37-.17-11.37,18.29,0,18.11Z"/><path class="cls-15" d="m210.5,369.04l80.71,15.47"/><path class="cls-37" d="m208.63,368.76l54.52-95.03-54.52,95.03Z"/><path class="cls-15" d="m208.63,368.76l54.52-95.03"/><path class="cls-37" d="m260.28,264.32c-9.31-4.06,30.05,120.13,27.86,121.03,1.09,4.23,7.23,2.55,6.14-1.68-2.49-.03-27.56-127.42-34-119.34Z"/><path class="cls-37" d="m377.09,288.12l-85.88,96.38,85.88-96.38Z"/><path class="cls-11" d="m377.09,288.12l-85.88,96.38"/><path class="cls-37" d="m371.64,275.11l-107.96-.55,107.96.55Z"/><path class="cls-8" d="m371.64,275.11l-107.96-.55"/><path class="cls-37" d="m373.57,268.8c-8.04-1.52,4.32,22.53,3.3,25.15,11.6,14.24,1.61-30.35-3.3-25.15Z"/><path class="cls-9" d="m376.09,266.25l-6.85,1.87c-.22.33,7.2-1.69,6.85-1.87Z"/><path class="cls-34" d="m228.7,231.92c9.11,27.36,41.02,4.46,56.64,10.69,1.3-10.42-11.51-7.86-29.71-9.52-18.36,1.26-24.91-8.58-26.93-1.17Z"/><path class="cls-28" d="m207.81,373.59c4.33.07,4.33-6.96,0-6.9-4.33-.07-4.33,6.96,0,6.9Z"/><path class="cls-14" d="m291.87,401.91c22.19.34,22.19-35.7,0-35.36-22.19-.34-22.19,35.7,0,35.36Z"/><path class="cls-5" d="m291.87,401.11c21.18.32,21.18-34.08,0-33.75-21.18-.32-21.18,34.08,0,33.75Z"/><path class="cls-9" d="m384.22,295.36l-6.85,1.87c-.22.33,7.2-1.69,6.85-1.87Z"/><path class="cls-36" d="m420.75,261.5c1.47.02,1.47-2.37,0-2.35-1.47-.02-1.47,2.37,0,2.35Z"/><path class="cls-12" d="m370.94,263.52l-2.95-11.01"/><path class="cls-33" d="m367.87,252.24c.89.81,18.19-1.95,15.8,1.88-4.47.07-12.35,1.47-15.8-1.88Z"/><path class="cls-35" d="m374.97,262.46c-1.16.9-8.54.67-6.08,3.78,1.16-.9,8.54-.67,6.08-3.78Z"/><path class="cls-20" d="m243.5,298.28c-.57-1.46-5.88,10.74-6.16,10.63.06.13,6.13-10.65,6.16-10.63Z"/><path class="cls-20" d="m243.31,301.54c-1.25.67,4.6,2.46,4.62,2.75.13-.05-4.64-2.73-4.62-2.75Z"/><path class="cls-24" d="m418.81,251.35c-9.23-45.71-49.08-27.7-32.74,39.78"/><path class="cls-35" d="m276.47,269.78h-5.73c-2.69,2.33,8.42,2.33,5.73,0Z"/><path class="cls-35" d="m309.74,269.78c-.71.42-7.12-1.13-6.04,1.23.27.43,8.48,1.18,6.04-1.23Z"/><path class="cls-35" d="m349.16,269.78h-5.73c-2.69,2.33,8.42,2.33,5.73,0Z"/><path class="cls-21" d="m386.29,292.82c.86-1.3,3.5,11.8,3.79,11.76-.08.12-3.76-11.77-3.79-11.76Z"/><path class="cls-22" d="m309.54,395.44c-16.41-7.48-15.93-8.71-22.64,9.03,1.79-18.18,2.48-17.92-15.31-19.47,0,0,15.92-3.98,15.92-3.98l-2.74-17.08c8.56,17.11,7.93,15.79,23.45,6.45-12.76,13.88-12.88,12.77,1.31,25.05Z"/><path class="cls-4" d="m291.87,406.74c28.24.43,28.24-45.44,0-45.01-28.24-.43-28.24,45.44,0,45.01Z"/><path class="cls-7" d="m291.87,405.71c26.96.41,26.96-43.37,0-42.96-26.96-.41-26.96,43.37,0,42.96Z"/><path class="cls-16" d="m206.65,392.12c4.95.07,4.95-7.96,0-7.88-4.95-.07-4.95,7.96,0,7.88Z"/><path class="cls-1" d="m206.65,391.89c4.65.07,4.65-7.49,0-7.42-4.65-.07-4.65,7.49,0,7.42Z"/><path class="cls-16" d="m205.71,402.62c4.95.07,4.95-7.96,0-7.88-4.95-.07-4.95,7.96,0,7.88Z"/><path class="cls-1" d="m205.71,402.39c4.65.07,4.65-7.49,0-7.42-4.65-.07-4.65,7.49,0,7.42Z"/><path class="cls-34" d="m387.11,250.63c-9.3,10.01,24.61,5.19,22.42,18.84.63,14.08-33.11,8.32-23.74,19.23,31.9-3.27,43.33-32.35,1.32-38.07Z"/><path class="cls-36" d="m292.05,389.56c-19.72-14.61,29.7-6.42,30.13-6.45.13.44-.44,4.63.54,4.09-.38-.3-30.65,3.35-30.67,2.35Z"/><path class="cls-19" d="m335.02,381.66l-19.18,1.95c-4.01,9.68,16.81,2.06,19.94,3.16.54.03-.37-5.26-.76-5.11Z"/><path class="cls-39" d="m325.81,387.89c3.21.05,3.21-5.3,0-5.25-3.21-.05-3.21,5.3,0,5.25Z"/><path class="cls-30" d="m292.28,388.45c4.05.06,4.05-6.69,0-6.63-4.05-.06-4.05,6.69,0,6.63Z"/><line class="cls-27" x1="205.75" y1="373.77" x2="115.9" y2="321.3"/><line class="cls-27" x1="204.03" y1="393.09" x2="106.6" y2="348.46"/><path class="cls-38" d="m253.88,229.67c7.2-.1,7.2,10.69,0,10.59-7.2.1-7.2-10.69,0-10.59Z"/><path class="cls-38" d="m237.68,293.24c6.65-.1,6.65,10.7,0,10.59-6.65.1-6.65-10.7,0-10.59Z"/><path class="cls-38" d="m390.26,227.23c7.2-.1,7.2,10.69,0,10.59-7.2.1-7.2-10.69,0-10.59Z"/><path class="cls-38" d="m389.44,249.23c6.13-.1,6.14,10.7,0,10.59-6.13.1-6.13-10.7,0-10.59Z"/><path class="cls-38" d="m410.33,270.42c6.65-.1,6.65,10.7,0,10.59-6.65.1-6.65-10.7,0-10.59Z"/><path class="cls-38" d="m333.07,325.84c6.65-.1,6.65,10.7,0,10.59-6.65.1-6.65-10.7,0-10.59Z"/><path class="cls-38" d="m478.52,356.81c6.13-.1,6.14,10.7,0,10.59-6.13.1-6.13-10.7,0-10.59Z"/><path class="cls-38" d="m442.29,395.93c7.2-.1,7.2,10.69,0,10.59-7.2.1-7.2-10.69,0-10.59Z"/><path class="cls-38" d="m315.73,380.44c6.65-.1,6.65,10.7,0,10.59-6.65.1-6.65-10.7,0-10.59Z"/><path class="cls-38" d="m206.15,370.66c6.65-.1,6.65,10.7,0,10.59-6.65.1-6.65-10.7,0-10.59Z"/><path class="cls-38" d="m204.21,386.15c7.2-.1,7.2,10.69,0,10.59-7.2.1-7.2-10.69,0-10.59Z"/><path class="cls-38" d="m284.19,381.26c6.65-.1,6.65,10.7,0,10.59-6.65.1-6.65-10.7,0-10.59Z"/><path class="cls-31" d="m720.41,472.6c-25.15,55.06-36.16-9.19-44.6,5.74,3.08,7.27,26.1,22.2,28.22,41.34,7.77-2.17-2.64-16.5-.17-19.02,1.07.31,21.95-14.96,16.55-28.05Z"/><path class="cls-29" d="m704.42,518.32c-3.92-7.99-4.32-14.25-4.31-18.37-13.13-5.63-23.26-21.58-23.49-22.13,1.92-8.07,9.76,14.67,24.97,19.62,10.05.08,14.47-24.94,19.56-22.12-4.45,17.89-14.48,21.72-18.24,25.33-2.24,1.69,6.04,14.64,1.5,17.67Z"/><path class="cls-29" d="m704.04,520.04c-2.42-18.12-25.41-34.8-28.53-41.5,2.55-14.18,9.95,11.73,26.07,17.43,9.78.86,15.21-31.9,20.83-20.3-6.83,28.5-26.35,17.3-13.98,41.41.43.68-4.15,2.7-4.39,2.96Zm-26.24-45.06c-6.79,8.81,26.09,23.13,26.37,44.19,0,0,3.47-2.05,3.47-2.05-12.32-24.84,6.97-12.81,14.09-41.63.7-2.56-3.21-3.68-3.85-1.07-10.05,38.52-31.06,12.05-40.07.57Z"/><path class="cls-31" d="m700.08,495.39c-2.36,6.22-2.04,7.91,4.42,6.09-.82-1.63-1.26-8.41-4.42-6.09Z"/><path class="cls-29" d="m704.18,502.3c-7.08.85-6.55-1.02-4.44-7.02,2.96-3.44,6.09,5.86,4.44,7.02Zm-5.49-.74h5.47c-1.6-7.77-4.02-7.94-5.47,0Z"/><path class="cls-31" d="m700.33,481.78c-27.02,59.08-39.23-10.63-47.63,6.13,3.29,7.76,27.87,23.71,30.14,44.15,8.3-2.32-2.82-17.62-.18-20.32,1.14.34,23.44-15.97,17.67-29.95Z"/><path class="cls-29" d="m683.23,530.69c-4.21-8.54-4.65-15.29-4.64-19.67-14.05-6.05-24.82-23.05-25.07-23.64,2.11-8.94,10.4,15.53,26.72,20.84,10.46.38,16.2-28.02,20.95-23.53-4.75,19.04-15.45,23.29-19.47,27.03-2.42,1.82,6.61,15.83,1.51,18.96Z"/><path class="cls-29" d="m682.85,532.42c-2.55-19.39-27.13-37.13-30.45-44.31,2.72-15.04,10.61,12.58,27.82,18.65,10.45.92,16.23-33.97,22.22-21.71-7.32,30.47-28.14,18.45-14.93,44.24.45.68-4.45,2.87-4.67,3.12Zm-28.02-48.12c-7.84,8.76,27.6,24.44,28.15,47.24,0,0,3.75-2.22,3.75-2.22-13.17-26.53,7.43-13.67,15.03-44.46.76-2.76-3.46-3.97-4.16-1.16-10.75,41.15-33.14,12.8-42.77.59Z"/><path class="cls-31" d="m732.37,465.25c-10.46-52.99-115.97-43.32-85.78,21.94,9.63,15.4,7.44-3.98,18.76-1.09,19.56,8.08,21.37,1.07,46.04-.37,26.38-3.02,19.74-9.37,20.97-20.48Z"/><path class="cls-29" d="m653.26,494.35c-30.99-33.24,3.03-77.07,47.72-61.61,28.03,4.64,50.38,54,10.42,53.36-18.09-.62-19.17,4.74-28.02,5.12-9.9-2.54-24.91-9.7-30.12,3.13Zm-6.35-7.35c9.25,14.91,7.19-4.45,18.54-1.25,3.15.19,19.45,6.69,22.2,4.16,8.38-7.13,52.57,1.04,44.37-24.61-14.66-56.65-113.84-39.01-85.11,21.7Z"/><path class="cls-29" d="m651.49,486.9c-.37.22-9.21-6.68-6.53-7.12,7.43,12.63,5.65-2.03,19.31.28,18.25,12.26,64.91-6.96,21.49-1.87-8.75,1.22-28.21-12.04-35.2-2.29.68,1.31-9.28-3.57-7.24-6.22,8.54,11.2,19.12-4.41,33.56,6.24,7.79,3.63,29.72-3.43,30.73,4.9-22.42,11.11-48.72-8.31-56.12,6.08Z"/><path class="cls-29" d="m682.01,475.89c-18.45-18.05-36.96,1.29-39.69-12.73,5.93,11.69,22.79-4.63,38.51,11.08-11.26-23.81-34.01-1.63-37.32-20.96,4.93,17.58,28.81-3.56,38.5,22.62Z"/><path class="cls-29" d="m685.62,474.12c-18.87-16.15,15.92-8.62,18.39-.62-3.64-.5-13.51-.29-18.39.62Zm-5.73-8.75c3.85,11.4,9.85,6.93,18.52,6.89,11.35,1.83-8.61-8.95-18.52-6.89Z"/><path class="cls-29" d="m703.89,460.62c-10.74-7.95-48.37-5.99-54.57-18.68,10.79,12.36,37.87,8.58,53.37,17.52.36-5.38-32.62-16.35-32.49-19.02,10.88-1.91,41.97,7.91,49.86,17.3,4.37-10.65-23.05-22.68-23.13-24.85.09.32,8.36-.4,6.27,1.01-12.23-2.23,24.64,14.22,17.5,24.62-5.83-6.65-38.34-19.38-49.6-17.74,3.28,2.01,37.58,16.36,32.79,19.84Z"/><path class="cls-29" d="m725.38,453.26c-.29.28-2.37-6.17-.76-4.57.38,4.78,3.42,1,.76,4.57Z"/><path class="cls-29" d="m709.98,472.51c7.09-.09,15.38-1.67,20.61-7.07-4.39,6.5-13.42,8.37-20.61,7.07Z"/><path class="cls-29" d="m709.98,474.2c7.09-.09,15.38-1.67,20.61-7.07-4.39,6.5-13.42,8.37-20.61,7.07Z"/><path class="cls-29" d="m709.98,475.9c7.09-.09,15.38-1.67,20.61-7.07-4.39,6.5-13.42,8.37-20.61,7.07Z"/><path class="cls-29" d="m709.98,477.59c7.09-.09,15.38-1.67,20.61-7.07-4.39,6.5-13.42,8.37-20.61,7.07Z"/><path class="cls-29" d="m709.98,479.28c7.09-.09,15.38-1.67,20.61-7.07-4.39,6.5-13.42,8.37-20.61,7.07Z"/><path class="cls-29" d="m709.98,480.97c7.09-.09,15.38-1.67,20.61-7.07-4.39,6.5-13.42,8.37-20.61,7.07Z"/><path class="cls-29" d="m709.98,482.66c7.09-.09,15.38-1.67,20.61-7.07-4.39,6.5-13.42,8.37-20.61,7.07Z"/><path class="cls-29" d="m650.63,442.28c11.07,10.38,38.57,8.7,50.58,16.26-3.66-6.61-54.36-22.85-20.67-18.23,14.64,2.22,29.18,7.55,38.92,15.95-8.07-26.78-50.54-31.86-68.83-13.99Z"/><path class="cls-29" d="m681.08,466.14c2.14,9.66,12.88,4.2,19.49,5.52-.42-2.52-17.52-6.8-19.49-5.52Z"/><path class="cls-29" d="m644.41,473.57c.18,4.76,1.9,8.74,6.75,11.6,0,0,2.82-6.54,8.59-6.5,17.87,5.22,26.53,7.07,44.32.77-7.53-4.49-26.86,1.74-36.73-5.31-12.61-5.34-14.27,7.48-22.92-.55Z"/><path class="cls-29" d="m649.56,444.56c-1.54,2.79-3.89,5.5-4.24,8.78,1.35-2.21,3.07-6.3,4.24-8.78Z"/><path class="cls-29" d="m649.03,448.21c-1.45,2.16-2.51,4.81-2.83,7.42,1.01-1.57,1.81-5.42,2.83-7.42Z"/><path class="cls-29" d="m648.19,457.44c-.89-1.75-.28-4.01-.24-5.32-.78,1.18-1.24,5.43.24,5.32Z"/><path class="cls-29" d="m650.17,459.39c-1.1-1.25-1.13-3.96-1.76-4.66-.12,1.24.55,5.11,1.76,4.66Z"/><line class="cls-27" x1="709.64" y1="446.82" x2="723.64" y2="416.66"/><path class="cls-38" d="m709.1,440.75c6.65-.1,6.65,10.7,0,10.59-6.65.1-6.65-10.7,0-10.59Z"/><rect class="cls-25" x=".82" width="803.15" height="174.93"/></g></svg>