<?xml version="1.0" encoding="UTF-8"?><svg id="Livello_2" xmlns="http://www.w3.org/2000/svg" viewBox="0 0 803.12 347.46"><defs><style>.cls-1{stroke-width:.33px;}.cls-1,.cls-2,.cls-3,.cls-4,.cls-5,.cls-6,.cls-7,.cls-8,.cls-9,.cls-10,.cls-11,.cls-12,.cls-13,.cls-14,.cls-15{stroke-linecap:round;}.cls-1,.cls-2,.cls-4,.cls-5,.cls-6,.cls-16,.cls-17,.cls-18,.cls-19,.cls-20,.cls-7,.cls-21,.cls-9,.cls-10,.cls-13,.cls-14{stroke-linejoin:bevel;}.cls-1,.cls-2,.cls-4,.cls-5,.cls-16,.cls-17,.cls-7,.cls-14{stroke:gray;}.cls-1,.cls-2,.cls-22{fill:gray;}.cls-2{stroke-width:.81px;}.cls-23{fill:#fff;}.cls-3{stroke-dasharray:0 0 1.58 1.58;stroke-linejoin:round;}.cls-3,.cls-4,.cls-5,.cls-6,.cls-16,.cls-17,.cls-18,.cls-20,.cls-7,.cls-24,.cls-8,.cls-10,.cls-11,.cls-12,.cls-13,.cls-14,.cls-15,.cls-25,.cls-26{fill:none;}.cls-3,.cls-17,.cls-14{stroke-width:1.58px;}.cls-3,.cls-18{stroke:#4d4d4d;}.cls-4{stroke-dasharray:0 0 2 8.02;stroke-width:2px;}.cls-5{stroke-width:1.5px;}.cls-6{stroke-width:4.72px;}.cls-6,.cls-11{stroke:#000;}.cls-27{fill:#4d4d4d;}.cls-28{fill:#523333;}.cls-16{stroke-dasharray:0 0 .64 2.58;stroke-width:.64px;}.cls-16,.cls-17,.cls-18,.cls-19,.cls-20,.cls-21{stroke-linecap:square;}.cls-17{stroke-dasharray:0 0 1.57 6.3;}.cls-18,.cls-24,.cls-12,.cls-25,.cls-26{stroke-width:.79px;}.cls-19{stroke:#999;stroke-dasharray:0 0 5.04 5.04;stroke-width:1.26px;}.cls-19,.cls-29{fill:#999;}.cls-30{fill:#fbf5ec;}.cls-31{fill:#e6e6e6;}.cls-20,.cls-21{stroke-width:5.57px;}.cls-20,.cls-21,.cls-9,.cls-25{stroke:#ccc;}.cls-7{stroke-width:1.91px;}.cls-24{stroke:#3e3748;}.cls-32{fill:#f9f9f9;}.cls-33{fill:#a00;}.cls-8,.cls-11{stroke-width:9.45px;}.cls-8,.cls-15{stroke:#1a1a1a;}.cls-9{stroke-width:5.51px;}.cls-9,.cls-34{fill:#b3b3b3;}.cls-10{stroke:#e6e6e6;stroke-width:6.57px;}.cls-35{fill:#ccc;}.cls-12{stroke:#f9f9f9;}.cls-36{fill:#1a1a1a;}.cls-13{stroke:#fc0;stroke-width:2.36px;}.cls-37{fill:#ceb133;}.cls-14{stroke-dasharray:0 0 1.58 6.3;}.cls-15{stroke-width:6.3px;}.cls-38{fill:#666;}.cls-26{stroke:#9b2321;}</style></defs><g id="Livello_1-2"><path class="cls-35" d="m291.97,207.44c19.67-13.98-29.72-6.31-30.1-6.23-.13.42.44,4.47-.54,3.96.38-.29,30.61,3.24,30.64,2.27Z"/><path class="cls-19" d="m248.41,202.91c.3.18,19-4.9,19.07-4.14,5.67,7.57-15.61,7.01-18.21,9.06-.51.2-1.28-4.93-.86-4.92Z"/><path class="cls-25" d="m409.17,249.47l5.49-60"/><path class="cls-25" d="m349.89,186.12l59.84,5.83"/><path class="cls-25" d="m413.74,126.66l-6.32,60.44"/><path class="cls-25" d="m472.09,190.2l-57.53-4.53"/><path class="cls-25" d="m386.4,244.44l20.57-56.63"/><path class="cls-25" d="m467.01,212.35l-56.63-20.2"/><path class="cls-25" d="m434.54,131.37l-20.01,57.38"/><path class="cls-25" d="m354.69,164.02l53.99,20.39"/><path class="cls-25" d="m396.53,247.81l10.49-59.33"/><path class="cls-25" d="m470.38,202.28l-59.27-10.11"/><path class="cls-25" d="m424.42,128.12l-9.8,59.98"/><path class="cls-25" d="m351.41,174.08l56.7,10.76"/><path class="cls-25" d="m419.58,248.89l-4.74-60.06"/><path class="cls-25" d="m350.44,196.49l59.96-4.38"/><path class="cls-25" d="m403.31,127.08l4,60.64"/><path class="cls-25" d="m471.57,179.83l-57.47,5.27"/><path class="cls-25" d="m424.02,248.17l-16.43-57.97"/><path class="cls-25" d="m470.63,174.99l-57.75,16.74"/><path class="cls-25" d="m396.93,128.3l17.33,58.25"/><path class="cls-25" d="m351.26,201.49l55.71-15.04"/><path class="cls-25" d="m434.21,244.98l-26.2-54.26"/><path class="cls-25" d="m467.48,164.85l-53.99,26.46"/><path class="cls-25" d="m386.82,131.59l27.13,54.38"/><path class="cls-25" d="m354.48,211.57l52.28-24.44"/><path class="cls-25" d="m445.42,238.93l-30.64-51.88"/><path class="cls-25" d="m360.29,222.22l51.95-30.27"/><path class="cls-25" d="m377.3,136.65l30.23,52.72"/><path class="cls-25" d="m461.8,154.06l-49.31,29.97"/><path class="cls-25" d="m453.53,232.37l-38.98-45.94"/><path class="cls-25" d="m366.8,230.31l46.08-38.63"/><path class="cls-25" d="m369.09,143.09l38.71,46.85"/><path class="cls-25" d="m455.31,145.95l-43.53,37.88"/><path class="cls-6" d="m410.47,256.04c87.28,1.27,87.28-135.83,0-134.54-87.28-1.27-87.28,135.83,0,134.54Z"/><path class="cls-10" d="m410.47,251.68c81.63,1.19,81.63-127.03,0-125.82-81.62-1.19-81.62,127.02,0,125.82Z"/><path class="cls-13" d="m410.47,254.3c85.02,1.24,85.03-132.32,0-131.06-85.02-1.24-85.02,132.32,0,131.06Z"/><path class="cls-34" d="m410.47,193.5c6.14.09,6.14-9.56,0-9.47-6.14-.09-6.14,9.56,0,9.47Z"/><path class="cls-25" d="m376,238.69l31.07-51.62"/><path class="cls-25" d="m461.27,222.67l-51.7-30.7"/><path class="cls-25" d="m444.95,136.97l-30.65,52.47"/><path class="cls-25" d="m360.32,153.68l49.07,30.37"/><path class="cls-25" d="m206.28,249.47l5.49-60"/><path class="cls-25" d="m147.01,186.12l59.84,5.83"/><path class="cls-25" d="m210.85,126.66l-6.32,60.44"/><path class="cls-25" d="m269.21,190.2l-57.53-4.53"/><path class="cls-25" d="m183.52,244.44l20.57-56.63"/><path class="cls-25" d="m264.12,212.35l-56.63-20.2"/><path class="cls-25" d="m231.65,131.37l-20.01,57.38"/><path class="cls-25" d="m151.81,164.02l53.99,20.39"/><path class="cls-25" d="m193.65,247.81l10.49-59.33"/><path class="cls-25" d="m267.5,202.28l-59.27-10.11"/><path class="cls-25" d="m221.53,128.12l-9.8,59.98"/><path class="cls-25" d="m148.53,174.08l56.7,10.76"/><path class="cls-25" d="m216.7,248.89l-4.74-60.06"/><path class="cls-25" d="m147.56,196.49l59.96-4.38"/><path class="cls-25" d="m200.43,127.08l4,60.64"/><path class="cls-25" d="m268.69,179.83l-57.47,5.27"/><path class="cls-25" d="m221.13,248.17l-16.43-57.97"/><path class="cls-25" d="m267.74,174.99l-57.75,16.74"/><path class="cls-25" d="m194.04,128.3l17.34,58.25"/><path class="cls-25" d="m148.38,201.49l55.71-15.04"/><path class="cls-25" d="m231.32,244.98l-26.2-54.26"/><path class="cls-25" d="m264.59,164.85l-53.99,26.46"/><path class="cls-25" d="m183.94,131.59l27.13,54.38"/><path class="cls-25" d="m151.6,211.57l52.28-24.44"/><path class="cls-25" d="m242.54,238.93l-30.65-51.88"/><path class="cls-25" d="m157.41,222.22l51.94-30.27"/><path class="cls-25" d="m174.42,136.65l30.23,52.72"/><path class="cls-25" d="m258.91,154.06l-49.31,29.97"/><path class="cls-25" d="m250.65,232.37l-38.98-45.94"/><path class="cls-25" d="m163.92,230.31l46.07-38.62"/><path class="cls-25" d="m166.21,143.09l38.71,46.85"/><path class="cls-25" d="m252.43,145.95l-43.53,37.88"/><path class="cls-6" d="m207.59,256.04c87.28,1.27,87.28-135.83,0-134.54-87.28-1.27-87.28,135.83,0,134.54Z"/><path class="cls-10" d="m207.59,251.68c81.63,1.19,81.63-127.02,0-125.82-81.62-1.19-81.62,127.02,0,125.82Z"/><path class="cls-13" d="m207.59,254.3c85.03,1.24,85.03-132.32,0-131.06-85.02-1.24-85.02,132.32,0,131.06Z"/><path class="cls-34" d="m207.59,193.5c6.14.09,6.14-9.56,0-9.47-6.14-.09-6.14,9.56,0,9.47Z"/><path class="cls-25" d="m173.12,238.69l31.07-51.62"/><path class="cls-25" d="m258.38,222.67l-51.7-30.7"/><path class="cls-25" d="m242.07,136.97l-30.65,52.47"/><path class="cls-25" d="m157.44,153.68l49.07,30.37"/><path class="cls-38" d="m253.76,72.27l-.53-2.94c2.15-2.3,3.92,1.07,4.84,2.4l-4.3.53Z"/><path class="cls-3" d="m313.19,202.51c-7.64,40.7-66.2,16.35-110.35,16.77-4.32-6.04,10.41-9.55,6.36-15.41-45.24-40.45,76.42-19.51,81.96-23.38,12.17,0,22.03,9.86,22.03,22.03Z"/><path class="cls-18" d="m313.19,202.51c-7.63,40.42-65,16.78-108.94,16.67-6.35-5.94,9.12-9.53,4.95-15.32-43.82-40.57,76.57-19.65,81.96-23.38,12.17,0,22.03,9.86,22.03,22.03Z"/><path class="cls-24" d="m418.37,73.97c-17.78-56.4-40.93,9.57-68.2,18.82-28.5,5.62-93.7-18.9-105.98,25.49"/><path class="cls-31" d="m409.56,81.25c6.31.97,6.87-4.67,8.61-8.01,2.53-.84,3.61,3.84,2.74,5.01,5.19,4.1,6.73,23.43,4.27,26.76-2.06-3.84,2.12-17.47-5.4-18.82-6.92,1.02-5.66,9.73-10.21-4.94Z"/><path d="m381.49,116.28c-6.72,5.15,19.09,64.75,28.2,73.49,7.3.59-9.62-16.79-8.13-19.87-3.58-6.99-15.68-53.6-20.07-53.61Z"/><path class="cls-31" d="m373.42,85.21c.35-1.95-4.23-7.49.38-7.64,5.64-.36,8.39-.33,12.36,1.18,7.7-9.99-13.45-4.08-17.88-5.81-5.31-.32,1.59,13.01,1.04,13.5l4.11-1.23Z"/><path class="cls-31" d="m257.52,87.34c.03-4.21-8.25-17.2-.05-16.56,1.51,1.19,4.75,14.03,5.38,15.95l-5.33.61Z"/><path class="cls-12" d="m256.46,71.71l4.6,14.48"/><path class="cls-17" d="m207.57,198.28c12.07.18,12.07-18.78,0-18.61-12.07-.18-12.07,18.78,0,18.61Z"/><path class="cls-2" d="m207.57,197.73c11.35.17,11.35-17.67,0-17.5-11.35-.17-11.35,17.67,0,17.5Z"/><path class="cls-15" d="m210.28,187.7l80.62,14.95"/><path class="cls-36" d="m208.41,187.43l54.46-91.83-54.46,91.83Z"/><path class="cls-15" d="m208.41,187.43l54.46-91.83"/><path class="cls-36" d="m260,86.51c-9.3-3.92,30.02,116.08,27.83,116.95,1.09,4.09,7.22,2.46,6.14-1.63-2.49-.03-27.53-123.12-33.96-115.32Z"/><path class="cls-36" d="m376.69,109.51l-85.79,93.14,85.79-93.14Z"/><path class="cls-11" d="m376.69,109.51l-85.79,93.14"/><path class="cls-36" d="m371.25,96.93l-107.85-.53,107.85.53Z"/><path class="cls-8" d="m371.25,96.93l-107.85-.53"/><path class="cls-36" d="m373.17,90.83c-8.04-1.47,4.32,21.77,3.3,24.31,1.08,4.18,7.36,2.42,6.11-1.71-2.09-1.61-3.78-26.96-9.4-22.59Z"/><path class="cls-9" d="m375.7,88.37l-6.85,1.81.04.14,6.85-1.81-.04-.14Z"/><path class="cls-33" d="m228.45,55.2c9.1,26.44,40.98,4.31,56.58,10.33,1.3-10.07-11.49-7.59-29.68-9.2-18.34,1.21-24.88-8.29-26.9-1.13Z"/><path class="cls-27" d="m207.59,192.1c4.32.06,4.32-6.73,0-6.66-4.32-.06-4.32,6.73,0,6.66Z"/><path class="cls-14" d="m291.57,219.46c22.17.32,22.17-34.5,0-34.17-22.17-.32-22.17,34.5,0,34.17Z"/><path class="cls-5" d="m291.57,218.69c21.16.31,21.16-32.93,0-32.62-21.16-.31-21.16,32.93,0,32.62Z"/><path class="cls-9" d="m383.81,116.5l-6.85,1.81.04.14,6.85-1.81-.04-.14Z"/><path class="cls-35" d="m420.3,83.79c1.47.02,1.47-2.29,0-2.27-1.47-.02-1.47,2.29,0,2.27Z"/><path class="cls-12" d="m370.55,85.73l-2.95-10.63"/><path class="cls-32" d="m367.48,74.83l15.86.02c-.28.63-.23,1.22-.07,1.79l-11.92.5s.1-1.65-3.37-1.49l-.49-.83Z"/><path class="cls-34" d="m374.58,84.71l-6.58,1.73.51,1.92,6.58-1.73-.51-1.92Z"/><path class="cls-20" d="m243.24,119.32l-.45-.25-5.7,10.52.04.02,6.11-10.29Z"/><path class="cls-20" d="m243.05,122.48l-.25.45,4.86,2.21.02-.04-4.63-2.62Z"/><path class="cls-24" d="m418.37,73.97c-9.22-44.17-49.03-26.77-32.7,38.44"/><path class="cls-34" d="m276.18,91.78c-.71.41-7.11-1.09-6.03,1.19.27.42,8.47,1.14,6.03-1.19Z"/><path class="cls-34" d="m309.41,91.78h-5.73c-2.68,2.25,8.41,2.25,5.73,0Z"/><path class="cls-34" d="m348.79,91.78c-.71.41-7.11-1.09-6.03,1.19.27.42,8.47,1.14,6.03-1.19Z"/><path class="cls-21" d="m385.88,114.05l.49-.15,3.3,11.51h-.04s-3.75-11.36-3.75-11.36Z"/><path class="cls-22" d="m309.22,213.21l-15.8-6.3-6.82,15.03.94-16.59-16.23-2.22,15.9-3.85-2.73-16.5,8.41,14.32,15.02-8.08-11.19,12.8,12.49,11.41Z"/><path class="cls-4" d="m291.57,224.12c28.21.41,28.21-43.91,0-43.49-28.21-.41-28.21,43.91,0,43.49Z"/><path class="cls-7" d="m291.57,223.14c26.93.39,26.93-41.91,0-41.51-26.93-.39-26.93,41.91,0,41.51Z"/><path class="cls-16" d="m206.43,210c4.94.07,4.94-7.69,0-7.62-4.94-.07-4.94,7.69,0,7.62Z"/><path class="cls-1" d="m206.43,209.78c4.65.07,4.65-7.23,0-7.17-4.65-.07-4.65,7.23,0,7.17Z"/><path class="cls-16" d="m205.5,220.15c4.94.07,4.94-7.69,0-7.62-4.94-.07-4.94,7.69,0,7.62Z"/><path class="cls-1" d="m205.5,219.92c4.65.07,4.65-7.23,0-7.17-4.65-.07-4.65,7.23,0,7.17Z"/><path class="cls-33" d="m386.7,73.28c-9.29,9.67,24.59,5.02,22.39,18.2.63,13.61-33.07,8.04-23.71,18.58,31.86-3.16,43.28-31.26,1.32-36.78Z"/><path class="cls-35" d="m291.74,207.53c-18.65-14.12,26.69-6.16,30.64-6.36-1.05-.52-.32,3.54-.54,3.96,2.53-.05-30.6,3.28-30.1,2.41Z"/><path class="cls-19" d="m334.67,199.89c-.22.25-19.58,1.46-19.39,2.18-2.95,8.99,17.03,1.64,20.15,2.75.54.02-.37-5.08-.76-4.94Z"/><path class="cls-38" d="m325.47,205.92c3.2.05,3.2-5.12,0-5.07-3.2-.05-3.2,5.12,0,5.07Z"/><path class="cls-29" d="m291.97,206.45c4.05.06,4.05-6.47,0-6.41-4.05-.06-4.05,6.47,0,6.41Z"/><line class="cls-26" x1="390.31" y1="76.76" x2="495.8" y2="32.46"/><line class="cls-26" x1="477.82" y1="180.47" x2="552.42" y2="168.23"/><line class="cls-26" x1="440.71" y1="217.19" x2="515.3" y2="241.67"/><line class="cls-26" x1="205.53" y1="192.27" x2="115.78" y2="141.57"/><line class="cls-26" x1="203.82" y1="210.94" x2="106.49" y2="167.81"/><line class="cls-26" x1="238.16" y1="120" x2="156.57" y2="73.38"/><line class="cls-26" x1="315.64" y1="205.15" x2="354.1" y2="281.5"/><line class="cls-26" x1="284.77" y1="204.89" x2="250.96" y2="290.56"/><line class="cls-26" x1="253.7" y1="57.34" x2="250.21" y2="17.13"/><line class="cls-26" x1="412.61" y1="96.54" x2="519.84" y2="94.81"/><line class="cls-26" x1="387.76" y1="55.1" x2="376.69" y2="23.05"/><line class="cls-26" x1="332.38" y1="153.49" x2="324.8" y2="42.18"/><path class="cls-37" d="m253.61,53.03c7.2-.09,7.2,10.33,0,10.24-7.2.09-7.2-10.33,0-10.24Z"/><path class="cls-37" d="m237.43,114.45c6.64-.1,6.64,10.34,0,10.24-6.64.1-6.64-10.34,0-10.24Z"/><path class="cls-37" d="m389.85,50.67c7.2-.09,7.2,10.33,0,10.24-7.2.09-7.2-10.33,0-10.24Z"/><path class="cls-37" d="m389.02,71.93c6.13-.1,6.13,10.34,0,10.24-6.13.1-6.13-10.34,0-10.24Z"/><path class="cls-37" d="m409.89,92.4c6.64-.1,6.64,10.34,0,10.24-6.64.1-6.64-10.34,0-10.24Z"/><path class="cls-37" d="m332.72,145.95c6.64-.1,6.64,10.34,0,10.24-6.64.1-6.64-10.34,0-10.24Z"/><path class="cls-37" d="m478.01,175.88c6.13-.1,6.13,10.34,0,10.24-6.13.1-6.13-10.34,0-10.24Z"/><path class="cls-37" d="m441.82,213.68c7.2-.09,7.2,10.33,0,10.24-7.2.09-7.2-10.33,0-10.24Z"/><path class="cls-37" d="m315.39,198.72c6.64-.1,6.64,10.34,0,10.24-6.64.1-6.64-10.34,0-10.24Z"/><path class="cls-37" d="m205.93,189.27c6.64-.1,6.64,10.34,0,10.24-6.64.1-6.64-10.34,0-10.24Z"/><path class="cls-37" d="m203.99,204.23c7.2-.09,7.2,10.33,0,10.24-7.2.09-7.2-10.33,0-10.24Z"/><path class="cls-37" d="m283.89,199.5c6.64-.1,6.64,10.34,0,10.24-6.64.1-6.64-10.34,0-10.24Z"/><path class="cls-28" d="m208.43,14.53c-2.6.09-3.42-2-3.24-4.32h2.08c-.69,2.1,2.16,3.52,2.28.92-.08-3.06-4.72-4.23-4.32-7.52-.28-5.03,7.47-4.32,6.48.62h-2.08c.62-1.94-2.08-3.2-2.2-.76,1.42,3.24,8.55,9.74,1,11.06Zm6.22-14.2h2.98l2.28,14h-2.2l-.4-2.78v.04h-2.5l-.4,2.74h-2.04l2.28-14Zm2.4,9.36l-.98-6.92h-.04l-.96,6.92h1.98Zm3.93-9.36c9.62-3.12,9.62,17.12,0,14V.33Zm3.32,12c1.77-.32,2.42-11.45-1.12-10v10h1.12Zm4.8-12c9.62-3.12,9.62,17.12,0,14V.33Zm3.32,12c1.77-.32,2.42-11.45-1.12-10v10h1.12Zm4.8-12h2.2v12h3.62v2h-5.82V.33Zm6.88,0h6v2h-3.8v3.7h3.02v2h-3.02v4.3h3.8v2h-6V.33Z"/><path class="cls-28" d="m204.75,15.93h45.79v1.6h-45.79v-1.6Z"/><path class="cls-28" d="m296.28,26.74h-2.3v-2h6.8v2h-2.3v12h-2.2v-12Zm8.77,12.2c-5.66.45-2.5-11.25-3.28-14.2h2.2c-1.11,15.26,3.36,15.17,2.24,0h2.12c-.78,2.98,2.38,14.63-3.28,14.2Zm4.85-14.2c4.5-1.3,9.38,2.76,5.16,6.52v.04c4.54,3.5-.01,9.11-5.16,7.44v-14Zm3.06,5.7c2.33-.13,1.64-4.64-.86-3.7v3.7h.86Zm.4,6.3c2.23-.37,1.41-5.34-1.26-4.3v4.3h1.26Zm4.62-12h6v2h-3.8v3.7h3.02v2h-3.02v4.3h3.8v2h-6v-14Zm10.17,14.2c-2.6.09-3.42-2-3.24-4.32h2.08c-.69,2.1,2.16,3.52,2.28.92-.08-3.06-4.72-4.23-4.32-7.52-.28-5.03,7.47-4.32,6.48.62h-2.08c.62-1.94-2.08-3.2-2.2-.76,1.42,3.24,8.55,9.74,1,11.06Z"/><path class="cls-28" d="m293.74,40.34h38.16v1.6h-38.16v-1.6Z"/><path class="cls-28" d="m380.35,20.04c-8.99-1.03.59-25.2,3.24-9.48h-2.08c-1.56-8.99-2.87,4.26-2.2,6.2.95,3.35,2.87-.31,2.2-2.14h2.08c.18,2.44-.07,5.58-3.24,5.42Zm6.26-14.2h2.98l2.28,14h-2.2l-.4-2.78v.04h-2.5l-.4,2.74h-2.04l2.28-14Zm2.4,9.36l-.98-6.92h-.04l-.96,6.92h1.98Zm3.93-9.36c4.5-1.3,9.38,2.76,5.16,6.52v.04c4.54,3.5-.01,9.11-5.16,7.44V5.84Zm3.06,5.7c2.33-.13,1.64-4.64-.86-3.7v3.7h.86Zm.4,6.3c2.23-.37,1.41-5.34-1.26-4.3v4.3h1.26Zm4.63-12h2.2v12h3.62v2h-5.82V5.84Zm6.88,0h6v2h-3.8v3.7h3.02v2h-3.02v4.3h3.8v2h-6V5.84Zm10.16,14.2c-2.6.09-3.42-2-3.24-4.32h2.08c-.69,2.1,2.16,3.52,2.28.92-.08-3.06-4.72-4.23-4.32-7.52-.28-5.03,7.47-4.32,6.48.62h-2.08c.62-1.94-2.08-3.2-2.2-.76,1.42,3.24,8.55,9.74,1,11.06Zm9.46-14.2h1.9l-5.52,14h-1.9l5.52-14Zm2.89,0c4.5-1.3,9.38,2.76,5.16,6.52v.04c4.54,3.5-.01,9.11-5.16,7.44V5.84Zm3.06,5.7c2.33-.13,1.64-4.64-.86-3.7v3.7h.86Zm.4,6.3c2.23-.37,1.41-5.34-1.26-4.3v4.3h1.26Zm4.63-12c4.78-1.46,9.22,3.27,5.08,6.84v.04c2.61,1.04.81,5.06,1.7,7.12h-2.24c-.82-1.83,1.2-6.64-2.34-6v6h-2.2V5.84Zm3,6c2.28-.09,1.75-4.95-.8-4v4h.8Zm5.07-6h6v2h-3.8v3.7h3.02v2h-3.02v4.3h3.8v2h-6V5.84Zm8.97,0h2.98l2.28,14h-2.2l-.4-2.78v.04h-2.5l-.4,2.74h-2.04l2.28-14Zm2.4,9.36l-.98-6.92h-.04l-.96,6.92h1.98Zm3.93-9.36h2.2v5.9l2.8-5.9h2.2l-2.62,5.14,2.66,8.86h-2.3l-1.86-6.24c-1.1,1.1-.91,4.84-.88,6.24h-2.2V5.84Zm11.01,14.2c-2.6.09-3.42-2-3.24-4.32h2.08c-.69,2.1,2.16,3.52,2.28.92-.08-3.06-4.72-4.23-4.32-7.52-.28-5.03,7.47-4.32,6.48.62h-2.08c.62-1.94-2.08-3.2-2.2-.76,1.42,3.24,8.55,9.74,1,11.06Z"/><path class="cls-28" d="m376.42,21.44h100.19v1.6h-100.19v-1.6Z"/><path class="cls-28" d="m520.57,76.72h2.2v5.7h2.36v-5.7h2.2v14h-2.2v-6.3h-2.36v6.3h-2.2v-14Zm10.1,0h2.98l2.28,14h-2.2l-.4-2.78v.04h-2.5l-.4,2.74h-2.04l2.28-14Zm2.4,9.36l-.98-6.92h-.04l-.96,6.92h1.98Zm3.93-9.36h2.76l2.14,8.38h.04v-8.38h1.96v14h-2.26l-2.64-10.22h-.04v10.22h-1.96v-14Zm8.54,0c9.62-3.12,9.62,17.12,0,14v-14Zm3.32,12c1.77-.32,2.42-11.45-1.12-10v10h1.12Zm4.8-12h6v2h-3.8v3.7h3.02v2h-3.02v4.3h3.8v2h-6v-14Zm7.27,0h2.2v12h3.62v2h-5.82v-14Zm9.73,14.2c-2.6.09-3.42-2-3.24-4.32h2.08c2.45,6.61,2.95-2.19-1.5-4.4-3.31-5.68,6.65-8.39,5.94-1.58h-2.08c.62-1.94-2.08-3.2-2.2-.76,1.42,3.24,8.55,9.74,1,11.06Zm9.46-14.2h1.9l-5.52,14h-1.9l5.52-14Zm2.89,0h2.2v5.7h2.36v-5.7h2.2v14h-2.2v-6.3h-2.36v6.3h-2.2v-14Zm10.1,0h2.98l2.28,14h-2.2l-.4-2.78v.04h-2.5l-.4,2.74h-2.04l2.28-14Zm2.4,9.36l-.98-6.92h-.04l-.96,6.92h1.98Zm3.93-9.36h2.76l2.14,8.38h.04v-8.38h1.96v14h-2.26l-2.64-10.22h-.04v10.22h-1.96v-14Zm8.53,0c9.62-3.12,9.62,17.12,0,14v-14Zm3.32,12c1.77-.32,2.42-11.45-1.12-10v10h1.12Zm4.8-12h2.2v12h3.62v2h-5.82v-14Zm6.88,0h6v2h-3.8v3.7h3.02v2h-3.02v4.3h3.8v2h-6v-14Zm10.47,0c4.5-1.3,9.38,2.76,5.16,6.52v.04c4.54,3.5-.01,9.11-5.16,7.44v-14Zm3.06,5.7c2.33-.13,1.64-4.64-.86-3.7v3.7h.86Zm.4,6.3c2.23-.37,1.41-5.34-1.26-4.3v4.3h1.26Zm6.33-12h2.98l2.28,14h-2.2l-.4-2.78v.04h-2.5l-.4,2.74h-2.04l2.28-14Zm2.4,9.36l-.98-6.92h-.04l-.96,6.92h1.98Zm3.93-9.36c4.78-1.46,9.22,3.27,5.08,6.84v.04c2.61,1.04.81,5.06,1.7,7.12h-2.24c-.82-1.83,1.2-6.64-2.34-6v6h-2.2v-14Zm3,6c2.28-.09,1.75-4.95-.8-4v4h.8Z"/><path class="cls-28" d="m519.75,92.32h137.04v1.6h-137.04v-1.6Z"/><path class="cls-28" d="m499.02,28.7c-2.6.09-3.42-2-3.24-4.32h2.08c2.45,6.61,2.95-2.19-1.5-4.4-3.31-5.68,6.65-8.39,5.94-1.58h-2.08c.62-1.94-2.08-3.2-2.2-.76,1.42,3.24,8.55,9.74,1,11.06Zm4.58-14.2h2.2v5.7h2.36v-5.7h2.2v14h-2.2v-6.3h-2.36v6.3h-2.2v-14Zm8.4,0h2.2v14h-2.2v-14Zm3.85,0h5.82v2h-3.62v3.9h2.84v2h-2.84v6.1h-2.2v-14Zm8.79,2h-2.3v-2h6.8v2h-2.3v12h-2.2v-12Zm5.57-2h6v2h-3.8v3.7h3.02v2h-3.02v4.3h3.8v2h-6v-14Zm7.27,0c4.78-1.46,9.22,3.27,5.08,6.84v.04c2.61,1.04.81,5.06,1.7,7.12h-2.24c-.82-1.83,1.2-6.64-2.34-6v6h-2.2v-14Zm3,6c2.28-.09,1.75-4.95-.8-4v4h.8Zm10.14-6h1.9l-5.52,14h-1.9l5.52-14Zm6.01,14.2c-8.95-.91.35-25.04,3.28-9.68h-2.08c-1.75-8.57-2.91,4.44-2.28,6.32,1.28,3.86,2.91-.93,2.28-2.74h-1.1v-2h3.18c-.16,2.72,1.06,8.36-3.28,8.1Zm4.69-14.2c4.78-1.46,9.22,3.27,5.08,6.84v.04c2.61,1.04.81,5.07,1.7,7.12h-2.24c-.82-1.83,1.2-6.64-2.34-6v6h-2.2v-14Zm3,6c2.28-.09,1.75-4.95-.8-4v4h.8Zm5.07-6h2.2v14h-2.2v-14Zm3.85,0c6.96-2.58,9.72,8.74,2.2,8.3v5.7h-2.2v-14Zm3.24,6.3c1.99-.3,1.52-5.31-1.04-4.3v4.3h1.04Zm7.41,7.9c-2.6.09-3.42-2-3.24-4.32h2.08c2.45,6.61,2.95-2.19-1.5-4.4-3.31-5.68,6.65-8.39,5.94-1.58h-2.08c.62-1.94-2.08-3.2-2.2-.76,1.42,3.24,8.55,9.74,1,11.06Zm9.46-14.2h1.9l-5.52,14h-1.9l5.52-14Zm4.81,2h-2.3v-2h6.8v2h-2.3v12h-2.2v-12Zm6.35-2h2.98l2.28,14h-2.2l-.4-2.78v.04h-2.5l-.4,2.74h-2.04l2.28-14Zm2.4,9.36l-.98-6.92h-.04l-.96,6.92h1.98Zm3.93-9.36c6.96-2.58,9.72,8.74,2.2,8.3v5.7h-2.2v-14Zm3.24,6.3c1.99-.3,1.52-5.31-1.04-4.3v4.3h1.04Zm4.47-6.3h6v2h-3.8v3.7h3.02v2h-3.02v4.3h3.8v2h-6v-14Z"/><path class="cls-28" d="m495.34,30.1h129.64v1.6h-129.64v-1.6Z"/><path class="cls-28" d="m555.36,152.74h-2.3v-2h6.8v2h-2.3v12h-2.2v-12Zm5.57-2h2.2v14h-2.2v-14Zm3.85,0c4.78-1.46,9.22,3.27,5.08,6.84v.04c2.61,1.04.81,5.07,1.7,7.12h-2.24c-.82-1.83,1.2-6.64-2.34-6v6h-2.2v-14Zm3,6c2.28-.09,1.75-4.95-.8-4v4h.8Zm5.07-6h6v2h-3.8v3.7h3.02v2h-3.02v4.3h3.8v2h-6v-14Zm12.15,0h1.9l-5.52,14h-1.9l5.52-14Zm2.89,0c4.78-1.46,9.22,3.27,5.08,6.84v.04c2.61,1.04.81,5.06,1.7,7.12h-2.24c-.82-1.83,1.2-6.64-2.34-6v6h-2.2v-14Zm3,6c2.28-.09,1.75-4.95-.8-4v4h.8Zm5.07-6h2.2v14h-2.2v-14Zm3.85,0h3.14l1.4,10.02h.04l1.4-10.02h3.14v14h-2.08v-10.6h-.04l-1.6,10.6h-1.84l-1.6-10.6h-.04v10.6h-1.92v-14Z"/><path class="cls-28" d="m552.83,166.34h56.91v1.6h-56.91v-1.6Z"/><path class="cls-28" d="m518.71,239.75c-2.6.09-3.42-2-3.24-4.32h2.08c-.69,2.1,2.16,3.52,2.28.92-.08-3.06-4.72-4.23-4.32-7.52-.28-5.03,7.47-4.32,6.48.62h-2.08c.62-1.94-2.08-3.2-2.2-.76,1.42,3.24,8.55,9.74,1,11.06Zm4.58-14.2c6.96-2.58,9.72,8.74,2.2,8.3v5.7h-2.2v-14Zm3.24,6.3c1.99-.3,1.52-5.31-1.04-4.3v4.3h1.04Zm7.66,7.9c-5.1.31-5.1-14.7,0-14.4,5.1-.31,5.1,14.7,0,14.4Zm0-2c1.88-.05,1.88-10.34,0-10.4-1.88.05-1.88,10.34,0,10.4Zm4.83-12.2h2.2v5.9l2.8-5.9h2.2l-2.62,5.14,2.66,8.86h-2.3l-1.86-6.24c-1.1,1.1-.91,4.84-.88,6.24h-2.2v-14Zm8.28,0h6v2h-3.8v3.7h3.02v2h-3.02v4.3h3.8v2h-6v-14Z"/><path class="cls-28" d="m515.03,241.15h38.7v1.6h-38.7v-1.6Z"/><path class="cls-28" d="m725.45,216.1h2.98l2.28,14h-2.2l-.4-2.78v.04h-2.5l-.4,2.74h-2.04l2.28-14Zm2.4,9.36l-.98-6.92h-.04l-.96,6.92h1.98Zm6.99,4.84c-8.99-1.03.59-25.2,3.24-9.48h-2.08c-1.56-8.99-2.87,4.26-2.2,6.2.95,3.35,2.87-.31,2.2-2.14h2.08c.18,2.44-.07,5.58-3.24,5.42Zm7.7,0c-8.99-1.03.59-25.2,3.24-9.48h-2.08c-3.26-12.68-2.44,18.07,0,4.06h2.08c.18,2.44-.07,5.58-3.24,5.42Zm4.56-14.2h6v2h-3.8v3.7h3.02v2h-3.02v4.3h3.8v2h-6v-14Zm10.16,14.2c-2.6.09-3.42-2-3.24-4.32h2.08c2.45,6.61,2.95-2.19-1.5-4.4-3.31-5.68,6.65-8.39,5.94-1.58h-2.08c.62-1.94-2.08-3.2-2.2-.76,1.42,3.24,8.55,9.74,1,11.06Zm7.44,0c-2.6.09-3.42-2-3.24-4.32h2.08c-.69,2.1,2.16,3.52,2.28.92-.08-3.06-4.72-4.23-4.32-7.52-.28-5.03,7.47-4.32,6.48.62h-2.08c.62-1.94-2.08-3.2-2.2-.76,1.42,3.24,8.55,9.74,1,11.06Zm7.76,0c-5.1.31-5.1-14.7,0-14.4,5.1-.31,5.1,14.7,0,14.4Zm0-2c1.88-.05,1.88-10.34,0-10.4-1.88.05-1.88,10.34,0,10.4Zm4.83-12.2c4.78-1.46,9.22,3.27,5.08,6.84v.04c2.61,1.04.81,5.06,1.7,7.12h-2.24c-.82-1.83,1.2-6.64-2.34-6v6h-2.2v-14Zm3,6c2.28-.09,1.75-4.95-.8-4v4h.8Zm5.07-6h2.2v14h-2.2v-14Zm3.85,0h6v2h-3.8v3.7h3.02v2h-3.02v4.3h3.8v2h-6v-14Zm10.17,14.2c-2.6.09-3.42-2-3.24-4.32h2.08c-.69,2.1,2.16,3.52,2.28.92-.08-3.06-4.72-4.23-4.32-7.52-.28-5.03,7.47-4.32,6.48.62h-2.08c.62-1.94-2.08-3.2-2.2-.76,1.42,3.24,8.55,9.74,1,11.06Z"/><path class="cls-28" d="m722.92,231.7h80.19v1.6h-80.19v-1.6Z"/><path class="cls-28" d="m354.41,264.14c6.96-2.58,9.72,8.74,2.2,8.3v5.7h-2.2v-14Zm3.24,6.3c1.99-.3,1.52-5.31-1.04-4.3v4.3h1.04Zm4.48-6.3h6v2h-3.8v3.7h3.02v2h-3.02v4.3h3.8v2h-6v-14Zm7.27,0c9.62-3.12,9.62,17.12,0,14v-14Zm3.32,12c1.77-.32,2.42-11.45-1.12-10v10h1.12Zm6.47-12h2.98l2.28,14h-2.2l-.4-2.78v.04h-2.5l-.4,2.74h-2.04l2.28-14Zm2.4,9.36l-.98-6.92h-.04l-.96,6.92h1.98Zm3.93-9.36h2.2v12h3.62v2h-5.82v-14Zm11.95,0h1.9l-5.52,14h-1.9l5.52-14Zm5.99,14.2c-8.99-1.03.59-25.21,3.24-9.48h-2.08c-1.56-8.99-2.87,4.26-2.2,6.2.95,3.35,2.87-.31,2.2-2.14h2.08c.18,2.44-.08,5.58-3.24,5.42Zm4.56-14.2c4.78-1.46,9.22,3.27,5.08,6.84v.04c2.61,1.04.81,5.06,1.7,7.12h-2.24c-.82-1.83,1.2-6.64-2.34-6v6h-2.2v-14Zm3,6c2.28-.09,1.75-4.95-.8-4v4h.8Zm6.77-6h2.98l2.28,14h-2.2l-.4-2.78v.04h-2.5l-.4,2.74h-2.04l2.28-14Zm2.4,9.36l-.98-6.92h-.04l-.96,6.92h1.98Zm3.93-9.36h2.76l2.14,8.38h.04v-8.38h1.96v14h-2.26l-2.64-10.22h-.04v10.22h-1.96v-14Zm8.54,0h2.2v5.9l2.8-5.9h2.2l-2.62,5.14,2.66,8.86h-2.3l-1.86-6.24c-1.1,1.1-.91,4.84-.88,6.24h-2.2v-14Zm13.18,0h2.98l2.28,14h-2.2l-.4-2.78v.04h-2.5l-.4,2.74h-2.04l2.28-14Zm2.4,9.36l-.98-6.92h-.04l-.96,6.92h1.98Zm3.93-9.36c4.78-1.46,9.22,3.27,5.08,6.84v.04c2.61,1.04.81,5.06,1.7,7.12h-2.24c-.82-1.83,1.2-6.64-2.34-6v6h-2.2v-14Zm3,6c2.28-.09,1.75-4.95-.8-4v4h.8Zm5.07-6h3.14l1.4,10.02h.04l1.4-10.02h3.14v14h-2.08v-10.6h-.04l-1.6,10.6h-1.84l-1.6-10.6h-.04v10.6h-1.92v-14Z"/><path class="cls-28" d="m353.59,279.74h116.56v1.6h-116.56v-1.6Z"/><path class="cls-28" d="m129.92,287.79c-8.99-1.03.59-25.2,3.24-9.48h-2.08c-1.56-8.99-2.87,4.26-2.2,6.2.95,3.35,2.87-.31,2.2-2.14h2.08c.18,2.44-.07,5.58-3.24,5.42Zm4.56-14.2h2.2v5.7h2.36v-5.7h2.2v14h-2.2v-6.3h-2.36v6.3h-2.2v-14Zm10.1,0h2.98l2.28,14h-2.2l-.4-2.78v.04h-2.5l-.4,2.74h-2.04l2.28-14Zm2.4,9.36l-.98-6.92h-.04l-.96,6.92h1.98Zm3.93-9.36h2.2v14h-2.2v-14Zm3.85,0h2.76l2.14,8.38h.04v-8.38h1.96v14h-2.26l-2.64-10.22h-.04v10.22h-1.96v-14Zm11.4,14.2c-2.6.09-3.42-2-3.24-4.32h2.08c-.69,2.1,2.16,3.52,2.28.92-.08-3.06-4.72-4.23-4.32-7.52-.28-5.03,7.47-4.32,6.48.62h-2.08c.62-1.94-2.08-3.2-2.2-.76,1.42,3.24,8.55,9.74,1,11.06Zm9.46-14.2h1.9l-5.52,14h-1.9l5.52-14Zm5.99,14.2c-8.99-1.03.59-25.2,3.24-9.48h-2.08c-3.26-12.68-2.44,18.07,0,4.06h2.08c.18,2.44-.07,5.58-3.24,5.42Zm4.56-14.2h2.2v5.7h2.36v-5.7h2.2v14h-2.2v-6.3h-2.36v6.3h-2.2v-14Zm10.1,0h2.98l2.28,14h-2.2l-.4-2.78v.04h-2.5l-.4,2.74h-2.04l2.28-14Zm2.4,9.36l-.98-6.92h-.04l-.96,6.92h1.98Zm3.93-9.36h2.2v14h-2.2v-14Zm3.85,0h2.76l2.14,8.38h.04v-8.38h1.96v14h-2.26l-2.64-10.22h-.04v10.22h-1.96v-14Zm11.74,0c4.78-1.46,9.22,3.27,5.08,6.84v.04c2.61,1.04.81,5.07,1.7,7.12h-2.24c-.82-1.83,1.2-6.64-2.34-6v6h-2.2v-14Zm3,6c2.28-.09,1.75-4.95-.8-4v4h.8Zm5.07-6h2.2v14h-2.2v-14Zm3.85,0h2.76l2.14,8.38h.04v-8.38h1.96v14h-2.26l-2.64-10.22h-.04v10.22h-1.96v-14Zm11.65,14.2c-8.95-.91.35-25.04,3.28-9.68h-2.08c-1.75-8.57-2.91,4.44-2.28,6.32,1.28,3.86,2.91-.93,2.28-2.74h-1.1v-2h3.18c-.16,2.72,1.06,8.36-3.28,8.1Zm7.55,0c-2.6.09-3.42-2-3.24-4.32h2.08c-.69,2.1,2.16,3.52,2.28.92-.08-3.06-4.72-4.23-4.32-7.52-.28-5.03,7.47-4.32,6.48.62h-2.08c.62-1.94-2.08-3.2-2.2-.76,1.42,3.24,8.55,9.74,1,11.06Z"/><path class="cls-28" d="m126,289.19h127.05v1.6h-127.05v-1.6Z"/><path class="cls-28" d="m84.29,57.03c4.78-1.46,9.22,3.27,5.08,6.84v.04c2.61,1.04.81,5.06,1.7,7.12h-2.24c-.82-1.83,1.2-6.64-2.34-6v6h-2.2v-14Zm3,6c2.28-.09,1.75-4.95-.8-4v4h.8Zm8.25,8.2c-5.1.31-5.1-14.7,0-14.4,5.1-.31,5.1,14.7,0,14.4Zm0-2c1.88-.05,1.88-10.34,0-10.4-1.88.05-1.88,10.34,0,10.4Zm6.49-12.2h2.98l2.28,14h-2.2l-.4-2.78v.04h-2.5l-.4,2.74h-2.04l2.28-14Zm2.4,9.36l-.98-6.92h-.04l-.96,6.92h1.98Zm3.93-9.36c4.78-1.46,9.22,3.27,5.08,6.84v.04c2.61,1.04.81,5.06,1.7,7.12h-2.24c-.82-1.83,1.2-6.64-2.34-6v6h-2.2v-14Zm3,6c2.28-.09,1.75-4.95-.8-4v4h.8Zm8.27-6c4.5-1.3,9.38,2.76,5.16,6.52v.04c4.54,3.5-.01,9.11-5.16,7.44v-14Zm3.06,5.7c2.33-.13,1.64-4.64-.86-3.7v3.7h.86Zm.4,6.3c2.23-.37,1.41-5.34-1.26-4.3v4.3h1.26Zm4.63-12c4.78-1.46,9.22,3.27,5.08,6.84v.04c2.61,1.04.81,5.06,1.7,7.12h-2.24c-.82-1.83,1.2-6.64-2.34-6v6h-2.2v-14Zm3,6c2.28-.09,1.75-4.95-.8-4v4h.8Zm5.07-6h6v2h-3.8v3.7h3.02v2h-3.02v4.3h3.8v2h-6v-14Zm8.97,0h2.98l2.28,14h-2.2l-.4-2.78v.04h-2.5l-.4,2.74h-2.04l2.28-14Zm2.4,9.36l-.98-6.92h-.04l-.96,6.92h1.98Zm3.93-9.36h2.2v5.9l2.8-5.9h2.2l-2.62,5.14,2.66,8.86h-2.3l-1.86-6.24c-1.1,1.1-.91,4.84-.88,6.24h-2.2v-14Z"/><path class="cls-28" d="m83.47,72.63h75.06v1.6h-75.06v-1.6Z"/><path class="cls-28" d="m59.04,138.17c-8.99-1.03.59-25.2,3.24-9.48h-2.08c-1.56-8.99-2.87,4.26-2.2,6.2.95,3.35,2.87-.31,2.2-2.14h2.08c.18,2.44-.07,5.58-3.24,5.42Zm6.26-14.2h2.98l2.28,14h-2.2l-.4-2.78v.04h-2.5l-.4,2.74h-2.04l2.28-14Zm2.4,9.36l-.98-6.92h-.04l-.96,6.92h1.98Zm6.73,4.84c-2.6.09-3.42-2-3.24-4.32h2.08c2.45,6.61,2.95-2.19-1.5-4.4-3.31-5.68,6.65-8.39,5.94-1.58h-2.08c.62-1.94-2.08-3.2-2.2-.76,1.42,3.24,8.55,9.74,1,11.06Zm7.44,0c-2.6.09-3.42-2-3.24-4.32h2.08c2.45,6.61,2.95-2.19-1.5-4.4-3.31-5.68,6.65-8.39,5.94-1.58h-2.08c.62-1.94-2.08-3.2-2.2-.76,1.42,3.24,8.55,9.74,1,11.06Zm4.58-14.2h6v2h-3.8v3.7h3.02v2h-3.02v4.3h3.8v2h-6v-14Zm8.99,2h-2.3v-2h6.8v2h-2.3v12h-2.2v-12Zm7.48,0h-2.3v-2h6.8v2h-2.3v12h-2.2v-12Zm5.57-2h6v2h-3.8v3.7h3.02v2h-3.02v4.3h3.8v2h-6v-14Z"/><path class="cls-28" d="m55.12,139.57h59.8v1.6h-59.8v-1.6Z"/><path class="cls-28" d="m.82,150.74c4.78-1.46,9.22,3.27,5.08,6.84v.04c2.61,1.04.81,5.06,1.7,7.12h-2.24c-.82-1.83,1.2-6.64-2.34-6v6H.82v-14Zm3,6c2.28-.09,1.75-4.95-.8-4v4h.8Zm5.07-6h6v2h-3.8v3.7h3.02v2h-3.02v4.3h3.8v2h-6v-14Zm8.97,0h2.98l2.28,14h-2.2l-.4-2.78v.04h-2.5l-.4,2.74h-2.04l2.28-14Zm2.4,9.36l-.98-6.92h-.04l-.96,6.92h1.98Zm3.93-9.36c4.78-1.46,9.22,3.27,5.08,6.84v.04c2.61,1.04.81,5.06,1.7,7.12h-2.24c-.82-1.83,1.2-6.64-2.34-6v6h-2.2v-14Zm3,6c2.28-.09,1.75-4.95-.8-4v4h.8Zm8.27-6c9.62-3.12,9.62,17.12,0,14v-14Zm3.32,12c1.77-.32,2.42-11.45-1.12-10v10h1.12Zm4.8-12h6v2h-3.8v3.7h3.02v2h-3.02v4.3h3.8v2h-6v-14Zm7.27,0c4.78-1.46,9.22,3.27,5.08,6.84v.04c2.61,1.04.81,5.06,1.7,7.12h-2.24c-.82-1.83,1.2-6.64-2.34-6v6h-2.2v-14Zm3,6c2.28-.09,1.75-4.95-.8-4v4h.8Zm6.77-6h2.98l2.28,14h-2.2l-.4-2.78v.04h-2.5l-.4,2.74h-2.04l2.28-14Zm2.4,9.36l-.98-6.92h-.04l-.96,6.92h1.98Zm3.93-9.36h2.2v14h-2.2v-14Zm3.85,0h2.2v12h3.62v2h-5.82v-14Zm6.88,0h2.2v12h3.62v2h-5.82v-14Zm6.88,0h6v2h-3.8v3.7h3.02v2h-3.02v4.3h3.8v2h-6v-14Zm10.47,14.2c-5.66.45-2.5-11.25-3.28-14.2h2.2c-1.11,15.26,3.36,15.17,2.24,0h2.12c-.78,2.98,2.38,14.63-3.28,14.2Zm4.85-14.2c4.78-1.46,9.22,3.27,5.08,6.84v.04c2.61,1.04.81,5.06,1.7,7.12h-2.24c-.82-1.83,1.2-6.64-2.34-6v6h-2.2v-14Zm3,6c2.28-.09,1.75-4.95-.8-4v4h.8Z"/><path class="cls-28" d="m0,166.34h107.08v1.6H0v-1.6Z"/><path class="cls-23" d="m705.15,335.03c-6.6-.5.9-5.83,2.83-4.83,1.22,2.08-.42,4.88-2.83,4.83Zm-1.96-1.89c1.56,2.38,5.38.18,4.12-2.36l-4.12,2.36Z"/><path class="cls-28" d="m705.15,335.38c-6.8-.99-.51-5.31,2.54-5.96,2.41,1.83.39,6.17-2.54,5.96Zm2.33-5.28s-4.89,2.81-4.92,2.81c1.39,3.88,7.47.51,4.92-2.81Zm-2.33,4.42c-5.2-.78.45-3.1,1.98-4.06,1.97.72-.02,4.4-1.98,4.06Zm-1.42-1.29c1.37,1.44,3.93-.05,3.38-1.94l-3.38,1.94Z"/><path class="cls-30" d="m719.65,287.77c-6.82,5.18-8.57,20.64-18.81,22.97-12.45-5.29-21.63-19.71-21.77-19.92-11.83-3.14,4.76,16.99,19.35,23.99,0,3.26.54,10.56,4.88,18.45l4.07-2.33c-3.76-6.89-4.24-13.32-4.25-16.05.98.34,21.99-14.48,16.53-27.1Z"/><path class="cls-28" d="m703.67,331.95c-3.91-7.72-4.31-13.77-4.3-17.76-13.28-6.06-29.07-24.51-21.09-22.87-.01.09,9.98,15.41,22.57,20.45,9.52-3.04,13.5-14.84,18.19-23.14,3.34,13.17-14.91,25.18-16.87,25.63.03,3.19.25,8.9,3.94,16.29l-2.43,1.39Z"/><path class="cls-28" d="m703.3,333.61c-4.63-7.03-5.12-15.13-5.23-18.57-15.02-7.24-31.83-28.19-18.69-24.41.09.15,9.21,14.44,21.46,19.73,7.52-3.46,13.23-11.75,15.59-21.02,17.17-5.59-13.22,31.4-12.96,25.76-2.4,2.61,8.38,16.66-.18,18.52Zm-26.21-43.54c-8.57,6.22,24.96,21.03,26.35,42.7l3.46-1.98c-3.61-7.19-4.5-13.53-3.92-16.24.73.58,22.36-15.02,16.07-26.51-15.11,36.95-28.35,17.34-41.95,2.03Z"/><path class="cls-30" d="m699.34,309.79c-2.31,6.17-2.27,7.57,4.42,5.89-.82-1.58-1.26-8.13-4.42-5.89Z"/><path class="cls-28" d="m703.44,316.47c-7.07.82-6.54-.99-4.44-6.78,2.96-3.33,6.08,5.66,4.44,6.78Zm-5.48-.71h5.47l-1.86-5.87h-1.9s-1.71,5.87-1.71,5.87Z"/><path class="cls-28" d="m702.52,315.13c.04.49-3.93.49-3.9,0-.04-.49,3.93-.49,3.9,0Z"/><path class="cls-28" d="m702.22,315.54h-3.31c-3.3-1.87,6.61-1.87,3.31,0Z"/><path class="cls-23" d="m684.11,347.11c-7.05-.54.96-6.23,3.02-5.15,1.3,2.23-.45,5.21-3.02,5.15Zm-2.1-2.02c1.66,2.54,5.75.2,4.4-2.52l-4.4,2.52Z"/><path class="cls-28" d="m684.11,347.46c-7.54-.66.27-6.97,3.2-5.93,1.65,2.42-.25,6.01-3.2,5.93Zm2.49-5.64s-5.22,2.99-5.27,3c1.39,4.24,8.1.57,5.27-3Zm-2.49,4.72c-5.54-.73.7-3.6,2.41-4.32,1.41,1.63-.33,4.44-2.41,4.32Zm-1.55-1.36c1.48,1.6,4.29-.03,3.67-2.1l-3.67,2.1Z"/><path class="cls-30" d="m699.59,296.64c-7.28,5.53-9.15,22.04-20.09,24.53-13.29-5.65-23.1-21.05-23.24-21.28-12.64-3.35,5.08,18.14,20.66,25.62,0,3.48.58,11.28,5.21,19.7l4.35-2.49c-4.02-7.36-4.53-14.23-4.54-17.14,1.05.36,23.49-15.46,17.66-28.94Z"/><path class="cls-28" d="m682.51,343.91c-4.2-8.25-4.64-14.78-4.64-19.01-14.26-6.53-31.22-26.35-22.41-24.5,0,.09,10.62,16.4,24.05,21.8,10.2-3.23,14.33-15.94,19.43-24.7,3.9,13.9-15.98,27.1-17.95,27.48.03,3.36.28,9.51,4.22,17.38l-2.71,1.55Z"/><path class="cls-28" d="m682.13,345.57c-4.92-7.55-5.45-16.14-5.56-19.83-16.01-7.72-33.95-30.03-20-26.04.1.16,9.84,15.43,22.94,21.08,8.03-3.69,14.15-12.56,16.68-22.46,18.51-6.75-14.27,33.72-13.88,27.49-2.57,2.75,8.92,17.77-.17,19.76Zm-27.99-46.5c-6.43,3.17,7.94,17.65,22.93,26.12.59,3.93.53,11.18,5.2,19.54l3.74-2.14c-3.86-7.66-4.79-14.45-4.21-17.33.76.64,23.98-16.13,17.16-28.35-16.2,39.46-30.21,18.52-44.81,2.17Z"/><path class="cls-30" d="m677.9,320.15c-2.46,6.59-2.42,8.08,4.72,6.29-.87-1.69-1.35-8.68-4.72-6.29Z"/><path class="cls-28" d="m682.28,327.26c-7.53.87-6.95-1.04-4.71-7.21,3.14-3.49,6.4,6.01,4.71,7.21Zm-4.03-7.01l-1.86,6.3c7.01.7,5.82-.72,3.91-6.29h-2.05Z"/><path class="cls-23" d="m681.3,325.86c.04.52-4.2.52-4.16,0-.04-.52,4.2-.52,4.16,0Z"/><path class="cls-28" d="m680.98,326.29c-.6-.22-4.31.59-4.2-.67-.09-1.4,7.1-.83,4.2.67Z"/><path class="cls-28" d="m702.43,331.95c-1.7-.42,4.49-3.3,4.44-2.77.43.6-4.2,2.56-4.44,2.77Z"/><path class="cls-28" d="m681.21,343.8c-1.71-.39,4.71-3.61,4.65-3.07.46.58-4.42,2.88-4.65,3.07Z"/><path class="cls-30" d="m731.6,280.66c-10.45-51.2-115.85-41.86-85.69,21.21,10.4,15.23,6.85-3.98,18.74-1.05,19.53,7.81,21.36,1.03,45.99-.36,26.35-2.92,19.72-9.05,20.95-19.79h0Z"/><path class="cls-28" d="m652.57,308.78c-30.12-34.36.57-73.07,47.67-59.53,28,4.48,50.33,52.19,10.41,51.57-18.07-.6-19.15,4.58-27.99,4.95-9.89-2.46-24.89-9.37-30.09,3.02Zm-6.34-7.1c9.94,14.69,6.61-4.38,18.52-1.21,3.15.18,19.43,6.46,22.18,4.02,8.37-6.89,52.52,1,44.32-23.78-14.64-54.74-113.72-37.69-85.02,20.97Z"/><path class="cls-28" d="m650.8,301.58c-.53-.35-7.9-4.77-6.95-7.16.98,1.47,4.36,4.95,6.8,6.27,7.48-14.09,31.8,5.31,55.14-5.57.25-2.8-17.04-4.75-20.77-1.96-9.02,1-28.2-11.53-35.47-2.12.39.13-7.4-1.83-7.38-6.3,1.9,3.05,6.07,5.68,7.34,5.56,7.24-9.37,26.27,2.9,35.27,2.2,3.81-3.51,25.29.62,22.08,2.84-3.17.95-16.64,3.06-20.78,5.04-6.75,1.49-33.13-11.24-35.29,1.2Z"/><path class="cls-28" d="m681.3,290.95c-.28-3.62-30.47-13.13-33.96-5.54.35.24-6.33-2.91-5.4-7.18,1.19,3.18,4.19,6.33,5.45,6.43,4.77-6.61,28.3-.8,32.72,4.69-5.82-12.53-24.37-15.14-32.58-10.48-1.29-1.36-5.07-9.23-4.49-10.23,1.9,2.32,3.47,8.6,4.78,9.52,9.49-4.51,26.8-3.35,33.47,12.79Z"/><path class="cls-28" d="m684.89,289.23c-18.85-15.61,15.91-8.33,18.37-.6-3.63-.48-13.49-.28-18.37.6Zm-5.72-8.46c4.04,12.86,13.34,4.78,22.55,7.09-1.38-2.5-12.17-8.39-22.55-7.09Z"/><path class="cls-28" d="m703.14,276.2c-10.75-7.67-48.3-5.79-54.51-18.05,10.78,11.95,37.83,8.29,53.31,16.92.35-5.19-32.58-15.8-32.46-18.38,10.87-1.85,41.93,7.65,49.81,16.72,6.4-12.06-37.31-26.47-16.81-23.74,1.92,1.34-4.66.33-4.8.51,6.7,2.85,26.84,15.67,22.03,24.27-5.77-7.69-38.37-18.58-49.33-17.42,3.29,1.98,37.54,15.79,32.75,19.17Z"/><path class="cls-28" d="m724.61,269.08c-.28.27-2.37-5.97-.76-4.42,0,0,.87,3.13.87,3.13,1.26-2.09.94,1.03-.11,1.29Z"/><path class="cls-28" d="m709.23,287.69c7.09-.08,15.37-1.62,20.59-6.83-4.38,6.28-13.41,8.09-20.59,6.83Z"/><path class="cls-28" d="m709.23,289.32c7.09-.09,15.37-1.61,20.59-6.83-4.38,6.28-13.41,8.09-20.59,6.83Z"/><path class="cls-28" d="m709.23,290.95c7.09-.09,15.37-1.62,20.59-6.83-4.38,6.28-13.41,8.09-20.59,6.83Z"/><path class="cls-28" d="m709.23,292.59c7.09-.09,15.37-1.62,20.59-6.83-4.38,6.28-13.41,8.09-20.59,6.83Z"/><path class="cls-28" d="m709.23,294.22c7.09-.09,15.37-1.62,20.59-6.83-4.38,6.28-13.41,8.09-20.59,6.83Z"/><path class="cls-28" d="m709.23,295.85c7.09-.09,15.37-1.62,20.59-6.83-4.38,6.28-13.41,8.09-20.59,6.83Z"/><path class="cls-28" d="m709.23,297.49c7.09-.09,15.37-1.62,20.59-6.83-4.38,6.28-13.41,8.09-20.59,6.83Z"/><path class="cls-28" d="m649.95,258.47c11.05,10.04,38.53,8.41,50.53,15.71-5.58-7.97-27.51-10.51-33.14-18.62,14.4-.75,40.81,6.76,51.36,16.42,2.63-7.9-21.74-20.89-24.26-22.05h.47c-9.54-3.01-38.44-1.45-44.97,8.54Z"/><path class="cls-28" d="m680.36,281.53c2.13,9.33,12.87,4.06,19.47,5.34-.42-2.44-17.5-6.57-19.47-5.34Z"/><path class="cls-28" d="m643.32,272.52c-.69,3.31-.75,9.68,3.96,11.21,5.38-6.19,26.12-1.03,30.59,3.61-2.75-8.35-23.66-13.35-30.35-7.55,0,0-3.25-3.41-4.2-7.26Z"/><path class="cls-28" d="m643.73,288.7l1.01,6.11s4.32,4.51,5.74,5.1c9.14-15.97,25.88,7.09,52.85-5.54-1.98-4.01-20.02.16-25.45-1.22-7.39-3.16-22.93-8.45-27.93-1.23,0,0-4.02-.2-6.21-3.22Z"/><path class="cls-28" d="m648.88,260.67c-1.54,2.69-3.88,5.31-4.24,8.49,1.35-2.14,3.06-6.09,4.24-8.49Z"/><path class="cls-28" d="m648.35,264.2c-1.45,2.09-2.51,4.64-2.83,7.17,1.01-1.52,1.81-5.24,2.83-7.17Z"/><path class="cls-28" d="m647.51,273.12c-.89-1.69-.28-3.88-.24-5.14-.78,1.14-1.24,5.25.24,5.14Z"/><path class="cls-28" d="m649.49,275.01c-1.1-1.21-1.13-3.83-1.76-4.5-.12,1.2.55,4.94,1.76,4.5Z"/><line class="cls-26" x1="708.89" y1="262.86" x2="722.88" y2="233.72"/><path class="cls-37" d="m708.36,256.99c6.64-.1,6.64,10.34,0,10.24-6.64.1-6.64-10.34,0-10.24Z"/></g></svg>