<?xml version="1.0" encoding="UTF-8"?><svg id="Livello_2" xmlns="http://www.w3.org/2000/svg" viewBox="0 0 803.12 347.33"><defs><style>.cls-1{stroke-width:.33px;}.cls-1,.cls-2,.cls-3,.cls-4,.cls-5,.cls-6,.cls-7,.cls-8,.cls-9,.cls-10,.cls-11,.cls-12,.cls-13,.cls-14,.cls-15{stroke-linecap:round;}.cls-1,.cls-2,.cls-4,.cls-5,.cls-6,.cls-16,.cls-17,.cls-18,.cls-19,.cls-20,.cls-7,.cls-21,.cls-9,.cls-10,.cls-13,.cls-14{stroke-linejoin:bevel;}.cls-1,.cls-2,.cls-4,.cls-5,.cls-16,.cls-17,.cls-7,.cls-14{stroke:gray;}.cls-1,.cls-2,.cls-22{fill:gray;}.cls-2{stroke-width:.81px;}.cls-23{fill:#fff;}.cls-3{stroke-dasharray:0 0 1.58 1.58;stroke-linejoin:round;}.cls-3,.cls-4,.cls-5,.cls-6,.cls-16,.cls-17,.cls-18,.cls-20,.cls-7,.cls-24,.cls-8,.cls-10,.cls-11,.cls-12,.cls-13,.cls-14,.cls-15,.cls-25,.cls-26{fill:none;}.cls-3,.cls-17,.cls-14{stroke-width:1.58px;}.cls-3,.cls-18{stroke:#4d4d4d;}.cls-4{stroke-dasharray:0 0 2 8.02;stroke-width:2px;}.cls-5{stroke-width:1.5px;}.cls-6{stroke-width:4.72px;}.cls-6,.cls-11{stroke:#000;}.cls-27{fill:#4d4d4d;}.cls-28{fill:#523333;}.cls-16{stroke-dasharray:0 0 .64 2.58;stroke-width:.64px;}.cls-16,.cls-17,.cls-18,.cls-19,.cls-20,.cls-21{stroke-linecap:square;}.cls-17{stroke-dasharray:0 0 1.57 6.3;}.cls-18,.cls-24,.cls-12,.cls-25,.cls-26{stroke-width:.79px;}.cls-19{stroke:#999;stroke-dasharray:0 0 5.04 5.04;stroke-width:1.26px;}.cls-19,.cls-29{fill:#999;}.cls-30{fill:#fbf5ec;}.cls-31{fill:#e6e6e6;}.cls-20,.cls-21{stroke-width:5.57px;}.cls-20,.cls-21,.cls-9,.cls-25{stroke:#ccc;}.cls-7{stroke-width:1.91px;}.cls-24{stroke:#3e3748;}.cls-32{fill:#f9f9f9;}.cls-33{fill:#a00;}.cls-8,.cls-11{stroke-width:9.45px;}.cls-8,.cls-15{stroke:#1a1a1a;}.cls-9{stroke-width:5.51px;}.cls-9,.cls-34{fill:#b3b3b3;}.cls-10{stroke:#e6e6e6;stroke-width:6.57px;}.cls-35{fill:#ccc;}.cls-12{stroke:#f9f9f9;}.cls-36{fill:#1a1a1a;}.cls-13{stroke:#fc0;stroke-width:2.36px;}.cls-37{fill:#ceb133;}.cls-14{stroke-dasharray:0 0 1.58 6.3;}.cls-15{stroke-width:6.3px;}.cls-38{fill:#666;}.cls-26{stroke:#9b2321;}</style></defs><g id="Livello_1-2"><line class="cls-26" x1="390.31" y1="76.63" x2="495.8" y2="32.33"/><line class="cls-26" x1="477.82" y1="180.34" x2="552.42" y2="168.1"/><line class="cls-26" x1="440.71" y1="217.07" x2="515.3" y2="241.54"/><line class="cls-26" x1="238.16" y1="119.88" x2="156.57" y2="73.25"/><line class="cls-26" x1="315.64" y1="205.02" x2="354.1" y2="281.37"/><line class="cls-26" x1="284.77" y1="204.76" x2="250.96" y2="290.43"/><line class="cls-26" x1="253.7" y1="57.21" x2="250.21" y2="17"/><line class="cls-26" x1="412.61" y1="96.41" x2="519.84" y2="94.68"/><line class="cls-26" x1="387.76" y1="54.97" x2="376.69" y2="22.92"/><line class="cls-26" x1="332.38" y1="153.36" x2="324.8" y2="42.05"/><path class="cls-28" d="m208.43,14.4c-1.07,0-1.87-.3-2.42-.9-.55-.61-.82-1.49-.82-2.62v-.8h2.08v.96c0,.91.38,1.36,1.14,1.36.37,0,.65-.11.84-.32.2-.23.3-.59.3-1.08,0-.59-.13-1.1-.4-1.54-.27-.45-.76-.99-1.48-1.62-.91-.8-1.54-1.52-1.9-2.16-.36-.65-.54-1.39-.54-2.2,0-1.11.28-1.96.84-2.56.56-.61,1.37-.92,2.44-.92s1.85.31,2.38.92c.55.6.82,1.47.82,2.6v.58h-2.08v-.72c0-.48-.09-.83-.28-1.04-.19-.23-.46-.34-.82-.34-.73,0-1.1.45-1.1,1.34,0,.51.13.98.4,1.42.28.44.78.97,1.5,1.6.92.8,1.55,1.53,1.9,2.18s.52,1.42.52,2.3c0,1.15-.29,2.03-.86,2.64-.56.61-1.38.92-2.46.92ZM214.65.2h2.98l2.28,14h-2.2l-.4-2.78v.04h-2.5l-.4,2.74h-2.04l2.28-14Zm2.4,9.36l-.98-6.92h-.04l-.96,6.92h1.98Zm3.93-9.36h3.36c1.09,0,1.91.29,2.46.88s.82,1.45.82,2.58v7.08c0,1.13-.27,1.99-.82,2.58-.55.59-1.37.88-2.46.88h-3.36V.2Zm3.32,12c.36,0,.63-.11.82-.32.2-.21.3-.56.3-1.04V3.56c0-.48-.1-.83-.3-1.04-.19-.21-.46-.32-.82-.32h-1.12v10h1.12ZM229.1.2h3.36c1.09,0,1.91.29,2.46.88s.82,1.45.82,2.58v7.08c0,1.13-.27,1.99-.82,2.58-.55.59-1.37.88-2.46.88h-3.36V.2Zm3.32,12c.36,0,.63-.11.82-.32.2-.21.3-.56.3-1.04V3.56c0-.48-.1-.83-.3-1.04-.19-.21-.46-.32-.82-.32h-1.12v10h1.12ZM237.23.2h2.2v12h3.62v2h-5.82V.2Zm6.88,0h6v2h-3.8v3.7h3.02v2h-3.02v4.3h3.8v2h-6V.2Z"/><path class="cls-28" d="m204.75,15.8h45.79v1.6h-45.79v-1.6Z"/><path class="cls-28" d="m296.28,26.61h-2.3v-2h6.8v2h-2.3v12h-2.2v-12Zm8.77,12.2c-1.07,0-1.88-.3-2.44-.9-.56-.61-.84-1.49-.84-2.62v-10.68h2.2v10.84c0,.48.09.83.28,1.04.2.21.48.32.84.32s.63-.11.82-.32c.2-.21.3-.56.3-1.04v-10.84h2.12v10.68c0,1.13-.28,2.01-.84,2.62-.56.6-1.37.9-2.44.9Zm4.85-14.2h3.32c1.13,0,1.96.27,2.48.8.52.52.78,1.33.78,2.42v.56c0,.72-.12,1.31-.36,1.76-.23.45-.58.78-1.06.98v.04c1.09.37,1.64,1.35,1.64,2.92v1.2c0,1.08-.29,1.91-.86,2.48-.56.56-1.39.84-2.48.84h-3.46v-14Zm3.06,5.7c.44,0,.77-.11.98-.34.23-.23.34-.61.34-1.14v-.78c0-.51-.09-.87-.28-1.1-.17-.23-.45-.34-.84-.34h-1.06v3.7h.86Zm.4,6.3c.39,0,.67-.1.86-.3.19-.21.28-.57.28-1.08v-1.22c0-.64-.11-1.08-.34-1.32-.21-.25-.57-.38-1.08-.38h-.98v4.3h1.26Zm4.62-12h6v2h-3.8v3.7h3.02v2h-3.02v4.3h3.8v2h-6v-14Zm10.17,14.2c-1.07,0-1.87-.3-2.42-.9-.55-.61-.82-1.49-.82-2.62v-.8h2.08v.96c0,.91.38,1.36,1.14,1.36.37,0,.65-.11.84-.32.2-.23.3-.59.3-1.08,0-.59-.13-1.1-.4-1.54-.27-.45-.76-.99-1.48-1.62-.91-.8-1.54-1.52-1.9-2.16-.36-.65-.54-1.39-.54-2.2,0-1.11.28-1.96.84-2.56.56-.61,1.37-.92,2.44-.92s1.85.31,2.38.92c.55.6.82,1.47.82,2.6v.58h-2.08v-.72c0-.48-.09-.83-.28-1.04-.19-.23-.46-.34-.82-.34-.73,0-1.1.45-1.1,1.34,0,.51.13.98.4,1.42.28.44.78.97,1.5,1.6.92.8,1.55,1.53,1.9,2.18.35.65.52,1.42.52,2.3,0,1.15-.29,2.03-.86,2.64-.56.61-1.38.92-2.46.92Z"/><path class="cls-28" d="m293.74,40.21h38.16v1.6h-38.16v-1.6Z"/><path class="cls-28" d="m380.35,19.91c-1.05,0-1.86-.3-2.42-.9-.55-.6-.82-1.45-.82-2.54v-7.52c0-1.09.27-1.94.82-2.54.56-.6,1.37-.9,2.42-.9s1.85.3,2.4.9c.56.6.84,1.45.84,2.54v1.48h-2.08v-1.62c0-.87-.37-1.3-1.1-1.3s-1.1.43-1.1,1.3v7.82c0,.85.37,1.28,1.1,1.28s1.1-.43,1.1-1.28v-2.14h2.08v1.98c0,1.09-.28,1.94-.84,2.54-.55.6-1.35.9-2.4.9Zm6.26-14.2h2.98l2.28,14h-2.2l-.4-2.78v.04h-2.5l-.4,2.74h-2.04l2.28-14Zm2.4,9.36l-.98-6.92h-.04l-.96,6.92h1.98Zm3.93-9.36h3.32c1.13,0,1.96.27,2.48.8.52.52.78,1.33.78,2.42v.56c0,.72-.12,1.31-.36,1.76-.23.45-.58.78-1.06.98v.04c1.09.37,1.64,1.35,1.64,2.92v1.2c0,1.08-.29,1.91-.86,2.48-.56.56-1.39.84-2.48.84h-3.46V5.71Zm3.06,5.7c.44,0,.77-.11.98-.34.23-.23.34-.61.34-1.14v-.78c0-.51-.09-.87-.28-1.1-.17-.23-.45-.34-.84-.34h-1.06v3.7h.86Zm.4,6.3c.39,0,.67-.1.86-.3.19-.21.28-.57.28-1.08v-1.22c0-.64-.11-1.08-.34-1.32-.21-.25-.57-.38-1.08-.38h-.98v4.3h1.26Zm4.63-12h2.2v12h3.62v2h-5.82V5.71Zm6.88,0h6v2h-3.8v3.7h3.02v2h-3.02v4.3h3.8v2h-6V5.71Zm10.16,14.2c-1.07,0-1.87-.3-2.42-.9-.55-.61-.82-1.49-.82-2.62v-.8h2.08v.96c0,.91.38,1.36,1.14,1.36.37,0,.65-.11.84-.32.2-.23.3-.59.3-1.08,0-.59-.13-1.1-.4-1.54-.27-.45-.76-.99-1.48-1.62-.91-.8-1.54-1.52-1.9-2.16-.36-.65-.54-1.39-.54-2.2,0-1.11.28-1.96.84-2.56.56-.61,1.37-.92,2.44-.92s1.85.31,2.38.92c.55.6.82,1.47.82,2.6v.58h-2.08v-.72c0-.48-.09-.83-.28-1.04-.19-.23-.46-.34-.82-.34-.73,0-1.1.45-1.1,1.34,0,.51.13.98.4,1.42.28.44.78.97,1.5,1.6.92.8,1.55,1.53,1.9,2.18.35.65.52,1.42.52,2.3,0,1.15-.29,2.03-.86,2.64-.56.61-1.38.92-2.46.92Zm9.46-14.2h1.9l-5.52,14h-1.9l5.52-14Zm2.89,0h3.32c1.13,0,1.96.27,2.48.8.52.52.78,1.33.78,2.42v.56c0,.72-.12,1.31-.36,1.76-.23.45-.58.78-1.06.98v.04c1.09.37,1.64,1.35,1.64,2.92v1.2c0,1.08-.29,1.91-.86,2.48-.56.56-1.39.84-2.48.84h-3.46V5.71Zm3.06,5.7c.44,0,.77-.11.98-.34.23-.23.34-.61.34-1.14v-.78c0-.51-.09-.87-.28-1.1-.17-.23-.45-.34-.84-.34h-1.06v3.7h.86Zm.4,6.3c.39,0,.67-.1.86-.3.19-.21.28-.57.28-1.08v-1.22c0-.64-.11-1.08-.34-1.32-.21-.25-.57-.38-1.08-.38h-.98v4.3h1.26Zm4.63-12h3.26c1.13,0,1.96.27,2.48.8.52.52.78,1.33.78,2.42v.86c0,1.45-.48,2.37-1.44,2.76v.04c.53.16.91.49,1.12.98.23.49.34,1.15.34,1.98v2.46c0,.4.01.73.04.98.03.24.09.48.2.72h-2.24c-.08-.23-.13-.44-.16-.64-.03-.2-.04-.56-.04-1.08v-2.56c0-.64-.11-1.09-.32-1.34-.2-.25-.55-.38-1.06-.38h-.76v6h-2.2V5.71Zm3,6c.44,0,.77-.11.98-.34.23-.23.34-.61.34-1.14v-1.08c0-.51-.09-.87-.28-1.1-.17-.23-.45-.34-.84-.34h-1v4h.8Zm5.07-6h6v2h-3.8v3.7h3.02v2h-3.02v4.3h3.8v2h-6V5.71Zm8.97,0h2.98l2.28,14h-2.2l-.4-2.78v.04h-2.5l-.4,2.74h-2.04l2.28-14Zm2.4,9.36l-.98-6.92h-.04l-.96,6.92h1.98Zm3.93-9.36h2.2v5.9l2.8-5.9h2.2l-2.62,5.14,2.66,8.86h-2.3l-1.86-6.24-.88,1.78v4.46h-2.2V5.71Zm11.01,14.2c-1.07,0-1.87-.3-2.42-.9-.55-.61-.82-1.49-.82-2.62v-.8h2.08v.96c0,.91.38,1.36,1.14,1.36.37,0,.65-.11.84-.32.2-.23.3-.59.3-1.08,0-.59-.13-1.1-.4-1.54-.27-.45-.76-.99-1.48-1.62-.91-.8-1.54-1.52-1.9-2.16-.36-.65-.54-1.39-.54-2.2,0-1.11.28-1.96.84-2.56.56-.61,1.37-.92,2.44-.92s1.85.31,2.38.92c.55.6.82,1.47.82,2.6v.58h-2.08v-.72c0-.48-.09-.83-.28-1.04-.19-.23-.46-.34-.82-.34-.73,0-1.1.45-1.1,1.34,0,.51.13.98.4,1.42.28.44.78.97,1.5,1.6.92.8,1.55,1.53,1.9,2.18.35.65.52,1.42.52,2.3,0,1.15-.29,2.03-.86,2.64-.56.61-1.38.92-2.46.92Z"/><path class="cls-28" d="m376.42,21.31h100.19v1.6h-100.19v-1.6Z"/><path class="cls-28" d="m520.57,76.59h2.2v5.7h2.36v-5.7h2.2v14h-2.2v-6.3h-2.36v6.3h-2.2v-14Zm10.1,0h2.98l2.28,14h-2.2l-.4-2.78v.04h-2.5l-.4,2.74h-2.04l2.28-14Zm2.4,9.36l-.98-6.92h-.04l-.96,6.92h1.98Zm3.93-9.36h2.76l2.14,8.38h.04v-8.38h1.96v14h-2.26l-2.64-10.22h-.04v10.22h-1.96v-14Zm8.54,0h3.36c1.09,0,1.91.29,2.46.88s.82,1.45.82,2.58v7.08c0,1.13-.27,1.99-.82,2.58s-1.37.88-2.46.88h-3.36v-14Zm3.32,12c.36,0,.63-.11.82-.32.2-.21.3-.56.3-1.04v-7.28c0-.48-.1-.83-.3-1.04-.19-.21-.46-.32-.82-.32h-1.12v10h1.12Zm4.8-12h6v2h-3.8v3.7h3.02v2h-3.02v4.3h3.8v2h-6v-14Zm7.27,0h2.2v12h3.62v2h-5.82v-14Zm9.73,14.2c-1.07,0-1.87-.3-2.42-.9-.55-.61-.82-1.49-.82-2.62v-.8h2.08v.96c0,.91.38,1.36,1.14,1.36.37,0,.65-.11.84-.32.2-.23.3-.59.3-1.08,0-.59-.13-1.1-.4-1.54-.27-.45-.76-.99-1.48-1.62-.91-.8-1.54-1.52-1.9-2.16-.36-.65-.54-1.39-.54-2.2,0-1.11.28-1.96.84-2.56.56-.61,1.37-.92,2.44-.92s1.85.31,2.38.92c.55.6.82,1.47.82,2.6v.58h-2.08v-.72c0-.48-.09-.83-.28-1.04-.19-.23-.46-.34-.82-.34-.73,0-1.1.45-1.1,1.34,0,.51.13.98.4,1.42.28.44.78.97,1.5,1.6.92.8,1.55,1.53,1.9,2.18.35.65.52,1.42.52,2.3,0,1.15-.29,2.03-.86,2.64-.56.61-1.38.92-2.46.92Zm9.46-14.2h1.9l-5.52,14h-1.9l5.52-14Zm2.89,0h2.2v5.7h2.36v-5.7h2.2v14h-2.2v-6.3h-2.36v6.3h-2.2v-14Zm10.1,0h2.98l2.28,14h-2.2l-.4-2.78v.04h-2.5l-.4,2.74h-2.04l2.28-14Zm2.4,9.36l-.98-6.92h-.04l-.96,6.92h1.98Zm3.93-9.36h2.76l2.14,8.38h.04v-8.38h1.96v14h-2.26l-2.64-10.22h-.04v10.22h-1.96v-14Zm8.53,0h3.36c1.09,0,1.91.29,2.46.88.55.59.82,1.45.82,2.58v7.08c0,1.13-.27,1.99-.82,2.58-.55.59-1.37.88-2.46.88h-3.36v-14Zm3.32,12c.36,0,.63-.11.82-.32.2-.21.3-.56.3-1.04v-7.28c0-.48-.1-.83-.3-1.04-.19-.21-.46-.32-.82-.32h-1.12v10h1.12Zm4.8-12h2.2v12h3.62v2h-5.82v-14Zm6.88,0h6v2h-3.8v3.7h3.02v2h-3.02v4.3h3.8v2h-6v-14Zm10.47,0h3.32c1.13,0,1.96.27,2.48.8.52.52.78,1.33.78,2.42v.56c0,.72-.12,1.31-.36,1.76-.23.45-.58.78-1.06.98v.04c1.09.37,1.64,1.35,1.64,2.92v1.2c0,1.08-.29,1.91-.86,2.48-.56.56-1.39.84-2.48.84h-3.46v-14Zm3.06,5.7c.44,0,.77-.11.98-.34.23-.23.34-.61.34-1.14v-.78c0-.51-.09-.87-.28-1.1-.17-.23-.45-.34-.84-.34h-1.06v3.7h.86Zm.4,6.3c.39,0,.67-.1.86-.3.19-.21.28-.57.28-1.08v-1.22c0-.64-.11-1.08-.34-1.32-.21-.25-.57-.38-1.08-.38h-.98v4.3h1.26Zm6.33-12h2.98l2.28,14h-2.2l-.4-2.78v.04h-2.5l-.4,2.74h-2.04l2.28-14Zm2.4,9.36l-.98-6.92h-.04l-.96,6.92h1.98Zm3.93-9.36h3.26c1.13,0,1.96.27,2.48.8.52.52.78,1.33.78,2.42v.86c0,1.45-.48,2.37-1.44,2.76v.04c.53.16.91.49,1.12.98.23.49.34,1.15.34,1.98v2.46c0,.4.01.73.04.98.03.24.09.48.2.72h-2.24c-.08-.23-.13-.44-.16-.64-.03-.2-.04-.56-.04-1.08v-2.56c0-.64-.11-1.09-.32-1.34-.2-.25-.55-.38-1.06-.38h-.76v6h-2.2v-14Zm3,6c.44,0,.77-.11.98-.34.23-.23.34-.61.34-1.14v-1.08c0-.51-.09-.87-.28-1.1-.17-.23-.45-.34-.84-.34h-1v4h.8Z"/><path class="cls-28" d="m519.75,92.19h137.04v1.6h-137.04v-1.6Z"/><path class="cls-28" d="m499.02,28.58c-1.07,0-1.87-.3-2.42-.9-.55-.61-.82-1.49-.82-2.62v-.8h2.08v.96c0,.91.38,1.36,1.14,1.36.37,0,.65-.11.84-.32.2-.23.3-.59.3-1.08,0-.59-.13-1.1-.4-1.54-.27-.45-.76-.99-1.48-1.62-.91-.8-1.54-1.52-1.9-2.16-.36-.65-.54-1.39-.54-2.2,0-1.11.28-1.96.84-2.56.56-.61,1.37-.92,2.44-.92s1.85.31,2.38.92c.55.6.82,1.47.82,2.6v.58h-2.08v-.72c0-.48-.09-.83-.28-1.04-.19-.23-.46-.34-.82-.34-.73,0-1.1.45-1.1,1.34,0,.51.13.98.4,1.42.28.44.78.97,1.5,1.6.92.8,1.55,1.53,1.9,2.18.35.65.52,1.42.52,2.3,0,1.15-.29,2.03-.86,2.64-.56.61-1.38.92-2.46.92Zm4.58-14.2h2.2v5.7h2.36v-5.7h2.2v14h-2.2v-6.3h-2.36v6.3h-2.2v-14Zm8.4,0h2.2v14h-2.2v-14Zm3.85,0h5.82v2h-3.62v3.9h2.84v2h-2.84v6.1h-2.2v-14Zm8.79,2h-2.3v-2h6.8v2h-2.3v12h-2.2v-12Zm5.57-2h6v2h-3.8v3.7h3.02v2h-3.02v4.3h3.8v2h-6v-14Zm7.27,0h3.26c1.13,0,1.96.27,2.48.8.52.52.78,1.33.78,2.42v.86c0,1.45-.48,2.37-1.44,2.76v.04c.53.16.91.49,1.12.98.23.49.34,1.15.34,1.98v2.46c0,.4.01.73.04.98.03.24.09.48.2.72h-2.24c-.08-.23-.13-.44-.16-.64-.03-.2-.04-.56-.04-1.08v-2.56c0-.64-.11-1.09-.32-1.34-.2-.25-.55-.38-1.06-.38h-.76v6h-2.2v-14Zm3,6c.44,0,.77-.11.98-.34.23-.23.34-.61.34-1.14v-1.08c0-.51-.09-.87-.28-1.1-.17-.23-.45-.34-.84-.34h-1v4h.8Zm10.14-6h1.9l-5.52,14h-1.9l5.52-14Zm6.01,14.2c-1.07,0-1.88-.3-2.44-.9-.56-.61-.84-1.49-.84-2.62v-7.36c0-1.13.28-2,.84-2.6.56-.61,1.37-.92,2.44-.92s1.88.31,2.44.92c.56.6.84,1.47.84,2.6v1.2h-2.08v-1.34c0-.92-.38-1.38-1.14-1.38s-1.14.46-1.14,1.38v7.66c0,.91.38,1.36,1.14,1.36s1.14-.45,1.14-1.36v-2.74h-1.1v-2h3.18v4.58c0,1.13-.28,2.01-.84,2.62-.56.6-1.37.9-2.44.9Zm4.69-14.2h3.26c1.13,0,1.96.27,2.48.8.52.52.78,1.33.78,2.42v.86c0,1.45-.48,2.37-1.44,2.76v.04c.53.16.91.49,1.12.98.23.49.34,1.15.34,1.98v2.46c0,.4.01.73.04.98.03.24.09.48.2.72h-2.24c-.08-.23-.13-.44-.16-.64-.03-.2-.04-.56-.04-1.08v-2.56c0-.64-.11-1.09-.32-1.34-.2-.25-.55-.38-1.06-.38h-.76v6h-2.2v-14Zm3,6c.44,0,.77-.11.98-.34.23-.23.34-.61.34-1.14v-1.08c0-.51-.09-.87-.28-1.1-.17-.23-.45-.34-.84-.34h-1v4h.8Zm5.07-6h2.2v14h-2.2v-14Zm3.85,0h3.24c1.09,0,1.91.29,2.46.88.55.59.82,1.45.82,2.58v1.38c0,1.13-.27,1.99-.82,2.58-.55.59-1.37.88-2.46.88h-1.04v5.7h-2.2v-14Zm3.24,6.3c.36,0,.63-.1.8-.3.19-.2.28-.54.28-1.02v-1.66c0-.48-.09-.82-.28-1.02-.17-.2-.44-.3-.8-.3h-1.04v4.3h1.04Zm7.41,7.9c-1.07,0-1.87-.3-2.42-.9-.55-.61-.82-1.49-.82-2.62v-.8h2.08v.96c0,.91.38,1.36,1.14,1.36.37,0,.65-.11.84-.32.2-.23.3-.59.3-1.08,0-.59-.13-1.1-.4-1.54-.27-.45-.76-.99-1.48-1.62-.91-.8-1.54-1.52-1.9-2.16-.36-.65-.54-1.39-.54-2.2,0-1.11.28-1.96.84-2.56.56-.61,1.37-.92,2.44-.92s1.85.31,2.38.92c.55.6.82,1.47.82,2.6v.58h-2.08v-.72c0-.48-.09-.83-.28-1.04-.19-.23-.46-.34-.82-.34-.73,0-1.1.45-1.1,1.34,0,.51.13.98.4,1.42.28.44.78.97,1.5,1.6.92.8,1.55,1.53,1.9,2.18.35.65.52,1.42.52,2.3,0,1.15-.29,2.03-.86,2.64-.56.61-1.38.92-2.46.92Zm9.46-14.2h1.9l-5.52,14h-1.9l5.52-14Zm4.81,2h-2.3v-2h6.8v2h-2.3v12h-2.2v-12Zm6.35-2h2.98l2.28,14h-2.2l-.4-2.78v.04h-2.5l-.4,2.74h-2.04l2.28-14Zm2.4,9.36l-.98-6.92h-.04l-.96,6.92h1.98Zm3.93-9.36h3.24c1.09,0,1.91.29,2.46.88.55.59.82,1.45.82,2.58v1.38c0,1.13-.27,1.99-.82,2.58-.55.59-1.37.88-2.46.88h-1.04v5.7h-2.2v-14Zm3.24,6.3c.36,0,.63-.1.8-.3.19-.2.28-.54.28-1.02v-1.66c0-.48-.09-.82-.28-1.02-.17-.2-.44-.3-.8-.3h-1.04v4.3h1.04Zm4.47-6.3h6v2h-3.8v3.7h3.02v2h-3.02v4.3h3.8v2h-6v-14Z"/><path class="cls-28" d="m495.34,29.98h129.64v1.6h-129.64v-1.6Z"/><path class="cls-28" d="m555.36,152.61h-2.3v-2h6.8v2h-2.3v12h-2.2v-12Zm5.57-2h2.2v14h-2.2v-14Zm3.85,0h3.26c1.13,0,1.96.27,2.48.8.52.52.78,1.33.78,2.42v.86c0,1.45-.48,2.37-1.44,2.76v.04c.53.16.91.49,1.12.98.23.49.34,1.15.34,1.98v2.46c0,.4.01.73.04.98.03.24.09.48.2.72h-2.24c-.08-.23-.13-.44-.16-.64-.03-.2-.04-.56-.04-1.08v-2.56c0-.64-.11-1.09-.32-1.34-.2-.25-.55-.38-1.06-.38h-.76v6h-2.2v-14Zm3,6c.44,0,.77-.11.98-.34.23-.23.34-.61.34-1.14v-1.08c0-.51-.09-.87-.28-1.1-.17-.23-.45-.34-.84-.34h-1v4h.8Zm5.07-6h6v2h-3.8v3.7h3.02v2h-3.02v4.3h3.8v2h-6v-14Zm12.15,0h1.9l-5.52,14h-1.9l5.52-14Zm2.89,0h3.26c1.13,0,1.96.27,2.48.8.52.52.78,1.33.78,2.42v.86c0,1.45-.48,2.37-1.44,2.76v.04c.53.16.91.49,1.12.98.23.49.34,1.15.34,1.98v2.46c0,.4.01.73.04.98.03.24.09.48.2.72h-2.24c-.08-.23-.13-.44-.16-.64-.03-.2-.04-.56-.04-1.08v-2.56c0-.64-.11-1.09-.32-1.34-.2-.25-.55-.38-1.06-.38h-.76v6h-2.2v-14Zm3,6c.44,0,.77-.11.98-.34.23-.23.34-.61.34-1.14v-1.08c0-.51-.09-.87-.28-1.1-.17-.23-.45-.34-.84-.34h-1v4h.8Zm5.07-6h2.2v14h-2.2v-14Zm3.85,0h3.14l1.4,10.02h.04l1.4-10.02h3.14v14h-2.08v-10.6h-.04l-1.6,10.6h-1.84l-1.6-10.6h-.04v10.6h-1.92v-14Z"/><path class="cls-28" d="m552.83,166.21h56.91v1.6h-56.91v-1.6Z"/><path class="cls-28" d="m518.71,239.63c-1.07,0-1.87-.3-2.42-.9-.55-.61-.82-1.49-.82-2.62v-.8h2.08v.96c0,.91.38,1.36,1.14,1.36.37,0,.65-.11.84-.32.2-.23.3-.59.3-1.08,0-.59-.13-1.1-.4-1.54-.27-.45-.76-.99-1.48-1.62-.91-.8-1.54-1.52-1.9-2.16-.36-.65-.54-1.39-.54-2.2,0-1.11.28-1.96.84-2.56.56-.61,1.37-.92,2.44-.92s1.85.31,2.38.92c.55.6.82,1.47.82,2.6v.58h-2.08v-.72c0-.48-.09-.83-.28-1.04-.19-.23-.46-.34-.82-.34-.73,0-1.1.45-1.1,1.34,0,.51.13.98.4,1.42.28.44.78.97,1.5,1.6.92.8,1.55,1.53,1.9,2.18s.52,1.42.52,2.3c0,1.15-.29,2.03-.86,2.64-.56.61-1.38.92-2.46.92Zm4.58-14.2h3.24c1.09,0,1.91.29,2.46.88.55.59.82,1.45.82,2.58v1.38c0,1.13-.27,1.99-.82,2.58-.55.59-1.37.88-2.46.88h-1.04v5.7h-2.2v-14Zm3.24,6.3c.36,0,.63-.1.8-.3.19-.2.28-.54.28-1.02v-1.66c0-.48-.09-.82-.28-1.02-.17-.2-.44-.3-.8-.3h-1.04v4.3h1.04Zm7.66,7.9c-1.08,0-1.91-.31-2.48-.92-.57-.61-.86-1.48-.86-2.6v-7.36c0-1.12.29-1.99.86-2.6.57-.61,1.4-.92,2.48-.92s1.91.31,2.48.92c.57.61.86,1.48.86,2.6v7.36c0,1.12-.29,1.99-.86,2.6-.57.61-1.4.92-2.48.92Zm0-2c.76,0,1.14-.46,1.14-1.38v-7.64c0-.92-.38-1.38-1.14-1.38s-1.14.46-1.14,1.38v7.64c0,.92.38,1.38,1.14,1.38Zm4.83-12.2h2.2v5.9l2.8-5.9h2.2l-2.62,5.14,2.66,8.86h-2.3l-1.86-6.24-.88,1.78v4.46h-2.2v-14Zm8.28,0h6v2h-3.8v3.7h3.02v2h-3.02v4.3h3.8v2h-6v-14Z"/><path class="cls-28" d="m515.03,241.02h38.7v1.6h-38.7v-1.6Z"/><path class="cls-28" d="m725.45,215.97h2.98l2.28,14h-2.2l-.4-2.78v.04h-2.5l-.4,2.74h-2.04l2.28-14Zm2.4,9.36l-.98-6.92h-.04l-.96,6.92h1.98Zm6.99,4.84c-1.05,0-1.86-.3-2.42-.9-.55-.6-.82-1.45-.82-2.54v-7.52c0-1.09.27-1.94.82-2.54.56-.6,1.37-.9,2.42-.9s1.85.3,2.4.9c.56.6.84,1.45.84,2.54v1.48h-2.08v-1.62c0-.87-.37-1.3-1.1-1.3s-1.1.43-1.1,1.3v7.82c0,.85.37,1.28,1.1,1.28s1.1-.43,1.1-1.28v-2.14h2.08v1.98c0,1.09-.28,1.94-.84,2.54-.55.6-1.35.9-2.4.9Zm7.7,0c-1.05,0-1.86-.3-2.42-.9-.55-.6-.82-1.45-.82-2.54v-7.52c0-1.09.27-1.94.82-2.54.56-.6,1.37-.9,2.42-.9s1.85.3,2.4.9c.56.6.84,1.45.84,2.54v1.48h-2.08v-1.62c0-.87-.37-1.3-1.1-1.3s-1.1.43-1.1,1.3v7.82c0,.85.37,1.28,1.1,1.28s1.1-.43,1.1-1.28v-2.14h2.08v1.98c0,1.09-.28,1.94-.84,2.54-.55.6-1.35.9-2.4.9Zm4.56-14.2h6v2h-3.8v3.7h3.02v2h-3.02v4.3h3.8v2h-6v-14Zm10.16,14.2c-1.07,0-1.87-.3-2.42-.9-.55-.61-.82-1.49-.82-2.62v-.8h2.08v.96c0,.91.38,1.36,1.14,1.36.37,0,.65-.11.84-.32.2-.23.3-.59.3-1.08,0-.59-.13-1.1-.4-1.54-.27-.45-.76-.99-1.48-1.62-.91-.8-1.54-1.52-1.9-2.16-.36-.65-.54-1.39-.54-2.2,0-1.11.28-1.96.84-2.56.56-.61,1.37-.92,2.44-.92s1.85.31,2.38.92c.55.6.82,1.47.82,2.6v.58h-2.08v-.72c0-.48-.09-.83-.28-1.04-.19-.23-.46-.34-.82-.34-.73,0-1.1.45-1.1,1.34,0,.51.13.98.4,1.42.28.44.78.97,1.5,1.6.92.8,1.55,1.53,1.9,2.18.35.65.52,1.42.52,2.3,0,1.15-.29,2.03-.86,2.64-.56.61-1.38.92-2.46.92Zm7.44,0c-1.07,0-1.87-.3-2.42-.9-.55-.61-.82-1.49-.82-2.62v-.8h2.08v.96c0,.91.38,1.36,1.14,1.36.37,0,.65-.11.84-.32.2-.23.3-.59.3-1.08,0-.59-.13-1.1-.4-1.54-.27-.45-.76-.99-1.48-1.62-.91-.8-1.54-1.52-1.9-2.16-.36-.65-.54-1.39-.54-2.2,0-1.11.28-1.96.84-2.56.56-.61,1.37-.92,2.44-.92s1.85.31,2.38.92c.55.6.82,1.47.82,2.6v.58h-2.08v-.72c0-.48-.09-.83-.28-1.04-.19-.23-.46-.34-.82-.34-.73,0-1.1.45-1.1,1.34,0,.51.13.98.4,1.42.28.44.78.97,1.5,1.6.92.8,1.55,1.53,1.9,2.18.35.65.52,1.42.52,2.3,0,1.15-.29,2.03-.86,2.64-.56.61-1.38.92-2.46.92Zm7.76,0c-1.08,0-1.91-.31-2.48-.92-.57-.61-.86-1.48-.86-2.6v-7.36c0-1.12.29-1.99.86-2.6.57-.61,1.4-.92,2.48-.92s1.91.31,2.48.92c.57.61.86,1.48.86,2.6v7.36c0,1.12-.29,1.99-.86,2.6-.57.61-1.4.92-2.48.92Zm0-2c.76,0,1.14-.46,1.14-1.38v-7.64c0-.92-.38-1.38-1.14-1.38s-1.14.46-1.14,1.38v7.64c0,.92.38,1.38,1.14,1.38Zm4.83-12.2h3.26c1.13,0,1.96.27,2.48.8.52.52.78,1.33.78,2.42v.86c0,1.45-.48,2.37-1.44,2.76v.04c.53.16.91.49,1.12.98.23.49.34,1.15.34,1.98v2.46c0,.4.01.73.04.98.03.24.09.48.2.72h-2.24c-.08-.23-.13-.44-.16-.64-.03-.2-.04-.56-.04-1.08v-2.56c0-.64-.11-1.09-.32-1.34-.2-.25-.55-.38-1.06-.38h-.76v6h-2.2v-14Zm3,6c.44,0,.77-.11.98-.34.23-.23.34-.61.34-1.14v-1.08c0-.51-.09-.87-.28-1.1-.17-.23-.45-.34-.84-.34h-1v4h.8Zm5.07-6h2.2v14h-2.2v-14Zm3.85,0h6v2h-3.8v3.7h3.02v2h-3.02v4.3h3.8v2h-6v-14Zm10.17,14.2c-1.07,0-1.87-.3-2.42-.9-.55-.61-.82-1.49-.82-2.62v-.8h2.08v.96c0,.91.38,1.36,1.14,1.36.37,0,.65-.11.84-.32.2-.23.3-.59.3-1.08,0-.59-.13-1.1-.4-1.54-.27-.45-.76-.99-1.48-1.62-.91-.8-1.54-1.52-1.9-2.16-.36-.65-.54-1.39-.54-2.2,0-1.11.28-1.96.84-2.56.56-.61,1.37-.92,2.44-.92s1.85.31,2.38.92c.55.6.82,1.47.82,2.6v.58h-2.08v-.72c0-.48-.09-.83-.28-1.04-.19-.23-.46-.34-.82-.34-.73,0-1.1.45-1.1,1.34,0,.51.13.98.4,1.42.28.44.78.97,1.5,1.6.92.8,1.55,1.53,1.9,2.18s.52,1.42.52,2.3c0,1.15-.29,2.03-.86,2.64-.56.61-1.38.92-2.46.92Z"/><path class="cls-28" d="m722.92,231.58h80.19v1.6h-80.19v-1.6Z"/><path class="cls-28" d="m354.41,264.01h3.24c1.09,0,1.91.29,2.46.88.55.59.82,1.45.82,2.58v1.38c0,1.13-.27,1.99-.82,2.58-.55.59-1.37.88-2.46.88h-1.04v5.7h-2.2v-14Zm3.24,6.3c.36,0,.63-.1.8-.3.19-.2.28-.54.28-1.02v-1.66c0-.48-.09-.82-.28-1.02-.17-.2-.44-.3-.8-.3h-1.04v4.3h1.04Zm4.48-6.3h6v2h-3.8v3.7h3.02v2h-3.02v4.3h3.8v2h-6v-14Zm7.27,0h3.36c1.09,0,1.91.29,2.46.88.55.59.82,1.45.82,2.58v7.08c0,1.13-.27,1.99-.82,2.58-.55.59-1.37.88-2.46.88h-3.36v-14Zm3.32,12c.36,0,.63-.11.82-.32.2-.21.3-.56.3-1.04v-7.28c0-.48-.1-.83-.3-1.04-.19-.21-.46-.32-.82-.32h-1.12v10h1.12Zm6.47-12h2.98l2.28,14h-2.2l-.4-2.78v.04h-2.5l-.4,2.74h-2.04l2.28-14Zm2.4,9.36l-.98-6.92h-.04l-.96,6.92h1.98Zm3.93-9.36h2.2v12h3.62v2h-5.82v-14Zm11.95,0h1.9l-5.52,14h-1.9l5.52-14Zm5.99,14.2c-1.05,0-1.86-.3-2.42-.9-.55-.6-.82-1.45-.82-2.54v-7.52c0-1.09.27-1.94.82-2.54.56-.6,1.37-.9,2.42-.9s1.85.3,2.4.9c.56.6.84,1.45.84,2.54v1.48h-2.08v-1.62c0-.87-.37-1.3-1.1-1.3s-1.1.43-1.1,1.3v7.82c0,.85.37,1.28,1.1,1.28s1.1-.43,1.1-1.28v-2.14h2.08v1.98c0,1.09-.28,1.94-.84,2.54-.55.6-1.35.9-2.4.9Zm4.56-14.2h3.26c1.13,0,1.96.27,2.48.8.52.52.78,1.33.78,2.42v.86c0,1.45-.48,2.37-1.44,2.76v.04c.53.16.91.49,1.12.98.23.49.34,1.15.34,1.98v2.46c0,.4.01.73.04.98.03.24.09.48.2.72h-2.24c-.08-.23-.13-.44-.16-.64-.03-.2-.04-.56-.04-1.08v-2.56c0-.64-.11-1.09-.32-1.34-.2-.25-.55-.38-1.06-.38h-.76v6h-2.2v-14Zm3,6c.44,0,.77-.11.98-.34.23-.23.34-.61.34-1.14v-1.08c0-.51-.09-.87-.28-1.1-.17-.23-.45-.34-.84-.34h-1v4h.8Zm6.77-6h2.98l2.28,14h-2.2l-.4-2.78v.04h-2.5l-.4,2.74h-2.04l2.28-14Zm2.4,9.36l-.98-6.92h-.04l-.96,6.92h1.98Zm3.93-9.36h2.76l2.14,8.38h.04v-8.38h1.96v14h-2.26l-2.64-10.22h-.04v10.22h-1.96v-14Zm8.54,0h2.2v5.9l2.8-5.9h2.2l-2.62,5.14,2.66,8.86h-2.3l-1.86-6.24-.88,1.78v4.46h-2.2v-14Zm13.18,0h2.98l2.28,14h-2.2l-.4-2.78v.04h-2.5l-.4,2.74h-2.04l2.28-14Zm2.4,9.36l-.98-6.92h-.04l-.96,6.92h1.98Zm3.93-9.36h3.26c1.13,0,1.96.27,2.48.8.52.52.78,1.33.78,2.42v.86c0,1.45-.48,2.37-1.44,2.76v.04c.53.16.91.49,1.12.98.23.49.34,1.15.34,1.98v2.46c0,.4.01.73.04.98.03.24.09.48.2.72h-2.24c-.08-.23-.13-.44-.16-.64s-.04-.56-.04-1.08v-2.56c0-.64-.11-1.09-.32-1.34-.2-.25-.55-.38-1.06-.38h-.76v6h-2.2v-14Zm3,6c.44,0,.77-.11.98-.34.23-.23.34-.61.34-1.14v-1.08c0-.51-.09-.87-.28-1.1-.17-.23-.45-.34-.84-.34h-1v4h.8Zm5.07-6h3.14l1.4,10.02h.04l1.4-10.02h3.14v14h-2.08v-10.6h-.04l-1.6,10.6h-1.84l-1.6-10.6h-.04v10.6h-1.92v-14Z"/><path class="cls-28" d="m353.59,279.61h116.56v1.6h-116.56v-1.6Z"/><path class="cls-28" d="m129.92,287.66c-1.05,0-1.86-.3-2.42-.9-.55-.6-.82-1.45-.82-2.54v-7.52c0-1.09.27-1.94.82-2.54.56-.6,1.37-.9,2.42-.9s1.85.3,2.4.9c.56.6.84,1.45.84,2.54v1.48h-2.08v-1.62c0-.87-.37-1.3-1.1-1.3s-1.1.43-1.1,1.3v7.82c0,.85.37,1.28,1.1,1.28s1.1-.43,1.1-1.28v-2.14h2.08v1.98c0,1.09-.28,1.94-.84,2.54-.55.6-1.35.9-2.4.9Zm4.56-14.2h2.2v5.7h2.36v-5.7h2.2v14h-2.2v-6.3h-2.36v6.3h-2.2v-14Zm10.1,0h2.98l2.28,14h-2.2l-.4-2.78v.04h-2.5l-.4,2.74h-2.04l2.28-14Zm2.4,9.36l-.98-6.92h-.04l-.96,6.92h1.98Zm3.93-9.36h2.2v14h-2.2v-14Zm3.85,0h2.76l2.14,8.38h.04v-8.38h1.96v14h-2.26l-2.64-10.22h-.04v10.22h-1.96v-14Zm11.4,14.2c-1.07,0-1.87-.3-2.42-.9-.55-.61-.82-1.49-.82-2.62v-.8h2.08v.96c0,.91.38,1.36,1.14,1.36.37,0,.65-.11.84-.32.2-.23.3-.59.3-1.08,0-.59-.13-1.1-.4-1.54-.27-.45-.76-.99-1.48-1.62-.91-.8-1.54-1.52-1.9-2.16-.36-.65-.54-1.39-.54-2.2,0-1.11.28-1.96.84-2.56.56-.61,1.37-.92,2.44-.92s1.85.31,2.38.92c.55.6.82,1.47.82,2.6v.58h-2.08v-.72c0-.48-.09-.83-.28-1.04-.19-.23-.46-.34-.82-.34-.73,0-1.1.45-1.1,1.34,0,.51.13.98.4,1.42.28.44.78.97,1.5,1.6.92.8,1.55,1.53,1.9,2.18.35.65.52,1.42.52,2.3,0,1.15-.29,2.03-.86,2.64-.56.61-1.38.92-2.46.92Zm9.46-14.2h1.9l-5.52,14h-1.9l5.52-14Zm5.99,14.2c-1.05,0-1.86-.3-2.42-.9-.55-.6-.82-1.45-.82-2.54v-7.52c0-1.09.27-1.94.82-2.54.56-.6,1.37-.9,2.42-.9s1.85.3,2.4.9c.56.6.84,1.45.84,2.54v1.48h-2.08v-1.62c0-.87-.37-1.3-1.1-1.3s-1.1.43-1.1,1.3v7.82c0,.85.37,1.28,1.1,1.28s1.1-.43,1.1-1.28v-2.14h2.08v1.98c0,1.09-.28,1.94-.84,2.54-.55.6-1.35.9-2.4.9Zm4.56-14.2h2.2v5.7h2.36v-5.7h2.2v14h-2.2v-6.3h-2.36v6.3h-2.2v-14Zm10.1,0h2.98l2.28,14h-2.2l-.4-2.78v.04h-2.5l-.4,2.74h-2.04l2.28-14Zm2.4,9.36l-.98-6.92h-.04l-.96,6.92h1.98Zm3.93-9.36h2.2v14h-2.2v-14Zm3.85,0h2.76l2.14,8.38h.04v-8.38h1.96v14h-2.26l-2.64-10.22h-.04v10.22h-1.96v-14Zm11.74,0h3.26c1.13,0,1.96.27,2.48.8.52.52.78,1.33.78,2.42v.86c0,1.45-.48,2.37-1.44,2.76v.04c.53.16.91.49,1.12.98.23.49.34,1.15.34,1.98v2.46c0,.4.01.73.04.98.03.24.09.48.2.72h-2.24c-.08-.23-.13-.44-.16-.64-.03-.2-.04-.56-.04-1.08v-2.56c0-.64-.11-1.09-.32-1.34-.2-.25-.55-.38-1.06-.38h-.76v6h-2.2v-14Zm3,6c.44,0,.77-.11.98-.34.23-.23.34-.61.34-1.14v-1.08c0-.51-.09-.87-.28-1.1-.17-.23-.45-.34-.84-.34h-1v4h.8Zm5.07-6h2.2v14h-2.2v-14Zm3.85,0h2.76l2.14,8.38h.04v-8.38h1.96v14h-2.26l-2.64-10.22h-.04v10.22h-1.96v-14Zm11.65,14.2c-1.07,0-1.88-.3-2.44-.9-.56-.61-.84-1.49-.84-2.62v-7.36c0-1.13.28-2,.84-2.6.56-.61,1.37-.92,2.44-.92s1.88.31,2.44.92c.56.6.84,1.47.84,2.6v1.2h-2.08v-1.34c0-.92-.38-1.38-1.14-1.38s-1.14.46-1.14,1.38v7.66c0,.91.38,1.36,1.14,1.36s1.14-.45,1.14-1.36v-2.74h-1.1v-2h3.18v4.58c0,1.13-.28,2.01-.84,2.62-.56.6-1.37.9-2.44.9Zm7.55,0c-1.07,0-1.87-.3-2.42-.9-.55-.61-.82-1.49-.82-2.62v-.8h2.08v.96c0,.91.38,1.36,1.14,1.36.37,0,.65-.11.84-.32.2-.23.3-.59.3-1.08,0-.59-.13-1.1-.4-1.54-.27-.45-.76-.99-1.48-1.62-.91-.8-1.54-1.52-1.9-2.16-.36-.65-.54-1.39-.54-2.2,0-1.11.28-1.96.84-2.56.56-.61,1.37-.92,2.44-.92s1.85.31,2.38.92c.55.6.82,1.47.82,2.6v.58h-2.08v-.72c0-.48-.09-.83-.28-1.04-.19-.23-.46-.34-.82-.34-.73,0-1.1.45-1.1,1.34,0,.51.13.98.4,1.42.28.44.78.97,1.5,1.6.92.8,1.55,1.53,1.9,2.18.35.65.52,1.42.52,2.3,0,1.15-.29,2.03-.86,2.64-.56.61-1.38.92-2.46.92Z"/><path class="cls-28" d="m126,289.06h127.05v1.6h-127.05v-1.6Z"/><path class="cls-28" d="m84.29,56.9h3.26c1.13,0,1.96.27,2.48.8.52.52.78,1.33.78,2.42v.86c0,1.45-.48,2.37-1.44,2.76v.04c.53.16.91.49,1.12.98.23.49.34,1.15.34,1.98v2.46c0,.4.01.73.04.98.03.24.09.48.2.72h-2.24c-.08-.23-.13-.44-.16-.64-.03-.2-.04-.56-.04-1.08v-2.56c0-.64-.11-1.09-.32-1.34-.2-.25-.55-.38-1.06-.38h-.76v6h-2.2v-14Zm3,6c.44,0,.77-.11.98-.34.23-.23.34-.61.34-1.14v-1.08c0-.51-.09-.87-.28-1.1-.17-.23-.45-.34-.84-.34h-1v4h.8Zm8.25,8.2c-1.08,0-1.91-.31-2.48-.92-.57-.61-.86-1.48-.86-2.6v-7.36c0-1.12.29-1.99.86-2.6.57-.61,1.4-.92,2.48-.92s1.91.31,2.48.92c.57.61.86,1.48.86,2.6v7.36c0,1.12-.29,1.99-.86,2.6-.57.61-1.4.92-2.48.92Zm0-2c.76,0,1.14-.46,1.14-1.38v-7.64c0-.92-.38-1.38-1.14-1.38s-1.14.46-1.14,1.38v7.64c0,.92.38,1.38,1.14,1.38Zm6.49-12.2h2.98l2.28,14h-2.2l-.4-2.78v.04h-2.5l-.4,2.74h-2.04l2.28-14Zm2.4,9.36l-.98-6.92h-.04l-.96,6.92h1.98Zm3.93-9.36h3.26c1.13,0,1.96.27,2.48.8.52.52.78,1.33.78,2.42v.86c0,1.45-.48,2.37-1.44,2.76v.04c.53.16.91.49,1.12.98.23.49.34,1.15.34,1.98v2.46c0,.4.01.73.04.98.03.24.09.48.2.72h-2.24c-.08-.23-.13-.44-.16-.64-.03-.2-.04-.56-.04-1.08v-2.56c0-.64-.11-1.09-.32-1.34-.2-.25-.55-.38-1.06-.38h-.76v6h-2.2v-14Zm3,6c.44,0,.77-.11.98-.34.23-.23.34-.61.34-1.14v-1.08c0-.51-.09-.87-.28-1.1-.17-.23-.45-.34-.84-.34h-1v4h.8Zm8.27-6h3.32c1.13,0,1.96.27,2.48.8.52.52.78,1.33.78,2.42v.56c0,.72-.12,1.31-.36,1.76-.23.45-.58.78-1.06.98v.04c1.09.37,1.64,1.35,1.64,2.92v1.2c0,1.08-.29,1.91-.86,2.48-.56.56-1.39.84-2.48.84h-3.46v-14Zm3.06,5.7c.44,0,.77-.11.98-.34.23-.23.34-.61.34-1.14v-.78c0-.51-.09-.87-.28-1.1-.17-.23-.45-.34-.84-.34h-1.06v3.7h.86Zm.4,6.3c.39,0,.67-.1.86-.3.19-.21.28-.57.28-1.08v-1.22c0-.64-.11-1.08-.34-1.32-.21-.25-.57-.38-1.08-.38h-.98v4.3h1.26Zm4.63-12h3.26c1.13,0,1.96.27,2.48.8.52.52.78,1.33.78,2.42v.86c0,1.45-.48,2.37-1.44,2.76v.04c.53.16.91.49,1.12.98.23.49.34,1.15.34,1.98v2.46c0,.4.01.73.04.98.03.24.09.48.2.72h-2.24c-.08-.23-.13-.44-.16-.64-.03-.2-.04-.56-.04-1.08v-2.56c0-.64-.11-1.09-.32-1.34-.2-.25-.55-.38-1.06-.38h-.76v6h-2.2v-14Zm3,6c.44,0,.77-.11.98-.34.23-.23.34-.61.34-1.14v-1.08c0-.51-.09-.87-.28-1.1-.17-.23-.45-.34-.84-.34h-1v4h.8Zm5.07-6h6v2h-3.8v3.7h3.02v2h-3.02v4.3h3.8v2h-6v-14Zm8.97,0h2.98l2.28,14h-2.2l-.4-2.78v.04h-2.5l-.4,2.74h-2.04l2.28-14Zm2.4,9.36l-.98-6.92h-.04l-.96,6.92h1.98Zm3.93-9.36h2.2v5.9l2.8-5.9h2.2l-2.62,5.14,2.66,8.86h-2.3l-1.86-6.24-.88,1.78v4.46h-2.2v-14Z"/><path class="cls-28" d="m83.47,72.5h75.06v1.6h-75.06v-1.6Z"/><path class="cls-28" d="m59.04,138.04c-1.05,0-1.86-.3-2.42-.9-.55-.6-.82-1.45-.82-2.54v-7.52c0-1.09.27-1.94.82-2.54.56-.6,1.37-.9,2.42-.9s1.85.3,2.4.9c.56.6.84,1.45.84,2.54v1.48h-2.08v-1.62c0-.87-.37-1.3-1.1-1.3s-1.1.43-1.1,1.3v7.82c0,.85.37,1.28,1.1,1.28s1.1-.43,1.1-1.28v-2.14h2.08v1.98c0,1.09-.28,1.94-.84,2.54-.55.6-1.35.9-2.4.9Zm6.26-14.2h2.98l2.28,14h-2.2l-.4-2.78v.04h-2.5l-.4,2.74h-2.04l2.28-14Zm2.4,9.36l-.98-6.92h-.04l-.96,6.92h1.98Zm6.73,4.84c-1.07,0-1.87-.3-2.42-.9-.55-.61-.82-1.49-.82-2.62v-.8h2.08v.96c0,.91.38,1.36,1.14,1.36.37,0,.65-.11.84-.32.2-.23.3-.59.3-1.08,0-.59-.13-1.1-.4-1.54-.27-.45-.76-.99-1.48-1.62-.91-.8-1.54-1.52-1.9-2.16-.36-.65-.54-1.39-.54-2.2,0-1.11.28-1.96.84-2.56.56-.61,1.37-.92,2.44-.92s1.85.31,2.38.92c.55.6.82,1.47.82,2.6v.58h-2.08v-.72c0-.48-.09-.83-.28-1.04-.19-.23-.46-.34-.82-.34-.73,0-1.1.45-1.1,1.34,0,.51.13.98.4,1.42.28.44.78.97,1.5,1.6.92.8,1.55,1.53,1.9,2.18.35.65.52,1.42.52,2.3,0,1.15-.29,2.03-.86,2.64-.56.61-1.38.92-2.46.92Zm7.44,0c-1.07,0-1.87-.3-2.42-.9-.55-.61-.82-1.49-.82-2.62v-.8h2.08v.96c0,.91.38,1.36,1.14,1.36.37,0,.65-.11.84-.32.2-.23.3-.59.3-1.08,0-.59-.13-1.1-.4-1.54-.27-.45-.76-.99-1.48-1.62-.91-.8-1.54-1.52-1.9-2.16-.36-.65-.54-1.39-.54-2.2,0-1.11.28-1.96.84-2.56.56-.61,1.37-.92,2.44-.92s1.85.31,2.38.92c.55.6.82,1.47.82,2.6v.58h-2.08v-.72c0-.48-.09-.83-.28-1.04-.19-.23-.46-.34-.82-.34-.73,0-1.1.45-1.1,1.34,0,.51.13.98.4,1.42.28.44.78.97,1.5,1.6.92.8,1.55,1.53,1.9,2.18.35.65.52,1.42.52,2.3,0,1.15-.29,2.03-.86,2.64-.56.61-1.38.92-2.46.92Zm4.58-14.2h6v2h-3.8v3.7h3.02v2h-3.02v4.3h3.8v2h-6v-14Zm8.99,2h-2.3v-2h6.8v2h-2.3v12h-2.2v-12Zm7.48,0h-2.3v-2h6.8v2h-2.3v12h-2.2v-12Zm5.57-2h6v2h-3.8v3.7h3.02v2h-3.02v4.3h3.8v2h-6v-14Z"/><path class="cls-28" d="m55.12,139.44h59.8v1.6h-59.8v-1.6Z"/><path class="cls-28" d="m.82,150.61h3.26c1.13,0,1.96.27,2.48.8.52.52.78,1.33.78,2.42v.86c0,1.45-.48,2.37-1.44,2.76v.04c.53.16.91.49,1.12.98.23.49.34,1.15.34,1.98v2.46c0,.4.01.73.04.98.03.24.09.48.2.72h-2.24c-.08-.23-.13-.44-.16-.64-.03-.2-.04-.56-.04-1.08v-2.56c0-.64-.11-1.09-.32-1.34-.2-.25-.55-.38-1.06-.38h-.76v6H.82v-14Zm3,6c.44,0,.77-.11.98-.34.23-.23.34-.61.34-1.14v-1.08c0-.51-.09-.87-.28-1.1-.17-.23-.45-.34-.84-.34h-1v4h.8Zm5.07-6h6v2h-3.8v3.7h3.02v2h-3.02v4.3h3.8v2h-6v-14Zm8.97,0h2.98l2.28,14h-2.2l-.4-2.78v.04h-2.5l-.4,2.74h-2.04l2.28-14Zm2.4,9.36l-.98-6.92h-.04l-.96,6.92h1.98Zm3.93-9.36h3.26c1.13,0,1.96.27,2.48.8.52.52.78,1.33.78,2.42v.86c0,1.45-.48,2.37-1.44,2.76v.04c.53.16.91.49,1.12.98.23.49.34,1.15.34,1.98v2.46c0,.4.01.73.04.98.03.24.09.48.2.72h-2.24c-.08-.23-.13-.44-.16-.64-.03-.2-.04-.56-.04-1.08v-2.56c0-.64-.11-1.09-.32-1.34-.2-.25-.55-.38-1.06-.38h-.76v6h-2.2v-14Zm3,6c.44,0,.77-.11.98-.34.23-.23.34-.61.34-1.14v-1.08c0-.51-.09-.87-.28-1.1-.17-.23-.45-.34-.84-.34h-1v4h.8Zm8.27-6h3.36c1.09,0,1.91.29,2.46.88.55.59.82,1.45.82,2.58v7.08c0,1.13-.27,1.99-.82,2.58-.55.59-1.37.88-2.46.88h-3.36v-14Zm3.32,12c.36,0,.63-.11.82-.32.2-.21.3-.56.3-1.04v-7.28c0-.48-.1-.83-.3-1.04-.19-.21-.46-.32-.82-.32h-1.12v10h1.12Zm4.8-12h6v2h-3.8v3.7h3.02v2h-3.02v4.3h3.8v2h-6v-14Zm7.27,0h3.26c1.13,0,1.96.27,2.48.8.52.52.78,1.33.78,2.42v.86c0,1.45-.48,2.37-1.44,2.76v.04c.53.16.91.49,1.12.98.23.49.34,1.15.34,1.98v2.46c0,.4.01.73.04.98.03.24.09.48.2.72h-2.24c-.08-.23-.13-.44-.16-.64-.03-.2-.04-.56-.04-1.08v-2.56c0-.64-.11-1.09-.32-1.34-.2-.25-.55-.38-1.06-.38h-.76v6h-2.2v-14Zm3,6c.44,0,.77-.11.98-.34.23-.23.34-.61.34-1.14v-1.08c0-.51-.09-.87-.28-1.1-.17-.23-.45-.34-.84-.34h-1v4h.8Zm6.77-6h2.98l2.28,14h-2.2l-.4-2.78v.04h-2.5l-.4,2.74h-2.04l2.28-14Zm2.4,9.36l-.98-6.92h-.04l-.96,6.92h1.98Zm3.93-9.36h2.2v14h-2.2v-14Zm3.85,0h2.2v12h3.62v2h-5.82v-14Zm6.88,0h2.2v12h3.62v2h-5.82v-14Zm6.88,0h6v2h-3.8v3.7h3.02v2h-3.02v4.3h3.8v2h-6v-14Zm10.47,14.2c-1.07,0-1.88-.3-2.44-.9-.56-.61-.84-1.49-.84-2.62v-10.68h2.2v10.84c0,.48.09.83.28,1.04.2.21.48.32.84.32s.63-.11.82-.32c.2-.21.3-.56.3-1.04v-10.84h2.12v10.68c0,1.13-.28,2.01-.84,2.62-.56.6-1.37.9-2.44.9Zm4.85-14.2h3.26c1.13,0,1.96.27,2.48.8.52.52.78,1.33.78,2.42v.86c0,1.45-.48,2.37-1.44,2.76v.04c.53.16.91.49,1.12.98.23.49.34,1.15.34,1.98v2.46c0,.4.01.73.04.98.03.24.09.48.2.72h-2.24c-.08-.23-.13-.44-.16-.64-.03-.2-.04-.56-.04-1.08v-2.56c0-.64-.11-1.09-.32-1.34-.2-.25-.55-.38-1.06-.38h-.76v6h-2.2v-14Zm3,6c.44,0,.77-.11.98-.34.23-.23.34-.61.34-1.14v-1.08c0-.51-.09-.87-.28-1.1-.17-.23-.45-.34-.84-.34h-1v4h.8Z"/><path class="cls-28" d="m0,166.21h107.08v1.6H0v-1.6Z"/><path class="cls-23" d="m705.15,334.9c-1.18,0-2.27-.64-2.84-1.67l-.09-.17c-.11-.21-.04-.46.16-.58l4.88-2.8c.1-.06.22-.07.33-.04.11.03.21.11.26.21l.12.23c.87,1.57.3,3.55-1.26,4.42-.48.27-1.02.41-1.57.41Zm-1.96-1.89c.44.64,1.17,1.03,1.96,1.03.4,0,.8-.1,1.15-.3,1.1-.61,1.53-1.97,1-3.09l-4.12,2.36Z"/><path class="cls-28" d="m705.15,335.25c-1.31,0-2.51-.71-3.15-1.85l-.1-.18c-.2-.37-.07-.85.3-1.06l4.88-2.8c.18-.1.4-.13.6-.07.2.06.37.19.47.38l.13.23c.46.84.58,1.81.31,2.74-.26.93-.87,1.69-1.71,2.16-.53.3-1.14.45-1.74.45Zm2.33-5.28s-.03,0-.04,0l-4.88,2.8s-.05.07-.03.1l.09.17c.51.92,1.47,1.49,2.52,1.49.49,0,.97-.13,1.4-.36.67-.38,1.16-.99,1.37-1.73.21-.74.12-1.52-.25-2.2l-.13-.24s-.03-.03-.04-.03c0,0-.02,0-.02,0Zm-2.33,4.42c-.9,0-1.74-.44-2.26-1.18-.06-.08-.08-.18-.05-.28.02-.1.08-.18.17-.23l4.12-2.36c.09-.05.19-.06.28-.03.09.03.17.1.21.19.6,1.3.1,2.86-1.15,3.55-.41.23-.86.35-1.33.35Zm-1.42-1.29c.38.37.88.58,1.42.58.34,0,.68-.09.98-.26.81-.45,1.2-1.39.98-2.26l-3.38,1.94Z"/><path class="cls-28" d="m702.52,315c0,.16-.13.29-.29.29h-3.31c-.16,0-.29-.13-.29-.29s.13-.29.29-.29h3.31c.16,0,.29.13.29.29Z"/><path class="cls-28" d="m702.22,315.41h-3.31c-.36,0-.65-.29-.65-.65s.29-.65.65-.65h3.31c.36,0,.65.29.65.65s-.29.65-.65.65Z"/><path class="cls-23" d="m684.11,346.98c-1.26,0-2.42-.68-3.03-1.79l-.1-.18c-.12-.22-.04-.5.17-.62l5.21-2.99c.11-.06.23-.08.35-.04.12.03.22.11.28.22l.13.25c.93,1.67.32,3.79-1.35,4.72-.52.29-1.09.44-1.68.44Zm-2.1-2.02c.47.69,1.25,1.1,2.1,1.1.43,0,.85-.11,1.23-.32,1.17-.65,1.63-2.1,1.07-3.3l-4.4,2.52Z"/><path class="cls-28" d="m684.11,347.33c-1.39,0-2.67-.75-3.34-1.97l-.1-.19c-.21-.39-.07-.88.31-1.1l5.21-2.99c.19-.11.42-.14.63-.08.21.06.39.2.49.39l.13.25c.49.89.61,1.92.33,2.9-.28.98-.92,1.8-1.81,2.29-.57.32-1.21.48-1.85.48Zm2.49-5.64s-.04,0-.05.01l-5.21,2.99c-.05.03-.07.09-.04.14l.1.19c.55.98,1.59,1.6,2.72,1.6.52,0,1.05-.14,1.51-.39.72-.4,1.25-1.07,1.48-1.87.23-.8.13-1.64-.27-2.37l-.14-.25s-.04-.04-.06-.05c-.01,0-.02,0-.03,0Zm-2.49,4.72c-.95,0-1.85-.47-2.39-1.25-.06-.08-.08-.18-.05-.28.02-.1.08-.18.17-.23l4.4-2.52c.09-.05.19-.06.28-.03.09.03.17.1.21.19.64,1.37.1,3.03-1.22,3.76-.43.24-.92.37-1.4.37Zm-1.55-1.36c.41.41.97.65,1.55.65.37,0,.74-.1,1.06-.28.88-.49,1.3-1.52,1.05-2.47l-3.67,2.1Z"/><path class="cls-30" d="m677.9,320.02l-1.85,6.29c-.07.23.11.46.35.46h5.88c.24,0,.42-.24.34-.47l-1.98-6.29c-.05-.15-.19-.25-.34-.25h-2.05c-.16,0-.3.1-.35.26Z"/><path class="cls-28" d="m682.28,327.13h-5.88c-.23,0-.44-.11-.57-.29-.14-.18-.18-.41-.11-.63l1.85-6.29c.09-.3.37-.51.69-.51h2.05c.31,0,.59.2.68.5l1.98,6.29c.07.22.03.46-.11.64-.14.19-.35.29-.58.29Zm-4.03-7.01l-1.86,6.3h5.89s0,0,0,0l-1.98-6.3h-2.05Z"/><path class="cls-23" d="m681.3,325.73c0,.17-.14.31-.31.31h-3.54c-.17,0-.31-.14-.31-.31s.14-.31.31-.31h3.54c.17,0,.31.14.31.31Z"/><path class="cls-28" d="m680.98,326.16h-3.54c-.37,0-.67-.3-.67-.67s.3-.67.67-.67h3.54c.37,0,.67.3.67.67s-.3.67-.67.67Z"/><path class="cls-28" d="m702.43,331.82c-.12,0-.25-.07-.31-.19-.09-.17-.03-.39.14-.48l4.13-2.24c.17-.09.39-.03.48.14.09.17.03.39-.14.48l-4.13,2.24c-.05.03-.11.04-.17.04Z"/><path class="cls-28" d="m681.21,343.67c-.12,0-.24-.06-.31-.18-.1-.17-.04-.39.13-.49l4.34-2.54c.17-.1.39-.04.48.13.1.17.04.39-.13.49l-4.34,2.54c-.06.03-.12.05-.18.05Z"/><path class="cls-28" d="m643.32,272.39s-.53,5.63-.41,6.17c.12.53,2.7,5.12,4.38,5.04,0,0,3.91-2.65,8.7-2.87,4.79-.22,7.78-.6,12.77,1.76,4.98,2.35,9.12,4.72,9.12,4.72,0,0-3.89-5.76-9.11-8.05-5.22-2.29-9.29-2.67-12.96-2.01-3.67.65-8.28,2.52-8.28,2.52,0,0-3.25-3.41-4.2-7.26Z"/><path class="cls-35" d="m291.97,207.31c19.7-14.12-29.67-6.21-30.1-6.23-.13.42.44,4.47-.54,3.96.38-.29,30.61,3.24,30.64,2.27Z"/><path class="cls-19" d="m248.41,202.78l18.75-4.35c6.79,7.58-15.27,7.27-17.89,9.27-.51.2-1.28-4.93-.86-4.92Z"/><path class="cls-25" d="m409.17,249.34l5.49-60"/><path class="cls-25" d="m349.89,185.99l59.84,5.83"/><path class="cls-25" d="m413.74,126.54l-6.32,60.44"/><path class="cls-25" d="m472.09,190.07l-57.53-4.53"/><path class="cls-25" d="m386.4,244.31l20.57-56.63"/><path class="cls-25" d="m467.01,212.22l-56.63-20.2"/><path class="cls-25" d="m434.54,131.24l-20.01,57.38"/><path class="cls-25" d="m354.69,163.89l53.99,20.39"/><path class="cls-25" d="m396.53,247.68l10.49-59.33"/><path class="cls-25" d="m470.38,202.15l-59.27-10.11"/><path class="cls-25" d="m424.42,128l-9.8,59.98"/><path class="cls-25" d="m351.41,173.95l56.7,10.76"/><path class="cls-25" d="m419.58,248.76l-4.74-60.06"/><path class="cls-25" d="m350.44,196.36l59.96-4.38"/><path class="cls-25" d="m403.31,126.95l4,60.64"/><path class="cls-25" d="m471.57,179.7l-57.47,5.27"/><path class="cls-25" d="m424.02,248.04l-16.43-57.97"/><path class="cls-25" d="m470.63,174.87l-57.75,16.74"/><path class="cls-25" d="m396.93,128.17l17.33,58.25"/><path class="cls-25" d="m351.26,201.36l55.71-15.04"/><path class="cls-25" d="m434.21,244.85l-26.2-54.26"/><path class="cls-25" d="m467.48,164.73l-53.99,26.46"/><path class="cls-25" d="m386.82,131.46l27.13,54.38"/><path class="cls-25" d="m354.48,211.44l52.28-24.44"/><path class="cls-25" d="m445.42,238.8l-30.64-51.88"/><path class="cls-25" d="m360.29,222.1l51.95-30.27"/><path class="cls-25" d="m377.3,136.52l30.23,52.72"/><path class="cls-25" d="m461.8,153.93l-49.31,29.97"/><path class="cls-25" d="m453.53,232.24l-38.98-45.94"/><path class="cls-25" d="m366.8,230.18l46.08-38.63"/><path class="cls-25" d="m369.09,142.96l38.71,46.85"/><path class="cls-25" d="m455.31,145.82l-43.53,37.88"/><path class="cls-6" d="m410.47,255.91c87.28,1.27,87.28-135.83,0-134.54-87.28-1.27-87.28,135.83,0,134.54Z"/><path class="cls-10" d="m410.47,251.55c81.63,1.19,81.63-127.03,0-125.82-81.62-1.19-81.62,127.02,0,125.82Z"/><path class="cls-13" d="m410.47,254.17c85.02,1.24,85.03-132.32,0-131.06-85.02-1.24-85.02,132.32,0,131.06Z"/><path class="cls-34" d="m410.47,193.37c6.14.09,6.14-9.56,0-9.47-6.14-.09-6.14,9.56,0,9.47Z"/><path class="cls-25" d="m376,238.56l31.07-51.62"/><path class="cls-25" d="m461.27,222.55l-51.7-30.7"/><path class="cls-25" d="m444.95,136.84l-30.65,52.47"/><path class="cls-25" d="m360.32,153.56l49.07,30.37"/><path class="cls-25" d="m206.28,249.34l5.49-60"/><path class="cls-25" d="m147.01,185.99l59.84,5.83"/><path class="cls-25" d="m210.85,126.53l-6.32,60.44"/><path class="cls-25" d="m269.21,190.07l-57.53-4.53"/><path class="cls-25" d="m183.52,244.31l20.57-56.63"/><path class="cls-25" d="m264.12,212.22l-56.63-20.2"/><path class="cls-25" d="m231.65,131.24l-20.01,57.38"/><path class="cls-25" d="m151.81,163.89l53.99,20.39"/><path class="cls-25" d="m193.65,247.68l10.49-59.33"/><path class="cls-25" d="m267.5,202.15l-59.27-10.11"/><path class="cls-25" d="m221.53,128l-9.8,59.98"/><path class="cls-25" d="m148.53,173.95l56.7,10.76"/><path class="cls-25" d="m216.7,248.76l-4.74-60.06"/><path class="cls-25" d="m147.56,196.36l59.96-4.38"/><path class="cls-25" d="m200.43,126.95l4,60.64"/><path class="cls-25" d="m268.69,179.7l-57.47,5.27"/><path class="cls-25" d="m221.13,248.04l-16.43-57.97"/><path class="cls-25" d="m267.74,174.86l-57.75,16.74"/><path class="cls-25" d="m194.04,128.17l17.34,58.25"/><path class="cls-25" d="m148.38,201.36l55.71-15.04"/><path class="cls-25" d="m231.32,244.85l-26.2-54.26"/><path class="cls-25" d="m264.59,164.73l-53.99,26.46"/><path class="cls-25" d="m183.94,131.46l27.13,54.38"/><path class="cls-25" d="m151.6,211.44l52.28-24.44"/><path class="cls-25" d="m242.54,238.8l-30.65-51.88"/><path class="cls-25" d="m157.41,222.1l51.94-30.27"/><path class="cls-25" d="m174.42,136.52l30.23,52.72"/><path class="cls-25" d="m258.91,153.93l-49.31,29.97"/><path class="cls-25" d="m250.65,232.24l-38.98-45.94"/><path class="cls-25" d="m163.92,230.18l46.07-38.62"/><path class="cls-25" d="m166.21,142.96l38.71,46.85"/><path class="cls-25" d="m252.43,145.82l-43.53,37.88"/><path class="cls-6" d="m207.59,255.91c87.28,1.27,87.28-135.83,0-134.54-87.28-1.27-87.28,135.83,0,134.54Z"/><path class="cls-10" d="m207.59,251.55c81.63,1.19,81.63-127.02,0-125.82-81.62-1.19-81.62,127.02,0,125.82Z"/><path class="cls-13" d="m207.59,254.17c85.03,1.24,85.03-132.32,0-131.06-85.02-1.24-85.02,132.32,0,131.06Z"/><path class="cls-34" d="m207.59,193.37c6.14.09,6.14-9.56,0-9.47-6.14-.09-6.14,9.56,0,9.47Z"/><path class="cls-25" d="m173.12,238.56l31.07-51.62"/><path class="cls-25" d="m258.38,222.55l-51.7-30.7"/><path class="cls-25" d="m242.07,136.84l-30.65,52.47"/><path class="cls-25" d="m157.44,153.56l49.07,30.37"/><path class="cls-38" d="m253.76,72.14c-1.82-5.27,3.06-3.94,4.3-.53,0,0-4.3.53-4.3.53Z"/><path class="cls-3" d="m313.19,202.38c-7.64,40.7-66.2,16.35-110.35,16.77-4.32-6.04,10.41-9.55,6.36-15.41-45.24-40.45,76.42-19.51,81.96-23.38,12.17,0,22.03,9.86,22.03,22.03Z"/><path class="cls-18" d="m313.19,202.38c-7.63,40.42-65,16.78-108.94,16.67-6.34-5.94,9.12-9.53,4.95-15.32-43.82-40.57,76.57-19.65,81.96-23.38,12.17,0,22.03,9.86,22.03,22.03Z"/><path class="cls-24" d="m418.37,73.85c-17.78-56.4-40.93,9.57-68.2,18.82-28.02,6.62-94.3-20.55-105.98,25.49"/><path class="cls-31" d="m409.56,81.12c6.31.97,6.87-4.67,8.61-8.01,2.53-.84,3.61,3.84,2.74,5.01,3.78,2.94,7.21,18.71,4.54,24.03.4,1.73.6,4.47-.26,2.74-2.06-3.84,2.12-17.46-5.41-18.82-7.16,1.69-6.04,8.75-10.21-4.94Z"/><path d="m381.49,116.15c-5.52,8.99,17.93,61.81,28.2,73.49,7.3.59-9.61-16.79-8.13-19.87-3.71-7.24-15.46-53.2-20.07-53.61Z"/><path class="cls-31" d="m373.42,85.09c-4.93-9.94,4.04-7.62,9.49-7.74,3.3,3.65,5.84-1.96,4.34-4.58-2.78.31-15.84.32-18.97.05-4.59-.55-.14,17.39,5.14,12.27Z"/><path class="cls-31" d="m257.52,87.21c-.47-2.67-4.37-13.55-3.73-15.71,2.46-.54,4.24-1.32,5.14,1.56-.25,4.02,8.77,16.44-1.42,14.16Z"/><path class="cls-12" d="m256.46,71.58l4.6,14.48"/><path class="cls-17" d="m207.57,198.15c12.07.18,12.07-18.78,0-18.61-12.07-.18-12.07,18.78,0,18.61Z"/><path class="cls-2" d="m207.57,197.6c11.35.17,11.35-17.67,0-17.5-11.35-.17-11.35,17.67,0,17.5Z"/><path class="cls-15" d="m210.28,187.57l80.62,14.95"/><path class="cls-36" d="m208.41,187.3l54.46-91.83-54.46,91.83Z"/><path class="cls-15" d="m208.41,187.3l54.46-91.83"/><path class="cls-36" d="m260,86.38c-9.3-3.92,30.02,116.08,27.83,116.95,1.09,4.09,7.22,2.46,6.14-1.63-2.49-.03-27.53-123.12-33.96-115.32Z"/><path class="cls-36" d="m376.69,109.38l-85.79,93.14,85.79-93.14Z"/><path class="cls-11" d="m376.69,109.38l-85.79,93.14"/><path class="cls-36" d="m371.25,96.8l-107.85-.53,107.85.53Z"/><path class="cls-8" d="m371.25,96.8l-107.85-.53"/><path class="cls-36" d="m373.17,90.7c-8.04-1.47,4.32,21.77,3.3,24.31,11.59,13.76,1.61-29.32-3.3-24.31Z"/><path class="cls-9" d="m375.7,88.24l-6.85,1.81c-.22.32,7.19-1.63,6.85-1.81Z"/><path class="cls-33" d="m228.45,55.07c9.1,26.44,40.98,4.31,56.58,10.33,1.3-10.07-11.5-7.59-29.68-9.2-18.34,1.21-24.88-8.29-26.9-1.13Z"/><path class="cls-27" d="m207.59,191.97c4.32.06,4.32-6.73,0-6.66-4.32-.06-4.32,6.73,0,6.66Z"/><path class="cls-14" d="m291.57,219.33c22.17.32,22.17-34.5,0-34.17-22.17-.32-22.17,34.5,0,34.17Z"/><path class="cls-5" d="m291.57,218.56c21.16.31,21.16-32.93,0-32.62-21.16-.31-21.16,32.93,0,32.62Z"/><path class="cls-9" d="m383.81,116.37l-6.85,1.81c-.22.32,7.19-1.64,6.85-1.81Z"/><path class="cls-35" d="m420.3,83.66c1.47.02,1.47-2.29,0-2.27-1.47-.02-1.47,2.29,0,2.27Z"/><path class="cls-12" d="m370.55,85.6l-2.95-10.63"/><path class="cls-32" d="m367.48,74.7c.89.78,18.17-1.89,15.78,1.82-4.47.07-12.34,1.42-15.78-1.82Z"/><path class="cls-34" d="m374.58,84.59c-1.16.87-8.53.65-6.07,3.65,1.16-.87,8.53-.65,6.07-3.65Z"/><path class="cls-20" d="m243.24,119.19c-.57-1.41-5.87,10.38-6.15,10.27.06.13,6.12-10.29,6.15-10.27Z"/><path class="cls-20" d="m243.05,122.35c-1.25.65,4.6,2.37,4.61,2.66.13-.05-4.63-2.63-4.61-2.66Z"/><path class="cls-24" d="m418.37,73.85c-9.22-44.17-49.03-26.77-32.7,38.44"/><path class="cls-34" d="m276.18,91.65h-5.73c-2.69,2.25,8.41,2.25,5.73,0Z"/><path class="cls-34" d="m309.41,91.65c-.71.41-7.11-1.09-6.03,1.19.27.42,8.47,1.14,6.03-1.19Z"/><path class="cls-34" d="m348.79,91.65h-5.73c-2.69,2.25,8.41,2.25,5.73,0Z"/><path class="cls-21" d="m385.88,113.92c.86-1.26,3.49,11.4,3.79,11.36-.08.12-3.75-11.37-3.79-11.36Z"/><path class="cls-22" d="m309.22,213.08c-16.39-7.23-15.91-8.42-22.61,8.73,1.79-17.57,2.47-17.32-15.29-18.81,0,0,15.9-3.85,15.9-3.85l-2.73-16.5c8.56,16.53,7.92,15.26,23.43,6.23-12.75,13.42-12.86,12.34,1.31,24.21Z"/><path class="cls-4" d="m291.57,224c28.21.41,28.21-43.91,0-43.49-28.21-.41-28.21,43.91,0,43.49Z"/><path class="cls-7" d="m291.57,223.01c26.93.39,26.93-41.91,0-41.51-26.93-.39-26.93,41.91,0,41.51Z"/><path class="cls-16" d="m206.43,209.88c4.94.07,4.94-7.69,0-7.62-4.94-.07-4.94,7.69,0,7.62Z"/><path class="cls-1" d="m206.43,209.65c4.65.07,4.65-7.23,0-7.17-4.65-.07-4.65,7.23,0,7.17Z"/><path class="cls-16" d="m205.5,220.02c4.94.07,4.94-7.69,0-7.62-4.94-.07-4.94,7.69,0,7.62Z"/><path class="cls-1" d="m205.5,219.79c4.65.07,4.65-7.23,0-7.17-4.65-.07-4.65,7.23,0,7.17Z"/><path class="cls-33" d="m386.7,73.15c-9.29,9.67,24.59,5.02,22.39,18.2.63,13.61-33.07,8.04-23.71,18.58,31.86-3.16,43.28-31.26,1.32-36.78Z"/><path class="cls-35" d="m291.74,207.4c-19.7-14.12,29.67-6.21,30.1-6.23.13.42-.44,4.47.54,3.96-.38-.29-30.62,3.24-30.64,2.27Z"/><path class="cls-19" d="m334.67,199.76l-19.15,1.88c-4,9.35,16.79,1.99,19.92,3.05.54.02-.37-5.08-.76-4.94Z"/><path class="cls-38" d="m325.47,205.79c3.2.05,3.2-5.12,0-5.07-3.2-.05-3.2,5.12,0,5.07Z"/><path class="cls-29" d="m291.97,206.32c4.05.06,4.05-6.47,0-6.41-4.05-.06-4.05,6.47,0,6.41Z"/><line class="cls-26" x1="205.53" y1="192.14" x2="115.78" y2="141.44"/><line class="cls-26" x1="203.82" y1="210.81" x2="106.49" y2="167.68"/><path class="cls-37" d="m253.61,52.9c7.2-.09,7.2,10.33,0,10.24-7.2.09-7.2-10.33,0-10.24Z"/><path class="cls-37" d="m237.43,114.33c6.64-.1,6.64,10.34,0,10.24-6.64.1-6.64-10.34,0-10.24Z"/><path class="cls-37" d="m389.85,50.54c7.2-.09,7.2,10.33,0,10.24-7.2.09-7.2-10.33,0-10.24Z"/><path class="cls-37" d="m389.02,71.8c6.13-.1,6.13,10.34,0,10.24-6.13.1-6.13-10.34,0-10.24Z"/><path class="cls-37" d="m409.89,92.28c6.64-.1,6.64,10.34,0,10.24-6.64.1-6.64-10.34,0-10.24Z"/><path class="cls-37" d="m332.72,145.83c6.64-.1,6.64,10.34,0,10.24-6.64.1-6.64-10.34,0-10.24Z"/><path class="cls-37" d="m478.01,175.75c6.13-.1,6.13,10.34,0,10.24-6.13.1-6.13-10.34,0-10.24Z"/><path class="cls-37" d="m441.82,213.55c7.2-.09,7.2,10.33,0,10.24-7.2.09-7.2-10.33,0-10.24Z"/><path class="cls-37" d="m315.39,198.59c6.64-.1,6.64,10.34,0,10.24-6.64.1-6.64-10.34,0-10.24Z"/><path class="cls-37" d="m205.93,189.14c6.64-.1,6.64,10.34,0,10.24-6.64.1-6.64-10.34,0-10.24Z"/><path class="cls-37" d="m203.99,204.1c7.2-.09,7.2,10.33,0,10.24-7.2.09-7.2-10.33,0-10.24Z"/><path class="cls-37" d="m283.89,199.38c6.64-.1,6.64,10.34,0,10.24-6.64.1-6.64-10.34,0-10.24Z"/><path class="cls-30" d="m719.65,287.64c-25.12,53.2-36.12-8.88-44.55,5.54,3.07,7.02,26.07,21.45,28.19,39.94,7.76-2.1-2.64-15.94-.17-18.38,1.07.3,21.93-14.45,16.53-27.1Z"/><path class="cls-28" d="m703.67,331.82c-3.91-7.72-4.31-13.77-4.31-17.76-13.11-5.44-23.24-20.85-23.46-21.38,1.92-7.8,9.75,14.18,24.94,18.96,10.04.08,14.46-24.1,19.54-21.37-4.44,17.29-14.47,20.99-18.22,24.48-2.24,1.63,6.04,14.15,1.5,17.07Z"/><path class="cls-28" d="m703.3,333.48c-2.42-17.51-25.38-33.63-28.5-40.11,2.54-13.7,9.94,11.34,26.04,16.84,9.77.83,15.19-30.83,20.81-19.61-6.83,27.54-26.32,16.72-13.97,40.01.43.66-4.15,2.61-4.38,2.86Zm-26.21-43.54c-6.78,8.51,26.06,22.36,26.34,42.7,0,0,3.46-1.98,3.46-1.98-12.31-24,6.96-12.37,14.07-40.23.7-2.47-3.2-3.55-3.85-1.04-10.04,37.22-31.03,11.64-40.03.55Z"/><path class="cls-30" d="m699.34,309.66c-2.36,6.01-2.04,7.64,4.42,5.89-.82-1.58-1.26-8.13-4.42-5.89Z"/><path class="cls-28" d="m703.44,316.34c-7.07.82-6.54-.99-4.44-6.78,2.96-3.33,6.08,5.66,4.44,6.78Zm-5.48-.71h5.47c-1.59-7.51-4.02-7.67-5.47,0Z"/><path class="cls-30" d="m699.59,296.51c-26.99,57.09-39.19-10.27-47.58,5.92,3.28,7.5,27.84,22.91,30.11,42.66,8.29-2.24-2.82-17.02-.18-19.63,1.14.32,23.42-15.43,17.65-28.94Z"/><path class="cls-28" d="m682.51,343.78c-4.2-8.25-4.64-14.78-4.64-19.01-14.03-5.84-24.8-22.27-25.05-22.84,2.11-8.64,10.39,15,26.69,20.14,10.45.37,16.18-27.08,20.93-22.74-4.75,18.4-15.43,22.51-19.45,26.12-2.42,1.76,6.6,15.3,1.51,18.32Z"/><path class="cls-28" d="m682.13,345.44c-2.55-18.74-27.1-35.88-30.41-42.82,2.72-14.53,10.6,12.16,27.79,18.03,10.44.89,16.21-32.83,22.2-20.98-7.31,29.44-28.11,17.83-14.91,42.75.45.65-4.44,2.77-4.66,3.02Zm-27.99-46.5c-7.83,8.47,27.57,23.61,28.12,45.65,0,0,3.74-2.14,3.74-2.14-13.16-25.63,7.42-13.21,15.02-42.96.76-2.67-3.46-3.84-4.15-1.12-10.73,39.76-33.1,12.37-42.73.57Z"/><path class="cls-30" d="m731.6,280.53c-10.45-51.2-115.85-41.86-85.69,21.21,9.62,14.89,7.43-3.84,18.74-1.05,19.54,7.81,21.35,1.03,45.99-.36,26.35-2.92,19.72-9.05,20.95-19.79Z"/><path class="cls-28" d="m652.57,308.65c-30.96-32.12,3.03-74.48,47.67-59.53,28,4.48,50.33,52.18,10.41,51.57-18.07-.6-19.15,4.58-27.99,4.95-9.89-2.46-24.89-9.37-30.09,3.02Zm-6.34-7.1c9.24,14.41,7.18-4.3,18.52-1.21,3.15.18,19.43,6.46,22.18,4.02,8.37-6.89,52.52,1,44.32-23.78-14.64-54.74-113.72-37.69-85.02,20.97Z"/><path class="cls-28" d="m650.8,301.45c-.37.21-9.2-6.45-6.53-6.88,7.42,12.2,5.64-1.96,19.29.27,18.23,11.85,64.84-6.72,21.47-1.81-8.74,1.18-28.18-11.63-35.16-2.21.68,1.26-9.27-3.45-7.23-6.01,8.53,10.82,19.1-4.26,33.53,6.03,7.78,3.51,29.69-3.31,30.7,4.74-22.39,10.74-48.67-8.03-56.06,5.87Z"/><path class="cls-28" d="m681.3,290.82c-18.43-17.44-36.92,1.25-39.65-12.3,5.92,11.3,22.76-4.47,38.47,10.71-11.25-23.01-33.98-1.58-37.28-20.26,4.92,16.99,28.78-3.44,38.46,21.85Z"/><path class="cls-28" d="m684.89,289.1c-18.85-15.61,15.91-8.33,18.37-.6-3.63-.48-13.49-.28-18.37.6Zm-5.72-8.46c3.85,11.02,9.84,6.69,18.5,6.66,11.34,1.77-8.6-8.65-18.5-6.66Z"/><path class="cls-28" d="m703.14,276.07c-10.73-7.68-48.32-5.79-54.51-18.05,10.78,11.95,37.83,8.29,53.31,16.93.36-5.2-32.58-15.8-32.45-18.38,10.87-1.85,41.93,7.64,49.81,16.72,4.36-10.29-23.03-21.92-23.1-24.01.09.31,8.35-.38,6.27.98-12.21-2.16,24.61,13.74,17.48,23.79-5.83-6.42-38.3-18.73-49.55-17.14,3.28,1.95,37.54,15.81,32.75,19.17Z"/><path class="cls-28" d="m724.61,268.95c-.28.27-2.36-5.96-.76-4.42.38,4.62,3.42.97.76,4.42Z"/><path class="cls-28" d="m709.23,287.56c7.09-.08,15.37-1.62,20.59-6.83-4.38,6.28-13.41,8.09-20.59,6.83Z"/><path class="cls-28" d="m709.23,289.19c7.09-.09,15.37-1.62,20.59-6.83-4.38,6.28-13.41,8.09-20.59,6.83Z"/><path class="cls-28" d="m709.23,290.83c7.09-.09,15.37-1.62,20.59-6.83-4.38,6.28-13.41,8.09-20.59,6.83Z"/><path class="cls-28" d="m709.23,292.46c7.09-.09,15.37-1.62,20.59-6.83-4.38,6.28-13.41,8.09-20.59,6.83Z"/><path class="cls-28" d="m709.23,294.09c7.09-.09,15.37-1.62,20.59-6.83-4.38,6.28-13.41,8.09-20.59,6.83Z"/><path class="cls-28" d="m709.23,295.73c7.09-.09,15.37-1.62,20.59-6.83-4.38,6.28-13.41,8.09-20.59,6.83Z"/><path class="cls-28" d="m709.23,297.36c7.09-.09,15.37-1.62,20.59-6.83-4.38,6.28-13.41,8.09-20.59,6.83Z"/><path class="cls-28" d="m649.95,258.34c11.06,10.03,38.53,8.41,50.53,15.71-3.65-6.39-54.3-22.08-20.65-17.61,14.62,2.15,29.15,7.3,38.87,15.42-8.06-25.88-50.49-30.79-68.76-13.52Z"/><path class="cls-28" d="m680.36,281.4c2.13,9.33,12.87,4.06,19.47,5.33-.42-2.43-17.5-6.57-19.47-5.33Z"/><path class="cls-28" d="m643.73,288.57c.18,4.6,1.9,8.45,6.75,11.21,0,0,2.82-6.32,8.58-6.28,17.85,5.04,26.5,6.83,44.27.74-7.52-4.34-26.83,1.68-36.69-5.13-12.6-5.16-14.25,7.22-22.9-.53Z"/><path class="cls-28" d="m648.88,260.54c-1.54,2.69-3.88,5.31-4.24,8.49,1.35-2.14,3.06-6.08,4.24-8.49Z"/><path class="cls-28" d="m648.35,264.07c-1.45,2.09-2.51,4.64-2.83,7.17,1.01-1.52,1.81-5.24,2.83-7.17Z"/><path class="cls-28" d="m647.51,273c-.89-1.69-.28-3.88-.24-5.14-.78,1.14-1.24,5.25.24,5.14Z"/><path class="cls-28" d="m649.49,274.88c-1.1-1.21-1.13-3.83-1.76-4.5-.12,1.2.55,4.94,1.76,4.5Z"/><line class="cls-26" x1="708.89" y1="262.73" x2="722.88" y2="233.59"/><path class="cls-37" d="m708.36,256.86c6.64-.1,6.64,10.34,0,10.24-6.64.1-6.64-10.34,0-10.24Z"/></g></svg>