<?xml version="1.0" encoding="UTF-8"?>
<svg id="Livello_2" data-name="Livello 2" xmlns="http://www.w3.org/2000/svg" viewBox="0 0 335.06 334.66">
  <defs>
    <style>
      .cls-1 {
        fill: #fff;
      }

      .cls-2 {
        fill: #6d0000;
      }
    </style>
  </defs>
  <g id="Livello_1-2" data-name="Livello 1">
    <g>
      <path class="cls-1" d="m125.2,259.77c.62.54,1.23,1.07,1.84,1.61,2.62,2.33,5.25,4.66,7.87,6.99.12.11.19.26.29.39h-10c0-3,0-6,0-9Z"/>
      <g>
        <path class="cls-2" d="m96.46,99.53c9.06,0,18.1-.59,27.03.16,9.92.82,19.93,2.12,29.57,4.54,14.55,3.65,25.1,17.87,25.28,32.3.19,15.55-9.5,29.71-24.78,33.4-6.87,1.66-14.78.93-21.85-.52-17.32-3.54-34.26-3.18-51.06,2.17-3.05.97-6.27,2.27-8.59,4.34-1.54,1.39-2.59,4.61-2.18,6.68,2.93,14.96,8.48,28.88,17.01,41.63,11.06,16.54,7.1,33.03-2.53,43.48-14.41,15.65-39.79,14.36-52.54-2.81C15.05,242.3,5.2,216.89,1.49,188.96c-4.41-33.21,1.03-64.78,15.12-94.95,10.25-21.94,26.37-39.27,44.13-55.27C83.05,18.66,109.4,7.36,138.76,2.46c23.57-3.94,46.93-3.24,70.08,2.77,24.26,6.3,34.85,32.36,21.5,52.77-6.71,10.26-21.35,16.78-33.39,14.31-17.21-3.53-34.32-5.35-51.76-1.37-18.98,4.33-34.38,14.63-48.35,27.59-.28.26-.3.78-.38,1Zm-34.88,83.34c-3.05,3.15-6.57,6.29-9.5,9.9-10.92,13.41-15.93,29.25-18.77,46.03-1.39,8.21-1.28,15.46,4.88,22.31,10.23,11.37,26.63,13.49,38.53,4.07,10.79-8.54,12.48-25.16,4.12-37.15-3.41-4.9-6.76-10.03-8.99-15.52-3.78-9.31-6.65-19-10.28-29.64Z"/>
        <path class="cls-2" d="m238.93,235.06c-8.51,0-16.07.59-23.49-.14-11.14-1.09-22.35-2.45-33.26-4.88-13.96-3.12-24.44-16.71-24.83-30.45-.48-16.76,8.42-30.57,23.13-35.12,8-2.47,16.13-1.54,24.2.42,17.85,4.34,35.39,3.85,52.37-3.87,9.31-4.23,9.18-4.2,6.82-14.21-3.12-13.2-8.56-25.26-15.97-36.63-12.71-19.49-6.02-42.93,15.37-52.02,12.91-5.49,26.95-2.91,37.12,8.47,13.7,15.33,22.47,33.52,27.83,53.2,12.77,46.87,8.02,91.84-17.28,133.64-26.41,43.64-65.8,68.92-115.53,78.63-23.11,4.51-45.99,2.74-68.65-2.88-19.53-4.84-30.85-21.57-27.33-39.87,3.52-18.3,21.35-30.53,39.84-27.36,6.82,1.17,13.61,2.7,20.48,3.26,27.16,2.23,50.92-6.29,71.72-23.6,2.42-2.02,4.73-4.18,7.45-6.59Zm34.16-82.97c18.72-18.32,27.65-37.37,29.49-62.13.86-11.57-7.88-23.37-19.42-26.21-11.05-2.72-22.73,1.35-29.21,10.17-6.59,8.97-7.01,20.24-.31,30.24,7.28,10.87,12.36,22.64,16.1,35.07,1.22,4.07,2.15,8.22,3.35,12.87Z"/>
        <path class="cls-1" d="m61.57,182.87c3.63,10.65,6.5,20.33,10.28,29.64,2.23,5.49,5.57,10.62,8.99,15.52,8.36,11.99,6.66,28.61-4.12,37.15-11.91,9.42-28.3,7.3-38.53-4.07-6.16-6.85-6.27-14.1-4.88-22.31,2.84-16.78,7.86-32.63,18.77-46.03,2.94-3.61,6.45-6.75,9.5-9.9Z"/>
        <path class="cls-1" d="m273.09,152.09c-1.2-4.65-2.12-8.81-3.35-12.87-3.73-12.43-8.82-24.2-16.1-35.07-6.7-10-6.28-21.26.31-30.24,6.48-8.82,18.16-12.89,29.21-10.17,11.54,2.84,20.28,14.63,19.42,26.21-1.84,24.76-10.77,43.81-29.49,62.13Z"/>
      </g>
    </g>
  </g>
</svg>