<?xml version="1.0" encoding="UTF-8"?>
<svg id="Livello_2" data-name="Livello 2" xmlns="http://www.w3.org/2000/svg" viewBox="0 0 163.76 86.77">
  <defs>
    <style>
      .cls-1 {
        fill: #fff;
      }

      .cls-2 {
        fill: #523333;
      }

      .cls-3 {
        fill: #f5ead9;
      }
    </style>
  </defs>
  <g id="OBJECTS">
    <g>
      <g>
        <g>
          <path class="cls-1" d="m92.91,65.76c-1.03-3.71-3.44-6.76-6.6-8.6-.18-.11-.37-.21-.55-.31-.18-.09-.36-.18-.55-.27-.53-.25-1.07-.46-1.63-.64-.5-.16-1.01-.3-1.54-.4-.2-.04-.39-.08-.59-.11l-1.56-.24-12.08-1.89-1.44-.22-.77-.12-2.22-.35h-.06s0,0,0,0l-.08.53-.03.2-.05.33-.12.75c-.11.71-.15,1.43-.11,2.12,0,.17.02.35.04.52.02.17.04.35.07.52.17,1.12.52,2.18,1.03,3.16.09.17.18.33.28.5.1.17.21.33.32.5,1.48,2.18,3.79,3.76,6.57,4.19l.13.02c2.15.34,3.91,1.91,4.51,4.05l4.57,16.23h18.19l-5.72-20.48Zm-16.54,4.11c-.65-2.32-2.59-4.06-4.93-4.43l-.13-.02c-1.75-.27-3.36-1.04-4.66-2.2l3.51-.3c.14-.01.27-.08.36-.18.09-.11.13-.24.12-.38l-.02-.28.26-.02c.29-.02.5-.28.47-.56l-.03-.38,4.98-.47.02.24c.02.27.25.48.52.48h.13s.02.27.02.27c.02.28.25.48.52.48.02,0,.03,0,.05,0l3.66-.31c.14-.01.27-.08.36-.18.09-.11.13-.24.12-.38l-.02-.28.26-.02c.14-.01.27-.08.36-.18.09-.1.13-.24.12-.38l-.02-.29,2.18-.21c1.06-.1,1.85-1.01,1.82-2.06,2.88,1.79,5.08,4.66,6.04,8.09l5.53,19.82h-17.1l-4.47-15.85Z"/>
          <path class="cls-2" d="m99.13,86.1l-5.71-20.48c-1.1-3.95-3.74-7.19-7.16-9.08-.18-.1-.37-.2-.55-.29-.18-.09-.37-.18-.55-.26-.11-.05-.22-.1-.33-.14-.39-.16-.78-.31-1.18-.43-.51-.16-1.03-.3-1.56-.4-.18-.04-.36-.07-.54-.1l-11.48-1.79-1.5-.23-.71-.11-2.23-.35-1.39-.22-.2-.03-.62-.1c-.2-.03-.39.06-.5.21,0,.01-.01.02-.02.03-.04.06-.06.12-.07.19l-.02.14-.08.53-.03.21-.05.32-.1.63c-.12.75-.16,1.5-.12,2.24,0,.17.02.35.04.52.02.17.04.35.06.52.17,1.1.5,2.17,1,3.17.08.17.17.33.27.5.09.17.19.33.3.5.09.15.19.3.29.44,1.63,2.29,4.04,3.79,6.78,4.22l.13.02c1.94.3,3.54,1.74,4.09,3.67l4.57,16.23c.06.23.27.38.5.38h18.19c.16,0,.32-.08.41-.21.1-.13.13-.3.09-.46Zm-18.29-.38l-4.47-15.85c-.65-2.32-2.59-4.06-4.93-4.43l-.13-.02c-1.75-.27-3.36-1.04-4.66-2.2-.26-.23-.51-.47-.74-.73h0s0,0,0,0c-.23-.25-.44-.52-.64-.8-.01-.01-.02-.03-.03-.05,0,0,0,0,0-.01-.1-.14-.2-.29-.29-.44-.1-.16-.2-.33-.3-.5-.54-.98-.9-2.05-1.07-3.15-.03-.17-.05-.35-.07-.52-.02-.17-.03-.35-.04-.52-.03-.66,0-1.33.11-2l.14-.88.05-.33.02-.1.42.07,1.38.22,12.08,1.89,2.21.35,1.51.24c.21.03.43.07.63.12,1.14.23,2.24.62,3.26,1.13.19.09.37.19.55.29.19.1.37.21.55.32,2.88,1.79,5.08,4.66,6.04,8.09l5.53,19.82h-17.1Z"/>
          <path class="cls-2" d="m97.94,85.72h-17.1l-4.47-15.85c-.65-2.32-2.59-4.06-4.93-4.43l-.13-.02c-1.75-.27-3.36-1.04-4.66-2.2l3.51-.3c.14-.01.27-.08.36-.18.09-.11.13-.24.12-.38l-.02-.28.26-.02c.29-.02.5-.28.47-.56l-.03-.38,4.98-.47.02.24c.02.27.25.48.52.48h.13s.02.27.02.27c.02.28.25.48.52.48.02,0,.03,0,.05,0l3.66-.31c.14-.01.27-.08.36-.18.09-.11.13-.24.12-.38l-.02-.28.26-.02c.14-.01.27-.08.36-.18.09-.1.13-.24.12-.38l-.02-.29,2.18-.21c1.06-.1,1.85-1.01,1.82-2.06,2.88,1.79,5.08,4.66,6.04,8.09l5.53,19.82Z"/>
        </g>
        <g>
          <g>
            <rect class="cls-1" x="77.45" y="60.26" width="3.67" height="1.18" transform="translate(-4.89 6.96) rotate(-4.88)"/>
            <path class="cls-2" d="m81.66,60.96l-.05-.52-.02-.28v-.09c-.02-.18-.12-.32-.26-.41-.01-.01-.03-.02-.05-.02-.08-.03-.17-.05-.26-.05l-3.66.31s-.05,0-.08.01c-.1.02-.18.07-.25.15l-.02.02c-.09.11-.13.24-.12.38v.14s.03.24.03.24l.05.52.02.27c.02.28.25.48.52.48.02,0,.03,0,.05,0l3.66-.31c.14-.01.27-.08.36-.18.09-.11.13-.24.12-.38l-.02-.28Zm-1.07-.29v.13s-2.61.22-2.61.22v-.13s2.61-.22,2.61-.22Z"/>
          </g>
          <g>
            <rect class="cls-1" x="76.75" y="59.02" width="5.06" height="1.62" transform="translate(-4.8 6.96) rotate(-4.88)"/>
            <path class="cls-2" d="m82.37,60.09l-.05-.52-.05-.52-.02-.28c-.02-.29-.28-.51-.56-.48l-5.04.43c-.14.01-.27.08-.36.18-.09.1-.13.24-.12.38l.03.34.05.52.05.52.02.24c.02.27.25.48.52.48h.13s.52-.05.52-.05l3.66-.31.52-.05.26-.02c.14-.01.27-.08.36-.18.09-.1.13-.24.12-.38l-.02-.29Zm-1.06-.14l-4,.34-.02-.25v-.12s-.03-.21-.03-.21l4-.34.02.27v.03s.03.28.03.28Z"/>
          </g>
        </g>
        <g>
          <g>
            <rect class="cls-1" x="66.39" y="61.39" width="3.67" height="1.18" transform="translate(-5.02 6.02) rotate(-4.88)"/>
            <path class="cls-2" d="m70.61,62.09l-.05-.52-.03-.37h0c-.02-.2-.14-.36-.3-.44-.05-.02-.1-.04-.16-.04-.03,0-.07,0-.1,0l-3.66.31s-.06,0-.08.01c-.05.01-.08.02-.12.05-.06.03-.11.07-.15.12-.09.11-.13.24-.12.38v.05s.03.33.03.33l.05.52h0s.02.27.02.27c.02.28.25.48.52.48.02,0,.03,0,.05,0h.15s3.51-.31,3.51-.31c.14-.01.27-.08.36-.18.09-.11.13-.24.12-.38l-.02-.28Zm-1.07-.29v.13s-2.61.22-2.61.22v-.13s2.61-.22,2.61-.22Z"/>
          </g>
          <g>
            <rect class="cls-1" x="65.7" y="60.14" width="5.06" height="1.62" transform="translate(-4.93 6.02) rotate(-4.88)"/>
            <path class="cls-2" d="m71.31,61.13l-.05-.52-.04-.52-.02-.2c-.01-.14-.08-.27-.18-.36-.1-.09-.24-.13-.38-.12l-5.04.43c-.29.02-.5.28-.48.56l.02.25.05.52.04.47v.05s.03.32.03.32c.01.14.08.27.18.36.09.08.22.12.34.12h.12s0,0,0,0l.52-.05,3.66-.31.52-.05.26-.02c.29-.02.5-.28.47-.56l-.03-.38Zm-1.08-.37l.03.31-4,.34-.03-.33v-.03s-.02-.21-.02-.21l4-.34.02.2v.06Z"/>
          </g>
        </g>
        <g>
          <path class="cls-3" d="m133.92,38.98l-.04.34-.46,3.88-.06.52-.06.52-.52,4.43-.05.41s-.01.08-.02.11c-.02.18-.06.35-.1.52.18.01.36.02.53.03.97.06,1.93.12,2.87.17.18.01.35.02.53.03.02-.14.04-.28.06-.42v-.1s.07-.52.07-.52l.54-4.6.13-1.05.4-3.42.05-.4-3.86-.46Zm-.9,11.18c-.17-.02-.36-.03-.53-.05-.06.17-.13.34-.21.51h0c-.08.17-.18.34-.28.5h0c-.92,1.41-2.55,2.27-4.34,2.13l-33.45-2.58-8.42.68-.27.02-.25.02-.52.04-16.88,1.36h0l-2.23.18h0l-2.36.19-.54.04-1.99.16-.52.04-.42.03h-.1s-30.63,2.47-30.63,2.47c-1.38.11-2.71-.39-3.67-1.31-.17-.16-.33-.34-.48-.53h0c-.13-.17-.25-.35-.35-.54-.21,0-.41-.01-.61-.02-1.15-.04-2.22-.1-3.21-.17-.2-.01-.4-.03-.59-.05l.24.55.24.54h0l.16.36c1.41,3.1,4.51,5.08,7.87,5.08.23,0,.46,0,.69-.03l30.69-2.47.52-.04.52-.04h0s1.36-.11,1.36-.11l.52-.04.52-.04,16.37-1.31h0l2.18-.17,1.6-.13,1.45-.12,1.04-.08,8.07-.65,33.15,2.56c.23.02.46.03.68.03,3.68,0,6.89-2.32,8.11-5.69.06-.17.12-.33.16-.51h0c.05-.17.09-.34.13-.52-.17-.01-.35-.03-.53-.04-.93-.08-1.89-.16-2.88-.24Zm-109.44,1.28l-.25-.54-2.11-4.67-3.55,1.6,1.27,2.82.24.54h0l.24.53c.2.01.39.02.59.03.1,0,.21.01.31.01,1,.05,1.97.1,2.9.17.2.01.4.03.6.05l-.25-.55Z"/>
          <path class="cls-2" d="m23.58,51.44l-.25-.54c-.2-.02-.39-.03-.6-.05l.24.54.25.55c.2.01.4.03.6.05l-.25-.55Zm109.19-2.77l-.05.41s-.01.08-.02.11c-.17-.01-.35-.02-.52-.03,0,.05-.01.1-.03.16-.01.09-.04.19-.06.28,0,.03-.01.06-.02.08.18.01.36.02.53.03s.36.02.53.03c.04-.17.07-.34.1-.52,0-.03,0-.05.01-.08l.05-.44c-.17-.01-.35-.02-.52-.03Zm-.83,1.39c-.07.17-.15.35-.24.51-.09.17-.2.34-.32.5-.84,1.11-2.2,1.78-3.69,1.67l-33.45-2.58s-.06,0-.08,0l-8.43.68h0l-.52.04-.52.04-19.06,1.53-2.22.18h-.07s-.53.05-.53.05l-2.1.17-.53.05-.49.04h-.03s-30.64,2.46-30.64,2.46c-1.02.08-2-.21-2.79-.77-.22-.15-.43-.33-.62-.53-.16-.16-.3-.34-.43-.53-.21,0-.42-.01-.62-.02-.21,0-.41-.01-.61-.02.09.19.19.37.3.54.12.19.25.37.39.53,1.07,1.27,2.71,1.99,4.45,1.85l30.64-2.46.52-.04.52-.04,1.86-.15.54-.04h0s.54-.05.54-.05l1.87-.15,2.25-.18h0l2.23-.18h0l14.72-1.18.52-.04.52-.04,8.37-.67,33.42,2.58c2.09.16,3.98-.91,4.96-2.61.1-.16.18-.33.26-.51.07-.16.14-.33.19-.51-.17-.02-.36-.03-.53-.05-.18-.02-.36-.03-.54-.05Zm-108.36,1.38l-.25-.54c-.2-.02-.39-.03-.6-.05l.24.54.25.55c.2.01.4.03.6.05l-.25-.55Zm109.19-2.77l-.05.41s-.01.08-.02.11c-.17-.01-.35-.02-.52-.03,0,.05-.01.1-.03.16-.01.09-.04.19-.06.28,0,.03-.01.06-.02.08.18.01.36.02.53.03s.36.02.53.03c.04-.17.07-.34.1-.52,0-.03,0-.05.01-.08l.05-.44c-.17-.01-.35-.02-.52-.03Zm-.83,1.39c-.07.17-.15.35-.24.51-.09.17-.2.34-.32.5-.84,1.11-2.2,1.78-3.69,1.67l-33.45-2.58s-.06,0-.08,0l-8.43.68h0l-.52.04-.52.04-19.06,1.53-2.22.18h-.07s-.53.05-.53.05l-2.1.17-.53.05-.49.04h-.03s-30.64,2.46-30.64,2.46c-1.02.08-2-.21-2.79-.77-.22-.15-.43-.33-.62-.53-.16-.16-.3-.34-.43-.53-.21,0-.42-.01-.62-.02-.21,0-.41-.01-.61-.02.09.19.19.37.3.54.12.19.25.37.39.53,1.07,1.27,2.71,1.99,4.45,1.85l30.64-2.46.52-.04.52-.04,1.86-.15.54-.04h0s.54-.05.54-.05l1.87-.15,2.25-.18h0l2.23-.18h0l14.72-1.18.52-.04.52-.04,8.37-.67,33.42,2.58c2.09.16,3.98-.91,4.96-2.61.1-.16.18-.33.26-.51.07-.16.14-.33.19-.51-.17-.02-.36-.03-.53-.05-.18-.02-.36-.03-.54-.05Zm.83-1.39l-.05.41s-.01.08-.02.11c-.17-.01-.35-.02-.52-.03,0,.05-.01.1-.03.16-.01.09-.04.19-.06.28,0,.03-.01.06-.02.08.18.01.36.02.53.03s.36.02.53.03c.04-.17.07-.34.1-.52,0-.03,0-.05.01-.08l.05-.44c-.17-.01-.35-.02-.52-.03Zm-.83,1.39c-.07.17-.15.35-.24.51-.09.17-.2.34-.32.5-.84,1.11-2.2,1.78-3.69,1.67l-33.45-2.58s-.06,0-.08,0l-8.43.68h0l-.52.04-.52.04-19.06,1.53-2.22.18h-.07s-.53.05-.53.05l-2.1.17-.53.05-.49.04h-.03s-30.64,2.46-30.64,2.46c-1.02.08-2-.21-2.79-.77-.22-.15-.43-.33-.62-.53-.16-.16-.3-.34-.43-.53-.21,0-.42-.01-.62-.02-.21,0-.41-.01-.61-.02.09.19.19.37.3.54.12.19.25.37.39.53,1.07,1.27,2.71,1.99,4.45,1.85l30.64-2.46.52-.04.52-.04,1.86-.15.54-.04h0s.54-.05.54-.05l1.87-.15,2.25-.18h0l2.23-.18h0l14.72-1.18.52-.04.52-.04,8.37-.67,33.42,2.58c2.09.16,3.98-.91,4.96-2.61.1-.16.18-.33.26-.51.07-.16.14-.33.19-.51-.17-.02-.36-.03-.53-.05-.18-.02-.36-.03-.54-.05Zm-108.36,1.38l-.25-.54c-.2-.02-.39-.03-.6-.05l.24.54.25.55c.2.01.4.03.6.05l-.25-.55Zm109.19-2.77l-.05.41s-.01.08-.02.11c-.17-.01-.35-.02-.52-.03,0,.05-.01.1-.03.16-.01.09-.04.19-.06.28,0,.03-.01.06-.02.08.18.01.36.02.53.03s.36.02.53.03c.04-.17.07-.34.1-.52,0-.03,0-.05.01-.08l.05-.44c-.17-.01-.35-.02-.52-.03Zm-.83,1.39c-.07.17-.15.35-.24.51-.09.17-.2.34-.32.5-.84,1.11-2.2,1.78-3.69,1.67l-33.45-2.58s-.06,0-.08,0l-8.43.68h0l-.52.04-.52.04-19.06,1.53-2.22.18h-.07s-.53.05-.53.05l-2.1.17-.53.05-.49.04h-.03s-30.64,2.46-30.64,2.46c-1.02.08-2-.21-2.79-.77-.22-.15-.43-.33-.62-.53-.16-.16-.3-.34-.43-.53-.21,0-.42-.01-.62-.02-.21,0-.41-.01-.61-.02.09.19.19.37.3.54.12.19.25.37.39.53,1.07,1.27,2.71,1.99,4.45,1.85l30.64-2.46.52-.04.52-.04,1.86-.15.54-.04h0s.54-.05.54-.05l1.87-.15,2.25-.18h0l2.23-.18h0l14.72-1.18.52-.04.52-.04,8.37-.67,33.42,2.58c2.09.16,3.98-.91,4.96-2.61.1-.16.18-.33.26-.51.07-.16.14-.33.19-.51-.17-.02-.36-.03-.53-.05-.18-.02-.36-.03-.54-.05Zm4.49.38c-.17-.01-.35-.03-.53-.04-.04.17-.08.35-.14.51-.06.17-.11.34-.18.51-1.18,3.08-4.15,5.21-7.56,5.21-.21,0-.43-.01-.64-.02l-33.15-2.56s-.05,0-.08,0l-8.07.65-.52.04-.52.04-2.96.24h0l-2.18.17h0l-2.25.18h0l-14.2,1.14-.52.04-.52.04-1.37.11-1.04.08-30.68,2.46c-.22.02-.43.02-.65.02-3.18,0-6.09-1.87-7.4-4.77l-.05-.1-.24-.54-.25-.54c-.2-.01-.4-.03-.59-.05-.2-.02-.4-.03-.6-.06l.25.55.25.55.28.62c1.48,3.27,4.76,5.38,8.35,5.38.24,0,.49,0,.73-.03l30.69-2.47.52-.04.52-.04,1.38-.11.53-.05.52-.04,18.44-1.48h0l1.58-.13h0l1.23-.1.32-.02.52-.04.52-.04,8.01-.65,33.11,2.56c.24.02.48.03.72.03,3.97,0,7.4-2.55,8.65-6.17.06-.17.11-.33.16-.51.05-.17.09-.34.13-.52-.17-.01-.35-.03-.53-.05Zm-3.72-1.26c-.17-.01-.35-.02-.52-.03,0,.05-.01.1-.03.16-.01.09-.04.19-.06.28,0,.03-.01.06-.02.08.18.01.36.02.53.03.05-.17.08-.34.1-.52Zm-108.07,5.38c1.07,1.27,2.71,1.99,4.45,1.85l30.64-2.46.52-.04.52-.04,1.86-.15.54-.04h0s.54-.05.54-.05l1.87-.15,2.25-.18h0l2.23-.18h0l14.72-1.18.52-.04.52-.04,8.37-.67,33.42,2.58c2.09.16,3.98-.91,4.96-2.61.1-.16.18-.33.26-.51.07-.16.14-.33.19-.51-.17-.02-.36-.03-.53-.05-.18-.02-.36-.03-.54-.05-.07.17-.15.35-.24.51-.09.17-.2.34-.32.5-.84,1.11-2.2,1.78-3.69,1.67l-33.45-2.58s-.06,0-.08,0l-8.43.68h0l-.52.04-.52.04-19.06,1.53-2.22.18h-.07s-.53.05-.53.05l-2.1.17-.53.05-.49.04h-.03s-30.64,2.46-30.64,2.46c-1.02.08-2-.21-2.79-.77-.22-.15-.43-.33-.62-.53-.16-.16-.3-.34-.43-.53-.21,0-.42-.01-.62-.02-.21,0-.41-.01-.61-.02.09.19.19.37.3.54.12.19.25.37.39.53Zm108.14-5.9l-.05.41s-.01.08-.02.11c-.17-.01-.35-.02-.52-.03,0,.05-.01.1-.03.16-.01.09-.04.19-.06.28,0,.03-.01.06-.02.08.18.01.36.02.53.03s.36.02.53.03c.04-.17.07-.34.1-.52,0-.03,0-.05.01-.08l.05-.44c-.17-.01-.35-.02-.52-.03Zm-.83,1.39c-.07.17-.15.35-.24.51-.09.17-.2.34-.32.5-.84,1.11-2.2,1.78-3.69,1.67l-33.45-2.58s-.06,0-.08,0l-8.43.68h0l-.52.04-.52.04-19.06,1.53-2.22.18h-.07s-.53.05-.53.05l-2.1.17-.53.05-.49.04h-.03s-30.64,2.46-30.64,2.46c-1.02.08-2-.21-2.79-.77-.22-.15-.43-.33-.62-.53-.16-.16-.3-.34-.43-.53-.21,0-.42-.01-.62-.02-.21,0-.41-.01-.61-.02.09.19.19.37.3.54.12.19.25.37.39.53,1.07,1.27,2.71,1.99,4.45,1.85l30.64-2.46.52-.04.52-.04,1.86-.15.54-.04h0s.54-.05.54-.05l1.87-.15,2.25-.18h0l2.23-.18h0l14.72-1.18.52-.04.52-.04,8.37-.67,33.42,2.58c2.09.16,3.98-.91,4.96-2.61.1-.16.18-.33.26-.51.07-.16.14-.33.19-.51-.17-.02-.36-.03-.53-.05-.18-.02-.36-.03-.54-.05Zm6.25-10.95c-.09-.11-.21-.18-.35-.2l-3.87-.46c-.29-.03-.55.17-.58.46l-.04.33-.47,3.94-.06.52-.06.52-.52,4.4-.05.38s-.01.09-.02.14c0,.05-.01.1-.03.16-.01.09-.04.19-.06.28,0,.03-.01.06-.02.08.18.01.36.02.53.03s.36.02.53.03c.04-.17.07-.34.1-.52,0-.03,0-.05.01-.08l.05-.44.52-4.45.13-1.05.43-3.65,2.83.33-.4,3.36-.06.52-.06.52-.54,4.58-.06.52v.08c-.03.15-.05.3-.08.44.18.01.35.02.53.03.18.01.35.02.53.03.02-.13.04-.26.05-.39v-.13s.08-.52.08-.52l.55-4.63.06-.52.06-.52.4-3.36.05-.41c.02-.14-.02-.28-.11-.38Zm-6.25,10.95c-.07.17-.15.35-.24.51-.09.17-.2.34-.32.5-.84,1.11-2.2,1.78-3.69,1.67l-33.45-2.58s-.06,0-.08,0l-8.43.68h0l-.52.04-.52.04-19.06,1.53-2.22.18h-.07s-.53.05-.53.05l-2.1.17-.53.05-.49.04h-.03s-30.64,2.46-30.64,2.46c-1.02.08-2-.21-2.79-.77-.22-.15-.43-.33-.62-.53-.16-.16-.3-.34-.43-.53-.21,0-.42-.01-.62-.02-.21,0-.41-.01-.61-.02.09.19.19.37.3.54.12.19.25.37.39.53,1.07,1.27,2.71,1.99,4.45,1.85l30.64-2.46.52-.04.52-.04,1.86-.15.54-.04h0s.54-.05.54-.05l1.87-.15,2.25-.18h0l2.23-.18h0l14.72-1.18.52-.04.52-.04,8.37-.67,33.42,2.58c2.09.16,3.98-.91,4.96-2.61.1-.16.18-.33.26-.51.07-.16.14-.33.19-.51-.17-.02-.36-.03-.53-.05-.18-.02-.36-.03-.54-.05Zm-107.76,1.43l-.25-.55-2.24-4.94c-.06-.13-.16-.22-.29-.27-.13-.05-.28-.05-.4.01l-3.55,1.6c-.27.12-.38.43-.26.69l1.16,2.57.24.54h0l.24.54c.2.01.39.02.59.03.2.01.39.02.59.03l-.24-.54-.24-.53-1.17-2.59,2.59-1.18,1.78,3.94.24.54.25.55c.2.01.4.03.6.05h0c.18.02.38.03.59.05l-.24-.54Zm-.6-.06l-.25-.54c-.2-.02-.39-.03-.6-.05l.24.54.25.55c.2.01.4.03.6.05l-.25-.55Zm109.19-2.77l-.05.41s-.01.08-.02.11c-.17-.01-.35-.02-.52-.03,0,.05-.01.1-.03.16-.01.09-.04.19-.06.28,0,.03-.01.06-.02.08.18.01.36.02.53.03s.36.02.53.03c.04-.17.07-.34.1-.52,0-.03,0-.05.01-.08l.05-.44c-.17-.01-.35-.02-.52-.03Zm-.83,1.39c-.07.17-.15.35-.24.51-.09.17-.2.34-.32.5-.84,1.11-2.2,1.78-3.69,1.67l-33.45-2.58s-.06,0-.08,0l-8.43.68h0l-.52.04-.52.04-19.06,1.53-2.22.18h-.07s-.53.05-.53.05l-2.1.17-.53.05-.49.04h-.03s-30.64,2.46-30.64,2.46c-1.02.08-2-.21-2.79-.77-.22-.15-.43-.33-.62-.53-.16-.16-.3-.34-.43-.53-.21,0-.42-.01-.62-.02-.21,0-.41-.01-.61-.02.09.19.19.37.3.54.12.19.25.37.39.53,1.07,1.27,2.71,1.99,4.45,1.85l30.64-2.46.52-.04.52-.04,1.86-.15.54-.04h0s.54-.05.54-.05l1.87-.15,2.25-.18h0l2.23-.18h0l14.72-1.18.52-.04.52-.04,8.37-.67,33.42,2.58c2.09.16,3.98-.91,4.96-2.61.1-.16.18-.33.26-.51.07-.16.14-.33.19-.51-.17-.02-.36-.03-.53-.05-.18-.02-.36-.03-.54-.05Zm-108.36,1.38l-.25-.54c-.2-.02-.39-.03-.6-.05l.24.54.25.55c.2.01.4.03.6.05l-.25-.55Zm109.19-2.77l-.05.41s-.01.08-.02.11c-.17-.01-.35-.02-.52-.03,0,.05-.01.1-.03.16-.01.09-.04.19-.06.28,0,.03-.01.06-.02.08.18.01.36.02.53.03s.36.02.53.03c.04-.17.07-.34.1-.52,0-.03,0-.05.01-.08l.05-.44c-.17-.01-.35-.02-.52-.03Zm-.83,1.39c-.07.17-.15.35-.24.51-.09.17-.2.34-.32.5-.84,1.11-2.2,1.78-3.69,1.67l-33.45-2.58s-.06,0-.08,0l-8.43.68h0l-.52.04-.52.04-19.06,1.53-2.22.18h-.07s-.53.05-.53.05l-2.1.17-.53.05-.49.04h-.03s-30.64,2.46-30.64,2.46c-1.02.08-2-.21-2.79-.77-.22-.15-.43-.33-.62-.53-.16-.16-.3-.34-.43-.53-.21,0-.42-.01-.62-.02-.21,0-.41-.01-.61-.02.09.19.19.37.3.54.12.19.25.37.39.53,1.07,1.27,2.71,1.99,4.45,1.85l30.64-2.46.52-.04.52-.04,1.86-.15.54-.04h0s.54-.05.54-.05l1.87-.15,2.25-.18h0l2.23-.18h0l14.72-1.18.52-.04.52-.04,8.37-.67,33.42,2.58c2.09.16,3.98-.91,4.96-2.61.1-.16.18-.33.26-.51.07-.16.14-.33.19-.51-.17-.02-.36-.03-.53-.05-.18-.02-.36-.03-.54-.05Zm-108.36,1.38l-.25-.54c-.2-.02-.39-.03-.6-.05l.24.54.25.55c.2.01.4.03.6.05l-.25-.55Zm109.19-2.77l-.05.41s-.01.08-.02.11c-.17-.01-.35-.02-.52-.03,0,.05-.01.1-.03.16-.01.09-.04.19-.06.28,0,.03-.01.06-.02.08.18.01.36.02.53.03s.36.02.53.03c.04-.17.07-.34.1-.52,0-.03,0-.05.01-.08l.05-.44c-.17-.01-.35-.02-.52-.03Zm-.83,1.39c-.07.17-.15.35-.24.51-.09.17-.2.34-.32.5-.84,1.11-2.2,1.78-3.69,1.67l-33.45-2.58s-.06,0-.08,0l-8.43.68h0l-.52.04-.52.04-19.06,1.53-2.22.18h-.07s-.53.05-.53.05l-2.1.17-.53.05-.49.04h-.03s-30.64,2.46-30.64,2.46c-1.02.08-2-.21-2.79-.77-.22-.15-.43-.33-.62-.53-.16-.16-.3-.34-.43-.53-.21,0-.42-.01-.62-.02-.21,0-.41-.01-.61-.02.09.19.19.37.3.54.12.19.25.37.39.53,1.07,1.27,2.71,1.99,4.45,1.85l30.64-2.46.52-.04.52-.04,1.86-.15.54-.04h0s.54-.05.54-.05l1.87-.15,2.25-.18h0l2.23-.18h0l14.72-1.18.52-.04.52-.04,8.37-.67,33.42,2.58c2.09.16,3.98-.91,4.96-2.61.1-.16.18-.33.26-.51.07-.16.14-.33.19-.51-.17-.02-.36-.03-.53-.05-.18-.02-.36-.03-.54-.05Z"/>
        </g>
        <g>
          <rect class="cls-3" x="60.44" y="50.42" width="25.13" height="10" rx="1.49" ry="1.49" transform="translate(-4.86 7.07) rotate(-5.37)"/>
          <path class="cls-2" d="m76.77,60.09l-.05-.52-.52.05-4.98.47-.52.05.05.52.52-.05.05.52,4.98-.47.52-.05-.04-.52Zm9.59-2.39l-.05-.53-.06-.62-.07-.8-.05-.52-.05-.52-.27-2.84-.05-.52-.04-.41s0-.03,0-.05v-.07s-.02-.13-.02-.13c-.02-.19-.06-.37-.13-.53-.04-.1-.08-.2-.14-.29-.04-.07-.09-.14-.14-.21-.08-.1-.17-.21-.28-.29-.08-.07-.17-.14-.26-.19-.23-.15-.5-.24-.78-.28h-.01c-.15-.02-.31-.02-.47-.01l-.73.07h-.02l-2.33.22-1.05.1-8.37.79h-.02l-9.53.9c-.17.02-.34.05-.5.12,2.32-.11,4.66-.22,6.98-.34-1.78.18-3.54.36-5.27.54-.82.08-1.63.17-2.44.25-.05.05-.09.09-.14.15-.11.13-.2.27-.27.42-.08.17-.14.35-.16.54-.02.09-.02.19-.03.28,0,.06,0,.11,0,.16,0,.02,0,.04,0,.06h0s.03.3.03.3l.05.52.27,2.84.05.52.05.52.22,2.31c.1,1.04.96,1.82,2,1.82.06,0,.13,0,.19,0l1.58-.15.59-.06.57-.05h.03s.49-.05.49-.05h.08s.52-.06.52-.06l3.65-.35.52-.05.26-.02.52-.05,4.98-.47.52-.05h.08s.52-.06.52-.06l3.66-.35.52-.05.26-.02.52-.05,2.18-.21c1.06-.1,1.85-1.01,1.82-2.06,0-.04,0-.08,0-.13Zm-1.04.1c.05.53-.34,1-.87,1.05l-2.17.2-.52.05-5.04.47-.52.05-4.98.47-.52.05-5.04.47-.52.05-.51.05-.56.05-.56.05-1.11.1c-.54.05-1-.34-1.05-.87l-.22-2.29-.05-.52h0s-.05-.52-.05-.52l-.26-2.84-.03-.31-.02-.21-.03-.31c0-.07,0-.14,0-.21.01-.11.05-.21.1-.31,0,0,0,0,0,0,.03-.06.07-.12.11-.17.16-.2.39-.32.65-.34l21.23-2h.01l.81-.08s.06,0,.09,0c.07,0,.14,0,.21.02h0c.2.05.38.16.51.31.05.06.1.14.14.21.05.1.08.21.09.33v.12s.06.52.06.52v.07s.05.45.05.45l.27,2.84.05.52.05.52v.17s.07.6.07.6l.06.62.06.59Zm-8.55,2.29l-.05-.52-.52.05-4.98.47-.52.05.05.52.52-.05.05.52,4.98-.47.52-.05-.04-.52Z"/>
        </g>
        <path class="cls-2" d="m60.17,53.62c-.27,0-.5-.21-.52-.48-.02-.29.19-.54.48-.57l25.04-2.16c.29-.02.54.19.57.48.02.29-.19.54-.48.57l-25.04,2.16s-.03,0-.05,0Z"/>
        <g>
          <path class="cls-1" d="m76.19,50.33c-1.72.08-3.46.17-5.21.26h0c-1.01.05-2.01.1-3.03.15h-.01c-1.78.18-3.54.36-5.27.54-.82.08-1.63.17-2.44.25-5.8.6-11.22,1.14-15.58,1.43-6.14.41-11.61.62-16.25.62-1.13,0-2.21-.01-3.23-.04.13.19.27.37.43.53,4.96.1,11.32-.07,19.1-.59,4.26-.28,9.44-.8,15.14-1.38.22-.02.43-.05.65-.07h0c5.8-.6,12.11-1.27,18.53-1.84-.94.05-1.88.09-2.83.14Zm0,0c-1.72.08-3.46.17-5.21.26h0c-1.01.05-2.01.1-3.03.15h-.01c-1.78.18-3.54.36-5.27.54-.82.08-1.63.17-2.44.25-5.8.6-11.22,1.14-15.58,1.43-6.14.41-11.61.62-16.25.62-1.13,0-2.21-.01-3.23-.04.13.19.27.37.43.53,4.96.1,11.32-.07,19.1-.59,4.26-.28,9.44-.8,15.14-1.38.22-.02.43-.05.65-.07h0c5.8-.6,12.11-1.27,18.53-1.84-.94.05-1.88.09-2.83.14Zm0,0c-1.72.08-3.46.17-5.21.26h0c-1.01.05-2.01.1-3.03.15h-.01c-1.78.18-3.54.36-5.27.54-.82.08-1.63.17-2.44.25-5.8.6-11.22,1.14-15.58,1.43-6.14.41-11.61.62-16.25.62-1.13,0-2.21-.01-3.23-.04.13.19.27.37.43.53,4.96.1,11.32-.07,19.1-.59,4.26-.28,9.44-.8,15.14-1.38.22-.02.43-.05.65-.07h0c5.8-.6,12.11-1.27,18.53-1.84-.94.05-1.88.09-2.83.14Zm0,0c-1.72.08-3.46.17-5.21.26h0c-1.01.05-2.01.1-3.03.15h-.01c-1.78.18-3.54.36-5.27.54-.82.08-1.63.17-2.44.25-5.8.6-11.22,1.14-15.58,1.43-6.14.41-11.61.62-16.25.62-1.13,0-2.21-.01-3.23-.04.13.19.27.37.43.53,4.96.1,11.32-.07,19.1-.59,4.26-.28,9.44-.8,15.14-1.38.22-.02.43-.05.65-.07h0c5.8-.6,12.11-1.27,18.53-1.84-.94.05-1.88.09-2.83.14Zm45.51-1.16h0s-.04,0-.06,0c-.61-.05-1.22-.11-1.84-.16-.37-.03-.75-.07-1.13-.1-.76-.07-1.52-.14-2.29-.21-.23-.02-.47-.04-.71-.06-.22-.02-.44-.03-.67-.05-.47-.03-.95-.07-1.43-.1-.23-.02-.46-.03-.7-.04-.02,0-.03,0-.05,0h-.03c-2.37-.02-4.67,0-6.85.06-5.23.15-12.63.49-20.9.89-.36.02-.71.03-1.07.05h0c-.4.02-.79.04-1.2.06h-.02l-2.31.22c0,.05-.02.1-.05.15-.01.02-.02.05-.04.07-.01.02-.03.04-.05.06-.03.03-.06.06-.09.08-.02.01-.03.02-.05.03,1.49-.13,2.98-.26,4.48-.38.23-.02.46-.03.69-.05,9.68-.75,19.3-1.17,27.49-.72h.02c1.2.07,2.37.15,3.5.25,5.6.52,10.77.97,15.38,1.37.09-.16.17-.33.24-.51-3.16-.27-6.59-.57-10.24-.9Zm-45.51,1.16c-1.72.08-3.46.17-5.21.26h0c-1.01.05-2.01.1-3.03.15h-.01c-1.78.18-3.54.36-5.27.54-.82.08-1.63.17-2.44.25-5.8.6-11.22,1.14-15.58,1.43-6.14.41-11.61.62-16.25.62-1.13,0-2.21-.01-3.23-.04.13.19.27.37.43.53,4.96.1,11.32-.07,19.1-.59,4.26-.28,9.44-.8,15.14-1.38.22-.02.43-.05.65-.07h0c5.8-.6,12.11-1.27,18.53-1.84-.94.05-1.88.09-2.83.14Zm61.61-6.54h-.53s-.53-.01-.53-.01l-2.86-.05h-.53s-.52-.02-.52-.02l-52.76-.81h-1.05s-70.92-1.1-70.92-1.1c0,0,.96,4.14,2.59,7.33h0c.13.25.26.5.39.73.14.24.28.47.43.69.61.93,1.29,1.66,2.04,1.99,1.18.54,3.26.97,6.24,1.23.2.02.39.03.6.05.2.01.39.03.6.04,1,.07,2.09.13,3.26.16.22,0,.43.01.66.02h0c.23,0,.46.01.69.01,4.96.1,11.32-.07,19.1-.59,4.26-.28,9.44-.8,15.14-1.38.22-.02.43-.05.65-.07h0c5.8-.6,12.11-1.27,18.53-1.84h0c.25-.02.5-.05.75-.07.12-.01.24-.02.36-.03h0c1.49-.13,2.98-.26,4.48-.38.23-.02.46-.03.69-.05,9.68-.75,19.3-1.17,27.49-.72h.02c1.2.07,2.37.15,3.5.25,5.6.52,10.77.97,15.38,1.37.19.01.38.03.56.05h0c.19.01.37.03.55.05,1.01.09,1.99.17,2.94.25.18.01.35.03.53.05h0c.18.01.35.03.53.05,9.85.82,16.4,1.32,18.24,1.54.82.1,1.61-.53,2.33-1.47.14-.18.27-.38.4-.58.12-.18.23-.36.33-.55,1.42-2.47,2.39-5.8,2.39-5.8l-22.72-.35Zm-77.56,7.74c-5.8.6-11.22,1.14-15.58,1.43-6.14.41-11.61.62-16.25.62-1.13,0-2.21-.01-3.23-.04-.21,0-.42-.01-.62-.02-.21,0-.41-.01-.61-.02-1.15-.04-2.22-.1-3.21-.17-.2-.01-.4-.03-.59-.05-.2-.02-.4-.03-.6-.06-2.69-.25-4.66-.64-5.78-1.15-.51-.23-.99-.68-1.45-1.28,2.14.58,4.38.77,6.52.9.2.01.39.02.59.03.2.01.39.02.59.03.1,0,.21.01.31.01,1,.05,1.97.1,2.9.17.2.01.4.03.6.05h0c.18.02.38.03.59.05,1.14.08,2.72.12,4.78.12,7.14,0,19.16-.5,31.75-1.09h0c2.32-.11,4.66-.22,6.98-.34-1.78.18-3.54.36-5.27.54-.82.08-1.63.17-2.44.25Zm94.89.5c-1.21-.14-4.42-.41-9.27-.8-2.51-.21-5.5-.45-8.89-.74-.17-.01-.35-.03-.53-.05-.17-.01-.35-.03-.53-.04-.93-.08-1.89-.16-2.88-.24-.17-.02-.36-.03-.53-.05-.18-.02-.36-.03-.54-.05-3.16-.27-6.59-.57-10.24-.9,3.49.13,7,.31,10.37.51.18.01.36.02.53.03s.36.02.53.03c.97.06,1.93.12,2.87.17.18.01.35.02.53.03.18.01.35.02.53.03,2.33.15,4.54.3,6.59.44,5.69.39,10.19.69,12.55.69.18,0,.35,0,.51,0-.53.62-1.07.98-1.58.92Zm-78.94-1.7c-1.72.08-3.46.17-5.21.26h0c-1.01.05-2.01.1-3.03.15h-.01c-1.78.18-3.54.36-5.27.54-.82.08-1.63.17-2.44.25-5.8.6-11.22,1.14-15.58,1.43-6.14.41-11.61.62-16.25.62-1.13,0-2.21-.01-3.23-.04.13.19.27.37.43.53,4.96.1,11.32-.07,19.1-.59,4.26-.28,9.44-.8,15.14-1.38.22-.02.43-.05.65-.07h0c5.8-.6,12.11-1.27,18.53-1.84-.94.05-1.88.09-2.83.14Zm0,0c-1.72.08-3.46.17-5.21.26h0c-1.01.05-2.01.1-3.03.15h-.01c-1.78.18-3.54.36-5.27.54-.82.08-1.63.17-2.44.25-5.8.6-11.22,1.14-15.58,1.43-6.14.41-11.61.62-16.25.62-1.13,0-2.21-.01-3.23-.04.13.19.27.37.43.53,4.96.1,11.32-.07,19.1-.59,4.26-.28,9.44-.8,15.14-1.38.22-.02.43-.05.65-.07h0c5.8-.6,12.11-1.27,18.53-1.84-.94.05-1.88.09-2.83.14Zm0,0c-1.72.08-3.46.17-5.21.26h0c-1.01.05-2.01.1-3.03.15h-.01c-1.78.18-3.54.36-5.27.54-.82.08-1.63.17-2.44.25-5.8.6-11.22,1.14-15.58,1.43-6.14.41-11.61.62-16.25.62-1.13,0-2.21-.01-3.23-.04.13.19.27.37.43.53,4.96.1,11.32-.07,19.1-.59,4.26-.28,9.44-.8,15.14-1.38.22-.02.43-.05.65-.07h0c5.8-.6,12.11-1.27,18.53-1.84-.94.05-1.88.09-2.83.14Zm0,0c-1.72.08-3.46.17-5.21.26h0c-1.01.05-2.01.1-3.03.15h-.01c-1.78.18-3.54.36-5.27.54-.82.08-1.63.17-2.44.25-5.8.6-11.22,1.14-15.58,1.43-6.14.41-11.61.62-16.25.62-1.13,0-2.21-.01-3.23-.04.13.19.27.37.43.53,4.96.1,11.32-.07,19.1-.59,4.26-.28,9.44-.8,15.14-1.38.22-.02.43-.05.65-.07h0c5.8-.6,12.11-1.27,18.53-1.84-.94.05-1.88.09-2.83.14Z"/>
          <path class="cls-2" d="m105.54,48.23c-6.58,0-13.65.38-20.76.94-1.44.11-2.89.23-4.34.36-.35.03-.7.06-1.05.09-.17.01-.34.03-.51.05h-.01c-3.68.33-7.34.69-10.92,1.06,1.01-.05,2.02-.1,3.03-.15h0c1.75-.09,3.49-.17,5.21-.26.95-.05,1.89-.09,2.83-.14h0c.25-.02.5-.05.75-.07.12-.01.24-.02.36-.03h0s.03-.02.05-.03c.03-.02.07-.05.09-.08.02-.02.03-.04.05-.06.02-.02.03-.05.04-.07.02-.05.04-.1.05-.15l2.31-.22h.02c.4-.02.8-.04,1.2-.06h0c.36-.02.71-.03,1.07-.05,8.26-.4,15.66-.74,20.9-.89,2.19-.06,4.48-.08,6.85-.06-2.25-.13-4.67-.18-7.24-.18Zm0,0c-6.58,0-13.65.38-20.76.94-1.44.11-2.89.23-4.34.36-.35.03-.7.06-1.05.09-.17.01-.34.03-.51.05h-.01c-3.68.33-7.34.69-10.92,1.06,1.01-.05,2.02-.1,3.03-.15h0c1.75-.09,3.49-.17,5.21-.26.95-.05,1.89-.09,2.83-.14h0c.25-.02.5-.05.75-.07.12-.01.24-.02.36-.03h0s.03-.02.05-.03c.03-.02.07-.05.09-.08.02-.02.03-.04.05-.06.02-.02.03-.05.04-.07.02-.05.04-.1.05-.15l2.31-.22h.02c.4-.02.8-.04,1.2-.06h0c.36-.02.71-.03,1.07-.05,8.26-.4,15.66-.74,20.9-.89,2.19-.06,4.48-.08,6.85-.06-2.25-.13-4.67-.18-7.24-.18Zm0,0c-6.58,0-13.65.38-20.76.94-1.44.11-2.89.23-4.34.36-.35.03-.7.06-1.05.09-.17.01-.34.03-.51.05h-.01c-3.68.33-7.34.69-10.92,1.06,1.01-.05,2.02-.1,3.03-.15h0c1.75-.09,3.49-.17,5.21-.26.95-.05,1.89-.09,2.83-.14h0c.25-.02.5-.05.75-.07.12-.01.24-.02.36-.03h0s.03-.02.05-.03c.03-.02.07-.05.09-.08.02-.02.03-.04.05-.06.02-.02.03-.05.04-.07.02-.05.04-.1.05-.15l2.31-.22h.02c.4-.02.8-.04,1.2-.06h0c.36-.02.71-.03,1.07-.05,8.26-.4,15.66-.74,20.9-.89,2.19-.06,4.48-.08,6.85-.06-2.25-.13-4.67-.18-7.24-.18Zm0,0c-6.58,0-13.65.38-20.76.94-1.44.11-2.89.23-4.34.36-.35.03-.7.06-1.05.09-.17.01-.34.03-.51.05h-.01c-3.68.33-7.34.69-10.92,1.06h-.01c-1.78.18-3.54.36-5.27.54-.82.08-1.63.17-2.44.25-5.8.6-11.22,1.14-15.58,1.43-6.14.41-11.61.62-16.25.62-1.13,0-2.21-.01-3.23-.04.13.19.27.37.43.53,4.96.1,11.32-.07,19.1-.59,4.26-.28,9.44-.8,15.14-1.38.22-.02.43-.05.65-.07h0c5.8-.6,12.11-1.27,18.53-1.84h0c.25-.02.5-.05.75-.07.12-.01.24-.02.36-.03h0s.03-.02.05-.03c.03-.02.07-.05.09-.08.02-.02.03-.04.05-.06.02-.02.03-.05.04-.07.02-.05.04-.1.05-.15l2.31-.22h.02c.4-.02.8-.04,1.2-.06h0c.36-.02.71-.03,1.07-.05,8.26-.4,15.66-.74,20.9-.89,2.19-.06,4.48-.08,6.85-.06-2.25-.13-4.67-.18-7.24-.18Zm0,0c-6.58,0-13.65.38-20.76.94-1.44.11-2.89.23-4.34.36-.35.03-.7.06-1.05.09-.17.01-.34.03-.51.05h-.01c-3.68.33-7.34.69-10.92,1.06h-.01c-1.78.18-3.54.36-5.27.54-.82.08-1.63.17-2.44.25-5.8.6-11.22,1.14-15.58,1.43-6.14.41-11.61.62-16.25.62-1.13,0-2.21-.01-3.23-.04.13.19.27.37.43.53,4.96.1,11.32-.07,19.1-.59,4.26-.28,9.44-.8,15.14-1.38.22-.02.43-.05.65-.07h0c5.8-.6,12.11-1.27,18.53-1.84h0c.25-.02.5-.05.75-.07.12-.01.24-.02.36-.03h0s.03-.02.05-.03c.03-.02.07-.05.09-.08.02-.02.03-.04.05-.06.02-.02.03-.05.04-.07.02-.05.04-.1.05-.15l2.31-.22h.02c.4-.02.8-.04,1.2-.06h0c.36-.02.71-.03,1.07-.05,8.26-.4,15.66-.74,20.9-.89,2.19-.06,4.48-.08,6.85-.06-2.25-.13-4.67-.18-7.24-.18Zm0,0c-6.58,0-13.65.38-20.76.94-1.44.11-2.89.23-4.34.36-.35.03-.7.06-1.05.09-.17.01-.34.03-.51.05h-.01c-3.68.33-7.34.69-10.92,1.06h-.01c-1.78.18-3.54.36-5.27.54-.82.08-1.63.17-2.44.25-5.8.6-11.22,1.14-15.58,1.43-6.14.41-11.61.62-16.25.62-1.13,0-2.21-.01-3.23-.04.13.19.27.37.43.53,4.96.1,11.32-.07,19.1-.59,4.26-.28,9.44-.8,15.14-1.38.22-.02.43-.05.65-.07h0c5.8-.6,12.11-1.27,18.53-1.84h0c.25-.02.5-.05.75-.07.12-.01.24-.02.36-.03h0s.03-.02.05-.03c.03-.02.07-.05.09-.08.02-.02.03-.04.05-.06.02-.02.03-.05.04-.07.02-.05.04-.1.05-.15l2.31-.22h.02c.4-.02.8-.04,1.2-.06h0c.36-.02.71-.03,1.07-.05,8.26-.4,15.66-.74,20.9-.89,2.19-.06,4.48-.08,6.85-.06-2.25-.13-4.67-.18-7.24-.18Zm0,0c-6.58,0-13.65.38-20.76.94-1.44.11-2.89.23-4.34.36-.35.03-.7.06-1.05.09-.17.01-.34.03-.51.05h-.01c-3.68.33-7.34.69-10.92,1.06h-.01c-1.78.18-3.54.36-5.27.54-.82.08-1.63.17-2.44.25-5.8.6-11.22,1.14-15.58,1.43-6.14.41-11.61.62-16.25.62-1.13,0-2.21-.01-3.23-.04.13.19.27.37.43.53,4.96.1,11.32-.07,19.1-.59,4.26-.28,9.44-.8,15.14-1.38.22-.02.43-.05.65-.07h0c5.8-.6,12.11-1.27,18.53-1.84h0c.25-.02.5-.05.75-.07.12-.01.24-.02.36-.03h0s.03-.02.05-.03c.03-.02.07-.05.09-.08.02-.02.03-.04.05-.06.02-.02.03-.05.04-.07.02-.05.04-.1.05-.15l2.31-.22h.02c.4-.02.8-.04,1.2-.06h0c.36-.02.71-.03,1.07-.05,8.26-.4,15.66-.74,20.9-.89,2.19-.06,4.48-.08,6.85-.06-2.25-.13-4.67-.18-7.24-.18Zm16.16.93h0s-.04,0-.06,0c-.61-.05-1.22-.11-1.84-.16-.37-.03-.75-.07-1.13-.1-.76-.07-1.52-.14-2.29-.21-.23-.02-.47-.04-.71-.06-.22-.02-.44-.03-.67-.05-.47-.03-.95-.07-1.43-.1-.23-.02-.46-.03-.7-.04-.02,0-.03,0-.05,0h-.03c-2.25-.13-4.67-.18-7.24-.18-6.58,0-13.65.38-20.76.94-1.44.11-2.89.23-4.34.36-.35.03-.7.06-1.05.09-.17.01-.34.03-.51.05h-.01c-3.68.33-7.34.69-10.92,1.06h-.01c-1.78.18-3.54.36-5.27.54-.82.08-1.63.17-2.44.25-5.8.6-11.22,1.14-15.58,1.43-6.14.41-11.61.62-16.25.62-1.13,0-2.21-.01-3.23-.04.13.19.27.37.43.53.19.2.4.38.62.53.7.01,1.43.02,2.19.02,4.66,0,10.16-.21,16.32-.62,4.2-.28,9.38-.79,14.94-1.37.11-.01.22-.02.33-.03h0c.07,0,.14-.01.21-.02.2-.02.39-.04.58-.06.08,0,.15-.01.23-.02,0,0,.02,0,.02,0,.58-.06,1.15-.12,1.73-.18.04,0,.08,0,.12-.01.37-.04.74-.08,1.11-.11,0,0,0,0,0,0,6.56-.68,13.5-1.39,20.42-1.94.2-.01.39-.03.59-.05.18-.01.37-.03.55-.05,6.85-.52,13.64-.88,19.95-.88,3.98,0,7.6.15,10.74.44,5.48.51,10.55.96,15.1,1.35.12-.16.23-.32.32-.5.09-.16.17-.33.24-.51-3.16-.27-6.59-.57-10.24-.9Zm39.23-5.34c-.09-.13-.25-.21-.41-.21l-22.66-.35h-.52s-.53-.01-.53-.01l-2.86-.05h-1.05s-52.89-.83-52.89-.83l-1.06-.02-70.85-1.08c-.15,0-.31.07-.41.2-.1.13-.14.29-.1.45.06.24.9,3.8,2.35,6.87.13.27.25.52.39.77.13.25.27.48.4.72.75,1.26,1.62,2.29,2.6,2.74,1.31.6,3.58,1.04,6.71,1.3.2.02.39.03.59.05h0c.2.02.39.03.59.04,1.05.07,2.19.12,3.41.16.24,0,.49.01.74.02.28,0,.55.01.84.01.7.01,1.43.02,2.19.02,4.66,0,10.16-.21,16.32-.62,4.2-.28,9.38-.79,14.94-1.37.11-.01.22-.02.33-.03h0c.07,0,.14-.01.21-.02.2-.02.39-.04.58-.06.08,0,.15-.01.23-.02,0,0,.02,0,.02,0,.58-.06,1.15-.12,1.73-.18.04,0,.08,0,.12-.01.37-.04.74-.08,1.11-.11,0,0,0,0,0,0,6.56-.68,13.5-1.39,20.42-1.94.2-.01.39-.03.59-.05.18-.01.37-.03.55-.05,6.85-.52,13.64-.88,19.95-.88,3.98,0,7.6.15,10.74.44,5.48.51,10.55.96,15.1,1.35.21.02.4.04.61.06h0c.2.01.38.03.58.05,1.04.09,2.05.17,3.02.25.18.02.36.03.54.05.18.02.36.03.54.05,3.48.29,6.53.54,9.1.75,4.84.39,8.04.66,9.23.8.08.01.16.01.23.01,1.05,0,2.02-.88,2.85-2.09.12-.17.23-.36.35-.54.1-.17.2-.34.3-.52,1.29-2.31,2.14-5.14,2.29-5.66.05-.15.01-.32-.08-.45Zm-3.44,6.18c-.12.2-.24.38-.37.56-.14.2-.28.38-.41.54-.53.62-1.07.98-1.58.92-1.21-.14-4.42-.41-9.27-.8-2.51-.21-5.5-.45-8.89-.74-.17-.01-.35-.03-.53-.05-.17-.01-.35-.03-.53-.04-.93-.08-1.89-.16-2.88-.24-.17-.02-.36-.03-.53-.05-.18-.02-.36-.03-.54-.05-3.16-.27-6.59-.57-10.24-.9h0s-.04,0-.06,0c-.61-.05-1.22-.11-1.84-.16-.37-.03-.75-.07-1.13-.1-.76-.07-1.52-.14-2.29-.21-.23-.02-.47-.04-.71-.06-.22-.02-.44-.03-.67-.05-.47-.03-.95-.07-1.43-.1-.23-.02-.46-.03-.7-.04-.02,0-.03,0-.05,0h-.03c-2.25-.13-4.67-.18-7.24-.18-6.58,0-13.65.38-20.76.94-1.44.11-2.89.23-4.34.36-.35.03-.7.06-1.05.09-.17.01-.34.03-.51.05h-.01c-3.68.33-7.34.69-10.92,1.06h-.01c-1.78.18-3.54.36-5.27.54-.82.08-1.63.17-2.44.25-5.8.6-11.22,1.14-15.58,1.43-6.14.41-11.61.62-16.25.62-1.13,0-2.21-.01-3.23-.04-.21,0-.42-.01-.62-.02-.21,0-.41-.01-.61-.02-1.15-.04-2.22-.1-3.21-.17-.2-.01-.4-.03-.59-.05-.2-.02-.4-.03-.6-.06-2.69-.25-4.66-.64-5.78-1.15-.51-.23-.99-.68-1.45-1.28-.16-.21-.31-.43-.46-.67h0c-.14-.22-.28-.46-.41-.7-1.24-2.23-2.19-5.26-2.67-7.08l70.31,1.08,1.05.02,52.64.81h.53s.52.02.52.02l2.86.04h.52s.53.02.53.02l22.08.34c-.55,1.73-1.39,3.84-2.32,5.36Zm-51.95-1.77c-6.58,0-13.65.38-20.76.94-1.44.11-2.89.23-4.34.36-.35.03-.7.06-1.05.09-.17.01-.34.03-.51.05h-.01c-3.68.33-7.34.69-10.92,1.06h-.01c-1.78.18-3.54.36-5.27.54-.82.08-1.63.17-2.44.25-5.8.6-11.22,1.14-15.58,1.43-6.14.41-11.61.62-16.25.62-1.13,0-2.21-.01-3.23-.04.13.19.27.37.43.53,4.96.1,11.32-.07,19.1-.59,4.26-.28,9.44-.8,15.14-1.38.22-.02.43-.05.65-.07h0c5.8-.6,12.11-1.27,18.53-1.84h0c.25-.02.5-.05.75-.07.12-.01.24-.02.36-.03h0s.03-.02.05-.03c.03-.02.07-.05.09-.08.02-.02.03-.04.05-.06.02-.02.03-.05.04-.07.02-.05.04-.1.05-.15l2.31-.22h.02c.4-.02.8-.04,1.2-.06h0c.36-.02.71-.03,1.07-.05,8.26-.4,15.66-.74,20.9-.89,2.19-.06,4.48-.08,6.85-.06-2.25-.13-4.67-.18-7.24-.18Zm0,0c-6.58,0-13.65.38-20.76.94-1.44.11-2.89.23-4.34.36-.35.03-.7.06-1.05.09-.17.01-.34.03-.51.05h-.01c-3.68.33-7.34.69-10.92,1.06h-.01c-1.78.18-3.54.36-5.27.54-.82.08-1.63.17-2.44.25-5.8.6-11.22,1.14-15.58,1.43-6.14.41-11.61.62-16.25.62-1.13,0-2.21-.01-3.23-.04.13.19.27.37.43.53,4.96.1,11.32-.07,19.1-.59,4.26-.28,9.44-.8,15.14-1.38.22-.02.43-.05.65-.07h0c5.8-.6,12.11-1.27,18.53-1.84h0c.25-.02.5-.05.75-.07.12-.01.24-.02.36-.03h0s.03-.02.05-.03c.03-.02.07-.05.09-.08.02-.02.03-.04.05-.06.02-.02.03-.05.04-.07.02-.05.04-.1.05-.15l2.31-.22h.02c.4-.02.8-.04,1.2-.06h0c.36-.02.71-.03,1.07-.05,8.26-.4,15.66-.74,20.9-.89,2.19-.06,4.48-.08,6.85-.06-2.25-.13-4.67-.18-7.24-.18Zm0,0c-6.58,0-13.65.38-20.76.94-1.44.11-2.89.23-4.34.36-.35.03-.7.06-1.05.09-.17.01-.34.03-.51.05h-.01c-3.68.33-7.34.69-10.92,1.06h-.01c-1.78.18-3.54.36-5.27.54-.82.08-1.63.17-2.44.25-5.8.6-11.22,1.14-15.58,1.43-6.14.41-11.61.62-16.25.62-1.13,0-2.21-.01-3.23-.04.13.19.27.37.43.53,4.96.1,11.32-.07,19.1-.59,4.26-.28,9.44-.8,15.14-1.38.22-.02.43-.05.65-.07h0c5.8-.6,12.11-1.27,18.53-1.84h0c.25-.02.5-.05.75-.07.12-.01.24-.02.36-.03h0s.03-.02.05-.03c.03-.02.07-.05.09-.08.02-.02.03-.04.05-.06.02-.02.03-.05.04-.07.02-.05.04-.1.05-.15l2.31-.22h.02c.4-.02.8-.04,1.2-.06h0c.36-.02.71-.03,1.07-.05,8.26-.4,15.66-.74,20.9-.89,2.19-.06,4.48-.08,6.85-.06-2.25-.13-4.67-.18-7.24-.18Zm0,0c-6.58,0-13.65.38-20.76.94-1.44.11-2.89.23-4.34.36-.35.03-.7.06-1.05.09-.17.01-.34.03-.51.05h-.01c-3.68.33-7.34.69-10.92,1.06h-.01c-1.78.18-3.54.36-5.27.54-.82.08-1.63.17-2.44.25-5.8.6-11.22,1.14-15.58,1.43-6.14.41-11.61.62-16.25.62-1.13,0-2.21-.01-3.23-.04.13.19.27.37.43.53,4.96.1,11.32-.07,19.1-.59,4.26-.28,9.44-.8,15.14-1.38.22-.02.43-.05.65-.07h0c5.8-.6,12.11-1.27,18.53-1.84h0c.25-.02.5-.05.75-.07.12-.01.24-.02.36-.03h0s.03-.02.05-.03c.03-.02.07-.05.09-.08.02-.02.03-.04.05-.06.02-.02.03-.05.04-.07.02-.05.04-.1.05-.15l2.31-.22h.02c.4-.02.8-.04,1.2-.06h0c.36-.02.71-.03,1.07-.05,8.26-.4,15.66-.74,20.9-.89,2.19-.06,4.48-.08,6.85-.06-2.25-.13-4.67-.18-7.24-.18Zm0,0c-6.58,0-13.65.38-20.76.94-1.44.11-2.89.23-4.34.36-.35.03-.7.06-1.05.09-.17.01-.34.03-.51.05h-.01c-3.68.33-7.34.69-10.92,1.06,1.01-.05,2.02-.1,3.03-.15h0c1.75-.09,3.49-.17,5.21-.26.95-.05,1.89-.09,2.83-.14h0c.25-.02.5-.05.75-.07.12-.01.24-.02.36-.03h0s.03-.02.05-.03c.03-.02.07-.05.09-.08.02-.02.03-.04.05-.06.02-.02.03-.05.04-.07.02-.05.04-.1.05-.15l2.31-.22h.02c.4-.02.8-.04,1.2-.06h0c.36-.02.71-.03,1.07-.05,8.26-.4,15.66-.74,20.9-.89,2.19-.06,4.48-.08,6.85-.06-2.25-.13-4.67-.18-7.24-.18Zm0,0c-6.58,0-13.65.38-20.76.94-1.44.11-2.89.23-4.34.36-.35.03-.7.06-1.05.09-.17.01-.34.03-.51.05h-.01c-3.68.33-7.34.69-10.92,1.06,1.01-.05,2.02-.1,3.03-.15h0c1.75-.09,3.49-.17,5.21-.26.95-.05,1.89-.09,2.83-.14h0c.25-.02.5-.05.75-.07.12-.01.24-.02.36-.03h0s.03-.02.05-.03c.03-.02.07-.05.09-.08.02-.02.03-.04.05-.06.02-.02.03-.05.04-.07.02-.05.04-.1.05-.15l2.31-.22h.02c.4-.02.8-.04,1.2-.06h0c.36-.02.71-.03,1.07-.05,8.26-.4,15.66-.74,20.9-.89,2.19-.06,4.48-.08,6.85-.06-2.25-.13-4.67-.18-7.24-.18Zm0,0c-6.58,0-13.65.38-20.76.94-1.44.11-2.89.23-4.34.36-.35.03-.7.06-1.05.09-.17.01-.34.03-.51.05h-.01c-3.68.33-7.34.69-10.92,1.06,1.01-.05,2.02-.1,3.03-.15h0c1.75-.09,3.49-.17,5.21-.26.95-.05,1.89-.09,2.83-.14h0c.25-.02.5-.05.75-.07.12-.01.24-.02.36-.03h0s.03-.02.05-.03c.03-.02.07-.05.09-.08.02-.02.03-.04.05-.06.02-.02.03-.05.04-.07.02-.05.04-.1.05-.15l2.31-.22h.02c.4-.02.8-.04,1.2-.06h0c.36-.02.71-.03,1.07-.05,8.26-.4,15.66-.74,20.9-.89,2.19-.06,4.48-.08,6.85-.06-2.25-.13-4.67-.18-7.24-.18Zm0,0c-6.58,0-13.65.38-20.76.94-1.44.11-2.89.23-4.34.36-.35.03-.7.06-1.05.09-.17.01-.34.03-.51.05h-.01c-3.68.33-7.34.69-10.92,1.06,1.01-.05,2.02-.1,3.03-.15h0c1.75-.09,3.49-.17,5.21-.26.95-.05,1.89-.09,2.83-.14h0c.25-.02.5-.05.75-.07.12-.01.24-.02.36-.03h0s.03-.02.05-.03c.03-.02.07-.05.09-.08.02-.02.03-.04.05-.06.02-.02.03-.05.04-.07.02-.05.04-.1.05-.15l2.31-.22h.02c.4-.02.8-.04,1.2-.06h0c.36-.02.71-.03,1.07-.05,8.26-.4,15.66-.74,20.9-.89,2.19-.06,4.48-.08,6.85-.06-2.25-.13-4.67-.18-7.24-.18Z"/>
          <path class="cls-3" d="m132.07,49.67c-.04.13-.08.26-.13.39-3.16-.27-6.59-.57-10.24-.9,3.49.13,7,.31,10.37.51Z"/>
          <path class="cls-3" d="m132.61,49.71c-.03.14-.08.27-.12.4-.18-.02-.36-.03-.54-.05.05-.13.09-.25.13-.39.18.01.36.02.53.03Z"/>
          <path class="cls-3" d="m133.14,49.74c-.03.14-.07.28-.12.42-.17-.02-.36-.03-.53-.05.05-.13.09-.27.12-.4.18.01.36.02.53.03Z"/>
          <path class="cls-3" d="m136,49.91c-.03.16-.06.33-.1.49-.93-.08-1.89-.16-2.88-.24.05-.14.09-.28.12-.42.97.06,1.93.12,2.87.17Z"/>
          <path class="cls-3" d="m136.53,49.95c-.03.17-.06.33-.1.5-.17-.01-.35-.03-.53-.04.04-.16.07-.32.1-.49.18.01.35.02.53.03Z"/>
          <path class="cls-3" d="m137.06,49.98c-.03.17-.06.34-.1.51-.17-.01-.35-.03-.53-.05.04-.16.07-.33.1-.5.18.01.35.02.53.03Z"/>
          <path class="cls-3" d="m156.71,51.11c-.53.62-1.07.98-1.58.92-1.21-.14-4.42-.41-9.27-.8-2.51-.21-5.5-.45-8.89-.74.03-.17.07-.33.1-.51,2.33.15,4.54.3,6.59.44,5.69.39,10.19.69,12.55.69.18,0,.35,0,.51,0Z"/>
          <path class="cls-3" d="m20.14,53.28c-.2-.02-.4-.03-.6-.06l-.7-1.54c.2.01.39.02.59.03l.71,1.57Z"/>
          <path class="cls-3" d="m20.73,53.33c-.2-.01-.4-.03-.59-.05l-.71-1.57c.2.01.39.02.59.03l.71,1.58Z"/>
          <path class="cls-3" d="m25.17,53.53c-.21,0-.42-.01-.62-.02-.08-.13-.14-.26-.21-.39l-.51-1.14h0c.18.02.38.03.59.05l.39.87c.1.22.22.43.36.63Z"/>
          <path class="cls-3" d="m24.55,53.52c-.21,0-.41-.01-.61-.02-.03-.05-.05-.1-.08-.16l-.63-1.41c.2.01.4.03.6.05l.51,1.14c.06.14.13.27.21.39Z"/>
          <path class="cls-3" d="m67.94,50.73c-1.78.18-3.54.36-5.27.54-.82.08-1.63.17-2.44.25.2-.21.45-.36.71-.46h0c2.32-.11,4.66-.22,6.98-.34Z"/>
          <path class="cls-3" d="m23.94,53.5c-1.15-.04-2.22-.1-3.21-.17l-.71-1.58c.1,0,.21.01.31.01,1,.05,1.97.1,2.9.17l.63,1.41c.02.05.05.1.08.16Z"/>
          <path class="cls-3" d="m19.54,53.22c-2.69-.25-4.66-.64-5.78-1.15-.51-.23-.99-.68-1.45-1.28,2.14.58,4.38.77,6.52.9l.7,1.54Z"/>
          <path class="cls-3" d="m60.95,51.07c-.27.1-.51.25-.71.46-5.8.6-11.22,1.14-15.58,1.43-6.14.41-11.61.62-16.25.62-1.13,0-2.21-.01-3.23-.04-.14-.2-.25-.41-.36-.63l-.39-.87c1.14.08,2.72.12,4.78.12,7.14,0,19.16-.5,31.75-1.09Z"/>
        </g>
        <g>
          <path class="cls-3" d="m163.15,34.46c-.58-19.56-24.58-23.72-46.13-17.22-18.39,5.54-39.15-6.37-44.96-9.34C48.16-4.31,11.41-1.46,2.52,17.22c-.42.87-.77,1.78-1.06,2.72-.63,2.05-.96,4.25-.93,6.63.16,14.97,4.41,20.69,9.8,22.99.25.11.5.21.75.3.25.09.51.18.77.26h0c2.18.67,4.48.89,6.74,1.03h0c.2.01.39.02.59.03h0c.2,0,.39.02.59.03,1.09.06,2.17.1,3.2.18.2.02.4.03.6.05.1,0,.2.02.3.03.09.01.19.02.29.03,6.16.51,26.86-.45,46.82-1.44h.02c2.64-.13,5.28-.26,7.86-.39h.01c.17-.01.34-.02.51-.02.35-.02.69-.03,1.04-.06.77-.03,1.54-.07,2.3-.11h.02c.4-.02.8-.04,1.2-.06h0c.36-.02.71-.03,1.07-.05,8.26-.4,15.66-.74,20.9-.89,2.19-.06,4.48-.08,6.85-.06h.03c6.29.05,13.05.36,19.37.74.17.01.35.02.52.03.17.01.35.02.53.03.96.06,1.91.12,2.85.17.18.01.35.02.52.03.17.01.35.02.52.03,9.6.62,17.49,1.26,20,1.1.2,0,.36-.02.48-.05.06-.01.12-.02.18-.03.22-.02.43-.04.63-.04,2.53-.01,4.46,1.35,4.76-8.15.01-.33.02-.68.02-1.05.04-1.87.02-4.11-.06-6.8ZM39.72,1.05c11.47,0,22.87,2.59,32.1,7.31.38.2.82.43,1.32.69,5.81,3.04,19.43,10.17,33.57,10.17,3.7,0,7.22-.5,10.47-1.48,6.13-1.85,12.48-2.82,18.37-2.82,16.6,0,26.72,7.31,27.09,19.57.08,2.63.1,4.89.06,6.8-4.14,0-27.93-2.45-43.24-5.29-14.63-2.71-38.25-1.44-41.47-1.26-1.72-3.65-4.35-5.65-7.91-6.05-2.86-.32-7.55,0-13.5.4-10.45.7-24.77,1.66-37.87-.39-10.77-1.69-14.46-4.77-15.66-7.06-1.06-2.02-.31-3.63-.28-3.7,0-.02.01-.03.02-.05,1-2.24,2.43-4.3,4.29-6.18C13.77,4.93,25.67,1.05,39.72,1.05Z"/>
          <path class="cls-2" d="m132.25,48.63c-6.97-.41-14.53-.75-21.35-.75-1.76,0-3.44.02-4.99.07-5.45.16-13.26.52-21.91.94h-.01c-.4.02-.8.04-1.2.06h-.02c-.77.04-1.55.08-2.33.12l-1.05.05c-1.07.05-2.16.11-3.25.16-17.31.86-36.94,1.83-46.93,1.83-2.38,0-4.16-.06-5.27-.16h0c-.2-.02-.4-.04-.6-.05l.25.54.25.55h0c.18.02.38.03.59.05,1.14.08,2.72.12,4.78.12,7.14,0,19.16-.5,31.75-1.09h0c2.32-.11,4.66-.22,6.98-.34h.01c1.01-.05,2.02-.1,3.03-.15h0c1.75-.09,3.49-.17,5.21-.26.95-.05,1.89-.09,2.83-.14h0c.25-.02.5-.05.75-.07.12-.01.24-.02.36-.03h0s.03-.02.05-.03c.03-.02.07-.05.09-.08.02-.02.03-.04.05-.06.02-.02.03-.05.04-.07.02-.05.04-.1.05-.15l2.31-.22h.02c.4-.02.8-.04,1.2-.06h0c.36-.02.71-.03,1.07-.05,8.26-.4,15.66-.74,20.9-.89,2.19-.06,4.48-.08,6.85-.06h.03s.03,0,.05,0c.24.01.47.02.7.04.49.03.96.06,1.43.1.22.02.45.03.67.05.24.02.47.04.71.06.77.07,1.54.14,2.29.21.38.03.75.07,1.13.1.62.05,1.23.11,1.84.16.02,0,.04,0,.06,0h0c3.49.13,7,.31,10.37.51,0-.03.02-.06.02-.08.02-.09.05-.18.06-.28.01-.05.02-.1.03-.16.17.01.35.02.52.03,0-.03.01-.07.02-.11l.05-.41c-.17-.01-.35-.02-.52-.03Zm0,0c-6.97-.41-14.53-.75-21.35-.75-1.76,0-3.44.02-4.99.07-5.45.16-13.26.52-21.91.94h-.01c-.4.02-.8.04-1.2.06h-.02c-.77.04-1.55.08-2.33.12l-1.05.05c-1.07.05-2.16.11-3.25.16-17.31.86-36.94,1.83-46.93,1.83-2.38,0-4.16-.06-5.27-.16h0c-.2-.02-.4-.04-.6-.05l.25.54.25.55h0c.18.02.38.03.59.05,1.14.08,2.72.12,4.78.12,7.14,0,19.16-.5,31.75-1.09h0c2.32-.11,4.66-.22,6.98-.34h.01c1.01-.05,2.02-.1,3.03-.15h0c1.75-.09,3.49-.17,5.21-.26.95-.05,1.89-.09,2.83-.14h0c.25-.02.5-.05.75-.07.12-.01.24-.02.36-.03h0s.03-.02.05-.03c.03-.02.07-.05.09-.08.02-.02.03-.04.05-.06.02-.02.03-.05.04-.07.02-.05.04-.1.05-.15l2.31-.22h.02c.4-.02.8-.04,1.2-.06h0c.36-.02.71-.03,1.07-.05,8.26-.4,15.66-.74,20.9-.89,2.19-.06,4.48-.08,6.85-.06h.03s.03,0,.05,0c.24.01.47.02.7.04.49.03.96.06,1.43.1.22.02.45.03.67.05.24.02.47.04.71.06.77.07,1.54.14,2.29.21.38.03.75.07,1.13.1.62.05,1.23.11,1.84.16.02,0,.04,0,.06,0h0c3.49.13,7,.31,10.37.51,0-.03.02-.06.02-.08.02-.09.05-.18.06-.28.01-.05.02-.1.03-.16.17.01.35.02.52.03,0-.03.01-.07.02-.11l.05-.41c-.17-.01-.35-.02-.52-.03Zm0,0c-6.97-.41-14.53-.75-21.35-.75-1.76,0-3.44.02-4.99.07-5.45.16-13.26.52-21.91.94h-.01c-.4.02-.8.04-1.2.06h-.02c-.77.04-1.55.08-2.33.12l-1.05.05c-1.07.05-2.16.11-3.25.16-17.31.86-36.94,1.83-46.93,1.83-2.38,0-4.16-.06-5.27-.16h0c-.2-.02-.4-.04-.6-.05l.25.54.25.55h0c.18.02.38.03.59.05,1.14.08,2.72.12,4.78.12,7.14,0,19.16-.5,31.75-1.09h0c2.32-.11,4.66-.22,6.98-.34h.01c1.01-.05,2.02-.1,3.03-.15h0c1.75-.09,3.49-.17,5.21-.26.95-.05,1.89-.09,2.83-.14h0c.25-.02.5-.05.75-.07.12-.01.24-.02.36-.03h0s.03-.02.05-.03c.03-.02.07-.05.09-.08.02-.02.03-.04.05-.06.02-.02.03-.05.04-.07.02-.05.04-.1.05-.15l2.31-.22h.02c.4-.02.8-.04,1.2-.06h0c.36-.02.71-.03,1.07-.05,8.26-.4,15.66-.74,20.9-.89,2.19-.06,4.48-.08,6.85-.06h.03s.03,0,.05,0c.24.01.47.02.7.04.49.03.96.06,1.43.1.22.02.45.03.67.05.24.02.47.04.71.06.77.07,1.54.14,2.29.21.38.03.75.07,1.13.1.62.05,1.23.11,1.84.16.02,0,.04,0,.06,0h0c3.49.13,7,.31,10.37.51,0-.03.02-.06.02-.08.02-.09.05-.18.06-.28.01-.05.02-.1.03-.16.17.01.35.02.52.03,0-.03.01-.07.02-.11l.05-.41c-.17-.01-.35-.02-.52-.03Zm0,0c-6.97-.41-14.53-.75-21.35-.75-1.76,0-3.44.02-4.99.07-5.45.16-13.26.52-21.91.94h-.01c-.4.02-.8.04-1.2.06h-.02c-.77.04-1.55.08-2.33.12l-1.05.05c-1.07.05-2.16.11-3.25.16-17.31.86-36.94,1.83-46.93,1.83-2.38,0-4.16-.06-5.27-.16h0c-.2-.02-.4-.04-.6-.05l.25.54.25.55h0c.18.02.38.03.59.05,1.14.08,2.72.12,4.78.12,7.14,0,19.16-.5,31.75-1.09h0c2.32-.11,4.66-.22,6.98-.34h.01c1.01-.05,2.02-.1,3.03-.15h0c1.75-.09,3.49-.17,5.21-.26.95-.05,1.89-.09,2.83-.14h0c.25-.02.5-.05.75-.07.12-.01.24-.02.36-.03h0s.03-.02.05-.03c.03-.02.07-.05.09-.08.02-.02.03-.04.05-.06.02-.02.03-.05.04-.07.02-.05.04-.1.05-.15l2.31-.22h.02c.4-.02.8-.04,1.2-.06h0c.36-.02.71-.03,1.07-.05,8.26-.4,15.66-.74,20.9-.89,2.19-.06,4.48-.08,6.85-.06h.03s.03,0,.05,0c.24.01.47.02.7.04.49.03.96.06,1.43.1.22.02.45.03.67.05.24.02.47.04.71.06.77.07,1.54.14,2.29.21.38.03.75.07,1.13.1.62.05,1.23.11,1.84.16.02,0,.04,0,.06,0h0c3.49.13,7,.31,10.37.51,0-.03.02-.06.02-.08.02-.09.05-.18.06-.28.01-.05.02-.1.03-.16.17.01.35.02.52.03,0-.03.01-.07.02-.11l.05-.41c-.17-.01-.35-.02-.52-.03Zm0,0c-6.97-.41-14.53-.75-21.35-.75-1.76,0-3.44.02-4.99.07-5.45.16-13.26.52-21.91.94h-.01c-.4.02-.8.04-1.2.06h-.02c-.77.04-1.55.08-2.33.12l-1.05.05c-1.07.05-2.16.11-3.25.16-17.31.86-36.94,1.83-46.93,1.83-2.38,0-4.16-.06-5.27-.16h0c-.2-.02-.4-.04-.6-.05l.25.54.25.55h0c.18.02.38.03.59.05,1.14.08,2.72.12,4.78.12,7.14,0,19.16-.5,31.75-1.09h0c2.32-.11,4.66-.22,6.98-.34h.01c1.01-.05,2.02-.1,3.03-.15h0c1.75-.09,3.49-.17,5.21-.26.95-.05,1.89-.09,2.83-.14h0c.25-.02.5-.05.75-.07.12-.01.24-.02.36-.03h0s.03-.02.05-.03c.03-.02.07-.05.09-.08.02-.02.03-.04.05-.06.02-.02.03-.05.04-.07.02-.05.04-.1.05-.15l2.31-.22h.02c.4-.02.8-.04,1.2-.06h0c.36-.02.71-.03,1.07-.05,8.26-.4,15.66-.74,20.9-.89,2.19-.06,4.48-.08,6.85-.06h.03s.03,0,.05,0c.24.01.47.02.7.04.49.03.96.06,1.43.1.22.02.45.03.67.05.24.02.47.04.71.06.77.07,1.54.14,2.29.21.38.03.75.07,1.13.1.62.05,1.23.11,1.84.16.02,0,.04,0,.06,0h0c3.49.13,7,.31,10.37.51,0-.03.02-.06.02-.08.02-.09.05-.18.06-.28.01-.05.02-.1.03-.16.17.01.35.02.52.03,0-.03.01-.07.02-.11l.05-.41c-.17-.01-.35-.02-.52-.03Zm0,0c-6.97-.41-14.53-.75-21.35-.75-1.76,0-3.44.02-4.99.07-5.45.16-13.26.52-21.91.94h-.01c-.4.02-.8.04-1.2.06h-.02c-.77.04-1.55.08-2.33.12l-1.05.05c-1.07.05-2.16.11-3.25.16-17.31.86-36.94,1.83-46.93,1.83-2.38,0-4.16-.06-5.27-.16h0c-.2-.02-.4-.04-.6-.05l.25.54.25.55h0c.18.02.38.03.59.05,1.14.08,2.72.12,4.78.12,7.14,0,19.16-.5,31.75-1.09h0c2.32-.11,4.66-.22,6.98-.34h.01c1.01-.05,2.02-.1,3.03-.15h0c1.75-.09,3.49-.17,5.21-.26.95-.05,1.89-.09,2.83-.14h0c.25-.02.5-.05.75-.07.12-.01.24-.02.36-.03h0s.03-.02.05-.03c.03-.02.07-.05.09-.08.02-.02.03-.04.05-.06.02-.02.03-.05.04-.07.02-.05.04-.1.05-.15l2.31-.22h.02c.4-.02.8-.04,1.2-.06h0c.36-.02.71-.03,1.07-.05,8.26-.4,15.66-.74,20.9-.89,2.19-.06,4.48-.08,6.85-.06h.03s.03,0,.05,0c.24.01.47.02.7.04.49.03.96.06,1.43.1.22.02.45.03.67.05.24.02.47.04.71.06.77.07,1.54.14,2.29.21.38.03.75.07,1.13.1.62.05,1.23.11,1.84.16.02,0,.04,0,.06,0h0c3.49.13,7,.31,10.37.51,0-.03.02-.06.02-.08.02-.09.05-.18.06-.28.01-.05.02-.1.03-.16.17.01.35.02.52.03,0-.03.01-.07.02-.11l.05-.41c-.17-.01-.35-.02-.52-.03Zm0,0c-6.97-.41-14.53-.75-21.35-.75-1.76,0-3.44.02-4.99.07-5.45.16-13.26.52-21.91.94h-.01c-.4.02-.8.04-1.2.06h-.02c-.77.04-1.55.08-2.33.12l-1.05.05c-1.07.05-2.16.11-3.25.16-17.31.86-36.94,1.83-46.93,1.83-2.38,0-4.16-.06-5.27-.16h0c-.2-.02-.4-.04-.6-.05l.25.54.25.55h0c.18.02.38.03.59.05,1.14.08,2.72.12,4.78.12,7.14,0,19.16-.5,31.75-1.09h0c2.32-.11,4.66-.22,6.98-.34h.01c1.01-.05,2.02-.1,3.03-.15h0c1.75-.09,3.49-.17,5.21-.26.95-.05,1.89-.09,2.83-.14h0c.25-.02.5-.05.75-.07.12-.01.24-.02.36-.03h0s.03-.02.05-.03c.03-.02.07-.05.09-.08.02-.02.03-.04.05-.06.02-.02.03-.05.04-.07.02-.05.04-.1.05-.15l2.31-.22h.02c.4-.02.8-.04,1.2-.06h0c.36-.02.71-.03,1.07-.05,8.26-.4,15.66-.74,20.9-.89,2.19-.06,4.48-.08,6.85-.06h.03s.03,0,.05,0c.24.01.47.02.7.04.49.03.96.06,1.43.1.22.02.45.03.67.05.24.02.47.04.71.06.77.07,1.54.14,2.29.21.38.03.75.07,1.13.1.62.05,1.23.11,1.84.16.02,0,.04,0,.06,0h0c3.49.13,7,.31,10.37.51,0-.03.02-.06.02-.08.02-.09.05-.18.06-.28.01-.05.02-.1.03-.16.17.01.35.02.52.03,0-.03.01-.07.02-.11l.05-.41c-.17-.01-.35-.02-.52-.03Zm0,0c-6.97-.41-14.53-.75-21.35-.75-1.76,0-3.44.02-4.99.07-5.45.16-13.26.52-21.91.94h-.01c-.4.02-.8.04-1.2.06h-.02c-.77.04-1.55.08-2.33.12l-1.05.05c-1.07.05-2.16.11-3.25.16-17.31.86-36.94,1.83-46.93,1.83-2.38,0-4.16-.06-5.27-.16h0c-.2-.02-.4-.04-.6-.05l.25.54.25.55h0c.18.02.38.03.59.05,1.14.08,2.72.12,4.78.12,7.14,0,19.16-.5,31.75-1.09h0c2.32-.11,4.66-.22,6.98-.34h.01c1.01-.05,2.02-.1,3.03-.15h0c1.75-.09,3.49-.17,5.21-.26.95-.05,1.89-.09,2.83-.14h0c.25-.02.5-.05.75-.07.12-.01.24-.02.36-.03h0s.03-.02.05-.03c.03-.02.07-.05.09-.08.02-.02.03-.04.05-.06.02-.02.03-.05.04-.07.02-.05.04-.1.05-.15l2.31-.22h.02c.4-.02.8-.04,1.2-.06h0c.36-.02.71-.03,1.07-.05,8.26-.4,15.66-.74,20.9-.89,2.19-.06,4.48-.08,6.85-.06h.03s.03,0,.05,0c.24.01.47.02.7.04.49.03.96.06,1.43.1.22.02.45.03.67.05.24.02.47.04.71.06.77.07,1.54.14,2.29.21.38.03.75.07,1.13.1.62.05,1.23.11,1.84.16.02,0,.04,0,.06,0h0c3.49.13,7,.31,10.37.51,0-.03.02-.06.02-.08.02-.09.05-.18.06-.28.01-.05.02-.1.03-.16.17.01.35.02.52.03,0-.03.01-.07.02-.11l.05-.41c-.17-.01-.35-.02-.52-.03Zm0,0c-6.97-.41-14.53-.75-21.35-.75-1.76,0-3.44.02-4.99.07-5.45.16-13.26.52-21.91.94h-.01c-.4.02-.8.04-1.2.06h-.02c-.77.04-1.55.08-2.33.12l-1.05.05c-1.07.05-2.16.11-3.25.16-17.31.86-36.94,1.83-46.93,1.83-2.38,0-4.16-.06-5.27-.16h0c-.2-.02-.4-.04-.6-.05l.25.54.25.55h0c.18.02.38.03.59.05,1.14.08,2.72.12,4.78.12,7.14,0,19.16-.5,31.75-1.09h0c2.32-.11,4.66-.22,6.98-.34h.01c1.01-.05,2.02-.1,3.03-.15h0c1.75-.09,3.49-.17,5.21-.26.95-.05,1.89-.09,2.83-.14h0c.25-.02.5-.05.75-.07.12-.01.24-.02.36-.03h0s.03-.02.05-.03c.03-.02.07-.05.09-.08.02-.02.03-.04.05-.06.02-.02.03-.05.04-.07.02-.05.04-.1.05-.15l2.31-.22h.02c.4-.02.8-.04,1.2-.06h0c.36-.02.71-.03,1.07-.05,8.26-.4,15.66-.74,20.9-.89,2.19-.06,4.48-.08,6.85-.06h.03s.03,0,.05,0c.24.01.47.02.7.04.49.03.96.06,1.43.1.22.02.45.03.67.05.24.02.47.04.71.06.77.07,1.54.14,2.29.21.38.03.75.07,1.13.1.62.05,1.23.11,1.84.16.02,0,.04,0,.06,0h0c3.49.13,7,.31,10.37.51,0-.03.02-.06.02-.08.02-.09.05-.18.06-.28.01-.05.02-.1.03-.16.17.01.35.02.52.03,0-.03.01-.07.02-.11l.05-.41c-.17-.01-.35-.02-.52-.03Zm31.42-14.19c-.2-6.7-3.18-12.13-8.62-15.69-4.88-3.2-11.62-4.89-19.51-4.89-5.98,0-12.44.99-18.67,2.87-3.15.95-6.57,1.43-10.17,1.43-13.88,0-27.33-7.04-33.08-10.05-.5-.27-.95-.5-1.33-.69C62.92,2.64,51.35,0,39.72,0,25.39,0,13.22,3.99,6.32,10.96,2.06,15.27-.06,20.53,0,26.58c.12,10.73,2.34,17.75,6.79,21.45,1.21,1.01,2.55,1.73,3.93,2.25.26.1.52.19.78.27.27.09.53.17.81.24,2.14.58,4.38.77,6.52.9.2.01.39.02.59.03.2.01.39.02.59.03.1,0,.21.01.31.01,1,.05,1.97.1,2.9.17.2.01.4.03.6.05h0c.18.02.38.03.59.05,1.14.08,2.72.12,4.78.12,7.14,0,19.16-.5,31.75-1.09h0c2.32-.11,4.66-.22,6.98-.34h.01c1.01-.05,2.02-.1,3.03-.15h0c1.75-.09,3.49-.17,5.21-.26.95-.05,1.89-.09,2.83-.14h0c.3-.01.6-.03.89-.05.97-.05,1.93-.09,2.88-.14h.01c.37-.02.74-.03,1.11-.06h0c.3-.01.6-.03.89-.04.21-.01.42-.02.63-.03,8.09-.39,15.35-.73,20.5-.87,1.54-.05,3.21-.07,4.96-.07.63,0,1.26,0,1.9.01h.02c2.88.02,5.87.1,8.88.22h0c3.49.13,7,.31,10.37.51.18.01.36.02.53.03s.36.02.53.03c.97.06,1.93.12,2.87.17.18.01.35.02.53.03.18.01.35.02.53.03,2.33.15,4.54.3,6.59.44,5.69.39,10.19.69,12.55.69.18,0,.35,0,.51,0,.26,0,.49-.02.68-.03.12-.01.22-.02.3-.04.12-.02.25-.03.39-.04.37-.02.78-.01,1.17.01.26.02.51.03.75.03.61,0,1.39-.09,2.03-.75.91-.94,1.56-2.93,1.7-8.51.05-1.96.03-4.37-.06-7.33Zm-3.68,15.55c-.22,0-.45-.01-.69-.03-.19-.01-.38-.02-.59-.03-.09,0-.17,0-.26,0-.12,0-.23,0-.34,0-.21.01-.41.03-.61.07-.01,0-.02,0-.03,0-.26.04-.69.06-1.29.06-2.33,0-6.81-.3-12.48-.69-2.03-.14-4.23-.29-6.53-.44-.17-.01-.35-.02-.52-.03-.17-.01-.35-.02-.52-.03-.93-.06-1.88-.12-2.84-.18-.17-.01-.35-.02-.52-.03-.17-.01-.35-.02-.52-.03-6.97-.41-14.53-.75-21.35-.75-1.76,0-3.44.02-4.99.07-5.45.16-13.26.52-21.91.94h-.01c-.4.02-.8.04-1.2.06h-.02c-.77.04-1.55.08-2.33.12l-1.05.05c-1.07.05-2.16.11-3.25.16-17.31.86-36.94,1.83-46.93,1.83-2.38,0-4.16-.06-5.27-.16h0c-.2-.02-.4-.04-.6-.05-.2-.02-.39-.03-.6-.05-.76-.06-1.54-.09-2.36-.13-.28-.01-.56-.03-.84-.04-.2-.01-.39-.02-.59-.03-.2-.01-.39-.02-.59-.03-2.35-.15-4.72-.41-6.92-1.2-.25-.09-.5-.18-.75-.29h0c-.25-.1-.5-.22-.74-.34-4.95-2.42-8.74-8.14-8.89-22.22-.02-1.92.19-3.76.63-5.51.28-1.1.65-2.16,1.1-3.19,1-2.24,2.43-4.3,4.29-6.18C13.77,4.93,25.67,1.05,39.72,1.05c11.47,0,22.87,2.59,32.1,7.31.38.2.82.43,1.32.69,5.81,3.04,19.43,10.17,33.57,10.17,3.7,0,7.22-.5,10.47-1.48,6.13-1.85,12.48-2.82,18.37-2.82,16.6,0,26.72,7.31,27.09,19.57.08,2.63.1,4.89.06,6.8,0,.36-.02.71-.03,1.05-.14,4.11-.59,6.42-1.38,7.24-.3.31-.66.43-1.28.43Zm-27.75-1.36c-6.97-.41-14.53-.75-21.35-.75-1.76,0-3.44.02-4.99.07-5.45.16-13.26.52-21.91.94h-.01c-.4.02-.8.04-1.2.06h-.02c-.77.04-1.55.08-2.33.12l-1.05.05c-1.07.05-2.16.11-3.25.16-17.31.86-36.94,1.83-46.93,1.83-2.38,0-4.16-.06-5.27-.16h0c-.2-.02-.4-.04-.6-.05l.25.54.25.55h0c.18.02.38.03.59.05,1.14.08,2.72.12,4.78.12,7.14,0,19.16-.5,31.75-1.09h0c2.32-.11,4.66-.22,6.98-.34h.01c1.01-.05,2.02-.1,3.03-.15h0c1.75-.09,3.49-.17,5.21-.26.95-.05,1.89-.09,2.83-.14h0c.25-.02.5-.05.75-.07.12-.01.24-.02.36-.03h0s.03-.02.05-.03c.03-.02.07-.05.09-.08.02-.02.03-.04.05-.06.02-.02.03-.05.04-.07.02-.05.04-.1.05-.15l2.31-.22h.02c.4-.02.8-.04,1.2-.06h0c.36-.02.71-.03,1.07-.05,8.26-.4,15.66-.74,20.9-.89,2.19-.06,4.48-.08,6.85-.06h.03s.03,0,.05,0c.24.01.47.02.7.04.49.03.96.06,1.43.1.22.02.45.03.67.05.24.02.47.04.71.06.77.07,1.54.14,2.29.21.38.03.75.07,1.13.1.62.05,1.23.11,1.84.16.02,0,.04,0,.06,0h0c3.49.13,7,.31,10.37.51,0-.03.02-.06.02-.08.02-.09.05-.18.06-.28.01-.05.02-.1.03-.16.17.01.35.02.52.03,0-.03.01-.07.02-.11l.05-.41c-.17-.01-.35-.02-.52-.03Zm0,0c-6.97-.41-14.53-.75-21.35-.75-1.76,0-3.44.02-4.99.07-5.45.16-13.26.52-21.91.94h-.01c-.4.02-.8.04-1.2.06h-.02c-.77.04-1.55.08-2.33.12l-1.05.05c-1.07.05-2.16.11-3.25.16-17.31.86-36.94,1.83-46.93,1.83-2.38,0-4.16-.06-5.27-.16h0c-.2-.02-.4-.04-.6-.05l.25.54.25.55h0c.18.02.38.03.59.05,1.14.08,2.72.12,4.78.12,7.14,0,19.16-.5,31.75-1.09h0c2.32-.11,4.66-.22,6.98-.34h.01c1.01-.05,2.02-.1,3.03-.15h0c1.75-.09,3.49-.17,5.21-.26.95-.05,1.89-.09,2.83-.14h0c.25-.02.5-.05.75-.07.12-.01.24-.02.36-.03h0s.03-.02.05-.03c.03-.02.07-.05.09-.08.02-.02.03-.04.05-.06.02-.02.03-.05.04-.07.02-.05.04-.1.05-.15l2.31-.22h.02c.4-.02.8-.04,1.2-.06h0c.36-.02.71-.03,1.07-.05,8.26-.4,15.66-.74,20.9-.89,2.19-.06,4.48-.08,6.85-.06h.03s.03,0,.05,0c.24.01.47.02.7.04.49.03.96.06,1.43.1.22.02.45.03.67.05.24.02.47.04.71.06.77.07,1.54.14,2.29.21.38.03.75.07,1.13.1.62.05,1.23.11,1.84.16.02,0,.04,0,.06,0h0c3.49.13,7,.31,10.37.51,0-.03.02-.06.02-.08.02-.09.05-.18.06-.28.01-.05.02-.1.03-.16.17.01.35.02.52.03,0-.03.01-.07.02-.11l.05-.41c-.17-.01-.35-.02-.52-.03Zm0,0c-6.97-.41-14.53-.75-21.35-.75-1.76,0-3.44.02-4.99.07-5.45.16-13.26.52-21.91.94h-.01c-.4.02-.8.04-1.2.06h-.02c-.77.04-1.55.08-2.33.12l-1.05.05c-1.07.05-2.16.11-3.25.16-17.31.86-36.94,1.83-46.93,1.83-2.38,0-4.16-.06-5.27-.16h0c-.2-.02-.4-.04-.6-.05l.25.54.25.55h0c.18.02.38.03.59.05,1.14.08,2.72.12,4.78.12,7.14,0,19.16-.5,31.75-1.09h0c2.32-.11,4.66-.22,6.98-.34h.01c1.01-.05,2.02-.1,3.03-.15h0c1.75-.09,3.49-.17,5.21-.26.95-.05,1.89-.09,2.83-.14h0c.25-.02.5-.05.75-.07.12-.01.24-.02.36-.03h0s.03-.02.05-.03c.03-.02.07-.05.09-.08.02-.02.03-.04.05-.06.02-.02.03-.05.04-.07.02-.05.04-.1.05-.15l2.31-.22h.02c.4-.02.8-.04,1.2-.06h0c.36-.02.71-.03,1.07-.05,8.26-.4,15.66-.74,20.9-.89,2.19-.06,4.48-.08,6.85-.06h.03s.03,0,.05,0c.24.01.47.02.7.04.49.03.96.06,1.43.1.22.02.45.03.67.05.24.02.47.04.71.06.77.07,1.54.14,2.29.21.38.03.75.07,1.13.1.62.05,1.23.11,1.84.16.02,0,.04,0,.06,0h0c3.49.13,7,.31,10.37.51,0-.03.02-.06.02-.08.02-.09.05-.18.06-.28.01-.05.02-.1.03-.16.17.01.35.02.52.03,0-.03.01-.07.02-.11l.05-.41c-.17-.01-.35-.02-.52-.03Zm0,0c-6.97-.41-14.53-.75-21.35-.75-1.76,0-3.44.02-4.99.07-5.45.16-13.26.52-21.91.94h-.01c-.4.02-.8.04-1.2.06h-.02c-.77.04-1.55.08-2.33.12l-1.05.05c-1.07.05-2.16.11-3.25.16-17.31.86-36.94,1.83-46.93,1.83-2.38,0-4.16-.06-5.27-.16h0c-.2-.02-.4-.04-.6-.05l.25.54.25.55h0c.18.02.38.03.59.05,1.14.08,2.72.12,4.78.12,7.14,0,19.16-.5,31.75-1.09h0c2.32-.11,4.66-.22,6.98-.34h.01c1.01-.05,2.02-.1,3.03-.15h0c1.75-.09,3.49-.17,5.21-.26.95-.05,1.89-.09,2.83-.14h0c.25-.02.5-.05.75-.07.12-.01.24-.02.36-.03h0s.03-.02.05-.03c.03-.02.07-.05.09-.08.02-.02.03-.04.05-.06.02-.02.03-.05.04-.07.02-.05.04-.1.05-.15l2.31-.22h.02c.4-.02.8-.04,1.2-.06h0c.36-.02.71-.03,1.07-.05,8.26-.4,15.66-.74,20.9-.89,2.19-.06,4.48-.08,6.85-.06h.03s.03,0,.05,0c.24.01.47.02.7.04.49.03.96.06,1.43.1.22.02.45.03.67.05.24.02.47.04.71.06.77.07,1.54.14,2.29.21.38.03.75.07,1.13.1.62.05,1.23.11,1.84.16.02,0,.04,0,.06,0h0c3.49.13,7,.31,10.37.51,0-.03.02-.06.02-.08.02-.09.05-.18.06-.28.01-.05.02-.1.03-.16.17.01.35.02.52.03,0-.03.01-.07.02-.11l.05-.41c-.17-.01-.35-.02-.52-.03Zm0,0c-6.97-.41-14.53-.75-21.35-.75-1.76,0-3.44.02-4.99.07-5.45.16-13.26.52-21.91.94h-.01c-.4.02-.8.04-1.2.06h-.02c-.77.04-1.55.08-2.33.12l-1.05.05c-1.07.05-2.16.11-3.25.16-17.31.86-36.94,1.83-46.93,1.83-2.38,0-4.16-.06-5.27-.16h0c-.2-.02-.4-.04-.6-.05l.25.54.25.55h0c.18.02.38.03.59.05,1.14.08,2.72.12,4.78.12,7.14,0,19.16-.5,31.75-1.09h0c2.32-.11,4.66-.22,6.98-.34h.01c1.01-.05,2.02-.1,3.03-.15h0c1.75-.09,3.49-.17,5.21-.26.95-.05,1.89-.09,2.83-.14h0c.25-.02.5-.05.75-.07.12-.01.24-.02.36-.03h0s.03-.02.05-.03c.03-.02.07-.05.09-.08.02-.02.03-.04.05-.06.02-.02.03-.05.04-.07.02-.05.04-.1.05-.15l2.31-.22h.02c.4-.02.8-.04,1.2-.06h0c.36-.02.71-.03,1.07-.05,8.26-.4,15.66-.74,20.9-.89,2.19-.06,4.48-.08,6.85-.06h.03s.03,0,.05,0c.24.01.47.02.7.04.49.03.96.06,1.43.1.22.02.45.03.67.05.24.02.47.04.71.06.77.07,1.54.14,2.29.21.38.03.75.07,1.13.1.62.05,1.23.11,1.84.16.02,0,.04,0,.06,0h0c3.49.13,7,.31,10.37.51,0-.03.02-.06.02-.08.02-.09.05-.18.06-.28.01-.05.02-.1.03-.16.17.01.35.02.52.03,0-.03.01-.07.02-.11l.05-.41c-.17-.01-.35-.02-.52-.03Zm0,0c-6.97-.41-14.53-.75-21.35-.75-1.76,0-3.44.02-4.99.07-5.45.16-13.26.52-21.91.94h-.01c-.4.02-.8.04-1.2.06h-.02c-.77.04-1.55.08-2.33.12l-1.05.05c-1.07.05-2.16.11-3.25.16-17.31.86-36.94,1.83-46.93,1.83-2.38,0-4.16-.06-5.27-.16h0c-.2-.02-.4-.04-.6-.05l.25.54.25.55h0c.18.02.38.03.59.05,1.14.08,2.72.12,4.78.12,7.14,0,19.16-.5,31.75-1.09h0c2.32-.11,4.66-.22,6.98-.34h.01c1.01-.05,2.02-.1,3.03-.15h0c1.75-.09,3.49-.17,5.21-.26.95-.05,1.89-.09,2.83-.14h0c.25-.02.5-.05.75-.07.12-.01.24-.02.36-.03h0s.03-.02.05-.03c.03-.02.07-.05.09-.08.02-.02.03-.04.05-.06.02-.02.03-.05.04-.07.02-.05.04-.1.05-.15l2.31-.22h.02c.4-.02.8-.04,1.2-.06h0c.36-.02.71-.03,1.07-.05,8.26-.4,15.66-.74,20.9-.89,2.19-.06,4.48-.08,6.85-.06h.03s.03,0,.05,0c.24.01.47.02.7.04.49.03.96.06,1.43.1.22.02.45.03.67.05.24.02.47.04.71.06.77.07,1.54.14,2.29.21.38.03.75.07,1.13.1.62.05,1.23.11,1.84.16.02,0,.04,0,.06,0h0c3.49.13,7,.31,10.37.51,0-.03.02-.06.02-.08.02-.09.05-.18.06-.28.01-.05.02-.1.03-.16.17.01.35.02.52.03,0-.03.01-.07.02-.11l.05-.41c-.17-.01-.35-.02-.52-.03Zm0,0c-6.97-.41-14.53-.75-21.35-.75-1.76,0-3.44.02-4.99.07-5.45.16-13.26.52-21.91.94h-.01c-.4.02-.8.04-1.2.06h-.02c-.77.04-1.55.08-2.33.12l-1.05.05c-1.07.05-2.16.11-3.25.16-17.31.86-36.94,1.83-46.93,1.83-2.38,0-4.16-.06-5.27-.16h0c-.2-.02-.4-.04-.6-.05l.25.54.25.55h0c.18.02.38.03.59.05,1.14.08,2.72.12,4.78.12,7.14,0,19.16-.5,31.75-1.09h0c2.32-.11,4.66-.22,6.98-.34h.01c1.01-.05,2.02-.1,3.03-.15h0c1.75-.09,3.49-.17,5.21-.26.95-.05,1.89-.09,2.83-.14h0c.25-.02.5-.05.75-.07.12-.01.24-.02.36-.03h0s.03-.02.05-.03c.03-.02.07-.05.09-.08.02-.02.03-.04.05-.06.02-.02.03-.05.04-.07.02-.05.04-.1.05-.15l2.31-.22h.02c.4-.02.8-.04,1.2-.06h0c.36-.02.71-.03,1.07-.05,8.26-.4,15.66-.74,20.9-.89,2.19-.06,4.48-.08,6.85-.06h.03s.03,0,.05,0c.24.01.47.02.7.04.49.03.96.06,1.43.1.22.02.45.03.67.05.24.02.47.04.71.06.77.07,1.54.14,2.29.21.38.03.75.07,1.13.1.62.05,1.23.11,1.84.16.02,0,.04,0,.06,0h0c3.49.13,7,.31,10.37.51,0-.03.02-.06.02-.08.02-.09.05-.18.06-.28.01-.05.02-.1.03-.16.17.01.35.02.52.03,0-.03.01-.07.02-.11l.05-.41c-.17-.01-.35-.02-.52-.03Zm0,0c-6.97-.41-14.53-.75-21.35-.75-1.76,0-3.44.02-4.99.07-5.45.16-13.26.52-21.91.94h-.01c-.4.02-.8.04-1.2.06h-.02c-.77.04-1.55.08-2.33.12l-1.05.05c-1.07.05-2.16.11-3.25.16-17.31.86-36.94,1.83-46.93,1.83-2.38,0-4.16-.06-5.27-.16h0c-.2-.02-.4-.04-.6-.05l.25.54.25.55h0c.18.02.38.03.59.05,1.14.08,2.72.12,4.78.12,7.14,0,19.16-.5,31.75-1.09h0c2.32-.11,4.66-.22,6.98-.34h.01c1.01-.05,2.02-.1,3.03-.15h0c1.75-.09,3.49-.17,5.21-.26.95-.05,1.89-.09,2.83-.14h0c.25-.02.5-.05.75-.07.12-.01.24-.02.36-.03h0s.03-.02.05-.03c.03-.02.07-.05.09-.08.02-.02.03-.04.05-.06.02-.02.03-.05.04-.07.02-.05.04-.1.05-.15l2.31-.22h.02c.4-.02.8-.04,1.2-.06h0c.36-.02.71-.03,1.07-.05,8.26-.4,15.66-.74,20.9-.89,2.19-.06,4.48-.08,6.85-.06h.03s.03,0,.05,0c.24.01.47.02.7.04.49.03.96.06,1.43.1.22.02.45.03.67.05.24.02.47.04.71.06.77.07,1.54.14,2.29.21.38.03.75.07,1.13.1.62.05,1.23.11,1.84.16.02,0,.04,0,.06,0h0c3.49.13,7,.31,10.37.51,0-.03.02-.06.02-.08.02-.09.05-.18.06-.28.01-.05.02-.1.03-.16.17.01.35.02.52.03,0-.03.01-.07.02-.11l.05-.41c-.17-.01-.35-.02-.52-.03Zm0,0c-6.97-.41-14.53-.75-21.35-.75-1.76,0-3.44.02-4.99.07-5.45.16-13.26.52-21.91.94h-.01c-.4.02-.8.04-1.2.06h-.02c-.77.04-1.55.08-2.33.12l-1.05.05c-1.07.05-2.16.11-3.25.16-17.31.86-36.94,1.83-46.93,1.83-2.38,0-4.16-.06-5.27-.16h0c-.2-.02-.4-.04-.6-.05l.25.54.25.55h0c.18.02.38.03.59.05,1.14.08,2.72.12,4.78.12,7.14,0,19.16-.5,31.75-1.09h0c2.32-.11,4.66-.22,6.98-.34h.01c1.01-.05,2.02-.1,3.03-.15h0c1.75-.09,3.49-.17,5.21-.26.95-.05,1.89-.09,2.83-.14h0c.25-.02.5-.05.75-.07.12-.01.24-.02.36-.03h0s.03-.02.05-.03c.03-.02.07-.05.09-.08.02-.02.03-.04.05-.06.02-.02.03-.05.04-.07.02-.05.04-.1.05-.15l2.31-.22h.02c.4-.02.8-.04,1.2-.06h0c.36-.02.71-.03,1.07-.05,8.26-.4,15.66-.74,20.9-.89,2.19-.06,4.48-.08,6.85-.06h.03s.03,0,.05,0c.24.01.47.02.7.04.49.03.96.06,1.43.1.22.02.45.03.67.05.24.02.47.04.71.06.77.07,1.54.14,2.29.21.38.03.75.07,1.13.1.62.05,1.23.11,1.84.16.02,0,.04,0,.06,0h0c3.49.13,7,.31,10.37.51,0-.03.02-.06.02-.08.02-.09.05-.18.06-.28.01-.05.02-.1.03-.16.17.01.35.02.52.03,0-.03.01-.07.02-.11l.05-.41c-.17-.01-.35-.02-.52-.03Z"/>
          <path class="cls-2" d="m162.69,41.28c-4.14,0-27.93-2.45-43.24-5.29-14.63-2.71-38.25-1.44-41.47-1.26-1.72-3.65-4.35-5.65-7.91-6.05-2.86-.32-7.55,0-13.5.4-10.45.7-24.77,1.66-37.87-.39-10.77-1.69-14.46-4.77-15.66-7.06-1.06-2.02-.31-3.63-.28-3.7,0-.02.01-.03.02-.05,1-2.24,2.43-4.3,4.29-6.18C13.77,4.93,25.67,1.05,39.72,1.05c11.47,0,22.87,2.59,32.1,7.31.38.2.82.43,1.32.69,5.81,3.04,19.43,10.17,33.57,10.17,3.7,0,7.22-.5,10.47-1.48,6.13-1.85,12.48-2.82,18.37-2.82,16.6,0,26.72,7.31,27.09,19.57.08,2.63.1,4.89.06,6.8Z"/>
        </g>
        <path class="cls-2" d="m80.43,49.53v.08s0,.06,0,.08c-.03.17-.14.32-.29.39h0c-.07.03-.14.05-.22.05-.05,0-.09,0-.14-.02-.16-.04-.3-.17-.35-.33-.02-.05-.03-.09-.03-.15,0,0,0-.01,0-.02h0c0-.13,0-.24,0-.36v-.15c-.02-2.07-.12-3.98-.31-5.71-.02-.17-.04-.35-.06-.52-.02-.18-.04-.35-.07-.53-.36-2.73-.95-5.01-1.77-6.85,0,0,0-.01-.01-.02-1.56-3.5-3.96-5.41-7.21-5.77-2.76-.31-7.42,0-13.31.4-10.5.7-24.89,1.67-38.1-.41-9.02-1.42-14.56-3.99-16.45-7.64-.18-.35-.32-.69-.42-1.01-.12-.39-.19-.77-.23-1.12-.14-1.43.34-2.42.37-2.48.13-.25.44-.36.69-.24,0,0,0,0,.01,0,.24.12.35.4.26.65,0,.02-.01.03-.02.05-.03.07-.78,1.68.28,3.7,1.2,2.29,4.89,5.37,15.66,7.06,13.1,2.06,27.41,1.1,37.87.39,5.95-.4,10.64-.71,13.5-.4,3.56.4,6.19,2.4,7.91,6.05.15.33.3.67.44,1.03.73,1.84,1.25,4.05,1.59,6.62l.06.52c.02.17.04.35.06.53.18,1.73.28,3.61.3,5.64v.1c0,.12,0,.24,0,.36Z"/>
        <path class="cls-2" d="m163.73,41.78c0,.26-.2.49-.47.52-.02,0-.05,0-.07,0-.13.01-.31.02-.53.02h-.01c-2.98,0-13.39-1-24.4-2.42-.17-.02-.35-.05-.52-.07-1.28-.17-2.57-.34-3.86-.52-.17-.02-.35-.05-.52-.07-4.99-.69-9.9-1.45-14.1-2.23-14.04-2.6-36.5-1.5-40.84-1.26-.46.03-.71.04-.74.05-.22.02-.41-.11-.5-.29,0,0,0-.01-.01-.02-.02-.05-.04-.11-.04-.17-.02-.29.2-.54.49-.56.02,0,.14-.01.37-.02,3.22-.19,26.84-1.45,41.47,1.26,15.31,2.84,39.1,5.29,43.24,5.29.2,0,.35,0,.46-.02.02,0,.05,0,.07,0,.26,0,.48.2.51.46,0,.02,0,.04,0,.06Z"/>
      </g>
      <path class="cls-3" d="m84.3,60.27s1.46.03,2.07-.69c0,0,2.48,1.68,3.48,5.43,1,3.75,4.36,20.44,4.36,20.44h-2.4s-3.97-19.66-4.8-21.14c-.83-1.48-2.72-4.05-2.72-4.05Z"/>
      <path class="cls-3" d="m83.23,60.85s1.12,1.37,1.98,2.81c.86,1.44.81,2.09,1.47,4.93.65,2.83,3.49,17.13,3.49,17.13h-.9s-3.78-19.83-4.05-20.66c-.28-.83-2.91-3.83-2.91-3.83,0,0,.98-.06.94-.38Z"/>
      <path class="cls-3" d="m153.02,21.53c-1.38-.66-3.91-2.35-6.86-2.8-2.95-.45-4.13.09-5.38.47-.93.28-2.32.98,2.11,2.95s6.97,1.63,9.27,2.67c2.3,1.04,4.62,4.9,4.54,2.31-.08-2.59-2.55-5.05-3.68-5.6Z"/>
      <path class="cls-3" d="m117.32,22.36c-5.12-.01-14.65,1.51-24.64-1.86-10-3.37-26.95-11.51-28.59-12.44s-17.27-4.3-25.32-3.49c-8.05.81-23.63,3.73-26.88,8.95-3.25,5.23,9.65,4.41,18.48,4.65,8.83.23,19.65-2.44,24.99-3.72s7.77-1.63,14.75,1.98c6.98,3.6,23.72,9.07,32.21,9.07s17.21-3.13,15-3.14Z"/>
      <path class="cls-2" d="m161.14,48.19l.21-3.62c.04-.74-.52-1.37-1.26-1.41l-4.83-.28c-3.71-.22-8.65-.55-13.57-.92-4.92-.38-9.82-.81-13.42-1.22-.45-.05-.88-.1-1.29-.14-.4-.05-.78-.1-1.14-.15-.71-.09-1.35-.17-1.83-.25-.99-.15-1.55-.23-1.55-.23,0,0,.34.08.94.21.3.07.66.15,1.08.24.44.09.93.18,1.47.29,1.07.22,2.37.43,3.75.68,1.4.23,2.88.48,4.38.71,3,.47,6.03.9,8.3,1.22,2.28.31,3.79.52,3.79.52,0,0-1.53-.05-3.83-.13-2.3-.09-5.37-.21-8.42-.38-1.53-.07-3.06-.18-4.49-.26-1.42-.11-2.76-.19-3.9-.3-.57-.05-1.09-.1-1.55-.14-.46-.05-.85-.1-1.18-.13-.66-.07-1.03-.12-1.03-.12,0,0,.37.07,1.01.18.32.06.72.13,1.17.21.46.07.97.15,1.53.24,1.12.19,2.45.35,3.87.56,1.42.18,2.94.38,4.46.56,3.04.37,6.1.69,8.39.93,2.29.23,3.82.38,3.82.38,0,0-1.54-.03-3.85-.09-2.31-.06-5.4-.14-8.49-.28-1.55-.06-3.09-.14-4.55-.21-1.45-.09-2.81-.16-3.98-.26-.59-.05-1.12-.09-1.6-.12-.48-.05-.9-.09-1.24-.13-.69-.07-1.09-.11-1.09-.11,0,0,.39.07,1.07.19.34.06.75.13,1.23.21.47.07,1,.15,1.58.24,1.16.18,2.5.35,3.95.54,1.44.17,2.98.37,4.52.54,3.08.35,6.15.66,8.46.89,2.31.22,3.84.36,3.84.36,0,0-1.52-.02-3.8-.06-2.28-.05-5.33-.11-8.39-.22-1.53-.05-3.07-.12-4.51-.18-.72-.03-1.43-.08-2.09-.11-.67-.04-1.3-.07-1.89-.12-1.18-.09-2.16-.15-2.88-.23-.71-.07-1.12-.11-1.12-.11,0,0,.65.1,1.8.27,1.12.15,2.72.36,4.6.56,3.77.42,8.73.85,13.69,1.23,4.95.38,9.9.7,13.61.92,2.08.12,3.78.22,4.86.28.74.04,1.37-.52,1.41-1.26Z"/>
      <path class="cls-2" d="m80.18,36.77l1.34,11.17s5.89-.26,11.77-.53c2.93-.15,5.92-.21,8.14-.29,2.23-.07,3.71-.11,3.71-.11,0,0-3.69-.54-7.38-1.08-1.85-.28-3.68-.51-5.06-.7-1.38-.18-2.3-.3-2.3-.3,0,0,.91-.14,2.28-.34,1.37-.2,3.19-.49,5.02-.73,3.67-.5,7.34-.99,7.34-.99,0,0-3.69-.18-7.38-.35-1.85-.1-3.69-.15-5.08-.2-1.39-.05-2.31-.08-2.31-.08,0,0,.92-.17,2.29-.43,1.37-.25,3.21-.61,5.04-.91,3.67-.63,7.35-1.26,7.35-1.26,0,0-3.7-.12-7.4-.23-1.85-.07-3.71-.09-5.1-.12-1.39-.02-2.32-.04-2.32-.04,0,0,.9-.18,2.26-.46,1.36-.27,3.17-.66,4.97-.99,3.61-.69,7.22-1.37,7.22-1.37,0,0-1.48.05-3.7.11-2.23.07-5.23-.3-8.22-.14-5.97.27-12.48.37-12.48.37Z"/>
      <path class="cls-2" d="m40.78,50.11c-.85-.03-2.05-.09-3.48-.18-2.86-.19-6.66-.55-10.43-1.12-3.77-.56-7.51-1.34-10.28-2.09-1.38-.37-2.53-.72-3.32-.98-.4-.13-.71-.23-.92-.31-.21-.07-.33-.11-.33-.11,0,0,.12.03.34.08.22.05.54.13.95.21.82.18,1.99.42,3.39.65,2.81.47,6.57.87,10.31,1.05,3.75.19,7.48.17,10.28.07,1.4-.05,2.56-.11,3.38-.16.82-.06,1.29-.09,1.29-.09,0,0-.12,0-.34,0-.22,0-.54,0-.95,0-.82,0-1.98-.02-3.37-.06-2.79-.09-6.5-.31-10.18-.74-3.69-.42-7.34-1.06-10.03-1.69-1.35-.31-2.46-.61-3.23-.84-.39-.11-.69-.2-.89-.26-.21-.06-.32-.1-.32-.1,0,0,.11.02.32.07.21.05.52.12.92.19.79.16,1.92.37,3.29.57,2.73.41,6.39.76,10.06.88,3.67.13,7.33.06,10.07-.07,1.37-.07,2.5-.14,3.29-.2.39-.03.7-.06.91-.08.2-.02.31-.03.31-.03,0,0-.45,0-1.22.01-.79,0-1.93,0-3.29-.04-2.73-.07-6.36-.27-9.96-.67-3.6-.39-7.15-.99-9.75-1.59-1.3-.29-2.37-.58-3.11-.79-.37-.1-.66-.19-.86-.25-.2-.06-.3-.09-.3-.09,0,0,.11.02.3.06.2.04.49.1.86.17.74.15,1.81.33,3.1.52,2.58.37,6.07.68,9.59.77,3.51.11,7.03.02,9.66-.12,1.31-.07,2.4-.15,3.16-.21.75-.07,1.17-.1,1.17-.1,0,0-.69.03-1.93.04-1.24.02-3.02.02-5.16-.05-4.27-.13-9.98-.53-15.42-1.58-2.72-.52-5.36-1.2-7.67-2.03-1.38-.49-2.62-1.04-3.71-1.6,2.61.86,5.37,1.53,8.12,2.05,6.23,1.16,12.42,1.57,17.07,1.69,2.32.06,4.26.05,5.62.03.68-.01,1.22-.03,1.6-.04.4-.02.61-.02.61-.02-.03,0-.53,0-1.38-.03-.85-.03-2.05-.09-3.48-.18-2.86-.19-6.66-.55-10.43-1.12-3.77-.56-7.51-1.34-10.28-2.09-1.38-.37-2.53-.72-3.32-.98-.4-.13-.71-.23-.92-.31-.21-.07-.33-.11-.33-.11,0,0,.12.03.34.08.22.05.54.13.95.21.82.18,1.99.42,3.39.65,2.81.47,6.57.87,10.31,1.05,3.75.19,7.48.17,10.28.07,1.4-.05,2.56-.11,3.38-.16.82-.06,1.29-.09,1.29-.09,0,0-.12,0-.34,0-.22,0-.54,0-.95,0-.82,0-1.98-.02-3.37-.06-2.79-.09-6.5-.31-10.18-.74-3.69-.42-7.34-1.06-10.03-1.69-1.35-.31-2.46-.61-3.23-.84-.39-.11-.69-.2-.89-.26-.21-.06-.32-.1-.32-.1,0,0,.11.02.32.07.21.05.52.12.92.19.79.16,1.92.37,3.29.57,2.73.41,6.39.76,10.06.88,3.67.13,7.33.06,10.07-.07,1.37-.07,2.5-.14,3.29-.2.39-.03.7-.06.91-.08.2-.02.31-.03.31-.03,0,0-.45,0-1.22.01-.79,0-1.93,0-3.29-.04-2.73-.07-6.36-.27-9.96-.67-3.6-.39-7.15-.99-9.75-1.59-1.3-.29-2.37-.58-3.11-.79-.37-.1-.66-.19-.86-.25-.2-.06-.3-.09-.3-.09,0,0,.11.02.3.06.2.04.49.1.86.17.74.15,1.81.33,3.1.52,2.58.37,6.07.68,9.59.77,3.51.11,7.03.02,9.66-.12,1.31-.07,2.4-.15,3.16-.21.75-.07,1.17-.1,1.17-.1,0,0-.69.03-1.93.04-1.24.02-3.02.02-5.16-.05-4.27-.13-9.98-.53-15.42-1.58-2.72-.52-5.36-1.2-7.67-2.03-2.31-.82-4.27-1.8-5.7-2.78-.38-.26-.71-.51-1.02-.76-.44,4.65-.31,13.83,6.12,20.09,2.8.97,5.79,1.71,8.78,2.27,6.23,1.16,12.42,1.57,17.07,1.69,2.32.06,4.26.05,5.62.03.68-.01,1.22-.03,1.6-.04.4-.02.61-.02.61-.02-.03,0-.53,0-1.38-.03Z"/>
      <path class="cls-3" d="m158.48,35.99c-1.49.14-2.93.56-4.43.72-1.72.18-3.45.14-5.17.08-3.43-.12-6.85-.45-10.27-.74-.12-.01-.14.18-.02.2,3.4.65,6.86.99,10.31,1.23,3.08.21,6.94.64,9.81-.74.36-.17.17-.78-.22-.74Z"/>
      <path class="cls-3" d="m159.42,31.45c-.16-.34-.3-.74-.68-.87-.15-.05-.29.1-.3.24-.01.36.3.65.49.93.22.33.46.65.67.98.06.1.21.03.18-.08-.09-.42-.18-.8-.37-1.2Z"/>
      <path class="cls-3" d="m119.72,19.05c-2.33.75-4.72.83-7.15.99-2.49.17-4.97.33-7.46.39-4.96.12-9.9-.57-14.43-2.68-.09-.04-.15.08-.07.13,4.21,2.47,9.02,3.21,13.83,3.3,2.72.05,5.43-.21,8.14-.45,2.44-.22,4.9-.56,7.19-1.47.13-.05.08-.25-.06-.21Z"/>
      <path class="cls-3" d="m50.71,3.04c-8.4-.91-16.89-1.42-25.1.98-3.77,1.1-7.42,2.91-10.85,4.81-3.21,1.78-6.02,4.07-7.99,7.19-.08.13.12.27.22.15,2.41-2.87,5.52-4.99,8.77-6.79,3.39-1.87,6.99-3.54,10.69-4.67,7.77-2.37,16.24-1.98,24.25-1.5.11,0,.1-.16,0-.17Z"/>
      <path class="cls-3" d="m81.9,68.44c-1.42.26-2.89.31-4.3.61-.2.04-.14.35.05.35,1.43.02,2.93-.44,4.28-.84.08-.02.04-.13-.03-.12Z"/>
      <path class="cls-3" d="m81.02,69.78c-.95.18-1.88.22-2.85.28-.27.02-.27.44,0,.43.97-.06,1.95-.3,2.89-.55.11-.03.06-.18-.05-.16Z"/>
      <path class="cls-3" d="m80.61,71.31c-.36.02-.72.05-1.08.07-.31.02-.68-.03-.97.1-.12.05-.16.26,0,.29.29.05.56-.05.85-.1l1.22-.21c.08-.01.06-.15-.02-.14Z"/>
      <path class="cls-3" d="m80.26,72.77c-.3.03-.6.05-.89.08-.29.03-.57,0-.84.13-.11.05-.08.25.04.27.25.04.47-.03.71-.1.33-.09.67-.14,1-.21.09-.02.07-.17-.02-.17Z"/>
      <path class="cls-3" d="m80.43,73.96c-.17.01-.34.02-.52.04-.17.01-.35,0-.5.08-.1.05-.06.21.04.23.16.04.32-.01.47-.03.17-.03.34-.05.52-.08.15-.02.15-.25,0-.23Z"/>
      <path class="cls-3" d="m73.31,62.53c-.62.84-1.82,1.7-2.93,1.55-.45-.06-.38.63.01.51.61-.18,1.18-.31,1.73-.65.53-.33.96-.81,1.28-1.35.03-.05-.05-.12-.09-.07Z"/>
      <path class="cls-3" d="m74.29,63.34c-.39.61-1.06,1.08-1.79,1.19-.32.05-.24.52.07.44.84-.22,1.49-.76,1.82-1.57.03-.07-.06-.12-.1-.05Z"/>
      <path class="cls-3" d="m76.12,63.84c-.25.26-.53.48-.84.66-.35.21-.72.27-1.1.39-.29.09-.17.52.13.46.76-.17,1.46-.82,1.88-1.44.03-.05-.04-.1-.08-.06Z"/>
      <path class="cls-3" d="m77.19,64.81c-.57.27-1.18.5-1.81.58-.37.05-.22.58.07.46.63-.27,1.23-.57,1.79-.96.05-.03,0-.1-.05-.08Z"/>
      <path class="cls-3" d="m77.98,66.02c-.54.09-1.11.2-1.66.23-.33.01-.22.54.11.39.5-.22,1.05-.37,1.57-.54.05-.02.03-.09-.02-.08Z"/>
      <path class="cls-3" d="m77.9,67.18c-.16.04-.32.08-.49.11-.18.04-.38,0-.53.1-.12.08-.07.25.08.26.16.01.29-.1.43-.17.17-.08.36-.13.54-.19.07-.02.04-.13-.03-.11Z"/>
      <path class="cls-3" d="m55.86,16.42c-1.53-.37-3.21.32-4.6.93-.45.2-.26.94.22.75,1.43-.57,3.05-.72,4.43-1.4.12-.06.08-.25-.04-.28Z"/>
      <path class="cls-3" d="m123.14,23.62c-.87-.03-1.72.14-2.57.3-.97.18-1.96.3-2.87.7-.15.07-.05.26.08.27.87.09,1.72-.08,2.58-.21.97-.15,1.94-.26,2.85-.63.23-.09.2-.42-.07-.43Z"/>
      <path class="cls-3" d="m142.91,17.04c-1.39-.15-2.78-.11-4.14.24-.66.17-1.3.43-1.95.63-.86.27-1.84.13-2.73.35-.25.07-.18.43.07.44,1.33.02,2.62.29,3.91-.13,1.67-.55,3.01-1.19,4.81-1.33.1,0,.14-.18.02-.19Z"/>
    </g>
  </g>
</svg>