<svg width="84" height="25" viewBox="0 0 84 25" fill="none" xmlns="http://www.w3.org/2000/svg">
<path d="M0.702524 4.75635H2.92252L4.36252 15.6163H4.40252L5.84252 4.75635H7.86252L5.74252 18.7563H2.82252L0.702524 4.75635ZM8.91924 4.75635H11.1192V18.7563H8.91924V4.75635ZM12.7669 4.75635H18.7669V6.75635H14.9669V10.4563H17.9869V12.4563H14.9669V16.7563H18.7669V18.7563H12.7669V4.75635ZM19.5125 4.75635H21.6325L22.6125 15.5163H22.6525L23.6925 4.75635H26.0925L27.1325 15.5163H27.1725L28.1525 4.75635H30.0525L28.6325 18.7563H25.8925L24.8925 9.31635H24.8525L23.8525 18.7563H20.9325L19.5125 4.75635ZM37.4685 18.9563C36.4151 18.9563 35.6085 18.6563 35.0485 18.0563C34.5018 17.4563 34.2285 16.6097 34.2285 15.5163V7.99635C34.2285 6.90301 34.5018 6.05635 35.0485 5.45635C35.6085 4.85635 36.4151 4.55635 37.4685 4.55635C38.5218 4.55635 39.3218 4.85635 39.8685 5.45635C40.4285 6.05635 40.7085 6.90301 40.7085 7.99635V9.47635H38.6285V7.85635C38.6285 6.98968 38.2618 6.55635 37.5285 6.55635C36.7951 6.55635 36.4285 6.98968 36.4285 7.85635V15.6763C36.4285 16.5297 36.7951 16.9563 37.5285 16.9563C38.2618 16.9563 38.6285 16.5297 38.6285 15.6763V13.5363H40.7085V15.5163C40.7085 16.6097 40.4285 17.4563 39.8685 18.0563C39.3218 18.6563 38.5218 18.9563 37.4685 18.9563ZM43.7247 4.75635H46.7047L48.9847 18.7563H46.7847L46.3847 15.9763V16.0163H43.8847L43.4847 18.7563H41.4447L43.7247 4.75635ZM46.1247 14.1163L45.1447 7.19635H45.1047L44.1447 14.1163H46.1247ZM50.0521 4.75635H53.3121C54.4454 4.75635 55.2721 5.02301 55.7921 5.55635C56.3121 6.07635 56.5721 6.88301 56.5721 7.97635V8.83635C56.5721 10.2897 56.0921 11.2097 55.1321 11.5963V11.6363C55.6654 11.7963 56.0387 12.123 56.2521 12.6163C56.4787 13.1097 56.5921 13.7697 56.5921 14.5963V17.0563C56.5921 17.4563 56.6054 17.783 56.6321 18.0363C56.6587 18.2763 56.7254 18.5163 56.8321 18.7563H54.5921C54.5121 18.5297 54.4587 18.3163 54.4321 18.1163C54.4054 17.9163 54.3921 17.5563 54.3921 17.0363V14.4763C54.3921 13.8363 54.2854 13.3897 54.0721 13.1363C53.8721 12.883 53.5187 12.7563 53.0121 12.7563H52.2521V18.7563H50.0521V4.75635ZM53.0521 10.7563C53.4921 10.7563 53.8187 10.643 54.0321 10.4163C54.2587 10.1897 54.3721 9.80968 54.3721 9.27635V8.19635C54.3721 7.68968 54.2787 7.32301 54.0921 7.09635C53.9187 6.86968 53.6387 6.75635 53.2521 6.75635H52.2521V10.7563H53.0521ZM58.1185 4.75635H61.4785C62.5718 4.75635 63.3918 5.04968 63.9385 5.63635C64.4851 6.22301 64.7585 7.08301 64.7585 8.21635V15.2963C64.7585 16.4297 64.4851 17.2897 63.9385 17.8763C63.3918 18.463 62.5718 18.7563 61.4785 18.7563H58.1185V4.75635ZM61.4385 16.7563C61.7985 16.7563 62.0718 16.6497 62.2585 16.4363C62.4585 16.223 62.5585 15.8763 62.5585 15.3963V8.11635C62.5585 7.63635 62.4585 7.28968 62.2585 7.07635C62.0718 6.86301 61.7985 6.75635 61.4385 6.75635H60.3185V16.7563H61.4385Z" fill="#523333"/>
<path d="M83.7731 11.5687L75.9375 19.4437L75.9375 3.69373L83.7731 11.5687Z" fill="#523333"/>
</svg>
