<?xml version="1.0" encoding="UTF-8"?>
<svg id="Livello_1" data-name="Livello 1" xmlns="http://www.w3.org/2000/svg" viewBox="0 0 305.27 346.64">
  <defs>
    <style>
      .cls-1 {
        fill: #523333;
        stroke: #523333;
        stroke-miterlimit: 10;
        stroke-width: 2px;
      }
    </style>
  </defs>
  <g>
    <path class="cls-1" d="m65.07,141.06c-7.18-7.27-21.55-10.38-30.21-3.86-.4.3.09.72.43.66,4.87-.73,9.33-1.31,14.2-.21,4.71,1.06,8.62,3.26,12.29,6.36,2.05,1.73,5.39-.83,3.28-2.96Z"/>
    <path class="cls-1" d="m53.22,127.81c-6.87-.72-14.76,1.95-20.79,5.03-3.1,1.59-6,3.5-8.63,5.78-1.92,1.66-5.13,4.15-5.43,6.82-.01.12.15.2.24.17,2.44-.72,4.4-3.1,6.43-4.6,2.85-2.09,5.99-3.9,9.21-5.37,3.05-1.38,6.27-2.43,9.54-3.16,3.31-.73,6.62-.75,9.95-1.21,2.36-.33,1.42-3.26-.52-3.46Z"/>
    <path class="cls-1" d="m202.38,130.28c-3.36-2.04-7.91-2.22-11.71-1.73-2,.26-5.23.82-7.19,2.26-4.42-4.05-10.54-7.01-16.04-9.22-4.17-1.68-8.88-3.52-13.54-3.96-5.4-6.62-13.68-10.29-22.21-10.85-2.4-.16-2.43,3.37,0,3.42,7.54.15,14.43,2.91,20.31,7.33-.65,0-1.3.02-1.95.08-.12.01-.19.16-.07.23,1.66.92,3.42,1.67,5.21,2.35.2.18.39.35.59.53.1.09.29-.02.21-.15-.02-.04-.05-.08-.08-.12,3.46,1.27,7.05,2.33,10.36,3.86,5.47,2.53,10.29,5.94,15.53,8.83.71.39,1.54.12,1.98-.41,2.32-.19,4.8-1.3,7.07-1.5,3.66-.32,6.97.59,10.53,1.11,1.28.19,2.29-1.29.98-2.08Z"/>
    <path class="cls-1" d="m243.87,119.52c-3.63-.25-7.69,1.42-11.2,2.27-3.94.95-7.87,1.89-11.81,2.86-3.73.91-7.46,1.88-11.18,2.83-3.61.92-7.8,1.72-10.95,3.79-.22.14-.11.39.13.42,3.63.42,7.54-.61,11.08-1.3,3.98-.78,7.96-1.62,11.92-2.48,3.77-.81,7.53-1.65,11.29-2.47,3.66-.8,8.35-1.07,11.6-2.98,1.56-.92.73-2.82-.88-2.93Z"/>
    <path class="cls-1" d="m295.76,216.43c-4.55,1.4-8.93,3.57-13.36,5.32-4.9,1.94-9.83,3.8-14.78,5.61-9.46,3.44-19.01,6.65-28.64,9.6-9.63,2.95-19.35,5.57-29.1,8.11-4.87,1.27-9.75,2.48-14.62,3.73-1.1.28-2.21.55-3.34.81.12-.17.24-.33.35-.51.93-1.44-.98-2.54-2.21-1.99-3.48,1.58-6.56,4.72-9.8,6.81-3.04,1.95-6.34,3.62-9,6.1-.11.1-.02.27.12.27,4-.14,7.73-1.85,11.17-3.79,1.5-.85,3.28-1.83,4.95-2.96,2.94-.38,5.88-1.06,8.71-1.63,4.94-.99,9.85-2.15,14.74-3.37,9.95-2.49,19.81-5.4,29.59-8.49,9.6-3.03,19.14-6.27,28.58-9.77,4.5-1.67,8.98-3.38,13.44-5.15,4.79-1.9,9.92-3.59,14.43-6.08,1.57-.87.42-3.13-1.23-2.62Z"/>
    <path class="cls-1" d="m124.07,120.19c-8,.82-15.49,2.88-22.4,6.98-6.24,1.24-12.49,3.45-18.19,5.52-4.12,1.49-8.23,3.17-12.06,5.32-3.28,1.84-8,4.16-9.88,7.57-.14.26.11.48.37.43,3.76-.69,7.35-3.43,10.71-5.19,3.93-2.06,7.87-4.08,11.96-5.81,4.17-1.77,8.43-3.13,12.83-4.19,4.33-1.04,8.77-1.45,13.09-2.44,1.37-.31,1.04-2.23-.33-2.21-.97.02-1.94.08-2.92.17,5.33-2.72,10.99-4.85,16.87-5.96.13-.02.1-.22-.03-.2Z"/>
    <path class="cls-1" d="m66.42,125c-.93-2.65-1.9-5.29-2.93-7.91-1.92-4.91-3.97-9.77-6.14-14.58-4.32-9.56-9.1-18.91-14.34-27.99C32.47,56.29,20.38,37.8,5.04,23.21c-.08-.08-.26.02-.18.13,12.35,17.09,25.2,33.51,35.51,51.98,5.25,9.39,10.01,19.06,14.24,28.95,2.07,4.84,4.02,9.73,5.84,14.66.85,2.31,1.7,4.61,2.51,6.93.85,2.42,1.44,5.05,2.82,7.22.66,1.04,2.8.75,2.72-.66-.14-2.56-1.25-5.01-2.1-7.41Z"/>
    <path class="cls-1" d="m67.97,140.52c-1.27-4.47-4.61-8.93-6.92-12.95-2.37-4.11-4.81-8.17-7.3-12.2-5.08-8.22-10.31-16.33-15.88-24.24-5.56-7.91-11.43-15.61-17.57-23.07-2.86-3.47-5.8-6.88-8.82-10.21-3.04-3.35-6.31-7.66-10.28-9.91-.08-.05-.25.03-.2.14,1.64,3.81,5.17,7.13,7.75,10.35,2.96,3.68,5.92,7.35,8.84,11.06,5.97,7.58,11.72,15.33,17.23,23.25,5.41,7.77,10.63,15.7,15.46,23.84,2.42,4.07,4.74,8.2,7.01,12.36,1.13,2.08,2.25,4.17,3.35,6.26,1.16,2.21,2.11,4.78,3.66,6.72,1.17,1.47,4.28.85,3.65-1.38Z"/>
    <path class="cls-1" d="m136.59,45.22c-9.35,11.32-16.13,25.45-21.31,39.11-2.62,6.91-4.8,14.01-6.52,21.2-.9,3.76-1.67,7.55-2.3,11.37-.51,3.04-1.99,7.51-.83,10.39.53,1.33,2.59,1.74,3.4.4,1.61-2.65,1.14-6.72,1.48-9.77.44-3.86,1.02-7.7,1.73-11.52,1.33-7.09,3.15-14.08,5.42-20.93,2.35-7.09,5.18-14.03,8.47-20.74,3.26-6.65,7.19-12.86,10.87-19.27.16-.28-.26-.44-.43-.23Z"/>
    <path class="cls-1" d="m108.56,40.91c-1.64-3.61-4.57-6.82-6.99-9.95-2.72-3.52-5.54-6.94-8.33-10.4-.07-.08-.23-.02-.17.09,2.37,3.69,4.68,7.4,7.12,11.04,2.21,3.29,4.34,7.09,7.24,9.81.39.37,1.41.04,1.12-.59Z"/>
    <path class="cls-1" d="m134.47,44.88c-3.93-1.66-8.68-2.08-12.88-2.78-4.22-.7-8.72-1.7-13.01-1.53-.08,0-.14.12-.05.16,3.84,1.79,8.29,2.56,12.4,3.51,4.14.96,8.75,2.4,13.01,2.38.9,0,1.52-1.32.52-1.74Z"/>
    <path class="cls-1" d="m92.13,20.82c-4.51,1.37-8.97,2.79-13.42,4.35-4.1,1.44-8.43,2.64-12.36,4.49-.15.07-.23.17-.29.27-5.36-.53-11.14-.59-16.49.02-1,.11-1.05,1.41,0,1.45,5.36.2,11.1-.28,16.41-1.21-.02.44.44.91.98.76,4.19-1.16,8.25-3.05,12.3-4.62,4.37-1.7,8.65-3.51,12.94-5.39.08-.04.02-.15-.06-.13Z"/>
    <path class="cls-1" d="m68.67,127.8c-.82-4-1.63-8-2.45-12.01-1.59-7.8-3.17-15.61-4.81-23.4-3.32-15.78-7.04-31.49-10.2-47.3-.02-.11-.2-.07-.19.05,2.68,15.75,4.81,31.6,7.33,47.38,1.23,7.68,2.5,15.36,3.78,23.03.67,4.04,1.34,8.08,2.01,12.11.65,3.93.83,8.32,2.13,12.09.74,2.15,4.64,1.97,4.56-.56-.12-3.8-1.41-7.67-2.17-11.39Z"/>
    <path class="cls-1" d="m142.4,330.97c-.56-8.95-2.87-17.99-4.51-26.78l-2.56-13.75c-.87-4.68-1.12-9.85-2.6-14.36-.41-1.26-2.78-1.15-2.68.33.33,4.48,1.95,8.99,2.88,13.38.96,4.56,1.92,9.11,2.89,13.67,1.91,9.03,3.26,18.57,6.22,27.33-1.98-.75-4.03-.81-6.13-1.01-3.14-.3-6.28-.67-9.39-1.18-2.68-.44-5.35-.93-8-1.49-2.2-.46-4.49-1.14-6.76-1.17-.94-7.81-2.34-15.57-3.16-23.41-.92-8.83-1.22-17.68-1.86-26.53-.12-1.58-2.75-1.61-2.73,0,.13,9.05,1.32,18.17,2.61,27.12,1.09,7.56,2.24,15.41,4.26,22.85-.07.02-.14.06-.17.12-.19-.07-.42-.07-.64.04-4.42,2.21-8.32,6.13-12.18,9.18-3.49,2.76-7.48,5.44-10.5,8.78-.08-.24-.27-.47-.6-.65-4.92-2.67-11.01-3.93-16.33-5.66-5.29-1.72-10.57-3.62-16.06-4.56,5.01-9.91,9.54-19.88,12.91-30.49,1.73-5.43,3.15-10.96,4.32-16.54,1-4.78,2.81-10.74,1.95-15.62-.06-.36-.72-.43-.88-.1-2.12,4.52-2.33,10.25-3.46,15.13-1.24,5.37-2.74,10.69-4.42,15.94-3.42,10.68-7.68,21.36-13.18,31.15-.85,1.51,1.67,2.66,2.39,1.26.02-.04.04-.08.06-.12,4.58,2.49,9.59,4.15,14.49,5.92,5.54,2,11.38,4.89,17.17,5.88.69.12,1.33-.28,1.57-.8,4.09-2.04,7.77-5.23,11.4-7.95,4.01-3,9-5.84,12.29-9.62.08-.09.12-.18.15-.27.18.62.35,1.25.54,1.86.06.18.4.16.38-.05-.06-.57-.13-1.14-.19-1.71,3.9,2.43,9.58,3.2,13.87,3.99,4.85.9,11.35,2.65,16.2,1.29.59-.17.93-1,.46-1.41Z"/>
    <path class="cls-1" d="m47.19,299.7c2.78-3.6,5.42-7.31,7.92-11.1,2.4-3.65,4.71-7.37,6.82-11.19,1.78-3.23,4.59-7.32,4.79-11.08,0-.03-.04-.04-.07-.02-2.85,2.56-4.52,6.92-6.45,10.19-2.22,3.77-4.53,7.48-6.99,11.1-2.46,3.62-5.05,7.15-7.76,10.58-2.67,3.39-5.98,6.5-8.32,10.1-.7,1.07.9,1.87,1.72,1.19.04-.03.08-.07.12-.11,2.76,2.29,6.72,3.53,9.98,4.9,3.49,1.47,7.3,3.71,11.05,4.28,1.02.15,2.55-1.14,1.31-2.02-3.06-2.17-7.16-3.13-10.66-4.45-3.38-1.28-7.12-3.08-10.77-3.51,2.75-2.58,5.06-5.93,7.32-8.86Z"/>
    <path class="cls-1" d="m156.97,311.53c-3.98-5.73-8.32-11.09-11.9-17.11-3.54-5.97-5.94-12.61-9.57-18.48-.29-.47-1.04-.17-.95.36,1.11,6.69,4.95,13.46,8.23,19.33,3.02,5.4,6.35,10.92,10.43,15.64-1.9.23-3.81.35-5.74.27-2.7-.12-5.2-.85-7.85-1.2-1.33-.17-2.72,1.59-1.09,2.34,5.21,2.38,12.18,2.11,17.61.68.76-.2,1.33-1.09.82-1.82Z"/>
    <path class="cls-1" d="m78.31,135.26c-7.18-32.07-9.85-65.48-9.69-98.31,0-.07-.11-.07-.12,0-1.11,16.7-1.26,33.48.18,50.17,1.41,16.38,3.98,32.63,7.19,48.75.28,1.42,2.78.89,2.44-.61Z"/>
    <path class="cls-1" d="m95.54,26.45c-5.02,17.37-8.88,34.9-11.43,52.82-1.28,8.99-2.28,18.03-2.99,27.08-.36,4.53-.64,9.06-.85,13.59-.2,4.41-.73,9.01-.03,13.38.21,1.32,2.71,1.31,2.92,0,.7-4.18.34-8.56.42-12.79.09-4.53.25-9.06.48-13.59.45-8.85,1.2-17.69,2.23-26.5,2.1-18.1,5.26-36.22,9.45-53.95.03-.11-.15-.15-.19-.05Z"/>
    <path class="cls-1" d="m107.31,49.98c-5.78,13.14-10.73,26.2-14.05,40.21-3.19,13.45-5.54,27.48-5.9,41.33-.06,2.12,3.5,2.11,3.61,0,1.37-27.78,5.88-55.6,16.57-81.48.05-.13-.17-.17-.22-.06Z"/>
    <path class="cls-1" d="m73.99,1.04c-4.28,1.53-8.32,4.72-12.14,7.16-3.72,2.38-7.7,4.63-11.12,7.44-3.85-.14-7.83.58-11.65.98-3.98.42-7.96.85-11.93,1.32-3.63.43-7.25.84-10.88,1.3-3.48.44-7.45.56-10.7,1.95-.15.06-.1.29.05.32,3.47.62,7.31-.11,10.79-.45,3.98-.38,7.96-.83,11.93-1.24,3.78-.39,7.56-.84,11.34-1.28,3.79-.45,7.84-.61,11.53-1.64.42-.12.55-.46.47-.76,4.06-1.87,7.89-4.42,11.71-6.7,3.69-2.21,8.23-4.29,11.32-7.3.5-.49-.05-1.33-.71-1.1Z"/>
    <path class="cls-1" d="m78.03,13.16c-.45-3.94-.72-7.96-1.94-11.75-.02-.08-.14-.06-.15.02-.39,4.1.24,8.24.65,12.32.42,4.1.87,8.24,1.46,12.32.1.69,1.28.74,1.23,0-.3-4.3-.77-8.62-1.26-12.9Z"/>
    <path class="cls-1" d="m54.56,25.17c-.47-2.37-1.21-5.3-2.5-7.38-.17-.27-.68-.18-.68.17-.02,2.42.93,5.32,1.77,7.56.3.79,1.58.52,1.41-.35Z"/>
    <path class="cls-1" d="m19.07,42.57c-5.59,1.09-11.77,3.25-16.93,5.67-.69.32-.13,1.16.49,1.04,5.62-1.04,11.92-2.87,17.12-5.26.97-.44.19-1.62-.68-1.45Z"/>
    <path class="cls-1" d="m137.87,8.16c-5.22.27-10.46,1.86-15.53,3.04-4.31,1-8.92,1.76-13.15,3.22,0-.02,0-.04,0-.07,0-.09-.14-.12-.18-.04-.03.07-.06.14-.1.21-.38.14-.77.27-1.14.42-.07-.04-.15-.08-.25-.11-4.61-1.24-9.33-1.87-14.09-2.15-4.05-.24-9.14-.73-12.95.88-.17.07-.11.31.05.35.15.04.31.07.47.11-.96,1.49-1.22,3.33-1.52,5.06-.33,1.9-1.01,3.99-.74,5.91.15,1.1,1.6,1.24,2.04.25.79-1.78.73-3.96.94-5.89.19-1.72.46-3.53-.03-5.2,3.57.64,7.6.17,11.17.37,4.78.27,9.52.99,14.25,1.71.68.1,1.12-.5.97-.96.17,0,.35-.03.52-.04-1.39,3.01-2.25,6.28-3.24,9.43-1.2,3.8-2.8,7.7-3.49,11.62-.18,1.01,1.26,1.31,1.63.4,1.52-3.69,2.25-7.82,3.28-11.67.86-3.22,1.91-6.5,2.33-9.82,4.58-.38,9.22-1.62,13.69-2.51,4.82-.96,9.93-1.65,14.57-3.34-.02.01-.03.03-.05.05-7.03,10.23-11.79,21.16-14.65,33.25-.33,1.38,1.97,1.87,2.26.56,2.57-11.65,6.97-23.18,12.69-33.66.08-.14-.06-.25-.18-.23.24-.09.48-.16.71-.26.51-.2.21-.93-.27-.9Z"/>
    <path class="cls-1" d="m121.91,301.93c-.67-2.72-1.28-5.46-1.76-8.22-.53-3.03-.95-6.1-1.14-9.17-.17-2.67.33-5.58-.47-8.14-.34-1.08-2.17-1.15-2.48,0-.7,2.6.06,5.5.4,8.14.37,2.88.79,5.74,1.37,8.59.6,2.93,1.31,5.84,2.22,8.69.84,2.65,1.59,5.65,3.36,7.84.07.09.25.08.25-.06-.03-2.6-1.13-5.15-1.75-7.66Z"/>
    <path class="cls-1" d="m67.61,268.39c-1.01,2.75-1.05,5.84-1.8,8.68-.8,3.02-1.82,6.01-2.92,8.93-1.03,2.75-2.12,5.49-3.33,8.17-1.25,2.76-2.94,5.54-3.75,8.46-.09.32.36.52.58.3,4.09-4.11,6.62-10.5,8.83-15.79,1.21-2.9,2.27-5.86,3.25-8.85,1-3.08,2.56-6.21,2.8-9.46.15-2.04-3.04-2.12-3.66-.45Z"/>
    <path class="cls-1" d="m135.73,318.25c.39-.39.17-.9-.31-1.06-.42-.14-.84-.15-1.25-.05.21-.11.36-.3.36-.57-.05-3.38-.86-6.8-1.34-10.14-.49-3.38-.97-6.76-1.46-10.14-.92-6.4-2-12.75-3.18-19.11-.01-.07-.15-.06-.14.02.57,6.78,1.26,13.53,2.1,20.28.79,6.31.94,13.13,2.52,19.27.09.36.45.52.8.49-1.4.51-2.57,2.13-2.89,3.41-.33,1.33.08,3.31,1.19,4.32-3.3-.88-6.87-1.24-10.18-1.72-3.51-.51-6.97-1.04-10.51-1.19.01-.01.03-.02.04-.03.67-.52-.26-1.48-.9-1.05-4.03,2.69-7.91,5.65-11.82,8.52-4.06,2.98-8.42,5.83-12.09,9.3.16-.23.15-.55-.19-.72-5.02-2.42-10.95-4.22-16.4-5.39,1.52-1.59,1.87-4.61.84-6.34-1.3-2.19-3.99-2.76-6.19-1.9,3.64-8.15,6.22-16.91,8.46-25.53,2.18-8.4,4.35-17.38,4.56-26.08,0-.11-.18-.13-.21-.03-2.45,8.64-3.97,17.53-6.44,26.18-2.48,8.68-5.77,17.02-8.81,25.51-.47,1.31,1.66,1.68,2.17.54.03-.06.05-.11.07-.17,2.05-.54,4.54.39,5.33,2.48.36.95.32,2.08-.02,3.02-.44,1.24-1.34,1.69-2.19,2.57-.28.29-.08.81.36.77.77-.07,1.41-.4,1.93-.9,4.91,2.55,10.7,4.92,16.07,6.24.18.04.34,0,.47-.09-.11.14.07.32.23.23,4.26-2.26,8.16-5.32,12.09-8.09,4.12-2.9,8.32-5.75,12.32-8.82,3.78,1.16,7.65,1.86,11.54,2.56,3.65.66,7.48,1.59,11.19,1.59.59,0,.67-.73.14-.91-.08-.03-.16-.05-.24-.07.1-.09.16-.22.11-.38-.43-1.4-1.42-2.33-.99-3.94.45-1.65,1.83-1.83,2.87-2.88Z"/>
    <path class="cls-1" d="m68.74,271.42c-3.37,4.51-5.94,9.85-8.69,14.76-2.35,4.2-5.08,8.45-6.94,12.93-.79-.44-1.73-.69-2.84-.66-.32,0-.65.44-.31.68,1.95,1.42,3.78,2.69,4.03,5.33.3,3.15-1.77,4.58-4.1,6.11-.68.45-.44,1.48.44,1.45,1.37-.04,2.5-.51,3.38-1.25.85.61,1.86,1.02,2.78,1.47,1.26.61,2.5,1.3,3.83,1.73,1.06.34,1.91-1.21.81-1.74-1.26-.61-2.66-.96-3.99-1.39-.88-.28-1.78-.62-2.7-.8,2.46-2.96,2.21-8.41-.85-10.62,3.25-4.16,5.83-9.03,8.55-13.52,2.74-4.53,5.89-9.09,8.02-13.94.36-.82-1-1.12-1.43-.54Z"/>
    <path class="cls-1" d="m51.27,21.15c-4.23-.3-8.64.3-12.87.54-3.92.22-7.92.35-11.79,1.02-.07.01-.12.04-.16.07-.73-.19-1.75.63-.94,1.25,1.82,1.41,2.89,4.12,1,6.04-1.92,1.95-4.66.63-6.22-.98-.24-.25-.66,0-.6.32.63,3.4,5.73,3.84,7.96,1.92,2.22-1.91,2.15-6.13-.17-7.96,4.01.22,8.09-.08,12.09-.25,3.93-.17,8.01-.05,11.89-.72.83-.14.54-1.2-.19-1.25Z"/>
    <path class="cls-1" d="m75.63,11.23c-1.33.32-2.65.58-3.9-.17-.83-.49-1.46-1.34-1.84-2.26.39-.43.11-.98-.34-1.14,0-.05-.02-.1-.03-.15-.01-.09-.16-.07-.19,0-.01.03-.02.07-.03.1-.13,0-.27.03-.4.11-2.88,1.7-5.48,4.02-8.1,6.1-2.84,2.25-5.97,4.41-8.34,7.16-.16.18.05.41.26.31,3.01-1.47,5.68-3.69,8.37-5.67,2.64-1.94,5.54-3.82,7.98-6.04.41,3.22,4.63,5.47,7.5,3.1.78-.65-.13-1.64-.93-1.44Z"/>
    <path class="cls-1" d="m66.07,127.38c-.72-5.96-1.6-11.9-2.54-17.83.65.78,2.32.36,1.89-.74-1.07-2.72-2.2-5.42-3.35-8.11-1.21-7.16-2.47-14.31-3.65-21.46-1.32-8.05-2.65-16.1-4.09-24.13-1.47-8.19-2.81-16.51-5.16-24.49-.09-.32-.67-.28-.66.08.28,8.09,1.6,16.17,2.75,24.17,1.15,8,2.43,15.99,3.71,23.97.51,3.17,1,6.35,1.49,9.53-3.27-6.77-6.76-13.43-10.43-19.99-7.23-12.92-15.18-25.92-24.87-37.16-.07-.08-.23.02-.17.12,7.42,12.64,15.56,24.82,22.69,37.64,5.06,9.1,9.7,18.41,14.08,27.85,1.58,10.34,3.22,20.68,5.31,30.91.31,1.51,3.21,1.22,3.02-.37Z"/>
    <path class="cls-1" d="m64.52,34.58c-.42-.46-1.33-.12-1.33.5,0,.77.3,1.49.27,2.28-.04,1-.39,1.96-1.04,2.72-1.28,1.49-3.48,1.77-5.32,1.39-.21-.04-.49.22-.26.4,1.99,1.52,4.77,1.17,6.58-.49,1.66-1.52,2.79-4.92,1.09-6.78Z"/>
    <path class="cls-1" d="m90.23,24.24c-4.02,1.16-7.92,2.93-11.81,4.48-4.2,1.67-8.4,3.31-12.46,5.29-.11.05-.03.21.08.18,4.38-1.23,8.63-2.79,12.91-4.34,3.93-1.42,8.03-2.68,11.81-4.48.71-.34.17-1.33-.53-1.12Z"/>
    <path class="cls-1" d="m107.9,45.23c-4.09-6.98-9.58-13.38-14.6-19.7-.05-.06-.17-.01-.12.07,3.99,6.94,7.88,14.32,12.81,20.64.76.97,2.62.21,1.91-1Z"/>
    <path class="cls-1" d="m123.99,47.37c-.14,0-.27,0-.4.01-.1-.11-.22-.2-.39-.25-4.07-1.33-9.24-1.74-13.51-1.82-.2,0-.21.23-.04.3,3.43,1.26,7.4,2.46,11.17,2.96-2.55,2.33-2.68,7.35,1.22,8.53-.03,0-.05.02-.07.05-7.32,10.74-12.03,23.65-15.43,36.13-3.41,12.54-5.7,26-5.4,39.03.04,1.54,2.56,1.53,2.62,0,.51-13.26,1.64-26.16,4.92-39.06,3.21-12.58,8.41-24.13,13.56-35.99.02-.04.01-.07,0-.09.89.18,1.51-.8.89-1.49-1.16-1.29-2.3-2.26-2.15-4.2.09-1.12.65-2.03,1.44-2.72.18.01.36.04.54.05.66.04.97-.49.88-.97.09-.04.17-.09.26-.12.19-.08.07-.32-.1-.32Z"/>
    <path class="cls-1" d="m70.8,124.66c-.56-3.85-1.11-7.71-1.67-11.56-1.16-7.91-2.33-15.81-3.49-23.72-1.09-7.38-2.12-14.78-3.27-22.15-1.21-7.77-2.03-15.94-4.19-23.51-.05-.16-.33-.14-.33.04-.01,7.66,1.41,15.52,2.34,23.11.97,7.92,2.08,15.82,3.13,23.72,1.02,7.7,2.03,15.41,3.06,23.11.51,3.85,1.04,7.7,1.56,11.56.5,3.74.74,7.62,1.81,11.24.35,1.2,2.42,1,2.43-.3.04-3.85-.84-7.75-1.39-11.56Z"/>
    <path class="cls-1" d="m53.31,162.6c-2.02,4.21-4.04,8.53-5.55,12.95-.11.33.45.52.59.22,1.99-4.22,3.57-8.71,5.04-13.14.02-.05-.07-.08-.09-.03Z"/>
    <path class="cls-1" d="m49.06,174.88c-.01-.05-.1-.03-.09.02.88,4.3,1.5,8.69,2.58,12.95.09.35.67.22.6-.15-.8-4.31-2.09-8.55-3.09-12.82Z"/>
    <path class="cls-1" d="m58.93,216.97c-2.21-3.6-4.16-7.01-4.68-11.25-.48-3.93-.78-7.54-.09-11.48,0-.06-.08-.08-.09-.02-2.37,7.66-1.04,16.81,4.2,23.1.27.32.92.07.66-.35Z"/>
    <path class="cls-1" d="m59.81,219.07c-.01-.06-.13-.07-.15-.02-1.76,3.7-1.99,8.87-2.32,12.93-.04.51.86.6.97.12.86-3.98,2.14-8.98,1.51-13.03Z"/>
    <path class="cls-1" d="m67.39,250.07c-2.9-5.23-5.81-10.78-9.46-15.53-.11-.14-.44-.07-.35.13,2.34,5.54,5.75,10.78,8.9,15.88.32.52,1.23.1.91-.48Z"/>
    <path class="cls-1" d="m71.04,264.61c-4.08-3.65-4.79-9.07-2.83-14.01.08-.19-.23-.26-.33-.12-3.33,4.72-1.98,11.28,2.19,15,.59.53,1.62-.29.97-.87Z"/>
    <path class="cls-1" d="m188.38,250.39c-5.2,3.04-10.41,6.05-15.59,9.11-2.42,1.43-4.84,2.85-7.21,4.36-2.03,1.28-4.52,2.5-5.68,4.68-.07.13.03.28.18.28,2.55-.02,4.82-1.45,7.04-2.59,2.5-1.29,4.96-2.66,7.43-4.02,5.27-2.92,10.51-5.89,15.77-8.84,2.15-1.21.05-4.12-1.93-2.96Z"/>
    <path class="cls-1" d="m132.43,107.57c-1.73-3.3-5.56-6.01-8.54-8.14-2.82-2.01-6.27-4.48-9.77-4.94-.41-.06-.76.32-.44.69,2.28,2.57,5.77,4.34,8.41,6.57,2.74,2.32,5.03,5.44,7.9,7.53,1.24.9,3.31-.07,2.45-1.7Z"/>
    <path class="cls-1" d="m54.6,123.29c-1.88,1.49-3.78,2.95-5.38,4.75-.38.43.01,1.15.61.94,2.4-.84,4.6-2.08,6.82-3.3,2.08-1.15-.23-3.83-2.05-2.39Z"/>
    <path class="cls-1" d="m110.4,133.74c-7.99-4.88-20.66-4.71-29.06-1.04-1.79.78-.37,3.11,1.28,2.72,4.75-1.11,9.25-2.3,14.17-2.41,4.59-.1,8.98.65,13.52,1.04.19.02.25-.23.1-.32Z"/>
    <path class="cls-1" d="m120.95,125.66c-5.71-2.03-13.03-1.41-17.95,2.29-1.27.95.46,2.31,1.57,1.83,5.57-2.4,10.16-3.9,16.33-3.77.24,0,.26-.29.05-.36Z"/>
    <path class="cls-1" d="m83.88,272.41c-3.38-2.16-7.74-3.43-11.49-4.84-3.71-1.39-7.35-2.35-11.19-3.25-.23-.05-.38.22-.17.36,3.55,2.2,6.98,4.17,10.83,5.86,3.48,1.53,7.15,3.52,10.87,4.34,1.58.35,2.61-1.54,1.16-2.47Z"/>
    <path class="cls-1" d="m189.67,250.31c-1.88.78-3.39,2.41-4.99,3.65-1.64,1.28-3.32,2.5-5.03,3.67-3.43,2.35-6.97,4.5-10.65,6.43-7.5,3.94-15.41,7.01-23.63,9.06-15.95,3.99-31.93,4.01-48.05,1.63,2.87-.49,5.62-1.37,7.83-2.52,1.5-.78.36-2.79-1.13-2.41-3.14.81-6.15,1.9-9.35,2.48-3.1.56-6.29.59-9.36,1.25-.18.04-.25.32-.06.39,3.06,1.24,6.9,1.47,10.65,1.01,16,5.53,34.15,5.27,50.46,1.38,8.53-2.03,16.9-5.08,24.66-9.17,3.81-2.01,7.51-4.25,11.04-6.73,3.04-2.13,7.9-4.96,9.64-8.31.72-1.38-.81-2.34-2.04-1.83Z"/>
    <path class="cls-1" d="m226.36,240.76c-7.19,1.95-14.32,4.06-21.43,6.28-4.32,1.35-8.91,2.58-13.27,4.23,3.2-3.82,6.09-8.06,8.51-12.3.22-.39-.32-.7-.62-.43-3.69,3.3-7.34,7.07-10.47,11.05-.36,0-.73.09-1.06.35-6.86,5.24-13.46,10.48-21.12,14.56-7.41,3.96-15.25,7.04-23.37,9.2-8.1,2.16-16.45,3.39-24.83,3.69-6.48.24-12.88-.5-19.3-.86.76-.97.28-2.65-1.44-2.72-13.32-.58-26.06-3.3-37.87-9.7-4.96-2.68-9.68-5.85-13.71-9.82-4.5-4.42-6.93-9.19-9.42-14.88-.19-.43-1.01-.45-.99.12.47,11.64,11.63,21.46,20.88,26.89,10.96,6.43,24.14,10.39,36.97,10.77,7.66,3.24,16.67,3.53,24.88,3.36,8.7-.18,17.38-1.47,25.79-3.71,8.4-2.24,16.56-5.44,24.23-9.54,6.46-3.46,13.08-7.56,18.57-12.59.5.21,1.11.18,1.52-.25.09-.09.17-.19.26-.28,5.64-.98,11.26-2.93,16.66-4.53,7.14-2.11,14.24-4.34,21.29-6.72,1.51-.51.84-2.57-.66-2.17Z"/>
    <path class="cls-1" d="m50.71,247.69c-2.12-1.57-4.91-2.19-7.25-3.45-2.69-1.45-5.21-3.18-7.51-5.2-4.53-3.98-8.15-8.76-10.96-14.08-.06-.11-.25-.04-.22.08,1.31,6.12,4.46,11.64,8.91,16.04,2.25,2.23,4.8,4.19,7.54,5.76,2.45,1.41,5.54,3.19,8.43,3.13,1.07-.02,2.16-1.47,1.05-2.29Z"/>
    <path class="cls-1" d="m49.9,233.14c-3.92-2.13-8.81-2.89-13.18-3.45-.27-.03-.52,0-.75.06-3.25-1.02-6.2-2.72-8.7-5.35-2.21-2.32-4.02-5.33-5.35-8.48.35-2.52.04-5.22.04-7.73,0-.94.03-1.9.05-2.86,1.1,1.17,2.29,2.27,3.54,3.27.02.42.22.84.68,1.13,1.48.94,3,1.72,4.56,2.41.25.14.49.28.74.41.19.1.39.15.58.16,4.53,1.85,9.28,3.05,13.86,4.89.08.03.16-.07.07-.11-5.06-2.79-9.6-6.26-14.8-8.71-3.42-2.96-7.08-5.58-9.59-9.35h0s-.02-.02-.02-.03c-.5-.76-.96-1.56-1.36-2.42-1.54-3.33-1.91-6.93-1.5-10.55.29-2.63,1.19-5.19,1.69-7.79,0,0,0,0,.01.01,0-.02,0-.03,0-.05.08-.43.15-.86.21-1.29,5.67,4.45,13.41,5.84,20.38,4.07.14-.04.11-.24-.04-.23-8.07.29-15.24-2.81-21.25-8.01-.26-.22-.55-.32-.83-.33-2.23-11.68-3.22-27.1,8.17-33.28,1.31-.71.06-2.2-1.13-1.73-13.1,5.13-12.45,23.51-8.08,35.46-.34.39-.42.97.06,1.51.31.35.63.67.95,1,.21.47.43.93.65,1.37-3.62,5.8-5.04,14.67-2.46,20.84.83,1.98,2,3.87,3.41,5.62-.14,1.34-.22,2.69-.36,4.01-.32,2.99-1.15,6.31-.75,9.29.05.36.27.64.55.82.71,3.22,2.33,6.18,4.87,8.9,4.36,4.68,11.01,7.61,17.43,7.31.33-.02.61-.1.84-.23,2.28.23,4.57.28,6.76-.05.26-.04.29-.39.07-.51Z"/>
    <path class="cls-1" d="m56.87,252.92c-3.44-3.86-8.86-6.8-13.34-9.26-1.57-.86-3.05,1.24-1.49,2.29,4.31,2.92,9.31,6.28,14.37,7.67.44.12.76-.37.46-.7Z"/>
    <path class="cls-1" d="m52.67,128.24c-11.51.92-25.46,5.37-32.38,15.25-3.34,4.77-4.69,10.66-4.69,16.42,0,3.28.45,6.61,1.21,9.8.27,1.14.58,2.53,1.01,3.89-.66.51-.94,1.47-.17,2.24.75.75,1.59,1.44,2.51,2.06.13.12.26.24.4.35.03.02.08.02.09-.02,2.96,1.9,6.55,3.16,9.8,3.81,3.85.77,9.58,1.2,12.99-1.12.13-.09.12-.28-.05-.32-1.73-.4-3.55-.23-5.32-.38-2.28-.19-4.51-.57-6.73-1.14-4.03-1.04-7.19-2.95-10.64-5.01-.19-.97-.45-1.94-.6-2.83-.55-3.26-1.14-6.51-1.29-9.82-.25-5.6.67-11.41,3.75-16.19,2.92-4.55,7.46-7.7,12.35-9.85,5.84-2.57,12.04-3.09,18.08-4.87,1.33-.39,1.12-2.39-.34-2.27Z"/>
    <path class="cls-1" d="m126.56,19.78c-.07.12-.12.24-.19.37-.06-.4-.69-.51-1.01-.27-1.32.97-2.79,1.84-4.38.71-1.38-.97-1.78-3.31-.82-4.71.08-.11-.11-.22-.19-.13-.03.04-.06.07-.09.11-.01,0-.02-.01-.04-.01-3.84.12-7.86.63-11.64,1.44-.05-.25-.23-.49-.55-.57-6.6-1.71-15.03-1.93-21.61-.11-.05.02-.04.08.01.08.35.03.69.05,1.04.07,0,.95-.7,2.05-1.39,2.62-.82.68-1.63.65-2.62.81-.9.14-.82,1.39,0,1.58.07.02.15.02.22.03-.33.93-.55,1.92-.74,2.88-.14.74,1.01.87,1.11.13.12-.98.22-2,.18-3,1.09-.08,2.15-.8,2.81-1.63.38-.49.68-1.07.82-1.68.15-.65,0-1.13-.14-1.73,3.14.17,6.29.05,9.43.25,3.38.21,6.71.78,10.07,1.08,0,.44.44.91,1.06.82,3.94-.57,8.04-1.55,11.81-2.86-.66.81-1.01,1.65-.92,2.78.09,1.13.63,2.16,1.55,2.83,1.45,1.06,4.16,1.03,5.45-.37-1.39,2.89-2.46,5.94-3.64,8.91-1.51,3.83-3.25,7.67-4.41,11.62-.27.92,1.13,1.15,1.48.37,1.6-3.57,2.72-7.42,3.99-11.12,1.27-3.7,2.76-7.39,3.57-11.22.03-.12-.16-.2-.22-.08Z"/>
    <path class="cls-1" d="m14.85,48.59c-.18-.07-.43.11-.25.29,1.35,1.28,2.48,2.53,2.9,4.39.52,2.29-.34,4.1-1.45,6.04-.34.59.51,1.1.96.67,3.37-3.22,2.19-9.65-2.16-11.39Z"/>
    <path class="cls-1" d="m64.27,129.78c-3.57-13.03-10.91-24.69-18.94-35.41-8.88-11.86-18.53-23.16-27.6-34.88-.07-.1-.25-.02-.19.1,6.66,12.7,16.58,23.57,25.12,35.01,8.18,10.96,15.29,22.59,19.18,35.79.41,1.39,2.83.87,2.43-.6Z"/>
    <path class="cls-1" d="m23.19,46.47c-2.71-.44-6.09.9-7.68,3.18-.05.08.05.13.11.1,1.18-.51,2.33-1.02,3.6-1.3,1.25-.27,2.44-.16,3.7-.22,1.02-.05,1.43-1.57.26-1.76Z"/>
    <path class="cls-1" d="m91.16,274.05c-.17-1.11-2.08-.99-2.34,0-1.1,4.28-.61,9.25-.68,13.66-.08,4.86-.24,9.72-.42,14.58-.19,4.86-.37,9.72-.54,14.58-.17,4.8-.72,9.79-.24,14.58.01.12.21.16.24.03.89-4.36.88-8.96,1.18-13.4.34-5.06.67-10.13,1-15.19.31-4.87.64-9.72,1.06-14.58.4-4.6,1.43-9.69.75-14.26Z"/>
  </g>
  <path class="cls-1" d="m300.46,159.47c-5.56-17.36-17.71-34.89-34.26-43.34-.16-.08-.38.11-.22.25,6.84,6,13.4,11.97,18.73,19.41,5.37,7.49,9.61,15.7,12.33,24.52,2.95,9.61,4.02,19.78,3.3,29.8-.37,5.19-1.25,10.33-2.61,15.36-1.36,5.02-3.49,9.67-5.19,14.56-.56,1.62,2.02,2.35,2.83,1.07,5.55-8.74,7.83-20.25,8.65-30.46.84-10.5-.34-21.15-3.55-31.19Z"/>
</svg>