<svg width="70" height="70" viewBox="0 0 70 70" fill="none" xmlns="http://www.w3.org/2000/svg">
<path d="M35.3597 39.0979C36.5268 39.0979 37.5227 38.6935 38.3474 37.8847C39.1721 37.0759 39.5845 36.0767 39.5845 34.8873C39.5845 33.6978 39.1689 32.6908 38.3377 31.8661C37.5066 31.0414 36.5074 30.629 35.3403 30.629C34.1732 30.629 33.1773 31.0414 32.3526 31.8661C31.5279 32.6908 31.1155 33.6978 31.1155 34.8873C31.1155 36.0767 31.5311 37.0759 32.3623 37.8847C33.1934 38.6935 34.1926 39.0979 35.3597 39.0979ZM35.35 51.0876C36.8408 50.5801 38.3633 49.7792 39.9175 48.6849C41.4717 47.5906 42.7246 46.3457 43.6762 44.9501L39.299 40.7632C38.6963 41.1121 38.0594 41.3976 37.3882 41.6196C36.717 41.8416 36.0376 41.9526 35.35 41.9526C33.3834 41.9526 31.7103 41.2707 30.3305 39.9068C28.9507 38.5429 28.2609 36.8697 28.2609 34.8873C28.2609 32.9049 28.9507 31.2238 30.3305 29.844C31.7103 28.4642 33.3834 27.7744 35.35 27.7744C37.3166 27.7744 38.9897 28.4642 40.3695 29.844C41.7493 31.2238 42.4391 32.9128 42.4391 34.9111C42.4391 35.5772 42.344 36.2433 42.1537 36.9094C41.9634 37.5754 41.662 38.1781 41.2497 38.7173L45.2463 42.5236C46.0075 41.1597 46.6102 39.6599 47.0542 38.0242C47.4983 36.3884 47.7203 34.7163 47.7203 33.0079V23.5644L35.35 19.0676L22.9797 23.5644V33.0079C22.9797 37.1631 24.1295 40.9138 26.4291 44.2602C28.7287 47.6065 31.7023 49.8823 35.35 51.0876ZM35.35 54.0375C30.9094 52.9273 27.2617 50.3502 24.407 46.306C21.5523 42.2619 20.125 37.8292 20.125 33.0079V21.6844L35.35 15.975L50.575 21.6844V33.0079C50.575 37.8292 49.1477 42.2619 46.293 46.306C43.4383 50.3502 39.7906 52.9273 35.35 54.0375Z" fill="#9B2321"/>
<circle cx="35.35" cy="35.0062" r="32.2875" stroke="#9B2321" stroke-width="4.725"/>
</svg>
