<svg width="70" height="70" viewBox="0 0 70 70" fill="none" xmlns="http://www.w3.org/2000/svg">
<circle cx="35.35" cy="35.0687" r="32.2875" stroke="#9B2321" stroke-width="4.725"/>
<path d="M38.6311 38.3501C36.8082 38.3501 35.2587 37.712 33.9827 36.436C32.7066 35.16 32.0686 33.6105 32.0686 31.7876C32.0686 29.9647 32.7066 28.4152 33.9827 27.1391C35.2587 25.8631 36.8082 25.2251 38.6311 25.2251C40.454 25.2251 42.0035 25.8631 43.2795 27.1391C44.5556 28.4152 45.1936 29.9647 45.1936 31.7876C45.1936 33.6105 44.5556 35.16 43.2795 36.436C42.0035 37.712 40.454 38.3501 38.6311 38.3501ZM21.1311 46.0063C20.2288 46.0063 19.4563 45.685 18.8137 45.0424C18.1711 44.3999 17.8499 43.6274 17.8499 42.7251V20.8501C17.8499 19.9477 18.1711 19.1753 18.8137 18.5327C19.4563 17.8901 20.2288 17.5688 21.1311 17.5688H56.1311C57.0334 17.5688 57.8059 17.8901 58.4485 18.5327C59.0911 19.1753 59.4123 19.9477 59.4123 20.8501V42.7251C59.4123 43.6274 59.0911 44.3999 58.4485 45.0424C57.8059 45.685 57.0334 46.0063 56.1311 46.0063H21.1311ZM26.5999 42.7251H50.6623C50.6623 41.1938 51.191 39.8995 52.2483 38.8423C53.3056 37.785 54.5998 37.2563 56.1311 37.2563V26.3188C54.5998 26.3188 53.3056 25.7902 52.2483 24.7329C51.191 23.6756 50.6623 22.3813 50.6623 20.8501H26.5999C26.5999 22.3813 26.0712 23.6756 25.0139 24.7329C23.9566 25.7902 22.6624 26.3188 21.1311 26.3188V37.2563C22.6624 37.2563 23.9566 37.785 25.0139 38.8423C26.0712 39.8995 26.5999 41.1938 26.5999 42.7251ZM52.8498 52.5688H14.5686C13.6663 52.5688 12.8938 52.2475 12.2512 51.6049C11.6086 50.9624 11.2874 50.1899 11.2874 49.2876V24.1313H14.5686V49.2876H52.8498V52.5688Z" fill="#9B2321"/>
</svg>
