<?xml version="1.0" encoding="UTF-8"?><svg id="Livello_2" xmlns="http://www.w3.org/2000/svg" viewBox="0 0 260.83 129.64"><defs><style>.cls-1{fill:#fff;}.cls-2,.cls-3{fill:#523333;}.cls-4{fill:#ecdac5;}.cls-3{font-family:TheGoldsmithVintage, 'The Goldsmith Vintage';font-size:45px;}.cls-5{opacity:.7;}.cls-6{fill:none;stroke:#ceb133;stroke-width:2.36px;}.cls-7{letter-spacing:.02em;}.cls-8{fill:#988575;}</style></defs><g id="Livello_1-2"><path class="cls-4" d="m196.41,124.3c-55.77-.61-111.54-1.22-167.3-1.83-1.1-3.39-3.62-9.44-9.39-14.61-2.4-2.15-4.8-3.64-6.85-4.69-6.23-10.5-7.81-19.26-8.11-25.24-.26-5.2.59-12.58,2.3-27.33.67-5.83.9-6.78,1.17-10.57.77-10.67-.66-12.12,1.31-15.01,2.95-4.32,7.26-4.34,11.96-9.56,3.21-3.56,4.73-7.45,5.51-10.19h172.86c-1.68,5.71-.12,11.74,4.01,15.45,4.47,4.01,10.04,3.61,11.07,3.51,3.09,9.91,6.62,25.49,5.51,44.62-.87,15.12-4.35,27.46-7.55,36.12-2,.34-5.92,1.31-9.57,4.43-6.45,5.52-6.9,13.39-6.96,14.87Z"/><path class="cls-5" d="m0,50.82c.2,3.4.4,6.79.59,10.19.03.59,0,1.18.24,1.78.03-.54.08-1.07.08-1.61-.04-8.92.37-17.79,2.43-26.51,1.11-4.7,2.24-9.39,3.3-14.1.23-1.01.73-1.31,1.67-1.37,7.08-.49,12.21-6.86,12.88-12.03.13-.98.18-1.99.07-2.97-.11-.99.24-1.31,1.15-1.4,3.83-.38,7.65-1.01,11.49-1.16,13.69-.55,27.38-1.18,41.08-1.34C98.66.02,122.34-.06,146.02.04c12.24.05,24.48.52,36.71,1.07,6.32.28,12.61,1.14,18.91,1.71,1.03.09,1.35.52,1.34,1.56-.05,7.53,5.38,13.85,12.75,14.85,1.09.15,1.67.46,1.99,1.68,3.02,11.31,5.47,22.73,6.22,34.45.02.36-.16.97-.4,1.06-1.06.4-2.17.66-2.97.89-.72-5.02-1.69-9.9-2.04-14.82-.44-6.22-2.47-12.06-3.57-18.11-.22-1.21-1.01-1.67-2.07-2-6.03-1.88-10.18-5.85-12.52-11.74-.38-.95-.57-1.99-.73-3-.13-.86-.57-1.38-1.37-1.48-2.01-.25-3.99-.84-6.08-.3-.9.23-1.94-.11-2.92-.22-2.41-.28-4.81-.71-7.23-.83-4.62-.23-9.24-.28-13.87-.41-5.32-.15-10.64-.33-15.97-.45-5.01-.11-10.01-.21-15.02-.24-15.41-.1-30.83-.25-46.24-.21-10.01.02-20.03.25-30.04.53-7.14.2-14.27.62-21.41,1-1.08.06-2.14.59-3.22.65-2.11.1-4.23-.02-6.34.03-1.09.03-2.18.26-3.28.36-1.29.12-1.74.73-2.03,2.09-1.44,6.75-5.47,11.38-11.88,13.83-1.5.57-2.83.9-3.22,3.04-.95,5.25-2.59,10.37-3.46,15.62-.92,5.56-1.44,11.2-1.85,16.82-.31,4.3-.52,8.65-.19,12.94.5,6.52,1.31,13.04,2.34,19.5.83,5.18,2.22,10.27,3.31,15.42.2.93.77,1.23,1.57,1.45,5.24,1.41,9.23,4.5,11.73,9.34.89,1.72,1.29,3.71,1.75,5.62.23.94.63,1.31,1.53,1.37,5.12.34,10.23.8,15.35,1.03,9.23.42,18.46.73,27.7,1.05,3.38.12,6.76.21,10.14.23,17.09.09,34.17.18,51.26.2,7.62,0,15.24-.07,22.86-.27,8.51-.23,17.01-.61,25.52-.98,4.96-.22,9.91-.52,14.86-.81,1.41-.08,2.8-.32,4.21-.44.86-.08,1.25-.49,1.41-1.36,1.46-7.66,5.95-12.61,13.31-14.88,1.2-.37,1.73-.94,1.98-2.16,1.05-5.11,2.43-10.16,3.26-15.3.92-5.69,1.37-11.46,2.02-17.19.12-1.11.21-2.22.32-3.49,1.18.25,2.32.5,3.64.78-.11,1.9-.24,3.78-.34,5.66-.57,11.19-3.22,22-5.94,32.8-.31,1.24-.87,1.88-2.34,2.02-6.41.65-12.14,6.92-12.51,13.49-.15,2.59-.13,2.74-2.7,3.05-4.37.53-8.76.96-13.16,1.22-7.86.48-15.73.91-23.6,1.17-9.37.3-18.75.48-28.12.57-11.43.12-22.87.2-34.3.1-14.77-.13-29.54-.27-44.3-.78-10.47-.36-20.93-1.34-31.39-2.07-1.1-.08-2.21-.29-3.28-.58-.34-.09-.79-.68-.78-1.02.28-5.65-2.3-9.76-6.69-12.94-1.82-1.32-3.89-1.96-6.07-2.28-1.15-.17-1.78-.64-2.05-1.88-1.39-6.4-3.14-12.74-4.24-19.19-.85-5-.96-10.13-1.29-15.2-.15-2.31-.03-4.64-.03-6.96-.11,0-.21,0-.32,0-.14,3.42-.27,6.84-.42,10.25C.24,77.57.09,78.2,0,78.83,0,69.49,0,60.16,0,50.82Z"/><path class="cls-8" d="m3.46,51.03c.19,3.25.39,6.5.57,9.75.03.56,0,1.13.24,1.7.03-.51.08-1.03.08-1.54-.04-8.53.36-17.02,2.36-25.36,1.08-4.49,2.18-8.99,3.2-13.49.22-.96.71-1.25,1.62-1.31,6.86-.47,11.84-6.56,12.48-11.51.12-.94.17-1.91.07-2.84-.11-.94.23-1.25,1.11-1.34,3.71-.36,7.42-.96,11.14-1.11,13.27-.52,26.53-1.13,39.81-1.28,22.95-.26,45.9-.34,68.85-.24,11.86.05,23.73.5,35.58,1.02,6.12.27,12.22,1.09,18.33,1.63,1,.09,1.31.49,1.3,1.5-.05,7.2,5.22,13.25,12.36,14.21,1.05.14,1.62.44,1.93,1.6,2.93,10.82,5.3,21.74,6.03,32.96.02.34-.16.92-.39,1.01-1.02.39-2.1.63-2.88.85-.69-4.81-1.64-9.47-1.98-14.18-.42-5.95-2.39-11.54-3.46-17.33-.21-1.16-.98-1.59-2.01-1.91-5.85-1.8-9.86-5.6-12.13-11.23-.37-.91-.55-1.9-.7-2.87-.13-.82-.55-1.32-1.33-1.41-1.95-.24-3.86-.8-5.89-.29-.87.22-1.88-.1-2.83-.21-2.34-.26-4.66-.68-7.01-.79-4.47-.22-8.96-.27-13.44-.39-5.16-.14-10.31-.31-15.47-.43-4.85-.11-9.71-.2-14.56-.23-14.94-.09-29.88-.24-44.82-.2-9.7.02-19.41.24-29.11.5-6.92.19-13.83.59-20.75.96-1.05.06-2.07.57-3.12.62-2.04.1-4.1-.02-6.15.03-1.06.03-2.12.25-3.18.35-1.25.11-1.69.7-1.97,2-1.4,6.46-5.3,10.89-11.52,13.24-1.45.55-2.74.87-3.12,2.91-.92,5.02-2.51,9.92-3.35,14.95-.9,5.32-1.39,10.71-1.79,16.1-.31,4.11-.5,8.28-.18,12.38.48,6.24,1.27,12.48,2.27,18.66.81,4.96,2.15,9.83,3.21,14.75.19.89.74,1.18,1.52,1.38,5.08,1.35,8.95,4.31,11.37,8.94.86,1.64,1.25,3.55,1.7,5.37.22.9.61,1.25,1.49,1.31,4.96.32,9.92.76,14.88.99,8.94.4,17.89.7,26.84,1.01,3.27.11,6.55.2,9.83.22,16.56.08,33.12.18,49.67.19,7.38,0,14.77-.06,22.15-.26,8.25-.22,16.49-.59,24.73-.94,4.8-.21,9.6-.49,14.4-.78,1.36-.08,2.72-.31,4.08-.43.84-.07,1.21-.47,1.37-1.3,1.42-7.33,5.77-12.07,12.9-14.23,1.16-.35,1.68-.9,1.92-2.07,1.02-4.89,2.35-9.72,3.15-14.64.89-5.45,1.33-10.96,1.96-16.45.12-1.06.2-2.12.31-3.34,1.15.24,2.25.48,3.52.75-.11,1.82-.23,3.61-.33,5.41-.55,10.71-3.12,21.05-5.75,31.38-.3,1.19-.84,1.79-2.26,1.94-6.22.62-11.76,6.63-12.13,12.91-.14,2.48-.13,2.62-2.62,2.92-4.24.5-8.49.92-12.75,1.17-7.62.46-15.25.87-22.88,1.11-9.08.29-18.17.46-27.26.55-11.08.11-22.16.19-33.24.09-14.31-.13-28.63-.26-42.93-.75-10.15-.35-20.28-1.28-30.42-1.98-1.07-.07-2.14-.28-3.18-.56-.33-.09-.77-.65-.75-.98.27-5.4-2.23-9.34-6.48-12.38-1.77-1.26-3.77-1.88-5.88-2.18-1.12-.16-1.72-.62-1.99-1.8-1.35-6.13-3.05-12.19-4.11-18.36-.82-4.78-.93-9.69-1.25-14.55-.14-2.21-.02-4.44-.02-6.66-.1,0-.21,0-.31,0-.13,3.27-.26,6.54-.41,9.81-.03.61-.17,1.2-.26,1.81,0-8.93,0-17.86,0-26.79Z"/><path d="m132.72,1.41c-.78.07-1.55.21-2.33.21-11.98.01-23.96.02-35.94,0-.78,0-1.55-.14-2.33-.22,13.53,0,27.06,0,40.6,0Z"/><path class="cls-8" d="m209.92,63.1c-2.05,0-3.65-.05-5.25.02-1.1.04-1.45.66-1.39,2.01.04,1,.42,1.46,1.52,1.42,1.38-.05,2.78.12,4.32.2-1.55,4.5-4.57,7.05-8.91,8.01-1.59.35-3.3.33-4.94.28-1.87-.06-3.5-.83-4.93-2.09-5.49-4.82-6.21-11.43-1.82-17.04,3.39-4.32,11.53-6.54,17.1-1.82,1.12.95,2.01,2.18,2.89,3.38.65.88.36,1.34-.71,1.43-1.03.09-2.06.2-3.09.26-1.42.08-1.28,1.1-1.34,2.06-.07,1.09.48,1.33,1.44,1.27,1.36-.08,2.73-.1,4.1-.08.27,0,.53.34,1.03.68Z"/><path class="cls-5" d="m216.92,64.48c.06-1.13.18-1.91.11-2.67-.08-.88.28-1.32,1.08-1.49.8-.17,1.61-.3,2.5-.47v5.8c-1.4-.44-2.58-.82-3.69-1.17Z"/><circle class="cls-2" cx="197.79" cy="62.75" r="7.48"/><path class="cls-1" d="m204.38,59.2c13.59-1.51,23.53-4.43,30.45-7.02,5.26-1.97,13.42-5.51,19.26-1.82,1.46.92,2.32,2.01,3.07,2.97,5.69,7.2,3.14,16.64,2.87,17.57-.8,2.78-1.41,4.91-3.37,6.68-6.06,5.48-20.03,2.97-24.2-2.39-.67-.86-2.8-4-6.69-5.27-.52-.17-.96-.27-1.24-.33-3.36-.69-6.91-1.33-10.63-1.89-3.33-.5-6.55-.89-9.64-1.2.34-1.25.67-2.5,1.01-3.75,4.77.33,9.53.65,14.3.98,1.81.23,4.64.74,7.83,2.09,7.78,3.29,8.12,7.42,13.72,8.77,3.44.83,8.94.6,12.13-3.16,3.56-4.21,2.92-11.31-.61-14.7-3.21-3.07-8.02-2.33-14.09-1.39-9.46,1.46-12.29,4.81-21.51,6.48-4.99.9-9.18.83-11.77.66-.3-1.09-.59-2.18-.89-3.27Z"/><text class="cls-3" transform="translate(58.74 98.16)"><tspan class="cls-7" x="0" y="0">D</tspan><tspan x="18.9" y="0">O FIX</tspan></text><path class="cls-6" d="m99.05,33.93c1.8,3.49,5.52,11.59,5.96,16.1,4.6-8.61,15.06-25.84,20.05-25.88"/></g></svg>