<?xml version="1.0" encoding="UTF-8"?><svg id="Livello_2" xmlns="http://www.w3.org/2000/svg" viewBox="0 0 257.04 186.95"><defs><style>.cls-1{fill:#523333;}.cls-2{fill:none;stroke:#523333;stroke-linecap:round;stroke-linejoin:round;stroke-width:.79px;}</style></defs><g id="Livello_1-2"><path class="cls-1" d="m76.59,53.14c-9.52,3.1,7.86,8.43-.35,10.15-8.47-3.54-8.02,11.83-11.9,17.06,1.41,5.28-2.41,2.4-5.94,1.25,4.73-8.1,12.54-24.83,13.16-34.9,7.44.34,19.71,12.04,5.03,6.44Zm5.67-.55c-.12.32.42.75.69.59.07-.25-.38-.79-.69-.59Zm-1.14-.23c-1.26,1.14.78,2.33,1.45,1.25-.65.22-.75-.45-1.45-1.25Zm-.83.22c-.29.18.32.25.11-.01-.05-.02-.04-.02-.11.01Zm-1.87.14c.43-.06-.13-.58-.24-.2-.07.14.13.25.24.2Zm1.36-.06c-.26.1.24.3.11-.01-.05-.02-.04-.02-.11.01Zm-.03-.76c-.09.04-.17.06-.24.07-.47.47.75.17.24-.07Zm-1.16-.61c-.17.36.18.71.53.58.15-.37-.24-.73-.53-.58Zm-2.15-.83c-.03.28.24.27.58.44-.3-.04-.37-.7-.58-.44Zm-1.39,10.18c-.1.3.21.14.27,0-.08-.04-.16-.05-.27,0Zm-.22-10.75c-.09.14.1.24.15.17.04-.15.01-.19-.15-.17Zm-4.32,8.62c-.16.45.65-.06.11-.01-.01.03-.05.03-.11.01Zm1.76-5.7c-.21.11.21.3.3.06-.05-.2-.24-.18-.3-.06Zm-1.56,4.76c-.02-.12-.13-.05-.19-.07-.06.13.19.2.19.07Zm.23-1.57c-.15.29.28.14.06-.03,0,0-.02,0-.06.03Zm-5.5,13.8c.41.69.83.87.35,1.74,1.17-.21-.03-2.24-.35-1.74Zm2.82-4.01c-1.25-.66-.88.17.24.2-.1-.11-.18-.18-.24-.2Zm.64-2.92l-.03-.07s-.01.06.03.07Zm-1.1,4.83c.12.24.22-.22.11-.28-.25-.11-.15.26-.11.28Zm-2.28,6.09c.12-.26-.14-.5-.32-.28-.15.25.19.54.32.28Zm1.83-7.44c.1-.29-.27-.13-.18.04.09.04.15.02.18-.04Zm1.5-4.19c.13-.07-.03-.21,0-.27-.29-.69-.54.75,0,.27Zm-4.08,9.95c.21.65.8-.28.32-.41-.26-.13-.42.21-.32.41Zm-.09.66c.07-.32-.27-.14-.19.09.09-.05.15.05.19-.09Zm-2.13,5.56c-.02.12.05.26.23.09.01-.07-.21-.3-.23-.09Zm-.45,2.02c.12.01.27-.28.13-.33-.36-.18-.38.25-.13.33Zm1.07-.28c.52-.48-.38-.68-.61-.23,0,0,.61.23.61.23Zm1.35-3.23c-1.87-2.33,1-1.16.1-3.34-.77.6-2.59,3.96-.1,3.34Zm4.58-11.68c.06-.1-.14-.28-.29-.22-.12.16.17.35.29.22Zm.54-1.4c.32-.47-.14-.82-.65-.68-.16.38.36,1,.65.68Zm.64-1.68c.37-.44-.08-.47-.45-.5-.59-.76-.18-1.73.77-.88,0-1.3-.67-2.62-1.38-.59-.64.58.94,3.43,1.07,1.96Zm1.21-2.32c0-.07.15-.04.04-.09-.22-.32-.54.35-.04.09Zm3.52-9.04c.32.3,1.42.01.76-.3-.01-.11-1.12.32-.76.3Zm.02,1.08c.22-.07-.08-.08.07-.19-.22-.12-.26.32-.07.19Zm-2.25,7.55c-.19-.35-.71-.23-.37.13.04.06.27.25.37-.13Zm-2.44.08s-.04-.03-.03-.06c-.01.03,0,.05.03.06Zm14.03,29.25c.98,5.06-18.1-2.07-11.27-4.12,2.48-5.44,4.04-11.24,6.61-16.69,1.46-5.84-.05-8.3,6.83-4.98-.28,4.44-16.34,24.41-2.59,23.11,2.18-1.25,1.17,1.85.42,2.68Zm-7.19-7.65c-.12-.05-.23.04-.31.26-.17.88.99,0,.31-.26Zm-.28,3.38c-.31-1.29-.32-.98-.9-.03.35-.11.53.12.9.03Zm-.31-1.99c.07-.16-.66-.89-.74-.45.12.13.32,1.2.74.45Zm-.97,1.56c.14-.51-.73-.1-.63.24.33.06.54-.02.63-.24Zm6.81-19.18c-.32.03-.22.28-.01.32.31.08.45-.18.01-.32Zm-.8,1.94c-.23-.08-.29.25-.01.32.28.03.37-.19.01-.32Zm-7.47,18.39c.18-.07.2-.01.12-.17-.15-.02-.13.03-.12.17Zm1.24-2.68c-.07.1-.15.07-.04.25.07-.13.15-.06.04-.25Zm-1.06,3.45c.23.02.41.24.66.09.15-.75-1.3-.74-.66-.09Zm.79-.39c.84.51,1.44.56,1.13-.58-.33.53-.81-.02-1.13.58Zm1.7-.52s-.2-.17-.23-.09c-.05.13.14.17.23.09Zm1.22,2.13c.43.32.71-.26.23-.45-.21-.14-.68.33-.23.45Zm1.9,1.75c.18.08.1-.15-.03-.06-.04.08,0,.15.03.06Zm.55-1.29c.38.11.33-.53,0-.59-.4-.04-.37.5,0,.59Zm.38.68c-.02.06.01.11.11.15.33.08,0-.52-.11-.15Zm-.02.9c.19.07.35.03.48-.14.06-.46-1.02-.25-.48.14Zm1.04-1.58c.04-.13-.08-.28-.26-.15-.08.22.07.32.26.15Zm16.4,5.08c4.87,7.18-13.73.61-12.47-1.69,5.04-5.05,6.8-15.2,9.24-22-2.81-4.37,4.09-1.23,5.72,0,1.88,1.94,7.17.75,6.32,4.9-2.69,3.67-8.93-4.62-9.99,1.89,6.87,3.24,7.11,7.84-1.61,4.9-3.26,5.56-4.55,10.09,2.79,12Zm3.74-21.49c-.31.1.19.36.24.2,0-.11-.14-.17-.24-.2Zm-1.02,1c.02-.35-.57,0-.16.15.15-.06.13-.05.16-.15Zm.11-1.4s.06.11.14.05c0,0-.08-.12-.14-.05Zm-.67.07c-.52.31.6.59.85.43-.3-.26-.54-.43-.85-.43Zm-.39.6c0,.09.07.1.2.03-.06-.05-.14-.17-.2-.03Zm-3.74-2.94c.38-.22-.39-.46-.44-.54.06.05.05.68.44.54Zm-.03,9.85c-1.51,1.03,2.1,1.84,1.32.61-1.01.58-.95-.57-1.32-.61Zm2.98-7.64c-.12.38.47.05.15-.1-.09-.04-.13.03-.15.1Zm-.25.92c-1.2-.16.05.61.38.26,0-.23-.12-.43-.38-.26Zm-1.61-.14c-.24.08-.15.31.03.33.16-.02.05-.34-.03-.33Zm-8.46,18.01c.25.06.48-.09.35-.35-.22-.13-.41.21-.35.35Zm-.45,1.32s-.18.03-.08.08c.03,0,.08-.04.08-.08Zm5.16-13.18c.29.04.47-.27.26-.38-.19-.14-.52.27-.26.38Zm.1.58c.13-.35-.38-.09-.13.06.07.03.06-.09.13-.06Zm0-1.39c0,.11-.02.14.14.05-.04-.15-.03-.22-.14-.05Zm.38-.44c.06.02.11,0,.13-.06.34-.61-.53-.19-.13.06Zm1.17-3.46c.15-.06.19-.16.11-.28-.06.09-.15.09-.11.28Zm-2.09,5.3c-.44.29.05,1.21.37.57.12-.29-.4-.26-.37-.57Zm-.65,2.11c-.34-.02-.27.19-.31.52.44-.23,1.28-.26.31-.52Zm-.59,1.81c.3-.09.22-.26.12-.44-.32-.14-.36.39-.12.44Zm-1.66,3.65c-.06.31.28-.05.18-.2-.11.01-.16.09-.18.2Zm.5-.45c.26.28.41.56.32.98,1.07-.71-.75-2.53-.32-.98Zm2.19-3.76c.12.24.2.39.38.26.68-.36-.85-1.27-.38-.26Zm1.1-3.86c-.02.06.06.13.24.2.55-.03,0-.87-.24-.2Zm.7-.85c-.16-.09-.34.27-.12.33.14.06.22-.26.12-.33Zm.11-.71c-.09.2.16.34.23.09-.04-.1-.16-.24-.23-.09Zm.15-.53c.29.44,1.03,1,.7,0-.09-.84-1.53-.52-.7,0Zm.72-1.17c-.08.14.09.24.15.17.01-.09,0-.36-.15-.17Zm1.14-2.13c-.13.06-.19.09-.19.09-.1.34.51.21.19-.09Zm-.95,1.08s.03.1.13.21c.66.15.03-.78-.13-.21Zm-.42.8c.21-.42-.33-.49-.42-.16-.13.38.3.53.42.16Zm.87-3.95c-.12-.05-.21,0-.26.11,0,.45.78.11.26-.11Zm-8.37,21.42c.65.31.36-.27-.15-.17-.26.06-.11.37.15.17Zm2.43-4.8c.17.09.3-.2.09-.23-.06-.01-.25.19-.09.23Zm-1.08,4.08c.16,0,.23-.25.06-.3-.21.05-.19.24-.06.3Zm1.09-2.15c.09-.23-.2-.29-.39-.37-.46.1.07.91.39.37Zm1.3-2.13c.02-.06-.03-.12-.15-.17-.31.06-.07.54.15.17Zm1.38-3.75c.08.01.06-.03.05-.14-.07.05-.04.06-.05.14Zm.75-1.96c.18-.21-.15-1.51-.51-.9.3.32-.1.96.51.9Zm.27-.7s.04-.02.13-.06c-.01-.09-.25-.07-.13.06Zm-2.83,7.8l.06-.03-.06.03Zm2.89-8.1c.72-.17.5-.27.35-.78-.2.12-.34.59-.35.78Zm.83-.91c.32.32.67-.38.37-.55-.65.13-1.42.17-.37.55Zm.39.37s-.2-.04-.13.06c0,0,.13-.06.13-.06Zm.26-.12c-.11,0,0,.1.06.13.09-.05.05-.08-.06-.13Zm-3.62,12.53c.21.06.26-.34.12-.33-.25-.05-.36.25-.12.33Zm1.06.03c.12.05.21.02.24-.07.04-.3-.62-.13-.24.07Zm.15,1.29c.07-.21-.07-.17-.2-.18,0,.22.1.34.2.18Zm.84-1.07c-.16-.05-.31.39-.11.44.22.11.48-.41.11-.44Zm-.36,1.79c.85.96.36-.75.2-1.21-.53.18-.25,1.01-.2,1.21Zm1.34-.29c-.05.14.32.37.42.16,0-.16-.31-.23-.42-.16Zm-.01,1.01c.17-.09.21.13.31-.1.1-.37-.68-.21-.31.1Zm1.18-.14c.53.12.12-.61-.16-.28-.08.18.03.24.16.28Zm26.39,10c2.04,3.76-13.24-1.9-6.77-2.88,1.79-10.6-7.38-8.16-7.3-.94-2.71-.34-5.12-2.21-7.97-2.53,9.82-6.86,17.95-9.88,8.79-25.87,1.61.21,9.7,1.9,8.18,4.22-3.22,1.03-.71,6.21.21,8.12,1.87-.42,7.59-3.29,6-5.73-1.79-3.02,3.82.07,4.98.42,11.26,2.94-21.38,5.17-6.12,25.19Zm-9.94-29.55s-.32-.55-.42-.43c.02.05.26.83.42.43Zm2.05,4.86c-.52.12-.89.46-.49.72.43.1.34-.47.49-.72Zm.04-1.38c.16-.43-.55-.45-.61-.07-.14.4.53.5.61.07Zm-.04-1.3c-.18.06-.23.23-.06.3.2.08.17-.3.06-.3Zm-.15-1.56c.14-.32-.26-.3-.41-.48-.85-.79-.27,1.66.41.48Zm-.97,2.68c-.08.19.24.16.25.04.08-.18-.39-.22-.25-.04Zm-.19.78c-.22.49.39.96.76.67.1-.48-.55-.45-.76-.67Zm.2,1.85c-.08.47.44.62.65.25-.06-.38-.48-.69-.65-.25Zm.41,1.02c.16-.06.27-.27.08-.35-.22-.06-.27.18-.08.35Zm-9.92,15.68c1.28-.53-.32-.67-.65.02.2.14.85.48.65-.02Zm.78.35c.19.07.36,0,.52-.23-.21-.45-.94-.06-.52.23Zm.63.73c.03-.09.15-.08.07-.19-.11.06-.17.01-.07.19Zm2.21-3.38c-.08.06-.09.06.04.18.32.04.19-.52-.04-.18Zm-.53.54c-.18.3.3.54.41.32.01-.32-.13-.6-.41-.32Zm-.43,2.24c.75.2.1-.65-.13-.21-.07.14.11.12.13.21Zm1.81-3.75c-.51.51-.18.84.07,1.36.21-.44.23-.86-.07-1.36Zm.02,1.77s.04-.02.13-.06c-.09-.17-.4-.09-.13.06Zm1.15-2.72c-.1.28.5.51.58.17.14-.32-.43-.53-.58-.17Zm.23,1.64c.48-.08.43-.7-.06-.83-.36,0-.61,1.07.06.83Zm.88-2.45c.1.11.18.18.24.2.86.23-.3-1.07-.24-.2Zm9.5-5.66c.2,0,.31-.09.14-.22-.1-.05-.3.09-.14.22Zm.83-.49c.24.18.65-.31.47-.52-.13-.02-.96.32-.47.52Zm3.82-4.1c.45.07-.08-.51-.2-.18-.07.15.09.23.2.18Zm1.01.01c.25-.73-.65-.08-.28.16.12.05.22,0,.28-.16Zm.32-.14l.02-.05-.02.05Zm.34-.89c-2.45-.91.35,1.74,1.25-.05.85-.42-.69-1.27-.97-.96-.1.4.52.94-.28,1.02Zm-.34-1.63c-.68-.29-.3.21-.3.64.32-.33,1.13-.39.3-.64Zm-.84.1s-.03.03-.08.07c-.07.22.28-.02.08-.07Zm-.25,1.35c-.25-.14-.49.12-.31.26.25.15.6-.11.31-.26Zm-.98,1.44c-.37.14-.37,1.27.2.88.4-.21.14-.81-.2-.88Zm0-.7c-.29.05-.28.27-.5.45.35.23.77-.24.5-.45Zm-1.47,2.7c-.49-.06.03.56.18.23.06-.14-.07-.2-.18-.23Zm-.09-1.43c-.6.08-.49.85.13.21.52-.32.14-.83-.13-.21Zm-1,.79c-.36.37-.68,2.31.46,1.73.35-.38.29-2.15-.46-1.73Zm-1.5,1.13c-.04.09-.04.15,0,.16,0,.01.44-.19,0-.16Zm-.83.91c-.17.45.39.76.78.35,0-.46-.5-.7-.78-.35Zm.18,1.35c-.14-.41-.62-.31-.87-.66-.9.31.43.68.87.66Zm-.42-1.56c-.09.04-.13.06-.13.06-.14.45.46.1.13-.06Zm-.51.5c-.26-.09-.2.2.06.13,0,0-.06-.13-.06-.13Zm-2.31-1.37c-2.89,2.44,5.27,4.28.04-.09l-.04.09Zm-.73,2.88c.66.19.22-1.04-.1-.3-.07.18-.03.27.1.3Zm-.96,2.36c.08.04.13-.03.15-.1.04-.33-.5,0-.15.1Zm-.05-6.29c.48-.2-.09-.91-.44-.81-.05.21.15.93.44.81Zm-.11.98s.07,0,.11-.01c0-.05-.07-.12-.11.01Zm.42.43c.19.1.37-.13.14-.22-.23-.11-.31.08-.14.22Zm.52-1.08c1.09.14.57-.94-.24-.2-1.11.61.38,1.16.24.2Zm-2.42,7.86c.05-.12.13-.29-.08-.35-.33,0-.2.71.08.35Zm1.92-4.73c.01.14.16-.02.1-.12-.25-.09-.28.06-.1.12Zm-.59,1.97c.12.42,1.02-.52.95-.81-.22.26-1.17.33-.95.81Zm-.36,3.18c.86-.34-.26-.66-.47-.18-.13.39.27.36.47.18Zm1.25-2.57c.24.12.37-.2.11-.28-.14-.06-.32.15-.11.28Zm.74.45c.19,0,.13-.16.06-.3.02.02-.33.21-.06.3Zm.59-1.81c.34.09.5-.37.13-.49-.16-.07-.4.36-.13.49Zm1.48-.66c.1-.38-.4-.24-.65-.41.19.31.55.91.65.41Zm-.55.59c.07,0,.13-.06.17-.15-.06-.13-.31-.1-.17.15Zm-.68.81c-.02.14.05.23.21.29,1.29.47-.21-1.11-.21-.29Zm-.46,3.15c.24-.07-.08-.33-.2-.18-.02.25.06.11.2.18Zm.41-1.77c-.12.25.23.26.33.39.74.22.04-1.22-.33-.39Zm-.14,4.29c.06,0,.04-.03.04-.09-.06-.01-.08.02-.04.09Zm.91-1.95c.95-.93-1.63-2.64-.38-.68-.98.42-.18.38.38.68Zm3.57-7.79c-.19-.31-.61,0-.41.22.29.24.81-.28.41-.22Zm-3.99,10.68c.08-.12-.19-.33-.26-.15-.08.22.07.32.26.15Zm.85-1.23c-.06,0-.13,0-.08.08.07.02.13-.02.08-.08Zm-.47.94c-.06.39.35.74.65.41.13-.6-.22-1.15-.65-.41Zm-.34,2.71c.23.04.22-.47.07-.46-.36-.16-.32.42-.07.46Zm.92-.88c-.16.25.27.92.53.58.09-.21-.3-.93-.53-.58Zm-.17,1.43c-.04.09,0,.16.09.19.47.16.21-.71-.09-.19Zm-1.25,3.97c.27.07.19-.32.29-.48-.28.25-.58.37-.29.48Zm.32-.84c.07.12.09.07.06-.03-.01.03-.03.04-.06.03Zm.57-1.07c.36,0,.53-.41.14-.64-.23.29-.35.4-.14.64Zm-.35,2.17c.25.16.55-.47.28-.59-.36-.21-.61.54-.28.59Zm.57-1.07c.12-.11.23-.43.23-.61-.52.21-.63.2-.23.61Zm.76-.03c-.56-.16-.34.37.06.4.35.05.21-.41-.06-.4Zm-.44,1.44c.16.06.27-.02.36-.24.19-.8-1.21-.25-.36.24Zm.89-.36c.25-.02.06-.26-.04-.18-.04.09-.02.15.04.18Zm.22.83c.08-.21-.15-.06-.23-.09.17.17.12.2.23.09Zm12.09,4.44c1.02,3.09-5.01-.78-6.43-.82-.28-1.64,3.9-4.28,3.92-7.44,1.58-5.87,6.67-12.63,4.89-18.21,1.65-1.17,4.48,1.7,6.51,1.86-1.95,5.36-9.84,16.65-8.89,24.6Zm3.82-20.17c-.28-.08-.11.49.07.24.05-.1.07-.22-.07-.24Zm1.25-4.66c-.34-.1-.09.3.09.19.12.04.05-.17-.09-.19Zm-.85,1.23c-.17.59,1.1.33.84-.1-.41.01-.63.02-.84.1Zm-.6,1.86c-.02.06.01.11.1.15.5.18.09-.65-.1-.15Zm-2.14,6.41c.11-.07.2-.16.11-.28-.21.02-.36.35-.11.28Zm1.35-3.39c.04-.08,0-.03-.05-.02,0,0,.05.02.05.02Zm.4-.49c.12.3.25.3.38-.01.12-.43-.98-.49-.38.01Zm-1.27,4.44c.18.04.37-.36.16-.42-.2-.09-.32.33-.16.42Zm20.71,12.53c-2.1,11.51-12.67,8.12-20.79,4.64-1.41-1.36,1.53-.8,1.76-1.79.37-1.63,1.24-3.44,1.99-4.91,1.84-6.07,6.49-13.03,5.77-18.83,2.85-.56,6.58,2.08,9,3.89,5.36,3.77-1.32,10.05.46,13.2.15,1.74,3.65,2.58,1.81,3.8Zm-1.89,1.15c.04-.2-.41-.37-.48-.13-.09.16.42.42.48.13Zm-.04-2.27c-.04.16.32.27.42.16-.05-.22-.33-.49-.42-.16Zm-.51-.62c-.42-.2-.63.33-.18.47.15.07.36-.28.18-.47Zm-3.45,7.19c-.59.15-.68.14-.5.61.22-.23.38-.31.5-.61Zm4.32-15.75s-.08.04-.04.09c.02-.05.13-.04.04-.09Zm-.2-2c-.08.21.05.31.25.2.12-.18-.17-.49-.25-.2Zm-2.08,5.84s.09,0,.18-.04c.1-.28-.41-.06-.18.04Zm-.06.3c-.04.08,0,.03.05.02,0,0-.05-.02-.05-.02Zm1.71-5.72c.04-.16-.36-.39-.42-.16-.15.3.38.37.42.16Zm-.27-2.51c-1.09.73.22,1.07-.11,1.83.73.01,1.21-2.03.11-1.83Zm-1.91,6.39c.02-.09-.05-.14-.11.01-.03.09.1.07.11-.01Zm1.7-7.38s-.04,0-.11.01c.03.08.28.09.11-.01Zm-1.53.21c.16.57,1.28.8.61.23-.32.09-.48-.43-.61-.23Zm-.32-1.41c-.35,0-.48.33-.21.56.38.15.67-.3.21-.56Zm-4.33,4.44c-2.98,4.37,1.81,6.05,4.19,2.2,1.45-4.13-2.86-7.73-4.19-2.2Zm-1.9,6.07c-.42.16.07.51-.08.77,1.08-.07,1.19-.7.08-.77Zm-4.07,4.06c-.26-.1-.27.41,0,.27.04-.1.06-.13,0-.27Zm.13-.49c.19.35.32.47.66.09-.22-.33-.39-.14-.66-.09Zm-1.08,2.53c-1.31,1.34.36.43,1.28,1.14.21-.69-1.23-1.33-1.28-1.14Zm.97,1.39c-.15-.06-.26-.01-.32.14-.1.5.86.02.32-.14Zm2.61-6.12c.27-.06.52-.28.24-.5-.27.12-.31.28-.24.5Zm.54-.86c-.17-.21-.33-.29-.48-.13.13.27.21.3.48.13Zm-.15-1.56c-.04.13.08.28.26.15.07-.19-.1-.26-.26-.15Zm-2.44,6.24c-.43-.11-.13.55-.51.34-.88.49,1.16-.02.51-.34Zm3.96-11.17c-.15.06-.03.14.08.08.05-.12,0-.2-.08-.08Zm-.85,2.35c-.19,0-.13.15-.11.28.05-.09.3-.21.11-.28Zm-2.57,6.84c.23-2.67-.6-.06-1.24-.26-.42.41,1.06.62,1.24.26Zm1.7-5.56c-.48.06-.05.58.13.21-.04-.15-.05-.19-.13-.21Zm1.73-5.92c-.11.09-.15.22.05.29.32.04.21-.76-.05-.29Zm-1.57,3.95c-.66-.09.08.79.33.39.03-.17-.08-.3-.33-.39Zm-.81,1.13c-.12-.05-.22,0-.28.16-.22.69.92.02.28-.16Zm-3.3,7.78c-.1.13-.5.41-.21.56.33.09.47-.3.21-.56Zm-1.17,2.5c-.16.04-.03.24.1.15.04-.16,0-.22-.1-.15Zm1,2.69c.29-1-1.3-.86-.9-2.12-.67.41-1.93,3.21-.14,3,1.17.2-.55-2.4,1.04-.89Zm.97-1.13c.53.24.6-.27.16-.42-.41-.19-.63.28-.16.42Zm-.39,1.72c.07.04.04-.04.11-.01-.04-.24-.46,0-.11.01Zm1.01-.26c.18-.14.15-.52-.08-.62-1.19-.38-.94.87.08.62Zm.12-.87c.63.18.29-.87-.09-.46-.08.22-.05.37.09.46Zm.91.83c.04-.15-.1-.16-.23-.09-.09.17.2.3.23.09Zm.82,1.22c.22.1.29-.4.11-.44-.26-.12-.45.42-.11.44Zm1.17.72c.67-.62-.19-.65-.44-.11-.2.55.33.58.44.11Zm.77.08c.48.17.17-.63-.07-.24-.05.12-.02.21.07.24Zm.64.84c.05-.21-.35-.2-.36-.03-.07.22.29.31.36.03Zm.37-.82c.13-.38-.57-.12-.13.06,0,0,.04-.02.13-.06Zm2.24-.1c.14.07.2-.21.09-.23-.04.01-.39.12-.09.23Zm-.02,1.17c.09-.07.2-.07.07-.19-.14-.1-.18.17-.07.19Zm2.69-6.2c1.31-4.24-7.36-7.65-7.98-2.22-2.82,5.97,6.87,8.4,7.98,2.22Zm-2.05,5.91c.13.36.42,0,.65-.02-.24-.21-.79-.6-.65.02Zm1.48-.93c.06-.16.01-.26-.14-.32-.63-.23-.11.86.14.32Zm1.52-3.54c.13-.42-.64-.03-.15.11.08.04.13-.03.15-.11Zm1.23-3.06c.2.1.3-.29.12-.33-.16-.09-.34.27-.12.33Zm-.87,2.56c.08.3.33.93.72.49-.07-.21-.53-.94-.72-.49Zm-.18,2.99c.49-.44-.54-.11-.59.15.16.48.34-.25.59-.15Zm.55-.75c.44.01.05-.49-.12-.26-.05.12,0,.21.12.26Zm.12-1.02c.24.21.77-.03.31-.26-.19-.14-.6.05-.31.26Zm.79-.93c.21-.27.32-.35.23-.61-.18.06-.31.46-.23.61Zm12.27,11.15c-1.16,5.4-8.74-1.4-12.57-1.57-.98-1.74,4.15-6.15,4.02-9.65,2.22-5.3,4.89-11.46,5.05-16.54,3.63,1.41,8.34,1.51,3.83,5.38-1.92,5.93-12.88,22.13.21,19.43,1.05.62-.15,2.18-.54,2.95Zm-7.19-7.65c-.12-.05-.23.04-.31.26-.17.89.99,0,.31-.26Zm-.28,3.38c-.31-1.29-.32-.98-.9-.03.35-.11.53.12.9.03Zm-.31-1.99c.06-.16-.66-.89-.74-.45.13.13.32,1.2.74.45Zm-.97,1.56c.14-.51-.73-.1-.63.24.33.06.54-.02.63-.24Zm6.82-19.18c-.32.03-.22.28-.01.32.31.08.45-.18.01-.32Zm-.8,1.94c-.23-.08-.29.25-.01.32.28.03.37-.19.01-.32Zm-7.48,18.39c.18-.07.2,0,.12-.17-.15-.02-.13.03-.12.17Zm1.24-2.68c-.07.1-.15.07-.04.25.07-.13.15-.06.04-.25Zm-1.06,3.45c.23.02.41.24.66.09.15-.75-1.3-.74-.66-.09Zm.79-.39c.84.51,1.44.56,1.13-.58-.32.53-.81-.01-1.13.58Zm1.7-.52c-.04-.05-.2-.17-.23-.09-.05.13.14.17.23.09Zm1.22,2.13c.43.32.71-.26.22-.45-.21-.14-.68.33-.22.45Zm1.9,1.75c.18.08.1-.15-.03-.06-.04.08,0,.15.03.06Zm.55-1.29c.38.11.33-.53,0-.58-.4-.04-.37.5,0,.58Zm.38.68c-.02.06.01.11.1.15.34.08,0-.52-.1-.15Zm-.02.9c.19.07.35.03.48-.14.06-.46-1.02-.25-.48.14Zm1.04-1.58c.04-.13-.08-.28-.26-.15-.08.22.07.32.26.15Zm16.4,5.08c4.87,7.18-13.73.61-12.47-1.69,5.04-5.05,6.8-15.2,9.24-22-2.81-4.37,4.09-1.23,5.72,0,1.88,1.94,7.17.75,6.32,4.9-2.69,3.67-8.93-4.62-9.99,1.89,6.87,3.24,7.11,7.84-1.61,4.9-3.26,5.57-4.55,10.09,2.79,12Zm3.74-21.49c-.31.1.19.36.25.2,0-.11-.14-.17-.25-.2Zm-1.02,1c.02-.35-.57,0-.16.15.15-.06.13-.05.16-.15Zm.11-1.4s.06.11.14.05c0,0-.08-.12-.14-.05Zm-.67.06c-.52.31.59.59.85.43-.3-.26-.54-.43-.85-.43Zm-.39.6c0,.09.07.1.2.02-.06-.05-.14-.17-.2-.02Zm-3.74-2.94c.38-.22-.39-.46-.43-.54.06.05.05.68.43.54Zm-.02,9.85c-1.51,1.03,2.1,1.84,1.32.61-1.01.58-.95-.57-1.32-.61Zm2.98-7.64c-.11.38.48.04.15-.1-.08-.04-.13.03-.15.1Zm-.25.92c-1.2-.17.05.62.38.26,0-.23-.12-.43-.38-.26Zm-1.61-.14c-.24.09-.15.31.03.33.16-.01.05-.34-.03-.33Zm-8.46,18.01c.26.06.48-.09.35-.35-.22-.13-.4.21-.35.35Zm-.45,1.32s-.18.03-.08.08c.03,0,.08-.04.08-.08Zm5.16-13.18c.29.04.47-.27.25-.38-.19-.14-.52.27-.25.38Zm.1.57c.13-.35-.38-.1-.13.06.07.03.06-.09.13-.06Zm0-1.39c0,.11-.02.13.14.05-.04-.15-.03-.22-.14-.05Zm.38-.44c.06.02.1,0,.13-.06.34-.61-.53-.19-.13.06Zm1.17-3.46c.15-.06.19-.16.11-.28-.06.09-.14.09-.11.28Zm-2.09,5.31c-.44.28.05,1.21.37.57.12-.29-.4-.26-.37-.57Zm-.65,2.11c-.34-.02-.27.19-.31.52.45-.23,1.28-.26.31-.52Zm-.59,1.81c.3-.09.22-.26.12-.44-.32-.14-.36.39-.12.44Zm-1.66,3.65c-.06.31.28-.05.18-.2-.11.01-.16.09-.18.2Zm.49-.45c.26.28.41.56.32.98,1.07-.71-.75-2.53-.32-.98Zm2.19-3.76c.12.24.19.39.38.26.68-.36-.85-1.27-.38-.26Zm1.1-3.86c-.02.06.06.13.24.2.55-.03,0-.87-.24-.2Zm.7-.85c-.16-.09-.34.27-.12.33.14.06.22-.26.12-.33Zm.11-.71c-.08.2.16.34.23.09-.03-.1-.16-.23-.23-.09Zm.15-.53c.29.44,1.03,1.01.7,0-.09-.84-1.53-.52-.7,0Zm.72-1.17c-.08.14.09.24.15.17.01-.09,0-.36-.15-.17Zm1.14-2.13c-.13.06-.19.09-.19.09-.1.34.51.21.19-.09Zm-.95,1.08s.03.1.13.21c.66.15.03-.78-.13-.21Zm-.41.81c.21-.42-.33-.49-.42-.16-.13.38.3.53.42.16Zm.87-3.95c-.12-.05-.21,0-.26.12,0,.44.78.11.26-.12Zm-8.37,21.42c.65.31.35-.27-.15-.17-.26.06-.11.37.15.17Zm2.43-4.8c.17.09.3-.2.09-.23-.06-.02-.25.19-.09.23Zm-1.08,4.08c.16,0,.23-.25.06-.3-.21.05-.19.24-.06.3Zm1.09-2.15c.09-.23-.2-.29-.4-.37-.46.1.07.91.4.37Zm1.3-2.13c.02-.06-.03-.12-.15-.17-.31.06-.07.54.15.17Zm1.38-3.75c.09.01.06-.03.05-.14-.07.05-.04.06-.05.14Zm.75-1.96c.18-.21-.15-1.51-.51-.9.29.32-.1.97.51.9Zm.27-.7s.04-.02.13-.06c-.01-.09-.25-.07-.13.06Zm-2.83,7.8l.06-.03-.06.03Zm2.89-8.1c.72-.18.5-.27.35-.78-.2.12-.34.59-.35.78Zm.83-.91c.32.32.67-.38.37-.55-.65.13-1.42.17-.37.55Zm.4.37s-.2-.04-.13.06c0,0,.13-.06.13-.06Zm.26-.11c-.11,0,0,.1.06.13.09-.05.05-.08-.06-.13Zm-3.62,12.53c.21.06.26-.34.12-.33-.25-.05-.36.25-.12.33Zm1.06.03c.12.05.21.03.24-.07.05-.3-.62-.13-.24.07Zm.15,1.29c.07-.21-.07-.17-.2-.18,0,.22.1.34.2.18Zm.84-1.07c-.16-.05-.31.39-.11.44.22.11.48-.41.11-.44Zm-.36,1.79c.85.95.36-.75.2-1.21-.53.18-.25,1.01-.2,1.21Zm1.34-.29c-.04.13.33.37.42.16,0-.16-.31-.23-.42-.16Zm-.01,1.01c.17-.09.21.13.3-.1.1-.37-.68-.21-.3.1Zm1.18-.14c.53.12.12-.61-.16-.28-.08.18.03.24.16.28Zm13.83-3.35c-6.81,1.66,6.21-23.97,5.35-25.43,0,0,4.99,1.92,4.99,1.92l-10.34,23.5Zm-6.88,5.23c1.2-4.33,7.73-1.77,5.79,2.23-1.27,4.3-7.77,1.84-5.79-2.23Z"/><path class="cls-2" d="m49.83,99.27c.04-.45-.21-.74-.65-.8"/><path class="cls-2" d="m46.85,97.62l-5.82-2.1"/><path class="cls-2" d="m39.87,95.1c-.53-.11-.62-.3-.36-.78"/><path class="cls-2" d="m40.04,92.83l.53-1.49"/><path class="cls-2" d="m40.85,90.59c.26-.48.17-.67-.36-.78"/><path class="cls-2" d="m38.23,88.99C-3.94,80.02,19.8,18.44,57.25,39.62"/><path class="cls-2" d="m58.38,40.03c.48.26.67.17.78-.37"/><path class="cls-2" d="m59.69,38.18l.53-1.49"/><path class="cls-2" d="m60.5,35.94c.11-.53.3-.62.78-.37"/><path class="cls-2" d="m63.6,36.41l5.82,2.1"/><path class="cls-2" d="m70.58,38.93c.38.24.76.17,1.01-.2"/><path class="cls-2" d="m73.39,37.07c44.95-46.93,130.23-15.17,134.01,49.59"/><path class="cls-2" d="m207.57,87.87c-.04.45.21.74.65.8"/><path class="cls-2" d="m210.55,89.51l5.82,2.1"/><path class="cls-2" d="m217.52,92.03c.53.11.62.3.36.78"/><path class="cls-2" d="m217.35,94.31l-.53,1.49"/><path class="cls-2" d="m216.55,96.54c-.26.48-.17.67.37.78"/><path class="cls-2" d="m219.17,98.13c42.17,8.97,18.43,70.55-19.02,49.37"/><path class="cls-2" d="m199.02,147.09c-.48-.26-.67-.17-.78.37"/><path class="cls-2" d="m197.7,148.96l-.53,1.49"/><path class="cls-2" d="m196.9,151.2c-.11.53-.3.62-.78.37"/><path class="cls-2" d="m193.8,150.72l-5.82-2.1"/><path class="cls-2" d="m186.82,148.2c-.38-.24-.76-.17-1.01.2"/><path class="cls-2" d="m184.01,150.07c-44.95,46.93-130.23,15.17-134.01-49.59"/><path class="cls-1" d="m234.54,88.57c6.42-7.77-10.27-8.27-13.95-10.93C211.09,7.88,119.62-25.31,67.78,22.42c0,0-15.83-5.72-15.83-5.72-10.73,11.27-37.97-1.42-48.86,31.31-12.37,31.96,16.3,39.55,17.71,55.36,0,0,15.82,5.72,15.82,5.72,5.67,33.27,28.54,60.79,60.34,72.29,31.81,11.49,66.93,4.93,92.47-17.07,43.64,19.56,99.51-41.05,45.11-75.74Zm-30.78,69.67c-.17,9.24-11.22.28-15.53-.11-47.8,48.74-141.04,14.95-146.76-53.04,0,0-13.78-4.97-13.78-4.97-1.36-13.83-31.18-18.45-19.53-50.27,11.49-32.14,37.23-16.33,47.03-26.21,0,0,13.77,4.97,13.77,4.97C92.3,7.05,126.5-1.1,158.42,10.44c52.44,14.24,42.84,65.33,71.09,76.18,0,0-1.74,4.86-1.74,4.86,43.35,14.95,19.03,82.97-24,66.76Z"/><path class="cls-1" d="m234.54,88.57c6.42-7.77-10.27-8.27-13.95-10.93C211.09,7.88,119.62-25.31,67.78,22.42c0,0-15.83-5.72-15.83-5.72-10.73,11.27-37.97-1.42-48.86,31.31-12.37,31.96,16.3,39.55,17.71,55.36,0,0,15.82,5.72,15.82,5.72,5.67,33.27,28.54,60.79,60.34,72.29,31.81,11.49,66.93,4.93,92.47-17.07,43.64,19.56,99.51-41.05,45.11-75.74Zm-30.78,69.67c-.17,9.24-11.22.28-15.53-.11-47.8,48.74-141.04,14.95-146.76-53.04,0,0-13.78-4.97-13.78-4.97-1.36-13.83-31.18-18.45-19.53-50.27,11.49-32.14,37.23-16.33,47.03-26.21,0,0,13.77,4.97,13.77,4.97C92.3,7.05,126.5-1.1,158.42,10.44c52.44,14.24,42.84,65.33,71.09,76.18,0,0-1.74,4.86-1.74,4.86,43.35,14.95,19.03,82.97-24,66.76Z"/></g></svg>