<svg width="70" height="70" viewBox="0 0 70 70" fill="none" xmlns="http://www.w3.org/2000/svg">
<path d="M49.1927 52.8515L52.9826 49.32C53.3845 48.9181 53.5855 48.473 53.5855 47.985C53.5855 47.4969 53.3845 47.0519 52.9826 46.6499L39.8904 33.5577C40.1775 32.7538 40.4072 31.9786 40.5794 31.2321C40.7517 30.4856 40.8378 29.7104 40.8378 28.9065C40.8378 25.5761 39.6607 22.7337 37.3064 20.3794C34.9521 18.0251 32.1097 16.8479 28.7792 16.8479C27.8031 16.8479 26.8269 16.9915 25.8507 17.2786C24.8746 17.5657 23.9271 17.9677 23.0083 18.4845L30.588 25.978L25.9369 30.3708L18.5294 23.0495C18.0126 23.9683 17.625 24.9157 17.3666 25.8919C17.1083 26.8681 16.9791 27.8729 16.9791 28.9065C16.9791 32.1796 18.1275 34.9502 20.4244 37.2184C22.7212 39.4865 25.5062 40.6206 28.7792 40.6206C29.5832 40.6206 30.3727 40.5488 31.1479 40.4053C31.9231 40.2617 32.7126 40.0464 33.5166 39.7593L46.5226 52.8515C46.8671 53.196 47.3122 53.3683 47.8577 53.3683C48.4032 53.3683 48.8482 53.196 49.1927 52.8515ZM35.1531 69.4751C30.4445 69.4751 25.9943 68.5707 21.8025 66.7619C17.6107 64.9531 13.95 62.484 10.8206 59.3545C7.69106 56.225 5.22192 52.5644 3.41313 48.3726C1.60435 44.1808 0.699951 39.7306 0.699951 35.022C0.699951 30.256 1.60435 25.7771 3.41313 21.5853C5.22192 17.3935 7.69106 13.7472 10.8206 10.6464C13.95 7.54561 17.6107 5.09082 21.8025 3.28203C25.9943 1.47324 30.4445 0.568848 35.1531 0.568848C39.9191 0.568848 44.398 1.47324 48.5898 3.28203C52.7816 5.09082 56.4279 7.54561 59.5287 10.6464C62.6294 13.7472 65.0842 17.3935 66.893 21.5853C68.7018 25.7771 69.6062 30.256 69.6062 35.022C69.6062 39.7306 68.7018 44.1808 66.893 48.3726C65.0842 52.5644 62.6294 56.225 59.5287 59.3545C56.4279 62.484 52.7816 64.9531 48.5898 66.7619C44.398 68.5707 39.9191 69.4751 35.1531 69.4751ZM35.1531 64.3071C43.307 64.3071 50.2263 61.4504 55.9111 55.7369C61.5958 50.0234 64.4382 43.1185 64.4382 35.022C64.4382 26.8681 61.5958 19.9487 55.9111 14.264C50.2263 8.5792 43.307 5.73682 35.1531 5.73682C27.0566 5.73682 20.1516 8.5792 14.4381 14.264C8.72466 19.9487 5.86792 26.8681 5.86792 35.022C5.86792 43.1185 8.72466 50.0234 14.4381 55.7369C20.1516 61.4504 27.0566 64.3071 35.1531 64.3071Z" fill="#9B2321"/>
</svg>
