<?xml version="1.0" encoding="UTF-8"?><svg id="Livello_2" xmlns="http://www.w3.org/2000/svg" viewBox="0 0 318.48 166.33"><defs><style>.cls-1{fill:#fff;}.cls-2,.cls-3,.cls-4,.cls-5{font-family:TheGoldsmithVintage, 'The Goldsmith Vintage';}.cls-3{letter-spacing:.06em;}.cls-6{fill:#523333;}.cls-4{letter-spacing:0em;}.cls-7{fill:#1d1d1d;}.cls-8{font-family:MyriadPro-Regular, 'Myriad Pro';}.cls-9{letter-spacing:-.01em;}.cls-5{font-size:45px;}.cls-10{fill:none;stroke:#9b2321;stroke-width:2.36px;}.cls-11{letter-spacing:.02em;}.cls-12{font-size:20px;}.cls-13{fill:#988575;}</style></defs><g id="Livello_1-2"><path class="cls-13" d="m267.76,159.43c-58.51,1.21-117.02,2.41-175.53,3.62-6.29-3.78-16-11.03-21.84-23.41-1.15-2.43-2.02-4.79-2.69-7.05-11.52-13.26-14.24-24.53-14.85-31.6-.78-8.99,1.28-21.79,2.7-35.3.58-5.55.88-7.67,1.13-10.37.18-1.97-.04-2.37.25-3.28.99-3.13,3.72-3.9,7.32-7.42,0,0,1.44-1.4,3.65-4.36,5.02-6.71,2.86-14.27,4.61-19.94,1.48-4.78,6.48-10.64,22.47-14.79,59.84,1.03,119.69,2.05,179.53,3.08,1.68,4.66,5.09,11.99,12.06,18.51,2.68,2.51,5.36,4.41,7.77,5.84,4.89,9.05,14.41,29.64,13.22,57.04-.93,21.47-8.03,37.72-12.68,46.5-1.13.34-2.95.98-4.98,2.19-1.95,1.16-3.25,2.34-3.93,2.97-2.77,2.56-9.45,9.03-18.18,17.77Z"/><path class="cls-13" d="m40.34,91.14c2.09-.3,3.97-.53,5.83-.86.76-.13,2.04-.41,2.1-.77.19-1.19-.06-2.46-.2-3.68-.01-.12-.49-.26-.76-.27-1.15-.03-2.31-.01-3.56-.21.9-.23,1.79-.56,2.71-.67,1.75-.21,1.92-.32,1.99-2.03,0-.04,0-.09,0-.13.09-2.77-.11-2.87-2.88-2.85-1.45.01-2.91-.34-4.35-.59-.78-.13-1-.71-.64-1.37,1.3-2.35,2.69-4.62,4.98-6.17,1.88-1.27,2.93-3.16,3.73-5.21,2.74-7.05,5.46-14.11,8.22-21.15,1.72-4.38,3.5-8.75,5.24-13.12.72-1.8,1.37-3.63,2.13-5.41,1.44-3.34,3.17-6.57,4.33-10,.61-1.79,1.6-2.36,3.16-2.74,6.41-1.6,11.56-5.3,16.16-9.86.85-.84,1.62-1.81,2.2-2.85.51-.91,1.18-1.15,2.1-1.14,1.6,0,3.21-.03,4.81-.03,56.1,0,112.21,0,168.31,0,.09,0,.17,0,.26,0,2.25-.2,3.8.49,5.32,2.45,4.81,6.17,11.25,10.02,18.87,11.88.42.1.95.49,1.11.88,1.44,3.51,2.83,7.05,4.21,10.59,3.02,7.73,5.98,15.48,9.06,23.18,1.29,3.23,2.85,6.35,4.19,9.55,1.6,3.81,3.11,7.66,4.65,11.5,1.49,3.73,2.95,7.48,4.45,11.21.48,1.2.59,2.26.05,3.57-2.7,6.64-5.17,13.38-7.89,20.02-1.83,4.47-4.07,8.77-5.86,13.25-3.91,9.79-7.64,19.66-11.45,29.49-.46,1.2-.94,2.39-1.52,3.53-.17.34-.7.62-1.11.72-3.87.92-7.58,2.25-10.81,4.6-3.42,2.48-6.85,4.99-9.07,8.74-.28.47-.97.82-1.54.98-.65.19-1.37.13-2.07.13-56.62,0-113.25,0-169.87,0-1.26,0-2.52-.05-3.77-.01-1.24.04-2.06-.56-2.84-1.47-1.62-1.88-3.23-3.82-5.08-5.45-2.9-2.55-6.11-4.7-9.74-6.11-1.12-.43-2.31-.72-3.48-1.02-1.45-.38-2.44-.91-2.8-2.69-.44-2.17-1.52-4.21-2.33-6.31-.14-.36-.26-.73-.45-1.07-.33-.6-.03-1.62-1.25-1.69-.25-.01-.48-.95-.68-1.47-1.69-4.39-3.36-8.8-5.06-13.19-2.37-6.13-4.72-12.26-7.15-18.36-.84-2.12-1.83-4.18-2.85-6.22-.28-.56-.86-1.07-1.42-1.39-3.47-1.95-6.11-4.61-7.68-8.72Zm15.17-26.39c1.37.33,2.53.7,3.71.89,2.54.39,5.05.87,7.26,2.25,1.24.78,2.45,1.62,3.61,2.51.63.48,1.17,1.1,1.68,1.72.35.43.49,1.05.88,1.43,1.26,1.24,1.94,2.77,2.21,4.46.41,2.55,1.08,5.14.99,7.68-.12,3.27-1.62,6.26-3.27,9.07-.52.87-1.21,1.8-2.06,2.29-4.24,2.44-8.27,5.55-13.63,5.06-.23-.02-.79.64-.73.81.5,1.33.49,2.95,2.01,3.76.28.15.53.48.66.79.78,1.85,1.56,3.71,2.27,5.59.75,2.01,1.38,4.06,2.13,6.07,1.29,3.44,2.64,6.85,3.96,10.28,2.15,5.61,4.32,11.21,6.4,16.85.31.85.76,1.26,1.53,1.56,2.17.84,4.41,1.59,6.47,2.64,4.22,2.16,8.26,4.69,11.16,8.51,1.25,1.64,2.56,1.9,4.39,1.9,53.5-.04,107-.03,160.49-.03,2.34,0,4.69-.08,7.02.03,1.37.07,2.2-.54,3.12-1.43,2.04-1.99,4.08-4.02,6.37-5.69,3.54-2.58,7.35-4.73,11.62-5.95.48-.14,1.04-.58,1.22-1.02.66-1.59,1.17-3.25,1.76-4.87.61-1.66,1.22-3.32,1.89-4.96.8-1.95,1.7-3.86,2.49-5.82,1.03-2.54,1.94-5.14,3.01-7.66.4-.95,1.29-1.71,1.67-2.67,4.65-11.77,9.26-23.55,13.85-35.35.47-1.21.64-2.47.13-3.79-1.16-2.97-2.24-5.98-3.37-8.96-2.26-5.94-4.47-11.9-6.85-17.79-1.93-4.78-3.4-9.72-6.18-14.2-1.87-3.02-2.86-6.59-4.19-9.94-1.42-3.56-2.77-7.15-4.23-10.7-.17-.41-.78-.69-1.25-.9-2.35-1.06-4.72-2.05-7.07-3.1-1.87-.84-3.48-2.02-4.65-3.75-.16-.24-.46-.47-.73-.52-2.2-.43-2.95-2.54-4.19-3.92-1.35-1.49-2.48-2.43-4.61-2.43-55.54.05-111.07.04-166.61.04-.95,0-1.91-.06-2.86.02-.42.03-.93.23-1.22.52-2.08,2.13-4.07,4.35-6.17,6.45-3.36,3.35-7.41,5.49-12.1,6.32-1.07.19-1.59.71-1.98,1.73-1.76,4.69-3.63,9.34-5.44,14.02-1.29,3.34-2.56,6.69-3.82,10.05-.88,2.36-1.7,4.75-2.6,7.11-.52,1.36-1.18,2.68-1.75,4.02-.59,1.4-.67,3.09-2.31,3.87-.13.06-.21.27-.27.43-.57,1.48-1.14,2.97-1.79,4.69Z"/><path class="cls-7" d="m46.11,90.8c2.01-.29,3.81-.5,5.59-.82.72-.13,1.96-.39,2.01-.74.18-1.14-.05-2.35-.19-3.53-.01-.12-.47-.25-.73-.26-1.11-.03-2.21-.01-3.41-.21.87-.22,1.72-.54,2.6-.64,1.68-.2,1.84-.3,1.9-1.94,0-.04,0-.08,0-.12.09-2.65-.11-2.75-2.76-2.73-1.39.01-2.79-.32-4.17-.56-.75-.13-.96-.68-.61-1.31,1.24-2.25,2.58-4.43,4.78-5.92,1.81-1.22,2.81-3.03,3.57-4.99,2.63-6.76,5.23-13.52,7.88-20.28,1.65-4.2,3.35-8.38,5.02-12.58.69-1.73,1.31-3.48,2.05-5.18,1.38-3.2,3.04-6.3,4.15-9.58.58-1.71,1.54-2.26,3.03-2.63,6.15-1.53,11.08-5.08,15.49-9.45.81-.81,1.56-1.74,2.11-2.73.49-.87,1.13-1.1,2.01-1.1,1.54,0,3.07-.03,4.61-.03,53.78,0,107.55,0,161.33,0,.08,0,.17,0,.25,0,2.15-.19,3.64.47,5.1,2.35,4.61,5.92,10.78,9.6,18.09,11.39.41.1.91.47,1.06.84,1.38,3.37,2.71,6.76,4.03,10.15,2.89,7.41,5.74,14.84,8.68,22.22,1.23,3.09,2.73,6.08,4.02,9.16,1.53,3.65,2.99,7.34,4.46,11.03,1.43,3.58,2.83,7.17,4.26,10.74.46,1.15.56,2.16.05,3.42-2.59,6.37-4.96,12.82-7.56,19.18-1.75,4.28-3.9,8.41-5.62,12.7-3.74,9.39-7.32,18.84-10.97,28.27-.44,1.15-.9,2.29-1.45,3.39-.17.33-.67.6-1.06.69-3.71.88-7.26,2.16-10.36,4.41-3.28,2.38-6.56,4.78-8.7,8.38-.27.46-.93.79-1.48.94-.62.18-1.32.12-1.98.12-54.27,0-108.55,0-162.82,0-1.21,0-2.41-.05-3.62-.01-1.19.04-1.97-.54-2.72-1.41-1.56-1.8-3.09-3.66-4.87-5.23-2.78-2.44-5.85-4.51-9.34-5.85-1.08-.42-2.22-.69-3.34-.98-1.39-.36-2.34-.87-2.69-2.58-.42-2.08-1.46-4.04-2.23-6.05-.13-.35-.25-.7-.43-1.03-.31-.58-.03-1.56-1.2-1.62-.24-.01-.46-.91-.65-1.41-1.62-4.21-3.22-8.43-4.85-12.64-2.27-5.87-4.53-11.75-6.85-17.6-.81-2.03-1.75-4.01-2.73-5.97-.27-.54-.82-1.03-1.36-1.33-3.33-1.87-5.86-4.42-7.36-8.36Zm14.54-25.29c1.31.32,2.42.68,3.56.85,2.44.37,4.84.83,6.96,2.16,1.19.75,2.35,1.55,3.46,2.4.61.46,1.12,1.06,1.61,1.65.34.41.47,1.01.84,1.37,1.21,1.19,1.86,2.65,2.12,4.28.39,2.45,1.03,4.92.95,7.36-.11,3.13-1.55,6-3.14,8.69-.49.84-1.16,1.73-1.98,2.2-4.07,2.34-7.93,5.32-13.06,4.85-.22-.02-.76.62-.7.78.48,1.28.47,2.83,1.92,3.6.27.14.51.46.63.75.75,1.78,1.5,3.55,2.17,5.36.72,1.92,1.32,3.89,2.04,5.82,1.24,3.29,2.53,6.56,3.79,9.85,2.06,5.38,4.14,10.75,6.13,16.15.3.81.72,1.21,1.47,1.49,2.08.81,4.22,1.52,6.21,2.53,4.05,2.07,7.92,4.5,10.7,8.16,1.2,1.57,2.46,1.82,4.21,1.82,51.28-.03,102.56-.03,153.83-.03,2.24,0,4.49-.08,6.73.03,1.31.07,2.11-.51,2.99-1.37,1.95-1.9,3.91-3.85,6.11-5.45,3.39-2.47,7.05-4.53,11.14-5.7.46-.13.99-.55,1.17-.98.64-1.52,1.12-3.11,1.69-4.66.58-1.59,1.17-3.19,1.81-4.76.77-1.87,1.63-3.7,2.38-5.58.98-2.44,1.86-4.92,2.88-7.34.39-.91,1.24-1.64,1.6-2.56,4.46-11.28,8.87-22.58,13.27-33.88.45-1.16.61-2.37.12-3.63-1.12-2.85-2.14-5.73-3.23-8.59-2.17-5.69-4.29-11.4-6.56-17.05-1.85-4.58-3.26-9.32-5.92-13.61-1.8-2.89-2.74-6.32-4.02-9.52-1.37-3.41-2.66-6.85-4.05-10.25-.16-.39-.75-.66-1.2-.86-2.25-1.01-4.53-1.97-6.78-2.97-1.8-.8-3.33-1.94-4.45-3.59-.15-.23-.44-.45-.7-.5-2.11-.42-2.82-2.43-4.02-3.75-1.29-1.43-2.38-2.33-4.42-2.33-53.23.05-106.46.04-159.69.04-.91,0-1.83-.05-2.74.02-.41.03-.89.22-1.17.5-1.99,2.04-3.9,4.17-5.92,6.19-3.22,3.21-7.1,5.26-11.6,6.06-1.02.18-1.53.68-1.89,1.66-1.68,4.5-3.48,8.95-5.21,13.43-1.24,3.2-2.46,6.42-3.66,9.63-.85,2.26-1.63,4.55-2.5,6.81-.5,1.31-1.13,2.57-1.68,3.86-.57,1.34-.64,2.96-2.22,3.71-.12.06-.2.26-.26.41-.55,1.42-1.09,2.85-1.72,4.5Z"/><path class="cls-1" d="m56.45,88.67c-13.59,1.51-23.53,4.43-30.45,7.02-5.26,1.97-13.42,5.51-19.26,1.82-1.46-.92-2.32-2.01-3.07-2.97-5.69-7.2-3.14-16.64-2.87-17.57.8-2.78,1.41-4.91,3.37-6.68,6.06-5.48,20.03-2.97,24.2,2.39.67.86,2.8,4,6.69,5.27.52.17.96.27,1.24.33,3.36.69,6.91,1.33,10.63,1.89,3.33.5,6.55.89,9.64,1.2-.34,1.25-.67,2.5-1.01,3.75-4.77-.33-9.53-.65-14.3-.98-1.81-.23-4.64-.74-7.83-2.09-7.78-3.29-8.12-7.42-13.72-8.77-3.44-.83-8.94-.6-12.13,3.16-3.56,4.21-2.92,11.31.61,14.7,3.21,3.07,8.02,2.33,14.09,1.39,9.46-1.46,12.29-4.81,21.51-6.48,4.99-.9,9.18-.83,11.77-.66.3,1.09.59,2.18.89,3.27Z"/><path class="cls-13" d="m51.92,84.51c2.05,0,3.65.05,5.25-.02,1.1-.04,1.45-.66,1.39-2.01-.04-1-.42-1.46-1.52-1.42-1.38.05-2.78-.12-4.32-.2,1.55-4.5,4.57-7.05,8.91-8.01,1.59-.35,3.3-.33,4.94-.28,1.87.06,3.5.83,4.93,2.09,5.49,4.82,6.21,11.43,1.82,17.04-3.39,4.32-11.53,6.54-17.1,1.82-1.12-.95-2.01-2.18-2.89-3.38-.65-.88-.36-1.34.71-1.43,1.03-.09,2.06-.2,3.09-.26,1.42-.08,1.28-1.1,1.34-2.06.07-1.09-.48-1.33-1.44-1.27-1.36.08-2.73.1-4.1.08-.27,0-.53-.34-1.03-.68Z"/><circle class="cls-6" cx="64.05" cy="84.35" r="7.48"/><text class="cls-6" transform="translate(93.96 111.4)"><tspan class="cls-5"><tspan class="cls-11" x="0" y="0">D</tspan><tspan x="18.9" y="0">O N</tspan><tspan class="cls-9" x="76.36" y="0">O</tspan><tspan x="104.49" y="0">T FIX</tspan></tspan><tspan class="cls-12"><tspan class="cls-8" x="70.52" y="24">(</tspan><tspan class="cls-2" x="76.2" y="24">Y</tspan><tspan class="cls-3" x="84.66" y="24">E</tspan><tspan class="cls-4" x="92.22" y="24">T</tspan><tspan class="cls-8" x="96.2" y="24">)</tspan></tspan></text><path class="cls-10" d="m171.07,40.2c7.31,5.2,22.9,17.2,26.78,23.61"/><path class="cls-10" d="m173.18,63.6c5.62-8.22,17.88-24.46,21.93-23.61"/></g></svg>