<?xml version="1.0" encoding="UTF-8"?>
<svg id="Livello_2" data-name="Livello 2" xmlns="http://www.w3.org/2000/svg" viewBox="0 0 247.36 128.24">
  <defs>
    <style>
      .cls-1 {
        fill: #523333;
      }

      .cls-2 {
        fill: #f5ead9;
      }
    </style>
  </defs>
  <g id="Layer_1" data-name="Layer 1">
    <g>
      <g>
        <path class="cls-1" d="m59.14,54.3s7.1-2.45,17.81-5.88c5.35-1.73,11.62-3.7,18.33-5.78,3.37-1.03,6.83-2.12,10.37-3.18,3.53-1.07,7.12-2.15,10.71-3.24,3.59-1.06,7.19-2.13,10.73-3.18,3.54-1.06,7.03-2.05,10.4-3.03,6.76-1.95,13.07-3.74,18.5-5.23,10.84-3.02,18.12-4.86,18.12-4.86,0,0-7.1,2.45-17.81,5.88-5.35,1.73-11.61,3.7-18.33,5.78-3.36,1.03-6.82,2.12-10.36,3.18-3.54,1.07-7.13,2.15-10.71,3.24-3.6,1.06-7.19,2.13-10.73,3.18-3.54,1.05-7.03,2.05-10.41,3.03-6.75,1.95-13.07,3.74-18.49,5.24-10.84,3.01-18.12,4.87-18.12,4.87Z"/>
        <g>
          <g>
            <polygon class="cls-1" points="107.16 0 116.09 32.9 117.77 32.4 107.16 0"/>
            <polygon class="cls-1" points="119.86 3.95 122.64 30.94 124.34 30.44 119.86 3.95"/>
            <polygon class="cls-1" points="129.28 4.69 128.76 29.11 130.49 28.6 129.28 4.69"/>
            <polygon class="cls-1" points="138.96 6.48 134.95 27.26 136.81 26.71 138.96 6.48"/>
            <polygon class="cls-1" points="148.93 6.31 142.06 25.13 143.95 24.57 148.93 6.31"/>
            <polygon class="cls-1" points="157.42 9.85 150.81 22.52 152.63 21.97 157.42 9.85"/>
            <polygon class="cls-1" points="165.72 13.06 161.07 19.45 162.7 18.96 165.72 13.06"/>
          </g>
          <g>
            <polygon class="cls-1" points="98.67 10.28 111.06 34.41 109.4 34.9 98.67 10.28"/>
            <polygon class="cls-1" points="91.39 16.02 105.08 36.2 103.39 36.7 91.39 16.02"/>
            <polygon class="cls-1" points="84.47 22.78 99.03 38.01 97.21 38.55 84.47 22.78"/>
            <polygon class="cls-1" points="76.25 28.05 92.08 40.09 90.23 40.64 76.25 28.05"/>
            <polygon class="cls-1" points="71.25 35.63 83.51 42.65 81.74 43.18 71.25 35.63"/>
            <polygon class="cls-1" points="66.23 42.82 73.49 45.65 71.9 46.12 66.23 42.82"/>
          </g>
        </g>
      </g>
      <g>
        <path class="cls-1" d="m75.7,109.67s7.27-1.86,18.11-4.87c5.42-1.5,11.74-3.29,18.49-5.24,3.38-.99,6.87-1.97,10.41-3.03,3.54-1.05,7.13-2.11,10.73-3.17,3.59-1.09,7.18-2.17,10.71-3.24,3.53-1.06,7-2.15,10.36-3.18,6.72-2.08,12.98-4.05,18.34-5.78,10.72-3.43,17.81-5.88,17.81-5.88,0,0-7.27,1.86-18.11,4.87-5.42,1.5-11.74,3.29-18.49,5.24-3.37.98-6.87,1.97-10.4,3.03-3.54,1.05-7.14,2.11-10.73,3.18-3.59,1.08-7.18,2.17-10.71,3.24-3.54,1.06-7,2.15-10.37,3.18-6.71,2.08-12.98,4.05-18.33,5.78-10.72,3.43-17.81,5.88-17.81,5.88Z"/>
        <g>
          <g>
            <polygon class="cls-1" points="145.52 128.24 135.03 96.23 136.71 95.72 145.52 128.24"/>
            <polygon class="cls-1" points="153.99 118.06 141.59 94.27 143.28 93.76 153.99 118.06"/>
            <polygon class="cls-1" points="161.48 112.3 147.71 92.44 149.43 91.92 161.48 112.3"/>
            <polygon class="cls-1" points="168.59 105.54 153.89 90.58 155.75 90.03 168.59 105.54"/>
            <polygon class="cls-1" points="177.03 100.24 161 88.46 162.89 87.89 177.03 100.24"/>
            <polygon class="cls-1" points="182.2 92.68 169.76 85.84 171.57 85.29 182.2 92.68"/>
            <polygon class="cls-1" points="187.39 85.5 180.01 82.77 181.64 82.28 187.39 85.5"/>
          </g>
          <g>
            <polygon class="cls-1" points="132.8 124.4 130 97.73 128.34 98.23 132.8 124.4"/>
            <polygon class="cls-1" points="123.58 123.64 124.02 99.52 122.33 100.03 123.58 123.64"/>
            <polygon class="cls-1" points="114.1 121.84 117.97 101.33 116.15 101.88 114.1 121.84"/>
            <polygon class="cls-1" points="104.35 121.98 111.02 103.41 109.17 103.96 104.35 121.98"/>
            <polygon class="cls-1" points="96.03 118.46 102.46 105.97 100.68 106.5 96.03 118.46"/>
            <polygon class="cls-1" points="87.9 115.26 92.43 108.97 90.84 109.45 87.9 115.26"/>
          </g>
        </g>
      </g>
      <path class="cls-1" d="m52.63,103.25l143.15-40.11s26.79,24.65,51.59-9.2l-21.42,5.65-18.14-16.76,7.06-25.58,22.13-5.25s-29.59-17.51-50.27,18.22L44.58,69.45l8.05,33.79Z"/>
      <path class="cls-1" d="m45.81,66.37c-14.52-8.48-33.17-3.58-41.65,10.94-8.48,14.52-3.58,33.17,10.94,41.65,14.52,8.48,33.17,3.58,41.65-10.94,8.48-14.52,3.58-33.17-10.94-41.65Zm-10.3,7.83l13.79,14.33-5.31,17.95-18.32,4.81-14-13.34,5.24-19.09,18.59-4.65Z"/>
      <g>
        <path class="cls-2" d="m71.46,72.02l.17.49.32.92.23.72.19.67.18.96.08.7.02.18-.02.04-.07.05-.14.04-.59.2-1.45.41-.59.2-.8.29-.62.08h-.21s-.1-.04-.1-.04l-.09-.13-.11-.19-.2-.39-.29-1.02-.07-.14-.11-.06-.16-.05-.12-.03-.54.06-1.12.19-.6.17-.84.27-.44.22-.36.29-.34.35-.27.39-.14.45.06.52.24.53.44.41.5.21.61.08.46-.04,1.05-.23,1.59-.29,1.46-.13,1.02-.04.99.07.96.17.51.14.49.18.87.48.41.3.74.64.64.83.29.42.44.95.18.52.14.59.11,1.11-.05.55-.09,1.13-.09.53-.18.52-.53.94-.71.83-.76.75-.84.68-.87.56-.98.5-.47.2-1.02.25-.53.12-.56.19-1.08.34-.53.12-.6.07-1.13-.03-.54-.04h-.56s-1.17-.08-1.17-.08l-.56-.1-1.59-.62-.57-.25-.1-.13-.08-.2-.21-.64-.38-1.25-.46-1.42-.27-.87.02-.23.13-.35.18-.3.17-.14.57-.16.39-.08.42-.06.57-.16.54-.18.37-.17.34-.16.56-.1h.18s.11.11.11.11l.1.13.1.16.22.47.09.32.18.83.06.11.12.12.16.05.12.03h.35s.81-.04.81-.04l.43-.06.78-.16,1.31-.37.55-.12.47-.2.44-.22.39-.39.25-.48.09-.53-.04-.56-.23-.41-.32-.29-.48-.15-.64-.07-.45-.03h-1.03s-.64.03-.64.03l-1.44.41-.48.07-.54.06-.98.06-.98-.04-1.04-.15-.96-.3-.44-.19-.45-.25-.43-.29-.37-.37-.66-.79-.57-.88-.48-.97-.18-.55-.09-.54-.07-.55.03-.51.08-1.06.15-1.05.16-.48.26-.45.59-.83.69-.79.76-.65.42-.28.41-.31.39-.3.88-.53.95-.39.46-.16,1.02-.25.51-.08.49-.04.99-.15.49-.04,1.02-.03,1.49.05.5.11.51.14.96.36.47.21.17.08.1.16Zm-12.12,6.66l.04-.07v-.03s-.08-.04-.08-.04l-.05.05-.02.04.04.05h.06Zm.16-.8h.03s.02-.04.02-.04l-.02-.06-.04-.02-.05.02-.02.04.04.05.03.02Zm.2.8h.06s.05-.03.05-.03l-.04-.05-.07-.04-.05.02v.07s.06.04.06.04Zm.09,1.8l-.04-.05-.05.02v.25s.14.03.14.03l-.04-.05-.05-.08v-.07s.06-.04.06-.04Zm.2-1.07l.04-.07-.11-.06-.13.07-.08.02.03.09.08.07.09-.09.08-.02Zm.04,1.82l.04.05v.03s.07.01.07.01l.02-.04v-.03s0-.07,0-.07l-.07-.04-.07.08Zm.63-2.48l-.22.06-.03.1-.25.04.13.47v.22s.05.17.05.17l.06.11.12.03v-.09s-.03-.02-.03-.02l-.04-.05-.02-.09-.05-.08-.03-.21.06-.11.1-.06.1.13.11-.03.07-.08-.05-.08-.05-.17v-.16s-.01-.09-.01-.09Zm-.24,2.4l.07-.08.04-.07-.12-.09-.05-.08h-.09s-.06.1-.06.1l.1.04.08.07.03.12Zm.54-1v.07s-.05.07-.05.07v.03s.08-.15.08-.15l-.04-.02Zm.5-3.96l.12-.22-.19.05-.08.12v.09s.03.02.03.02l.13-.07Zm.34-1.1l-.08.02v.1s.07.04.07.04h.09s.05,0,.05,0v-.07s-.07-.07-.07-.07h-.06Zm.07,6.82l.12-.1-.05-.27-.12.19-.07.18.04.05.07-.05Zm-.08-1.84l-.02.13.04.05.05-.02.06-.11-.05-.17-.08.12Zm.07,9.12l-.02.04.03.12.11.09v-.15s-.07-.11-.07-.11l-.05.02Zm.21-15.13l.05-.02.05-.04-.03-.09-.04-.05h-.09s-.04.07-.04.07l.02.09.07.04Zm.26.72l.02.09.07-.05h.15s.14-.14.14-.14l.16.05.17-.02-.32-.29-.29.24-.09.09-.02.04Zm.24,5.86l.03-.1-.08-.07h-.06s-.02.02-.02.02l.03.12.1.04Zm.37,1.1l.09.1.07.04.05.08.04.05h.06s.05-.03.05-.03l-.02-.06-.06-.11-.05-.08-.04-.02-.03-.12-.06-.11-.02-.09v-.07s0-.06,0-.06l-.04-.02-.02-.06-.09.18h.03s.04.01.04.01l.05-.05v.03s-.02,0-.02,0l-.04.07-.05.02-.02.04v-.03s-.08-.04-.08-.04l-.02-.06v-.07s0-.03,0-.03l-.02.04h-.03s-.01.07-.01.07l-.09.18.07.04.02-.04.05-.04.09.1.04.02.05.08h.03Zm-.04-8l.38.52.1.04.07.04-.04.17.02.18.12-.1.07-.05h.03s-.01-.26-.01-.26l-.16-.14-.07-.04-.08-.07-.11-.38-.08-.17h-.12s-.11.03-.11.03l-.07.05v.03s-.02,0-.02,0l-.02.04.09.1Zm.12,1.67h-.03s-.03.11-.03.11l.04.02v.03s.04,0,.04,0v.03s.05-.04.05-.04l-.03-.12-.04-.02Zm.65,3.66l.05-.23.17-.24.25-.26.29-.21.33-.19.4-.14.93-.26.53-.12.4-.05-.2-.7h-.35s-.51.08-.51.08l-.53.12-.96.27-.37.14-.36.19-.29.21-.25.26-.14.23-.08.24.03.21.15.31.19.17.31.16v-.19Zm-.45,10.94v-.03s-.06-.08-.06-.08l-.05.02-.09.09v.15s.08.04.08.04l.11-.03.1.03h.06s-.03-.1-.03-.1l-.11-.09Zm.08-7.02v-.07s.03-.04.03-.04h-.06s-.04-.04-.04-.04h-.03s.06.21.06.21l.05.08.21.03-.12-.12-.11-.07Zm-.01-6.52l.11.06.08-.02.07-.05-.02-.09-.07-.04-.11.03-.05.04v.07Zm.45-3.31l-.13.07.02.06-.06.11.1.04h.03s.04.01.04.01l.09-.09v-.12s-.03-.09-.03-.09l-.05.02Zm.18-.4l.09.1.06.11.1.13.12.12.05-.33.05-.04.02-.04v-.03s.02,0,.02,0l.02-.04.16-.17h.03s.15.01.15.01l.05-.05.07-.05-.07-.04-.04-.05-.22.06-.23.03-.16.05-.1-.13-.17.02-.17.11-.08.15.1.13.16-.05Zm1.27,22.28l.58.06.57.03h.56l1.13.06h.56l.65-.18,1.1-.37,1.02-.25.5-.11.53-.21.57-.26.53-.31.45-.28.44-.31.49-.36.41-.34.44-.41.35-.41.4-.46.34-.44.33-.5.3-.59.23-.63.1-.6.07-.59.04-.61.02-.57-.05-.59-.1-.67-.16-.68-.19-.58-.21-.54-.25-.47-.08-.17-.2-.2-.36-.34-.27-.24.17.3.25.47.21.54.19.58.15.65.11.69.05.59-.02.57-.03.61-.08.56-.12.6-.2.66-.3.59-.33.5-.34.44-.4.46-.39.39-.42.4-.41.34-.49.36-.43.34-.45.28-.56.32-.55.25-.53.21-.5.11-1.04.26-1.07.37-.54.15-.58.13-.74.08h-.56s-1.05.01-1.05.01l-1.28-.15h-.03s.37.16.37.16l.55.19.56.1Zm-1.07-20l-.07-.04-.04-.05-.05.02-.02.04h-.03s-.08.12-.08.12l.03.12.1.03.13-.07.02-.04h.03s.02-.05.02-.05l-.02-.09Zm.25,15l-.07.05-.08.02-.05.04h-.03s-.1-.03-.1-.03l-.05-.08-.05.02-.05.04.02.09.05.08h.09s.03,0,.03,0l.02-.04.11-.03.05-.04h.06s.04.04.04.04l.05-.02.05-.04.02-.04v-.03s-.04-.02-.04-.02h-.06Zm-.4-.49l-.02.04.09.1.05-.02-.03-.12-.04-.02-.05.02Zm5.81-4l-.12-.09-.29-.11-.55-.07h-.41s-.48-.03-.48-.03h-.5s-.57.08-.57.08l-1.36.38-.56.09-.57.07h-.32s.16.24.16.24l.12.22.95.05h.5s1-.11,1-.11l.48-.07,1.47-.41.61-.04.52-.02-.08-.17Zm-5.64-4.47l.02.09.05-.02.04.02.09-.21.2.07.05-.02.06-.08.1-.16v-.22s-.1.09-.1.09l-.03.1-.1.06h-.12s-.15-.11-.15-.11l-.19-.04.11.19-.03.2-.02.04Zm1.39.56l-.12-.22-.08.15-.04.27-.09.18h-.14s-.12.01-.12.01l-.19-.14-.22-.04-.17-.17-.1.06-.04.17.15.12.08.07.08-.12.13.03v.15s0,.13,0,.13l.12.09.11.06.1-.06v-.07s-.1-.06-.1-.06l-.02-.06.07-.05.38-.11.03-.1.22-.06-.04-.24Zm-.58-8.85h-.18s-.08.01-.08.01v.03s0,.09,0,.09l.03.12h.03s.1.03.1.03l.13-.07.05-.14-.08-.07Zm-.08,19.16h-.14s-.03.11-.03.11l.04.05h.06s.07-.04.07-.04l.09-.09-.04-.05-.05.02Zm.36-17.66l-.04-.02-.08.02-.02.04.02.09v.07s.03.02.03.02l.02.06.08-.02.04-.07v-.07s-.05-.11-.05-.11Zm.37-1.4l.05-.02v-.16s-.14-.12-.14-.12l-.03-.12.04-.17-.14-.09-.11.13.07.14-.02.04v.07s.04.17.04.17l.15.12h.09Zm.87,2.25l.19-.05.36-.19-.27-.11h-.12s-.03,0-.03,0v-.03s-.04,0-.04,0l-.02-.06h-.03s0-.02,0-.02h-.03s-.2-.06-.2-.06h-.06s-.07-.06-.07-.06l-.06-.42.15-.3.02-.35h.03s.05-.05.05-.05l.05-.02.16-.17v-.03s-.08-.04-.08-.04l-.05-.08-.31-.07-.21.4.18.11-.03.2-.25.07-.21-.03-.12.19-.07.18.07.14h.14s.08-.13.08-.13l.1-.06.12.09.06.21.11.19.05.18.19.04.15.34Zm-.94-.62l-.05.02-.07.05.2.07h.03s.05-.05.05-.05l-.05-.08h-.09Zm.34-2.24l.22-.06.15-.11.05-.05-.13-.15-.03-.12v-.12s.07-.05.07-.05l.04-.07-.07-.04-.02-.06-.22.06-.04.07-.21.19-.11.25v.12s.17.05.17.05l.14.09Zm.07,17.92l-.08.02-.11.13-.13.26.1.04.05-.04.16-.05.1.03.07-.08.02-.13-.11-.06-.06-.11Zm-.02-17.43l-.23.22-.07.27.07.04h.06s.16-.16.16-.16l.05-.23.15-.1.05-.04.16-.05.02-.04.15-.11-.04-.15-.07-.04-.04-.05-.05.02h-.12s-.03,0-.03,0l-.02.04h-.03s-.05.05-.05.05l.06.11-.05.14-.13.07Zm.54,19.39l-.16.05h-.09s-.06.1-.06.1l.1.04.07-.05.04.02.05-.02.08.07.1-.06-.02-.06-.11-.09Zm-.09-3.03l-.05.02v.07s0,.06,0,.06l.07-.05.02-.04v-.03s-.04-.02-.04-.02Zm.23-17.47l.03.31.12.22.16-.27.14-.23-.11-.06-.15-.02-.22-.06-.1.06-.02.04-.11.03h.14s.12,0,.12,0Zm.21,9.65l-.02-.06-.1-.04-.06.08-.08.02-.1-.04-.07.08.08.07.11-.03.04.02.11-.03.09-.09Zm.36-6.88l-.14-.18-.28-.17-.13-.06-.03-.02h-.03s-.04-.01-.04-.01l-.04.07-.02.13.04.05.07.26.04.02.15.02.22.03.19-.15Zm-.61-1.34l.17.08.02-.04.05-.04-.1-.16h-.18s.05.16.05.16Zm.14,17.96l-.04.07-.05.04.06.11.1.04.04-.07v-.07s-.04-.08-.04-.08l-.07-.04Zm.16-18.58h.18s.04-.06.04-.06l-.02-.06-.1-.04-.11.03-.06.08.07.04Zm.05,9.07l-.08.02-.03.1.04.05.1.04.07-.05v-.07s-.04-.08-.04-.08h-.06Zm-.1,8.32l.1.04.07-.08h-.09s-.07.05-.07.05Zm.62-16l.05-.02.05-.05.07-.08v-.09s-.02-.09-.02-.09h-.18s-.26,0-.26,0l-.24-.12.13.37.4.08Zm-.17-1.75l.14-.04h.14s.09-.1.09-.1l-.04-.05-.29.02-.22.06.18.11Zm-.04,19.52l.09.13.05.17v.07s0,.06,0,.06l.12.03.08-.15v-.03s-.1-.22-.1-.22l-.25-.06Zm.44-17.78h-.06s-.02.02-.02.02l-.09.09-.07.08-.17.14.04.02v.03s.28-.08.28-.08l.05-.04.05-.02.04-.07-.05-.17Zm-.26,8.71l.05.08h.03s.02-.04.02-.04v-.1s-.08.02-.08.02l-.02.04Zm.69-9.27l-.17-.2-.26.14v-.03s-.12-.09-.12-.09l-.05-.08-.07-.04.08.29h.14s.45.02.45.02Zm.65-.62l-.2-.1h-.06s-.12-.01-.12-.01l-.07-.04h-.03s0-.02,0-.02l-.07-.04-.11-.1-.07-.04-.29.02-.2.12h.18s.27.13.27.13h.09s.1.04.1.04h.06s.03,0,.03,0l.04.02h.06s.13.07.13.07l.14.09.31.04.04.02v-.03s-.2-.17-.2-.17Zm-.99,9.55l-.05.02v.09s.07.04.07.04l.05-.02v-.07s0-.06,0-.06h-.06Zm.57-1.74h.12s-.08-.08-.08-.08l-.06-.11-.09-.1-.11.03-.1.16v.19s.09.03.09.03l.13-.07.1-.06Zm-.14-5.92l-.02-.06.02-.04v-.03s-.07-.02-.07-.02l-.05.05v.06s-.05.07-.05.07v.03s.12-.03.12-.03l.05-.05Zm.87-1v-.15s-.06-.18-.06-.18l-.17-.17h-.03s-.17.15-.17.15l-.15.1-.14.13-.16.17-.14.13.41-.02.07-.05.36.02.1-.06.06-.08Zm-.77.31l-.11.03-.05.04-.02.04-.02.13h.06s.04.07.04.07l.11-.03h.06s0-.08,0-.08v-.07s-.02-.02-.02-.02l-.06-.11Zm.11,6.05v-.03s-.17.05-.17.05v.09s.08.07.08.07h.14s.02-.05.02-.05h.03s0-.04,0-.04h.03s.1-.07.1-.07l-.15-.02h-.06Zm.37,1.41l-.11.03h-.09s-.21.18-.21.18h.18s.1.05.1.05l.08-.02.1-.06-.05-.17Zm-.12,10.66l-.12-.03-.08.15.07-.05.08-.02.11.07.05-.02-.02-.09h-.09Zm.19-19.92l-.11-.09-.15-.02-.06.11-.04.17.29.08.09-.09.07-.05-.09-.1Zm.02,1.85v.07s-.03.04-.03.04l.12.03.06-.11h-.06s-.03,0-.03,0h-.06Zm.14,17.24l-.11.03.05.08.07.04.12.03.06-.11-.08-.07h-.12Zm.4-10.71l-.02-.06h-.03s-.06,0-.06,0h-.12s-.06.11-.06.11l.05.08.04.05.07.04h.06s.04-.06.04-.06v-.12s.01-.04.01-.04Zm-.12.82l-.15.1.05.08.07.04.03-.1v-.13Zm.23-8.29l.13-.16-.04-.15-.08-.17h-.12s-.11.03-.11.03l-.02.13v.15s.09.07.09.07l.14.09Zm-.14.76l.07.04h.06s.08,0,.08,0l-.02-.06-.04-.05-.12-.1-.07.05.03.12Zm.22,8.32l-.08.02.03.09.05.08.1-.06h.12s.01-.07.01-.07l-.08-.07h-.14Zm2.84-9.34l.18.52.22.69.21.73.12.53.2,1.14.04.24v.44s-.12.16-.12.16l-.15.1-.21.09-.08.02-.18.08-.56.19-.46.16-.44.09-1.14.35-.4.14.11.19.99.07h.47s.34.06.34.06l.14-.04.59-.2,1.42-.4.74-.3v-.15s-.02-.63-.02-.63l-.08-.48-.11-.5-.19-.67-.22-.69-.32-.92-.22-.69-.22-.06-.39-.24-.27-.11.02.09Zm-2.54,1.63l-.02-.06-.08.15v.07s-.06.04-.06.04l-.02.04.04.24.07.04.05-.02v-.22s.01-.16.01-.16l-.02-.06v-.07Zm.41,6.57l-.17-.2-.08-.07-.11.03-.03.1.03.12.18.11.18-.08Zm-.32-5.74l-.02.04v.07s.07.07.07.07l.04.05.05-.04v-.07s-.01-.09-.01-.09l-.13-.03Zm.44,6.59l.12-.19-.08-.2-.12.19.08.2Zm.83-.49l-.22-.03-.04-.02h-.03s-.12-.11-.12-.11l-.11-.09-.04-.02h-.03s-.09,0-.09,0l-.11.03-.07.08.08.17-.04.07h.12s.08-.02.08-.02h.14s.17-.02.17-.02l.04.05.08.07h.21s.03,0,.03,0l.02-.04-.09-.1Zm-.08.97l.1.04-.04-.05-.02-.09h-.06s-.03,0-.03,0l-.02.04v.03s.08.04.08.04Zm.27.84l-.11.03-.03.1.14.09.16-.05-.07-.14-.1-.03Zm.3-2.26v.09s-.11.03-.11.03l-.11.22h.03s.19.03.19.03l.08-.02.1-.06.08-.12-.17-.17h-.09Zm.08,1.52v.07s0,.12,0,.12l.1.04.02-.13-.05-.08h-.06Zm.24-.29l-.08.02.08.07.11-.03.02-.04v-.03s-.13,0-.13,0Zm.84.68l-.05.02.03.09h.06s.03,0,.03,0v-.07s0-.03,0-.03h-.06Zm.28.27h-.03s-.01.07-.01.07l.04.05.04.02h.03s.01-.07.01-.07l-.02-.06h-.06Zm.39-.71l-.04-.02h-.03s-.01.07-.01.07v.03s.05.05.05.05l.02-.04.05-.05-.04-.05Z"/>
        <path class="cls-2" d="m81.37,89.56l-.85.21-.63.05-.23.03h-.14s-.14-.08-.14-.08l-.1-.16-.24-.53-.17-.8-.29-1.15-.19-.77-.07-.58-.03-.21.04-.17.05-.14.15-.1.4-.14h.62s.37-.12.37-.12l.15-.1.08-.12v-.16s0-.22,0-.22l-.1-.66-.22-.88-.39-1.28-.33-.86-.39-1.28-.61-2.16-.19-.89-.33-1.29-.19-.89-.24-.63-.11-.19-.12-.09-.16-.05h-.18s-.4.04-.4.04l-.53.21-.4.05-.17.02-.13-.06-.08-.07-.08-.17-.24-.53-.29-.74-.31-1.11-.16-.78-.07-.58-.03-.21v-.19s.05-.14.05-.14l.17-.11.58-.23.89-.06.62-.11,1.44-.41.63-.15.99-.34.39-.17,1.63-.49,1.04-.29,1.04-.26.41-.12,1.21-.31.45-.09,1.02-.25,1.03-.32,1.04-.29.58-.23.81-.36.62-.11h.18s.11.11.11.11l.1.13.51,1.18.46,1.64.26.81.46,1.64.15,1.06v.22s.03.18.03.18l-.08.15-.15.1-.47.23-.73.14-.53.12-.49.14-.69.16-.71.07-.13-.06-.11-.07-.1-.16-.19-.36-.07-.55-.08-.39-.08-.29-.07-.14-.1-.04-.72.14-.98.4-.69.26-1.73.43-.7.23-.18.08-.08.15-.05.14.02.18.2.7.24.94.27.65.11.19.1.13.12.03h.21s.57-.06.57-.06l.41-.12.37-.14.57-.16.56-.19.37-.14.39-.08.8-.1h.18s.13.07.13.07l.1.16.24.53.13.78.14.59.18.55.24.75.1.57v.22s-.15.3-.15.3l-.17.11-.5.2-.77.09-.56.09-.51.18-.34.16-.88.31-.29.11-.2.22-.12.29.03.31.2.61.15.43.17.39.17.61.07.14.06.11.11.06h.12s.73-.24.73-.24l.96-.33,1.96-.55.53-.12.71-.2h.14s.12-.01.12-.01l.08-.02.06-.11-.05-.49-.13-.34-.15-.34-.06-.52v-.19s.03-.13.03-.13l.12-.1.18-.08.48-.17.67-.22.52-.15.82-.32.35-.13.53-.09h.21s.17.08.17.08l.12.12.11.19.23.6.07.89.13.66.2.61.29.8.18.64.23.6.29.83.12.63v.22s-.04.17-.04.17l-.11.13-.17.11-.58.26-.44.12-.44.09-.63.15-4.8,1.35-.9.16-.61.14-.62.21-.82.32-.63.18-1.48.39-1.25.35-.85.21-1.25.38Zm-5.74-19.67l-.04-.02-.11.03v.03s.05.05.05.05h.06s.04-.06.04-.06v-.03Zm.56.32l-.1-.26-.16-.05-.05.02v.07s.1.09.1.09l.21.13Zm.31.07l.04.02.08-.02v-.07s0-.03,0-.03l-.04-.05-.07.05v.07s0,.03,0,.03Zm.18.64l.07.14.13-.16-.05-.18-.11.03-.04.17Zm.04-1.11l.05-.02.02-.04-.03-.09h-.03s-.04.05-.04.05l.02.09Zm.09.32l.1.16.13.03.08-.12.16-.27.19-.27-.35.1-.28.17-.03.2Zm.97.61l-.23-.09-.22-.03-.14-.09h-.21s.15.11.15.11l.08.07.08-.02.23.19.26-.13Zm-.72.36l.07.14.08-.02.03-.1.02-.13-.15-.02-.05.14Zm.01-2.15l.09.1h.09s.06-.1.06-.1l-.02-.06h-.06s-.08,0-.08,0l-.07.05Zm.09.51l.12.09.08-.02.07-.05-.03-.12-.11-.06h-.09s-.07.05-.07.05l.03.12Zm.75.58h-.44s.13.15.13.15l.17-.11.07.14.06.11v-.29Zm-.11,1.17l.17-.02-.12-.12h-.12s-.07.05-.07.05l.02.06.13.03Zm0-1.64h.06s.07-.04.07-.04l.16-.08.15-.1-.04-.02v-.03s-.18.02-.18.02h-.14s-.08.03-.08.03l-.04.07.04.15Zm.07.26l.13.03.2.07.16.15-.04-.34-.28-.14-.05.02-.13.07v.15Zm.47,1.67l.07-.08.04-.07.05-.04-.02-.06.02-.04-.02-.06-.05.02-.05.04-.02.04-.02.13-.03.1-.1.18v-.06s.03-.04.03-.04l.02-.13v-.03s.01-.04.01-.04l-.05-.17v-.1s-.16.17-.16.17l-.15.2.08.07.1.04.11.06.02.06v.03s0-.03,0-.03l.04-.07.05-.04.04-.07Zm-.2-.7l-.08.02-.05.05.02.06h.06s.09.02.09.02l.05-.04-.02-.06-.07-.04Zm.24-1.45l.18.2.21.13.1-.06.07-.05v-.15s-.06-.18-.06-.18l-.22-.06-.04-.02h-.03s0-.02,0-.02h-.06s-.04-.04-.04-.04l-.16.08.05.17Zm.03,1.16h.03s.04.04.04.04v-.1s.01-.07.01-.07l-.04-.02-.04-.05h-.03s-.04.05-.04.05l.03.12.04.02Zm.05.27l-.02.04-.02.13v.03s-.01.04-.01.04l.04.02h.03s.05-.05.05-.05l.03-.1.02-.04.05-.04.08-.02.1-.06.11-.03.09-.09.11-.13v-.03s-.04-.02-.04-.02l-.07.05-.11.03-.13.16-.19.05-.05.04-.05.02Zm.38.71l.08-.02.07-.05.05-.02.09-.09h-.12s-.11.03-.11.03h-.06s-.09-.02-.09-.02v-.03s-.04,0-.04,0l-.05.04h-.03s.02.07.02.07l-.02.04v.07s-.06.02-.06.02l-.05.04-.02.04h-.03s.06.02.06.02l.11.09.09-.09-.02-.09.05-.02.05-.04Zm-.24-1.07l.07.04.05.08.09-.09.1-.06.15-.1-.04-.05-.02-.06.13-.16h.06s-.08.13-.08.13l-.04.17.17.08.13.06.05-.14.15.02.04.15v.16s.25.11.25.11l.07-.08v-.1s-.1-.03-.1-.03l-.02-.06.04-.07.11-.03.02.06.13.03.07-.08-.03-.12.11-.03v-.13s.12-.07.12-.07l.1-.06-.09-.23-.16-.24-.06.21.04.15-.05.14-.02.13-.02.04-.04-.05h-.06s-.03,0-.03,0l-.07.08.02.06-.11.03-.2-.1h-.23s-.19-.16-.19-.16l.13.03.17.08.05-.02h.12s.06.01.06.01l.05-.02.1-.18-.04-.15-.16.07-.15-.02.02-.04-.02-.06.04-.07.03-.1v-.07s.01-.09.01-.09l.08-.15-.21-.1v-.07s.01-.1.01-.1v-.07s.01-.09.01-.09l-.58-.06h-.18s-.22.05-.22.05l.08.07.04.02v.03s.04,0,.04,0l.04.05.28.05.32.19.08.07.04.05.04.02-.07.18-.1.16-.16.07-.15.1-.17.24-.16.08-.14.04.05.18Zm.28.49l.02-.13v-.03s-.06.02-.06.02l-.04.07-.05.04v.07s-.09.15-.09.15l-.09.09-.02.04v.07s.04-.04.04-.04l.05-.02v-.07s.1-.09.1-.09l.02-.04.11-.13Zm.02.28l.11-.03.07-.05.02-.04-.02-.06-.04-.02-.05.02-.04.07-.05.04v.07Zm.29.42h-.09s-.08.02-.08.02l.02.06.05.08.12.03.02-.04v-.07s-.04-.08-.04-.08Zm.02,1.22l-.11.03-.05.04.04.05h.09s.04-.07.04-.07l-.02-.06Zm.85-.93l-.16-.05-.31.15h-.12s-.14.01-.14.01l-.16.05-.05.14.05.08.6-.17.04-.07.07-.05.09.1.15.02-.06-.2Zm-.07.49l-.28.14.05.3.05.08h.06s.04-.16.04-.16l-.04-.15.09-.09.02-.13Zm.01,15.73l-.11-.09h-.12s-.02.04-.02.04v.03s.12.07.12.07l.14-.04Zm-.12-14.66l.06-.11-.04-.02-.14.04v.07s.06.04.06.04l.05-.02Zm.03-3.13v-.07s.19-.08.19-.08l.02.06v.03s-.02,0-.02,0l-.12.1h-.03s-.04-.04-.04-.04Zm.1-.47l.04.05.02-.13v-.12s-.02-.06-.02-.06l-.04-.02-.06.11.05.17Zm.1-.78l.08.07.07-.05.04.02.16-.05.08-.15v-.03s-.13,0-.13,0l-.07.08-.08.02h-.12s-.04.08-.04.08Zm.18,5.02l.04.02h.03s.02-.14.02-.14l-.1-.13-.05.14.06.11Zm.41-2.32l-.06-.11-.1-.04-.07.08v.12s.07.11.07.11h.09s.07-.07.07-.07v-.1Zm-.08.87l-.04-.05h-.06s-.02.02-.02.02v.03s.06.08.06.08l.05-.02.02-.04v-.03Zm.26-1.59l-.1.06-.08.02-.1-.03-.05.02.03.09h.09s.14,0,.14,0l.08-.15Zm-.21-1.9l-.07.05-.03.1.08.07h.09s.07-.05.07-.05v-.09s-.05-.08-.05-.08h-.09Zm.37-.89l.11.06.05.27.25-.04.19-.05.22.04.41-.11.12-.19-.19.05-.16.08-.18.08-.23.03-.09-.1-.07-.14.13-.07-.04-.15-.08-.07-.07.05-.16.05-.16-.05-.11.03.07.23Zm0,19.2l.12.09.1-.06.02-.13.05-.04.07-.05-.13-.06-.13.07h-.03s-.07-.03-.07-.03l-.04.07.04.15Zm17.58-2.74l.15.43.12.63v.22s-.04.17-.04.17l-.11.12-.17.11-.57.26-.44.12-.44.09-.63.15-4.8,1.35-.45.06-1.05.23-.62.21-.82.33-1.69.48-1.67.44-.85.21-.63.18-.62.21-.41.12-1.3.18h-.14s-.14-.08-.14-.08l-.1-.16-.17-.39.54-.15.59-.2,1.04-.26,1.66-.47.44-.09,1.69-.48.85-.33.59-.2,1-.22.45-.06,5.46-1.5.47-.1.52-.15.63-.27.22-.16.17-.14.1-.16.08-.12.05-.14.04-.17v-.19s-.02-.31-.02-.31l-.09-.64-.18-.55-.18-.42-.36-1.19-.3-.86-.18-.55-.09-.54-.03-.43v-.12s.38-.08.38-.08h.21s.17.08.17.08l.12.12.11.19.23.6.08.89.13.66.2.61.28.8.18.64.23.6.14.4Zm-17.44-13.19v-.07s.03-.04.03-.04h-.14s.06.12.06.12l.1.16h.23s-.17-.08-.17-.08l-.11-.09Zm.08,14.7h-.06s-.03,0-.03,0v.07s0,.03,0,.03h.06s.05,0,.05,0v-.07s-.02-.02-.02-.02Zm.11-13.62l-.05.04-.03.1v.03s.04.02.04.02l.08-.02.04-.07-.03-.09h-.06Zm-.04-1.82l.14-.04h.12s.11.09.11.09l-.03-.21h-.18s-.12-.01-.12-.01l-.07.05.03.12Zm.03-.61l.08.07.02-.04v-.03s0-.09,0-.09l-.08.02v.07Zm.26.94l-.08-.07h-.09s.03.11.03.11l.1.04h.03s.01-.07.01-.07Zm.59-2.09l-.23.03.05.08.1.03v.03s-.09-.04-.09-.04l-.08.02v-.03s-.07-.01-.07-.01l-.02-.06-.08-.07-.03-.09.04-.07-.04-.02h-.06s-.07.07-.07.07l-.1.06-.07.05.09.1.11-.03.13.15.03.21.07.04.05.17.02.18v.1s.04.05.04.05h.06s.01-.05.01-.05l.07-.27.04-.27-.03-.12.07-.05.02-.04-.05-.17Zm-.55.85l.04.05.07-.08-.03-.09h-.06s-.05.03-.05.03v.07s.03.02.03.02Zm.05-1.91h.12s.09-.09.09-.09l.1-.06.11-.03-.08-.07-.06-.11-.07-.04.03-.1h-.18s-.13.06-.13.06v.1s.07.04.07.04l-.06.11.06.21Zm0-.31l.04-.07.14-.04.04.02-.04.07-.17.02Zm.39,3.36l.06-.21-.22-.16.04.24.06.2.05-.02v-.07Zm.22.25l-.07-.04-.05.02.06.11.1.04-.03-.12Zm.27-2.6l-.17.02-.2.24h.18s.12.01.12.01l.15-.1-.08-.17Zm-.27,16.38h-.06s.04,0,.04,0h.03Zm.31-17.3l.09.1h.12s0-.1,0-.1l-.06-.11v-.07s-.03-.05-.03-.05l-.1.06v.16Zm.41.83l-.07-.14-.07.18.14.09v-.12Zm.13,1.92l-.15-.12v.15s.08.14.08.14l.04.02.05-.04v-.15Zm.24-2.81l.09.1.19.04.16-.17-.13-.06-.11-.06-.13-.03-.06.08v.1Zm4.05,3.43l.03.31.2.61-.32.12-.74.18-.5.11-.49.14-.7.23-.18.08-.08.15-.05.14.02.18.16.56-.44.12-.4.05-.2-.51-.21-.85-.14-.5.93-.26.5-.11.74-.18.77-.28.49-.23.43-.15h.14s.03.11.03.11Zm-3.57-1.3l-.02.23v.07s.03.05.03.05h.06s.05,0,.05,0v-.26s.24.06.24.06l.08-.02.06-.11.06-.21-.03-.21-.06.11-.03.1-.11.12h-.12s-.18-.11-.18-.11l-.2.02.16.14Zm-.08.65l.11.06.05-.14h-.12s-.03.01-.03.01v.07Zm.39,12.47l.02-.13-.12-.03-.07.05v.15s.07.11.07.11l.07-.08.04-.07Zm-.16-15.12l.12.12-.02.04.22-.06.17-.14.14.09.14-.04.04-.07-.14-.09-.19.05-.22-.16-.23.13-.02.13Zm.1.48l.17.17.02-.26-.18.08Zm.49,17.2l.03.02h.06s.02-.02.02-.02v-.07s-.03-.05-.03-.05h-.03s-.05.05-.05.05v.07Zm.19-18.02l.11-.13.02-.26-.04-.15h-.12s-.04.07-.04.07l.03.12v.19s.04.15.04.15Zm.08,15.96l.14.09-.03-.12-.05-.08.07-.08-.05-.08-.05.02-.03.1v.16Zm.07-15.31l-.07.05.05.08.1.04.07-.08.1-.06v-.07s-.12-.06-.12-.06l-.12.1Zm.08,18.07l-.04.07.07.04.05-.02-.02-.06-.07-.04Zm.36.65l-.31-.04-.05.04v.07s.12.06.12.06l.14-.04h.06s.03-.09.03-.09Zm-.16-18.34l-.1-.04-.1.06.02.09.11-.03.07-.08Zm.14,17.43l-.16-.05-.16.05v.03s.05.05.05.05l.15.02.12-.1Zm-.07.49l-.04-.05-.04-.02-.05.04v.07s.02.02.02.02h.06s.04-.06.04-.06Zm-.01-1.19h.03s.02-.04.02-.04l-.03-.12-.05.02.04.15Zm.4.49l-.1-.04-.11.03-.07.08.02.09.11.06.1-.06.07-.05-.03-.12Zm-.2-17.98l.1-.06.03-.1v-.03s-.04-.02-.04-.02l-.06.11-.03.1Zm5.08,8.03l.27,1.37.18.55.13.37.05.17-.25.07-.38.2-.23.22-.12.31-.03.42.06.43h-.12s-.37.04-.37.04l-.56.1-.51.17-.35.1-.36.07-.54.18-.33.09-.25.16-.12.19.02.28.14.4-.43.15-.29.11-.09-.32-.19-.45-.16-.36-.16-.56.21-.09.51-.17.68-.29.46-.16.48-.07.34-.03.42-.06.14-.04.49-.23.28-.14.1-.06.17-.24.12-.22.09-.4-.03-.31-.1-.67-.42-1.3-.11-.5-.03-.21.32-.03.2-.02h.18s.13.07.13.07l.1.16.24.53Zm-4.8-7.76h-.12s-.05.05-.05.05l.04.05.11.06.1-.06-.09-.1Zm.04,18.24h-.06s-.08,0-.08,0l-.02.04.02.06.04.02.05-.02.05-.04v-.07Zm-.05-1.12v.12s.09.1.09.1h.03s.05-.05.05-.05l-.06-.11-.11-.06Zm.32-16.33l-.1.06v.16s.04.08.04.08l.13-.07.07-.18-.13-.06Zm.28,16.35l.08-.02.06-.11-.07-.14-.05.14-.02.13Zm.16-.8l.04.02.05-.04v-.1s-.02,0-.02,0l-.04-.02-.05.04.02.09Zm.05-16.98l.04.02h.06s.02-.02.02-.02l-.02-.09h-.06s-.05.03-.05.03l.02.06Zm.02-.86h.06s.04-.06.04-.06l-.04-.05-.04-.02-.05.02.03.12Zm.25,19.82v.15s.07.08.07.08l.07-.05.04-.07v-.12s-.11-.06-.11-.06l-.07.08Zm.08-1.06l-.02.04.04.05h.14s.1-.16.1-.16l-.15-.02-.12.1Zm.02-18.01l.04.05.11-.03.02-.04-.04-.05h-.09s-.03,0-.03,0v.07Zm.14,17.65l.24.12.13-.16.05-.04-.02-.06-.19.05-.21.09Zm.27,1.16l-.04-.02h-.06s-.03.09-.03.09l.03.12.1-.06v-.12Zm.35-1.17l.1.04.08-.02-.08-.07h-.12s.02.06.02.06Zm.74-.18l.05.08h.06s.07-.04.07-.04v-.1s-.08-.07-.08-.07l-.05-.08-.06.11v.1Zm.22,1.1l.04.05.11-.03.05-.04-.04-.05h-.06s-.08,0-.08,0v.07Zm.01-2.46l.04.02h.06s.04-.06.04-.06l-.04-.05h-.06s-.02.02-.02.02v.07Zm.15,1.69l.09.1.16-.05.05-.04.04-.08-.07-.04-.22.06-.05.04Zm.7.62l-.13.04-.11-.06-.08.02.03.12.15.02.07-.05.06-.08Zm-.13-.47l.1.04.05-.02.07-.05.03-.1h-.06s-.07-.06-.07-.06l-.09.09-.03.1Zm.4.39l-.04-.05-.05.02-.02.04-.05.04.13.03.04-.07Zm.14-3.16l.12.03.02-.04-.04-.05h-.06s-.04.06-.04.06Zm.14.81l.11.09.06.11.03.12.07-.08.1-.06.06-.11-.03-.12-.18-.11-.19.05-.03.1Zm.05,1.66l.11-.03v-.12s-.11-.06-.11-.06l-.05.04.05.18Zm2.76-12.98l.29-.24.08-.15v-.19s0-.31,0-.31l-.04-.24-.05-.27-.15-1.06-.29-1.05-.32-1.04-.56-1.99.39-.08h.18s.11.11.11.11l.1.13.51,1.18.46,1.64.43,1.42.17.61.18.86.06.52v.22s.03.18.03.18l-.08.15-.15.1-.46.23-1.72.48-.69.16-.71.07-.13-.06-.11-.06-.1-.16-.2-.39.68-.19,1.22-.25.6-.26.27-.08Zm-2.76,11.94l.09.13.17.08.02-.13-.06-.11-.12-.03-.1.06Zm.47-.95l.08-.12.03-.1h-.06s-.03,0-.03,0l-.07.08.04.15Zm.54,2.65l-.09-.1-.24.07-.16-.05.13.25h.23s.03,0,.03,0l.02-.04.08-.12Zm-.43-2.59l-.03.1.05.08.04.02.02-.04v-.1s-.08-.07-.08-.07Zm.41,1.68l-.14-.09-.17-.08-.07-.04-.05.02v.09s.07.04.07.04l.03.09v.19s.13.06.13.06h.12s.06-.11.06-.11l.07-.05-.03-.12Zm-.36-.56l-.04.07-.03.1.07.04h.06s.16-.03.16-.03l.18-.08-.31-.07-.04-.05-.05.02Zm.1-1.42l.04.02.05-.04v-.07s0-.06,0-.06h-.03s-.07.06-.07.06l.03.09Zm.19,2.44h-.06s-.04-.04-.04-.04l-.08.02v.1s.04.05.04.05l.05-.02.05-.04.04-.07Zm.49.27l-.08-.07-.02-.09v-.12s-.08-.04-.08-.04l-.07.08.05.08-.02.04.05.17.11.06.08-.02-.02-.09Zm-.14-2.26l.1.04h.06s.08,0,.08,0h.12s.03.11.03.11v.07s.01.09.01.09l.05-.02.02-.04.15-.1.05-.02v-.12s.02-.13.02-.13l-.04-.15-.15-.02-.25.07-.2.12-.06.11Zm.15-.61l.2-.03.18-.08.12.03.16-.08-.13-.03-.1-.04-.02.04-.05.02-.21-.03-.15.2Zm.97,2.09l-.11-.09-.2-.07-.16-.05v.16s.13.21.13.21l.23-.03.11-.13Zm-.04-1.6l-.02-.06h-.09s-.06.1-.06.1l.16-.05Zm-.13-.37l.04.05h.06s.05,0,.05,0v-.07s-.06-.04-.06-.04h-.06s-.05,0-.05,0l.02.06Zm.43.89l-.05-.08-.13-.03-.1-.16-.04.17.06.11v.03s0,.1,0,.1l.07.04.1-.06.08-.12Zm.18,1.27l-.07-.14-.09-.1-.1.06-.04.17v.16s.12.06.12.06l.16-.08.02-.13Zm-.07-1.08l.07.04.05-.04v-.07s-.02-.02-.02-.02l-.05.02v.03s-.04.04-.04.04Zm.48-.29l.13.15v-.19s.02-.16.02-.16l.05-.04.07-.08h-.18s-.07.16-.07.16v.16Zm.39-1.12h.03s.04.01.04.01h.03s.05-.05.05-.05l.04-.07-.03-.12-.07.08-.08.15Zm.24.03l-.05.04v.12s.12,0,.12,0l.11.07-.02-.09v-.07s-.05-.01-.05-.01l-.07-.04.02-.04-.05.02Z"/>
        <path class="cls-2" d="m119.44,77.19l.22.98.14.31-.08.24-.94.33-.98.18-.96.24-.97.21-.94.33-.93.36-.95.3-.99.12-.23-.09-.14-.28-.32-1.24-.26-1.25-.04-.15-.07-.14-.76-.7-.78-.66-1.64-1.24-.31-.17h-.32s-.47.1-.47.1l-.46.13h-.26s-.25.05-.25.05l-.12.1-.06.11.04.34.46,1.64.13.25.13.06h.12s.73-.24.73-.24l.73-.11h.21s.14.09.14.09l.16.14.23.5.13.47.16.87.24.85.21.86v.15s-.06.15-.06.15l-.27.2-.93.35-.96.33-.97.21-.98.18-1.9.66-1.93.54-.96.33-.98.18-.16-.14-.03-.31-.28-1.09-.24-1.07-.35-1.04-.19-1.08.07-.18.23-.03.79-.13.75-.24.24-.19.02-.13-.02-.18-.25-1.1-.39-1.06-.22-1.11-.25-1.1-.72-2.13-.22-1.1-.25-1.1-.36-1.07-.39-1.06-.06-.33-.08-.17h-.09s-1.48.6-1.48.6l-.56.09-.21-.13-.09-.32-.29-.93-.53-1.87-.21-.95v-.22s.09-.18.09-.18l.18-.21.23-.13,1.91-.41,1.91-.54.93-.23.95-.27.93-.23.95-.27,1.85-.65,2.89-.72.94-.11,1.04-.07.96.08,1.01.25.92.34.89.57.76.7.76.73.64.83.45.98.31,1.02.27,1.28.03,1.25-.12,1.23-.39,1.21-.68.92-.88.94-.09.18-.02.23.07.23.13.15,1.13.98,1.17.9.2.1.23-.03.94-.33.96-.24.34.06.11.09.08.2.24.53.11.38.48,1.91Zm-20.63-11.88l-.02-.06-.08-.07-.16.05-.1.15.22.03.15-.1Zm-.19.56h.14s-.04-.16-.04-.16l-.15-.02-.08.12.05.08.08-.02Zm.56,1.89l.02-.13.08-.12-.08-.17-.14-.09-.09.09-.11.03h-.12s-.1-.03-.1-.03l-.07.05.03.09.07.04.19.17.2.07h.12Zm-.43-.48l-.05-.17.27-.08.07-.08.07-.05-.46-.18-.02.13v.12s-.04.17-.04.17l.16.14Zm.09-.94l-.05.02.04.15.08.17.07-.18-.07-.14h-.06Zm.15-2.6l.04-.07-.09-.1-.02.04-.05.04.05.08h.06Zm.17.3l-.07-.04-.05.02v.16s-.06.23-.06.23l.19-.18v-.19Zm-.1,1.73l-.06.3.24.22-.02-.28-.07-.23v-.19s-.08-.2-.08-.2l-.04.17-.02.13.02.06.04.02Zm.11-.85l.05-.05v-.07s-.06-.04-.06-.04h-.09s0,.02,0,.02l-.02.04.05.08h.06Zm.17,1.87v-.1s-.01-.06-.01-.06l-.07-.04-.07.05.04.15.07.04.05-.04Zm-.12-1.57l.07.14.16.05.31.07.35.09-.27-.33-.3-.23-.2.02-.12.19Zm.57,2.55v-.07s-.02-.02-.02-.02l-.12-.03-.08.12-.08.02-.02.04-.16-.05-.06.11.09.1.13-.07.04.02.05-.02h.14s.1-.16.1-.16Zm-.21,1.35v-.15s.09-.06.09-.06l.11-.03.13-.07.09-.09-.23-.09-.22-.16.03-.1-.11-.07-.07.08.02.09-.02.13.03.12-.13.07v.16s.06.14.06.14l.11.09.1-.06Zm-.11-2.05l-.1.06-.07.05.02.09.08.07.11-.03.1.04.06.11.19.17.25.05.02-.04v-.07s-.14-.12-.14-.12l-.19-.04-.09-.13-.12-.12-.12-.09Zm.21-2.2l.05-.02.02-.04-.07-.04-.05.02-.05.04h.06s.04.04.04.04Zm.03.84l-.07.18.19.14-.17.24.26-.11-.21-.44Zm.05,2.7l.16-.05.04-.07-.05-.08-.12-.03-.07.05v.12s.05.05.05.05Zm0-1.58v.15s.14-.07.14-.07l.05-.14-.03-.02h-.06s-.09.08-.09.08Zm.26,3.65l-.04-.05h-.06s-.05,0-.05,0l-.04.07.04.05h.09s.02-.03.02-.03l.05-.04Zm.02-1.17l.09-.09-.09-.1h-.09s-.08.02-.08.02v.03s.07.11.07.11l.1.04Zm.95-1.65l-.13-.06-.03-.12.07-.05.16-.07.17-.11.14-.04.05-.14.13-.07.15-.1-.11-.28-.23-.28-.05.23.02.18-.08.34-.02.04v.07s-.21.02-.21.02l-.16.05-.27-.11h-.3s-.24-.23-.24-.23l-.11.13-.05.24.2.1.17.08.08-.15h.18s.05.19.05.19v.19s.14.12.14.12l.16.05.12-.1v-.1Zm-.37,2.03l.15-.1.12.09.13.06-.04-.24-.17-.08-.16.08-.18.08h-.14s-.15,0-.15,0l-.16.05-.08.12.05.08h.12s.27-.08.27-.08l.25-.04Zm-.38-4.27l.1-.06v-.12s-.06-.08-.06-.08l-.09-.1-.08.12-.02.13.05.08.1.04Zm-.14.64l.04.15.03.21-.05.23.3-.18v-.34s-.03-.06-.03-.06l-.14-.09-.16.08Zm.09,8.17l-.04.07.02.06h.09s.03,0,.03,0l.02-.04-.04-.05-.07-.04Zm.19-8.41l-.05.04.02.09.07.04.15.12.12.12.02-.04h.03s-.08-.18-.08-.18l-.09-.2-.05-.08-.08.02-.07.05Zm.27-.71l.05-.05v-.07s-.15-.14-.15-.14l-.04.07v.06s.02.12.02.12h.12Zm-.06,5.34l.03.09.07.04.07-.18-.04-.15.09-.09.05-.14-.32.12.05.3Zm.01.57l-.05.04v.07s.03.05.03.05l.08-.02.06-.11-.04-.05-.08.02Zm.2-4.63l-.05.14-.06.11-.02.23.16.05.27-.17-.04-.34-.13-.15-.14.13Zm.08,7.2l-.11-.06.03.12.08.07v-.12Zm.35-5.46v-.09s-.05-.08-.05-.08l-.1-.03-.07.05-.04.07.06.11.13.03.07-.05Zm-.22,3.62l.03.12.04.05h.03s.02-.14.02-.14l-.08-.17-.05.14Zm9.34,6.96l-.16-.14-.14-.09h-.21s-.4.04-.4.04l.14.72.22.79.21.86.06.33.06.2.02.28-.04.17-.19.15-.21.09-.37.17-1,.31-.96.36-1.08.24-.95.17-1.85.64-1.96.55-.48.17.11.38.03.31.16.14.98-.18.96-.33,1.94-.54,1.9-.66.98-.18.97-.21.96-.33.93-.35.27-.2.08-.15v-.15s-.22-.85-.22-.85l-.24-.85-.16-.87-.13-.47-.23-.5Zm-9.17-11.07v.09s0,.03,0,.03l.04.05.08-.15-.04-.02-.04-.05-.05.05Zm.32,2.81l.02-.04v-.06s-.06-.04-.06-.04h-.06s-.03,0-.03,0l.02.06.05.08h.06Zm.19,4.01h-.14s-.08.13-.08.13l-.07.05.03.12.15.12.17.08.07.04.05-.02.04-.07-.08-.07-.05-.18.02-.13-.11-.06Zm-.03-4.91v-.12s-.04-.12-.04-.12l-.1-.04-.09.09v.12s.07.11.07.11l.1.04.06-.08Zm.63,7.58l-.13-.06-.1-.13-.13-.06-.05.02-.02.04.14.18.2.07h.09s.08.08.08.08v.1s.07.04.07.04l.08-.02.04-.07-.03-.12-.07-.04-.15-.02Zm-.26-6.26l-.12.1.07.26.09-.09.04-.07.02-.13-.11-.07Zm.03,6.8l-.05.04v.07s0,.06,0,.06h.06s.05-.03.05-.03l-.03-.12-.04-.02Zm.26-4.11l-.1.06-.03.1.07.04h.09s.09-.08.09-.08l.04-.07-.1-.04h-.06Zm-.08-3.1l-.04.08.02.06.04.02.08-.02.07-.08-.03-.09h-.06s-.07.04-.07.04Zm.96,2.25l-.14-.09-.05.02-.26.14v.29s.13-.13.13-.13l.3-.08.02-.13Zm6.34-4.21l.11-.44.05-.45-.02-.5-.11-.5-.17-.49-.23-.41-.31-.38-.34-.28-.36-.25-.43-.16-.47-.09-.51.08-.54.18-.37.14-.34.16-.54.18-.53.12-.4.05-.37.04-.55.12-.15.1-.08.15v.19s.02.18.02.18l.17.61.1.45.12.41.15.62.3,1.05.14.4.2.61.06.2.12.12.13.06h.18s.54-.14.54-.14l.39-.08.35-.1.55-.12.54-.18.36-.19.37-.16.99-.34.37-.26.3-.3.22-.38Zm-6.55,2.75l-.08.02-.02.13v.15s.18.05.18.05l-.1-.16.06-.11-.03-.09Zm.23,6.46l-.08-.07-.05-.08-.04.17.07.14v.03s0,.07,0,.07l.04.05.16-.05.08-.12-.06-.11-.13-.03Zm.21-2.3l-.05.04.03.12h.09s.09-.08.09-.08l-.07-.04-.1-.04Zm.17-1.5l.06-.11-.06-.11-.04-.02-.05.04-.08.12.07.14.02.06v.12s.1.04.1.04l.06-.11-.05-.08-.02-.09Zm.77-4.79l.15.43.12.44.3-.08.31-.05.14-.04-.08-.29-.14-.62-.12-.41-.1-.45-.22-.79v-.19s.08-.15.08-.15l.15-.1.66-.16.74-.21.53-.12.54-.18.38-.11.36-.07.29-.11-.04-.05-.26-.21-.28-.17-.3-.14-.28-.05-.33.06-.48.17-.32.12-.39.17-.59.2-.61.14-.43.03-.33.06-.17.02.13.47.1.45.12.44.14.59.27.96Zm-.45,10.12v.12s.04.02.04.02l.05-.02.05-.14-.07-.14-.08.15Zm3.34-3.08l.04.02.65-.18-.49-.37-.11-.06-.08.02-.39.08-.54.15.27.96.44-.12.33-.06-.12-.44Zm-.19-4.33l-.04-.02-.11.03v.07s-.06.02-.06.02l.12.03.14-.04v-.03s-.05-.05-.05-.05Zm0-.41l-.09.09.03.12-.02.04.04.02h.06s.07-.04.07-.04l-.06-.11-.03-.12Zm1.06.33l.13-.07.02-.23-.15.11-.12.1-.1-.04h-.09s.11.18.11.18l.19-.05Zm.04,1.28l.05-.02v-.09s-.09-.1-.09-.1l-.05.04v.07s.04.08.04.08l.04.02Zm.12.44l-.06-.11-.14-.09.07.23.04.02.05-.02.09.23.24.03-.13-.15-.16-.15Zm.25-.67v-.03s-.05-.05-.05-.05l-.07-.04v.07s.03.05.03.05h.09Zm.52.8l.08-.02-.03-.12v-.07s-.05-.02-.05-.02l-.06-.11.06-.11.08-.02.04-.07-.04-.05-.08.02-.14-.09v-.03s-.14.04-.14.04l-.13.07-.08.12.08.17.19.17.24.12Zm-.24-1.26h.03s.07-.06.07-.06v-.07s-.1-.09-.1-.09h-.14s-.06.12-.06.12l.06.11v.1s-.04.07-.04.07l.14-.04.05-.14Zm-.14-.4l.08-.02-.02-.06-.07-.04-.04.07.04.05Zm.43,2.37v-.03s-.08-.04-.08-.04l-.05.04-.02.04v.03s.07.01.07.01l.05-.02.02-.04Zm.1.13l.02.06.03.02h.09s.11-.12.11-.12h-.14s-.11.04-.11.04Zm.22-11.76l-.07-.14-.05.04h-.03s.01.16.01.16l.12.12v-.19Zm-.02,12.46l-.05.02v.07s.06.04.06.04l.05-.02-.02-.06-.04-.05Zm.13-1.01l-.07.05v.09s.08-.02.08-.02l.06-.11-.04-.02h-.03Zm.22-2.55l.09-.09v-.16s-.13-.09-.13-.09l-.13.07-.07.08-.04.17.1.04.17-.02Zm.27.43l-.17-.2-.15-.02v.16s.04.21.04.21l.07.14.14-.04.08-.24Zm-.06,2.29l-.15-.02-.06.11.03.21.13.15.1-.06.02-.13.05-.14.09-.09h-.12s-.1-.04-.1-.04Zm.1-5.48l.05-.14-.08-.17-.03.1v.13s-.09.06-.09.06v.07s.06.04.06.04l.09-.09Zm.26,4.5l-.18-.11.06.2.07.14v.07s.02.02.02.02h.12s.07-.05.07-.05l-.03-.12-.13-.15Zm0,.85l.03.12.11.06.07-.18-.02-.18-.14.04-.05.14Zm.33-4.38l.05-.14.02-.13-.19.05-.08.12.07.14.14-.04Zm.03-2.4l-.07-.04-.06-.02-.08.15.1.13v.03s.04,0,.04,0h.3s.13-.25.13-.25l-.16.05-.19-.04Zm.01,5.58l-.1-.04-.03.1v.16s0,.18,0,.18l.02.09.04.05.05-.04.03-.1.05-.05.07-.05.09-.09-.03-.12-.09-.1h-.12Zm.13-9.15l.2.07-.05-.17-.14-.09-.03-.12-.1-.04-.08.12v.19s.1.06.1.06l.11-.03Zm.07,2.25v-.03s.05-.11.05-.11l-.04-.02-.02-.06-.11.03v.15s-.02.07-.02.07l-.09.09-.02.13.04.02.05-.02.13-.07.03-.2Zm.05,6.13l-.07.05-.02.13-.04.07-.11.03.03.12h.09s.06-.1.06-.1l.05-.02.07-.08v-.16s-.06-.04-.06-.04Zm-.08,3.59l-.05.04.02.09.04.02.04-.07-.02-.06-.04-.02Zm.17-2.95l-.08.02.03.12h.06s.07-.04.07-.04l.02-.04-.04-.05-.06-.02Zm.08.92v.12s.08.04.08.04l.04-.07.07-.08-.08-.07-.1.06Zm.33-1.23h-.03s0-.02,0-.02h-.14s-.06.12-.06.12l.09.1.12.12.05.17.13-.26-.16-.24Zm-.17-6.89l.08-.02h.06s.05-.03.05-.03l-.04-.02-.14.04-.02.04Zm.34,1.51l.07.04h.12s.07-.08.07-.08l-.05-.08-.04-.05h-.12s-.09.09-.09.09l.05.08Zm.4-3.39l-.1.06-.1-.04-.05-.08h-.09s-.04.07-.04.07v.07s.08.1.08.1h.09s.3-.08.3-.08l.14.09.17-.02.02-.04-.02-.06-.21-.1-.2.02Zm-.2-.51l.05-.02-.03-.12-.04-.02-.05.02-.02.04.09.1Zm-.06,10.86v.07s.01.09.01.09l.12.03.08-.02-.05-.18-.1-.04-.07.05Zm.27,1.15l-.04.07-.03.1h.12s.1-.06.1-.06l.04-.08-.02-.09-.1-.03-.07.08Zm.2-.56l-.11-.09-.07-.04-.05.02v.1s.08.07.08.07l.09.1.05-.02.02-.13Zm-.07-.89l.05-.02-.04-.05-.02-.06-.04-.02-.04.07.02.06h.06Zm.23.09h-.09s.09.09.09.09l.03.12.07.04.07-.08-.04-.15-.12-.03Zm.37,2.04l-.02-.09-.08-.07v.12s.06.08.06.08h.03s.02-.04.02-.04Zm.19-9.77l-.04-.02-.02-.06h-.06s-.07.07-.07.07l.03.12-.06.21-.04.07-.05.04.06.11.14.09.13-.07h.09s.01-.06.01-.06v-.03s.02,0,.02,0l-.04-.15v-.12s-.07-.11-.07-.11l-.05-.08Zm-.01,8.42v-.1s-.04-.05-.04-.05l-.04-.02-.05.02-.05.04.05.08.04.05.08-.02Zm-.12,1.55l-.04.07.16.15.18.11-.05-.27-.25-.05Zm.1,1.11l-.05.04.02.06h.06s.05-.03.05-.03l-.02-.06h-.06Zm.08-9.13l.06-.11-.03-.12-.07.08.04.15Zm.29,8.15l.09.13.11.06.05-.02v-.07s-.09-.13-.09-.13l-.17.02Zm.37.68l-.11.03-.08.12h.14s.12-.11.12-.11l-.07-.04Zm7.13-.87l-.24-.53-.08-.2-.11-.09-.34-.06-.35.1.17.8.25.91.24.94.08.29.09.23.07.36-.08.24-.23.22-.3.08-1.04.39-.98.18-.93.23-.94.2-1.81.67-.71.2.1.35.14.28.23.09,1-.12.95-.3.93-.36.94-.33.97-.21.96-.24.98-.18.94-.33.08-.24-.15-.31-.22-.98-.26-.93-.22-.98-.11-.38Zm-6.87-8.44l-.05.02v.09s.04.05.04.05l.05-.02v-.07s-.04-.08-.04-.08Zm-.02,7.98v.07s0,.03,0,.03h.12s.07-.08.07-.08l-.08-.07-.1.06Zm1.66-3.62l.66-.91.52-1.41.17-1.5-.06-1.27-.29-1.46-.33-1.07-.38-.84-.14-.18-.73-.71.5,1.06.33,1.07.3,1.49.06,1.25-.17,1.5-.52,1.41-.65.94-.82.83.77.64.8-.82Zm-1.38,5.34l-.07-.04-.06.11v.15s.11-.09.11-.09l.02-.13Zm.22.57l-.08.02-.05.04.04.05.05-.05.07-.05-.04-.02Zm-.12-2.11l.03.12.1.04.12-.1.03-.1-.1-.03-.08.02-.1.06Zm.37,1.41l-.06.11.02.09.08.07.1.04.07-.08v-.12s-.12-.09-.12-.09h-.09Zm.3,1.08l-.05.04-.02.04.02.06h.06s.07-.04.07-.04l.02-.04-.04-.05h-.06Zm-.02-.81l.08.17.12.12.06-.11-.09-.13-.16-.05Zm.13-.57h-.06s-.05,0-.05,0l.02.06.11.06.05-.04-.02-.06-.04-.02Zm.32.6l-.05.04.02.09.05-.02.02-.04-.04-.05v-.03Zm.02-.26h-.03s-.01.07-.01.07l.02.06h.06s.05-.03.05-.03l-.02-.09h-.06Zm.35-.32l-.08.02.14.28.07.04.05-.02-.04-.15-.09-.13-.04-.05Z"/>
        <path class="cls-2" d="m129.85,75.93l-1.1.28-.25.04-.25-.05-.23-.09-.19-.17-.72-.87-.71-.84-.62-.93-.61-.9-.69-.88-.71-.84-.68-.85-.69-.88-1.41-1.68-.66-.89-.64-.92-.68-.85-.69-.88-.66-.89-.71-.84-.23-.19-.28-.05-.3.08-.34.25-.32.22-.36.07-.33-.13-.22-.35-.34-.91-.24-.94-.33-.95-.21-.95v-.22s.04-.17.04-.17l.29-.24.47-.2.44-.09.95-.17,1.82-.64.93-.23.9-.25,1.87-.46.93-.26.94-.11h.3s.16.25.16.25l.37.9.53,1.87.12.94.05.4-.2.24-.3.08-.23.03-.54.06-.15.1-.1.18-.03.2.05.17.71.87,1.38,1.76.67.92,1.29,1.85.57.98.59.97.18.11.2-.02.2-.12.1-.19.07-1.12.1-1.1.07-1.12.07-1.09.08-2.23.16-1.12.14-1.08-.04-.24-.14-.18-.18-.11h-.21s-.45.28-.45.28l-.2.12-.25.04-.28-.05-.11-.06-.26-.3-.32-.92-.22-.98-.3-.96-.15-.96.04-.39.25-.26.89-.28.99-.15,1.86-.4.54-.18.36-.2.51-.27.84-.24.49-.04.57-.06.35-.1.43-.15.49-.26.45-.19.45-.06.32.1.22.35.37.9.24.94.34.91.24.97-.07.18-.15.2-.19.18-.23.13-1.1.37-.17.11-.04.17-.15.42-.13.38-.15,1.05-.36,3.13-.16,2.13-.09,1.03-.12,1.04-.11,1.07-.12,1.04-.21,1.04-.18,1.03-.12,1.04-.08,1.06-.12,1.04-.11,1.07-.04.17-.13.26-.17.14-.2.12-2.16.67-1.08.24Zm-6.3-9.45l-.05.02-.05.05v.15s.14.15.14.15v-.19s-.04-.18-.04-.18Zm1.43-6.2l.21-.19.13-.26-.05-.4-.06-.42-.13-1-.47-1.67.25-.04h.3s.16.25.16.25l.37.9.53,1.87.15.97-.07.27-.2.21-.15.1h-.23s-.42.09-.42.09l1.14,1.44,1.22,1.83.8,1.19-.16,1.12-1.01-1.61-3.1-4.14-.22-.25.2-.02.44-.12.37-.14Zm-.03,7.83l.16-.05.11.07.1.04-.02-.18-.15-.12-.04-.15-.1-.04-.14.13-.03.2.11.09Zm1.04,2.67l.07-.05v-.03s-.09-.07-.09-.07l-.11.03v.07s-.05.07-.05.07h.06s.11-.02.11-.02Zm.71-2.38h.21s0-.06,0-.06l.02-.04-.24-.12h-.23s-.11.03-.11.03l-.11-.07-.05-.08-.12-.03-.04.07v.09s.06.11.06.11l.12.03.16-.05.17-.02.15.11Zm-.51-.96l.05.08.04.05.05-.02v-.06s0-.06,0-.06l-.05-.08-.05.02-.04.07Zm.88,5.96l-.2-.29-.09-.1-.1-.26h-.09s-.07-.05-.07-.05v.12s.05.15.05.15l.17.17.05.08.06.11.08.29.15.21.05-.02v-.09s-.05-.18-.05-.18v-.15Zm1.26-2.72v-.07s-.03-.05-.03-.05h-.09s-.06-.02-.06-.02l-.19.05-.04-.02-.05.02-.05.04.02.09.07.04.1.16.04.15.11-.03.05-.04.07-.08v-.07s.01-.1.01-.1l.04-.07Zm-.21,1.89l-.08.02-.02.04-.03.1v.12s.07.23.07.23l.02-.04.05-.02.04-.07.03-.2-.05-.17-.04-.02Zm.89,1.58l-.07-.14-.05-.18-.45.16.1.16v.38s-.04.1-.04.1l.26-.11.1-.15.11-.13v-.06s.03-.04.03-.04Zm-.14-3.21l.05-.02.06-.11-.05.02-.04.07h-.03s0,.04,0,.04Zm.26-1.27l.06-.11v-.03s-.05.07-.05.07v.07Zm10-14.95l.32,1.05.09.73-.07.18-.15.2-.19.18-.23.13-1.1.37-.17.11-.36.2-.23.22-.15.83-.15,1.02-.11,1.07-.24,2.08-.17,2.13-.09,1.04-.12,1.04-.11,1.07-.12,1.04-.21,1.04-.18,1.03-.12,1.04-.08,1.06-.12,1.04-.11,1.07-.04.17-.13.26-.17.14-.2.12-.48.17-1.08.33-1.08.24-1.1.28-.25.04-.25-.05-.23-.09-.19-.17-.27-.33.52-.15,1.11-.25,2.22-.69.53-.21.15-.1.14-.23.08-.24.02-.23.04-.17.12-1.14.11-1.07.18-2.07.22-.98.21-1.13.09-1.03.12-1.04.11-1.07.12-1.04.08-1.06.06-1.06.24-2.09.13-1.01.13-.98.12-.32.09-.31.4-.14.54-.18.62-.3.24-.1.16-.17.09-.21.07-.27-.11-.5-.24-.94-.36-.97-.2-.83.36-.07.32.1.22.35.37.9.24.94Zm-9.01,12.4l.2.07.17-.33.14-.04.12-.22.15.02h.14s.12.02.12.02l.09.23.2-.02v.03s-.01.04-.01.04l.29.11.21-.09.07-.18-.04-.15h.03s.02-.04.02-.04l.16-.05.18-.08.17.17-.04.27h-.09s-.06-.02-.06-.02l-.04-.05h-.09s.06.2.06.2l.14.28.07.04.06.2.04.05.07.04-.04.07v.07s-.09-.07-.09-.07l-.16.05h-.12s-.12.1-.12.1l-.08-.07-.04-.05-.16-.27-.23-.09-.02.23-.13.16.02.18.1.13h.14s.08-.16.08-.16l-.05-.08.02-.13.13.03.07.14.04.05.07.04.15.02.13-.07.19.14.18-.08.08-.15.05.08.08.07h.03s-.05-.18-.05-.18l-.11-.06v-.09s.02-.13.02-.13l.02-.04.07-.18v-.25s0-.04,0-.04v-.03s.09-.06.09-.06l.08-.02.09-.18.06-.21.1.04.04-.07-.04-.15-.14-.09-.02-.06v-.07s.01-.09.01-.09l.09-.09.03-.1-.16.05-.12.1-.07.18-.2-.2-.2-.1.02.28.14.18.08.17.02.18-.22-.16-.19-.26-.02-.18-.06-.2-.1-.16-.16.05-.04-.02-.25-.06-.19.27-.09.21.18.2.06.2v.07s0,.03,0,.03l-.14-.09-.15-.11-.08-.07-.1.06h-.14s-.11.04-.11.04l-.24-.03-.2-.2-.02-.06-.05-.08v-.15s.04-.14.04-.14l.05-.04.07-.05.06.11.13.03.04-.07.05-.04-.1-.13-.1-.04-.04-.05v-.03s.04-.14.04-.14l.1-.06.04-.07-.07-.04-.05-.08h-.12s-.06-.11-.06-.11h-.12s0,.1,0,.1l.05.08-.04.07-.05.04-.12.41.09.42-.05.14v.16s.01,0,.01,0h.06s.06.12.06.12l.11.06-.14.04-.17.33-.12.19Zm.44.63l.11-.03.02-.13.08-.02h.09s.1-.05.1-.05l.11-.03-.17-.17-.12-.22.03-.1-.04-.05-.08.02v.12s-.02.1-.02.1l-.02.13-.11.03-.06.11v.15s.08.14.08.14Zm-.04,1.43l.07.04h.03s.05-.05.05-.05l-.02-.06-.04-.05-.05.02-.05.04.02.06Zm.04-4.68l.05.08.08.2.13.15.1.04.06-.11.08-.12v-.19s-.08-.1-.08-.1l-.11.03h-.18s-.05-.09-.05-.09l-.07.05v.07Zm.08-.34l.08.2v-.19s.12,0,.12,0h.09s.11-.02.11-.02l.07-.05-.19-.14-.14-.18-.06.11-.02.13-.08.15Zm1.02,4.35l-.12-.12h-.14s-.16.06-.16.06l-.21-.13-.15-.02-.08.12.02.09.07.04.24.03h.21s.14-.03.14-.03l.07.14.08.07.05-.24Zm-.72-.68l-.04-.02-.04.07.02.09.09.1.09-.09-.03-.12-.1-.04Zm-.02-4.88l.19.04v-.15s-.12-.06-.12-.06l-.08.12.02.06Zm0,10.53l.19-.15.1-.06v-.03s.02,0,.02,0l.02-.04.13.06.07-.05-.06-.11-.33.09-.15.3Zm0-3.53l.04.05.11-.03v-.07s-.03-.05-.03-.05l-.11.03v.07Zm.39-4.68l.12-.1v-.07s0-.06,0-.06l-.1-.04-.1.06-.08.02-.11-.06-.06.08.03.12h.12s.03,0,.03,0l.04.02.12.03Zm-.33-2.84l.12.12.16-.08v-.07s-.03-.05-.03-.05l-.12-.03-.12.1Zm0,1.38l.1-.16v-.12s-.05-.05-.05-.05l-.05.02v.13s0,.19,0,.19Zm.14,6.86l-.02.13.04.05h.03s.06-.12.06-.12l-.02-.18-.09.12Zm.32-1.7l-.29.02-.04.29v.12s.05.05.05.05l.08-.15v-.16s.11-.06.11-.06l.08-.12Zm-.04-4.31v.12s.11.25.11.25l.18.11.02-.04.05-.04-.1-.16-.14-.09-.09-.32-.06-.11h-.12s-.05.05-.05.05l-.03.1.05.08h.09s.1.04.1.04Zm-.21,7.31l.12.09.05-.02.04.02.17-.02v-.16s-.1-.09-.1-.09l-.16.08-.12.1Zm.25-9.34l-.08.15-.05.14-.02.04.04.05-.13.26.15.31.04-.26-.02-.28.08-.15v-.25Zm-.12,2.9l-.07.05-.03.1.02.06.12.03.07-.08-.02-.09-.08-.07Zm-.05-1.44l.05-.04v-.07s.01-.1.01-.1l-.04-.05-.05.02v.19s.04.05.04.05Zm.05-6.83l.04.02.05-.02v-.06s-.06-.04-.06-.04h-.03s-.02.04-.02.04l.02.06Zm.26,4.91h.06s.03,0,.03,0l.02-.04-.03-.09h-.06s-.03,0-.03,0l-.02.04.02.09Zm.11,2.18l.06-.11v-.03s-.04-.02-.04-.02l-.11.03v.16s.09-.03.09-.03Zm-.09-1.68l.11.09.22.16.26.18-.12-.41-.19-.26-.13-.06-.17.14v.15Zm1.37,1.54l-.11.22v.19s-.16.29-.16.29l-.05.04-.02.04-.15-.02h-.14s-.18-.22-.18-.22l-.22-.06-.11-.29-.13.07-.09.21.14.18.09.1.08-.12.16.05-.02.23-.04.17.1.13.11.09.11-.03v-.09s-.06-.11-.06-.11l-.02-.09.07-.05.17-.02.13-.07.13.03.08-.15.25-.07v-.32l-.1-.35Zm-1.36-2.55l.17-.11.04-.17-.03-.09h-.06s-.04.16-.04.16l-.09.21Zm.14,1.63l.11.19-.19.18.23-.03-.05-.49-.1.15Zm-.04-2.32l.08.07.04-.07-.04-.15-.05.04-.02.04v.07Zm.11,8.45l-.04-.05h-.03s-.01.07-.01.07l.03.09.04.02.05-.04-.03-.09Zm.47-5.75l-.1-.13-.14.04v.07s.01.09.01.09l-.03.2-.11.22.27-.08.09-.31-.02-.06.02-.04Zm-.22-1.42v-.03s-.09.02-.09.02l.02.06.04.02.08-.02-.04-.05Zm.12,6.27l-.08-.07-.1.06-.02.13.02.09.08.07.07-.08.03-.1v-.09Zm-.08-1.24l.05-.02.03-.1-.02-.09-.08-.07-.05.02-.04.07.03.12.08.07Zm-.07-10.51l.05.08.04-.07-.06-.11-.03.1Zm.02,4.25l.04.02.05-.02.02-.13-.04-.02-.05.02-.02.13Zm.13-.7l.16.15.1.03.03.09v.09s.04.05.04.05h.09s.04-.07.04-.07v-.09s-.05-.08-.05-.08l-.21-.13-.08-.17-.09-.1-.05.02-.02.04.05.17Zm.22,2.33l-.1.06-.05.14.02.09.05.08.1-.06.02-.13v-.1s-.05-.08-.05-.08Zm-.11-4.67l.1.16.12.12.11.07.04-.07-.05-.08v-.19s.06-.11.06-.11l-.08-.07-.13-.03-.1.06-.07.05v.1Zm0,5.45v.1s.05.08.05.08l.07.14.08.17h.03s.02-.04.02-.04l-.04-.37-.02-.09-.07-.04-.05.04-.05.02Zm.16.77l-.15.3.12.12.26-.11.05-.33-.08-.2-.12.1-.08.12Zm.05,5.6l-.07-.04-.05.02-.04.07v.07s.02.02.02.02l.05-.02.07-.05v-.07Zm0-4.38v.07s0,.06,0,.06v.07s.05-.08.05-.08l.04-.07-.02-.06-.08.02Zm.2-2.86l-.06.11v.1s.1.04.1.04h.03s.04-.08.04-.08l-.1-.16Zm.09,4.83v.03s-.02,0-.02,0v-.03s.02,0,.02,0Zm.15-5.94l.04.05.15.02.09-.09v-.12s-.11-.06-.11-.06l-.05-.08-.02-.09-.08.12.04.15h-.03s0,.04,0,.04l-.04.07Zm.29-4.21l.09.1.11-.03.07-.08-.08-.07h-.06s-.08,0-.08,0l-.04.07Zm.11,5.61l-.05.14h.06s.03,0,.03,0l.07-.08v-.15s-.11.09-.11.09Zm.34-7.98l.08-.02.05-.05.02-.04.03-.1-.09-.1-.1.06-.02.13.03.12Zm.14,4.47h.06s.05,0,.05,0l.05-.04-.04-.05-.07-.04h-.06s-.01.05-.01.05l.02.09Zm.05-2.54l.13-.07.17-.02.13.03.02-.13-.09-.1-.04-.02-.25.04-.07.27Zm.56.85l-.04-.02-.05.02-.09.09v.15s.03.06.03.06l-.03.1.08.07.09-.09-.06-.11.09-.18-.02-.09Zm-.06-2.19l.12.12-.06-.2.09-.09-.02-.06h-.09s-.03.1-.03.1l-.02.13Z"/>
        <path class="cls-2" d="m140.43,55.17l-.37-.05-.27-.33-.24-.94-.18-.96-.38-.93-.24-.94.08-.34.3-.18.88-.41.95-.27.95-.17.97-.21,2.78-.88,1.85-.52.96-.14h.32s.17.27.17.27l.34.88.22.98.32.92.18.96.02.37-.23.22-.71.29-.77.19-.25-.05-.09.09.2,1.14.39,1.09.29,1.15.94,3.36.34,1.1.35,1.13.29,1.12.32,1.14-.03.32.09.13.94-.2.96-.24h.38s.21.21.21.21l.35.94.24.97.26.93.15.97-.02.35-.27.2-.91.32-.98.18-.92.29-.94.33-.93.26-.92.29-1.88.53-.94.33-.94.2-.38-.08-.2-.29-.33-.95-.18-.96-.38-.93-.25-.97.05-.36.31-.25.85-.21.87-.25.07-.18-.11-.28-.29-1.15-.62-2.22-.29-1.12-.51-2.25-.4-1.12-.39-1.09-.18-1.15-.32-1.14-.19-.04-.3.18-.72.27-.75.15Zm-.58-3.11h-.06s-.02.02-.02.02l.02.06.07.04.02-.04-.02-.09Zm.33-.41l.05-.04-.03-.09-.04-.02-.02.04v.07s.02.02.02.02v.03Zm.25.37l-.25.07v.07s.09.04.09.04l.11-.03.08.07.1.04-.13-.25Zm-.15,1.24l-.05.02.02.09.04.05.05-.02v-.06s0-.06,0-.06h-.06Zm.36-1.65l.02.06.03.21.06.2.09.1-.07.08-.03.1.17-.02.02-.13-.07-.14-.06-.11v-.12s0-.1,0-.1v-.12s-.11-.07-.11-.07l-.05.04Zm.36,1.07l-.14.04v.1s.04.05.04.05l.14-.04.04-.07-.08-.07Zm.1-1v-.1s0-.03,0-.03l-.04-.02-.07.05v.09s0,.03,0,.03l.04.02.07-.05Zm.07-.37l.04.05.03.09.05.08.06.11.03-.2.1-.16h.09s.01-.06.01-.06l-.04-.05-.05.02h-.09s-.08.02-.08.02l-.06-.11h-.09s-.1.05-.1.05l-.04.07.03.09h.12Zm1.51-.68l.04-.07-.05-.08-.05.02-.05.04-.04-.02-.05.02-.27-.02-.22.16-.13-.03-.08.02.02.09h-.03s-.03.11-.03.11v.07s-.04,0-.04,0l-.02-.09-.1-.03-.32-.1v.15s.15.06.15.06l.13.03.06.11.2.07.09.32-.1.18.08.17-.05.02.05.27.1.16.13.03.09-.09v.03s.11.16.11.16l.09.13-.04.17-.17.02-.02-.06-.04-.05.04-.07-.02-.09-.05.04-.2.24v.07s-.05.07-.05.07l-.05.04-.04.07v.03s-.05-.01-.05-.01h-.03s0-.09,0-.09l-.05-.08v-.03s-.07-.11-.07-.11l-.09-.1.02-.04v-.07s.12-.22.12-.22v-.22s-.17.02-.17.02l-.13-.06-.1.06-.06.11.07.14.12.03v-.07s.09-.02.09-.02l.03.12-.06.08-.02.13.04.15.09.1v.19s.06.14.06.14l.12.03-.05.04v.1s0,.03,0,.03h.03s.06-.09.06-.09v-.09s.17-.05.17-.05l.15.02.19-.05.04.05.05.08.16.05h.12s.02.09.02.09l.04.05.09-.09v-.16s.15-.04.15-.04l.07.04h.06s-.02-.04-.02-.04l-.05-.08-.11-.06-.13-.03.06-.21v-.22s-.19.08-.19.08l-.07.18-.06.11-.11.03.03-.2.08-.24.13-.07.12-.1.06-.11-.09-.1-.02-.06v-.25s-.24-.09-.24-.09l-.16-.05-.06.21-.15.1-.05.02.02-.13v-.16s.04-.1.04-.1l-.08-.07-.03-.12-.08-.07-.04-.24.03-.2.09-.09.07-.05h.12s.04.05.04.05l.04.02-.03.1.02.09.04.05h.03s.07-.09.07-.09v-.12s.01-.04.01-.04h.03s.09,0,.09,0l.08.07.04.02v-.07s.05-.07.05-.07l-.03-.12Zm-1.05,3.58l-.02.04v.07s.02,0,.02,0l.04.02.02-.04v-.07s0-.03,0-.03l-.05.02Zm.17-1.81l-.03.1.04.05.05-.02.07-.05-.03-.12-.04-.02-.07.05Zm.25,1.22l-.02.04v.03s.1,0,.1,0l.1-.06-.1-.04-.08.02Zm.4-2.25l.03.12.04.05.07-.05v-.1s-.04-.05-.04-.05h-.09s-.02.03-.02.03Zm.53,1.05h-.03s-.02.04-.02.04l.04.02h.06s.02-.02.02-.02v-.03s-.07-.01-.07-.01Zm.13-2.15l.06.2.07.04.04.05.08-.34-.07-.04-.08.02-.12-.03-.08.12.11-.03Zm.12-.32v-.07s-.02-.02-.02-.02l-.08.02-.1.06.1.04.11-.03Zm.06,2.09l.07-.08.09-.09.04-.07-.03-.09-.07-.04-.05.02v.06s0,.06,0,.06v.1s-.08.05-.08.05l-.11.12v.19s0,.03,0,.03h.03s.08-.13.08-.13l.02-.13Zm.9,1.1l.19-.15-.16-.05-.14.04-.1-.04-.12-.03-.07-.04-.07-.26.06-.21v-.22s.13-.16.13-.16l-.08-.07-.16-.05-.07.18-.03.1.1.04v.15s-.12.04-.12.04h-.12s-.06.11-.06.11l-.03.1.06.11.08-.02v-.07s.08-.05.08-.05l.04.05.07.14.06.11.03.12.12.03.05.08.06.11.18-.08Zm-.8-1.79l.06.11.07.04.04-.07-.08-.07h-.09Zm.09-.4v.07s.02.02.02.02h.06s.04-.06.04-.06v-.03s-.07-.01-.07-.01l-.05.02Zm.3-.49l.1-.06.06-.11-.05-.08-.04-.15v-.07s-.04-.08-.04-.08h-.03s-.04.08-.04.08l-.08.12-.07.18.02.09h.09s.08.08.08.08Zm-.16,4.96l-.02.04.02.09h.06s.03,0,.03,0l.02-.04-.04-.05-.07-.04Zm.42-4.47l-.22-.03-.13.07h.14s.2-.03.2-.03Zm-.02.45l-.07-.04-.08-.07.08.2.28-.14-.13-.06-.08.12Zm.21.41l-.12-.03v.07s-.07.11-.07.11l-.08.12h.03s0,.02,0,.02l.1-.06.13-.07.05-.04-.03-.12Zm-.03-1.35l-.11-.06-.05.04.05.17.08-.02.02-.13Zm0,4.32l.08.07v-.12s-.11-.07-.11-.07l.03.12Zm.46-3.6v-.12s-.12-.09-.12-.09l-.11.03-.02.13-.02.23-.04.27.2-.22.11-.22Zm-.18-.55l.04-.04-.04-.15-.11-.06v.16s.07.1.07.1h.03Zm.35,1.86h.03s0-.04,0-.04l.09-.09-.07-.14-.05.04-.05.02h-.14s-.15-.01-.15-.01l.12.22h.23Zm-.13-.56v.07s0,.06,0,.06l.05-.02.05-.04.04-.07-.04-.02h-.06s-.05.03-.05.03Zm.15,1.16l-.04-.02.03-.1-.07-.04-.07.08.05.08-.02.04.04.15.08.07.08-.02v-.1s-.08-.07-.08-.07l-.02-.06Zm-.01-2.23l-.04-.02-.08.02.02.06.07.04.02-.04v-.07Zm0,.5l.02-.04-.03-.12-.04.08.02.06.04.02Zm.26,4.28h-.12s-.08.15-.08.15l-.07.05.03.12.15.12.2.07.07.04.05-.02v-.09s-.08-.07-.08-.07l-.05-.18v-.12s-.11-.06-.11-.06Zm-.06-6.07l-.02-.09-.04.07.02.09.04-.07Zm.25,1.32l.04-.04v-.03s-.13-.03-.13-.03l-.15-.02.15.12h.09Zm-.13,1.2l.06.11.09-.09.04-.07v-.12s-.14-.06-.14-.06l-.07.08v.15Zm.4-2.13h-.03s-.05.05-.05.05l-.19-.04-.13.16.17-.02.16-.05h.12s.13-.07.13-.07l-.19-.04Zm-.2,1.29l-.05.23-.08.15.17-.11-.05-.27Zm.36,1.38l.09-.09-.09-.1-.1-.04-.07-.04-.15-.02-.02.13.11.19.23-.03Zm.16,5.79l-.16-.05-.1-.13-.14-.09-.05.04-.02.04.14.18.2.07h.12s.06.11.06.11l.02.09.07.04.07-.05v-.07s0-.13,0-.13l-.1-.03-.13-.03Zm-.44-7.22h.12s.1-.06.1-.06h-.09s-.13.06-.13.06Zm.15-.42l.02-.04v-.03s-.04-.02-.04-.02l-.05.02v.06s.03.02.03.02v.03s.05-.04.05-.04Zm.09,3.88l-.1.06v.12s.05.05.05.05h.09s.09-.08.09-.08l.03-.1-.1-.04h-.06Zm0,4.35l-.02.04v.07s0,.06,0,.06h.06s.02-.02.02-.02v-.06s0-.06,0-.06h-.06Zm.68-5.33l-.05.02-.26.14.03.31.14-.13.15-.08.11-.03v-.16s-.12-.06-.12-.06Zm-.2-1.14l.14.09-.05-.08-.06-.11.06-.11-.02-.09-.07.05-.03.1.04.15Zm.21-1.98h-.09s-.05.04-.05.04l-.04.07.04.05h.09s.05-.04.05-.04l.07-.05-.08-.07Zm9.62,16.02l-.35-.94-.21-.22h-.38s-.27.09-.27.09l.16.68.27.96.17,1.02.03.21-.05.36-.04.29-.24.19-.27.2-.18.08-.96.33-.95.17-1.83.61-.95.27-.92.29-1.85.52-.86.3.13.34.2.29.38.08.94-.2.94-.33,1.88-.53.92-.29.93-.26.94-.33.92-.29.98-.18.91-.32.27-.2.02-.35-.15-.97-.26-.93-.24-.97Zm-9.19-7.57l-.05-.08-.08-.07v.16s.06.17.06.17v.12s.05.05.05.05l.16-.08.08-.12-.07-.14-.15-.02Zm.17-3.99l.02-.13-.06-.11h-.03s-.05.05-.05.05l-.06.11.04.15.04.02v.03s.01.12.01.12l.11.06.06-.11-.09-.1.02-.04-.02-.06Zm-.08,1.6l-.05.02.04.15h.09s.05-.04.05-.04l.04-.07-.1-.04h-.06Zm.71,3.99l-.02.13h.06s.03,0,.03,0l.05-.14-.07-.14-.05.14Zm2.58-10.78l.31.89.18,1.05.1.47-.04.29-.06.3-.22.16-.23.13-.17.11-.78.25-.5.11.07.36.39,1.06.3,1.18.95,3.36.34,1.1.35,1.13.29,1.15.25.91.25-.07.61-.14-.1-.48-.35-1.13-.34-1.1-.95-3.36-.29-1.15-.39-1.09-.2-1.14.09-.09.21-.09.77-.18.71-.29.23-.22-.02-.37-.14-.81-.32-.92-.22-.98-.34-.88-.16-.27h-.32s-.4.04-.4.04l.14.72Z"/>
        <path class="cls-2" d="m174.25,59.79l.13.15.07.14-.04.17-.12.19-.58.98-.68.82-.38.42-.35.41-.86.71-.9.57-1.01.47-.98.5-.49.23-.51.18-1.12.28-1.07.17-1.1.06-1.67-.1-1.09-.1-1.11-.29-1-.51-.98-.57-.97-.64-.83-.74-.78-.89-.68-.94-.58-1-.28-.58-.2-.51-.42-1.08-.36-1.16-.24-1.16-.09-1.14.02-1.17.24-2.27.14-.54.2-.56.3-.5.62-.93.55-.97.68-.92.79-.76.9-.66.93-.58.97-.52,1-.41,1.08-.33.94-.2.94-.11.98-.06h.97s.95.15.95.15l.98.26.9.38.86.45.25.15.05.08.26.81.13.56.1.57.22.79.26.81.24.53.22.57.17.8v.22s-.06.18-.06.18l-.14.13-.17.11-.56.22-1.43.34-.56.19-.8.19-.6.07h-.21s-.15-.02-.15-.02l-.13-.06-.14-.18-.27-.74-.1-.57-.04-.56-.24-.75-.13-.15-.11-.09-.13-.06-.16-.05-.59-.02-.45.06-.38.11-.37.14-.57.16-.56.19-.49.23-.45.28-.42.37-.38.42-.33.5-.27.49-.25.48-.17.55-.13.57-.07.59-.02.54.02.59.05.62.12.63.19.58.27.55.29.52.28.49.38.52.37.46.41.42.48.34.48.24.57.13,1.69.25h1.12s.61-.14.61-.14l.56-.19.58-.26.56-.31.54-.37.47-.42.44-.44.42-.5.35-.54.15-.11.1-.06h.12s.2.07.2.07l.58.28.75.45.56.41.54.35.77.45.5.43Zm-19.09-8.41l.04.05.04.02.06-.11-.12-.03-.2.02-.09.21.16-.08.12-.1Zm.21,4.92l-.05.04h-.03s.04.06.04.06l.04.02h.09s-.03-.08-.03-.08l-.07-.04Zm.36-3.1l-.13-.06-.17.24.06.11h.06s.07-.07.07-.07l.08-.02.05.08v.15s.06.18.06.18l-.02.13.1.04.07.23h.12s.35-.1.35-.1l-.07-.04h-.06s0-.04,0-.04l-.15-.02-.11-.06-.15-.11-.02-.18v-.16s.14-.16.14-.16l.05-.23.22-.16-.09-.1-.15-.12-.1.16-.09.09.09.1-.04.17-.15-.02Zm-.03,3.45l-.04.07.04.05.11-.03v-.07s-.03-.05-.03-.05l-.08.02Zm1.2-5.76h-.06s-.11-.08-.11-.08h-.06s-.04-.04-.04-.04l-.02.04v.07s.08.1.08.1l-.1.18-.11.13-.02.04v.03s-.14.1-.14.1l-.14.13-.08.02-.04.07.04.05h.06s.27-.06.27-.06l.24-.1.05-.02.02-.04.07.04h.06s.1-.14.1-.14l-.14-.18-.03.1v.12s-.03-.12-.03-.12l-.05-.08.05-.24.07-.05h.06s.02-.02.02-.02l-.02-.06-.04-.02Zm-.55,4.73l-.1-.04-.05.04-.02.13.05.08h.06s.07-.04.07-.04v-.07s-.02-.12-.02-.12Zm-.13-5.61l.05.08.06.11h.14s.12-.01.12-.01l-.08-.07-.09-.1-.18-.11-.05.05.02.06Zm.34,8.64l-.07.05-.03.1.11.06.08.07h.06s.02-.12.02-.12l-.12-.12-.04-.05Zm-.02-3.53l-.07.08.03.12-.02.04v.15s.13.09.13.09l.04.02.02-.04.03-.1-.09-.1-.03-.09.03-.1-.08-.07Zm.1,2.34l-.03.1.14.18.15-.1-.02-.18-.23-.19v.19Zm.28-4.65l-.07-.04-.05.02v.07s0,.06,0,.06l.2.1-.11.22v.09s.1.06.1.06l.13.15h.21s-.05-.08-.05-.08l-.11-.07-.07-.14.02-.13.13-.16.04-.17-.18.08-.2-.07Zm.19,5.18h-.06s-.09-.02-.09-.02l-.05.04-.04.07.19-.05.05-.04Zm.27-9.69l-.1-.04-.08.02-.02.04.04.05h.09s.07-.08.07-.08Zm.16.27l-.1.06h-.14s.17.18.17.18l.23-.22.03-.1-.1-.04-.08.12Zm-.15,10.76h.24s-.11-.19-.11-.19l-.12.19Zm.05.81l-.02.04.08.07.1.04-.03-.12-.1-.03h-.03Zm.25-2.97l.13-.16.09-.09-.04-.15-.2-.1-.16.05-.02.13.17.2.03.12Zm-.14,4.01l-.03.1.14.09.17-.02-.04-.15-.11-.06-.13.04Zm.19-3.4l.05-.04.11-.03.05-.04h-.06s-.11.02-.11.02l-.05.04-.05.02-.02.04v.03s.09-.02.09-.02Zm.24-10.12l-.2.12v.1s.02.09.02.09l.04-.07.03-.1.08-.02.04.02.05-.04-.05-.08Zm.13,11.75l.06-.11.02-.13-.15-.21-.15-.02-.08.15h-.03s.08.21.08.21l.11.06.05.08h.03s-.06.1-.06.1l.03.09.04.02.05-.05.02-.04v-.07s-.01-.09-.01-.09Zm-.1-.67v-.16s.06-.14.06-.14v-.12s-.08-.07-.08-.07l-.11.03-.06.08v.25s.2.14.2.14Zm-.1-8.3l-.05.02.02.06.09.1h.18s-.09-.12-.09-.12l-.13-.06Zm.32,6.59l-.08-.17-.08.02-.07.08.05.17.17.08v-.19Zm-.19-7.67l.08.07h.12s.02-.04.02-.04v-.03s-.1,0-.1,0h-.12Zm.1,11.04l-.02.04v.15s.12.06.12.06l.02-.13-.07-.14-.05.02Zm.55-1.19h-.03s-.09.1-.09.1l-.15.1-.13.07h.06s.05,0,.05,0l.1-.06.18-.18v-.03Zm-.36.92l.11.09.11-.03v-.03s0-.07,0-.07h-.12s-.11.03-.11.03Zm1.51-11.77l.07-.05-.06-.11-.05-.08-.1-.03-.13-.25-.26.14-.07.05-.09.09-.2.02-.17.11-.15.1.02.09v.1s.18-.18.18-.18l.17-.14.18-.08.13.03.1.13-.08.12.06.11.08.07.08-.12.13-.07.16-.05Zm-.79-.6h.09s.03-.1.03-.1l-.08-.17-.07-.04-.08.02-.03.1.09.1.05.08Zm.23,13.15l-.05.02v.07s0,.06,0,.06h.06s.03,0,.03,0v-.07s0-.06,0-.06l-.04-.02Zm2.29-1.91l-.3-.45-.31-.48-.25-.47-.22-.47-.17-.52-.12-.53-.05-.49v-.56s.02-.51.02-.51l.06-.52.1-.47.19-.46.23-.44.26-.45.26-.42.27-.39.35-.32.38-.2.47-.23.51-.17.54-.15.37-.14.33-.09.28-.05-.02-.06-.17-.52-.45-.03-.34.03-.33.09-.4.14-.54.15-.54.18-.41.21-.37.23-.36.29-.31.37-.26.42-.28.46-.22.47-.14.45-.13.48-.06,1.03v.54s.06.52.06.52l.09.54.17.52.22.47.55.92.35.5.32.42.36.34.26.21-.12-.22-.13-.15Zm-2.02,2.24l-.05.02v.07s.02.02.02.02l.04.05h.06s.01-.05.01-.05l-.05-.08-.04-.02Zm.11-14.35l.05-.04-.02-.09h-.06s-.05.03-.05.03l.02.09h.06Zm.07.26l-.05.05.03.12.04.02.05-.04v-.07s-.03-.05-.03-.05l-.04-.02Zm.25,13.33l-.04.07.02.06.04.02h.03s.02-.04.02-.04l-.02-.06-.04-.05Zm.46-13.72l-.04.07.02.06.08-.02v-.07s0-.06,0-.06l-.05.02Zm1.94,15.57l-.13-.15-.16-.05-.05.02-.02.04.11.09.25.05Zm1.56,5.02l.59.02.57.03,1.08.07.55-.03h.32s.36-.07.36-.07l.58-.13.54-.15.61-.24.5-.2.54-.28.96-.46.49-.26.51-.27.52-.34.5-.42.4-.36.4-.46.38-.42.35-.44.39-.49.31-.47.33-.5.17-.46v-.16s-.19-.29-.19-.29l-.4-.27-.21-.13-.03.2-.18.49-.32.53-.31.47-.39.49-.35.42-.38.42-.41.43-.42.4-.51.4-.5.33-.47.32-1.48.7-1,.5-.65.21-.57.16-.55.12-1.12.19-.63.05h-.59s-.57-.02-.57-.02l-.58-.06-.57-.03-.36-.03.17.08.56.22.53.1.52.07Zm-1.27-3.36l-.05.02-.02.04v.03s.1.13.1.13l.17.08.08-.02-.02-.09-.15-.12-.11-.06Zm.53-1.47v-.07s.01-.09.01-.09l-.04-.05-.08.02-.02.04.02.09.04.05h.06Zm.35.94l-.11.03-.02.04h-.03s.04.06.04.06h.09s.08-.02.08-.02l.05-.04-.02-.06h-.09Zm.52-.75l-.37-.05-.08.02-.04-.02-.04.07.07.04.08.07h.21s.1.14.1.14l.14.09-.07-.36Zm-.23-.6l.08-.02.02-.04v-.07s-.07-.07-.07-.07l-.07.05-.02.04.02.06.04.05Zm.86,1.71h-.12s0-.03,0-.03l-.08.02h-.09s-.03.1-.03.1l.05.08.15.02.04.02.17-.02.07-.08-.09-.1h-.06Zm-.02-1.54l-.08.02-.02.04.02.06-.02.57v.03s.05.05.05.05l.02.06-.05.05-.11.03-.08.12.1.04h.09s.06.02.06.02l.05-.02.14-.13-.06-.2-.08-.17.1-.28v-.16s-.14-.11-.14-.11Zm.53.1l-.06.11.04.05.04.02.14-.04.03-.1v-.07s-.05-.01-.05-.01l-.14.04Zm.84-.36l.13.03.06-.08-.08-.07-.11.03-.15-.02-.14.04-.1-.13-.26.14.03.12.04.02h.03s.07.23.07.23l.04.02.05.08.09.1.11-.25.2-.24Zm.14.18l-.07.05.05.17.07.04.13-.07.02-.13-.08-.07h-.12Zm.36,1.29l-.13.07-.05.14.04.05h.12s.1-.06.1-.06l.03-.1-.02-.09h-.09Zm.11-1.48l.05.18.14.09.14-.04.02-.13-.14-.09-.02-.06-.04-.05.05-.14-.13-.06-.12.1.07.14v.03s-.01.04-.01.04Zm1.59,1.67h-.12s-.04-.02-.04-.02l-.16.05-.42-.23-.05-.18.08-.15.05-.04v-.03s.02,0,.02,0l.04-.07.02-.13-.04-.15.13-.16.1-.16-.17-.08-.19.05-.07-.04v.03s-.09.18-.09.18l-.1.16.2.07v.19s-.25.07-.25.07h-.23s-.1.16-.1.16l-.07.18.09.1h.12s.08-.12.08-.12l.13-.07.08.07.08.17.13.15.04.15.19.04.09.13v.03s.04.02.04.02l.05.08.16-.05.13-.07.05-.02v-.03s.05-.02.05-.02l.13-.07.3-.27-.27-.02-.21.09Zm-1.32,0l-.08.02-.05.04.1.03h.09s.03,0,.03,0l.05-.04-.04-.05h-.09Zm.1-2.05l.32-.12-.11-.09-.05-.08-.03-.12.03-.1-.08-.07-.05.02.04.15-.09.09-.11.22v.12s.15,0,.15,0Zm.33.44h-.03s-.02.04-.02.04l-.05.02-.21.19-.04.26.04.02h.06s.16-.16.16-.16l.03-.2.05-.02v-.03s.07-.02.07-.02v-.03s.03-.07.03-.07h.03s.02-.04.02-.04h.03s.08-.15.08-.15l-.06-.11-.1-.04-.11.03.02.06-.02.04.04.15v.07Zm.11-.98l.06.11.07.14.08.07.1.04.08-.24.07-.27-.15-.02-.13.07-.2.02-.19.18.11-.03.1-.06Zm2.66-15.75l.02.09.21,1.17.21.76.23.72.26.52.22.57.26.93v.15s.04.18.04.18l-.03.32v.15s-.16.24-.16.24l-.27.2-.1.06-.29.11-.63.27-.49.14-.42.08-.58.13-.56.19-.38.11.13.37.12.22.13.06.15.02h.21s.57-.16.57-.16l.44-.09.38-.11.55-.25.61-.14.39-.08.41-.11.45-.19.17-.11.14-.13.06-.21v-.22s-.13-.66-.13-.66l-.21-.54-.24-.53-.26-.81-.23-.82-.1-.57-.12-.53-.26-.81-.19-.17-.4-.36-.35-.19Zm-2.36,16.8l.06.11h.18s.04-.06.04-.06l-.12-.09-.16.05Zm.12-.6l-.03.1h.06s.19-.04.19-.04v-.07s-.03-.05-.03-.05l-.19.05Zm.69,1.51l-.3-.04h-.23s-.06.21-.06.21l.24.22.41-.11.16-.17-.21-.1Zm-.58-1.85h.26s0-.04,0-.04h.03s-.03-.12-.03-.12l-.05.02v.03s-.19.12-.19.12Zm.22,1.2l.23.28.39-.08.05-.04h.03s.07-.09.07-.09l.08-.15-.14-.09h-.03s-.05.05-.05.05l-.11.03-.24.1-.27-.02Zm.89-1.45l-.17.02-.06.11-.33.09-.08.15-.07.08.02.06.11-.03.13-.07.23-.22.22-.06.18-.18-.19.05Zm-.22.88l-.12.1-.19-.04.17.2h.03s.39-.4.39-.4h-.23s-.05.14-.05.14Zm-.17-1.02l.15-.1v-.15s-.19-.01-.19-.01l-.06.08.05.08.06.11Zm.56,1.58h-.06s-.05,0-.05,0l-.07.05-.02.04v.07s-.04,0-.04,0l-.06.11-.09.09-.1.15.07.04.07-.05.02-.04.08-.02.05-.04.15-.1.05-.04.02-.04h.03s.06-.12.06-.12l-.02-.06-.07-.04Zm.05-1.81h.03s.02-.04.02-.04v-.03s-.1-.13-.1-.13l-.11-.06v-.03s-.04,0-.04,0v.22s.2.07.2.07Zm.46.81l.06-.21-.05-.08-.02-.09-.22-.06-.17.14.02.18v.34s.03.37.03.37l.29-.43.07-.18Zm.12.41l-.19.05-.06.11-.03.1.13.03.14-.04.07-.08.08-.15-.12-.03Zm-.13-.97l.08-.02.02-.04-.02-.06-.04-.02v-.03s-.09.02-.09.02v.1s.04.05.04.05Zm.44-.72l-.21.19.28-.05.13-.16v-.07s-.03-.05-.03-.05l-.17.14Zm-.12,1.04l-.04-.02v.03s-.01.04-.01.04v.07s.02.02.02.02h.06s.04-.06.04-.06l-.02-.06-.04-.02h-.03Zm.2.92l-.11.03-.09.09.03.12.04.02.08-.02.06-.11v-.07s.04,0,.04,0v-.03s-.04-.02-.04-.02Zm.3-2.58l-.05.04-.04.07.02.09.11-.03v-.1s.01-.07.01-.07h-.06Z"/>
        <path class="cls-2" d="m178.94,62.12l-.85.21-.63.05-.23.03h-.14s-.14-.08-.14-.08l-.1-.16-.24-.53-.17-.8-.29-1.15-.19-.77-.07-.58-.03-.21.04-.17.05-.14.15-.1.4-.14h.62s.37-.12.37-.12l.15-.1.08-.12v-.16s.01-.22.01-.22l-.1-.66-.22-.88-.39-1.28-.33-.85-.39-1.28-.61-2.16-.19-.89-.34-1.29-.19-.89-.24-.63-.11-.19-.12-.09-.16-.05h-.18s-.4.04-.4.04l-.53.21-.4.05-.17.02-.13-.06-.08-.07-.08-.17-.24-.53-.3-.74-.31-1.11-.16-.78-.07-.58-.03-.21v-.19s.05-.14.05-.14l.17-.11.58-.23.89-.06.62-.11,1.44-.41.63-.15.99-.34.39-.17,1.63-.49,1.04-.29,1.04-.26.41-.11,1.21-.31.44-.09,1.02-.25,1.03-.32,1.04-.29.58-.23.81-.36.62-.11h.18s.11.11.11.11l.1.13.51,1.18.46,1.64.26.81.46,1.64.15,1.06v.22s.02.18.02.18l-.08.15-.15.1-.47.23-.73.14-.53.12-.49.14-.69.16-.71.07-.13-.06-.11-.06-.1-.16-.19-.36-.07-.55-.08-.39-.08-.29-.07-.14-.1-.04-.73.14-.98.4-.69.26-1.73.43-.7.23-.18.08-.08.15-.05.14.02.18.2.7.24.94.27.65.11.19.09.13.13.03h.21s.57-.06.57-.06l.41-.12.37-.14.57-.16.56-.19.37-.14.39-.08.8-.1h.18s.13.07.13.07l.1.16.24.53.13.78.14.59.18.55.24.75.1.57v.22s-.15.3-.15.3l-.17.11-.5.2-.77.09-.56.09-.51.17-.34.16-.88.31-.29.11-.2.22-.12.29.03.31.2.61.15.43.17.39.17.61.07.14.06.11.11.06h.12s.73-.24.73-.24l.96-.33,1.96-.55.53-.12.71-.2h.14s.12-.01.12-.01l.08-.02.06-.11-.05-.49-.13-.34-.15-.34-.06-.52v-.19s.03-.13.03-.13l.12-.1.18-.08.48-.17.67-.22.52-.15.82-.32.35-.13.54-.09h.21s.17.08.17.08l.12.12.11.19.23.6.08.89.13.66.2.61.28.8.18.64.23.6.29.83.12.63v.22s-.04.17-.04.17l-.11.13-.17.11-.58.26-.44.12-.44.09-.63.15-4.8,1.35-.9.16-.61.14-.62.21-.82.32-.63.18-1.48.39-1.25.35-.85.21-1.25.38Zm-5.74-19.67l-.04-.02-.11.03v.03s.05.05.05.05h.06s.04-.06.04-.06v-.03Zm.56.32l-.1-.26-.16-.05-.05.02v.07s.1.09.1.09l.21.13Zm.31.07l.04.02.08-.02v-.07s0-.03,0-.03l-.04-.05-.07.05v.07s0,.03,0,.03Zm.18.64l.07.14.13-.16-.05-.18-.11.03-.04.17Zm.04-1.11l.05-.02.02-.04-.02-.09h-.03s-.05.05-.05.05l.03.09Zm.09.32l.1.16.13.03.08-.12.16-.27.19-.27-.35.1-.27.17-.03.2Zm.97.61l-.23-.09-.22-.03-.14-.09h-.21s.15.11.15.11l.08.07.08-.02.23.19.26-.13Zm-.72.36l.07.14.08-.02.03-.1.02-.13-.15-.02-.05.14Zm.01-2.15l.09.1h.09s.06-.1.06-.1l-.02-.06h-.06s-.08,0-.08,0l-.07.05Zm.08.51l.12.09.08-.02.07-.05-.03-.12-.11-.06h-.09s-.07.05-.07.05l.03.12Zm.75.58h-.44s.13.15.13.15l.17-.11.07.14.06.11v-.29Zm-.11,1.17l.17-.02-.12-.12h-.12s-.07.05-.07.05l.02.06.12.03Zm0-1.64h.06s.07-.04.07-.04l.16-.08.15-.1-.04-.02v-.03s-.18.02-.18.02h-.14s-.08.03-.08.03l-.04.07.04.15Zm.07.26l.12.03.2.07.16.14-.04-.34-.28-.14-.05.02-.13.07v.15Zm.47,1.66l.07-.08.04-.07.05-.04-.02-.06.02-.04-.02-.06-.05.02-.05.04-.02.04-.02.13-.03.1-.1.19v-.07s.03-.04.03-.04l.02-.13v-.03s.01-.04.01-.04l-.05-.17v-.1s-.16.17-.16.17l-.15.2.08.07.1.04.11.06.02.06v.03s0-.03,0-.03l.04-.07.05-.04.04-.07Zm-.2-.7l-.08.02-.05.05.02.06h.06s.09.02.09.02l.05-.04-.02-.06-.07-.04Zm.24-1.45l.17.2.21.13.1-.06.07-.05v-.15s-.06-.18-.06-.18l-.22-.06-.04-.02h-.03s0-.02,0-.02h-.06s-.04-.04-.04-.04l-.16.08.05.17Zm.03,1.16h.03s.04.04.04.04v-.1s.01-.07.01-.07l-.04-.02-.04-.05h-.03s-.05.05-.05.05l.03.12.04.02Zm.05.27l-.02.04-.02.13v.03s-.01.04-.01.04l.04.02h.03s.05-.05.05-.05l.03-.1.02-.04.05-.04.08-.02.1-.06.11-.03.09-.09.11-.13v-.03s-.04-.02-.04-.02l-.07.05-.11.03-.13.16-.19.05-.05.04-.05.02Zm.38.71l.08-.02.07-.05.05-.02.09-.09h-.12s-.11.03-.11.03h-.06s-.09-.02-.09-.02v-.03s-.03,0-.03,0l-.05.04h-.03s.02.07.02.07l-.02.04v.07s-.07.02-.07.02l-.04.04-.02.04h-.03s.06.02.06.02l.11.09.09-.09-.02-.09.05-.02.05-.04Zm-.24-1.07l.07.04.05.08.09-.09.1-.06.15-.1-.04-.05-.02-.06.13-.16h.06s-.08.13-.08.13l-.04.17.17.08.13.06.05-.14.15.02.04.15v.16s.25.11.25.11l.07-.08v-.1s-.1-.03-.1-.03l-.02-.06.04-.07.11-.03.02.06.12.03.07-.08-.03-.12.11-.03v-.13s.12-.07.12-.07l.1-.06-.09-.23-.16-.24-.06.21.04.15-.05.14-.02.13-.02.04-.04-.05h-.06s-.03,0-.03,0l-.07.08.02.06-.11.03-.2-.1h-.23s-.19-.16-.19-.16l.12.03.17.08.05-.02h.12s.06.01.06.01l.05-.02.1-.18-.04-.15-.16.07-.15-.02.02-.04-.02-.06.04-.07.03-.1v-.07s.01-.09.01-.09l.08-.15-.21-.1v-.07s.01-.1.01-.1v-.07s.01-.09.01-.09l-.58-.06h-.18s-.22.05-.22.05l.08.07.04.02v.03s.04,0,.04,0l.04.05.28.05.32.19.08.07.04.05.04.02-.07.18-.1.16-.16.07-.15.1-.17.24-.16.08-.14.04.05.18Zm.28.49l.02-.13v-.03s-.06.02-.06.02l-.04.07-.05.04v.06s-.09.15-.09.15l-.09.09-.02.04v.07s.04-.04.04-.04l.05-.02v-.07s.1-.09.1-.09l.02-.04.11-.13Zm.02.28l.11-.03.07-.05.02-.04-.02-.06-.04-.02-.05.02-.04.07-.05.04v.07Zm.29.42h-.09s-.08.02-.08.02l.02.06.05.08.12.03.02-.04v-.07s-.04-.08-.04-.08Zm.02,1.22l-.11.03-.05.05.04.05h.09s.04-.07.04-.07l-.02-.06Zm.85-.93l-.16-.05-.31.15h-.12s-.14.01-.14.01l-.16.05-.05.14.05.08.6-.17.04-.07.07-.05.09.1.15.02-.06-.2Zm-.07.49l-.28.14.05.3.05.08h.06s.04-.16.04-.16l-.04-.15.09-.09.02-.13Zm.01,15.73l-.11-.09h-.12s-.02.04-.02.04v.03s.11.07.11.07l.14-.04Zm-.12-14.66l.06-.11-.04-.02-.14.04v.07s.06.04.06.04l.05-.02Zm.03-3.13v-.07s.19-.08.19-.08l.02.06v.03s-.02,0-.02,0l-.12.1h-.03s-.04-.04-.04-.04Zm.1-.47l.04.05.02-.13v-.12s-.02-.06-.02-.06l-.04-.02-.06.11.05.17Zm.1-.78l.08.07.07-.05.04.02.16-.05.08-.15v-.03s-.13,0-.13,0l-.07.08-.08.02h-.12s-.04.08-.04.08Zm.18,5.03l.04.02h.03s.02-.14.02-.14l-.1-.13-.05.14.06.11Zm.41-2.32l-.06-.11-.1-.04-.06.08v.12s.07.11.07.11h.09s.07-.07.07-.07v-.1Zm-.08.87l-.04-.05h-.06s-.02.02-.02.02v.03s.06.08.06.08l.05-.02.02-.04v-.03Zm.26-1.59l-.1.06-.08.02-.1-.03-.05.02.02.09h.09s.14,0,.14,0l.08-.15Zm-.21-1.9l-.07.05-.03.1.08.07h.09s.07-.05.07-.05v-.09s-.05-.08-.05-.08h-.09Zm.37-.89l.11.06.05.27.25-.04.19-.05.22.04.41-.12.12-.19-.19.05-.16.08-.18.08-.23.03-.09-.1-.07-.14.13-.07-.04-.15-.08-.07-.07.05-.16.05-.16-.05-.11.03.07.23Zm0,19.2l.11.09.1-.06.02-.13.05-.04.07-.05-.13-.06-.13.07h-.03s-.07-.04-.07-.04l-.04.07.04.15Zm17.58-2.74l.15.43.12.63v.22s-.04.17-.04.17l-.11.13-.17.11-.57.26-.44.12-.44.09-.64.15-4.79,1.35-.45.06-1.05.23-.62.21-.82.33-1.69.48-1.67.44-.85.21-.63.18-.62.21-.41.11-1.3.18h-.14s-.14-.08-.14-.08l-.1-.16-.17-.39.54-.15.59-.2,1.04-.26,1.66-.47.45-.09,1.69-.48.85-.33.59-.2,1-.22.45-.06,5.46-1.5.47-.1.52-.15.63-.27.22-.16.17-.14.1-.16.08-.12.05-.14.04-.17v-.19s-.02-.31-.02-.31l-.09-.64-.18-.55-.18-.42-.36-1.19-.3-.86-.18-.55-.09-.54-.03-.43v-.12s.38-.08.38-.08h.21s.17.08.17.08l.12.12.11.19.23.6.08.89.13.66.2.61.28.8.18.64.23.6.14.4Zm-17.44-13.19v-.07s.03-.04.03-.04h-.14s.06.12.06.12l.1.16h.24s-.17-.08-.17-.08l-.11-.09Zm.08,14.7h-.06s-.03,0-.03,0v.07s0,.03,0,.03h.06s.05,0,.05,0v-.07s-.02-.02-.02-.02Zm.11-13.62l-.05.04-.03.1v.03s.04.02.04.02l.08-.02.04-.07-.02-.09h-.06Zm-.04-1.82l.14-.04h.12s.11.09.11.09l-.03-.21h-.18s-.12-.01-.12-.01l-.07.05.03.12Zm.03-.61l.08.07.02-.04v-.03s0-.09,0-.09l-.08.02v.07Zm.26.94l-.08-.07h-.09s.03.11.03.11l.1.04h.03s.01-.07.01-.07Zm.59-2.09l-.23.03.05.08.1.03v.03s-.09-.04-.09-.04l-.08.02v-.03s-.07-.01-.07-.01l-.02-.06-.08-.07-.02-.09.04-.07-.04-.02h-.06s-.07.07-.07.07l-.1.06-.07.05.09.1.11-.03.13.15.03.21.07.04.05.17.02.18v.1s.04.05.04.05h.06s.01-.05.01-.05l.07-.27.04-.27-.03-.12.07-.05.02-.04-.05-.17Zm-.55.85l.04.05.06-.08-.02-.09h-.06s-.05.03-.05.03v.07s.02.02.02.02Zm.05-1.91h.12s.09-.09.09-.09l.1-.06.11-.03-.08-.07-.06-.11-.07-.04.03-.1h-.18s-.13.06-.13.06v.1s.07.04.07.04l-.06.11.06.21Zm0-.31l.04-.07.14-.04.04.02-.04.07-.17.02Zm.39,3.36l.06-.21-.22-.16.04.24.06.21.05-.02v-.07Zm.22.25l-.07-.04-.05.02.06.11.1.04-.03-.12Zm.27-2.6l-.17.02-.2.24h.18s.12.01.12.01l.15-.11-.08-.17Zm-.28,16.38h-.06s.04,0,.04,0h.03Zm.31-17.3l.09.1h.12s0-.1,0-.1l-.06-.11v-.07s-.03-.05-.03-.05l-.1.06v.16Zm.41.83l-.07-.14-.07.18.14.09v-.12Zm.13,1.92l-.15-.12v.15s.08.14.08.14l.04.02.05-.04v-.15Zm.24-2.81l.09.1.19.04.16-.17-.13-.06-.11-.07-.12-.03-.07.08v.1Zm4.05,3.43l.03.31.2.61-.32.12-.74.18-.5.11-.49.14-.7.23-.18.08-.08.15-.05.14.02.18.16.56-.44.12-.4.05-.2-.51-.21-.85-.14-.5.93-.26.5-.11.74-.18.77-.28.49-.23.43-.15h.15s.03.11.03.11Zm-3.57-1.3l-.02.23v.07s.03.05.03.05h.06s.05,0,.05,0l.02-.26.22.06.08-.02.06-.11.06-.21-.03-.21-.06.11-.03.1-.11.13h-.12s-.18-.11-.18-.11l-.2.02.16.14Zm-.08.65l.11.07.05-.14h-.12s-.03.01-.03.01v.06Zm.39,12.47l.02-.13-.13-.03-.07.05v.15s.07.11.07.11l.06-.08.04-.07Zm-.16-15.12l.12.12-.02.04.22-.06.17-.14.14.09.14-.04.04-.07-.14-.09-.19.05-.22-.16-.23.13-.02.13Zm.1.48l.17.17.02-.26-.18.08Zm.49,17.2l.04.02h.06s.02-.02.02-.02v-.07s-.03-.05-.03-.05h-.03s-.05.05-.05.05v.07Zm.19-18.02l.11-.13.02-.26-.04-.15h-.12s-.04.07-.04.07l.03.12v.19s.04.15.04.15Zm.08,15.96l.14.09-.03-.12-.05-.08.07-.08-.05-.08h-.05s-.03.12-.03.12v.16Zm.07-15.31l-.07.05.05.08.1.04.07-.08.1-.06v-.07s-.12-.06-.12-.06l-.12.1Zm.08,18.07l-.04.07.07.04.05-.02-.02-.06-.07-.04Zm.36.65l-.3-.04-.05.04v.07s.12.06.12.06l.14-.04h.06s.03-.09.03-.09Zm-.16-18.34l-.1-.04-.1.06.02.09.11-.03.07-.08Zm.14,17.43l-.16-.05-.16.05v.03s.05.05.05.05l.15.02.12-.1Zm-.07.49l-.04-.05-.04-.02-.05.04v.07s.03.02.03.02h.06s.04-.06.04-.06Zm-.01-1.19h.03s.02-.04.02-.04l-.03-.12-.05.02.04.15Zm.4.49l-.1-.04-.11.03-.07.08.03.09.11.07.1-.06.07-.05-.03-.12Zm-.2-17.98l.1-.06.03-.1v-.03s-.04-.02-.04-.02l-.06.11-.03.1Zm5.08,8.03l.27,1.37.18.55.13.37.05.17-.25.07-.38.2-.23.22-.12.32-.03.42.06.43h-.12s-.37.04-.37.04l-.56.1-.51.17-.35.1-.36.07-.54.18-.33.09-.25.16-.12.19.02.28.14.4-.43.15-.29.11-.09-.32-.19-.45-.16-.36-.16-.56.21-.09.51-.17.68-.29.46-.16.48-.07.34-.03.42-.06.14-.04.49-.23.28-.14.1-.06.17-.24.11-.22.09-.4-.03-.31-.1-.67-.42-1.3-.11-.5-.03-.21.32-.03.2-.02h.18s.13.07.13.07l.1.16.24.53Zm-4.8-7.76h-.12s-.05.05-.05.05l.04.05.11.06.1-.06-.09-.1Zm.04,18.24h-.06s-.08,0-.08,0l-.02.04.02.06.04.02.05-.02.05-.04v-.07Zm-.05-1.12v.12s.09.1.09.1h.03s.05-.05.05-.05l-.06-.11-.11-.07Zm.32-16.33l-.1.06v.16s.04.08.04.08l.13-.07.07-.18-.13-.06Zm.28,16.35l.08-.02.06-.11-.07-.14-.05.14-.02.13Zm.16-.8l.04.02.05-.04v-.1s-.02,0-.02,0l-.04-.02-.05.04.02.09Zm.05-16.98l.04.02h.06s.02-.02.02-.02l-.03-.09h-.06s-.05.03-.05.03l.02.06Zm.02-.86h.06s.04-.06.04-.06l-.04-.05-.04-.02-.05.02.03.12Zm.25,19.82v.15s.07.08.07.08l.07-.05.04-.07v-.12s-.11-.06-.11-.06l-.07.08Zm.08-1.06l-.02.04.04.05h.14s.1-.16.1-.16l-.15-.02-.12.1Zm.02-18.01l.04.05.11-.03.02-.04-.04-.05h-.09s-.03,0-.03,0v.07Zm.14,17.65l.24.12.13-.16.05-.04-.02-.06-.19.05-.21.09Zm.27,1.16l-.04-.02h-.06s-.03.09-.03.09l.03.12.1-.06v-.12Zm.35-1.17l.1.04.08-.02-.08-.07h-.12s.02.06.02.06Zm.74-.18l.05.08h.06s.07-.04.07-.04v-.1s-.08-.07-.08-.07l-.05-.08-.06.11v.1Zm.22,1.1l.04.05.11-.03.05-.04-.04-.05h-.06s-.08,0-.08,0v.07Zm.01-2.46l.04.02h.06s.04-.06.04-.06l-.04-.05h-.06s-.02.02-.02.02v.07Zm.15,1.69l.09.1.16-.05.05-.04.04-.07-.07-.04-.22.06-.05.04Zm.7.62l-.14.04-.11-.06-.08.02.03.12.15.02.07-.05.07-.08Zm-.13-.47l.1.04.05-.02.07-.05.03-.1h-.06s-.07-.06-.07-.06l-.09.09-.03.1Zm.4.39l-.04-.05-.05.02-.02.04-.05.04.12.03.04-.07Zm.14-3.16l.12.03.02-.04-.04-.05h-.06s-.04.06-.04.06Zm.14.81l.12.09.06.11.03.12.07-.08.1-.06.06-.11-.03-.12-.18-.11-.19.05-.03.1Zm.05,1.66l.11-.03v-.12s-.11-.07-.11-.07l-.05.04.05.18Zm2.76-12.98l.29-.24.08-.15v-.19s0-.31,0-.31l-.04-.24-.05-.27-.15-1.06-.3-1.05-.32-1.04-.56-1.99.39-.08h.18s.11.11.11.11l.1.13.51,1.18.46,1.64.43,1.42.17.61.18.86.06.52v.22s.03.18.03.18l-.08.15-.15.1-.47.23-1.72.48-.69.16-.71.07-.13-.06-.11-.06-.1-.16-.2-.39.68-.19,1.22-.25.6-.26.27-.08Zm-2.76,11.94l.1.13.17.08.02-.13-.06-.11-.12-.03-.1.06Zm.47-.95l.08-.12.03-.1h-.06s-.03,0-.03,0l-.06.08.04.15Zm.54,2.65l-.09-.1-.25.07-.16-.05.13.25h.24s.03,0,.03,0l.02-.04.08-.12Zm-.43-2.59l-.03.1.05.08.04.02.02-.04v-.1s-.08-.07-.08-.07Zm.41,1.68l-.14-.09-.17-.08-.07-.04-.05.02v.09s.07.04.07.04l.02.09v.19s.13.06.13.06h.12s.06-.11.06-.11l.07-.05-.03-.12Zm-.36-.56l-.04.07-.03.1.07.04h.06s.16-.03.16-.03l.18-.08-.31-.07-.04-.05-.05.02Zm.1-1.42l.04.02.05-.04v-.07s0-.06,0-.06h-.03s-.07.06-.07.06l.02.09Zm.19,2.44h-.06s-.04-.04-.04-.04l-.08.02v.1s.04.05.04.05l.05-.02.05-.04.04-.07Zm.49.27l-.08-.07-.03-.09v-.12s-.08-.04-.08-.04l-.07.08.05.08-.02.04.05.17.11.06.08-.02-.02-.09Zm-.14-2.26l.1.04h.06s.08,0,.08,0h.12s.03.11.03.11v.07s.01.09.01.09l.05-.02.02-.04.15-.1.05-.02v-.12s.02-.13.02-.13l-.04-.15-.15-.02-.25.07-.2.12-.06.11Zm.15-.61l.2-.03.18-.08.13.03.16-.08-.13-.03-.1-.04-.02.04-.05.02-.21-.03-.15.2Zm.97,2.09l-.11-.09-.2-.07-.16-.05v.16s.13.21.13.21l.23-.03.11-.12Zm-.04-1.6l-.02-.06h-.09s-.06.1-.06.1l.16-.05Zm-.13-.37l.04.05h.06s.05,0,.05,0v-.07s-.06-.04-.06-.04h-.06s-.05,0-.05,0l.02.06Zm.43.89l-.05-.08-.12-.03-.1-.16-.04.17.06.11v.03s0,.1,0,.1l.07.04.1-.06.08-.12Zm.18,1.27l-.07-.14-.09-.1-.1.06-.04.17v.15s.12.06.12.06l.16-.08.02-.13Zm-.07-1.08l.07.04.05-.04v-.07s-.02-.02-.02-.02l-.05.02v.03s-.04.04-.04.04Zm.48-.29l.13.15v-.19s.02-.16.02-.16l.05-.04.07-.08h-.18s-.07.16-.07.16v.16Zm.39-1.12h.03s.04.01.04.01h.03s.05-.05.05-.05l.04-.07-.03-.12-.07.08-.08.15Zm.24.03l-.05.04v.12s.12,0,.12,0l.11.07-.03-.09v-.07s-.05-.01-.05-.01l-.07-.04.02-.04-.05.02Z"/>
      </g>
    </g>
  </g>
</svg>