<?xml version="1.0" encoding="UTF-8"?>
<svg id="Layer_2" data-name="Layer 2" xmlns="http://www.w3.org/2000/svg" viewBox="0 0 216.46 123.73">
  <defs>
    <style>
      .cls-1 {
        fill: #dec698;
      }

      .cls-2 {
        fill: #decaa4;
      }

      .cls-3 {
        fill: #704f2a;
      }

      .cls-4, .cls-5, .cls-6 {
        fill: #523333;
      }

      .cls-5, .cls-6 {
        font-family: BebasNeue-Regular, 'Bebas Neue';
        font-size: 36px;
      }

      .cls-5, .cls-6, .cls-7 {
        isolation: isolate;
      }

      .cls-6 {
        letter-spacing: -.02em;
      }
    </style>
  </defs>
  <g id="Livello_2" data-name="Livello 2">
    <g>
      <g>
        <path class="cls-1" d="m189.9,14.32c-20.79-3.45-68.33-.89-81.68-14.32-13.35,13.44-60.88,10.87-81.68,14.32C5.76,17.78,9.6,61.87,0,61.87c9.6,0,5.76,44.09,26.55,47.54,20.79,3.45,68.33.89,81.68,14.32,13.35-13.44,60.88-10.87,81.68-14.32,20.79-3.45,16.95-47.54,26.55-47.54-9.6,0-5.76-44.09-26.55-47.54h-.01Z"/>
        <path class="cls-2" d="m123.53,14.57l-15.55,44.66,8.88-46.56c2.11.72,4.34,1.35,6.67,1.9Z"/>
        <path class="cls-2" d="m136.72,16.91l-28.74,42.32,21.04-43.52c2.49.47,5.07.86,7.7,1.2Z"/>
        <path class="cls-2" d="m155.01,18.62l-47.03,40.61,35.84-41.51c3.69.36,7.44.65,11.19.9Z"/>
        <path class="cls-2" d="m187.07,20.98l-79.09,38.25,58.72-39.9c7.7.44,14.95.89,20.37,1.65Z"/>
        <path class="cls-2" d="m200.69,41.53l-92.71,17.7,88.39-30.77c1.83,3.71,3.18,8.41,4.32,13.07Z"/>
        <path class="cls-2" d="m206.45,61.87c-.68,1.35-1.27,2.84-1.79,4.44l-96.68-7.08,95.21-6.98c.89,3.57,1.89,6.9,3.26,9.62Z"/>
        <path class="cls-2" d="m201.87,77.15c-1,4.43-2.12,9.25-3.6,13.5l-90.29-31.42,93.89,17.92Z"/>
        <path class="cls-2" d="m192.91,100.3c-1.22,1.17-2.59,1.95-4.16,2.21-3.96.66-9.15,1.09-14.9,1.47l-65.87-44.75,84.93,41.07Z"/>
        <path class="cls-2" d="m160.72,104.76c-4.19.26-8.45.53-12.66.88l-40.08-46.41s52.74,45.53,52.74,45.53Z"/>
        <path class="cls-2" d="m140.04,106.42c-2.95.34-5.85.73-8.66,1.2l-23.4-48.39,32.06,47.19Z"/>
        <path class="cls-2" d="m125.23,108.78c-2.59.57-5.07,1.22-7.41,1.98l-9.84-51.53s17.25,49.55,17.25,49.55Z"/>
        <path class="cls-2" d="m111.92,113.02c-1.31.6-2.55,1.25-3.7,1.95-1.29-.78-2.69-1.5-4.17-2.16l3.93-53.58s3.94,53.79,3.94,53.79Z"/>
        <path class="cls-2" d="m107.98,59.23l-9.81,51.38c-2.34-.74-4.82-1.37-7.41-1.92,0,0,17.22-49.46,17.22-49.46Z"/>
        <path class="cls-2" d="m107.98,59.23l-23.37,48.31c-2.81-.45-5.71-.84-8.66-1.17,0,0,32.03-47.14,32.03-47.14Z"/>
        <path class="cls-2" d="m107.98,59.23l-40.05,46.38c-4.22-.35-8.48-.62-12.67-.87,0,0,52.72-45.51,52.72-45.51Z"/>
        <path class="cls-2" d="m107.98,59.23l-65.83,44.72c-5.58-.37-10.61-.8-14.46-1.44-1.64-.27-3.06-1.11-4.32-2.36,0,0,84.61-40.92,84.61-40.92Z"/>
        <path class="cls-2" d="m107.98,59.23l-89.86,31.27c-1.47-4.24-2.57-9.04-3.57-13.44,0,0,93.43-17.83,93.43-17.83Z"/>
        <path class="cls-2" d="m107.98,59.23l-96.21,7.05c-.52-1.59-1.1-3.07-1.77-4.41,1.36-2.71,2.35-6.03,3.24-9.58l94.74,6.94Z"/>
        <path class="cls-2" d="m107.98,59.23L15.73,41.61c1.13-4.63,2.47-9.29,4.27-13,0,0,87.98,30.62,87.98,30.62Z"/>
        <path class="cls-2" d="m107.98,59.23L29,21.03c5.35-.78,12.58-1.23,20.29-1.68,0,0,58.69,39.88,58.69,39.88Z"/>
        <path class="cls-2" d="m107.98,59.23L60.98,18.65c3.74-.25,7.49-.54,11.18-.89,0,0,35.82,41.47,35.82,41.47Z"/>
        <path class="cls-2" d="m107.98,59.23l-28.71-42.26c2.63-.33,5.21-.72,7.71-1.18l21,43.44Z"/>
        <path class="cls-2" d="m107.98,59.23l-15.51-44.56c2.32-.54,4.54-1.15,6.64-1.85,0,0,8.87,46.41,8.87,46.41Z"/>
        <path class="cls-2" d="m111.55,10.54l-3.57,48.69-3.55-48.47c1.34-.61,2.61-1.27,3.79-1.99,1.05.63,2.16,1.23,3.33,1.77Z"/>
        <path class="cls-3" d="m108.23,119.76l-.58-.41c-11.66-8.25-35.74-9.65-56.99-10.88-9.06-.53-17.61-1.02-23.61-2.02-10.3-1.71-13.72-16.79-16.48-28.9-1.43-6.31-2.67-11.76-4.8-15.15l-.33-.53.33-.53c2.13-3.39,3.37-8.84,4.8-15.14,2.75-12.12,6.18-27.2,16.48-28.91,6-1,14.55-1.49,23.6-2.02,21.26-1.24,45.35-2.64,57-10.88l.58-.41.58.41c11.66,8.25,35.75,9.65,57,10.88,9.06.53,17.61,1.02,23.61,2.02,10.3,1.71,13.72,16.79,16.48,28.9,1.43,6.31,2.67,11.76,4.8,15.15l.33.53-.33.53c-2.13,3.39-3.37,8.84-4.8,15.15-2.75,12.12-6.18,27.2-16.48,28.91-6,1-14.55,1.49-23.61,2.02-21.25,1.24-45.34,2.63-57,10.88l-.58.41h0ZM7.78,61.87c2.11,3.68,3.33,9.05,4.74,15.23,2.62,11.54,5.88,25.89,14.85,27.38,5.89.98,14.4,1.47,23.4,2,21.19,1.23,45.15,2.62,57.46,10.85,12.31-8.22,36.27-9.62,57.46-10.85,9-.52,17.51-1.02,23.4-2,8.97-1.49,12.23-15.84,14.85-27.37,1.4-6.18,2.62-11.56,4.74-15.24-2.11-3.68-3.33-9.05-4.74-15.23-2.62-11.54-5.88-25.89-14.85-27.38-5.89-.98-14.39-1.47-23.39-2-21.19-1.23-45.16-2.62-57.47-10.85-12.31,8.22-36.27,9.62-57.46,10.85-9.01.52-17.51,1.02-23.4,2-8.97,1.49-12.23,15.84-14.85,27.37-1.4,6.18-2.62,11.56-4.74,15.24Z"/>
      </g>
      <g>
        <g class="cls-7">
          <text class="cls-5" transform="translate(57.65 96.23)"><tspan x="0" y="0">bi</tspan></text>
          <text class="cls-5" transform="translate(79.11 96.23)"><tspan x="0" y="0">c</tspan></text>
          <text class="cls-6" transform="translate(92.57 96.23)"><tspan x="0" y="0">y</tspan></text>
          <text class="cls-5" transform="translate(106.11 96.23)"><tspan x="0" y="0">cl</tspan></text>
          <text class="cls-5" transform="translate(132.28 96.23)"><tspan x="0" y="0">e</tspan></text>
          <text class="cls-5" transform="translate(145.42 96.23)"><tspan x="0" y="0">s</tspan></text>
        </g>
        <path class="cls-4" d="m113.33,20.3c-.52,0-.99.32-1.19.8-.19.49-.08,1.04.3,1.4.64.64,1.43,1.28,2.62,1.48.96.17,2.71.15,4.85.15.04.34.09.66.17,1.14.17,1.01.44,2.43.76,4.02h-22.07l-1.91-3.83c.08,0,.15-.02.23-.02,3.33,0,4.74-.9,4.74-1.8,0-.77-.64-.77-1.67-.64h-8.19c-1.41,0-1.66.65-1.66,1.8,0,2.94,1.73,1.99,3.98,1.22l2.27,4.55-2.99,5.97c-1.41-.54-2.94-.85-4.54-.85-7.06,0-12.8,5.75-12.8,12.81s5.74,12.81,12.8,12.81c6.62,0,12.09-5.07,12.73-11.53h5.3s.08,0,.12-.02c.03,0,.03,0,.01,0-.03.01.07-.02.11-.03.03,0,.03,0,.01,0-.03,0,.07-.02.11-.04h.01s.07-.03.11-.06h0s.07-.03.1-.06h0s.06-.05.1-.08h0s.02-.02.03-.04c.02,0,.04-.03.06-.05.01,0,.02-.02.03-.03s.01-.02.02-.03l13.8-16.11c.25,1.08.53,2.23.85,3.43-4.65,1.93-7.94,6.5-7.94,11.84,0,7.06,5.74,12.81,12.8,12.81s12.8-5.75,12.8-12.81-5.74-12.81-12.8-12.81c-.83,0-1.62.09-2.41.24-.53-2.08-1.01-4.03-1.37-5.69-.49-2.27-.83-4.11-1.04-5.39-.11-.65-.19-1.16-.24-1.51-.02-.18-.04-.32-.05-.41,0-.09,0-.24,0-.05,0-.71-.58-1.28-1.28-1.28-3.2,0-4.81-.02-5.55-.14-.74-.13-.58-.13-1.22-.77-.24-.25-.57-.39-.92-.39h.02Zm-13.27,11.54h19.47l-12.3,14.36-7.17-14.36Zm-2.07,1.58l6.89,13.79h-3.11c-.4-4.01-2.66-7.47-5.9-9.53l2.12-4.26Zm-8.96,4.82c1.19,0,2.33.22,3.39.59l-4.54,9.09c-.2.4-.18.87.06,1.25.23.38.64.61,1.09.61h10.15c-.63,5.06-4.92,8.97-10.15,8.97-5.67,0-10.24-4.57-10.24-10.25s4.57-10.25,10.24-10.25h0Zm38.4,0c5.67,0,10.24,4.57,10.24,10.25s-4.57,10.25-10.24,10.25-10.24-4.57-10.24-10.25c0-4.17,2.47-7.74,6.03-9.34.82,3,1.81,6.27,3,9.76.13.45.5.79.97.89.46.09.93-.07,1.23-.43.31-.36.39-.85.22-1.29-1.18-3.45-2.16-6.71-2.97-9.67.58-.1,1.16-.16,1.76-.16h0Zm-32.71,1.72c2.41,1.61,4.09,4.22,4.47,7.25h-8.09s3.62-7.25,3.62-7.25Z"/>
      </g>
    </g>
  </g>
</svg>