<?xml version="1.0" encoding="UTF-8"?>
<svg id="Layer_2" data-name="Layer 2" xmlns="http://www.w3.org/2000/svg" viewBox="0 0 216.46 123.73">
  <defs>
    <style>
      .cls-1 {
        fill: #dec698;
      }

      .cls-2 {
        fill: #decaa4;
      }

      .cls-3 {
        fill: #704f2a;
      }

      .cls-4 {
        fill: #4c3636;
      }

      .cls-5, .cls-6 {
        fill: #523333;
        font-family: BebasNeue-Regular, 'Bebas Neue';
        font-size: 36px;
      }

      .cls-5, .cls-6, .cls-7 {
        isolation: isolate;
      }

      .cls-6 {
        letter-spacing: -.05em;
      }
    </style>
  </defs>
  <g id="Livello_2" data-name="Livello 2">
    <g id="OBJECTS">
      <g>
        <g>
          <path class="cls-1" d="m189.9,14.32c-20.79-3.45-68.33-.89-81.68-14.32-13.35,13.44-60.88,10.87-81.68,14.32C5.76,17.78,9.6,61.87,0,61.87c9.6,0,5.76,44.09,26.55,47.54,20.79,3.45,68.33.89,81.68,14.32,13.35-13.44,60.88-10.87,81.68-14.32,20.79-3.45,16.95-47.54,26.55-47.54-9.6,0-5.76-44.09-26.55-47.54h-.01Z"/>
          <g>
            <path class="cls-2" d="m123.53,14.57l-15.55,44.66,8.88-46.56c2.11.72,4.34,1.35,6.67,1.9Z"/>
            <path class="cls-2" d="m136.72,16.91l-28.74,42.32,21.04-43.52c2.49.47,5.07.86,7.7,1.2Z"/>
            <path class="cls-2" d="m155.01,18.62l-47.03,40.61,35.84-41.51c3.69.36,7.44.65,11.19.9Z"/>
            <path class="cls-2" d="m187.07,20.98l-79.09,38.25,58.72-39.9c7.7.44,14.95.89,20.37,1.65Z"/>
            <path class="cls-2" d="m200.69,41.53l-92.71,17.7,88.39-30.77c1.83,3.71,3.18,8.41,4.32,13.07Z"/>
            <path class="cls-2" d="m206.45,61.87c-.68,1.35-1.27,2.84-1.79,4.44l-96.68-7.08,95.21-6.98c.89,3.57,1.89,6.9,3.26,9.62Z"/>
            <path class="cls-2" d="m201.87,77.15c-1,4.43-2.12,9.25-3.6,13.5l-90.29-31.42,93.89,17.92Z"/>
            <path class="cls-2" d="m192.91,100.3c-1.22,1.17-2.59,1.95-4.16,2.21-3.96.66-9.15,1.09-14.9,1.47l-65.87-44.75,84.93,41.07Z"/>
            <path class="cls-2" d="m160.72,104.76c-4.19.26-8.45.53-12.66.88l-40.08-46.41s52.74,45.53,52.74,45.53Z"/>
            <path class="cls-2" d="m140.04,106.42c-2.95.34-5.85.73-8.66,1.2l-23.4-48.39,32.06,47.19Z"/>
            <path class="cls-2" d="m125.23,108.78c-2.59.57-5.07,1.22-7.41,1.98l-9.84-51.53s17.25,49.55,17.25,49.55Z"/>
            <path class="cls-2" d="m111.92,113.02c-1.31.6-2.55,1.25-3.7,1.95-1.29-.78-2.69-1.5-4.17-2.16l3.93-53.58s3.94,53.79,3.94,53.79Z"/>
            <path class="cls-2" d="m107.98,59.23l-9.81,51.38c-2.34-.74-4.82-1.37-7.41-1.92,0,0,17.22-49.46,17.22-49.46Z"/>
            <path class="cls-2" d="m107.98,59.23l-23.37,48.31c-2.81-.45-5.71-.84-8.66-1.17,0,0,32.03-47.14,32.03-47.14Z"/>
            <path class="cls-2" d="m107.98,59.23l-40.05,46.38c-4.22-.35-8.48-.62-12.67-.87,0,0,52.72-45.51,52.72-45.51Z"/>
            <path class="cls-2" d="m107.98,59.23l-65.83,44.72c-5.58-.37-10.61-.8-14.46-1.44-1.64-.27-3.06-1.11-4.32-2.36,0,0,84.61-40.92,84.61-40.92Z"/>
            <path class="cls-2" d="m107.98,59.23l-89.86,31.27c-1.47-4.24-2.57-9.04-3.57-13.44,0,0,93.43-17.83,93.43-17.83Z"/>
            <path class="cls-2" d="m107.98,59.23l-96.21,7.05c-.52-1.59-1.1-3.07-1.77-4.41,1.36-2.71,2.35-6.03,3.24-9.58l94.74,6.94Z"/>
            <path class="cls-2" d="m107.98,59.23L15.73,41.61c1.13-4.63,2.47-9.29,4.27-13,0,0,87.98,30.62,87.98,30.62Z"/>
            <path class="cls-2" d="m107.98,59.23L29,21.03c5.35-.78,12.58-1.23,20.29-1.68,0,0,58.69,39.88,58.69,39.88Z"/>
            <path class="cls-2" d="m107.98,59.23L60.98,18.65c3.74-.25,7.49-.54,11.18-.89,0,0,35.82,41.47,35.82,41.47Z"/>
            <path class="cls-2" d="m107.98,59.23l-28.71-42.26c2.63-.33,5.21-.72,7.71-1.18l21,43.44Z"/>
            <path class="cls-2" d="m107.98,59.23l-15.51-44.56c2.32-.54,4.54-1.15,6.64-1.85,0,0,8.87,46.41,8.87,46.41Z"/>
            <path class="cls-2" d="m111.55,10.54l-3.57,48.69-3.55-48.47c1.34-.61,2.61-1.27,3.79-1.99,1.05.63,2.16,1.23,3.33,1.77Z"/>
          </g>
          <path class="cls-3" d="m108.23,119.76l-.58-.41c-11.66-8.25-35.74-9.65-56.99-10.88-9.06-.53-17.61-1.02-23.61-2.02-10.3-1.71-13.72-16.79-16.48-28.9-1.43-6.31-2.67-11.76-4.8-15.15l-.33-.53.33-.53c2.13-3.39,3.37-8.84,4.8-15.14,2.75-12.12,6.18-27.2,16.48-28.91,6-1,14.55-1.49,23.6-2.02,21.26-1.24,45.35-2.64,57-10.88l.58-.41.58.41c11.66,8.25,35.75,9.65,57,10.88,9.06.53,17.61,1.02,23.61,2.02,10.3,1.71,13.72,16.79,16.48,28.9,1.43,6.31,2.67,11.76,4.8,15.15l.33.53-.33.53c-2.13,3.39-3.37,8.84-4.8,15.15-2.75,12.12-6.18,27.2-16.48,28.91-6,1-14.55,1.49-23.61,2.02-21.25,1.24-45.34,2.63-57,10.88l-.58.41h0ZM7.78,61.87c2.11,3.68,3.33,9.05,4.74,15.23,2.62,11.54,5.88,25.89,14.85,27.38,5.89.98,14.4,1.47,23.4,2,21.19,1.23,45.15,2.62,57.46,10.85,12.31-8.22,36.27-9.62,57.46-10.85,9-.52,17.51-1.02,23.4-2,8.97-1.49,12.23-15.84,14.85-27.37,1.4-6.18,2.62-11.56,4.74-15.24-2.11-3.68-3.33-9.05-4.74-15.23-2.62-11.54-5.88-25.89-14.85-27.38-5.89-.98-14.39-1.47-23.39-2-21.19-1.23-45.16-2.62-57.47-10.85-12.31,8.22-36.27,9.62-57.46,10.85-9.01.52-17.51,1.02-23.4,2-8.97,1.49-12.23,15.84-14.85,27.37-1.4,6.18-2.62,11.56-4.74,15.24Z"/>
        </g>
        <g>
          <g class="cls-7">
            <text class="cls-5" transform="translate(67.62 96)"><tspan x="0" y="0">REN</tspan></text>
            <text class="cls-6" transform="translate(110.57 96)"><tspan x="0" y="0">T</tspan></text>
            <text class="cls-5" transform="translate(122.02 96)"><tspan x="0" y="0">AL</tspan></text>
          </g>
          <g>
            <path class="cls-4" d="m115.17,30.41c-1.42-.26-4.69-.29-7.44.37-.18-.13-.35-.26-.53-.38-.53-.36-1.05-.66-1.57-.89-.5-.22-1-.37-1.53-.4h0c-.78-.07-1.55-.1-2.25-.1-1.07,0-1.98.07-2.65.19h0c-.09.02-.2.03-.31.03-.58,0-1.39-.3-2.12-.74-.49-.29-1.1-.14-1.43.36l-8.03,12.22c-.27.42-.28.98-.03,1.41.2.34.37.69.49,1.04.16.49.4.94.67,1.38.27.43.58.86.9,1.26l.13.13s.58.53,1.5,1.36c-.24.38-.37.83-.38,1.31,0,.63.21,1.22.61,1.67.4.46.95.71,1.52.71.4,0,.79-.13,1.13-.36-.23.37-.35.81-.36,1.27,0,.63.21,1.22.61,1.67.4.46.94.71,1.52.71.45,0,.88-.16,1.25-.45-.66.91-.62,2.24.13,3.1.4.45.94.71,1.52.71h0c.56,0,1.09-.24,1.49-.67l.39-.43c-.16.33-.26.7-.27,1.09,0,.63.21,1.22.61,1.67.4.45.95.71,1.52.71s1.09-.24,1.5-.68l.24-.27c.12.1.23.2.32.27.07.06.14.11.19.16l.08.07.12.08c.45.27.88.39,1.22.47.17.04.32.07.43.08l.13.02h.23c.75-.06,1.46-.35,2.04-.84.23-.2.44-.43.62-.69.36.13.74.2,1.14.2,1.61,0,2.96-1.13,3.48-2.7.06,0,.12,0,.17-.02.2.04.41.07.62.07,1.59,0,2.94-1.11,3.47-2.66h.14c2.06,0,3.72-1.83,3.72-4.09,0-.63-.08-1.33-.3-2.05,1.41-1.38,3.48-3.5,3.86-4.66.18-.56,1.19-1.89,1.49-2.34l-7.97-12.12c-1.02.63-2.99,1.98-4.08,1.78l.05-.03Zm4.76,19.39c0,.91-.67,1.64-1.49,1.64-.2,0-.39-.05-.57-.13-.02,0-.04,0-.05-.02l-1.38-1.85c-.35-.45-.96-.5-1.37-.11s-.45,1.06-.1,1.51l1.34,1.8c-.09.82-.71,1.46-1.47,1.46-.36,0-.68-.14-.95-.38l-1.33-1.78c-.35-.45-.96-.5-1.37-.11s-.45,1.06-.1,1.51l.92,1.27v.24c.02.1.02.19.02.27,0,.91-.67,1.64-1.49,1.64-.21,0-.41-.05-.6-.14l-1.62-1.87c-.39-.4-1-.38-1.37.05s-.35,1.11.04,1.51l.76.98c-.08.18-.18.34-.33.47-.2.17-.47.28-.78.32-.09,0-.21-.04-.36-.08-.18-.04-.37-.12-.47-.18-.03-.03-.12-.1-.25-.21-.07-.06-.15-.13-.24-.21.16-.76-.01-1.59-.54-2.19-.4-.46-.95-.71-1.52-.71-.32,0-.64.09-.92.24h0v-.02c.41-.44.63-1.03.64-1.65,0-.63-.21-1.22-.61-1.67-.4-.45-.94-.71-1.52-.71-.45,0-.88.16-1.24.45.29-.41.46-.9.47-1.43,0-.63-.21-1.22-.61-1.67-.4-.46-.94-.71-1.52-.71s-1.09.24-1.49.67l-.36.39c.44-.89.34-2.02-.33-2.78-.4-.46-.95-.71-1.52-.71s-1.09.24-1.49.67l-.24.26c-.17-.15-.33-.3-.48-.44-.55-.5-.93-.84-1.08-.98-.26-.32-.5-.65-.68-.95-.2-.32-.34-.62-.41-.82-.09-.29-.21-.56-.33-.82l7.06-10.74c.7.32,1.46.56,2.29.57.22,0,.44-.02.67-.06h0c.47-.09,1.31-.16,2.28-.16.64,0,1.35.03,2.07.09h.05c.18,0,.47.08.83.24l.08.04c-3.02,1.5-7.29,4.39-8.7,4.91-1.6.59-1.74,2.95,1.87,3.39s6.82-2.06,7.62-2.51c.58-.32,4.23.07,6.26.31.89.97,1.68,1.88,2.25,2.56l4.45,6,.02.02c.57.73.88,1.32,1.05,1.83.17.51.23.94.23,1.44v.05Z"/>
            <path class="cls-4" d="m136.15,37.25l-10.75-16.35c-.26-.4-.76-.48-1.12-.2l-4.76,3.81c-.36.29-.44.84-.18,1.24l10.75,16.35c.26.4.76.48,1.12.2l4.76-3.81c.36-.29.44-.84.18-1.24h0Zm-3.66,1.47c-.6.48-1.43.33-1.87-.33-.43-.66-.3-1.58.3-2.06s1.43-.33,1.87.33c.43.66.3,1.58-.3,2.06Z"/>
            <path class="cls-4" d="m95.32,24.51l-4.76-3.81c-.36-.29-.86-.2-1.12.2l-10.75,16.35c-.26.4-.18.95.18,1.24l4.76,3.81c.36.29.86.2,1.12-.2l10.75-16.35c.26-.4.18-.95-.18-1.24Zm-3.18,1.83c-.43.66-1.27.81-1.87.33-.6-.48-.73-1.4-.3-2.06s1.27-.81,1.87-.33c.6.48.73,1.4.3,2.06Z"/>
          </g>
        </g>
      </g>
    </g>
  </g>
</svg>