<?xml version="1.0" encoding="UTF-8"?>
<svg id="Layer_2" data-name="Layer 2" xmlns="http://www.w3.org/2000/svg" viewBox="0 0 216.46 123.73">
  <defs>
    <style>
      .cls-1 {
        fill: #dec698;
      }

      .cls-2 {
        fill: #decaa4;
      }

      .cls-3 {
        fill: #704f2a;
      }

      .cls-4, .cls-5 {
        fill: #523333;
      }

      .cls-5 {
        font-family: BebasNeue-Regular, 'Bebas Neue';
        font-size: 36px;
      }

      .cls-5, .cls-6 {
        isolation: isolate;
      }

      .cls-7 {
        letter-spacing: -.03em;
      }
    </style>
  </defs>
  <g id="Livello_2" data-name="Livello 2">
    <g id="OBJECTS">
      <g>
        <g>
          <path class="cls-1" d="m189.9,14.32c-20.79-3.45-68.33-.89-81.68-14.32-13.35,13.44-60.88,10.87-81.68,14.32C5.76,17.78,9.6,61.87,0,61.87c9.6,0,5.76,44.09,26.55,47.54,20.79,3.45,68.33.89,81.68,14.32,13.35-13.44,60.88-10.87,81.68-14.32,20.79-3.45,16.95-47.54,26.55-47.54-9.6,0-5.76-44.09-26.55-47.54h-.01Z"/>
          <g>
            <path class="cls-2" d="m123.54,14.57l-15.55,44.66,8.88-46.56c2.11.72,4.34,1.35,6.67,1.9Z"/>
            <path class="cls-2" d="m136.73,16.91l-28.74,42.32,21.04-43.52c2.49.47,5.07.86,7.7,1.2Z"/>
            <path class="cls-2" d="m155.02,18.62l-47.03,40.61,35.84-41.51c3.69.36,7.44.65,11.19.9Z"/>
            <path class="cls-2" d="m187.08,20.98l-79.09,38.25,58.72-39.9c7.7.44,14.95.89,20.37,1.65Z"/>
            <path class="cls-2" d="m200.7,41.53l-92.71,17.7,88.39-30.77c1.83,3.71,3.18,8.41,4.32,13.07h0Z"/>
            <path class="cls-2" d="m206.46,61.87c-.68,1.35-1.27,2.84-1.79,4.44l-96.68-7.08,95.21-6.98c.89,3.57,1.89,6.9,3.26,9.62Z"/>
            <path class="cls-2" d="m201.88,77.15c-1,4.43-2.12,9.25-3.6,13.5l-90.29-31.42,93.89,17.92Z"/>
            <path class="cls-2" d="m192.92,100.3c-1.22,1.17-2.59,1.95-4.16,2.21-3.96.66-9.15,1.09-14.9,1.47l-65.87-44.75,84.93,41.07Z"/>
            <path class="cls-2" d="m160.73,104.76c-4.19.26-8.45.53-12.66.88l-40.08-46.41s52.74,45.53,52.74,45.53Z"/>
            <path class="cls-2" d="m140.05,106.42c-2.95.34-5.85.73-8.66,1.2l-23.4-48.39,32.06,47.19Z"/>
            <path class="cls-2" d="m125.24,108.78c-2.59.57-5.07,1.22-7.41,1.98l-9.84-51.53s17.25,49.55,17.25,49.55Z"/>
            <path class="cls-2" d="m111.93,113.02c-1.31.6-2.55,1.25-3.7,1.95-1.29-.78-2.69-1.5-4.17-2.16l3.93-53.58s3.94,53.79,3.94,53.79Z"/>
            <path class="cls-2" d="m107.99,59.23l-9.81,51.38c-2.34-.74-4.82-1.37-7.41-1.92,0,0,17.22-49.46,17.22-49.46Z"/>
            <path class="cls-2" d="m107.99,59.23l-23.37,48.31c-2.81-.45-5.71-.84-8.66-1.17,0,0,32.03-47.14,32.03-47.14Z"/>
            <path class="cls-2" d="m107.99,59.23l-40.05,46.38c-4.22-.35-8.48-.62-12.67-.87,0,0,52.72-45.51,52.72-45.51Z"/>
            <path class="cls-2" d="m107.99,59.23l-65.83,44.72c-5.58-.37-10.61-.8-14.46-1.44-1.64-.27-3.06-1.11-4.32-2.36,0,0,84.61-40.92,84.61-40.92Z"/>
            <path class="cls-2" d="m107.99,59.23l-89.86,31.27c-1.47-4.24-2.57-9.04-3.57-13.44,0,0,93.43-17.83,93.43-17.83Z"/>
            <path class="cls-2" d="m107.99,59.23l-96.21,7.05c-.52-1.59-1.1-3.07-1.77-4.41,1.36-2.71,2.35-6.03,3.24-9.58l94.74,6.94Z"/>
            <path class="cls-2" d="m107.99,59.23L15.74,41.61c1.13-4.63,2.47-9.29,4.27-13,0,0,87.98,30.62,87.98,30.62Z"/>
            <path class="cls-2" d="m107.99,59.23L29.01,21.03c5.35-.78,12.58-1.23,20.29-1.68,0,0,58.69,39.88,58.69,39.88Z"/>
            <path class="cls-2" d="m107.99,59.23L60.99,18.65c3.74-.25,7.49-.54,11.18-.89,0,0,35.82,41.47,35.82,41.47Z"/>
            <path class="cls-2" d="m107.99,59.23l-28.71-42.26c2.63-.33,5.21-.72,7.71-1.18l21,43.44Z"/>
            <path class="cls-2" d="m107.99,59.23l-15.51-44.56c2.32-.54,4.54-1.15,6.64-1.85,0,0,8.87,46.41,8.87,46.41Z"/>
            <path class="cls-2" d="m111.56,10.54l-3.57,48.69-3.55-48.47c1.34-.61,2.61-1.27,3.79-1.99,1.05.63,2.16,1.23,3.33,1.77Z"/>
          </g>
          <path class="cls-3" d="m108.23,119.76l-.58-.41c-11.66-8.25-35.74-9.65-56.99-10.88-9.06-.53-17.61-1.02-23.61-2.02-10.3-1.71-13.72-16.79-16.48-28.9-1.43-6.31-2.67-11.76-4.8-15.15l-.33-.53.33-.53c2.13-3.39,3.37-8.84,4.8-15.14,2.75-12.12,6.18-27.2,16.48-28.91,6-1,14.55-1.49,23.6-2.02,21.26-1.24,45.35-2.64,57-10.88l.58-.41.58.41c11.66,8.25,35.75,9.65,57,10.88,9.06.53,17.61,1.02,23.61,2.02,10.3,1.71,13.72,16.79,16.48,28.9,1.43,6.31,2.67,11.76,4.8,15.15l.33.53-.33.53c-2.13,3.39-3.37,8.84-4.8,15.15-2.75,12.12-6.18,27.2-16.48,28.91-6,1-14.55,1.49-23.61,2.02-21.25,1.24-45.34,2.63-57,10.88l-.58.41h0ZM7.78,61.87c2.11,3.68,3.33,9.05,4.74,15.23,2.62,11.54,5.88,25.89,14.85,27.38,5.89.98,14.4,1.47,23.4,2,21.19,1.23,45.15,2.62,57.46,10.85,12.31-8.22,36.27-9.62,57.46-10.85,9-.52,17.51-1.02,23.4-2,8.97-1.49,12.23-15.84,14.85-27.37,1.4-6.18,2.62-11.56,4.74-15.24-2.11-3.68-3.33-9.05-4.74-15.23-2.62-11.54-5.88-25.89-14.85-27.38-5.89-.98-14.39-1.47-23.39-2-21.19-1.23-45.16-2.62-57.47-10.85-12.31,8.22-36.27,9.62-57.46,10.85-9.01.52-17.51,1.02-23.4,2-8.97,1.49-12.23,15.84-14.85,27.37-1.4,6.18-2.62,11.56-4.74,15.24Z"/>
        </g>
        <g>
          <g class="cls-6">
            <text class="cls-5" transform="translate(63.5 97.25)"><tspan x="0" y="0">re</tspan><tspan class="cls-7" x="27.58" y="0">p</tspan><tspan x="40.21" y="0">airs</tspan></text>
          </g>
          <path class="cls-4" d="m125.4,20.42l-1.32,1.11-1,1.25-1,1.25-6.77,6.87c-3.72,3.78-6.78,6.86-6.8,6.86-.06-.02-8.16-7.98-8.5-8.36-.73-.81-1.22-1.65-1.55-2.64-.13-.38-.27-.93-.46-1.83-.31-1.4-.58-2.11-1.1-2.87-.26-.38-.69-.87-.93-1.06-.46-.35-1.23-.64-2.09-.77-.38-.06-.59-.07-1.27-.07s-.87,0-1.23.07c-.61.11-.96.25-1,.4-.05.16.51.57,2.01,1.46,1.01.6,1.08.65,1.15.81.16.39.21,1.53.08,2.08-.1.46-.22.7-.48.95-.42.42-.93.7-1.5.82l-.3.07-.14-.07c-.19-.09-.52-.32-1.15-.79-1.07-.79-1.56-1.08-1.79-1.06-.17.01-.22.1-.19.43.06.9,1.01,2.5,2.23,3.75.4.42.72.63,1.29.84.59.22,1.22.35,2.67.54,1.41.19,2.09.35,2.74.65.59.27.49.18,4.99,4.74l4.22,4.28-.42.42-.42.42-.48-.43c-.45-.4-.5-.44-.74-.52-.14-.05-.46-.17-.72-.26l-.46-.16-.64.65-.65.65.04.2c.06.36-.04.77-.29,1.2-.13.21-.66.78-1.02,1.07-.74.6-1.58,1.02-2.05,1.02h-.14l-5.17,5.24c-3.7,3.75-5.18,5.27-5.22,5.36-.27.6-.18,1.6.2,2.38.39.78,1.14,1.66,1.89,2.21.33.24.89.54,1.22.65.64.21,1.39.21,1.85,0,.09-.04,1.61-1.56,5.29-5.3l5.16-5.24.02-.18c.04-.43.25-.93.58-1.45.28-.43.5-.71.94-1.15.44-.45.71-.63,1.11-.73.23-.06.58-.07.71-.02.09.03.11,0,.74-.63l.65-.66-.25-.73-.25-.73-.33-.37c-.18-.21-.37-.43-.42-.49l-.09-.11.41-.42.41-.42,6.5,6.59c3.57,3.62,6.55,6.66,6.63,6.76.31.42.48.77.92,1.91.38.97.55,1.35.85,1.79.5.76,1.19,1.31,1.95,1.56.39.13.6.16,1,.16.79,0,1.51-.32,2.15-.94,1.16-1.12,1.44-2.64.75-4.08-.4-.84-1.03-1.36-2.23-1.84-.2-.08-.64-.24-.98-.36-1.01-.36-1.52-.61-1.93-.92-.15-.12-11.63-11.36-12.96-12.7l-.31-.31,6.68-6.78,6.68-6.78,1.36-1.12,1.36-1.12,1.08-1.33,1.08-1.33-.73-.74c-.4-.41-.74-.74-.75-.74,0,0-.61.5-1.34,1.11l-.03.03h0Zm-.24,34.31c.13.06.26.11.29.11.02,0,.17-.06.32-.13s.29-.13.31-.13.12.13.23.29l.21.29.31.02c.18,0,.33.03.35.05.02,0,.04.15.05.32.01.16.03.32.04.35,0,.03.14.14.29.25s.27.21.27.22c0,.02-.06.16-.13.32s-.13.31-.13.33.06.16.13.32.13.3.13.32-.13.13-.27.23c-.15.1-.27.2-.28.21,0,0-.02.17-.04.36l-.04.34-.35.04c-.19.02-.36.05-.37.07-.01,0-.1.14-.21.28-.1.14-.2.25-.21.25-.02,0-.16-.06-.32-.13-.32-.15-.3-.15-.69.04l-.26.12-.2-.29c-.22-.32-.17-.29-.69-.35l-.22-.02-.04-.34c-.02-.19-.04-.35-.04-.36,0,0-.13-.11-.28-.21-.15-.11-.27-.22-.27-.23,0-.02.06-.17.13-.32.07-.16.13-.3.13-.32s-.06-.16-.13-.33c-.07-.16-.13-.31-.12-.34,0-.02.13-.12.27-.22.29-.2.28-.19.31-.62.01-.14.04-.27.05-.28.02,0,.18-.03.35-.05l.31-.02.13-.18c.19-.27.31-.39.35-.37.06.03.17.07.3.13l.03-.02h0Z"/>
        </g>
      </g>
    </g>
  </g>
</svg>